  0
SECTION
  2
HEADER
  9
$ACADVER
  1
AC1009
  9
$INSBASE
 10
0.0
 20
0.0
 30
0.0
  9
$EXTMIN
 10
-0.3098948906071493
 20
0.0
 30
0.0
  9
$EXTMAX
 10
351.6100934152880768
 20
267.1876580071815965
 30
0.0
  9
$LIMMIN
 10
0.0
 20
0.0
  9
$LIMMAX
 10
420.0
 20
297.0
  9
$ORTHOMODE
 70
     0
  9
$REGENMODE
 70
     1
  9
$FILLMODE
 70
     1
  9
$QTEXTMODE
 70
     0
  9
$MIRRTEXT
 70
     0
  9
$DRAGMODE
 70
     2
  9
$LTSCALE
 40
1.0
  9
$OSMODE
 70
  3447
  9
$ATTMODE
 70
     1
  9
$TEXTSIZE
 40
2.5
  9
$TRACEWID
 40
1.0
  9
$TEXTSTYLE
  7
STANDARD
  9
$CLAYER
  8
0
  9
$CELTYPE
  6
BYLAYER
  9
$CECOLOR
 62
   256
  9
$DIMSCALE
 40
1.0
  9
$DIMASZ
 40
2.5
  9
$DIMEXO
 40
0.625
  9
$DIMDLI
 40
3.75
  9
$DIMRND
 40
0.0
  9
$DIMDLE
 40
0.0
  9
$DIMEXE
 40
1.25
  9
$DIMTP
 40
0.0
  9
$DIMTM
 40
0.0
  9
$DIMTXT
 40
2.5
  9
$DIMCEN
 40
2.5
  9
$DIMTSZ
 40
0.0
  9
$DIMTOL
 70
     0
  9
$DIMLIM
 70
     0
  9
$DIMTIH
 70
     0
  9
$DIMTOH
 70
     0
  9
$DIMSE1
 70
     0
  9
$DIMSE2
 70
     0
  9
$DIMTAD
 70
     1
  9
$DIMZIN
 70
     8
  9
$DIMBLK
  1

  9
$DIMASO
 70
     1
  9
$DIMSHO
 70
     1
  9
$DIMPOST
  1

  9
$DIMAPOST
  1

  9
$DIMALT
 70
     0
  9
$DIMALTD
 70
     3
  9
$DIMALTF
 40
0.03937007874016
  9
$DIMLFAC
 40
1.0
  9
$DIMTOFL
 70
     1
  9
$DIMTVP
 40
0.0
  9
$DIMTIX
 70
     0
  9
$DIMSOXD
 70
     0
  9
$DIMSAH
 70
     0
  9
$DIMBLK1
  1

  9
$DIMBLK2
  1

  9
$DIMSTYLE
  2
ISO-25
  9
$DIMCLRD
 70
     0
  9
$DIMCLRE
 70
     0
  9
$DIMCLRT
 70
     0
  9
$DIMTFAC
 40
1.0
  9
$DIMGAP
 40
0.625
  9
$LUNITS
 70
     2
  9
$LUPREC
 70
     4
  9
$SKETCHINC
 40
1.0
  9
$FILLETRAD
 40
0.0
  9
$AUNITS
 70
     0
  9
$AUPREC
 70
     0
  9
$MENU
  1
.
  9
$ELEVATION
 40
0.0
  9
$PELEVATION
 40
0.0
  9
$THICKNESS
 40
0.0
  9
$LIMCHECK
 70
     0
  9
$BLIPMODE
 70
     0
  9
$CHAMFERA
 40
0.0
  9
$CHAMFERB
 40
0.0
  9
$SKPOLY
 70
     0
  9
$TDCREATE
 40
2460451.4017013888806105
  9
$TDUPDATE
 40
2460451.4264699080958962
  9
$TDINDWG
 40
0.0247685185
  9
$TDUSRTIMER
 40
0.0247685185
  9
$USRTIMER
 70
     1
  9
$ANGBASE
 50
0.0
  9
$ANGDIR
 70
     0
  9
$PDMODE
 70
     0
  9
$PDSIZE
 40
0.0
  9
$PLINEWID
 40
0.0
  9
$COORDS
 70
     1
  9
$SPLFRAME
 70
     0
  9
$SPLINETYPE
 70
     6
  9
$SPLINESEGS
 70
     8
  9
$ATTDIA
 70
     1
  9
$ATTREQ
 70
     1
  9
$HANDLING
 70
     1
  9
$HANDSEED
  5
8EF
  9
$SURFTAB1
 70
     6
  9
$SURFTAB2
 70
     6
  9
$SURFTYPE
 70
     6
  9
$SURFU
 70
     6
  9
$SURFV
 70
     6
  9
$UCSNAME
  2

  9
$UCSORG
 10
0.0
 20
0.0
 30
0.0
  9
$UCSXDIR
 10
1.0
 20
0.0
 30
0.0
  9
$UCSYDIR
 10
0.0
 20
1.0
 30
0.0
  9
$PUCSNAME
  2

  9
$PUCSORG
 10
0.0
 20
0.0
 30
0.0
  9
$PUCSXDIR
 10
1.0
 20
0.0
 30
0.0
  9
$PUCSYDIR
 10
0.0
 20
1.0
 30
0.0
  9
$USERI1
 70
     0
  9
$USERI2
 70
     0
  9
$USERI3
 70
     0
  9
$USERI4
 70
     0
  9
$USERI5
 70
     0
  9
$USERR1
 40
0.0
  9
$USERR2
 40
0.0
  9
$USERR3
 40
0.0
  9
$USERR4
 40
0.0
  9
$USERR5
 40
0.0
  9
$WORLDVIEW
 70
     1
  9
$SHADEDGE
 70
     3
  9
$SHADEDIF
 70
    70
  9
$TILEMODE
 70
     1
  9
$MAXACTVP
 70
    64
  9
$PLIMCHECK
 70
     0
  9
$PEXTMIN
 10
0.0
 20
0.0
 30
0.0
  9
$PEXTMAX
 10
0.0
 20
0.0
 30
0.0
  9
$PLIMMIN
 10
0.0
 20
0.0
  9
$PLIMMAX
 10
12.0
 20
9.0
  9
$UNITMODE
 70
     0
  9
$VISRETAIN
 70
     1
  9
$PLINEGEN
 70
     0
  9
$PSLTSCALE
 70
     1
  0
ENDSEC
  0
SECTION
  2
TABLES
  0
TABLE
  2
VPORT
 70
     1
  0
VPORT
  2
*ACTIVE
 70
     0
 10
0.0
 20
0.0
 11
1.0
 21
1.0
 12
224.8515893952954059
 22
31.4246412782877087
 13
0.0
 23
0.0
 14
10.0
 24
10.0
 15
10.0
 25
10.0
 16
0.0
 26
0.0
 36
1.0
 17
0.0
 27
0.0
 37
0.0
 40
308.4359495838671137
 41
2.0480256136606192
 42
50.0
 43
0.0
 44
0.0
 50
0.0
 51
0.0
 71
     0
 72
  1000
 73
     1
 74
     3
 75
     0
 76
     1
 77
     0
 78
     0
  0
ENDTAB
  0
TABLE
  2
LTYPE
 70
     3
  0
LTYPE
  2
CONTINUOUS
 70
     0
  3
Solid line
 72
    65
 73
     0
 40
0.0
  0
LTYPE
  2
CHAIN
 70
     0
  3
Chain ____ _ ____ _ ____ _ ____ _ ____ _ ____
 72
    65
 73
     4
 40
0.7087
 49
0.4724000000000001
 49
-0.0591
 49
0.1181
 49
-0.0591
  0
ENDTAB
  0
TABLE
  2
LAYER
 70
     7
  0
LAYER
  2
0
 70
     0
 62
     7
  6
CONTINUOUS
  0
LAYER
  2
CENTER_MARK__ISO_
 70
     0
 62
     7
  6
CONTINUOUS
  0
LAYER
  2
CENTERLINE__ISO_
 70
     0
 62
     7
  6
CONTINUOUS
  0
LAYER
  2
DIMENSION__ISO_
 70
     0
 62
     7
  6
CONTINUOUS
  0
LAYER
  2
SYMBOL__ISO_
 70
     0
 62
     7
  6
CONTINUOUS
  0
LAYER
  2
VISIBLE__ISO_
 70
     0
 62
     7
  6
CONTINUOUS
  0
LAYER
  2
DEFPOINTS
 70
     0
 62
     7
  6
CONTINUOUS
  0
ENDTAB
  0
TABLE
  2
STYLE
 70
     5
  0
STYLE
  2
STANDARD
 70
     0
 40
0.0
 41
1.0
 50
0.0
 71
     0
 42
2.5
  3
txt
  4

  0
STYLE
  2
ANNOTATIVE
 70
     0
 40
0.0
 41
1.0
 50
0.0
 71
     0
 42
2.5
  3
txt
  4

  0
STYLE
  2
NOTE_TEXT__ANSI_
 70
     0
 40
0.0
 41
1.0
 50
0.0
 71
     0
 42
0.2
  3
txt
  4

  0
STYLE
  2
MtXpl_Tahoma
 70
     0
 40
0.0
 41
1.0
 50
0.0
 71
     0
 42
2.5
  3
txt
  4

  0
STYLE
  2
MtXpl_AIGDT
 70
     0
 40
0.0
 41
1.0
 50
0.0
 71
     0
 42
2.5
  3
txt
  4

  0
ENDTAB
  0
TABLE
  2
VIEW
 70
     0
  0
ENDTAB
  0
TABLE
  2
UCS
 70
     0
  0
ENDTAB
  0
TABLE
  2
APPID
 70
    11
  0
APPID
  2
ACAD
 70
     0
  0
APPID
  2
ACAD_PSEXT
 70
     0
  0
APPID
  2
ACADANNOPO
 70
     0
  0
APPID
  2
ACADANNOTATIVE
 70
     0
  0
APPID
  2
ACAD_DSTYLE_DIMJAG
 70
     0
  0
APPID
  2
ACAD_DSTYLE_DIMTALN
 70
     0
  0
APPID
  2
ACAD_MLEADERVER
 70
     0
  0
APPID
  2
ACAD_NAV_VCDISPLAY
 70
     0
  0
APPID
  2
ACAD_DSTYLE_DIMRADIAL_EXTENSION
 70
     0
  0
APPID
  2
ACAD_DSTYLE_DIMANGULAR_EXT
 70
     0
  0
APPID
  2
ACAD_EXEMPT_FROM_CAD_STANDARDS
 70
     0
  0
ENDTAB
  0
TABLE
  2
DIMSTYLE
 70
     7
  0
DIMSTYLE
  2
STANDARD
 70
     0
  3

  4

  5

  6

  7

 40
1.0
 41
0.18
 42
0.0625
 43
0.38
 44
0.18
 45
0.0
 46
0.0
 47
0.0
 48
0.0
140
0.18
141
0.09
142
0.0
143
25.3999999999999986
144
1.0
145
0.0
146
1.0
147
0.09
 71
     0
 72
     0
 73
     1
 74
     1
 75
     0
 76
     0
 77
     0
 78
     0
170
     0
171
     2
172
     0
173
     0
174
     0
175
     0
176
     0
177
     0
178
     0
  0
DIMSTYLE
  2
ANNOTATIVE
 70
     0
  3

  4

  5

  6

  7

 40
0.0
 41
2.5
 42
0.625
 43
3.75
 44
1.25
 45
0.0
 46
0.0
 47
0.0
 48
0.0
140
2.5
141
2.5
142
0.0
143
0.03937007874016
144
1.0
145
0.0
146
1.0
147
0.625
 71
     0
 72
     0
 73
     0
 74
     0
 75
     0
 76
     0
 77
     1
 78
     8
170
     0
171
     3
172
     1
173
     0
174
     0
175
     0
176
     0
177
     0
178
     0
  0
DIMSTYLE
  2
ISO-25
 70
     0
  3

  4

  5

  6

  7

 40
1.0
 41
2.5
 42
0.625
 43
3.75
 44
1.25
 45
0.0
 46
0.0
 47
0.0
 48
0.0
140
2.5
141
2.5
142
0.0
143
0.03937007874016
144
1.0
145
0.0
146
1.0
147
0.625
 71
     0
 72
     0
 73
     0
 74
     0
 75
     0
 76
     0
 77
     1
 78
     8
170
     0
171
     3
172
     1
173
     0
174
     0
175
     0
176
     0
177
     0
178
     0
  0
DIMSTYLE
  2
INTRALOX_HOLE_CALLOUT__MET
 70
     0
  3

  4

  5

  6

  7

 40
1.6666666666666661
 41
2.5
 42
1.587499999999999
 43
5.9999999999999991
 44
3.174999999999998
 45
0.00000001
 46
10.0
 47
0.0
 48
0.0
140
2.539999961853026
141
0.09
142
0.0
143
0.03937
144
1.0
145
0.0
146
1.2000000476837149
147
0.8
 71
     0
 72
     0
 73
     1
 74
     1
 75
     0
 76
     0
 77
     0
 78
     8
170
     1
171
     3
172
     1
173
     0
174
     0
175
     0
176
   256
177
   256
178
   256
  0
DIMSTYLE
  2
INTRALOX_X_X__X_XX__MM-INC
 70
     0
  3

  4

  5

  6

  7

 40
1.6666666666666661
 41
2.5
 42
1.587499999999999
 43
5.9999999999999991
 44
3.174999999999998
 45
0.00000001
 46
10.0
 47
0.0
 48
0.0
140
2.539999961853026
141
0.09
142
0.0
143
0.03937
144
1.0
145
0.0
146
1.2000000476837149
147
0.8
 71
     0
 72
     0
 73
     1
 74
     1
 75
     0
 76
     0
 77
     0
 78
     0
170
     1
171
     2
172
     1
173
     0
174
     0
175
     0
176
   256
177
   256
178
   256
  0
DIMSTYLE
  2
INTRALOX_X_XX__X_XXX__MM-I
 70
     0
  3

  4

  5

  6

  7

 40
1.6666666666666661
 41
2.5
 42
1.587499999999999
 43
5.9999999999999991
 44
3.174999999999998
 45
0.00000001
 46
17.7800000000000011
 47
0.0
 48
0.0
140
2.539999961853026
141
0.09
142
0.0
143
0.03937
144
1.0
145
0.0
146
1.2000000476837149
147
0.8
 71
     0
 72
     0
 73
     1
 74
     1
 75
     0
 76
     0
 77
     0
 78
     8
170
     1
171
     3
172
     1
173
     0
174
     0
175
     0
176
   256
177
   256
178
   256
  0
ENDTAB
  0
ENDSEC
  0
SECTION
  2
BLOCKS
  0
BLOCK
  8
0
  2
$MODEL_SPACE
 70
     0
 10
0.0
 20
0.0
 30
0.0
  3
$MODEL_SPACE
  1

  0
ENDBLK
  5
21
  8
0
  0
BLOCK
 67
     1
  8
0
  2
$PAPER_SPACE
 70
     0
 10
0.0
 20
0.0
 30
0.0
  3
$PAPER_SPACE
  1

  0
ENDBLK
  5
D5
 67
     1
  8
0
  0
BLOCK
  8
0
  2
_CLOSED
 70
     0
 10
0.0
 20
0.0
 30
0.0
  3
_CLOSED
  1

  0
LINE
  5
297
  8
0
  6
BYBLOCK
 62
     0
 10
-1.0
 20
0.1666666666666666
 30
0.0
 11
0.0
 21
0.0
 31
0.0
  0
LINE
  5
298
  8
0
  6
BYBLOCK
 62
     0
 10
0.0
 20
0.0
 30
0.0
 11
-1.0
 21
-0.1666666666666666
 31
0.0
  0
LINE
  5
299
  8
0
  6
BYBLOCK
 62
     0
 10
-1.0
 20
0.1666666666666666
 30
0.0
 11
-1.0
 21
-0.1666666666666666
 31
0.0
  0
LINE
  5
29A
  8
0
  6
BYBLOCK
 62
     0
 10
0.0
 20
0.0
 30
0.0
 11
-1.0
 21
0.0
 31
0.0
  0
ENDBLK
  5
29B
  8
0
  0
BLOCK
  8
0
  2
*D2
 70
     1
 10
0.0
 20
0.0
 30
0.0
  3
*D2
  1

  0
LINE
  5
29E
  8
DIMENSION__ISO_
 10
154.2087401818940009
 20
288.7943708234678866
 30
0.0
 11
154.2087401818940009
 21
343.4195288306494831
 31
0.0
  0
LINE
  5
29F
  8
DIMENSION__ISO_
 10
357.408740181894018
 20
210.2920333403095015
 30
0.0
 11
357.408740181894018
 21
343.4195288306494831
 31
0.0
  0
LINE
  5
2A0
  8
DIMENSION__ISO_
 10
158.3754068485606012
 20
338.1278621639827975
 30
0.0
 11
237.2506590654174943
 21
338.1278621639827975
 31
0.0
  0
LINE
  5
2A1
  8
DIMENSION__ISO_
 10
353.2420735152272755
 20
338.1278621639827975
 30
0.0
 11
274.3668212983706098
 21
338.1278621639827975
 31
0.0
  0
SOLID
  5
2A2
  8
DIMENSION__ISO_
 10
158.3754068485606012
 20
338.8223066084273114
 30
0.0
 11
158.3754068485606012
 21
337.4334177195383973
 31
0.0
 12
154.2087401818940009
 22
338.1278621639827975
 32
0.0
 13
154.2087401818940009
 23
338.1278621639827975
 33
0.0
  0
SOLID
  5
2A3
  8
DIMENSION__ISO_
 10
353.2420735152272755
 20
338.8223066084273114
 30
0.0
 11
353.2420735152272755
 21
337.4334177195383973
 31
0.0
 12
357.408740181894018
 22
338.1278621639827975
 32
0.0
 13
357.408740181894018
 23
338.1278621639827975
 33
0.0
  0
INSERT
  5
2A4
  8
0
  2
*U39
 10
0.0
 20
0.0
 30
0.0
  0
POINT
  5
2A5
  8
DEFPOINTS
 62
     0
 10
154.2087401818940009
 20
286.1485374901345153
 30
0.0
  0
POINT
  5
2A6
  8
DEFPOINTS
 62
     0
 10
357.408740181894018
 20
207.6462000069761018
 30
0.0
  0
POINT
  5
2A7
  8
DEFPOINTS
 62
     0
 10
357.408740181894018
 20
338.1278621639827975
 30
0.0
  0
ENDBLK
  5
2A8
  8
0
  0
BLOCK
  8
0
  2
*D3
 70
     1
 10
0.0
 20
0.0
 30
0.0
  3
*D3
  1

  0
LINE
  5
2AB
  8
DIMENSION__ISO_
 10
154.2087401818940009
 20
288.7943708234678866
 30
0.0
 11
154.2087401818940009
 21
331.0735374901346972
 31
0.0
  0
LINE
  5
2AC
  8
DIMENSION__ISO_
 10
321.8087401818939952
 20
288.7943708234678866
 30
0.0
 11
321.8087401818939952
 21
331.0735374901346972
 31
0.0
  0
LINE
  5
2AD
  8
DIMENSION__ISO_
 10
158.3754068485606012
 20
325.7818708234677842
 30
0.0
 11
219.6169787394809987
 21
325.7818708234677842
 31
0.0
  0
LINE
  5
2AE
  8
DIMENSION__ISO_
 10
317.6420735152273096
 20
325.7818708234677842
 30
0.0
 11
256.4005016243070258
 21
325.7818708234677842
 31
0.0
  0
SOLID
  5
2AF
  8
DIMENSION__ISO_
 10
158.3754068485606012
 20
326.4763152679122982
 30
0.0
 11
158.3754068485606012
 21
325.0874263790234977
 31
0.0
 12
154.2087401818940009
 22
325.7818708234677842
 32
0.0
 13
154.2087401818940009
 23
325.7818708234677842
 33
0.0
  0
SOLID
  5
2B0
  8
DIMENSION__ISO_
 10
317.6420735152273096
 20
326.4763152679122982
 30
0.0
 11
317.6420735152273096
 21
325.0874263790234977
 31
0.0
 12
321.8087401818939952
 22
325.7818708234677842
 32
0.0
 13
321.8087401818939952
 23
325.7818708234677842
 33
0.0
  0
INSERT
  5
2B1
  8
0
  2
*U40
 10
0.0
 20
0.0
 30
0.0
  0
POINT
  5
2B2
  8
DEFPOINTS
 62
     0
 10
154.2087401818940009
 20
286.1485374901345153
 30
0.0
  0
POINT
  5
2B3
  8
DEFPOINTS
 62
     0
 10
321.8087401818939952
 20
286.1485374901345153
 30
0.0
  0
POINT
  5
2B4
  8
DEFPOINTS
 62
     0
 10
321.8087401818939952
 20
325.7818708234677842
 30
0.0
  0
ENDBLK
  5
2B5
  8
0
  0
BLOCK
  8
0
  2
*D4
 70
     1
 10
0.0
 20
0.0
 30
0.0
  3
*D4
  1

  0
LINE
  5
2B8
  8
DIMENSION__ISO_
 10
154.2087401818940009
 20
288.7943708234678866
 30
0.0
 11
154.2087401818940009
 21
317.8892026982421157
 31
0.0
  0
LINE
  5
2B9
  8
DIMENSION__ISO_
 10
192.3087401818941089
 20
278.1163708234677756
 30
0.0
 11
192.3087401818941089
 21
317.8892026982421157
 31
0.0
  0
LINE
  5
2BA
  8
DIMENSION__ISO_
 10
188.1420735152275086
 20
312.5975360315753733
 30
0.0
 11
158.3754068485606012
 21
312.5975360315753733
 31
0.0
  0
LINE
  5
2BB
  8
DIMENSION__ISO_
 10
154.2087401818940009
 20
312.5975360315753733
 30
0.0
 11
143.1634033261177876
 21
312.5975360315753733
 31
0.0
  0
SOLID
  5
2BC
  8
DIMENSION__ISO_
 10
188.1420735152275086
 20
313.2919804760198872
 30
0.0
 11
188.1420735152275086
 21
311.903091587130973
 31
0.0
 12
192.3087401818941089
 22
312.5975360315753733
 32
0.0
 13
192.3087401818941089
 23
312.5975360315753733
 33
0.0
  0
SOLID
  5
2BD
  8
DIMENSION__ISO_
 10
158.3754068485606012
 20
313.2919804760198872
 30
0.0
 11
158.3754068485606012
 21
311.903091587130973
 31
0.0
 12
154.2087401818940009
 22
312.5975360315753733
 32
0.0
 13
154.2087401818940009
 23
312.5975360315753733
 33
0.0
  0
INSERT
  5
2BE
  8
0
  2
*U41
 10
0.0
 20
0.0
 30
0.0
  0
POINT
  5
2BF
  8
DEFPOINTS
 62
     0
 10
154.2087401818940009
 20
286.1485374901345153
 30
0.0
  0
POINT
  5
2C0
  8
DEFPOINTS
 62
     0
 10
192.3087401818941089
 20
275.4705374901345181
 30
0.0
  0
POINT
  5
2C1
  8
DEFPOINTS
 62
     0
 10
192.3087401818941089
 20
312.5975360315753733
 30
0.0
  0
ENDBLK
  5
2C2
  8
0
  0
BLOCK
  8
0
  2
*D5
 70
     1
 10
0.0
 20
0.0
 30
0.0
  3
*D5
  1

  0
LINE
  5
2C5
  8
DIMENSION__ISO_
 10
157.9129068485607092
 20
292.4985374901347086
 30
0.0
 11
75.6337401818939412
 21
292.4985374901345949
 31
0.0
  0
LINE
  5
2C6
  8
DIMENSION__ISO_
 10
189.6629068485607945
 20
80.3985374901346148
 30
0.0
 11
75.6337401818939838
 21
80.3985374901345864
 31
0.0
  0
LINE
  5
2C7
  8
DIMENSION__ISO_
 10
80.9254068485606126
 20
288.331870823468023
 30
0.0
 11
80.925406848560641
 21
193.6237054154400994
 31
0.0
  0
LINE
  5
2C8
  8
DIMENSION__ISO_
 10
80.9254068485606552
 20
84.5652041568012578
 30
0.0
 11
80.925406848560641
 21
185.4187357560255123
 31
0.0
  0
SOLID
  5
2C9
  8
DIMENSION__ISO_
 10
80.2309624041161555
 20
288.331870823468023
 30
0.0
 11
81.6198512930050413
 21
288.331870823468023
 31
0.0
 12
80.9254068485606126
 22
292.4985374901345949
 32
0.0
 13
80.9254068485606126
 23
292.4985374901345949
 33
0.0
  0
SOLID
  5
2CA
  8
DIMENSION__ISO_
 10
80.2309624041162266
 20
84.5652041568012578
 30
0.0
 11
81.6198512930051123
 21
84.5652041568012578
 31
0.0
 12
80.9254068485606552
 22
80.3985374901345864
 32
0.0
 13
80.9254068485606552
 23
80.3985374901345864
 33
0.0
  0
INSERT
  5
2CB
  8
0
  2
*U42
 10
0.0
 20
0.0
 30
0.0
  0
POINT
  5
2CC
  8
DEFPOINTS
 62
     0
 10
160.5587401818941089
 20
292.4985374901347086
 30
0.0
  0
POINT
  5
2CD
  8
DEFPOINTS
 62
     0
 10
192.3087401818941089
 20
80.3985374901346148
 30
0.0
  0
POINT
  5
2CE
  8
DEFPOINTS
 62
     0
 10
80.9254068485606552
 20
80.3985374901345864
 30
0.0
  0
ENDBLK
  5
2CF
  8
0
  0
BLOCK
  8
0
  2
*D6
 70
     1
 10
0.0
 20
0.0
 30
0.0
  3
*D6
  1

  0
LINE
  5
2D2
  8
DIMENSION__ISO_
 10
192.308740181893512
 20
80.3985374901344443
 30
0.0
 11
215.4899915588580086
 21
226.3471530210476885
 31
0.0
  0
LINE
  5
2D3
  8
DIMENSION__ISO_
 10
219.3864033624450087
 20
250.8788704432109
 30
0.0
 11
216.7931999758982045
 21
234.5521226804621904
 31
0.0
  0
INSERT
  5
2D4
  8
0
  2
*U43
 10
0.0
 20
0.0
 30
0.0
  0
SOLID
  5
2D5
  8
DIMENSION__ISO_
 10
218.7005561313463033
 20
250.9878046527780953
 30
0.0
 11
220.0722505935437141
 21
250.7699362336435911
 31
0.0
 12
220.0400086198484075
 22
254.9939538298029049
 32
0.0
 13
220.0400086198484075
 23
254.9939538298029049
 33
0.0
  0
POINT
  5
2D6
  8
DEFPOINTS
 62
     0
 10
220.0400086198484075
 20
254.9939538298029049
 30
0.0
  0
POINT
  5
2D7
  8
DEFPOINTS
 62
     0
 10
192.308740181893512
 20
80.3985374901344443
 30
0.0
  0
ENDBLK
  5
2D8
  8
0
  0
BLOCK
  8
0
  2
*D7
 70
     1
 10
0.0
 20
0.0
 30
0.0
  3
*D7
  1

  0
LINE
  5
2DB
  8
DIMENSION__ISO_
 10
192.3087401818939952
 20
80.3985374901345864
 30
0.0
 11
251.535967959932691
 21
177.2998944444426002
 31
0.0
  0
LINE
  5
2DC
  8
DIMENSION__ISO_
 10
291.8682386224253946
 20
243.2873110915737982
 30
0.0
 11
256.5509401151646216
 21
185.504864103857102
 31
0.0
  0
INSERT
  5
2DD
  8
0
  2
*U44
 10
0.0
 20
0.0
 30
0.0
  0
SOLID
  5
2DE
  8
DIMENSION__ISO_
 10
291.2757082728811042
 20
243.6494724800301128
 30
0.0
 11
292.4607689719697987
 21
242.9251497031175973
 31
0.0
 12
294.0412069531628845
 22
246.8424931888401943
 32
0.0
 13
294.0412069531628845
 23
246.8424931888401943
 33
0.0
  0
POINT
  5
2DF
  8
DEFPOINTS
 62
     0
 10
294.0412069531628845
 20
246.8424931888401943
 30
0.0
  0
POINT
  5
2E0
  8
DEFPOINTS
 62
     0
 10
192.3087401818939952
 20
80.3985374901345864
 30
0.0
  0
ENDBLK
  5
2E1
  8
0
  0
BLOCK
  8
0
  2
*D8
 70
     1
 10
0.0
 20
0.0
 30
0.0
  3
*D8
  1

  0
LINE
  5
2E4
  8
DIMENSION__ISO_
 10
192.3087401818939099
 20
80.3985374901345153
 30
0.0
 11
258.1840751228817226
 21
152.1971924205888911
 31
0.0
  0
LINE
  5
2E5
  8
DIMENSION__ISO_
 10
331.3316301485356803
 20
231.9219644767476893
 30
0.0
 11
265.7121426753744231
 21
160.4021620800033929
 31
0.0
  0
INSERT
  5
2E6
  8
0
  2
*U45
 10
0.0
 20
0.0
 30
0.0
  0
SOLID
  5
2E7
  8
DIMENSION__ISO_
 10
330.8199302525665075
 20
232.3914496233551858
 30
0.0
 11
331.8433300445047962
 21
231.4524793301405055
 31
0.0
 12
334.1485410281798067
 22
234.9921638525626122
 32
0.0
 13
334.1485410281798067
 23
234.9921638525626122
 33
0.0
  0
POINT
  5
2E8
  8
DEFPOINTS
 62
     0
 10
334.1485410281798067
 20
234.9921638525626122
 30
0.0
  0
POINT
  5
2E9
  8
DEFPOINTS
 62
     0
 10
192.3087401818939099
 20
80.3985374901345153
 30
0.0
  0
ENDBLK
  5
2EA
  8
0
  0
BLOCK
  8
0
  2
*D9
 70
     1
 10
0.0
 20
0.0
 30
0.0
  3
*D9
  1

  0
LINE
  5
2ED
  8
DIMENSION__ISO_
 10
318.1045735152275142
 20
292.4985374901347086
 30
0.0
 11
393.4943419150786781
 21
292.4985374901348223
 31
0.0
  0
LINE
  5
2EE
  8
DIMENSION__ISO_
 10
297.7712401818941998
 20
265.3105374901347204
 30
0.0
 11
393.4943419150786781
 21
265.3105374901347204
 31
0.0
  0
LINE
  5
2EF
  8
DIMENSION__ISO_
 10
388.2026752484119925
 20
288.3318708234681935
 30
0.0
 11
388.2026752484119925
 21
283.0070223198418944
 31
0.0
  0
LINE
  5
2F0
  8
DIMENSION__ISO_
 10
388.2026752484119925
 20
269.477204156801406
 30
0.0
 11
388.2026752484119925
 21
274.8020526604274778
 31
0.0
  0
SOLID
  5
2F1
  8
DIMENSION__ISO_
 10
387.5082308039675922
 20
288.3318708234681935
 30
0.0
 11
388.8971196928565064
 21
288.3318708234681935
 31
0.0
 12
388.2026752484119925
 22
292.4985374901348223
 32
0.0
 13
388.2026752484119925
 23
292.4985374901348223
 33
0.0
  0
SOLID
  5
2F2
  8
DIMENSION__ISO_
 10
387.5082308039675922
 20
269.477204156801406
 30
0.0
 11
388.8971196928565064
 21
269.477204156801406
 31
0.0
 12
388.2026752484119925
 22
265.3105374901347204
 32
0.0
 13
388.2026752484119925
 23
265.3105374901347204
 33
0.0
  0
INSERT
  5
2F3
  8
0
  2
*U46
 10
0.0
 20
0.0
 30
0.0
  0
POINT
  5
2F4
  8
DEFPOINTS
 62
     0
 10
315.4587401818941998
 20
292.4985374901347086
 30
0.0
  0
POINT
  5
2F5
  8
DEFPOINTS
 62
     0
 10
295.1254068485607718
 20
265.3105374901347204
 30
0.0
  0
POINT
  5
2F6
  8
DEFPOINTS
 62
     0
 10
388.2026752484119925
 20
265.3105374901347204
 30
0.0
  0
ENDBLK
  5
2F7
  8
0
  0
BLOCK
  8
0
  2
*D10
 70
     1
 10
0.0
 20
0.0
 30
0.0
  3
*D10
  1

  0
LINE
  5
2FA
  8
DIMENSION__ISO_
 10
297.7712401818941998
 20
265.3105374901347204
 30
0.0
 11
393.4943419150786781
 21
265.3105374901347204
 31
0.0
  0
LINE
  5
2FB
  8
DIMENSION__ISO_
 10
357.1712401818941771
 20
211.1485374901346006
 30
0.0
 11
393.4943419150786781
 21
211.1485374901346006
 31
0.0
  0
LINE
  5
2FC
  8
DIMENSION__ISO_
 10
388.2026752484119925
 20
261.143870823467978
 30
0.0
 11
388.2026752484119925
 21
242.3320223198419967
 31
0.0
  0
LINE
  5
2FD
  8
DIMENSION__ISO_
 10
388.2026752484119925
 20
215.3152041568012862
 30
0.0
 11
388.2026752484119925
 21
234.1270526604274949
 31
0.0
  0
SOLID
  5
2FE
  8
DIMENSION__ISO_
 10
387.5082308039675922
 20
261.143870823467978
 30
0.0
 11
388.8971196928565064
 21
261.143870823467978
 31
0.0
 12
388.2026752484119925
 22
265.3105374901347204
 32
0.0
 13
388.2026752484119925
 23
265.3105374901347204
 33
0.0
  0
SOLID
  5
2FF
  8
DIMENSION__ISO_
 10
387.5082308039675922
 20
215.3152041568012862
 30
0.0
 11
388.8971196928565064
 21
215.3152041568012862
 31
0.0
 12
388.2026752484119925
 22
211.1485374901346006
 32
0.0
 13
388.2026752484119925
 23
211.1485374901346006
 33
0.0
  0
INSERT
  5
300
  8
0
  2
*U47
 10
0.0
 20
0.0
 30
0.0
  0
POINT
  5
301
  8
DEFPOINTS
 62
     0
 10
295.1254068485607718
 20
265.3105374901347204
 30
0.0
  0
POINT
  5
302
  8
DEFPOINTS
 62
     0
 10
354.5254068485609196
 20
211.1485374901346006
 30
0.0
  0
POINT
  5
303
  8
DEFPOINTS
 62
     0
 10
388.2026752484119925
 20
211.1485374901346006
 30
0.0
  0
ENDBLK
  5
304
  8
0
  0
BLOCK
  8
0
  2
*D11
 70
     1
 10
0.0
 20
0.0
 30
0.0
  3
*D11
  1

  0
LINE
  5
307
  8
DIMENSION__ISO_
 10
192.3087401818939952
 20
80.3985374901345864
 30
0.0
 11
235.2865688237893949
 21
197.3411331886055109
 31
0.0
  0
LINE
  5
308
  8
DIMENSION__ISO_
 10
254.6575874308340985
 20
250.0496405472798074
 30
0.0
 11
238.301995135545809
 21
205.546102848020098
 31
0.0
  0
INSERT
  5
309
  8
0
  2
*U48
 10
0.0
 20
0.0
 30
0.0
  0
SOLID
  5
30A
  8
DIMENSION__ISO_
 10
254.0057683003524005
 20
250.2891920189059931
 30
0.0
 11
255.3094065613151997
 21
249.8100890756539059
 31
0.0
 12
256.0948962605901897
 22
253.960555330168404
 32
0.0
 13
256.0948962605901897
 23
253.960555330168404
 33
0.0
  0
POINT
  5
30B
  8
DEFPOINTS
 62
     0
 10
256.0948962605901897
 20
253.960555330168404
 30
0.0
  0
POINT
  5
30C
  8
DEFPOINTS
 62
     0
 10
192.3087401818939952
 20
80.3985374901345864
 30
0.0
  0
ENDBLK
  5
30D
  8
0
  0
BLOCK
  8
0
  2
*D12
 70
     1
 10
0.0
 20
0.0
 30
0.0
  3
*D12
  1

  0
LINE
  5
310
  8
DIMENSION__ISO_
 10
313.1175801942250132
 20
201.2073775024655902
 30
0.0
 11
228.7181581938311012
 21
116.8079555020717066
 31
0.0
  0
ARC
  5
311
  8
DIMENSION__ISO_
 10
192.3087401818939952
 20
80.3985374901345438
 30
0.0
 40
56.7823594172593715
 50
49.2052850713035284
 51
61.1350725748555206
  0
ARC
  5
312
  8
DIMENSION__ISO_
 10
192.3087401818939952
 20
80.3985374901345438
 30
0.0
 40
56.7823594172593715
 50
73.5833349018447365
 51
85.7947149286964788
  0
SOLID
  5
313
  8
DIMENSION__ISO_
 10
229.8802380509870034
 20
123.894657211873394
 30
0.0
 11
228.9348393250672871
 21
122.8771929153458018
 31
0.0
 12
232.459931577610007
 22
120.5497288858504987
 32
0.0
 13
232.459931577610007
 23
120.5497288858504987
 33
0.0
  0
SOLID
  5
314
  8
DIMENSION__ISO_
 10
196.4471224161989937
 20
136.3340458695367943
 30
0.0
 11
196.4980804698658972
 21
137.7219996232495873
 31
0.0
 12
192.3087401818939952
 22
137.1808969073939011
 32
0.0
 13
192.3087401818939952
 23
137.1808969073939011
 33
0.0
  0
INSERT
  5
315
  8
0
  2
*U49
 10
0.0
 20
0.0
 30
0.0
  0
POINT
  5
316
  8
DEFPOINTS
 62
     0
 10
192.3087401818939952
 20
80.3985374901345438
 30
0.0
  0
POINT
  5
317
  8
DEFPOINTS
 62
     0
 10
314.988466886114395
 20
203.0782641943550004
 30
0.0
  0
POINT
  5
318
  8
DEFPOINTS
 62
     0
 10
192.3087401818939952
 20
261.3492041568011928
 30
0.0
  0
POINT
  5
319
  8
DEFPOINTS
 62
     0
 10
220.6999198905236881
 20
129.5735032322996858
 30
0.0
  0
ENDBLK
  5
31A
  8
0
  0
BLOCK
  8
0
  2
*D13
 70
     1
 10
0.0
 20
0.0
 30
0.0
  3
*D13
  1

  0
LINE
  5
31D
  8
DIMENSION__ISO_
 10
366.338633725250304
 20
148.2713014277179866
 30
0.0
 11
360.8929064884442255
 21
148.2713014277179866
 31
0.0
  0
LINE
  5
31E
  8
DIMENSION__ISO_
 10
360.8929064884442255
 20
148.2713014277179866
 30
0.0
 11
355.1286250786616279
 21
162.005738006955994
 31
0.0
  0
INSERT
  5
31F
  8
0
  2
*U50
 10
0.0
 20
0.0
 30
0.0
  0
SOLID
  5
320
  8
DIMENSION__ISO_
 10
355.7689600180366938
 20
162.2744837080103935
 30
0.0
 11
354.4882901392862777
 21
161.7369923059015946
 31
0.0
 12
353.5161508723351744
 22
165.8477476432067022
 32
0.0
 13
353.5161508723351744
 23
165.8477476432067022
 33
0.0
  0
POINT
  5
321
  8
DEFPOINTS
 62
     0
 10
353.5161508723351744
 20
165.8477476432067022
 30
0.0
  0
POINT
  5
322
  8
DEFPOINTS
 62
     0
 10
351.0587401818939952
 20
171.702970328852814
 30
0.0
  0
ENDBLK
  5
323
  8
0
  0
BLOCK
  8
0
  2
*D14
 70
     1
 10
0.0
 20
0.0
 30
0.0
  3
*D14
  1

  0
LINE
  5
326
  8
DIMENSION__ISO_
 10
141.6110035206058058
 20
219.1378972021531126
 30
0.0
 11
147.0567307574114864
 21
219.1378972021531126
 31
0.0
  0
LINE
  5
327
  8
DIMENSION__ISO_
 10
147.0567307574114864
 20
219.1378972021531126
 30
0.0
 11
157.3136073972065958
 21
250.7558166446789869
 31
0.0
  0
INSERT
  5
328
  8
0
  2
*U51
 10
0.0
 20
0.0
 30
0.0
  0
SOLID
  5
329
  8
DIMENSION__ISO_
 10
156.6530508105917079
 20
250.9701016938527118
 30
0.0
 11
157.9741639838215974
 21
250.5415315955052051
 31
0.0
 12
158.5993176922490875
 22
254.7191561643685134
 32
0.0
 13
158.5993176922490875
 23
254.7191561643685134
 33
0.0
  0
POINT
  5
32A
  8
DEFPOINTS
 62
     0
 10
158.5993176922490875
 20
254.7191561643685134
 30
0.0
  0
POINT
  5
32B
  8
DEFPOINTS
 62
     0
 10
160.5587401818939952
 20
260.7592855923755906
 30
0.0
  0
ENDBLK
  5
32C
  8
0
  0
BLOCK
  8
0
  2
*D15
 70
     1
 10
0.0
 20
0.0
 30
0.0
  3
*D15
  1

  0
LINE
  5
32F
  8
DIMENSION__ISO_
 10
102.9295011745440007
 20
303.6083441679659245
 30
0.0
 11
107.0961678412107005
 21
303.6083441679659245
 31
0.0
  0
LINE
  5
330
  8
DIMENSION__ISO_
 10
107.0961678412107005
 20
303.6083441679659245
 30
0.0
 11
150.5616851488865962
 21
289.4133756859413893
 31
0.0
  0
INSERT
  5
331
  8
0
  2
*U52
 10
0.0
 20
0.0
 30
0.0
  0
SOLID
  5
332
  8
DIMENSION__ISO_
 10
150.7772714005905925
 20
290.0735087441169071
 30
0.0
 11
150.3460988971824861
 21
288.7532426277660988
 31
0.0
 12
154.5224834979385946
 22
288.1198581757168995
 32
0.0
 13
154.5224834979385946
 23
288.1198581757168995
 33
0.0
  0
POINT
  5
333
  8
DEFPOINTS
 62
     0
 10
154.5224834979385946
 20
288.1198581757168995
 30
0.0
  0
POINT
  5
334
  8
DEFPOINTS
 62
     0
 10
160.5587401818939952
 20
286.1485374901346859
 30
0.0
  0
ENDBLK
  5
335
  8
0
  0
BLOCK
  8
0
  2
*D16
 70
     1
 10
0.0
 20
0.0
 30
0.0
  3
*D16
  1

  0
LINE
  5
338
  8
DIMENSION__ISO_
 10
342.4749027303050752
 20
308.0928582006711167
 30
0.0
 11
337.0291754934989967
 21
308.0928582006711167
 31
0.0
  0
LINE
  5
339
  8
DIMENSION__ISO_
 10
337.0291754934989967
 20
308.0928582006711167
 30
0.0
 11
322.8309796407663157
 21
293.6485616993505801
 31
0.0
  0
INSERT
  5
33A
  8
0
  2
*U53
 10
0.0
 20
0.0
 30
0.0
  0
SOLID
  5
33B
  8
DIMENSION__ISO_
 10
322.3357324003267763
 20
294.1353709610298779
 30
0.0
 11
323.3262268812057982
 21
293.1617524376712254
 31
0.0
 12
319.9101240706900739
 22
290.6770782567134006
 32
0.0
 13
319.9101240706900739
 23
290.6770782567134006
 33
0.0
  0
POINT
  5
33C
  8
DEFPOINTS
 62
     0
 10
319.9101240706900739
 20
290.6770782567134006
 30
0.0
  0
POINT
  5
33D
  8
DEFPOINTS
 62
     0
 10
315.4587401818939725
 20
286.1485374901345153
 30
0.0
  0
ENDBLK
  5
33E
  8
0
  0
BLOCK
  8
0
  2
*D17
 70
     1
 10
0.0
 20
0.0
 30
0.0
  3
*D17
  1

  0
LINE
  5
341
  8
DIMENSION__ISO_
 10
342.5100901377799119
 20
253.6610838099392993
 30
0.0
 11
338.3434234711132831
 21
253.6610838099392993
 31
0.0
  0
LINE
  5
342
  8
DIMENSION__ISO_
 10
338.3434234711132831
 20
253.6610838099392993
 30
0.0
 11
326.2090800137478936
 21
247.5447082246091952
 31
0.0
  0
INSERT
  5
343
  8
0
  2
*U54
 10
0.0
 20
0.0
 30
0.0
  0
SOLID
  5
344
  8
DIMENSION__ISO_
 10
325.8965050104164902
 20
248.1648291432308042
 30
0.0
 11
326.5216550170791834
 21
246.9245873059875009
 31
0.0
 12
322.4883545020180122
 22
245.6692582046210021
 32
0.0
 13
322.4883545020180122
 23
245.6692582046210021
 33
0.0
  0
POINT
  5
345
  8
DEFPOINTS
 62
     0
 10
322.4883545020180122
 20
245.6692582046210021
 30
0.0
  0
POINT
  5
346
  8
DEFPOINTS
 62
     0
 10
328.1587401818943022
 20
248.5274440350829934
 30
0.0
  0
ENDBLK
  5
347
  8
0
  0
BLOCK
  8
0
  2
*D18
 70
     1
 10
0.0
 20
0.0
 30
0.0
  3
*D18
  1

  0
LINE
  5
34A
  8
DIMENSION__ISO_
 10
381.4839564609850981
 20
225.7301826306893986
 30
0.0
 11
376.0382292241783944
 21
225.7301826306893986
 31
0.0
  0
LINE
  5
34B
  8
DIMENSION__ISO_
 10
376.0382292241783944
 20
225.7301826306893986
 30
0.0
 11
359.5773787206038037
 21
213.8132961813994086
 31
0.0
  0
INSERT
  5
34C
  8
0
  2
*U55
 10
0.0
 20
0.0
 30
0.0
  0
SOLID
  5
34D
  8
DIMENSION__ISO_
 10
359.1701483868462788
 20
214.3758053294916124
 30
0.0
 11
359.9846090543612149
 21
213.2507870333070912
 31
0.0
 12
356.2023238320500127
 22
211.3699141788544864
 32
0.0
 13
356.2023238320500127
 23
211.3699141788544864
 33
0.0
  0
POINT
  5
34E
  8
DEFPOINTS
 62
     0
 10
356.2023238320500127
 20
211.3699141788544864
 30
0.0
  0
POINT
  5
34F
  8
DEFPOINTS
 62
     0
 10
351.0587401818942226
 20
207.6462000069761871
 30
0.0
  0
ENDBLK
  5
350
  8
0
  0
BLOCK
  8
0
  2
*D20
 70
     1
 10
0.0
 20
0.0
 30
0.0
  3
*D20
  1

  0
LINE
  5
494
  8
DIMENSION__ISO_
 10
90.5080811164764896
 20
212.5624999999998863
 30
0.0
 11
90.5080811164764896
 21
267.1876580071815965
 31
0.0
  0
LINE
  5
495
  8
DIMENSION__ISO_
 10
293.7080811164764782
 20
134.0601625168415012
 30
0.0
 11
293.7080811164764782
 21
267.1876580071815965
 31
0.0
  0
LINE
  5
496
  8
DIMENSION__ISO_
 10
94.6747477831431752
 20
261.8959913405149109
 30
0.0
 11
173.5499998887100048
 21
261.8959913405149109
 31
0.0
  0
LINE
  5
497
  8
DIMENSION__ISO_
 10
289.5414144498097926
 20
261.8959913405149109
 30
0.0
 11
210.6661623442429914
 21
261.8959913405149109
 31
0.0
  0
SOLID
  5
498
  8
DIMENSION__ISO_
 10
94.6747477831431752
 20
262.5904357849593111
 30
0.0
 11
94.6747477831431752
 21
261.201546896070397
 31
0.0
 12
90.5080811164764896
 22
261.8959913405149109
 32
0.0
 13
90.5080811164764896
 23
261.8959913405149109
 33
0.0
  0
SOLID
  5
499
  8
DIMENSION__ISO_
 10
289.5414144498097926
 20
262.5904357849593111
 30
0.0
 11
289.5414144498097926
 21
261.201546896070397
 31
0.0
 12
293.7080811164764782
 22
261.8959913405149109
 32
0.0
 13
293.7080811164764782
 23
261.8959913405149109
 33
0.0
  0
INSERT
  5
49A
  8
0
  2
*U60
 10
0.0
 20
0.0
 30
0.0
  0
POINT
  5
49B
  8
DEFPOINTS
 62
     0
 10
90.5080811164764896
 20
209.9166666666666003
 30
0.0
  0
POINT
  5
49C
  8
DEFPOINTS
 62
     0
 10
293.7080811164764782
 20
131.4143291835081868
 30
0.0
  0
POINT
  5
49D
  8
DEFPOINTS
 62
     0
 10
293.7080811164764782
 20
261.8959913405149109
 30
0.0
  0
ENDBLK
  5
3E1
  8
0
  0
BLOCK
  8
0
  2
*D21
 70
     1
 10
0.0
 20
0.0
 30
0.0
  3
*D21
  1

  0
LINE
  5
49E
  8
DIMENSION__ISO_
 10
90.5080811164764896
 20
212.5624999999998863
 30
0.0
 11
90.5080811164764896
 21
254.841666666666498
 31
0.0
  0
LINE
  5
49F
  8
DIMENSION__ISO_
 10
258.1080811164765123
 20
212.5624999999998863
 30
0.0
 11
258.1080811164765123
 21
254.841666666666498
 31
0.0
  0
LINE
  5
4A0
  8
DIMENSION__ISO_
 10
94.6747477831431752
 20
249.5499999999998977
 30
0.0
 11
155.9163195638481056
 21
249.5499999999998977
 31
0.0
  0
LINE
  5
4A1
  8
DIMENSION__ISO_
 10
253.9414144498097983
 20
249.5499999999998977
 30
0.0
 11
192.699842669104811
 21
249.5499999999998977
 31
0.0
  0
SOLID
  5
4A2
  8
DIMENSION__ISO_
 10
94.6747477831431752
 20
250.2444444444444116
 30
0.0
 11
94.6747477831431752
 21
248.8555555555554122
 31
0.0
 12
90.5080811164764896
 22
249.5499999999998977
 32
0.0
 13
90.5080811164764896
 23
249.5499999999998977
 33
0.0
  0
SOLID
  5
4A3
  8
DIMENSION__ISO_
 10
253.9414144498097983
 20
250.2444444444444116
 30
0.0
 11
253.9414144498097983
 21
248.8555555555554122
 31
0.0
 12
258.1080811164765123
 22
249.5499999999998977
 32
0.0
 13
258.1080811164765123
 23
249.5499999999998977
 33
0.0
  0
INSERT
  5
4A4
  8
0
  2
*U61
 10
0.0
 20
0.0
 30
0.0
  0
POINT
  5
4A5
  8
DEFPOINTS
 62
     0
 10
90.5080811164764896
 20
209.9166666666666003
 30
0.0
  0
POINT
  5
4A6
  8
DEFPOINTS
 62
     0
 10
258.1080811164765123
 20
209.9166666666666003
 30
0.0
  0
POINT
  5
4A7
  8
DEFPOINTS
 62
     0
 10
258.1080811164765123
 20
249.5499999999998977
 30
0.0
  0
ENDBLK
  5
3EE
  8
0
  0
BLOCK
  8
0
  2
*D22
 70
     1
 10
0.0
 20
0.0
 30
0.0
  3
*D22
  1

  0
LINE
  5
4A8
  8
DIMENSION__ISO_
 10
90.5080811164764896
 20
212.5624999999998863
 30
0.0
 11
90.5080811164764896
 21
241.6573318747740871
 31
0.0
  0
LINE
  5
4A9
  8
DIMENSION__ISO_
 10
128.6080811164765976
 20
201.884499999999889
 30
0.0
 11
128.6080811164765976
 21
241.6573318747740871
 31
0.0
  0
LINE
  5
4AA
  8
DIMENSION__ISO_
 10
124.4414144498098977
 20
236.3656652081074014
 30
0.0
 11
94.6747477831431752
 21
236.3656652081074014
 31
0.0
  0
LINE
  5
4AB
  8
DIMENSION__ISO_
 10
90.5080811164764896
 20
236.3656652081074014
 30
0.0
 11
79.4627443618320228
 21
236.3656652081074014
 31
0.0
  0
SOLID
  5
4AC
  8
DIMENSION__ISO_
 10
124.4414144498098977
 20
237.0601096525518869
 30
0.0
 11
124.4414144498098977
 21
235.6712207636630012
 31
0.0
 12
128.6080811164765976
 22
236.3656652081074014
 32
0.0
 13
128.6080811164765976
 23
236.3656652081074014
 33
0.0
  0
SOLID
  5
4AD
  8
DIMENSION__ISO_
 10
94.6747477831431752
 20
237.0601096525518869
 30
0.0
 11
94.6747477831431752
 21
235.6712207636630012
 31
0.0
 12
90.5080811164764896
 22
236.3656652081074014
 32
0.0
 13
90.5080811164764896
 23
236.3656652081074014
 33
0.0
  0
INSERT
  5
4AE
  8
0
  2
*U62
 10
0.0
 20
0.0
 30
0.0
  0
POINT
  5
4AF
  8
DEFPOINTS
 62
     0
 10
90.5080811164764896
 20
209.9166666666666003
 30
0.0
  0
POINT
  5
4B0
  8
DEFPOINTS
 62
     0
 10
128.6080811164765976
 20
199.2386666666666031
 30
0.0
  0
POINT
  5
4B1
  8
DEFPOINTS
 62
     0
 10
128.6080811164765976
 20
236.3656652081074014
 30
0.0
  0
ENDBLK
  5
3FB
  8
0
  0
BLOCK
  8
0
  2
*D23
 70
     1
 10
0.0
 20
0.0
 30
0.0
  3
*D23
  1

  0
LINE
  5
4B2
  8
DIMENSION__ISO_
 10
94.2122477831431979
 20
216.2666666666667936
 30
0.0
 11
11.9330811164764707
 21
216.2666666666667084
 31
0.0
  0
LINE
  5
4B3
  8
DIMENSION__ISO_
 10
125.9622477831431979
 20
4.1666666666666581
 30
0.0
 11
11.9330811164764992
 21
4.1666666666666403
 31
0.0
  0
LINE
  5
4B4
  8
DIMENSION__ISO_
 10
17.2247477831431191
 20
212.100000000000108
 30
0.0
 11
17.2247477831431404
 21
117.3918346098636931
 31
0.0
  0
LINE
  5
4B5
  8
DIMENSION__ISO_
 10
17.2247477831431617
 20
8.3333333333333073
 30
0.0
 11
17.2247477831431404
 21
109.1868649146659038
 31
0.0
  0
SOLID
  5
4B6
  8
DIMENSION__ISO_
 10
16.5303033386986797
 20
212.100000000000108
 30
0.0
 11
17.9191922275875584
 21
212.100000000000108
 31
0.0
 12
17.2247477831431191
 22
216.2666666666667084
 32
0.0
 13
17.2247477831431191
 23
216.2666666666667084
 33
0.0
  0
SOLID
  5
4B7
  8
DIMENSION__ISO_
 10
16.5303033386987188
 20
8.3333333333333073
 30
0.0
 11
17.919192227587601
 21
8.3333333333333073
 31
0.0
 12
17.2247477831431688
 22
4.1666666666666412
 32
0.0
 13
17.2247477831431688
 23
4.1666666666666412
 33
0.0
  0
INSERT
  5
4B8
  8
0
  2
*U63
 10
0.0
 20
0.0
 30
0.0
  0
POINT
  5
4B9
  8
DEFPOINTS
 62
     0
 10
96.8580811164765407
 20
216.2666666666667936
 30
0.0
  0
POINT
  5
4BA
  8
DEFPOINTS
 62
     0
 10
128.6080811164765123
 20
4.1666666666666581
 30
0.0
  0
POINT
  5
4BB
  8
DEFPOINTS
 62
     0
 10
17.2247477831431688
 20
4.1666666666666412
 30
0.0
  0
ENDBLK
  5
408
  8
0
  0
BLOCK
  8
0
  2
*D24
 70
     1
 10
0.0
 20
0.0
 30
0.0
  3
*D24
  1

  0
LINE
  5
4BC
  8
DIMENSION__ISO_
 10
128.608081116476086
 20
4.1666666666665222
 30
0.0
 11
151.7893324905986958
 21
150.1152821796881085
 31
0.0
  0
LINE
  5
4BD
  8
DIMENSION__ISO_
 10
155.6857442970274121
 20
174.6469996197430987
 30
0.0
 11
153.0925409133224093
 21
158.320251874885912
 31
0.0
  0
INSERT
  5
4BE
  8
0
  2
*U64
 10
0.0
 20
0.0
 30
0.0
  0
SOLID
  5
4BF
  8
DIMENSION__ISO_
 10
154.999897065928792
 20
174.755933829310294
 30
0.0
 11
156.3715915281262028
 21
174.5380654101757898
 31
0.0
 12
156.3393495544308962
 22
178.7620830063351036
 32
0.0
 13
156.3393495544308962
 23
178.7620830063351036
 33
0.0
  0
POINT
  5
4C0
  8
DEFPOINTS
 62
     0
 10
156.3393495544308962
 20
178.7620830063351036
 30
0.0
  0
POINT
  5
4C1
  8
DEFPOINTS
 62
     0
 10
128.608081116476086
 20
4.1666666666665222
 30
0.0
  0
ENDBLK
  5
415
  8
0
  0
BLOCK
  8
0
  2
*D25
 70
     1
 10
0.0
 20
0.0
 30
0.0
  3
*D25
  1

  0
LINE
  5
4C2
  8
DIMENSION__ISO_
 10
128.6080811164765123
 20
4.1666666666666714
 30
0.0
 11
187.8353088835795006
 21
101.0680236030831054
 31
0.0
  0
LINE
  5
4C3
  8
DIMENSION__ISO_
 10
228.1675795570079117
 20
167.0554402681059116
 30
0.0
 11
192.8502810606825051
 21
109.2729932982808947
 31
0.0
  0
INSERT
  5
4C4
  8
0
  2
*U65
 10
0.0
 20
0.0
 30
0.0
  0
SOLID
  5
4C5
  8
DIMENSION__ISO_
 10
227.5750492074635076
 20
167.4176016565621126
 30
0.0
 11
228.7601099065522874
 21
166.6932788796497107
 31
0.0
 12
230.3405478877454016
 22
170.6106223653721941
 32
0.0
 13
230.3405478877454016
 23
170.6106223653721941
 33
0.0
  0
POINT
  5
4C6
  8
DEFPOINTS
 62
     0
 10
230.3405478877454016
 20
170.6106223653721941
 30
0.0
  0
POINT
  5
4C7
  8
DEFPOINTS
 62
     0
 10
128.6080811164765123
 20
4.1666666666666714
 30
0.0
  0
ENDBLK
  5
41E
  8
0
  0
BLOCK
  8
0
  2
*D26
 70
     1
 10
0.0
 20
0.0
 30
0.0
  3
*D26
  1

  0
LINE
  5
4C8
  8
DIMENSION__ISO_
 10
128.6080811164763986
 20
4.1666666666665861
 30
0.0
 11
194.483416041048514
 21
75.9653215792292968
 31
0.0
  0
LINE
  5
4C9
  8
DIMENSION__ISO_
 10
267.6309710831183111
 20
155.6900936532796891
 30
0.0
 11
202.0114836263724101
 21
84.1702912744270861
 31
0.0
  0
INSERT
  5
4CA
  8
0
  2
*U66
 10
0.0
 20
0.0
 30
0.0
  0
SOLID
  5
4CB
  8
DIMENSION__ISO_
 10
267.1192711871490246
 20
156.159578799887214
 30
0.0
 11
268.1426709790873133
 21
155.2206085066725052
 31
0.0
 12
270.4478819627623238
 22
158.7602930290946119
 32
0.0
 13
270.4478819627623238
 23
158.7602930290946119
 33
0.0
  0
POINT
  5
4CC
  8
DEFPOINTS
 62
     0
 10
270.4478819627623238
 20
158.7602930290946119
 30
0.0
  0
POINT
  5
4CD
  8
DEFPOINTS
 62
     0
 10
128.6080811164763986
 20
4.1666666666665861
 30
0.0
  0
ENDBLK
  5
427
  8
0
  0
BLOCK
  8
0
  2
*D27
 70
     1
 10
0.0
 20
0.0
 30
0.0
  3
*D27
  1

  0
LINE
  5
4CE
  8
DIMENSION__ISO_
 10
254.4039144498100029
 20
216.2666666666667936
 30
0.0
 11
329.7936828496610815
 21
216.2666666666667936
 31
0.0
  0
LINE
  5
4CF
  8
DIMENSION__ISO_
 10
234.0705811164766033
 20
189.0786666666666918
 30
0.0
 11
329.7936828496610815
 21
189.0786666666666918
 31
0.0
  0
LINE
  5
4D0
  8
DIMENSION__ISO_
 10
324.5020161829945096
 20
212.100000000000108
 30
0.0
 11
324.5020161829945096
 21
206.7751515142655876
 31
0.0
  0
LINE
  5
4D1
  8
DIMENSION__ISO_
 10
324.5020161829945096
 20
193.2453333333334058
 30
0.0
 11
324.5020161829945096
 21
198.5701818190678125
 31
0.0
  0
SOLID
  5
4D2
  8
DIMENSION__ISO_
 10
323.8075717385499956
 20
212.100000000000108
 30
0.0
 11
325.1964606274389098
 21
212.100000000000108
 31
0.0
 12
324.5020161829945096
 22
216.2666666666667936
 32
0.0
 13
324.5020161829945096
 23
216.2666666666667936
 33
0.0
  0
SOLID
  5
4D3
  8
DIMENSION__ISO_
 10
323.8075717385499956
 20
193.2453333333334058
 30
0.0
 11
325.1964606274389098
 21
193.2453333333334058
 31
0.0
 12
324.5020161829945096
 22
189.0786666666666918
 32
0.0
 13
324.5020161829945096
 23
189.0786666666666918
 33
0.0
  0
INSERT
  5
4D4
  8
0
  2
*U67
 10
0.0
 20
0.0
 30
0.0
  0
POINT
  5
4D5
  8
DEFPOINTS
 62
     0
 10
251.7580811164766885
 20
216.2666666666667936
 30
0.0
  0
POINT
  5
4D6
  8
DEFPOINTS
 62
     0
 10
231.4247477831432889
 20
189.0786666666666918
 30
0.0
  0
POINT
  5
4D7
  8
DEFPOINTS
 62
     0
 10
324.5020161829945096
 20
189.0786666666666918
 30
0.0
  0
ENDBLK
  5
430
  8
0
  0
BLOCK
  8
0
  2
*D28
 70
     1
 10
0.0
 20
0.0
 30
0.0
  3
*D28
  1

  0
LINE
  5
4D8
  8
DIMENSION__ISO_
 10
234.0705811164766033
 20
189.0786666666666918
 30
0.0
 11
329.7936828496610815
 21
189.0786666666666918
 31
0.0
  0
LINE
  5
4D9
  8
DIMENSION__ISO_
 10
293.4705811164766942
 20
134.916666666666714
 30
0.0
 11
329.7936828496610815
 21
134.916666666666714
 31
0.0
  0
LINE
  5
4DA
  8
DIMENSION__ISO_
 10
324.5020161829945096
 20
184.9120000000000914
 30
0.0
 11
324.5020161829945096
 21
166.1001515142656899
 31
0.0
  0
LINE
  5
4DB
  8
DIMENSION__ISO_
 10
324.5020161829945096
 20
139.0833333333333997
 30
0.0
 11
324.5020161829945096
 21
157.8951818190678864
 31
0.0
  0
SOLID
  5
4DC
  8
DIMENSION__ISO_
 10
323.8075717385499956
 20
184.9120000000000914
 30
0.0
 11
325.1964606274389098
 21
184.9120000000000914
 31
0.0
 12
324.5020161829945096
 22
189.0786666666666918
 32
0.0
 13
324.5020161829945096
 23
189.0786666666666918
 33
0.0
  0
SOLID
  5
4DD
  8
DIMENSION__ISO_
 10
323.8075717385499956
 20
139.0833333333333997
 30
0.0
 11
325.1964606274389098
 21
139.0833333333333997
 31
0.0
 12
324.5020161829945096
 22
134.916666666666714
 32
0.0
 13
324.5020161829945096
 23
134.916666666666714
 33
0.0
  0
INSERT
  5
4DE
  8
0
  2
*U68
 10
0.0
 20
0.0
 30
0.0
  0
POINT
  5
4DF
  8
DEFPOINTS
 62
     0
 10
231.4247477831432889
 20
189.0786666666666918
 30
0.0
  0
POINT
  5
4E0
  8
DEFPOINTS
 62
     0
 10
290.8247477831433798
 20
134.916666666666714
 30
0.0
  0
POINT
  5
4E1
  8
DEFPOINTS
 62
     0
 10
324.5020161829945096
 20
134.916666666666714
 30
0.0
  0
ENDBLK
  5
43D
  8
0
  0
BLOCK
  8
0
  2
*D29
 70
     1
 10
0.0
 20
0.0
 30
0.0
  3
*D29
  1

  0
LINE
  5
4E2
  8
DIMENSION__ISO_
 10
128.6080811164765123
 20
4.1666666666666572
 30
0.0
 11
171.5859097517964074
 21
121.1092623472459024
 31
0.0
  0
LINE
  5
4E3
  8
DIMENSION__ISO_
 10
190.9569283654165019
 20
173.8177697238118924
 30
0.0
 11
174.6013360767036033
 21
129.314232042443706
 31
0.0
  0
INSERT
  5
4E4
  8
0
  2
*U69
 10
0.0
 20
0.0
 30
0.0
  0
SOLID
  5
4E5
  8
DIMENSION__ISO_
 10
190.3051092349348892
 20
174.0573211954381065
 30
0.0
 11
191.6087474958976884
 21
173.5782182521859909
 31
0.0
 12
192.3942371951725931
 22
177.728684506700489
 32
0.0
 13
192.3942371951725931
 23
177.728684506700489
 33
0.0
  0
POINT
  5
4E6
  8
DEFPOINTS
 62
     0
 10
192.3942371951725931
 20
177.728684506700489
 30
0.0
  0
POINT
  5
4E7
  8
DEFPOINTS
 62
     0
 10
128.6080811164765123
 20
4.1666666666666572
 30
0.0
  0
ENDBLK
  5
44A
  8
0
  0
BLOCK
  8
0
  2
*D30
 70
     1
 10
0.0
 20
0.0
 30
0.0
  3
*D30
  1

  0
LINE
  5
4E8
  8
DIMENSION__ISO_
 10
249.4169211288073882
 20
124.9755066789976041
 30
0.0
 11
165.0174991284135899
 21
40.5760846786037774
 31
0.0
  0
ARC
  5
4E9
  8
DIMENSION__ISO_
 10
128.6080811164765123
 20
4.1666666666666572
 30
0.0
 40
56.7823594172593786
 50
49.2052850713034999
 51
61.1350725748555419
  0
ARC
  5
4EA
  8
DIMENSION__ISO_
 10
128.6080811164765123
 20
4.1666666666666572
 30
0.0
 40
56.7823594172593786
 50
73.5833349018447365
 51
85.7947149286964788
  0
SOLID
  5
4EB
  8
DIMENSION__ISO_
 10
166.179578985569492
 20
47.6627863884055074
 30
0.0
 11
165.2341802596496905
 21
46.6453220918779081
 31
0.0
 12
168.7592725121924104
 22
44.3178580623825766
 32
0.0
 13
168.7592725121924104
 23
44.3178580623825766
 33
0.0
  0
SOLID
  5
4EC
  8
DIMENSION__ISO_
 10
132.7464633507813971
 20
60.1021750460689006
 30
0.0
 11
132.7974214044483006
 21
61.4901287997817221
 31
0.0
 12
128.6080811164763986
 22
60.94902608392605
 32
0.0
 13
128.6080811164763986
 23
60.94902608392605
 33
0.0
  0
INSERT
  5
4ED
  8
0
  2
*U70
 10
0.0
 20
0.0
 30
0.0
  0
POINT
  5
4EE
  8
DEFPOINTS
 62
     0
 10
128.6080811164765123
 20
4.1666666666666572
 30
0.0
  0
POINT
  5
4EF
  8
DEFPOINTS
 62
     0
 10
251.2878078206969121
 20
126.8463933708870996
 30
0.0
  0
POINT
  5
4F0
  8
DEFPOINTS
 62
     0
 10
128.6080811164765123
 20
185.1173333333331925
 30
0.0
  0
POINT
  5
4F1
  8
DEFPOINTS
 62
     0
 10
156.9992608251062052
 20
53.3416324088318206
 30
0.0
  0
ENDBLK
  5
453
  8
0
  0
BLOCK
  8
0
  2
*D31
 70
     1
 10
0.0
 20
0.0
 30
0.0
  3
*D31
  1

  0
LINE
  5
4F2
  8
DIMENSION__ISO_
 10
302.6379745563863821
 20
72.0394306042501285
 30
0.0
 11
297.1922474230270268
 21
72.0394306042501285
 31
0.0
  0
LINE
  5
4F3
  8
DIMENSION__ISO_
 10
297.1922474230270268
 20
72.0394306042501285
 30
0.0
 11
291.4279660132442018
 21
85.7738671834880932
 31
0.0
  0
INSERT
  5
4F4
  8
0
  2
*U71
 10
0.0
 20
0.0
 30
0.0
  0
SOLID
  5
4F5
  8
DIMENSION__ISO_
 10
292.0683009526193246
 20
86.0426128845424785
 30
0.0
 11
290.787631073869079
 21
85.5051214824336938
 31
0.0
 12
289.8154918069179189
 22
89.6158768197387872
 32
0.0
 13
289.8154918069179189
 23
89.6158768197387872
 33
0.0
  0
POINT
  5
4F6
  8
DEFPOINTS
 62
     0
 10
289.8154918069179189
 20
89.6158768197387872
 30
0.0
  0
POINT
  5
4F7
  8
DEFPOINTS
 62
     0
 10
287.3580811164765123
 20
95.4710995053848848
 30
0.0
  0
ENDBLK
  5
460
  8
0
  0
BLOCK
  8
0
  2
*D32
 70
     1
 10
0.0
 20
0.0
 30
0.0
  3
*D32
  1

  0
LINE
  5
4F8
  8
DIMENSION__ISO_
 10
77.9103445586345629
 20
142.9060263786851124
 30
0.0
 11
83.3560716919935345
 21
142.9060263786851124
 31
0.0
  0
LINE
  5
4F9
  8
DIMENSION__ISO_
 10
83.3560716919935345
 20
142.9060263786851124
 30
0.0
 11
93.6129483317890134
 21
174.5239458212111003
 31
0.0
  0
INSERT
  5
4FA
  8
0
  2
*U72
 10
0.0
 20
0.0
 30
0.0
  0
SOLID
  5
4FB
  8
DIMENSION__ISO_
 10
92.9523917451740971
 20
174.7382308703847968
 30
0.0
 11
94.273504918403944
 21
174.3096607720372901
 31
0.0
 12
94.8986586268315762
 22
178.4872853409005984
 32
0.0
 13
94.8986586268315762
 23
178.4872853409005984
 33
0.0
  0
POINT
  5
4FC
  8
DEFPOINTS
 62
     0
 10
94.8986586268315762
 20
178.4872853409005984
 30
0.0
  0
POINT
  5
4FD
  8
DEFPOINTS
 62
     0
 10
96.8580811164764839
 20
184.5274147689075903
 30
0.0
  0
ENDBLK
  5
469
  8
0
  0
BLOCK
  8
0
  2
*D33
 70
     1
 10
0.0
 20
0.0
 30
0.0
  3
*D33
  1

  0
LINE
  5
4FE
  8
DIMENSION__ISO_
 10
39.2288421091225032
 20
227.3764733444978958
 30
0.0
 11
43.3955087757891675
 21
227.3764733444978958
 31
0.0
  0
LINE
  5
4FF
  8
DIMENSION__ISO_
 10
43.3955087757891675
 20
227.3764733444978958
 30
0.0
 11
86.8610260834689853
 21
213.181504862473389
 31
0.0
  0
INSERT
  5
500
  8
0
  2
*U73
 10
0.0
 20
0.0
 30
0.0
  0
SOLID
  5
501
  8
DIMENSION__ISO_
 10
87.076612335173067
 20
213.8416379206487079
 30
0.0
 11
86.6454398317648895
 21
212.5213718042980133
 31
0.0
 12
90.8218244325210549
 22
211.8879873522488992
 32
0.0
 13
90.8218244325210549
 23
211.8879873522488992
 33
0.0
  0
POINT
  5
502
  8
DEFPOINTS
 62
     0
 10
90.8218244325210549
 20
211.8879873522488992
 30
0.0
  0
POINT
  5
503
  8
DEFPOINTS
 62
     0
 10
96.8580811164764697
 20
209.916666666666714
 30
0.0
  0
ENDBLK
  5
472
  8
0
  0
BLOCK
  8
0
  2
*D34
 70
     1
 10
0.0
 20
0.0
 30
0.0
  3
*D34
  1

  0
LINE
  5
504
  8
DIMENSION__ISO_
 10
278.7742435614413807
 20
231.8609873772032017
 30
0.0
 11
273.3285164280820823
 21
231.8609873772032017
 31
0.0
  0
LINE
  5
505
  8
DIMENSION__ISO_
 10
273.3285164280820823
 20
231.8609873772032017
 30
0.0
 11
259.1303205753487759
 21
217.4166908758824945
 31
0.0
  0
INSERT
  5
506
  8
0
  2
*U74
 10
0.0
 20
0.0
 30
0.0
  0
SOLID
  5
507
  8
DIMENSION__ISO_
 10
258.6350733349092934
 20
217.9035001375617924
 30
0.0
 11
259.6255678157883153
 21
216.9298816142031114
 31
0.0
 12
256.209465005272591
 22
214.4452074332454004
 32
0.0
 13
256.209465005272591
 23
214.4452074332454004
 33
0.0
  0
POINT
  5
508
  8
DEFPOINTS
 62
     0
 10
256.209465005272591
 20
214.4452074332454004
 30
0.0
  0
POINT
  5
509
  8
DEFPOINTS
 62
     0
 10
251.7580811164764896
 20
209.9166666666666003
 30
0.0
  0
ENDBLK
  5
47B
  8
0
  0
BLOCK
  8
0
  2
*D35
 70
     1
 10
0.0
 20
0.0
 30
0.0
  3
*D35
  1

  0
LINE
  5
50A
  8
DIMENSION__ISO_
 10
278.8094310723628269
 20
177.429212986471498
 30
0.0
 11
274.6427644056960276
 21
177.429212986471498
 31
0.0
  0
LINE
  5
50B
  8
DIMENSION__ISO_
 10
274.6427644056960276
 20
177.429212986471498
 30
0.0
 11
262.5084209483304107
 21
171.3128374011413086
 31
0.0
  0
INSERT
  5
50C
  8
0
  2
*U75
 10
0.0
 20
0.0
 30
0.0
  0
SOLID
  5
50D
  8
DIMENSION__ISO_
 10
262.195845944999121
 20
171.9329583197628892
 30
0.0
 11
262.8209959516618142
 21
170.692716482519586
 31
0.0
 12
258.7876954366004725
 22
169.4373873811530871
 32
0.0
 13
258.7876954366004725
 23
169.4373873811530871
 33
0.0
  0
POINT
  5
50E
  8
DEFPOINTS
 62
     0
 10
258.7876954366004725
 20
169.4373873811530871
 30
0.0
  0
POINT
  5
50F
  8
DEFPOINTS
 62
     0
 10
264.4580811164768193
 20
172.2955732116151069
 30
0.0
  0
ENDBLK
  5
484
  8
0
  0
BLOCK
  8
0
  2
*D36
 70
     1
 10
0.0
 20
0.0
 30
0.0
  3
*D36
  1

  0
LINE
  5
510
  8
DIMENSION__ISO_
 10
317.7832972921214036
 20
149.4983118072213983
 30
0.0
 11
312.3375701587614799
 21
149.4983118072213983
 31
0.0
  0
LINE
  5
511
  8
DIMENSION__ISO_
 10
312.3375701587614799
 20
149.4983118072213983
 30
0.0
 11
295.8767196551863776
 21
137.5814253579314084
 31
0.0
  0
INSERT
  5
512
  8
0
  2
*U76
 10
0.0
 20
0.0
 30
0.0
  0
SOLID
  5
513
  8
DIMENSION__ISO_
 10
295.4694893214289095
 20
138.1439345060236974
 30
0.0
 11
296.2839499889437889
 21
137.0189162098390909
 31
0.0
 12
292.5016647666324729
 22
135.1380433553864862
 32
0.0
 13
292.5016647666324729
 23
135.1380433553864862
 33
0.0
  0
POINT
  5
514
  8
DEFPOINTS
 62
     0
 10
292.5016647666324729
 20
135.1380433553864862
 30
0.0
  0
POINT
  5
515
  8
DEFPOINTS
 62
     0
 10
287.3580811164766828
 20
131.4143291835083005
 30
0.0
  0
ENDBLK
  5
48D
  8
0
  0
BLOCK
  8
0
  2
*U39
 70
     1
 10
0.0
 20
0.0
 30
0.0
  3
*U39
  1

  0
TEXT
  5
807
  8
DIMENSION__ISO_
 10
238.2740976194336042
 20
336.5684374997106829
 30
0.0
 40
4.2333332697550441
  1
203.2 [8.000]
  7
MtXpl_Tahoma
  0
ENDBLK
  5
809
  8
0
  0
BLOCK
  8
0
  2
*U40
 70
     1
 10
0.0
 20
0.0
 30
0.0
  3
*U40
  1

  0
TEXT
  5
80B
  8
DIMENSION__ISO_
 10
220.3077779432209127
 20
324.2224461591957265
 30
0.0
 40
4.2333332697550441
  1
167.6 [6.598]
  7
MtXpl_Tahoma
  0
ENDBLK
  5
80D
  8
0
  0
BLOCK
  8
0
  2
*U41
 70
     1
 10
0.0
 20
0.0
 30
0.0
  3
*U41
  1

  0
TEXT
  5
80F
  8
DIMENSION__ISO_
 10
110.249233418393203
 20
311.0381113673033155
 30
0.0
 40
4.2333332697550441
  1
38.1 [1.500]
  7
MtXpl_Tahoma
  0
ENDBLK
  5
811
  8
0
  0
BLOCK
  8
0
  2
*U42
 70
     1
 10
0.0
 20
0.0
 30
0.0
  3
*U42
  1

  0
TEXT
  5
813
  8
DIMENSION__ISO_
 10
63.3907642861003211
 20
187.961795921460407
 30
0.0
 40
4.2333332697550441
  1
212.1 [8.350]
  7
MtXpl_Tahoma
  0
ENDBLK
  5
815
  8
0
  0
BLOCK
  8
0
  2
*U43
 70
     1
 10
0.0
 20
0.0
 30
0.0
  3
*U43
  1

  0
TEXT
  5
817
  8
DIMENSION__ISO_
 10
196.522981903487505
 20
228.8902131864828107
 30
0.0
 40
4.2333332697550441
  1
R176.8 [R6.96]
  7
MtXpl_Tahoma
  0
ENDBLK
  5
819
  8
0
  0
BLOCK
  8
0
  2
*U44
 70
     1
 10
0.0
 20
0.0
 30
0.0
  3
*U44
  1

  0
TEXT
  5
81B
  8
DIMENSION__ISO_
 10
234.4248401736574863
 20
179.8429546098778076
 30
0.0
 40
4.2333332697550441
  1
R195.1 [R7.68]
  7
MtXpl_Tahoma
  0
ENDBLK
  5
81D
  8
0
  0
BLOCK
  8
0
  2
*U45
 70
     1
 10
0.0
 20
0.0
 30
0.0
  3
*U45
  1

  0
TEXT
  5
81F
  8
DIMENSION__ISO_
 10
242.3294950352367891
 20
154.7402525860240132
 30
0.0
 40
4.2333332697550441
  1
R209.8 [R8.26]
  7
MtXpl_Tahoma
  0
ENDBLK
  5
821
  8
0
  0
BLOCK
  8
0
  2
*U46
 70
     1
 10
0.0
 20
0.0
 30
0.0
  3
*U46
  1

  0
TEXT
  5
823
  8
DIMENSION__ISO_
 10
372.2573095714475926
 20
277.3451128258623726
 30
0.0
 40
4.2333332697550441
  1
27.2 [1.070]
  7
MtXpl_Tahoma
  0
ENDBLK
  5
825
  8
0
  0
BLOCK
  8
0
  2
*U47
 70
     1
 10
0.0
 20
0.0
 30
0.0
  3
*U47
  1

  0
TEXT
  5
827
  8
DIMENSION__ISO_
 10
372.2359865360356821
 20
236.6701128258623896
 30
0.0
 40
4.2333332697550441
  1
54.2 [2.132]
  7
MtXpl_Tahoma
  0
ENDBLK
  5
829
  8
0
  0
BLOCK
  8
0
  2
*U48
 70
     1
 10
0.0
 20
0.0
 30
0.0
  3
*U48
  1

  0
TEXT
  5
82B
  8
DIMENSION__ISO_
 10
217.1756681157762898
 20
199.8841933540406046
 30
0.0
 40
4.2333332697550441
  1
R184.9 [R7.28]
  7
MtXpl_Tahoma
  0
ENDBLK
  5
82D
  8
0
  0
BLOCK
  8
0
  2
*U49
 70
     1
 10
0.0
 20
0.0
 30
0.0
  3
*U49
  1

  0
TEXT
  5
82F
  8
DIMENSION__ISO_
 10
209.5762078664484989
 20
130.7859981347957046
 30
0.0
 40
4.2333332697550432
  1
45
  7
MtXpl_Tahoma
  0
ENDBLK
  5
831
  8
0
  0
BLOCK
  8
0
  2
*U50
 70
     1
 10
0.0
 20
0.0
 30
0.0
  3
*U50
  1

  0
TEXT
  5
833
  8
DIMENSION__ISO_
 10
367.2426632817313816
 20
146.7118767634457868
 30
0.0
 40
4.2333332697550441
  1
R6.4 [R0.25]
  7
MtXpl_Tahoma
  0
ENDBLK
  5
835
  8
0
  0
BLOCK
  8
0
  2
*U51
 70
     1
 10
0.0
 20
0.0
 30
0.0
  3
*U51
  1

  0
TEXT
  5
837
  8
DIMENSION__ISO_
 10
107.8268537783260967
 20
217.5784725378809128
 30
0.0
 40
4.2333332697550441
  1
R6.4 [R0.25]
  7
MtXpl_Tahoma
  0
ENDBLK
  5
839
  8
0
  0
BLOCK
  8
0
  2
*U52
 70
     1
 10
0.0
 20
0.0
 30
0.0
  3
*U52
  1

  0
TEXT
  5
83B
  8
DIMENSION__ISO_
 10
69.145351432264377
 20
302.0489195036938099
 30
0.0
 40
4.2333332697550441
  1
R6.4 [R0.25]
  7
MtXpl_Tahoma
  0
ENDBLK
  5
83D
  8
0
  0
BLOCK
  8
0
  2
*U53
 70
     1
 10
0.0
 20
0.0
 30
0.0
  3
*U53
  1

  0
TEXT
  5
83F
  8
DIMENSION__ISO_
 10
343.3789322867862097
 20
306.5334335363988885
 30
0.0
 40
4.2333332697550441
  1
R6.4 [R0.25]
  7
MtXpl_Tahoma
  0
ENDBLK
  5
841
  8
0
  0
BLOCK
  8
0
  2
*U54
 70
     1
 10
0.0
 20
0.0
 30
0.0
  3
*U54
  1

  0
TEXT
  5
843
  8
DIMENSION__ISO_
 10
343.4141196942609895
 20
252.1016591456672131
 30
0.0
 40
4.2333332697550441
  1
R6.4 [R0.25]
  7
MtXpl_Tahoma
  0
ENDBLK
  5
845
  8
0
  0
BLOCK
  8
0
  2
*U55
 70
     1
 10
0.0
 20
0.0
 30
0.0
  3
*U55
  1

  0
TEXT
  5
847
  8
DIMENSION__ISO_
 10
382.3879860174661758
 20
224.1707579664173124
 30
0.0
 40
4.2333332697550441
  1
R6.4 [R0.25]
  7
MtXpl_Tahoma
  0
ENDBLK
  5
849
  8
0
  0
BLOCK
  8
0
  2
*U56
 70
     1
 10
0.0
 20
0.0
 30
0.0
  3
*U56
  1

  0
TEXT
  5
84C
  8
SYMBOL__ISO_
 10
144.8619558439272055
 20
232.2984050820163873
 30
0.0
 40
4.233333468437193
  1
3X  
  7
MtXpl_Tahoma
  0
TEXT
  5
84D
  8
SYMBOL__ISO_
 10
155.0600533263207979
 20
232.2984050820163873
 30
0.0
 40
4.233299999999999
  1
n
  7
MtXpl_AIGDT
  0
TEXT
  5
84E
  8
SYMBOL__ISO_
 10
159.9358581226414913
 20
232.2984050820163873
 30
0.0
 40
4.233299999999999
  1
6.6 THRU
  7
MtXpl_Tahoma
  0
TEXT
  5
84F
  8
SYMBOL__ISO_
 10
144.8345605208789095
 20
224.8900710075986069
 30
0.0
 40
4.233299999999999
  1
n
  7
MtXpl_AIGDT
  0
TEXT
  5
850
  8
SYMBOL__ISO_
 10
149.7103653171994893
 20
224.8900710075986069
 30
0.0
 40
4.233299999999999
  1
14.5 C'SINK X 90
  7
MtXpl_Tahoma
  0
ENDBLK
  5
852
  8
0
  0
BLOCK
  8
0
  2
*U57
 70
     1
 10
0.0
 20
0.0
 30
0.0
  3
*U57
  1

  0
SOLID
  5
854
  8
SYMBOL__ISO_
 10
216.6929050791281952
 20
200.0366137628242029
 30
0.0
 11
217.5572025833905059
 21
195.9018400058143925
 31
0.0
 12
215.3986161581661918
 22
199.532799774576489
 32
0.0
 13
215.3986161581661918
 23
199.532799774576489
 33
0.0
  0
POLYLINE
  5
855
  8
SYMBOL__ISO_
 66
     1
 10
0.0
 20
0.0
 30
0.0
  0
VERTEX
  5
856
  8
SYMBOL__ISO_
 10
216.0457606186473072
 20
199.7847067687002891
 30
0.0
  0
VERTEX
  5
857
  8
SYMBOL__ISO_
 10
202.5655692591274999
 20
234.4150718162348994
 30
0.0
  0
VERTEX
  5
858
  8
SYMBOL__ISO_
 10
198.3989025924607859
 20
234.4150718162348994
 30
0.0
  0
SEQEND
  5
859
  8
SYMBOL__ISO_
  0
ENDBLK
  5
85B
  8
0
  0
BLOCK
  8
0
  2
*U58
 70
     1
 10
0.0
 20
0.0
 30
0.0
  3
*U58
  1

  0
TEXT
  5
85D
  8
SYMBOL__ISO_
 10
312.4494138052666017
 20
103.2870296227393965
 30
0.0
 40
4.233333468437193
  1
 
  7
MtXpl_Tahoma
  0
TEXT
  5
85E
  8
SYMBOL__ISO_
 10
314.2689795673887829
 20
103.2870296227393965
 30
0.0
 40
4.233299999999999
  1
n
  7
MtXpl_AIGDT
  0
TEXT
  5
85F
  8
SYMBOL__ISO_
 10
319.1447843637093911
 20
103.2870296227393965
 30
0.0
 40
4.233299999999999
  1
6.6 THRU
  7
MtXpl_Tahoma
  0
ENDBLK
  5
861
  8
0
  0
BLOCK
  8
0
  2
*U59
 70
     1
 10
0.0
 20
0.0
 30
0.0
  3
*U59
  1

  0
SOLID
  5
863
  8
SYMBOL__ISO_
 10
287.4724303520363833
 20
128.6463108530639943
 30
0.0
 11
285.4124151542437176
 21
132.3340881758417993
 31
0.0
 12
288.5571140676511845
 22
129.5137632049307115
 32
0.0
 13
288.5571140676511845
 23
129.5137632049307115
 33
0.0
  0
POLYLINE
  5
864
  8
SYMBOL__ISO_
 66
     1
 10
0.0
 20
0.0
 30
0.0
  0
VERTEX
  5
865
  8
SYMBOL__ISO_
 10
288.0147722098437839
 20
129.0800370289973102
 30
0.0
  0
VERTEX
  5
866
  8
SYMBOL__ISO_
 10
306.9494138052667154
 20
105.4036963569579939
 30
0.0
  0
VERTEX
  5
867
  8
SYMBOL__ISO_
 10
311.1160804719332873
 20
105.4036963569579939
 30
0.0
  0
SEQEND
  5
868
  8
SYMBOL__ISO_
  0
ENDBLK
  5
86A
  8
0
  0
BLOCK
  8
0
  2
*U60
 70
     1
 10
0.0
 20
0.0
 30
0.0
  3
*U60
  1

  0
TEXT
  5
86C
  8
DIMENSION__ISO_
 10
174.5734384427260864
 20
260.3365666941343193
 30
0.0
 40
4.2333332697550432
  1
203.2 [8.000]
  7
MtXpl_Tahoma
  0
ENDBLK
  5
86E
  8
0
  0
BLOCK
  8
0
  2
*U61
 70
     1
 10
0.0
 20
0.0
 30
0.0
  3
*U61
  1

  0
TEXT
  5
870
  8
DIMENSION__ISO_
 10
156.6071187675879912
 20
247.990575353619306
 30
0.0
 40
4.2333332697550432
  1
167.6 [6.598]
  7
MtXpl_Tahoma
  0
ENDBLK
  5
872
  8
0
  0
BLOCK
  8
0
  2
*U62
 70
     1
 10
0.0
 20
0.0
 30
0.0
  3
*U62
  1

  0
TEXT
  5
874
  8
DIMENSION__ISO_
 10
46.548574251843867
 20
234.8062405617268951
 30
0.0
 40
4.2333332697550432
  1
38.1 [1.500]
  7
MtXpl_Tahoma
  0
ENDBLK
  5
876
  8
0
  0
BLOCK
  8
0
  2
*U63
 70
     1
 10
0.0
 20
0.0
 30
0.0
  3
*U63
  1

  0
TEXT
  5
878
  8
DIMENSION__ISO_
 10
-0.3098948906071493
 20
111.7299251158841997
 30
0.0
 40
4.2333332697550432
  1
212.1 [8.350]
  7
MtXpl_Tahoma
  0
ENDBLK
  5
87A
  8
0
  0
BLOCK
  8
0
  2
*U64
 70
     1
 10
0.0
 20
0.0
 30
0.0
  3
*U64
  1

  0
TEXT
  5
87C
  8
DIMENSION__ISO_
 10
132.8223227140869085
 20
152.6583423809063902
 30
0.0
 40
4.2333332697550432
  1
R176.8 [R6.96]
  7
MtXpl_Tahoma
  0
ENDBLK
  5
87E
  8
0
  0
BLOCK
  8
0
  2
*U65
 70
     1
 10
0.0
 20
0.0
 30
0.0
  3
*U65
  1

  0
TEXT
  5
880
  8
DIMENSION__ISO_
 10
170.7241809842568045
 20
103.6110838043014013
 30
0.0
 40
4.2333332697550432
  1
R195.1 [R7.68]
  7
MtXpl_Tahoma
  0
ENDBLK
  5
882
  8
0
  0
BLOCK
  8
0
  2
*U66
 70
     1
 10
0.0
 20
0.0
 30
0.0
  3
*U66
  1

  0
TEXT
  5
884
  8
DIMENSION__ISO_
 10
178.6288358458361927
 20
78.5083817804476922
 30
0.0
 40
4.2333332697550432
  1
R209.8 [R8.26]
  7
MtXpl_Tahoma
  0
ENDBLK
  5
886
  8
0
  0
BLOCK
  8
0
  2
*U67
 70
     1
 10
0.0
 20
0.0
 30
0.0
  3
*U67
  1

  0
TEXT
  5
888
  8
DIMENSION__ISO_
 10
308.5566504050083836
 20
201.1132420202860089
 30
0.0
 40
4.2333332697550432
  1
27.2 [1.070]
  7
MtXpl_Tahoma
  0
ENDBLK
  5
88A
  8
0
  0
BLOCK
  8
0
  2
*U68
 70
     1
 10
0.0
 20
0.0
 30
0.0
  3
*U68
  1

  0
TEXT
  5
88C
  8
DIMENSION__ISO_
 10
308.5353273697343184
 20
160.4382420202861113
 30
0.0
 40
4.2333332697550432
  1
54.2 [2.132]
  7
MtXpl_Tahoma
  0
ENDBLK
  5
88E
  8
0
  0
BLOCK
  8
0
  2
*U69
 70
     1
 10
0.0
 20
0.0
 30
0.0
  3
*U69
  1

  0
TEXT
  5
890
  8
DIMENSION__ISO_
 10
153.4750089263756934
 20
123.6523225484642978
 30
0.0
 40
4.2333332697550432
  1
R184.9 [R7.28]
  7
MtXpl_Tahoma
  0
ENDBLK
  5
892
  8
0
  0
BLOCK
  8
0
  2
*U70
 70
     1
 10
0.0
 20
0.0
 30
0.0
  3
*U70
  1

  0
TEXT
  5
894
  8
DIMENSION__ISO_
 10
145.8755488010309023
 20
54.5541273113277612
 30
0.0
 40
4.2333332697550432
  1
45
  7
MtXpl_Tahoma
  0
ENDBLK
  5
896
  8
0
  0
BLOCK
  8
0
  2
*U71
 70
     1
 10
0.0
 20
0.0
 30
0.0
  3
*U71
  1

  0
TEXT
  5
898
  8
DIMENSION__ISO_
 10
303.5420041128675734
 20
70.4800059578695226
 30
0.0
 40
4.2333332697550432
  1
R6.4 [R0.25]
  7
MtXpl_Tahoma
  0
ENDBLK
  5
89A
  8
0
  0
BLOCK
  8
0
  2
*U72
 70
     1
 10
0.0
 20
0.0
 30
0.0
  3
*U72
  1

  0
TEXT
  5
89C
  8
DIMENSION__ISO_
 10
44.1261946094623383
 20
141.346601732304606
 30
0.0
 40
4.2333332697550432
  1
R6.4 [R0.25]
  7
MtXpl_Tahoma
  0
ENDBLK
  5
89E
  8
0
  0
BLOCK
  8
0
  2
*U73
 70
     1
 10
0.0
 20
0.0
 30
0.0
  3
*U73
  1

  0
TEXT
  5
8A0
  8
DIMENSION__ISO_
 10
5.4446921599503106
 20
225.8170486981173042
 30
0.0
 40
4.2333332697550432
  1
R6.4 [R0.25]
  7
MtXpl_Tahoma
  0
ENDBLK
  5
8A2
  8
0
  0
BLOCK
  8
0
  2
*U74
 70
     1
 10
0.0
 20
0.0
 30
0.0
  3
*U74
  1

  0
TEXT
  5
8A4
  8
DIMENSION__ISO_
 10
279.6782731179225152
 20
230.3015627308226101
 30
0.0
 40
4.2333332697550432
  1
R6.4 [R0.25]
  7
MtXpl_Tahoma
  0
ENDBLK
  5
8A6
  8
0
  0
BLOCK
  8
0
  2
*U75
 70
     1
 10
0.0
 20
0.0
 30
0.0
  3
*U75
  1

  0
TEXT
  5
8A8
  8
DIMENSION__ISO_
 10
279.7134606288437908
 20
175.8697883400909063
 30
0.0
 40
4.2333332697550432
  1
R6.4 [R0.25]
  7
MtXpl_Tahoma
  0
ENDBLK
  5
8AA
  8
0
  0
BLOCK
  8
0
  2
*U76
 70
     1
 10
0.0
 20
0.0
 30
0.0
  3
*U76
  1

  0
TEXT
  5
8AC
  8
DIMENSION__ISO_
 10
318.6873268486024813
 20
147.938887160840892
 30
0.0
 40
4.2333332697550432
  1
R6.4 [R0.25]
  7
MtXpl_Tahoma
  0
ENDBLK
  5
8AE
  8
0
  0
ENDSEC
  0
SECTION
  2
ENTITIES
  0
ARC
  5
538
  8
VISIBLE__ISO_
 10
44.5703867191704433
 20
-84.9544328387184748
 30
0.0
 40
176.7839999999999918
 50
99.3019803914514654
 51
99.9838346794001609
  0
CIRCLE
  5
539
  8
VISIBLE__ISO_
 10
44.5703867191704433
 20
99.9575671612815455
 30
0.0
 40
3.2999999999999989
  0
CIRCLE
  5
53A
  8
VISIBLE__ISO_
 10
175.322915841937288
 20
45.7980962840484196
 30
0.0
 40
3.2999999999999989
  0
CIRCLE
  5
53B
  8
VISIBLE__ISO_
 10
135.9703867191703921
 20
99.9575671612815455
 30
0.0
 40
3.2999999999999989
  0
CIRCLE
  5
53C
  8
VISIBLE__ISO_
 10
199.3203867191703864
 20
45.7955671612814896
 30
0.0
 40
3.2999999999999989
  0
POLYLINE
  5
53D
  8
0
 66
     1
 10
0.0
 20
0.0
 30
0.0
 70
     1
  0
VERTEX
  5
8D0
  8
0
 10
216.4744808431242973
 20
13.3513509046388208
 30
0.0
  0
VERTEX
  5
8D1
  8
0
 10
216.4744808431242973
 20
36.0355151831922669
 30
0.0
  0
VERTEX
  5
8D2
  8
0
 10
208.2751307890956127
 20
46.2647547254494924
 30
0.0
  0
VERTEX
  5
8D3
  8
0
 10
208.2751307890833914
 20
46.2647547254647122
 30
0.0
 42
0.0539267377208542
  0
VERTEX
  5
8D4
  8
0
 10
176.4294936521905868
 20
78.2353166396920017
 30
0.0
 42
-0.2265585805004914
  0
VERTEX
  5
8D5
  8
0
 10
174.0703867191703864
 20
83.1744737062299464
 30
0.0
  0
VERTEX
  5
8D6
  8
0
 10
174.0703867191705001
 20
120.7955671612813973
 30
0.0
 42
0.4142135623730951
  0
VERTEX
  5
8D7
  8
0
 10
167.7203867191705058
 20
127.1455671612815053
 30
0.0
  0
VERTEX
  5
8D8
  8
0
 10
12.8203867191704006
 20
127.1455671612814058
 30
0.0
  0
VERTEX
  5
8D9
  8
0
 10
0.0
 20
127.1455671612813063
 30
0.0
  0
VERTEX
  5
8DA
  8
0
 10
1.8218963200102249
 20
105.5163059184780963
 30
0.0
  0
VERTEX
  5
8DB
  8
0
 10
9.0103867191711373
 20
106.8490384124557977
 30
0.0
 42
-0.0090760744684353
  0
VERTEX
  5
8DC
  8
0
 10
15.9953867191704706
 20
108.0133223925635946
 30
0.0
 42
-0.2973555930078524
  0
VERTEX
  5
8DD
  8
0
 10
209.6703867191704092
 20
18.9449183815852784
 30
0.0
  0
SEQEND
  5
8DE
  8
0
  0
POLYLINE
  5
53E
  8
VISIBLE__ISO_
 66
     1
 10
0.0
 20
0.0
 30
0.0
  0
VERTEX
  5
8DF
  8
VISIBLE__ISO_
 10
13.9212882448292703
 20
89.1524751767595376
 30
0.0
 42
-0.4662217892366852
  0
VERTEX
  5
8E0
  8
VISIBLE__ISO_
 10
6.4703867191704481
 20
95.4063152635224156
 30
0.0
  0
VERTEX
  5
8E1
  8
VISIBLE__ISO_
 10
6.4703867191704481
 20
120.7955671612813973
 30
0.0
 42
-0.2360679774997904
  0
VERTEX
  5
8E2
  8
VISIBLE__ISO_
 10
9.0103867191703841
 20
125.8755671612813956
 30
0.0
 42
-0.1622776601683717
  0
VERTEX
  5
8E3
  8
VISIBLE__ISO_
 10
12.8203867191703793
 20
127.1455671612814058
 30
0.0
  0
VERTEX
  5
8E4
  8
VISIBLE__ISO_
 10
167.7203867191703921
 20
127.1455671612815053
 30
0.0
 42
-0.4142135623731029
  0
VERTEX
  5
8E5
  8
VISIBLE__ISO_
 10
174.0703867191705001
 20
120.7955671612814967
 30
0.0
  0
VERTEX
  5
8E6
  8
VISIBLE__ISO_
 10
174.0703867191703864
 20
83.1744737062299464
 30
0.0
 42
0.2265585805004869
  0
VERTEX
  5
8E7
  8
VISIBLE__ISO_
 10
176.4294936521903878
 20
78.2353166396920443
 30
0.0
 42
-0.0539267377208774
  0
VERTEX
  5
8E8
  8
VISIBLE__ISO_
 10
208.2751307890831072
 20
46.2647547254652807
 30
0.0
 42
-0.1705481595295356
  0
VERTEX
  5
8E9
  8
VISIBLE__ISO_
 10
209.6703867191704092
 20
42.2932296781230477
 30
0.0
  0
VERTEX
  5
8EA
  8
VISIBLE__ISO_
 10
209.6703867191704092
 20
18.9449183815851399
 30
0.0
  0
VERTEX
  5
8EB
  8
VISIBLE__ISO_
 10
209.6703867191706934
 20
6.3499999999997518
 30
0.0
 42
-0.7679844613883264
  0
VERTEX
  5
8EC
  8
VISIBLE__ISO_
 10
197.8158790908759954
 20
3.1841042705025719
 30
0.0
 42
0.3124075295725099
  0
VERTEX
  5
8ED
  8
VISIBLE__ISO_
 10
15.9953867191702095
 20
89.5048805584171561
 30
0.0
  0
SEQEND
  5
8EE
  8
VISIBLE__ISO_
  0
ENDSEC
  0
EOF
