  0
SECTION
  2
HEADER
  9
$ACADVER
  1
AC1009
  9
$INSBASE
 10
0.0
 20
0.0
 30
0.0
  9
$EXTMIN
 10
2234.8797568223221788
 20
1965.2417927110889195
 30
0.0
  9
$EXTMAX
 10
7306.6429507596158146
 20
4671.9343941101978999
 30
0.0
  9
$LIMMIN
 10
0.0
 20
0.0
  9
$LIMMAX
 10
420.0
 20
297.0
  9
$ORTHOMODE
 70
     1
  9
$REGENMODE
 70
     1
  9
$FILLMODE
 70
     1
  9
$QTEXTMODE
 70
     0
  9
$MIRRTEXT
 70
     0
  9
$DRAGMODE
 70
     2
  9
$LTSCALE
 40
1.0
  9
$OSMODE
 70
   951
  9
$ATTMODE
 70
     1
  9
$TEXTSIZE
 40
2.5
  9
$TRACEWID
 40
1.0
  9
$TEXTSTYLE
  7
STANDARD
  9
$CLAYER
  8
0
  9
$CELTYPE
  6
BYLAYER
  9
$CECOLOR
 62
   256
  9
$DIMSCALE
 40
1.0
  9
$DIMASZ
 40
2.5
  9
$DIMEXO
 40
0.625
  9
$DIMDLI
 40
3.75
  9
$DIMRND
 40
0.0
  9
$DIMDLE
 40
0.0
  9
$DIMEXE
 40
1.25
  9
$DIMTP
 40
0.0
  9
$DIMTM
 40
0.0
  9
$DIMTXT
 40
2.5
  9
$DIMCEN
 40
2.5
  9
$DIMTSZ
 40
0.0
  9
$DIMTOL
 70
     0
  9
$DIMLIM
 70
     0
  9
$DIMTIH
 70
     0
  9
$DIMTOH
 70
     0
  9
$DIMSE1
 70
     0
  9
$DIMSE2
 70
     0
  9
$DIMTAD
 70
     1
  9
$DIMZIN
 70
     8
  9
$DIMBLK
  1

  9
$DIMASO
 70
     1
  9
$DIMSHO
 70
     1
  9
$DIMPOST
  1

  9
$DIMAPOST
  1

  9
$DIMALT
 70
     0
  9
$DIMALTD
 70
     3
  9
$DIMALTF
 40
0.03937007874016
  9
$DIMLFAC
 40
1.0
  9
$DIMTOFL
 70
     1
  9
$DIMTVP
 40
0.0
  9
$DIMTIX
 70
     0
  9
$DIMSOXD
 70
     0
  9
$DIMSAH
 70
     0
  9
$DIMBLK1
  1

  9
$DIMBLK2
  1

  9
$DIMSTYLE
  2
ISO-25
  9
$DIMCLRD
 70
     0
  9
$DIMCLRE
 70
     0
  9
$DIMCLRT
 70
     0
  9
$DIMTFAC
 40
1.0
  9
$DIMGAP
 40
0.625
  9
$LUNITS
 70
     2
  9
$LUPREC
 70
     4
  9
$SKETCHINC
 40
1.0
  9
$FILLETRAD
 40
0.0
  9
$AUNITS
 70
     0
  9
$AUPREC
 70
     0
  9
$MENU
  1
.
  9
$ELEVATION
 40
0.0
  9
$PELEVATION
 40
0.0
  9
$THICKNESS
 40
0.0
  9
$LIMCHECK
 70
     0
  9
$BLIPMODE
 70
     0
  9
$CHAMFERA
 40
0.0
  9
$CHAMFERB
 40
0.0
  9
$SKPOLY
 70
     0
  9
$TDCREATE
 40
2459874.4776967591606081
  9
$TDUPDATE
 40
2459877.4320833338424563
  9
$TDINDWG
 40
0.2161805556
  9
$TDUSRTIMER
 40
0.2161805556
  9
$USRTIMER
 70
     1
  9
$ANGBASE
 50
0.0
  9
$ANGDIR
 70
     0
  9
$PDMODE
 70
     0
  9
$PDSIZE
 40
0.0
  9
$PLINEWID
 40
0.0
  9
$COORDS
 70
     1
  9
$SPLFRAME
 70
     0
  9
$SPLINETYPE
 70
     6
  9
$SPLINESEGS
 70
     8
  9
$ATTDIA
 70
     1
  9
$ATTREQ
 70
     1
  9
$HANDLING
 70
     1
  9
$HANDSEED
  5
9C3
  9
$SURFTAB1
 70
     6
  9
$SURFTAB2
 70
     6
  9
$SURFTYPE
 70
     6
  9
$SURFU
 70
     6
  9
$SURFV
 70
     6
  9
$UCSNAME
  2

  9
$UCSORG
 10
0.0
 20
0.0
 30
0.0
  9
$UCSXDIR
 10
1.0
 20
0.0
 30
0.0
  9
$UCSYDIR
 10
0.0
 20
1.0
 30
0.0
  9
$PUCSNAME
  2

  9
$PUCSORG
 10
0.0
 20
0.0
 30
0.0
  9
$PUCSXDIR
 10
1.0
 20
0.0
 30
0.0
  9
$PUCSYDIR
 10
0.0
 20
1.0
 30
0.0
  9
$USERI1
 70
     0
  9
$USERI2
 70
     0
  9
$USERI3
 70
     0
  9
$USERI4
 70
     0
  9
$USERI5
 70
     0
  9
$USERR1
 40
0.0
  9
$USERR2
 40
0.0
  9
$USERR3
 40
0.0
  9
$USERR4
 40
0.0
  9
$USERR5
 40
0.0
  9
$WORLDVIEW
 70
     1
  9
$SHADEDGE
 70
     3
  9
$SHADEDIF
 70
    70
  9
$TILEMODE
 70
     1
  9
$MAXACTVP
 70
    64
  9
$PLIMCHECK
 70
     0
  9
$PEXTMIN
 10
0.0
 20
0.0
 30
0.0
  9
$PEXTMAX
 10
0.0
 20
0.0
 30
0.0
  9
$PLIMMIN
 10
0.0
 20
0.0
  9
$PLIMMAX
 10
12.0
 20
9.0
  9
$UNITMODE
 70
     0
  9
$VISRETAIN
 70
     1
  9
$PLINEGEN
 70
     0
  9
$PSLTSCALE
 70
     1
  0
ENDSEC
  0
SECTION
  2
TABLES
  0
TABLE
  2
VPORT
 70
     1
  0
VPORT
  2
*ACTIVE
 70
     0
 10
0.0
 20
0.0
 11
1.0
 21
1.0
 12
6322.3316264323648284
 22
3437.164824446737839
 13
0.0
 23
0.0
 14
10.0
 24
10.0
 15
10.0
 25
10.0
 16
0.0
 26
0.0
 36
1.0
 17
0.0
 27
0.0
 37
0.0
 40
1281.6867084228579188
 41
2.3047158403869399
 42
50.0
 43
0.0
 44
0.0
 50
0.0
 51
0.0
 71
     0
 72
  1000
 73
     1
 74
     3
 75
     0
 76
     1
 77
     0
 78
     0
  0
ENDTAB
  0
TABLE
  2
LTYPE
 70
     2
  0
LTYPE
  2
CONTINUOUS
 70
     0
  3
Solid line
 72
    65
 73
     0
 40
0.0
  0
ENDTAB
  0
TABLE
  2
LAYER
 70
     1
  0
LAYER
  2
0
 70
     0
 62
     7
  6
CONTINUOUS
  0
ENDTAB
  0
TABLE
  2
STYLE
 70
     2
  0
STYLE
  2
STANDARD
 70
     0
 40
0.0
 41
1.0
 50
0.0
 71
     0
 42
2.5
  3
txt
  4

  0
STYLE
  2
ANNOTATIVE
 70
     0
 40
0.0
 41
1.0
 50
0.0
 71
     0
 42
2.5
  3
txt
  4

  0
ENDTAB
  0
TABLE
  2
VIEW
 70
     0
  0
ENDTAB
  0
TABLE
  2
UCS
 70
     0
  0
ENDTAB
  0
TABLE
  2
APPID
 70
    10
  0
APPID
  2
ACAD
 70
     0
  0
APPID
  2
ACAD_PSEXT
 70
     0
  0
APPID
  2
ACADANNOPO
 70
     0
  0
APPID
  2
ACADANNOTATIVE
 70
     0
  0
APPID
  2
ACAD_DSTYLE_DIMJAG
 70
     0
  0
APPID
  2
ACAD_DSTYLE_DIMTALN
 70
     0
  0
APPID
  2
ACAD_MLEADERVER
 70
     0
  0
APPID
  2
ACAD_NAV_VCDISPLAY
 70
     0
  0
APPID
  2
ACAD_EXEMPT_FROM_CAD_STANDARDS
 70
     0
  0
APPID
  2
ACAD_DSTYLE_DIMRADIAL_EXTENSION
 70
     0
  0
ENDTAB
  0
TABLE
  2
DIMSTYLE
 70
     4
  0
DIMSTYLE
  2
STANDARD
 70
     0
  3

  4

  5

  6

  7

 40
1.0
 41
0.18
 42
0.0625
 43
0.38
 44
0.18
 45
0.0
 46
0.0
 47
0.0
 48
0.0
140
0.18
141
0.09
142
0.0
143
25.3999999999999986
144
1.0
145
0.0
146
1.0
147
0.09
 71
     0
 72
     0
 73
     1
 74
     1
 75
     0
 76
     0
 77
     0
 78
     0
170
     0
171
     2
172
     0
173
     0
174
     0
175
     0
176
     0
177
     0
178
     0
  0
DIMSTYLE
  2
ANNOTATIVE
 70
     0
  3

  4

  5

  6

  7

 40
0.0
 41
2.5
 42
0.625
 43
3.75
 44
1.25
 45
0.0
 46
0.0
 47
0.0
 48
0.0
140
2.5
141
2.5
142
0.0
143
0.03937007874016
144
1.0
145
0.0
146
1.0
147
0.625
 71
     0
 72
     0
 73
     0
 74
     0
 75
     0
 76
     0
 77
     1
 78
     8
170
     0
171
     3
172
     1
173
     0
174
     0
175
     0
176
     0
177
     0
178
     0
  0
DIMSTYLE
  2
ISO-25
 70
     0
  3

  4

  5

  6

  7

 40
1.0
 41
2.5
 42
0.625
 43
3.75
 44
1.25
 45
0.0
 46
0.0
 47
0.0
 48
0.0
140
2.5
141
2.5
142
0.0
143
0.03937007874016
144
1.0
145
0.0
146
1.0
147
0.625
 71
     0
 72
     0
 73
     0
 74
     0
 75
     0
 76
     0
 77
     1
 78
     8
170
     0
171
     3
172
     1
173
     0
174
     0
175
     0
176
     0
177
     0
178
     0
  0
ENDTAB
  0
ENDSEC
  0
SECTION
  2
BLOCKS
  0
BLOCK
  8
0
  2
$MODEL_SPACE
 70
     0
 10
0.0
 20
0.0
 30
0.0
  3
$MODEL_SPACE
  1

  0
ENDBLK
  5
21
  8
0
  0
BLOCK
 67
     1
  8
0
  2
$PAPER_SPACE
 70
     0
 10
0.0
 20
0.0
 30
0.0
  3
$PAPER_SPACE
  1

  0
ENDBLK
  5
D5
 67
     1
  8
0
  0
ENDSEC
  0
SECTION
  2
ENTITIES
  0
POLYLINE
  5
29C
  8
0
 66
     1
 10
0.0
 20
0.0
 30
0.0
 70
     1
  0
VERTEX
  5
821
  8
0
 10
6631.6640199099747406
 20
3450.0072264392169927
 30
0.0
  0
VERTEX
  5
822
  8
0
 10
6631.6640199099747406
 20
4010.0072264392160832
 30
0.0
  0
VERTEX
  5
823
  8
0
 10
6586.6640199099738311
 20
4010.0072264392160832
 30
0.0
  0
VERTEX
  5
824
  8
0
 10
6586.6640199099738311
 20
3450.0072264392169927
 30
0.0
  0
SEQEND
  5
825
  8
0
  0
POLYLINE
  5
2A6
  8
0
 66
     1
 10
0.0
 20
0.0
 30
0.0
 70
     1
  0
VERTEX
  5
826
  8
0
 10
6586.6640199099738311
 20
3450.0072264392169927
 30
0.0
  0
VERTEX
  5
827
  8
0
 10
6586.6640199099738311
 20
4010.0072264392160832
 30
0.0
  0
VERTEX
  5
828
  8
0
 10
6593.6640199099738311
 20
4010.0072264392160832
 30
0.0
  0
VERTEX
  5
829
  8
0
 10
6593.6640199099738311
 20
3450.0072264392169927
 30
0.0
  0
SEQEND
  5
82A
  8
0
  0
POLYLINE
  5
2A7
  8
0
 66
     1
 10
0.0
 20
0.0
 30
0.0
 70
     1
  0
VERTEX
  5
82B
  8
0
 10
6624.6640199099747406
 20
3450.0072264392169927
 30
0.0
  0
VERTEX
  5
82C
  8
0
 10
6624.6640199099747406
 20
4010.0072264392160832
 30
0.0
  0
VERTEX
  5
82D
  8
0
 10
6631.6640199099747406
 20
4010.0072264392160832
 30
0.0
  0
VERTEX
  5
82E
  8
0
 10
6631.6640199099747406
 20
3450.0072264392169927
 30
0.0
  0
SEQEND
  5
82F
  8
0
  0
POLYLINE
  5
2AA
  8
0
 66
     1
 10
0.0
 20
0.0
 30
0.0
 70
     1
  0
VERTEX
  5
830
  8
0
 10
6599.6640199099738311
 20
3450.0072264392169927
 30
0.0
  0
VERTEX
  5
831
  8
0
 10
6599.6640199099738311
 20
4010.0072264392160832
 30
0.0
  0
VERTEX
  5
832
  8
0
 10
6618.6640199099738311
 20
4010.0072264392160832
 30
0.0
  0
VERTEX
  5
833
  8
0
 10
6618.6640199099738311
 20
3450.0072264392169927
 30
0.0
  0
SEQEND
  5
834
  8
0
  0
POLYLINE
  5
2AB
  8
0
 66
     1
 10
0.0
 20
0.0
 30
0.0
 70
     1
  0
VERTEX
  5
835
  8
0
 10
6691.6640199099747406
 20
3450.0072264392169927
 30
0.0
  0
VERTEX
  5
836
  8
0
 10
6691.6640199099747406
 20
4010.0072264392160832
 30
0.0
  0
VERTEX
  5
837
  8
0
 10
6646.6640199099738311
 20
4010.0072264392160832
 30
0.0
  0
VERTEX
  5
838
  8
0
 10
6646.6640199099738311
 20
3450.0072264392169927
 30
0.0
  0
SEQEND
  5
839
  8
0
  0
POLYLINE
  5
2AC
  8
0
 66
     1
 10
0.0
 20
0.0
 30
0.0
 70
     1
  0
VERTEX
  5
83A
  8
0
 10
6646.6640199099738311
 20
3450.0072264392169927
 30
0.0
  0
VERTEX
  5
83B
  8
0
 10
6646.6640199099738311
 20
4010.0072264392160832
 30
0.0
  0
VERTEX
  5
83C
  8
0
 10
6653.6640199099747406
 20
4010.0072264392160832
 30
0.0
  0
VERTEX
  5
83D
  8
0
 10
6653.6640199099747406
 20
3450.0072264392169927
 30
0.0
  0
SEQEND
  5
83E
  8
0
  0
POLYLINE
  5
2AD
  8
0
 66
     1
 10
0.0
 20
0.0
 30
0.0
 70
     1
  0
VERTEX
  5
83F
  8
0
 10
6684.6640199099747406
 20
3450.0072264392169927
 30
0.0
  0
VERTEX
  5
840
  8
0
 10
6684.6640199099747406
 20
4010.0072264392160832
 30
0.0
  0
VERTEX
  5
841
  8
0
 10
6691.6640199099747406
 20
4010.0072264392160832
 30
0.0
  0
VERTEX
  5
842
  8
0
 10
6691.6640199099747406
 20
3450.0072264392169927
 30
0.0
  0
SEQEND
  5
843
  8
0
  0
POLYLINE
  5
2AE
  8
0
 66
     1
 10
0.0
 20
0.0
 30
0.0
 70
     1
  0
VERTEX
  5
844
  8
0
 10
6659.6640199099747406
 20
3450.0072264392169927
 30
0.0
  0
VERTEX
  5
845
  8
0
 10
6659.6640199099747406
 20
4010.0072264392160832
 30
0.0
  0
VERTEX
  5
846
  8
0
 10
6678.6640199099747406
 20
4010.0072264392160832
 30
0.0
  0
VERTEX
  5
847
  8
0
 10
6678.6640199099747406
 20
3450.0072264392169927
 30
0.0
  0
SEQEND
  5
848
  8
0
  0
POLYLINE
  5
2AF
  8
0
 66
     1
 10
0.0
 20
0.0
 30
0.0
 70
     1
  0
VERTEX
  5
849
  8
0
 10
6451.6640199099747406
 20
3599.2059785574151647
 30
0.0
  0
VERTEX
  5
84A
  8
0
 10
6451.6640199099747406
 20
4024.7259785574151465
 30
0.0
  0
VERTEX
  5
84B
  8
0
 10
6406.6640199099747406
 20
4024.7259785574151465
 30
0.0
  0
VERTEX
  5
84C
  8
0
 10
6406.6640199099747406
 20
3599.2059785574151647
 30
0.0
  0
SEQEND
  5
84D
  8
0
  0
POLYLINE
  5
2B0
  8
0
 66
     1
 10
0.0
 20
0.0
 30
0.0
 70
     1
  0
VERTEX
  5
84E
  8
0
 10
6406.6640199099747406
 20
3599.2059785574151647
 30
0.0
  0
VERTEX
  5
84F
  8
0
 10
6406.6640199099747406
 20
4024.7259785574151465
 30
0.0
  0
VERTEX
  5
850
  8
0
 10
6413.6640199099738311
 20
4024.7259785574151465
 30
0.0
  0
VERTEX
  5
851
  8
0
 10
6413.6640199099738311
 20
3599.2059785574151647
 30
0.0
  0
SEQEND
  5
852
  8
0
  0
POLYLINE
  5
2B1
  8
0
 66
     1
 10
0.0
 20
0.0
 30
0.0
 70
     1
  0
VERTEX
  5
853
  8
0
 10
6444.6640199099747406
 20
3599.2059785574151647
 30
0.0
  0
VERTEX
  5
854
  8
0
 10
6444.6640199099747406
 20
4024.7259785574151465
 30
0.0
  0
VERTEX
  5
855
  8
0
 10
6451.6640199099747406
 20
4024.7259785574151465
 30
0.0
  0
VERTEX
  5
856
  8
0
 10
6451.6640199099747406
 20
3599.2059785574151647
 30
0.0
  0
SEQEND
  5
857
  8
0
  0
POLYLINE
  5
2B2
  8
0
 66
     1
 10
0.0
 20
0.0
 30
0.0
 70
     1
  0
VERTEX
  5
858
  8
0
 10
6419.6640199099747406
 20
3599.2059785574151647
 30
0.0
  0
VERTEX
  5
859
  8
0
 10
6419.6640199099747406
 20
4024.7259785574151465
 30
0.0
  0
VERTEX
  5
85A
  8
0
 10
6438.6640199099747406
 20
4024.7259785574151465
 30
0.0
  0
VERTEX
  5
85B
  8
0
 10
6438.6640199099747406
 20
3599.2059785574151647
 30
0.0
  0
SEQEND
  5
85C
  8
0
  0
POLYLINE
  5
2B4
  8
0
 66
     1
 10
0.0
 20
0.0
 30
0.0
 70
     1
  0
VERTEX
  5
85D
  8
0
 10
6571.6640199099738311
 20
3599.2059785574151647
 30
0.0
  0
VERTEX
  5
85E
  8
0
 10
6571.6640199099738311
 20
4003.7259785574137823
 30
0.0
  0
VERTEX
  5
85F
  8
0
 10
6526.6640199099756501
 20
4003.7259785574137823
 30
0.0
  0
VERTEX
  5
860
  8
0
 10
6526.6640199099756501
 20
3599.2059785574151647
 30
0.0
  0
SEQEND
  5
861
  8
0
  0
POLYLINE
  5
2B5
  8
0
 66
     1
 10
0.0
 20
0.0
 30
0.0
 70
     1
  0
VERTEX
  5
862
  8
0
 10
6526.6640199099756501
 20
3599.2059785574151647
 30
0.0
  0
VERTEX
  5
863
  8
0
 10
6526.6640199099756501
 20
4003.7259785574137823
 30
0.0
  0
VERTEX
  5
864
  8
0
 10
6533.6640199099738311
 20
4003.7259785574137823
 30
0.0
  0
VERTEX
  5
865
  8
0
 10
6533.6640199099738311
 20
3599.2059785574151647
 30
0.0
  0
SEQEND
  5
866
  8
0
  0
POLYLINE
  5
2B6
  8
0
 66
     1
 10
0.0
 20
0.0
 30
0.0
 70
     1
  0
VERTEX
  5
867
  8
0
 10
6564.6640199099747406
 20
3599.2059785574151647
 30
0.0
  0
VERTEX
  5
868
  8
0
 10
6564.6640199099747406
 20
4003.7259785574137823
 30
0.0
  0
VERTEX
  5
869
  8
0
 10
6571.6640199099738311
 20
4003.7259785574137823
 30
0.0
  0
VERTEX
  5
86A
  8
0
 10
6571.6640199099738311
 20
3599.2059785574151647
 30
0.0
  0
SEQEND
  5
86B
  8
0
  0
POLYLINE
  5
2B7
  8
0
 66
     1
 10
0.0
 20
0.0
 30
0.0
 70
     1
  0
VERTEX
  5
86C
  8
0
 10
6539.6640199099747406
 20
3599.2059785574151647
 30
0.0
  0
VERTEX
  5
86D
  8
0
 10
6539.6640199099747406
 20
4003.7259785574137823
 30
0.0
  0
VERTEX
  5
86E
  8
0
 10
6558.6640199099747406
 20
4003.7259785574137823
 30
0.0
  0
VERTEX
  5
86F
  8
0
 10
6558.6640199099747406
 20
3599.2059785574151647
 30
0.0
  0
SEQEND
  5
870
  8
0
  0
POLYLINE
  5
2B8
  8
0
 66
     1
 10
0.0
 20
0.0
 30
0.0
 70
     1
  0
VERTEX
  5
871
  8
0
 10
6638.7504977170210623
 20
3433.1807845663388434
 30
0.0
  0
VERTEX
  5
872
  8
0
 10
6638.7504977170192433
 20
2873.1807845663388434
 30
0.0
  0
VERTEX
  5
873
  8
0
 10
6658.150497717019789
 20
2873.1807845663388434
 30
0.0
  0
VERTEX
  5
874
  8
0
 10
6658.1504977170206985
 20
3433.1807845663388434
 30
0.0
  0
SEQEND
  5
875
  8
0
  0
POLYLINE
  5
2BE
  8
0
 66
     1
 10
0.0
 20
0.0
 30
0.0
 70
     1
  0
VERTEX
  5
876
  8
0
 10
6651.4504977170208804
 20
3433.1807845663388434
 30
0.0
  0
VERTEX
  5
877
  8
0
 10
6651.4504977170208804
 20
2873.1807845663388434
 30
0.0
  0
VERTEX
  5
878
  8
0
 10
6643.4504977170208804
 20
2873.1807845663388434
 30
0.0
  0
VERTEX
  5
879
  8
0
 10
6643.4504977170208804
 20
3433.1807845663388434
 30
0.0
  0
SEQEND
  5
87A
  8
0
  0
CIRCLE
  5
2C0
  8
0
 10
6647.4504977170199709
 20
2888.1807845663388434
 30
0.0
 40
2.75
  0
CIRCLE
  5
2C2
  8
0
 10
6647.4504977170199709
 20
3020.6807845663388434
 30
0.0
 40
2.75
  0
CIRCLE
  5
2C3
  8
0
 10
6647.4504977170199709
 20
3153.1807845663388434
 30
0.0
 40
2.75
  0
CIRCLE
  5
2C4
  8
0
 10
6647.4504977170199709
 20
3285.6807845663388434
 30
0.0
 40
2.75
  0
CIRCLE
  5
2C5
  8
0
 10
6647.4504977170199709
 20
3327.2807845663392072
 30
0.0
 40
2.75
  0
CIRCLE
  5
2C6
  8
0
 10
6647.4504977170199709
 20
3347.2807845663392072
 30
0.0
 40
2.75
  0
CIRCLE
  5
2C7
  8
0
 10
6647.4504977170199709
 20
3373.1807845663388434
 30
0.0
 40
2.75
  0
POLYLINE
  5
2C8
  8
0
 66
     1
 10
0.0
 20
0.0
 30
0.0
 70
     1
  0
VERTEX
  5
87B
  8
0
 10
6707.5504977170194252
 20
3433.1807845663388434
 30
0.0
  0
VERTEX
  5
87C
  8
0
 10
6707.5504977170194252
 20
2873.1807845663388434
 30
0.0
  0
VERTEX
  5
87D
  8
0
 10
6726.9504977170199709
 20
2873.1807845663388434
 30
0.0
  0
VERTEX
  5
87E
  8
0
 10
6726.9504977170199709
 20
3433.1807845663388434
 30
0.0
  0
SEQEND
  5
87F
  8
0
  0
POLYLINE
  5
2C9
  8
0
 66
     1
 10
0.0
 20
0.0
 30
0.0
 70
     1
  0
VERTEX
  5
880
  8
0
 10
6722.2504977170201528
 20
3433.1807845663388434
 30
0.0
  0
VERTEX
  5
881
  8
0
 10
6722.2504977170192433
 20
2873.1807845663388434
 30
0.0
  0
VERTEX
  5
882
  8
0
 10
6714.2504977170192433
 20
2873.1807845663388434
 30
0.0
  0
VERTEX
  5
883
  8
0
 10
6714.2504977170210623
 20
3433.1807845663388434
 30
0.0
  0
SEQEND
  5
884
  8
0
  0
CIRCLE
  5
2CA
  8
0
 10
6718.2504977170192433
 20
2888.1807845663388434
 30
0.0
 40
2.75
  0
CIRCLE
  5
2CB
  8
0
 10
6718.2504977170192433
 20
3020.6807845663388434
 30
0.0
 40
2.75
  0
CIRCLE
  5
2CC
  8
0
 10
6718.2504977170192433
 20
3153.1807845663388434
 30
0.0
 40
2.75
  0
CIRCLE
  5
2CD
  8
0
 10
6718.2504977170192433
 20
3285.6807845663388434
 30
0.0
 40
2.75
  0
CIRCLE
  5
2CE
  8
0
 10
6718.2504977170192433
 20
3327.2807845663392072
 30
0.0
 40
2.75
  0
CIRCLE
  5
2CF
  8
0
 10
6718.2504977170192433
 20
3347.2807845663392072
 30
0.0
 40
2.75
  0
CIRCLE
  5
2D0
  8
0
 10
6718.2504977170192433
 20
3373.1807845663388434
 30
0.0
 40
2.75
  0
POLYLINE
  5
2D1
  8
0
 66
     1
 10
0.0
 20
0.0
 30
0.0
 70
     1
  0
VERTEX
  5
885
  8
0
 10
6778.4648247196910233
 20
4052.1711472569018042
 30
0.0
  0
VERTEX
  5
886
  8
0
 10
6778.4648247196910233
 20
4612.171147256902259
 30
0.0
  0
VERTEX
  5
887
  8
0
 10
6759.0648247196913871
 20
4612.171147256902259
 30
0.0
  0
VERTEX
  5
888
  8
0
 10
6759.0648247196913871
 20
4052.1711472569018042
 30
0.0
  0
SEQEND
  5
889
  8
0
  0
POLYLINE
  5
2D2
  8
0
 66
     1
 10
0.0
 20
0.0
 30
0.0
 70
     1
  0
VERTEX
  5
88A
  8
0
 10
6763.7648247196902958
 20
4052.1711472569018042
 30
0.0
  0
VERTEX
  5
88B
  8
0
 10
6763.7648247196921147
 20
4612.171147256902259
 30
0.0
  0
VERTEX
  5
88C
  8
0
 10
6771.7648247196921147
 20
4612.171147256902259
 30
0.0
  0
VERTEX
  5
88D
  8
0
 10
6771.7648247196921147
 20
4052.1711472569018042
 30
0.0
  0
SEQEND
  5
88E
  8
0
  0
CIRCLE
  5
2D3
  8
0
 10
6767.7648247196930242
 20
4597.1711472569031685
 30
0.0
 40
2.75
  0
CIRCLE
  5
2D4
  8
0
 10
6767.7648247196930242
 20
4464.671147256902259
 30
0.0
 40
2.75
  0
CIRCLE
  5
2D5
  8
0
 10
6767.7648247196930242
 20
4332.171147256902259
 30
0.0
 40
2.75
  0
CIRCLE
  5
2D6
  8
0
 10
6767.7648247196912052
 20
4199.6711472569031685
 30
0.0
 40
2.75
  0
CIRCLE
  5
2DB
  8
0
 10
6767.7648247196912052
 20
4067.1711472569018042
 30
0.0
 40
2.75
  0
POLYLINE
  5
2DC
  8
0
 66
     1
 10
0.0
 20
0.0
 30
0.0
 70
     1
  0
VERTEX
  5
88F
  8
0
 10
6744.0648247196922966
 20
4052.1711472569018042
 30
0.0
  0
VERTEX
  5
890
  8
0
 10
6744.0648247196922966
 20
4612.171147256902259
 30
0.0
  0
VERTEX
  5
891
  8
0
 10
6724.6648247196917509
 20
4612.171147256902259
 30
0.0
  0
VERTEX
  5
892
  8
0
 10
6724.6648247196917509
 20
4052.1711472569018042
 30
0.0
  0
SEQEND
  5
893
  8
0
  0
POLYLINE
  5
2DD
  8
0
 66
     1
 10
0.0
 20
0.0
 30
0.0
 70
     1
  0
VERTEX
  5
894
  8
0
 10
6729.3648247196906595
 20
4052.1711472569018042
 30
0.0
  0
VERTEX
  5
895
  8
0
 10
6729.3648247196906595
 20
4612.171147256902259
 30
0.0
  0
VERTEX
  5
896
  8
0
 10
6737.3648247196906595
 20
4612.171147256902259
 30
0.0
  0
VERTEX
  5
897
  8
0
 10
6737.3648247196906595
 20
4052.1711472569018042
 30
0.0
  0
SEQEND
  5
898
  8
0
  0
CIRCLE
  5
2DE
  8
0
 10
6733.364824719691569
 20
4597.1711472569031685
 30
0.0
 40
2.75
  0
CIRCLE
  5
2DF
  8
0
 10
6733.364824719691569
 20
4464.671147256902259
 30
0.0
 40
2.75
  0
CIRCLE
  5
2E0
  8
0
 10
6733.364824719691569
 20
4332.171147256902259
 30
0.0
 40
2.75
  0
CIRCLE
  5
2E1
  8
0
 10
6733.3648247196897501
 20
4199.6711472569031685
 30
0.0
 40
2.75
  0
CIRCLE
  5
2E2
  8
0
 10
6733.3648247196897501
 20
4067.1711472569018042
 30
0.0
 40
2.75
  0
POLYLINE
  5
2E3
  8
0
 66
     1
 10
0.0
 20
0.0
 30
0.0
 70
     1
  0
VERTEX
  5
899
  8
0
 10
6400.0648247196886587
 20
4052.1711472569018042
 30
0.0
  0
VERTEX
  5
89A
  8
0
 10
6400.0648247196913871
 20
4612.171147256902259
 30
0.0
  0
VERTEX
  5
89B
  8
0
 10
6380.6648247196908414
 20
4612.171147256902259
 30
0.0
  0
VERTEX
  5
89C
  8
0
 10
6380.6648247196908414
 20
4052.1711472569018042
 30
0.0
  0
SEQEND
  5
89D
  8
0
  0
POLYLINE
  5
2E4
  8
0
 66
     1
 10
0.0
 20
0.0
 30
0.0
 70
     1
  0
VERTEX
  5
89E
  8
0
 10
6387.3648247196906595
 20
4052.1711472569018042
 30
0.0
  0
VERTEX
  5
89F
  8
0
 10
6387.3648247196906595
 20
4612.171147256902259
 30
0.0
  0
VERTEX
  5
8A0
  8
0
 10
6395.3648247196906595
 20
4612.171147256902259
 30
0.0
  0
VERTEX
  5
8A1
  8
0
 10
6395.3648247196906595
 20
4052.1711472569018042
 30
0.0
  0
SEQEND
  5
8A2
  8
0
  0
CIRCLE
  5
2E5
  8
0
 10
6391.3648247196906595
 20
4597.1711472569031685
 30
0.0
 40
2.75
  0
CIRCLE
  5
2E6
  8
0
 10
6391.3648247196906595
 20
4464.671147256902259
 30
0.0
 40
2.75
  0
CIRCLE
  5
2E7
  8
0
 10
6391.3648247196906595
 20
4332.171147256902259
 30
0.0
 40
2.75
  0
CIRCLE
  5
2E8
  8
0
 10
6391.3648247196906595
 20
4199.6711472569031685
 30
0.0
 40
2.75
  0
CIRCLE
  5
2EC
  8
0
 10
6391.3648247196906595
 20
4067.1711472569018042
 30
0.0
 40
2.75
  0
POLYLINE
  5
2FF
  8
0
 66
     1
 10
0.0
 20
0.0
 30
0.0
 70
     1
  0
VERTEX
  5
8A3
  8
0
 10
6530.7289070610504496
 20
3571.5202389293790475
 30
0.0
  0
VERTEX
  5
8A4
  8
0
 10
6530.7289070610504496
 20
2821.5202389293790475
 30
0.0
  0
VERTEX
  5
8A5
  8
0
 10
6578.0089070610501949
 20
2821.5202389293790475
 30
0.0
  0
VERTEX
  5
8A6
  8
0
 10
6578.0089070610501949
 20
3571.5202389293790475
 30
0.0
  0
SEQEND
  5
8A7
  8
0
  0
POLYLINE
  5
300
  8
0
 66
     1
 10
0.0
 20
0.0
 30
0.0
 70
     1
  0
VERTEX
  5
8A8
  8
0
 10
6530.7289070610504496
 20
3571.5202389293790475
 30
0.0
  0
VERTEX
  5
8A9
  8
0
 10
6530.7289070610504496
 20
2821.5202389293790475
 30
0.0
  0
VERTEX
  5
8AA
  8
0
 10
6541.2289070610504496
 20
2821.5202389293790475
 30
0.0
  0
VERTEX
  5
8AB
  8
0
 10
6541.2289070610504496
 20
3571.5202389293790475
 30
0.0
  0
SEQEND
  5
8AC
  8
0
  0
POLYLINE
  5
301
  8
0
 66
     1
 10
0.0
 20
0.0
 30
0.0
 70
     1
  0
VERTEX
  5
8AD
  8
0
 10
6541.2289070610504496
 20
3571.5202389293790475
 30
0.0
  0
VERTEX
  5
8AE
  8
0
 10
6541.2289070610504496
 20
2821.5202389293790475
 30
0.0
  0
VERTEX
  5
8AF
  8
0
 10
6549.2289070610486306
 20
2821.5202389293790475
 30
0.0
  0
VERTEX
  5
8B0
  8
0
 10
6549.2289070610486306
 20
3571.5202389293790475
 30
0.0
  0
SEQEND
  5
8B1
  8
0
  0
POLYLINE
  5
302
  8
0
 66
     1
 10
0.0
 20
0.0
 30
0.0
 70
     1
  0
VERTEX
  5
8B2
  8
0
 10
6549.2289070610486306
 20
3571.5202389293790475
 30
0.0
  0
VERTEX
  5
8B3
  8
0
 10
6549.2289070610486306
 20
2821.5202389293790475
 30
0.0
  0
VERTEX
  5
8B4
  8
0
 10
6559.7289070610504496
 20
2821.5202389293790475
 30
0.0
  0
VERTEX
  5
8B5
  8
0
 10
6559.7289070610504496
 20
3571.5202389293790475
 30
0.0
  0
SEQEND
  5
8B6
  8
0
  0
CIRCLE
  5
303
  8
0
 10
6569.0089070610501949
 20
3561.5202389293790475
 30
0.0
 40
2.75
  0
CIRCLE
  5
304
  8
0
 10
6569.0089070610501949
 20
3488.5202389293790475
 30
0.0
 40
2.75
  0
CIRCLE
  5
305
  8
0
 10
6569.0089070610501949
 20
3415.5202389293790475
 30
0.0
 40
2.75
  0
CIRCLE
  5
306
  8
0
 10
6569.0089070610501949
 20
3342.520238929379957
 30
0.0
 40
2.75
  0
CIRCLE
  5
307
  8
0
 10
6569.0089070610501949
 20
3196.5202389293790475
 30
0.0
 40
2.75
  0
CIRCLE
  5
308
  8
0
 10
6569.0089070610501949
 20
3050.5202389293790475
 30
0.0
 40
2.75
  0
CIRCLE
  5
309
  8
0
 10
6569.0089070610501949
 20
2977.5202389293790475
 30
0.0
 40
2.75
  0
CIRCLE
  5
30A
  8
0
 10
6569.0089070610501949
 20
2904.5202389293790475
 30
0.0
 40
2.75
  0
CIRCLE
  5
30B
  8
0
 10
6569.0089070610501949
 20
2831.5202389293790475
 30
0.0
 40
2.75
  0
POLYLINE
  5
513
  8
0
 66
     1
 10
0.0
 20
0.0
 30
0.0
 70
     1
  0
VERTEX
  5
8BA
  8
0
 10
6468.4489070610488852
 20
3571.5202389293790475
 30
0.0
  0
VERTEX
  5
8BB
  8
0
 10
6468.4489070610488852
 20
2821.5202389293790475
 30
0.0
  0
VERTEX
  5
8BC
  8
0
 10
6515.7289070610504496
 20
2821.5202389293790475
 30
0.0
  0
VERTEX
  5
8BD
  8
0
 10
6515.7289070610504496
 20
3571.5202389293790475
 30
0.0
  0
SEQEND
  5
8BE
  8
0
  0
POLYLINE
  5
514
  8
0
 66
     1
 10
0.0
 20
0.0
 30
0.0
 70
     1
  0
VERTEX
  5
8BF
  8
0
 10
6468.4489070610488852
 20
3571.5202389293790475
 30
0.0
  0
VERTEX
  5
8C0
  8
0
 10
6468.4489070610488852
 20
2821.5202389293790475
 30
0.0
  0
VERTEX
  5
8C1
  8
0
 10
6478.9489070610497947
 20
2821.5202389293790475
 30
0.0
  0
VERTEX
  5
8C2
  8
0
 10
6478.9489070610497947
 20
3571.5202389293790475
 30
0.0
  0
SEQEND
  5
8C3
  8
0
  0
POLYLINE
  5
515
  8
0
 66
     1
 10
0.0
 20
0.0
 30
0.0
 70
     1
  0
VERTEX
  5
8C4
  8
0
 10
6478.9489070610497947
 20
3571.5202389293790475
 30
0.0
  0
VERTEX
  5
8C5
  8
0
 10
6478.9489070610497947
 20
2821.5202389293790475
 30
0.0
  0
VERTEX
  5
8C6
  8
0
 10
6486.9489070610497947
 20
2821.5202389293790475
 30
0.0
  0
VERTEX
  5
8C7
  8
0
 10
6486.9489070610497947
 20
3571.5202389293790475
 30
0.0
  0
SEQEND
  5
8C8
  8
0
  0
POLYLINE
  5
516
  8
0
 66
     1
 10
0.0
 20
0.0
 30
0.0
 70
     1
  0
VERTEX
  5
8C9
  8
0
 10
6486.9489070610497947
 20
3571.5202389293790475
 30
0.0
  0
VERTEX
  5
8CA
  8
0
 10
6486.9489070610497947
 20
2821.5202389293790475
 30
0.0
  0
VERTEX
  5
8CB
  8
0
 10
6497.4489070610497947
 20
2821.5202389293790475
 30
0.0
  0
VERTEX
  5
8CC
  8
0
 10
6497.4489070610497947
 20
3571.5202389293790475
 30
0.0
  0
SEQEND
  5
8CD
  8
0
  0
CIRCLE
  5
517
  8
0
 10
6506.7289070610504496
 20
3561.5202389293790475
 30
0.0
 40
2.75
  0
CIRCLE
  5
518
  8
0
 10
6506.7289070610504496
 20
3488.5202389293790475
 30
0.0
 40
2.75
  0
CIRCLE
  5
519
  8
0
 10
6506.7289070610504496
 20
3415.5202389293790475
 30
0.0
 40
2.75
  0
CIRCLE
  5
51A
  8
0
 10
6506.7289070610504496
 20
3342.520238929379957
 30
0.0
 40
2.75
  0
CIRCLE
  5
51B
  8
0
 10
6506.7289070610504496
 20
3196.5202389293790475
 30
0.0
 40
2.75
  0
CIRCLE
  5
51C
  8
0
 10
6506.7289070610504496
 20
3050.5202389293790475
 30
0.0
 40
2.75
  0
CIRCLE
  5
51D
  8
0
 10
6506.7289070610504496
 20
2977.5202389293790475
 30
0.0
 40
2.75
  0
CIRCLE
  5
51E
  8
0
 10
6506.7289070610504496
 20
2904.5202389293790475
 30
0.0
 40
2.75
  0
CIRCLE
  5
51F
  8
0
 10
6506.7289070610504496
 20
2831.5202389293790475
 30
0.0
 40
2.75
  0
POLYLINE
  5
521
  8
0
 66
     1
 10
0.0
 20
0.0
 30
0.0
 70
     1
  0
VERTEX
  5
8CE
  8
0
 10
6406.1689070610500494
 20
3571.5202389293790475
 30
0.0
  0
VERTEX
  5
8CF
  8
0
 10
6406.1689070610500494
 20
2821.5202389293790475
 30
0.0
  0
VERTEX
  5
8D0
  8
0
 10
6453.4489070610507042
 20
2821.5202389293790475
 30
0.0
  0
VERTEX
  5
8D1
  8
0
 10
6453.4489070610507042
 20
3571.5202389293790475
 30
0.0
  0
SEQEND
  5
8D2
  8
0
  0
POLYLINE
  5
522
  8
0
 66
     1
 10
0.0
 20
0.0
 30
0.0
 70
     1
  0
VERTEX
  5
8D3
  8
0
 10
6406.1689070610500494
 20
3571.5202389293790475
 30
0.0
  0
VERTEX
  5
8D4
  8
0
 10
6406.1689070610500494
 20
2821.5202389293790475
 30
0.0
  0
VERTEX
  5
8D5
  8
0
 10
6416.6689070610500494
 20
2821.5202389293790475
 30
0.0
  0
VERTEX
  5
8D6
  8
0
 10
6416.6689070610500494
 20
3571.5202389293790475
 30
0.0
  0
SEQEND
  5
8D7
  8
0
  0
POLYLINE
  5
523
  8
0
 66
     1
 10
0.0
 20
0.0
 30
0.0
 70
     1
  0
VERTEX
  5
8D8
  8
0
 10
6416.6689070610500494
 20
3571.5202389293790475
 30
0.0
  0
VERTEX
  5
8D9
  8
0
 10
6416.6689070610500494
 20
2821.5202389293790475
 30
0.0
  0
VERTEX
  5
8DA
  8
0
 10
6424.6689070610500494
 20
2821.5202389293790475
 30
0.0
  0
VERTEX
  5
8DB
  8
0
 10
6424.6689070610500494
 20
3571.5202389293790475
 30
0.0
  0
SEQEND
  5
8DC
  8
0
  0
POLYLINE
  5
524
  8
0
 66
     1
 10
0.0
 20
0.0
 30
0.0
 70
     1
  0
VERTEX
  5
8DD
  8
0
 10
6424.6689070610500494
 20
3571.5202389293790475
 30
0.0
  0
VERTEX
  5
8DE
  8
0
 10
6424.6689070610500494
 20
2821.5202389293790475
 30
0.0
  0
VERTEX
  5
8DF
  8
0
 10
6435.1689070610509589
 20
2821.5202389293790475
 30
0.0
  0
VERTEX
  5
8E0
  8
0
 10
6435.1689070610509589
 20
3571.5202389293790475
 30
0.0
  0
SEQEND
  5
8E1
  8
0
  0
CIRCLE
  5
525
  8
0
 10
6444.4489070610497947
 20
3561.5202389293790475
 30
0.0
 40
2.75
  0
CIRCLE
  5
526
  8
0
 10
6444.4489070610497947
 20
3488.5202389293790475
 30
0.0
 40
2.75
  0
CIRCLE
  5
527
  8
0
 10
6444.4489070610497947
 20
3415.5202389293790475
 30
0.0
 40
2.75
  0
CIRCLE
  5
528
  8
0
 10
6444.4489070610497947
 20
3342.520238929379957
 30
0.0
 40
2.75
  0
CIRCLE
  5
529
  8
0
 10
6444.4489070610497947
 20
3196.5202389293790475
 30
0.0
 40
2.75
  0
CIRCLE
  5
52A
  8
0
 10
6444.4489070610497947
 20
3050.5202389293790475
 30
0.0
 40
2.75
  0
CIRCLE
  5
52B
  8
0
 10
6444.4489070610497947
 20
2977.5202389293790475
 30
0.0
 40
2.75
  0
CIRCLE
  5
52C
  8
0
 10
6444.4489070610497947
 20
2904.5202389293790475
 30
0.0
 40
2.75
  0
CIRCLE
  5
52D
  8
0
 10
6444.4489070610497947
 20
2831.5202389293790475
 30
0.0
 40
2.75
  0
POLYLINE
  5
52F
  8
0
 66
     1
 10
0.0
 20
0.0
 30
0.0
 70
     1
  0
VERTEX
  5
8E2
  8
0
 10
6343.888907061050304
 20
3571.5202389293790475
 30
0.0
  0
VERTEX
  5
8E3
  8
0
 10
6343.888907061050304
 20
2821.5202389293790475
 30
0.0
  0
VERTEX
  5
8E4
  8
0
 10
6391.1689070610500494
 20
2821.5202389293790475
 30
0.0
  0
VERTEX
  5
8E5
  8
0
 10
6391.1689070610500494
 20
3571.5202389293790475
 30
0.0
  0
SEQEND
  5
8E6
  8
0
  0
POLYLINE
  5
530
  8
0
 66
     1
 10
0.0
 20
0.0
 30
0.0
 70
     1
  0
VERTEX
  5
8E7
  8
0
 10
6343.888907061050304
 20
3571.5202389293790475
 30
0.0
  0
VERTEX
  5
8E8
  8
0
 10
6343.888907061050304
 20
2821.5202389293790475
 30
0.0
  0
VERTEX
  5
8E9
  8
0
 10
6354.388907061050304
 20
2821.5202389293790475
 30
0.0
  0
VERTEX
  5
8EA
  8
0
 10
6354.388907061050304
 20
3571.5202389293790475
 30
0.0
  0
SEQEND
  5
8EB
  8
0
  0
POLYLINE
  5
531
  8
0
 66
     1
 10
0.0
 20
0.0
 30
0.0
 70
     1
  0
VERTEX
  5
8EC
  8
0
 10
6354.388907061050304
 20
3571.5202389293790475
 30
0.0
  0
VERTEX
  5
8ED
  8
0
 10
6354.388907061050304
 20
2821.5202389293790475
 30
0.0
  0
VERTEX
  5
8EE
  8
0
 10
6362.3889070610493945
 20
2821.5202389293790475
 30
0.0
  0
VERTEX
  5
8EF
  8
0
 10
6362.3889070610493945
 20
3571.5202389293790475
 30
0.0
  0
SEQEND
  5
8F0
  8
0
  0
POLYLINE
  5
532
  8
0
 66
     1
 10
0.0
 20
0.0
 30
0.0
 70
     1
  0
VERTEX
  5
8F1
  8
0
 10
6362.3889070610493945
 20
3571.5202389293790475
 30
0.0
  0
VERTEX
  5
8F2
  8
0
 10
6362.3889070610493945
 20
2821.5202389293790475
 30
0.0
  0
VERTEX
  5
8F3
  8
0
 10
6372.8889070610493945
 20
2821.5202389293790475
 30
0.0
  0
VERTEX
  5
8F4
  8
0
 10
6372.8889070610493945
 20
3571.5202389293790475
 30
0.0
  0
SEQEND
  5
8F5
  8
0
  0
CIRCLE
  5
533
  8
0
 10
6382.1689070610500494
 20
3561.5202389293790475
 30
0.0
 40
2.75
  0
CIRCLE
  5
534
  8
0
 10
6382.1689070610500494
 20
3488.5202389293790475
 30
0.0
 40
2.75
  0
CIRCLE
  5
535
  8
0
 10
6382.1689070610500494
 20
3415.5202389293790475
 30
0.0
 40
2.75
  0
CIRCLE
  5
536
  8
0
 10
6382.1689070610500494
 20
3342.520238929379957
 30
0.0
 40
2.75
  0
CIRCLE
  5
537
  8
0
 10
6382.1689070610500494
 20
3196.5202389293790475
 30
0.0
 40
2.75
  0
CIRCLE
  5
538
  8
0
 10
6382.1689070610500494
 20
3050.5202389293790475
 30
0.0
 40
2.75
  0
CIRCLE
  5
539
  8
0
 10
6382.1689070610500494
 20
2977.5202389293790475
 30
0.0
 40
2.75
  0
CIRCLE
  5
53A
  8
0
 10
6382.1689070610500494
 20
2904.5202389293790475
 30
0.0
 40
2.75
  0
CIRCLE
  5
53B
  8
0
 10
6382.1689070610500494
 20
2831.5202389293790475
 30
0.0
 40
2.75
  0
POLYLINE
  5
56A
  8
0
 66
     1
 10
0.0
 20
0.0
 30
0.0
 70
     1
  0
VERTEX
  5
8F6
  8
0
 10
6511.6640199099747406
 20
3599.2059785574151647
 30
0.0
  0
VERTEX
  5
8F7
  8
0
 10
6511.6640199099747406
 20
4003.7259785574137823
 30
0.0
  0
VERTEX
  5
8F8
  8
0
 10
6466.6640199099738311
 20
4003.7259785574137823
 30
0.0
  0
VERTEX
  5
8F9
  8
0
 10
6466.6640199099738311
 20
3599.2059785574151647
 30
0.0
  0
SEQEND
  5
8FA
  8
0
  0
POLYLINE
  5
56B
  8
0
 66
     1
 10
0.0
 20
0.0
 30
0.0
 70
     1
  0
VERTEX
  5
8FB
  8
0
 10
6466.6640199099738311
 20
3599.2059785574151647
 30
0.0
  0
VERTEX
  5
8FC
  8
0
 10
6466.6640199099738311
 20
4003.7259785574137823
 30
0.0
  0
VERTEX
  5
8FD
  8
0
 10
6473.6640199099747406
 20
4003.7259785574137823
 30
0.0
  0
VERTEX
  5
8FE
  8
0
 10
6473.6640199099747406
 20
3599.2059785574151647
 30
0.0
  0
SEQEND
  5
8FF
  8
0
  0
POLYLINE
  5
56C
  8
0
 66
     1
 10
0.0
 20
0.0
 30
0.0
 70
     1
  0
VERTEX
  5
900
  8
0
 10
6504.6640199099747406
 20
3599.2059785574151647
 30
0.0
  0
VERTEX
  5
901
  8
0
 10
6504.6640199099747406
 20
4003.7259785574137823
 30
0.0
  0
VERTEX
  5
902
  8
0
 10
6511.6640199099747406
 20
4003.7259785574137823
 30
0.0
  0
VERTEX
  5
903
  8
0
 10
6511.6640199099747406
 20
3599.2059785574151647
 30
0.0
  0
SEQEND
  5
904
  8
0
  0
POLYLINE
  5
56D
  8
0
 66
     1
 10
0.0
 20
0.0
 30
0.0
 70
     1
  0
VERTEX
  5
905
  8
0
 10
6479.6640199099747406
 20
3599.2059785574151647
 30
0.0
  0
VERTEX
  5
906
  8
0
 10
6479.6640199099747406
 20
4003.7259785574137823
 30
0.0
  0
VERTEX
  5
907
  8
0
 10
6498.6640199099747406
 20
4003.7259785574137823
 30
0.0
  0
VERTEX
  5
908
  8
0
 10
6498.6640199099747406
 20
3599.2059785574151647
 30
0.0
  0
SEQEND
  5
909
  8
0
  0
POLYLINE
  5
571
  8
0
 66
     1
 10
0.0
 20
0.0
 30
0.0
 70
     1
  0
VERTEX
  5
90A
  8
0
 10
6751.6640199099747406
 20
3450.0072264392169927
 30
0.0
  0
VERTEX
  5
90B
  8
0
 10
6751.6640199099747406
 20
4010.0072264392160832
 30
0.0
  0
VERTEX
  5
90C
  8
0
 10
6706.6640199099747406
 20
4010.0072264392160832
 30
0.0
  0
VERTEX
  5
90D
  8
0
 10
6706.6640199099747406
 20
3450.0072264392169927
 30
0.0
  0
SEQEND
  5
90E
  8
0
  0
POLYLINE
  5
572
  8
0
 66
     1
 10
0.0
 20
0.0
 30
0.0
 70
     1
  0
VERTEX
  5
90F
  8
0
 10
6706.6640199099747406
 20
3450.0072264392169927
 30
0.0
  0
VERTEX
  5
910
  8
0
 10
6706.6640199099747406
 20
4010.0072264392160832
 30
0.0
  0
VERTEX
  5
911
  8
0
 10
6713.6640199099738311
 20
4010.0072264392160832
 30
0.0
  0
VERTEX
  5
912
  8
0
 10
6713.6640199099738311
 20
3450.0072264392169927
 30
0.0
  0
SEQEND
  5
913
  8
0
  0
POLYLINE
  5
573
  8
0
 66
     1
 10
0.0
 20
0.0
 30
0.0
 70
     1
  0
VERTEX
  5
914
  8
0
 10
6744.6640199099747406
 20
3450.0072264392169927
 30
0.0
  0
VERTEX
  5
915
  8
0
 10
6744.6640199099747406
 20
4010.0072264392160832
 30
0.0
  0
VERTEX
  5
916
  8
0
 10
6751.6640199099747406
 20
4010.0072264392160832
 30
0.0
  0
VERTEX
  5
917
  8
0
 10
6751.6640199099747406
 20
3450.0072264392169927
 30
0.0
  0
SEQEND
  5
918
  8
0
  0
POLYLINE
  5
574
  8
0
 66
     1
 10
0.0
 20
0.0
 30
0.0
 70
     1
  0
VERTEX
  5
919
  8
0
 10
6719.6640199099738311
 20
3450.0072264392169927
 30
0.0
  0
VERTEX
  5
91A
  8
0
 10
6719.6640199099738311
 20
4010.0072264392160832
 30
0.0
  0
VERTEX
  5
91B
  8
0
 10
6738.6640199099738311
 20
4010.0072264392160832
 30
0.0
  0
VERTEX
  5
91C
  8
0
 10
6738.6640199099738311
 20
3450.0072264392169927
 30
0.0
  0
SEQEND
  5
91D
  8
0
  0
POLYLINE
  5
575
  8
0
 66
     1
 10
0.0
 20
0.0
 30
0.0
 70
     1
  0
VERTEX
  5
91E
  8
0
 10
6811.6640199099747406
 20
3450.0072264392169927
 30
0.0
  0
VERTEX
  5
91F
  8
0
 10
6811.6640199099747406
 20
4010.0072264392160832
 30
0.0
  0
VERTEX
  5
920
  8
0
 10
6766.6640199099738311
 20
4010.0072264392160832
 30
0.0
  0
VERTEX
  5
921
  8
0
 10
6766.6640199099738311
 20
3450.0072264392169927
 30
0.0
  0
SEQEND
  5
922
  8
0
  0
POLYLINE
  5
576
  8
0
 66
     1
 10
0.0
 20
0.0
 30
0.0
 70
     1
  0
VERTEX
  5
923
  8
0
 10
6766.6640199099738311
 20
3450.0072264392169927
 30
0.0
  0
VERTEX
  5
924
  8
0
 10
6766.6640199099738311
 20
4010.0072264392160832
 30
0.0
  0
VERTEX
  5
925
  8
0
 10
6773.6640199099756501
 20
4010.0072264392160832
 30
0.0
  0
VERTEX
  5
926
  8
0
 10
6773.6640199099756501
 20
3450.0072264392169927
 30
0.0
  0
SEQEND
  5
927
  8
0
  0
POLYLINE
  5
577
  8
0
 66
     1
 10
0.0
 20
0.0
 30
0.0
 70
     1
  0
VERTEX
  5
928
  8
0
 10
6804.6640199099747406
 20
3450.0072264392169927
 30
0.0
  0
VERTEX
  5
929
  8
0
 10
6804.6640199099747406
 20
4010.0072264392160832
 30
0.0
  0
VERTEX
  5
92A
  8
0
 10
6811.6640199099747406
 20
4010.0072264392160832
 30
0.0
  0
VERTEX
  5
92B
  8
0
 10
6811.6640199099747406
 20
3450.0072264392169927
 30
0.0
  0
SEQEND
  5
92C
  8
0
  0
POLYLINE
  5
578
  8
0
 66
     1
 10
0.0
 20
0.0
 30
0.0
 70
     1
  0
VERTEX
  5
92D
  8
0
 10
6779.6640199099756501
 20
3450.0072264392169927
 30
0.0
  0
VERTEX
  5
92E
  8
0
 10
6779.6640199099756501
 20
4010.0072264392160832
 30
0.0
  0
VERTEX
  5
92F
  8
0
 10
6798.6640199099747406
 20
4010.0072264392160832
 30
0.0
  0
VERTEX
  5
930
  8
0
 10
6798.6640199099747406
 20
3450.0072264392169927
 30
0.0
  0
SEQEND
  5
931
  8
0
  0
POLYLINE
  5
57C
  8
0
 66
     1
 10
0.0
 20
0.0
 30
0.0
 70
     1
  0
VERTEX
  5
932
  8
0
 10
6391.6640199099738311
 20
3599.2059785574151647
 30
0.0
  0
VERTEX
  5
933
  8
0
 10
6391.6640199099738311
 20
4024.7259785574151465
 30
0.0
  0
VERTEX
  5
934
  8
0
 10
6346.6640199099747406
 20
4024.7259785574151465
 30
0.0
  0
VERTEX
  5
935
  8
0
 10
6346.6640199099747406
 20
3599.2059785574151647
 30
0.0
  0
SEQEND
  5
936
  8
0
  0
POLYLINE
  5
57D
  8
0
 66
     1
 10
0.0
 20
0.0
 30
0.0
 70
     1
  0
VERTEX
  5
937
  8
0
 10
6346.6640199099747406
 20
3599.2059785574151647
 30
0.0
  0
VERTEX
  5
938
  8
0
 10
6346.6640199099747406
 20
4024.7259785574151465
 30
0.0
  0
VERTEX
  5
939
  8
0
 10
6353.6640199099747406
 20
4024.7259785574151465
 30
0.0
  0
VERTEX
  5
93A
  8
0
 10
6353.6640199099747406
 20
3599.2059785574151647
 30
0.0
  0
SEQEND
  5
93B
  8
0
  0
POLYLINE
  5
57E
  8
0
 66
     1
 10
0.0
 20
0.0
 30
0.0
 70
     1
  0
VERTEX
  5
93C
  8
0
 10
6384.6640199099738311
 20
3599.2059785574151647
 30
0.0
  0
VERTEX
  5
93D
  8
0
 10
6384.6640199099738311
 20
4024.7259785574151465
 30
0.0
  0
VERTEX
  5
93E
  8
0
 10
6391.6640199099738311
 20
4024.7259785574151465
 30
0.0
  0
VERTEX
  5
93F
  8
0
 10
6391.6640199099738311
 20
3599.2059785574151647
 30
0.0
  0
SEQEND
  5
940
  8
0
  0
POLYLINE
  5
57F
  8
0
 66
     1
 10
0.0
 20
0.0
 30
0.0
 70
     1
  0
VERTEX
  5
941
  8
0
 10
6359.6640199099738311
 20
3599.2059785574151647
 30
0.0
  0
VERTEX
  5
942
  8
0
 10
6359.6640199099738311
 20
4024.7259785574151465
 30
0.0
  0
VERTEX
  5
943
  8
0
 10
6378.6640199099747406
 20
4024.7259785574151465
 30
0.0
  0
VERTEX
  5
944
  8
0
 10
6378.6640199099747406
 20
3599.2059785574151647
 30
0.0
  0
SEQEND
  5
945
  8
0
  0
POLYLINE
  5
584
  8
0
 66
     1
 10
0.0
 20
0.0
 30
0.0
 70
     1
  0
VERTEX
  5
946
  8
0
 10
6709.6648247196908414
 20
4052.1711472569018042
 30
0.0
  0
VERTEX
  5
947
  8
0
 10
6709.6648247196917509
 20
4612.171147256902259
 30
0.0
  0
VERTEX
  5
948
  8
0
 10
6690.2648247196902958
 20
4612.171147256902259
 30
0.0
  0
VERTEX
  5
949
  8
0
 10
6690.2648247196902958
 20
4052.1711472569018042
 30
0.0
  0
SEQEND
  5
94A
  8
0
  0
POLYLINE
  5
585
  8
0
 66
     1
 10
0.0
 20
0.0
 30
0.0
 70
     1
  0
VERTEX
  5
94B
  8
0
 10
6694.9648247196901139
 20
4052.1711472569018042
 30
0.0
  0
VERTEX
  5
94C
  8
0
 10
6694.9648247196901139
 20
4612.171147256902259
 30
0.0
  0
VERTEX
  5
94D
  8
0
 10
6702.9648247196919328
 20
4612.171147256902259
 30
0.0
  0
VERTEX
  5
94E
  8
0
 10
6702.9648247196919328
 20
4052.1711472569018042
 30
0.0
  0
SEQEND
  5
94F
  8
0
  0
CIRCLE
  5
586
  8
0
 10
6698.9648247196910233
 20
4597.1711472569031685
 30
0.0
 40
2.75
  0
CIRCLE
  5
587
  8
0
 10
6698.9648247196910233
 20
4464.671147256902259
 30
0.0
 40
2.75
  0
CIRCLE
  5
588
  8
0
 10
6698.9648247196910233
 20
4332.171147256902259
 30
0.0
 40
2.75
  0
CIRCLE
  5
589
  8
0
 10
6698.9648247196910233
 20
4199.6711472569031685
 30
0.0
 40
2.75
  0
CIRCLE
  5
58A
  8
0
 10
6698.9648247196910233
 20
4067.1711472569018042
 30
0.0
 40
2.75
  0
POLYLINE
  5
58B
  8
0
 66
     1
 10
0.0
 20
0.0
 30
0.0
 70
     1
  0
VERTEX
  5
950
  8
0
 10
6675.2648247196902958
 20
4052.1711472569018042
 30
0.0
  0
VERTEX
  5
951
  8
0
 10
6675.2648247196912052
 20
4612.171147256902259
 30
0.0
  0
VERTEX
  5
952
  8
0
 10
6655.8648247196906595
 20
4612.171147256902259
 30
0.0
  0
VERTEX
  5
953
  8
0
 10
6655.8648247196906595
 20
4052.1711472569018042
 30
0.0
  0
SEQEND
  5
954
  8
0
  0
POLYLINE
  5
58C
  8
0
 66
     1
 10
0.0
 20
0.0
 30
0.0
 70
     1
  0
VERTEX
  5
955
  8
0
 10
6660.5648247196913871
 20
4052.1711472569018042
 30
0.0
  0
VERTEX
  5
956
  8
0
 10
6660.5648247196913871
 20
4612.171147256902259
 30
0.0
  0
VERTEX
  5
957
  8
0
 10
6668.5648247196913871
 20
4612.171147256902259
 30
0.0
  0
VERTEX
  5
958
  8
0
 10
6668.5648247196913871
 20
4052.1711472569018042
 30
0.0
  0
SEQEND
  5
959
  8
0
  0
CIRCLE
  5
58D
  8
0
 10
6664.5648247196922966
 20
4597.1711472569031685
 30
0.0
 40
2.75
  0
CIRCLE
  5
58E
  8
0
 10
6664.5648247196922966
 20
4464.671147256902259
 30
0.0
 40
2.75
  0
CIRCLE
  5
58F
  8
0
 10
6664.5648247196922966
 20
4332.171147256902259
 30
0.0
 40
2.75
  0
CIRCLE
  5
590
  8
0
 10
6664.5648247196922966
 20
4199.6711472569031685
 30
0.0
 40
2.75
  0
CIRCLE
  5
591
  8
0
 10
6664.5648247196922966
 20
4067.1711472569018042
 30
0.0
 40
2.75
  0
POLYLINE
  5
593
  8
0
 66
     1
 10
0.0
 20
0.0
 30
0.0
 70
     1
  0
VERTEX
  5
95A
  8
0
 10
6640.8648247196906595
 20
4052.1711472569018042
 30
0.0
  0
VERTEX
  5
95B
  8
0
 10
6640.8648247196906595
 20
4612.171147256902259
 30
0.0
  0
VERTEX
  5
95C
  8
0
 10
6621.4648247196910233
 20
4612.171147256902259
 30
0.0
  0
VERTEX
  5
95D
  8
0
 10
6621.4648247196910233
 20
4052.1711472569018042
 30
0.0
  0
SEQEND
  5
95E
  8
0
  0
POLYLINE
  5
594
  8
0
 66
     1
 10
0.0
 20
0.0
 30
0.0
 70
     1
  0
VERTEX
  5
95F
  8
0
 10
6626.1648247196908414
 20
4052.1711472569018042
 30
0.0
  0
VERTEX
  5
960
  8
0
 10
6626.1648247196908414
 20
4612.171147256902259
 30
0.0
  0
VERTEX
  5
961
  8
0
 10
6634.1648247196908414
 20
4612.171147256902259
 30
0.0
  0
VERTEX
  5
962
  8
0
 10
6634.1648247196908414
 20
4052.1711472569018042
 30
0.0
  0
SEQEND
  5
963
  8
0
  0
CIRCLE
  5
595
  8
0
 10
6630.1648247196917509
 20
4597.1711472569031685
 30
0.0
 40
2.75
  0
CIRCLE
  5
596
  8
0
 10
6630.1648247196917509
 20
4464.671147256902259
 30
0.0
 40
2.75
  0
CIRCLE
  5
597
  8
0
 10
6630.1648247196917509
 20
4332.171147256902259
 30
0.0
 40
2.75
  0
CIRCLE
  5
598
  8
0
 10
6630.1648247196908414
 20
4199.6711472569031685
 30
0.0
 40
2.75
  0
CIRCLE
  5
599
  8
0
 10
6630.1648247196908414
 20
4067.1711472569018042
 30
0.0
 40
2.75
  0
POLYLINE
  5
59A
  8
0
 66
     1
 10
0.0
 20
0.0
 30
0.0
 70
     1
  0
VERTEX
  5
964
  8
0
 10
6606.4648247196910233
 20
4052.1711472569018042
 30
0.0
  0
VERTEX
  5
965
  8
0
 10
6606.4648247196910233
 20
4612.171147256902259
 30
0.0
  0
VERTEX
  5
966
  8
0
 10
6587.0648247196913871
 20
4612.171147256902259
 30
0.0
  0
VERTEX
  5
967
  8
0
 10
6587.0648247196913871
 20
4052.1711472569018042
 30
0.0
  0
SEQEND
  5
968
  8
0
  0
POLYLINE
  5
59B
  8
0
 66
     1
 10
0.0
 20
0.0
 30
0.0
 70
     1
  0
VERTEX
  5
969
  8
0
 10
6591.7648247196912052
 20
4052.1711472569018042
 30
0.0
  0
VERTEX
  5
96A
  8
0
 10
6591.7648247196912052
 20
4612.171147256902259
 30
0.0
  0
VERTEX
  5
96B
  8
0
 10
6599.7648247196912052
 20
4612.171147256902259
 30
0.0
  0
VERTEX
  5
96C
  8
0
 10
6599.7648247196912052
 20
4052.1711472569018042
 30
0.0
  0
SEQEND
  5
96D
  8
0
  0
CIRCLE
  5
59C
  8
0
 10
6595.7648247196912052
 20
4597.1711472569031685
 30
0.0
 40
2.75
  0
CIRCLE
  5
59D
  8
0
 10
6595.7648247196912052
 20
4464.671147256902259
 30
0.0
 40
2.75
  0
CIRCLE
  5
59E
  8
0
 10
6595.7648247196912052
 20
4332.171147256902259
 30
0.0
 40
2.75
  0
CIRCLE
  5
59F
  8
0
 10
6595.7648247196902958
 20
4199.6711472569031685
 30
0.0
 40
2.75
  0
CIRCLE
  5
5A0
  8
0
 10
6595.7648247196902958
 20
4067.1711472569018042
 30
0.0
 40
2.75
  0
POLYLINE
  5
5A2
  8
0
 66
     1
 10
0.0
 20
0.0
 30
0.0
 70
     1
  0
VERTEX
  5
96E
  8
0
 10
6572.0648247196895682
 20
4052.1711472569018042
 30
0.0
  0
VERTEX
  5
96F
  8
0
 10
6572.0648247196922966
 20
4612.171147256902259
 30
0.0
  0
VERTEX
  5
970
  8
0
 10
6552.664824719689932
 20
4612.171147256902259
 30
0.0
  0
VERTEX
  5
971
  8
0
 10
6552.664824719689932
 20
4052.1711472569018042
 30
0.0
  0
SEQEND
  5
972
  8
0
  0
POLYLINE
  5
5A3
  8
0
 66
     1
 10
0.0
 20
0.0
 30
0.0
 70
     1
  0
VERTEX
  5
973
  8
0
 10
6557.3648247196906595
 20
4052.1711472569018042
 30
0.0
  0
VERTEX
  5
974
  8
0
 10
6557.3648247196906595
 20
4612.171147256902259
 30
0.0
  0
VERTEX
  5
975
  8
0
 10
6565.3648247196906595
 20
4612.171147256902259
 30
0.0
  0
VERTEX
  5
976
  8
0
 10
6565.3648247196906595
 20
4052.1711472569018042
 30
0.0
  0
SEQEND
  5
977
  8
0
  0
CIRCLE
  5
5A4
  8
0
 10
6561.3648247196897501
 20
4597.1711472569031685
 30
0.0
 40
2.75
  0
CIRCLE
  5
5A5
  8
0
 10
6561.3648247196897501
 20
4464.671147256902259
 30
0.0
 40
2.75
  0
CIRCLE
  5
5A6
  8
0
 10
6561.3648247196897501
 20
4332.171147256902259
 30
0.0
 40
2.75
  0
CIRCLE
  5
5A7
  8
0
 10
6561.3648247196897501
 20
4199.6711472569031685
 30
0.0
 40
2.75
  0
CIRCLE
  5
5A8
  8
0
 10
6561.3648247196897501
 20
4067.1711472569018042
 30
0.0
 40
2.75
  0
POLYLINE
  5
5A9
  8
0
 66
     1
 10
0.0
 20
0.0
 30
0.0
 70
     1
  0
VERTEX
  5
978
  8
0
 10
6537.664824719689932
 20
4052.1711472569018042
 30
0.0
  0
VERTEX
  5
979
  8
0
 10
6537.6648247196908414
 20
4612.171147256902259
 30
0.0
  0
VERTEX
  5
97A
  8
0
 10
6518.2648247196912052
 20
4612.171147256902259
 30
0.0
  0
VERTEX
  5
97B
  8
0
 10
6518.2648247196912052
 20
4052.1711472569018042
 30
0.0
  0
SEQEND
  5
97C
  8
0
  0
POLYLINE
  5
5AA
  8
0
 66
     1
 10
0.0
 20
0.0
 30
0.0
 70
     1
  0
VERTEX
  5
97D
  8
0
 10
6522.9648247196901139
 20
4052.1711472569018042
 30
0.0
  0
VERTEX
  5
97E
  8
0
 10
6522.9648247196901139
 20
4612.171147256902259
 30
0.0
  0
VERTEX
  5
97F
  8
0
 10
6530.9648247196919328
 20
4612.171147256902259
 30
0.0
  0
VERTEX
  5
980
  8
0
 10
6530.9648247196919328
 20
4052.1711472569018042
 30
0.0
  0
SEQEND
  5
981
  8
0
  0
CIRCLE
  5
5AB
  8
0
 10
6526.9648247196910233
 20
4597.1711472569031685
 30
0.0
 40
2.75
  0
CIRCLE
  5
5AC
  8
0
 10
6526.9648247196910233
 20
4464.671147256902259
 30
0.0
 40
2.75
  0
CIRCLE
  5
5AD
  8
0
 10
6526.9648247196910233
 20
4332.171147256902259
 30
0.0
 40
2.75
  0
CIRCLE
  5
5AE
  8
0
 10
6526.9648247196910233
 20
4199.6711472569031685
 30
0.0
 40
2.75
  0
CIRCLE
  5
5AF
  8
0
 10
6526.9648247196910233
 20
4067.1711472569018042
 30
0.0
 40
2.75
  0
POLYLINE
  5
5B2
  8
0
 66
     1
 10
0.0
 20
0.0
 30
0.0
 70
     1
  0
VERTEX
  5
982
  8
0
 10
6503.2648247196902958
 20
4052.1711472569018042
 30
0.0
  0
VERTEX
  5
983
  8
0
 10
6503.2648247196902958
 20
4612.171147256902259
 30
0.0
  0
VERTEX
  5
984
  8
0
 10
6483.864824719691569
 20
4612.171147256902259
 30
0.0
  0
VERTEX
  5
985
  8
0
 10
6483.864824719691569
 20
4052.1711472569018042
 30
0.0
  0
SEQEND
  5
986
  8
0
  0
POLYLINE
  5
5B3
  8
0
 66
     1
 10
0.0
 20
0.0
 30
0.0
 70
     1
  0
VERTEX
  5
987
  8
0
 10
6488.5648247196913871
 20
4052.1711472569018042
 30
0.0
  0
VERTEX
  5
988
  8
0
 10
6488.5648247196913871
 20
4612.171147256902259
 30
0.0
  0
VERTEX
  5
989
  8
0
 10
6496.5648247196895682
 20
4612.171147256902259
 30
0.0
  0
VERTEX
  5
98A
  8
0
 10
6496.5648247196895682
 20
4052.1711472569018042
 30
0.0
  0
SEQEND
  5
98B
  8
0
  0
CIRCLE
  5
5B4
  8
0
 10
6492.5648247196922966
 20
4597.1711472569031685
 30
0.0
 40
2.75
  0
CIRCLE
  5
5B5
  8
0
 10
6492.5648247196922966
 20
4464.671147256902259
 30
0.0
 40
2.75
  0
CIRCLE
  5
5B6
  8
0
 10
6492.5648247196922966
 20
4332.171147256902259
 30
0.0
 40
2.75
  0
CIRCLE
  5
5B7
  8
0
 10
6492.5648247196895682
 20
4199.6711472569031685
 30
0.0
 40
2.75
  0
CIRCLE
  5
5B8
  8
0
 10
6492.5648247196895682
 20
4067.1711472569018042
 30
0.0
 40
2.75
  0
POLYLINE
  5
5B9
  8
0
 66
     1
 10
0.0
 20
0.0
 30
0.0
 70
     1
  0
VERTEX
  5
98C
  8
0
 10
6468.8648247196906595
 20
4052.1711472569018042
 30
0.0
  0
VERTEX
  5
98D
  8
0
 10
6468.8648247196906595
 20
4612.171147256902259
 30
0.0
  0
VERTEX
  5
98E
  8
0
 10
6449.4648247196901139
 20
4612.171147256902259
 30
0.0
  0
VERTEX
  5
98F
  8
0
 10
6449.4648247196901139
 20
4052.1711472569018042
 30
0.0
  0
SEQEND
  5
990
  8
0
  0
POLYLINE
  5
5BA
  8
0
 66
     1
 10
0.0
 20
0.0
 30
0.0
 70
     1
  0
VERTEX
  5
991
  8
0
 10
6454.164824719689932
 20
4052.1711472569018042
 30
0.0
  0
VERTEX
  5
992
  8
0
 10
6454.164824719689932
 20
4612.171147256902259
 30
0.0
  0
VERTEX
  5
993
  8
0
 10
6462.1648247196917509
 20
4612.171147256902259
 30
0.0
  0
VERTEX
  5
994
  8
0
 10
6462.164824719689932
 20
4052.1711472569018042
 30
0.0
  0
SEQEND
  5
995
  8
0
  0
CIRCLE
  5
5BB
  8
0
 10
6458.1648247196908414
 20
4597.1711472569031685
 30
0.0
 40
2.75
  0
CIRCLE
  5
5BC
  8
0
 10
6458.1648247196908414
 20
4464.671147256902259
 30
0.0
 40
2.75
  0
CIRCLE
  5
5BD
  8
0
 10
6458.1648247196908414
 20
4332.171147256902259
 30
0.0
 40
2.75
  0
CIRCLE
  5
5BE
  8
0
 10
6458.1648247196890225
 20
4199.6711472569031685
 30
0.0
 40
2.75
  0
CIRCLE
  5
5BF
  8
0
 10
6458.1648247196890225
 20
4067.1711472569018042
 30
0.0
 40
2.75
  0
POLYLINE
  5
5C2
  8
0
 66
     1
 10
0.0
 20
0.0
 30
0.0
 70
     1
  0
VERTEX
  5
996
  8
0
 10
6434.4648247196901139
 20
4052.1711472569018042
 30
0.0
  0
VERTEX
  5
997
  8
0
 10
6434.4648247196910233
 20
4612.171147256902259
 30
0.0
  0
VERTEX
  5
998
  8
0
 10
6415.0648247196913871
 20
4612.171147256902259
 30
0.0
  0
VERTEX
  5
999
  8
0
 10
6415.0648247196886587
 20
4052.1711472569018042
 30
0.0
  0
SEQEND
  5
99A
  8
0
  0
POLYLINE
  5
5C3
  8
0
 66
     1
 10
0.0
 20
0.0
 30
0.0
 70
     1
  0
VERTEX
  5
99B
  8
0
 10
6421.7648247196912052
 20
4052.1711472569018042
 30
0.0
  0
VERTEX
  5
99C
  8
0
 10
6421.7648247196912052
 20
4612.171147256902259
 30
0.0
  0
VERTEX
  5
99D
  8
0
 10
6429.7648247196902958
 20
4612.171147256902259
 30
0.0
  0
VERTEX
  5
99E
  8
0
 10
6429.7648247196902958
 20
4052.1711472569018042
 30
0.0
  0
SEQEND
  5
99F
  8
0
  0
CIRCLE
  5
5C4
  8
0
 10
6425.7648247196893863
 20
4597.1711472569031685
 30
0.0
 40
2.75
  0
CIRCLE
  5
5C5
  8
0
 10
6425.7648247196893863
 20
4464.671147256902259
 30
0.0
 40
2.75
  0
CIRCLE
  5
5C6
  8
0
 10
6425.7648247196893863
 20
4332.171147256902259
 30
0.0
 40
2.75
  0
CIRCLE
  5
5C7
  8
0
 10
6425.7648247196893863
 20
4199.6711472569031685
 30
0.0
 40
2.75
  0
CIRCLE
  5
5C8
  8
0
 10
6425.7648247196893863
 20
4067.1711472569018042
 30
0.0
 40
2.75
  0
POLYLINE
  5
5CD
  8
0
 66
     1
 10
0.0
 20
0.0
 30
0.0
 70
     1
  0
VERTEX
  5
9A0
  8
0
 10
6673.1504977170206985
 20
3433.1807845663388434
 30
0.0
  0
VERTEX
  5
9A1
  8
0
 10
6673.1504977170206985
 20
2873.1807845663388434
 30
0.0
  0
VERTEX
  5
9A2
  8
0
 10
6692.5504977170212442
 20
2873.1807845663388434
 30
0.0
  0
VERTEX
  5
9A3
  8
0
 10
6692.5504977170212442
 20
3433.1807845663388434
 30
0.0
  0
SEQEND
  5
9A4
  8
0
  0
POLYLINE
  5
5CE
  8
0
 66
     1
 10
0.0
 20
0.0
 30
0.0
 70
     1
  0
VERTEX
  5
9A5
  8
0
 10
6687.8504977170186976
 20
3433.1807845663388434
 30
0.0
  0
VERTEX
  5
9A6
  8
0
 10
6687.8504977170186976
 20
2873.1807845663388434
 30
0.0
  0
VERTEX
  5
9A7
  8
0
 10
6679.8504977170186976
 20
2873.1807845663388434
 30
0.0
  0
VERTEX
  5
9A8
  8
0
 10
6679.8504977170186976
 20
3433.1807845663388434
 30
0.0
  0
SEQEND
  5
9A9
  8
0
  0
CIRCLE
  5
5CF
  8
0
 10
6683.8504977170196071
 20
2888.1807845663388434
 30
0.0
 40
2.75
  0
CIRCLE
  5
5D0
  8
0
 10
6683.8504977170196071
 20
3020.6807845663388434
 30
0.0
 40
2.75
  0
CIRCLE
  5
5D1
  8
0
 10
6683.8504977170196071
 20
3153.1807845663388434
 30
0.0
 40
2.75
  0
CIRCLE
  5
5D2
  8
0
 10
6683.8504977170196071
 20
3285.6807845663388434
 30
0.0
 40
2.75
  0
CIRCLE
  5
5D3
  8
0
 10
6683.8504977170196071
 20
3327.2807845663392072
 30
0.0
 40
2.75
  0
CIRCLE
  5
5D4
  8
0
 10
6683.8504977170196071
 20
3347.2807845663392072
 30
0.0
 40
2.75
  0
CIRCLE
  5
5D5
  8
0
 10
6683.8504977170196071
 20
3373.1807845663388434
 30
0.0
 40
2.75
  0
POLYLINE
  5
5D8
  8
0
 66
     1
 10
0.0
 20
0.0
 30
0.0
 70
     1
  0
VERTEX
  5
9AA
  8
0
 10
6604.3504977170196071
 20
3433.1807845663388434
 30
0.0
  0
VERTEX
  5
9AB
  8
0
 10
6604.3504977170196071
 20
2873.1807845663388434
 30
0.0
  0
VERTEX
  5
9AC
  8
0
 10
6623.7504977170183338
 20
2873.1807845663388434
 30
0.0
  0
VERTEX
  5
9AD
  8
0
 10
6623.7504977170201528
 20
3433.1807845663388434
 30
0.0
  0
SEQEND
  5
9AE
  8
0
  0
POLYLINE
  5
5D9
  8
0
 66
     1
 10
0.0
 20
0.0
 30
0.0
 70
     1
  0
VERTEX
  5
9AF
  8
0
 10
6617.0504977170212442
 20
3433.1807845663388434
 30
0.0
  0
VERTEX
  5
9B0
  8
0
 10
6617.0504977170203347
 20
2873.1807845663388434
 30
0.0
  0
VERTEX
  5
9B1
  8
0
 10
6609.0504977170203347
 20
2873.1807845663388434
 30
0.0
  0
VERTEX
  5
9B2
  8
0
 10
6609.0504977170203347
 20
3433.1807845663388434
 30
0.0
  0
SEQEND
  5
9B3
  8
0
  0
CIRCLE
  5
5DA
  8
0
 10
6613.0504977170194252
 20
2888.1807845663388434
 30
0.0
 40
2.75
  0
CIRCLE
  5
5DB
  8
0
 10
6613.0504977170194252
 20
3020.6807845663388434
 30
0.0
 40
2.75
  0
CIRCLE
  5
5DC
  8
0
 10
6613.0504977170194252
 20
3153.1807845663388434
 30
0.0
 40
2.75
  0
CIRCLE
  5
5DD
  8
0
 10
6613.0504977170203347
 20
3285.6807845663388434
 30
0.0
 40
2.75
  0
CIRCLE
  5
5DE
  8
0
 10
6613.0504977170203347
 20
3327.2807845663392072
 30
0.0
 40
2.75
  0
CIRCLE
  5
5DF
  8
0
 10
6613.0504977170203347
 20
3347.2807845663392072
 30
0.0
 40
2.75
  0
CIRCLE
  5
5E0
  8
0
 10
6613.0504977170203347
 20
3373.1807845663388434
 30
0.0
 40
2.75
  0
POLYLINE
  5
5E2
  8
0
 66
     1
 10
0.0
 20
0.0
 30
0.0
 70
     1
  0
VERTEX
  5
9B4
  8
0
 10
6370.8155090649415797
 20
4622.2882380244127489
 30
0.0
  0
VERTEX
  5
9B5
  8
0
 10
6789.875462127706669
 20
4622.2882380244127489
 30
0.0
  0
VERTEX
  5
9B6
  8
0
 10
6789.875462127706669
 20
4041.933280816468141
 30
0.0
  0
VERTEX
  5
9B7
  8
0
 10
6370.8155090649415797
 20
4041.933280816468141
 30
0.0
  0
SEQEND
  5
9B8
  8
0
  0
POLYLINE
  5
5E3
  8
0
 66
     1
 10
0.0
 20
0.0
 30
0.0
 70
     1
  0
VERTEX
  5
9B9
  8
0
 10
6593.6640199099738311
 20
3439.4458153790951656
 30
0.0
  0
VERTEX
  5
9BA
  8
0
 10
6732.2153636813418416
 20
3439.4458153790951656
 30
0.0
  0
VERTEX
  5
9BB
  8
0
 10
6732.2153636813418416
 20
2869.1624525662177803
 30
0.0
  0
VERTEX
  5
9BC
  8
0
 10
6593.6640199099738311
 20
2869.1624525662177803
 30
0.0
  0
SEQEND
  5
9BD
  8
0
  0
POLYLINE
  5
5E4
  8
0
 66
     1
 10
0.0
 20
0.0
 30
0.0
 70
     1
  0
VERTEX
  5
9BE
  8
0
 10
6340.1248149654602457
 20
3574.8883182396948541
 30
0.0
  0
VERTEX
  5
9BF
  8
0
 10
6582.0998788414535738
 20
3574.8883182396948541
 30
0.0
  0
VERTEX
  5
9C0
  8
0
 10
6582.0998788414535738
 20
2814.5260366063830588
 30
0.0
  0
VERTEX
  5
9C1
  8
0
 10
6340.1248149654602457
 20
2814.5260366063830588
 30
0.0
  0
SEQEND
  5
9C2
  8
0
  0
ENDSEC
  0
EOF
