  0
SECTION
  2
HEADER
  9
$ACADVER
  1
AC1009
  9
$INSBASE
 10
0.0
 20
0.0
 30
0.0
  9
$EXTMIN
 10
2186.6572442134488483
 20
1602.1509264501230518
 30
0.0
  9
$EXTMAX
 10
3614.8408327315410133
 20
1799.3169980392460729
 30
0.0
  9
$LIMMIN
 10
0.0
 20
0.0
  9
$LIMMAX
 10
420.0
 20
297.0
  9
$ORTHOMODE
 70
     1
  9
$REGENMODE
 70
     1
  9
$FILLMODE
 70
     1
  9
$QTEXTMODE
 70
     0
  9
$MIRRTEXT
 70
     0
  9
$DRAGMODE
 70
     2
  9
$LTSCALE
 40
1.0
  9
$OSMODE
 70
   951
  9
$ATTMODE
 70
     1
  9
$TEXTSIZE
 40
2.5
  9
$TRACEWID
 40
1.0
  9
$TEXTSTYLE
  7
STANDARD
  9
$CLAYER
  8
0
  9
$CELTYPE
  6
BYLAYER
  9
$CECOLOR
 62
   256
  9
$DIMSCALE
 40
1.0
  9
$DIMASZ
 40
2.5
  9
$DIMEXO
 40
0.625
  9
$DIMDLI
 40
3.75
  9
$DIMRND
 40
0.0
  9
$DIMDLE
 40
0.0
  9
$DIMEXE
 40
1.25
  9
$DIMTP
 40
0.0
  9
$DIMTM
 40
0.0
  9
$DIMTXT
 40
2.5
  9
$DIMCEN
 40
2.5
  9
$DIMTSZ
 40
0.0
  9
$DIMTOL
 70
     0
  9
$DIMLIM
 70
     0
  9
$DIMTIH
 70
     0
  9
$DIMTOH
 70
     0
  9
$DIMSE1
 70
     0
  9
$DIMSE2
 70
     0
  9
$DIMTAD
 70
     1
  9
$DIMZIN
 70
     8
  9
$DIMBLK
  1

  9
$DIMASO
 70
     1
  9
$DIMSHO
 70
     1
  9
$DIMPOST
  1

  9
$DIMAPOST
  1

  9
$DIMALT
 70
     0
  9
$DIMALTD
 70
     3
  9
$DIMALTF
 40
0.03937007874016
  9
$DIMLFAC
 40
1.0
  9
$DIMTOFL
 70
     1
  9
$DIMTVP
 40
0.0
  9
$DIMTIX
 70
     0
  9
$DIMSOXD
 70
     0
  9
$DIMSAH
 70
     0
  9
$DIMBLK1
  1

  9
$DIMBLK2
  1

  9
$DIMSTYLE
  2
ISO-25
  9
$DIMCLRD
 70
     0
  9
$DIMCLRE
 70
     0
  9
$DIMCLRT
 70
     0
  9
$DIMTFAC
 40
1.0
  9
$DIMGAP
 40
0.625
  9
$LUNITS
 70
     2
  9
$LUPREC
 70
     4
  9
$SKETCHINC
 40
1.0
  9
$FILLETRAD
 40
0.0
  9
$AUNITS
 70
     0
  9
$AUPREC
 70
     0
  9
$MENU
  1
.
  9
$ELEVATION
 40
0.0
  9
$PELEVATION
 40
0.0
  9
$THICKNESS
 40
0.0
  9
$LIMCHECK
 70
     0
  9
$BLIPMODE
 70
     0
  9
$CHAMFERA
 40
0.0
  9
$CHAMFERB
 40
0.0
  9
$SKPOLY
 70
     0
  9
$TDCREATE
 40
2459901.3650694452226162
  9
$TDUPDATE
 40
2459901.710266204085201
  9
$TDINDWG
 40
0.3451967593
  9
$TDUSRTIMER
 40
0.3451967593
  9
$USRTIMER
 70
     1
  9
$ANGBASE
 50
0.0
  9
$ANGDIR
 70
     0
  9
$PDMODE
 70
     0
  9
$PDSIZE
 40
0.0
  9
$PLINEWID
 40
0.0
  9
$COORDS
 70
     1
  9
$SPLFRAME
 70
     0
  9
$SPLINETYPE
 70
     6
  9
$SPLINESEGS
 70
     8
  9
$ATTDIA
 70
     1
  9
$ATTREQ
 70
     1
  9
$HANDLING
 70
     1
  9
$HANDSEED
  5
C27
  9
$SURFTAB1
 70
     6
  9
$SURFTAB2
 70
     6
  9
$SURFTYPE
 70
     6
  9
$SURFU
 70
     6
  9
$SURFV
 70
     6
  9
$UCSNAME
  2

  9
$UCSORG
 10
0.0
 20
0.0
 30
0.0
  9
$UCSXDIR
 10
1.0
 20
0.0
 30
0.0
  9
$UCSYDIR
 10
0.0
 20
1.0
 30
0.0
  9
$PUCSNAME
  2

  9
$PUCSORG
 10
0.0
 20
0.0
 30
0.0
  9
$PUCSXDIR
 10
1.0
 20
0.0
 30
0.0
  9
$PUCSYDIR
 10
0.0
 20
1.0
 30
0.0
  9
$USERI1
 70
     0
  9
$USERI2
 70
     0
  9
$USERI3
 70
     0
  9
$USERI4
 70
     0
  9
$USERI5
 70
     0
  9
$USERR1
 40
0.0
  9
$USERR2
 40
0.0
  9
$USERR3
 40
0.0
  9
$USERR4
 40
0.0
  9
$USERR5
 40
0.0
  9
$WORLDVIEW
 70
     1
  9
$SHADEDGE
 70
     3
  9
$SHADEDIF
 70
    70
  9
$TILEMODE
 70
     1
  9
$MAXACTVP
 70
    64
  9
$PLIMCHECK
 70
     0
  9
$PEXTMIN
 10
0.0
 20
0.0
 30
0.0
  9
$PEXTMAX
 10
0.0
 20
0.0
 30
0.0
  9
$PLIMMIN
 10
0.0
 20
0.0
  9
$PLIMMAX
 10
12.0
 20
9.0
  9
$UNITMODE
 70
     0
  9
$VISRETAIN
 70
     1
  9
$PLINEGEN
 70
     0
  9
$PSLTSCALE
 70
     1
  0
ENDSEC
  0
SECTION
  2
TABLES
  0
TABLE
  2
VPORT
 70
     1
  0
VPORT
  2
*ACTIVE
 70
     0
 10
0.0
 20
0.0
 11
1.0
 21
1.0
 12
2746.1982455630341065
 22
1599.8795368103060355
 13
0.0
 23
0.0
 14
10.0
 24
10.0
 15
10.0
 25
10.0
 16
0.0
 26
0.0
 36
1.0
 17
0.0
 27
0.0
 37
0.0
 40
708.2589320568698668
 41
2.3047158403869399
 42
50.0
 43
0.0
 44
0.0
 50
0.0
 51
0.0
 71
     0
 72
  1000
 73
     1
 74
     3
 75
     0
 76
     1
 77
     0
 78
     0
  0
ENDTAB
  0
TABLE
  2
LTYPE
 70
     2
  0
LTYPE
  2
CONTINUOUS
 70
     0
  3
Solid line
 72
    65
 73
     0
 40
0.0
  0
ENDTAB
  0
TABLE
  2
LAYER
 70
     2
  0
LAYER
  2
0
 70
     0
 62
     7
  6
CONTINUOUS
  0
LAYER
  2
DEFPOINTS
 70
     0
 62
     7
  6
CONTINUOUS
  0
ENDTAB
  0
TABLE
  2
STYLE
 70
     2
  0
STYLE
  2
STANDARD
 70
     0
 40
0.0
 41
1.0
 50
0.0
 71
     0
 42
2.5
  3
txt
  4

  0
STYLE
  2
ANNOTATIVE
 70
     0
 40
0.0
 41
1.0
 50
0.0
 71
     0
 42
2.5
  3
txt
  4

  0
ENDTAB
  0
TABLE
  2
VIEW
 70
     0
  0
ENDTAB
  0
TABLE
  2
UCS
 70
     0
  0
ENDTAB
  0
TABLE
  2
APPID
 70
     9
  0
APPID
  2
ACAD
 70
     0
  0
APPID
  2
ACAD_PSEXT
 70
     0
  0
APPID
  2
ACADANNOPO
 70
     0
  0
APPID
  2
ACADANNOTATIVE
 70
     0
  0
APPID
  2
ACAD_DSTYLE_DIMJAG
 70
     0
  0
APPID
  2
ACAD_DSTYLE_DIMTALN
 70
     0
  0
APPID
  2
ACAD_MLEADERVER
 70
     0
  0
APPID
  2
ACAD_NAV_VCDISPLAY
 70
     0
  0
APPID
  2
ACAD_EXEMPT_FROM_CAD_STANDARDS
 70
     0
  0
ENDTAB
  0
TABLE
  2
DIMSTYLE
 70
     4
  0
DIMSTYLE
  2
STANDARD
 70
     0
  3

  4

  5

  6

  7

 40
1.0
 41
0.18
 42
0.0625
 43
0.38
 44
0.18
 45
0.0
 46
0.0
 47
0.0
 48
0.0
140
0.18
141
0.09
142
0.0
143
25.3999999999999986
144
1.0
145
0.0
146
1.0
147
0.09
 71
     0
 72
     0
 73
     1
 74
     1
 75
     0
 76
     0
 77
     0
 78
     0
170
     0
171
     2
172
     0
173
     0
174
     0
175
     0
176
     0
177
     0
178
     0
  0
DIMSTYLE
  2
ANNOTATIVE
 70
     0
  3

  4

  5

  6

  7

 40
0.0
 41
2.5
 42
0.625
 43
3.75
 44
1.25
 45
0.0
 46
0.0
 47
0.0
 48
0.0
140
2.5
141
2.5
142
0.0
143
0.03937007874016
144
1.0
145
0.0
146
1.0
147
0.625
 71
     0
 72
     0
 73
     0
 74
     0
 75
     0
 76
     0
 77
     1
 78
     8
170
     0
171
     3
172
     1
173
     0
174
     0
175
     0
176
     0
177
     0
178
     0
  0
DIMSTYLE
  2
ISO-25
 70
     0
  3

  4

  5

  6

  7

 40
1.0
 41
2.5
 42
0.625
 43
3.75
 44
1.25
 45
0.0
 46
0.0
 47
0.0
 48
0.0
140
2.5
141
2.5
142
0.0
143
0.03937007874016
144
1.0
145
0.0
146
1.0
147
0.625
 71
     0
 72
     0
 73
     0
 74
     0
 75
     0
 76
     0
 77
     1
 78
     8
170
     0
171
     3
172
     1
173
     0
174
     0
175
     0
176
     0
177
     0
178
     0
  0
ENDTAB
  0
ENDSEC
  0
SECTION
  2
BLOCKS
  0
BLOCK
  8
0
  2
$MODEL_SPACE
 70
     0
 10
0.0
 20
0.0
 30
0.0
  3
$MODEL_SPACE
  1

  0
ENDBLK
  5
21
  8
0
  0
BLOCK
 67
     1
  8
0
  2
$PAPER_SPACE
 70
     0
 10
0.0
 20
0.0
 30
0.0
  3
$PAPER_SPACE
  1

  0
ENDBLK
  5
D5
 67
     1
  8
0
  0
BLOCK
  8
0
  2
*D3
 70
     1
 10
0.0
 20
0.0
 30
0.0
  3
*D3
  1

  0
LINE
  5
9D5
  8
0
 62
     0
 10
2191.177870918877943
 20
1732.7759264501230518
 30
0.0
 11
2191.177870918877943
 21
1796.2857906722611006
 31
0.0
  0
LINE
  5
9D6
  8
0
 62
     0
 10
3613.836512420777126
 20
1732.7759264501230518
 30
0.0
 11
3613.836512420777126
 21
1796.2857906722611006
 31
0.0
  0
LINE
  5
9D7
  8
0
 62
     0
 10
2193.677870918877943
 20
1795.0357906722611006
 30
0.0
 11
3611.336512420777126
 21
1795.0357906722611006
 31
0.0
  0
SOLID
  5
9D8
  8
0
 62
     0
 10
2193.677870918877943
 20
1795.4524573389280704
 30
0.0
 11
2193.677870918877943
 21
1794.6191240055939033
 31
0.0
 12
2191.177870918877943
 22
1795.0357906722611006
 32
0.0
 13
2191.177870918877943
 23
1795.0357906722611006
 33
0.0
  0
SOLID
  5
9D9
  8
0
 62
     0
 10
3611.336512420777126
 20
1795.4524573389280704
 30
0.0
 11
3611.336512420777126
 21
1794.6191240055939033
 31
0.0
 12
3613.836512420777126
 22
1795.0357906722611006
 32
0.0
 13
3613.836512420777126
 23
1795.0357906722611006
 33
0.0
  0
INSERT
  5
9DA
  8
0
  2
*U4
 10
0.0
 20
0.0
 30
0.0
  0
POINT
  5
9DB
  8
DEFPOINTS
 62
     0
 10
2191.177870918877943
 20
1732.150926450121915
 30
0.0
  0
POINT
  5
9DC
  8
DEFPOINTS
 62
     0
 10
3613.836512420777126
 20
1732.150926450121915
 30
0.0
  0
POINT
  5
9DD
  8
DEFPOINTS
 62
     0
 10
3613.836512420777126
 20
1795.0357906722611006
 30
0.0
  0
ENDBLK
  5
9CA
  8
0
  0
BLOCK
  8
0
  2
*U4
 70
     1
 10
0.0
 20
0.0
 30
0.0
  3
*U4
  1

  0
TEXT
  5
C24
  8
0
 62
     0
 10
2896.0849542892010504
 20
1796.1553336463400683
 30
0.0
 40
2.5
  1
1422,66
  0
ENDBLK
  5
C26
  8
0
  0
ENDSEC
  0
SECTION
  2
ENTITIES
  0
POLYLINE
  5
2CA
  8
0
 66
     1
 10
0.0
 20
0.0
 30
0.0
 70
     1
  0
VERTEX
  5
B1C
  8
0
 10
2206.9948758742248174
 20
1682.1509264501230518
 30
0.0
  0
VERTEX
  5
B1D
  8
0
 10
2531.9948758742248174
 20
1682.1509264501230518
 30
0.0
  0
VERTEX
  5
B1E
  8
0
 10
2531.9948758742248174
 20
1722.1509264501230518
 30
0.0
  0
VERTEX
  5
B1F
  8
0
 10
2206.9948758742248174
 20
1722.1509264501230518
 30
0.0
  0
SEQEND
  5
B20
  8
0
  0
POLYLINE
  5
2CB
  8
0
 66
     1
 10
0.0
 20
0.0
 30
0.0
 70
     1
  0
VERTEX
  5
B21
  8
0
 10
2206.9948758742248174
 20
1719.0509264501229154
 30
0.0
  0
VERTEX
  5
B22
  8
0
 10
2531.9948758742248174
 20
1719.0509264501229154
 30
0.0
  0
VERTEX
  5
B23
  8
0
 10
2531.9948758742248174
 20
1712.8509264501230973
 30
0.0
  0
VERTEX
  5
B24
  8
0
 10
2206.9948758742248174
 20
1712.8509264501230973
 30
0.0
  0
SEQEND
  5
B25
  8
0
  0
POLYLINE
  5
2CC
  8
0
 66
     1
 10
0.0
 20
0.0
 30
0.0
 70
     1
  0
VERTEX
  5
B26
  8
0
 10
2206.9948758742248174
 20
1712.8509264501230973
 30
0.0
  0
VERTEX
  5
B27
  8
0
 10
2531.9948758742248174
 20
1712.8509264501230973
 30
0.0
  0
VERTEX
  5
B28
  8
0
 10
2531.9948758742248174
 20
1705.8509264501230973
 30
0.0
  0
VERTEX
  5
B29
  8
0
 10
2206.9948758742248174
 20
1705.8509264501230973
 30
0.0
  0
SEQEND
  5
B2A
  8
0
  0
POLYLINE
  5
2CD
  8
0
 66
     1
 10
0.0
 20
0.0
 30
0.0
 70
     1
  0
VERTEX
  5
B2B
  8
0
 10
2206.9948758742248174
 20
1705.8509264501230973
 30
0.0
  0
VERTEX
  5
B2C
  8
0
 10
2531.9948758742248174
 20
1705.8509264501230973
 30
0.0
  0
VERTEX
  5
B2D
  8
0
 10
2531.9948758742248174
 20
1698.4509264501230064
 30
0.0
  0
VERTEX
  5
B2E
  8
0
 10
2206.9948758742248174
 20
1698.4509264501230064
 30
0.0
  0
SEQEND
  5
B2F
  8
0
  0
POLYLINE
  5
2CE
  8
0
 66
     1
 10
0.0
 20
0.0
 30
0.0
 70
     1
  0
VERTEX
  5
B30
  8
0
 10
2206.9948758742248174
 20
1698.4509264501230064
 30
0.0
  0
VERTEX
  5
B31
  8
0
 10
2531.9948758742248174
 20
1698.4509264501230064
 30
0.0
  0
VERTEX
  5
B32
  8
0
 10
2531.9948758742248174
 20
1691.4509264501230064
 30
0.0
  0
VERTEX
  5
B33
  8
0
 10
2206.9948758742248174
 20
1691.4509264501230064
 30
0.0
  0
SEQEND
  5
B34
  8
0
  0
POLYLINE
  5
2CF
  8
0
 66
     1
 10
0.0
 20
0.0
 30
0.0
 70
     1
  0
VERTEX
  5
B35
  8
0
 10
2206.9948758742248174
 20
1691.4509264501230064
 30
0.0
  0
VERTEX
  5
B36
  8
0
 10
2531.9948758742248174
 20
1691.4509264501230064
 30
0.0
  0
VERTEX
  5
B37
  8
0
 10
2531.9948758742248174
 20
1685.2509264501229609
 30
0.0
  0
VERTEX
  5
B38
  8
0
 10
2206.9948758742248174
 20
1685.2509264501229609
 30
0.0
  0
SEQEND
  5
B39
  8
0
  0
POLYLINE
  5
2D0
  8
0
 66
     1
 10
0.0
 20
0.0
 30
0.0
 70
     1
  0
VERTEX
  5
B3A
  8
0
 10
2561.9948758742248174
 20
1682.1509264501230518
 30
0.0
  0
VERTEX
  5
B3B
  8
0
 10
2886.9948758742248174
 20
1682.1509264501230518
 30
0.0
  0
VERTEX
  5
B3C
  8
0
 10
2886.9948758742248174
 20
1722.1509264501230518
 30
0.0
  0
VERTEX
  5
B3D
  8
0
 10
2561.9948758742248174
 20
1722.1509264501230518
 30
0.0
  0
SEQEND
  5
B3E
  8
0
  0
POLYLINE
  5
2D1
  8
0
 66
     1
 10
0.0
 20
0.0
 30
0.0
 70
     1
  0
VERTEX
  5
B3F
  8
0
 10
2561.9948758742248174
 20
1719.0509264501229154
 30
0.0
  0
VERTEX
  5
B40
  8
0
 10
2886.9948758742248174
 20
1719.0509264501229154
 30
0.0
  0
VERTEX
  5
B41
  8
0
 10
2886.9948758742248174
 20
1712.8509264501230973
 30
0.0
  0
VERTEX
  5
B42
  8
0
 10
2561.9948758742248174
 20
1712.8509264501230973
 30
0.0
  0
SEQEND
  5
B43
  8
0
  0
POLYLINE
  5
2D2
  8
0
 66
     1
 10
0.0
 20
0.0
 30
0.0
 70
     1
  0
VERTEX
  5
B44
  8
0
 10
2561.9948758742248174
 20
1712.8509264501230973
 30
0.0
  0
VERTEX
  5
B45
  8
0
 10
2886.9948758742248174
 20
1712.8509264501230973
 30
0.0
  0
VERTEX
  5
B46
  8
0
 10
2886.9948758742248174
 20
1705.8509264501230973
 30
0.0
  0
VERTEX
  5
B47
  8
0
 10
2561.9948758742248174
 20
1705.8509264501230973
 30
0.0
  0
SEQEND
  5
B48
  8
0
  0
POLYLINE
  5
2D3
  8
0
 66
     1
 10
0.0
 20
0.0
 30
0.0
 70
     1
  0
VERTEX
  5
B49
  8
0
 10
2561.9948758742248174
 20
1705.8509264501230973
 30
0.0
  0
VERTEX
  5
B4A
  8
0
 10
2886.9948758742248174
 20
1705.8509264501230973
 30
0.0
  0
VERTEX
  5
B4B
  8
0
 10
2886.9948758742248174
 20
1698.4509264501230064
 30
0.0
  0
VERTEX
  5
B4C
  8
0
 10
2561.9948758742248174
 20
1698.4509264501230064
 30
0.0
  0
SEQEND
  5
B4D
  8
0
  0
POLYLINE
  5
2D4
  8
0
 66
     1
 10
0.0
 20
0.0
 30
0.0
 70
     1
  0
VERTEX
  5
B4E
  8
0
 10
2561.9948758742248174
 20
1698.4509264501230064
 30
0.0
  0
VERTEX
  5
B4F
  8
0
 10
2886.9948758742248174
 20
1698.4509264501230064
 30
0.0
  0
VERTEX
  5
B50
  8
0
 10
2886.9948758742248174
 20
1691.4509264501230064
 30
0.0
  0
VERTEX
  5
B51
  8
0
 10
2561.9948758742248174
 20
1691.4509264501230064
 30
0.0
  0
SEQEND
  5
B52
  8
0
  0
POLYLINE
  5
2D5
  8
0
 66
     1
 10
0.0
 20
0.0
 30
0.0
 70
     1
  0
VERTEX
  5
B53
  8
0
 10
2561.9948758742248174
 20
1691.4509264501230064
 30
0.0
  0
VERTEX
  5
B54
  8
0
 10
2886.9948758742248174
 20
1691.4509264501230064
 30
0.0
  0
VERTEX
  5
B55
  8
0
 10
2886.9948758742248174
 20
1685.2509264501229609
 30
0.0
  0
VERTEX
  5
B56
  8
0
 10
2561.9948758742248174
 20
1685.2509264501229609
 30
0.0
  0
SEQEND
  5
B57
  8
0
  0
POLYLINE
  5
2D6
  8
0
 66
     1
 10
0.0
 20
0.0
 30
0.0
 70
     1
  0
VERTEX
  5
B58
  8
0
 10
2916.9948758742248174
 20
1682.1509264501230518
 30
0.0
  0
VERTEX
  5
B59
  8
0
 10
3241.9948758742248174
 20
1682.1509264501230518
 30
0.0
  0
VERTEX
  5
B5A
  8
0
 10
3241.9948758742248174
 20
1722.1509264501230518
 30
0.0
  0
VERTEX
  5
B5B
  8
0
 10
2916.9948758742248174
 20
1722.1509264501230518
 30
0.0
  0
SEQEND
  5
B5C
  8
0
  0
POLYLINE
  5
2D7
  8
0
 66
     1
 10
0.0
 20
0.0
 30
0.0
 70
     1
  0
VERTEX
  5
B5D
  8
0
 10
2916.9948758742248174
 20
1719.0509264501229154
 30
0.0
  0
VERTEX
  5
B5E
  8
0
 10
3241.9948758742248174
 20
1719.0509264501229154
 30
0.0
  0
VERTEX
  5
B5F
  8
0
 10
3241.9948758742248174
 20
1712.8509264501230973
 30
0.0
  0
VERTEX
  5
B60
  8
0
 10
2916.9948758742248174
 20
1712.8509264501230973
 30
0.0
  0
SEQEND
  5
B61
  8
0
  0
POLYLINE
  5
2D8
  8
0
 66
     1
 10
0.0
 20
0.0
 30
0.0
 70
     1
  0
VERTEX
  5
B62
  8
0
 10
2916.9948758742248174
 20
1712.8509264501230973
 30
0.0
  0
VERTEX
  5
B63
  8
0
 10
3241.9948758742248174
 20
1712.8509264501230973
 30
0.0
  0
VERTEX
  5
B64
  8
0
 10
3241.9948758742248174
 20
1705.8509264501230973
 30
0.0
  0
VERTEX
  5
B65
  8
0
 10
2916.9948758742248174
 20
1705.8509264501230973
 30
0.0
  0
SEQEND
  5
B66
  8
0
  0
POLYLINE
  5
2D9
  8
0
 66
     1
 10
0.0
 20
0.0
 30
0.0
 70
     1
  0
VERTEX
  5
B67
  8
0
 10
2916.9948758742248174
 20
1705.8509264501230973
 30
0.0
  0
VERTEX
  5
B68
  8
0
 10
3241.9948758742248174
 20
1705.8509264501230973
 30
0.0
  0
VERTEX
  5
B69
  8
0
 10
3241.9948758742248174
 20
1698.4509264501230064
 30
0.0
  0
VERTEX
  5
B6A
  8
0
 10
2916.9948758742248174
 20
1698.4509264501230064
 30
0.0
  0
SEQEND
  5
B6B
  8
0
  0
POLYLINE
  5
2DA
  8
0
 66
     1
 10
0.0
 20
0.0
 30
0.0
 70
     1
  0
VERTEX
  5
B6C
  8
0
 10
2916.9948758742248174
 20
1698.4509264501230064
 30
0.0
  0
VERTEX
  5
B6D
  8
0
 10
3241.9948758742248174
 20
1698.4509264501230064
 30
0.0
  0
VERTEX
  5
B6E
  8
0
 10
3241.9948758742248174
 20
1691.4509264501230064
 30
0.0
  0
VERTEX
  5
B6F
  8
0
 10
2916.9948758742248174
 20
1691.4509264501230064
 30
0.0
  0
SEQEND
  5
B70
  8
0
  0
POLYLINE
  5
2DB
  8
0
 66
     1
 10
0.0
 20
0.0
 30
0.0
 70
     1
  0
VERTEX
  5
B71
  8
0
 10
2916.9948758742248174
 20
1691.4509264501230064
 30
0.0
  0
VERTEX
  5
B72
  8
0
 10
3241.9948758742248174
 20
1691.4509264501230064
 30
0.0
  0
VERTEX
  5
B73
  8
0
 10
3241.9948758742248174
 20
1685.2509264501229609
 30
0.0
  0
VERTEX
  5
B74
  8
0
 10
2916.9948758742248174
 20
1685.2509264501229609
 30
0.0
  0
SEQEND
  5
B75
  8
0
  0
POLYLINE
  5
2DC
  8
0
 66
     1
 10
0.0
 20
0.0
 30
0.0
 70
     1
  0
VERTEX
  5
B76
  8
0
 10
3271.9948758742248174
 20
1682.1509264501230518
 30
0.0
  0
VERTEX
  5
B77
  8
0
 10
3596.9948758742248174
 20
1682.1509264501230518
 30
0.0
  0
VERTEX
  5
B78
  8
0
 10
3596.9948758742248174
 20
1722.1509264501230518
 30
0.0
  0
VERTEX
  5
B79
  8
0
 10
3271.9948758742248174
 20
1722.1509264501230518
 30
0.0
  0
SEQEND
  5
B7A
  8
0
  0
POLYLINE
  5
2DD
  8
0
 66
     1
 10
0.0
 20
0.0
 30
0.0
 70
     1
  0
VERTEX
  5
B7B
  8
0
 10
3271.9948758742248174
 20
1719.0509264501229154
 30
0.0
  0
VERTEX
  5
B7C
  8
0
 10
3596.9948758742248174
 20
1719.0509264501229154
 30
0.0
  0
VERTEX
  5
B7D
  8
0
 10
3596.9948758742248174
 20
1712.8509264501230973
 30
0.0
  0
VERTEX
  5
B7E
  8
0
 10
3271.9948758742248174
 20
1712.8509264501230973
 30
0.0
  0
SEQEND
  5
B7F
  8
0
  0
POLYLINE
  5
2DE
  8
0
 66
     1
 10
0.0
 20
0.0
 30
0.0
 70
     1
  0
VERTEX
  5
B80
  8
0
 10
3271.9948758742248174
 20
1712.8509264501230973
 30
0.0
  0
VERTEX
  5
B81
  8
0
 10
3596.9948758742248174
 20
1712.8509264501230973
 30
0.0
  0
VERTEX
  5
B82
  8
0
 10
3596.9948758742248174
 20
1705.8509264501230973
 30
0.0
  0
VERTEX
  5
B83
  8
0
 10
3271.9948758742248174
 20
1705.8509264501230973
 30
0.0
  0
SEQEND
  5
B84
  8
0
  0
POLYLINE
  5
2DF
  8
0
 66
     1
 10
0.0
 20
0.0
 30
0.0
 70
     1
  0
VERTEX
  5
B85
  8
0
 10
3271.9948758742248174
 20
1705.8509264501230973
 30
0.0
  0
VERTEX
  5
B86
  8
0
 10
3596.9948758742248174
 20
1705.8509264501230973
 30
0.0
  0
VERTEX
  5
B87
  8
0
 10
3596.9948758742248174
 20
1698.4509264501230064
 30
0.0
  0
VERTEX
  5
B88
  8
0
 10
3271.9948758742248174
 20
1698.4509264501230064
 30
0.0
  0
SEQEND
  5
B89
  8
0
  0
POLYLINE
  5
2E0
  8
0
 66
     1
 10
0.0
 20
0.0
 30
0.0
 70
     1
  0
VERTEX
  5
B8A
  8
0
 10
3271.9948758742248174
 20
1698.4509264501230064
 30
0.0
  0
VERTEX
  5
B8B
  8
0
 10
3596.9948758742248174
 20
1698.4509264501230064
 30
0.0
  0
VERTEX
  5
B8C
  8
0
 10
3596.9948758742248174
 20
1691.4509264501230064
 30
0.0
  0
VERTEX
  5
B8D
  8
0
 10
3271.9948758742248174
 20
1691.4509264501230064
 30
0.0
  0
SEQEND
  5
B8E
  8
0
  0
POLYLINE
  5
2E1
  8
0
 66
     1
 10
0.0
 20
0.0
 30
0.0
 70
     1
  0
VERTEX
  5
B8F
  8
0
 10
3271.9948758742248174
 20
1691.4509264501230064
 30
0.0
  0
VERTEX
  5
B90
  8
0
 10
3596.9948758742248174
 20
1691.4509264501230064
 30
0.0
  0
VERTEX
  5
B91
  8
0
 10
3596.9948758742248174
 20
1685.2509264501229609
 30
0.0
  0
VERTEX
  5
B92
  8
0
 10
3271.9948758742248174
 20
1685.2509264501229609
 30
0.0
  0
SEQEND
  5
B93
  8
0
  0
POLYLINE
  5
2E2
  8
0
 66
     1
 10
0.0
 20
0.0
 30
0.0
 70
     1
  0
VERTEX
  5
B94
  8
0
 10
2206.9948758742248174
 20
1612.1509264501230518
 30
0.0
  0
VERTEX
  5
B95
  8
0
 10
2531.9948758742248174
 20
1612.1509264501230518
 30
0.0
  0
VERTEX
  5
B96
  8
0
 10
2531.9948758742248174
 20
1652.1509264501230518
 30
0.0
  0
VERTEX
  5
B97
  8
0
 10
2206.9948758742248174
 20
1652.1509264501230518
 30
0.0
  0
SEQEND
  5
B98
  8
0
  0
POLYLINE
  5
2E3
  8
0
 66
     1
 10
0.0
 20
0.0
 30
0.0
 70
     1
  0
VERTEX
  5
B99
  8
0
 10
2206.9948758742248174
 20
1649.0509264501229154
 30
0.0
  0
VERTEX
  5
B9A
  8
0
 10
2531.9948758742248174
 20
1649.0509264501229154
 30
0.0
  0
VERTEX
  5
B9B
  8
0
 10
2531.9948758742248174
 20
1642.8509264501230973
 30
0.0
  0
VERTEX
  5
B9C
  8
0
 10
2206.9948758742248174
 20
1642.8509264501230973
 30
0.0
  0
SEQEND
  5
B9D
  8
0
  0
POLYLINE
  5
2E4
  8
0
 66
     1
 10
0.0
 20
0.0
 30
0.0
 70
     1
  0
VERTEX
  5
B9E
  8
0
 10
2206.9948758742248174
 20
1642.8509264501230973
 30
0.0
  0
VERTEX
  5
B9F
  8
0
 10
2531.9948758742248174
 20
1642.8509264501230973
 30
0.0
  0
VERTEX
  5
BA0
  8
0
 10
2531.9948758742248174
 20
1635.8509264501230973
 30
0.0
  0
VERTEX
  5
BA1
  8
0
 10
2206.9948758742248174
 20
1635.8509264501230973
 30
0.0
  0
SEQEND
  5
BA2
  8
0
  0
POLYLINE
  5
2E5
  8
0
 66
     1
 10
0.0
 20
0.0
 30
0.0
 70
     1
  0
VERTEX
  5
BA3
  8
0
 10
2206.9948758742248174
 20
1635.8509264501230973
 30
0.0
  0
VERTEX
  5
BA4
  8
0
 10
2531.9948758742248174
 20
1635.8509264501230973
 30
0.0
  0
VERTEX
  5
BA5
  8
0
 10
2531.9948758742248174
 20
1628.4509264501230064
 30
0.0
  0
VERTEX
  5
BA6
  8
0
 10
2206.9948758742248174
 20
1628.4509264501230064
 30
0.0
  0
SEQEND
  5
BA7
  8
0
  0
POLYLINE
  5
2E6
  8
0
 66
     1
 10
0.0
 20
0.0
 30
0.0
 70
     1
  0
VERTEX
  5
BA8
  8
0
 10
2206.9948758742248174
 20
1628.4509264501230064
 30
0.0
  0
VERTEX
  5
BA9
  8
0
 10
2531.9948758742248174
 20
1628.4509264501230064
 30
0.0
  0
VERTEX
  5
BAA
  8
0
 10
2531.9948758742248174
 20
1621.4509264501230064
 30
0.0
  0
VERTEX
  5
BAB
  8
0
 10
2206.9948758742248174
 20
1621.4509264501230064
 30
0.0
  0
SEQEND
  5
BAC
  8
0
  0
POLYLINE
  5
2E7
  8
0
 66
     1
 10
0.0
 20
0.0
 30
0.0
 70
     1
  0
VERTEX
  5
BAD
  8
0
 10
2206.9948758742248174
 20
1621.4509264501230064
 30
0.0
  0
VERTEX
  5
BAE
  8
0
 10
2531.9948758742248174
 20
1621.4509264501230064
 30
0.0
  0
VERTEX
  5
BAF
  8
0
 10
2531.9948758742248174
 20
1615.2509264501229609
 30
0.0
  0
VERTEX
  5
BB0
  8
0
 10
2206.9948758742248174
 20
1615.2509264501229609
 30
0.0
  0
SEQEND
  5
BB1
  8
0
  0
POLYLINE
  5
2E8
  8
0
 66
     1
 10
0.0
 20
0.0
 30
0.0
 70
     1
  0
VERTEX
  5
BB2
  8
0
 10
2561.9948758742248174
 20
1612.1509264501230518
 30
0.0
  0
VERTEX
  5
BB3
  8
0
 10
2886.9948758742248174
 20
1612.1509264501230518
 30
0.0
  0
VERTEX
  5
BB4
  8
0
 10
2886.9948758742248174
 20
1652.1509264501230518
 30
0.0
  0
VERTEX
  5
BB5
  8
0
 10
2561.9948758742248174
 20
1652.1509264501230518
 30
0.0
  0
SEQEND
  5
BB6
  8
0
  0
POLYLINE
  5
2E9
  8
0
 66
     1
 10
0.0
 20
0.0
 30
0.0
 70
     1
  0
VERTEX
  5
BB7
  8
0
 10
2561.9948758742248174
 20
1649.0509264501229154
 30
0.0
  0
VERTEX
  5
BB8
  8
0
 10
2886.9948758742248174
 20
1649.0509264501229154
 30
0.0
  0
VERTEX
  5
BB9
  8
0
 10
2886.9948758742248174
 20
1642.8509264501230973
 30
0.0
  0
VERTEX
  5
BBA
  8
0
 10
2561.9948758742248174
 20
1642.8509264501230973
 30
0.0
  0
SEQEND
  5
BBB
  8
0
  0
POLYLINE
  5
2EA
  8
0
 66
     1
 10
0.0
 20
0.0
 30
0.0
 70
     1
  0
VERTEX
  5
BBC
  8
0
 10
2561.9948758742248174
 20
1642.8509264501230973
 30
0.0
  0
VERTEX
  5
BBD
  8
0
 10
2886.9948758742248174
 20
1642.8509264501230973
 30
0.0
  0
VERTEX
  5
BBE
  8
0
 10
2886.9948758742248174
 20
1635.8509264501230973
 30
0.0
  0
VERTEX
  5
BBF
  8
0
 10
2561.9948758742248174
 20
1635.8509264501230973
 30
0.0
  0
SEQEND
  5
BC0
  8
0
  0
POLYLINE
  5
2EB
  8
0
 66
     1
 10
0.0
 20
0.0
 30
0.0
 70
     1
  0
VERTEX
  5
BC1
  8
0
 10
2561.9948758742248174
 20
1635.8509264501230973
 30
0.0
  0
VERTEX
  5
BC2
  8
0
 10
2886.9948758742248174
 20
1635.8509264501230973
 30
0.0
  0
VERTEX
  5
BC3
  8
0
 10
2886.9948758742248174
 20
1628.4509264501230064
 30
0.0
  0
VERTEX
  5
BC4
  8
0
 10
2561.9948758742248174
 20
1628.4509264501230064
 30
0.0
  0
SEQEND
  5
BC5
  8
0
  0
POLYLINE
  5
2EC
  8
0
 66
     1
 10
0.0
 20
0.0
 30
0.0
 70
     1
  0
VERTEX
  5
BC6
  8
0
 10
2561.9948758742248174
 20
1628.4509264501230064
 30
0.0
  0
VERTEX
  5
BC7
  8
0
 10
2886.9948758742248174
 20
1628.4509264501230064
 30
0.0
  0
VERTEX
  5
BC8
  8
0
 10
2886.9948758742248174
 20
1621.4509264501230064
 30
0.0
  0
VERTEX
  5
BC9
  8
0
 10
2561.9948758742248174
 20
1621.4509264501230064
 30
0.0
  0
SEQEND
  5
BCA
  8
0
  0
POLYLINE
  5
2ED
  8
0
 66
     1
 10
0.0
 20
0.0
 30
0.0
 70
     1
  0
VERTEX
  5
BCB
  8
0
 10
2561.9948758742248174
 20
1621.4509264501230064
 30
0.0
  0
VERTEX
  5
BCC
  8
0
 10
2886.9948758742248174
 20
1621.4509264501230064
 30
0.0
  0
VERTEX
  5
BCD
  8
0
 10
2886.9948758742248174
 20
1615.2509264501229609
 30
0.0
  0
VERTEX
  5
BCE
  8
0
 10
2561.9948758742248174
 20
1615.2509264501229609
 30
0.0
  0
SEQEND
  5
BCF
  8
0
  0
POLYLINE
  5
2EE
  8
0
 66
     1
 10
0.0
 20
0.0
 30
0.0
 70
     1
  0
VERTEX
  5
BD0
  8
0
 10
2916.9948758742248174
 20
1612.1509264501230518
 30
0.0
  0
VERTEX
  5
BD1
  8
0
 10
3241.9948758742248174
 20
1612.1509264501230518
 30
0.0
  0
VERTEX
  5
BD2
  8
0
 10
3241.9948758742248174
 20
1652.1509264501230518
 30
0.0
  0
VERTEX
  5
BD3
  8
0
 10
2916.9948758742248174
 20
1652.1509264501230518
 30
0.0
  0
SEQEND
  5
BD4
  8
0
  0
POLYLINE
  5
2EF
  8
0
 66
     1
 10
0.0
 20
0.0
 30
0.0
 70
     1
  0
VERTEX
  5
BD5
  8
0
 10
2916.9948758742248174
 20
1649.0509264501229154
 30
0.0
  0
VERTEX
  5
BD6
  8
0
 10
3241.9948758742248174
 20
1649.0509264501229154
 30
0.0
  0
VERTEX
  5
BD7
  8
0
 10
3241.9948758742248174
 20
1642.8509264501230973
 30
0.0
  0
VERTEX
  5
BD8
  8
0
 10
2916.9948758742248174
 20
1642.8509264501230973
 30
0.0
  0
SEQEND
  5
BD9
  8
0
  0
POLYLINE
  5
2F0
  8
0
 66
     1
 10
0.0
 20
0.0
 30
0.0
 70
     1
  0
VERTEX
  5
BDA
  8
0
 10
2916.9948758742248174
 20
1642.8509264501230973
 30
0.0
  0
VERTEX
  5
BDB
  8
0
 10
3241.9948758742248174
 20
1642.8509264501230973
 30
0.0
  0
VERTEX
  5
BDC
  8
0
 10
3241.9948758742248174
 20
1635.8509264501230973
 30
0.0
  0
VERTEX
  5
BDD
  8
0
 10
2916.9948758742248174
 20
1635.8509264501230973
 30
0.0
  0
SEQEND
  5
BDE
  8
0
  0
POLYLINE
  5
2F1
  8
0
 66
     1
 10
0.0
 20
0.0
 30
0.0
 70
     1
  0
VERTEX
  5
BDF
  8
0
 10
2916.9948758742248174
 20
1635.8509264501230973
 30
0.0
  0
VERTEX
  5
BE0
  8
0
 10
3241.9948758742248174
 20
1635.8509264501230973
 30
0.0
  0
VERTEX
  5
BE1
  8
0
 10
3241.9948758742248174
 20
1628.4509264501230064
 30
0.0
  0
VERTEX
  5
BE2
  8
0
 10
2916.9948758742248174
 20
1628.4509264501230064
 30
0.0
  0
SEQEND
  5
BE3
  8
0
  0
POLYLINE
  5
2F2
  8
0
 66
     1
 10
0.0
 20
0.0
 30
0.0
 70
     1
  0
VERTEX
  5
BE4
  8
0
 10
2916.9948758742248174
 20
1628.4509264501230064
 30
0.0
  0
VERTEX
  5
BE5
  8
0
 10
3241.9948758742248174
 20
1628.4509264501230064
 30
0.0
  0
VERTEX
  5
BE6
  8
0
 10
3241.9948758742248174
 20
1621.4509264501230064
 30
0.0
  0
VERTEX
  5
BE7
  8
0
 10
2916.9948758742248174
 20
1621.4509264501230064
 30
0.0
  0
SEQEND
  5
BE8
  8
0
  0
POLYLINE
  5
2F3
  8
0
 66
     1
 10
0.0
 20
0.0
 30
0.0
 70
     1
  0
VERTEX
  5
BE9
  8
0
 10
2916.9948758742248174
 20
1621.4509264501230064
 30
0.0
  0
VERTEX
  5
BEA
  8
0
 10
3241.9948758742248174
 20
1621.4509264501230064
 30
0.0
  0
VERTEX
  5
BEB
  8
0
 10
3241.9948758742248174
 20
1615.2509264501229609
 30
0.0
  0
VERTEX
  5
BEC
  8
0
 10
2916.9948758742248174
 20
1615.2509264501229609
 30
0.0
  0
SEQEND
  5
BED
  8
0
  0
POLYLINE
  5
2F4
  8
0
 66
     1
 10
0.0
 20
0.0
 30
0.0
 70
     1
  0
VERTEX
  5
BEE
  8
0
 10
3271.9948758742248174
 20
1612.1509264501230518
 30
0.0
  0
VERTEX
  5
BEF
  8
0
 10
3596.9948758742248174
 20
1612.1509264501230518
 30
0.0
  0
VERTEX
  5
BF0
  8
0
 10
3596.9948758742248174
 20
1652.1509264501230518
 30
0.0
  0
VERTEX
  5
BF1
  8
0
 10
3271.9948758742248174
 20
1652.1509264501230518
 30
0.0
  0
SEQEND
  5
BF2
  8
0
  0
POLYLINE
  5
2F5
  8
0
 66
     1
 10
0.0
 20
0.0
 30
0.0
 70
     1
  0
VERTEX
  5
BF3
  8
0
 10
3271.9948758742248174
 20
1649.0509264501229154
 30
0.0
  0
VERTEX
  5
BF4
  8
0
 10
3596.9948758742248174
 20
1649.0509264501229154
 30
0.0
  0
VERTEX
  5
BF5
  8
0
 10
3596.9948758742248174
 20
1642.8509264501230973
 30
0.0
  0
VERTEX
  5
BF6
  8
0
 10
3271.9948758742248174
 20
1642.8509264501230973
 30
0.0
  0
SEQEND
  5
BF7
  8
0
  0
POLYLINE
  5
2F6
  8
0
 66
     1
 10
0.0
 20
0.0
 30
0.0
 70
     1
  0
VERTEX
  5
BF8
  8
0
 10
3271.9948758742248174
 20
1642.8509264501230973
 30
0.0
  0
VERTEX
  5
BF9
  8
0
 10
3596.9948758742248174
 20
1642.8509264501230973
 30
0.0
  0
VERTEX
  5
BFA
  8
0
 10
3596.9948758742248174
 20
1635.8509264501230973
 30
0.0
  0
VERTEX
  5
BFB
  8
0
 10
3271.9948758742248174
 20
1635.8509264501230973
 30
0.0
  0
SEQEND
  5
BFC
  8
0
  0
POLYLINE
  5
2F7
  8
0
 66
     1
 10
0.0
 20
0.0
 30
0.0
 70
     1
  0
VERTEX
  5
BFD
  8
0
 10
3271.9948758742248174
 20
1635.8509264501230973
 30
0.0
  0
VERTEX
  5
BFE
  8
0
 10
3596.9948758742248174
 20
1635.8509264501230973
 30
0.0
  0
VERTEX
  5
BFF
  8
0
 10
3596.9948758742248174
 20
1628.4509264501230064
 30
0.0
  0
VERTEX
  5
C00
  8
0
 10
3271.9948758742248174
 20
1628.4509264501230064
 30
0.0
  0
SEQEND
  5
C01
  8
0
  0
POLYLINE
  5
2F8
  8
0
 66
     1
 10
0.0
 20
0.0
 30
0.0
 70
     1
  0
VERTEX
  5
C02
  8
0
 10
3271.9948758742248174
 20
1628.4509264501230064
 30
0.0
  0
VERTEX
  5
C03
  8
0
 10
3596.9948758742248174
 20
1628.4509264501230064
 30
0.0
  0
VERTEX
  5
C04
  8
0
 10
3596.9948758742248174
 20
1621.4509264501230064
 30
0.0
  0
VERTEX
  5
C05
  8
0
 10
3271.9948758742248174
 20
1621.4509264501230064
 30
0.0
  0
SEQEND
  5
C06
  8
0
  0
POLYLINE
  5
2F9
  8
0
 66
     1
 10
0.0
 20
0.0
 30
0.0
 70
     1
  0
VERTEX
  5
C07
  8
0
 10
3271.9948758742248174
 20
1621.4509264501230064
 30
0.0
  0
VERTEX
  5
C08
  8
0
 10
3596.9948758742248174
 20
1621.4509264501230064
 30
0.0
  0
VERTEX
  5
C09
  8
0
 10
3596.9948758742248174
 20
1615.2509264501229609
 30
0.0
  0
VERTEX
  5
C0A
  8
0
 10
3271.9948758742248174
 20
1615.2509264501229609
 30
0.0
  0
SEQEND
  5
C0B
  8
0
  0
POLYLINE
  5
53E
  8
0
 66
     1
 10
0.0
 20
0.0
 30
0.0
 70
     1
  0
VERTEX
  5
C0F
  8
0
 10
2196.9948758742248174
 20
1719.0509264501229154
 30
0.0
  0
VERTEX
  5
C10
  8
0
 10
3606.9948758742248174
 20
1719.0509264501229154
 30
0.0
  0
VERTEX
  5
C11
  8
0
 10
3606.9948758742248174
 20
1685.2509264501229609
 30
0.0
  0
VERTEX
  5
C12
  8
0
 10
2196.9948758742248174
 20
1685.2509264501229609
 30
0.0
  0
SEQEND
  5
C13
  8
0
  0
POLYLINE
  5
53F
  8
0
 66
     1
 10
0.0
 20
0.0
 30
0.0
 70
     1
  0
VERTEX
  5
C14
  8
0
 10
2196.9948758742248174
 20
1649.0509264501229154
 30
0.0
  0
VERTEX
  5
C15
  8
0
 10
3606.9948758742248174
 20
1649.0509264501229154
 30
0.0
  0
VERTEX
  5
C16
  8
0
 10
3606.9948758742248174
 20
1615.2509264501229609
 30
0.0
  0
VERTEX
  5
C17
  8
0
 10
2196.9948758742248174
 20
1615.2509264501229609
 30
0.0
  0
SEQEND
  5
C18
  8
0
  0
POLYLINE
  5
780
  8
0
 66
     1
 10
0.0
 20
0.0
 30
0.0
 70
     1
  0
VERTEX
  5
C19
  8
0
 10
2191.177870918877943
 20
1732.150926450121915
 30
0.0
  0
VERTEX
  5
C1A
  8
0
 10
3613.836512420777126
 20
1732.150926450121915
 30
0.0
  0
VERTEX
  5
C1B
  8
0
 10
3613.836512420777126
 20
1672.1509264501230518
 30
0.0
  0
VERTEX
  5
C1C
  8
0
 10
2191.177870918877943
 20
1672.1509264501230518
 30
0.0
  0
SEQEND
  5
C1D
  8
0
  0
POLYLINE
  5
781
  8
0
 66
     1
 10
0.0
 20
0.0
 30
0.0
 70
     1
  0
VERTEX
  5
C1E
  8
0
 10
2186.6572442134488483
 20
1662.1509264501230518
 30
0.0
  0
VERTEX
  5
C1F
  8
0
 10
3614.8408327315410133
 20
1662.1509264501230518
 30
0.0
  0
VERTEX
  5
C20
  8
0
 10
3614.8408327315410133
 20
1602.1509264501230518
 30
0.0
  0
VERTEX
  5
C21
  8
0
 10
2186.6572442134488483
 20
1602.1509264501230518
 30
0.0
  0
SEQEND
  5
C22
  8
0
  0
ENDSEC
  0
EOF
