  0
SECTION
  2
HEADER
  9
$ACADVER
  1
AC1009
  9
$INSBASE
 10
0.0
 20
0.0
 30
0.0
  9
$EXTMIN
 10
2778.3951272384770164
 20
1327.6574981256439969
 30
0.0
  9
$EXTMAX
 10
3411.4794587004848836
 20
3151.2630479380618453
 30
0.0
  9
$LIMMIN
 10
0.0
 20
0.0
  9
$LIMMAX
 10
420.0
 20
297.0
  9
$ORTHOMODE
 70
     0
  9
$REGENMODE
 70
     1
  9
$FILLMODE
 70
     1
  9
$QTEXTMODE
 70
     0
  9
$MIRRTEXT
 70
     0
  9
$DRAGMODE
 70
     2
  9
$LTSCALE
 40
1.0
  9
$OSMODE
 70
   951
  9
$ATTMODE
 70
     1
  9
$TEXTSIZE
 40
2.5
  9
$TRACEWID
 40
1.0
  9
$TEXTSTYLE
  7
STANDARD
  9
$CLAYER
  8
0
  9
$CELTYPE
  6
BYLAYER
  9
$CECOLOR
 62
   256
  9
$DIMSCALE
 40
1.0
  9
$DIMASZ
 40
2.5
  9
$DIMEXO
 40
0.625
  9
$DIMDLI
 40
3.75
  9
$DIMRND
 40
0.0
  9
$DIMDLE
 40
0.0
  9
$DIMEXE
 40
1.25
  9
$DIMTP
 40
0.0
  9
$DIMTM
 40
0.0
  9
$DIMTXT
 40
2.5
  9
$DIMCEN
 40
2.5
  9
$DIMTSZ
 40
0.0
  9
$DIMTOL
 70
     0
  9
$DIMLIM
 70
     0
  9
$DIMTIH
 70
     0
  9
$DIMTOH
 70
     0
  9
$DIMSE1
 70
     0
  9
$DIMSE2
 70
     0
  9
$DIMTAD
 70
     1
  9
$DIMZIN
 70
     8
  9
$DIMBLK
  1

  9
$DIMASO
 70
     1
  9
$DIMSHO
 70
     1
  9
$DIMPOST
  1

  9
$DIMAPOST
  1

  9
$DIMALT
 70
     0
  9
$DIMALTD
 70
     3
  9
$DIMALTF
 40
0.03937007874016
  9
$DIMLFAC
 40
1.0
  9
$DIMTOFL
 70
     1
  9
$DIMTVP
 40
0.0
  9
$DIMTIX
 70
     0
  9
$DIMSOXD
 70
     0
  9
$DIMSAH
 70
     0
  9
$DIMBLK1
  1

  9
$DIMBLK2
  1

  9
$DIMSTYLE
  2
ISO-25
  9
$DIMCLRD
 70
     0
  9
$DIMCLRE
 70
     0
  9
$DIMCLRT
 70
     0
  9
$DIMTFAC
 40
1.0
  9
$DIMGAP
 40
0.625
  9
$LUNITS
 70
     2
  9
$LUPREC
 70
     4
  9
$SKETCHINC
 40
1.0
  9
$FILLETRAD
 40
0.0
  9
$AUNITS
 70
     0
  9
$AUPREC
 70
     0
  9
$MENU
  1
.
  9
$ELEVATION
 40
0.0
  9
$PELEVATION
 40
0.0
  9
$THICKNESS
 40
0.0
  9
$LIMCHECK
 70
     0
  9
$BLIPMODE
 70
     0
  9
$CHAMFERA
 40
0.0
  9
$CHAMFERB
 40
0.0
  9
$SKPOLY
 70
     0
  9
$TDCREATE
 40
2459902.3242245367728174
  9
$TDUPDATE
 40
2459902.3369328710250556
  9
$TDINDWG
 40
0.0127083333
  9
$TDUSRTIMER
 40
0.0127083333
  9
$USRTIMER
 70
     1
  9
$ANGBASE
 50
0.0
  9
$ANGDIR
 70
     0
  9
$PDMODE
 70
     0
  9
$PDSIZE
 40
0.0
  9
$PLINEWID
 40
0.0
  9
$COORDS
 70
     1
  9
$SPLFRAME
 70
     0
  9
$SPLINETYPE
 70
     6
  9
$SPLINESEGS
 70
     8
  9
$ATTDIA
 70
     1
  9
$ATTREQ
 70
     1
  9
$HANDLING
 70
     1
  9
$HANDSEED
  5
4FA
  9
$SURFTAB1
 70
     6
  9
$SURFTAB2
 70
     6
  9
$SURFTYPE
 70
     6
  9
$SURFU
 70
     6
  9
$SURFV
 70
     6
  9
$UCSNAME
  2

  9
$UCSORG
 10
0.0
 20
0.0
 30
0.0
  9
$UCSXDIR
 10
1.0
 20
0.0
 30
0.0
  9
$UCSYDIR
 10
0.0
 20
1.0
 30
0.0
  9
$PUCSNAME
  2

  9
$PUCSORG
 10
0.0
 20
0.0
 30
0.0
  9
$PUCSXDIR
 10
1.0
 20
0.0
 30
0.0
  9
$PUCSYDIR
 10
0.0
 20
1.0
 30
0.0
  9
$USERI1
 70
     0
  9
$USERI2
 70
     0
  9
$USERI3
 70
     0
  9
$USERI4
 70
     0
  9
$USERI5
 70
     0
  9
$USERR1
 40
0.0
  9
$USERR2
 40
0.0
  9
$USERR3
 40
0.0
  9
$USERR4
 40
0.0
  9
$USERR5
 40
0.0
  9
$WORLDVIEW
 70
     1
  9
$SHADEDGE
 70
     3
  9
$SHADEDIF
 70
    70
  9
$TILEMODE
 70
     1
  9
$MAXACTVP
 70
    64
  9
$PLIMCHECK
 70
     0
  9
$PEXTMIN
 10
0.0
 20
0.0
 30
0.0
  9
$PEXTMAX
 10
0.0
 20
0.0
 30
0.0
  9
$PLIMMIN
 10
0.0
 20
0.0
  9
$PLIMMAX
 10
12.0
 20
9.0
  9
$UNITMODE
 70
     0
  9
$VISRETAIN
 70
     1
  9
$PLINEGEN
 70
     0
  9
$PSLTSCALE
 70
     1
  0
ENDSEC
  0
SECTION
  2
TABLES
  0
TABLE
  2
VPORT
 70
     1
  0
VPORT
  2
*ACTIVE
 70
     0
 10
0.0
 20
0.0
 11
1.0
 21
1.0
 12
1525.3186784876299953
 22
3846.5647547779008164
 13
0.0
 23
0.0
 14
10.0
 24
10.0
 15
10.0
 25
10.0
 16
0.0
 26
0.0
 36
1.0
 17
0.0
 27
0.0
 37
0.0
 40
7176.71744352935184
 41
2.3047158403869412
 42
50.0
 43
0.0
 44
0.0
 50
0.0
 51
0.0
 71
     0
 72
  1000
 73
     1
 74
     3
 75
     0
 76
     1
 77
     0
 78
     0
  0
ENDTAB
  0
TABLE
  2
LTYPE
 70
     2
  0
LTYPE
  2
CONTINUOUS
 70
     0
  3
Solid line
 72
    65
 73
     0
 40
0.0
  0
ENDTAB
  0
TABLE
  2
LAYER
 70
     1
  0
LAYER
  2
0
 70
     0
 62
     7
  6
CONTINUOUS
  0
ENDTAB
  0
TABLE
  2
STYLE
 70
     2
  0
STYLE
  2
STANDARD
 70
     0
 40
0.0
 41
1.0
 50
0.0
 71
     0
 42
2.5
  3
txt
  4

  0
STYLE
  2
ANNOTATIVE
 70
     0
 40
0.0
 41
1.0
 50
0.0
 71
     0
 42
2.5
  3
txt
  4

  0
ENDTAB
  0
TABLE
  2
VIEW
 70
     0
  0
ENDTAB
  0
TABLE
  2
UCS
 70
     0
  0
ENDTAB
  0
TABLE
  2
APPID
 70
     9
  0
APPID
  2
ACAD
 70
     0
  0
APPID
  2
ACAD_PSEXT
 70
     0
  0
APPID
  2
ACADANNOPO
 70
     0
  0
APPID
  2
ACADANNOTATIVE
 70
     0
  0
APPID
  2
ACAD_DSTYLE_DIMJAG
 70
     0
  0
APPID
  2
ACAD_DSTYLE_DIMTALN
 70
     0
  0
APPID
  2
ACAD_MLEADERVER
 70
     0
  0
APPID
  2
ACAD_NAV_VCDISPLAY
 70
     0
  0
APPID
  2
ACAD_EXEMPT_FROM_CAD_STANDARDS
 70
     0
  0
ENDTAB
  0
TABLE
  2
DIMSTYLE
 70
     4
  0
DIMSTYLE
  2
STANDARD
 70
     0
  3

  4

  5

  6

  7

 40
1.0
 41
0.18
 42
0.0625
 43
0.38
 44
0.18
 45
0.0
 46
0.0
 47
0.0
 48
0.0
140
0.18
141
0.09
142
0.0
143
25.3999999999999986
144
1.0
145
0.0
146
1.0
147
0.09
 71
     0
 72
     0
 73
     1
 74
     1
 75
     0
 76
     0
 77
     0
 78
     0
170
     0
171
     2
172
     0
173
     0
174
     0
175
     0
176
     0
177
     0
178
     0
  0
DIMSTYLE
  2
ANNOTATIVE
 70
     0
  3

  4

  5

  6

  7

 40
0.0
 41
2.5
 42
0.625
 43
3.75
 44
1.25
 45
0.0
 46
0.0
 47
0.0
 48
0.0
140
2.5
141
2.5
142
0.0
143
0.03937007874016
144
1.0
145
0.0
146
1.0
147
0.625
 71
     0
 72
     0
 73
     0
 74
     0
 75
     0
 76
     0
 77
     1
 78
     8
170
     0
171
     3
172
     1
173
     0
174
     0
175
     0
176
     0
177
     0
178
     0
  0
DIMSTYLE
  2
ISO-25
 70
     0
  3

  4

  5

  6

  7

 40
1.0
 41
2.5
 42
0.625
 43
3.75
 44
1.25
 45
0.0
 46
0.0
 47
0.0
 48
0.0
140
2.5
141
2.5
142
0.0
143
0.03937007874016
144
1.0
145
0.0
146
1.0
147
0.625
 71
     0
 72
     0
 73
     0
 74
     0
 75
     0
 76
     0
 77
     1
 78
     8
170
     0
171
     3
172
     1
173
     0
174
     0
175
     0
176
     0
177
     0
178
     0
  0
ENDTAB
  0
ENDSEC
  0
SECTION
  2
BLOCKS
  0
BLOCK
  8
0
  2
$MODEL_SPACE
 70
     0
 10
0.0
 20
0.0
 30
0.0
  3
$MODEL_SPACE
  1

  0
ENDBLK
  5
21
  8
0
  0
BLOCK
 67
     1
  8
0
  2
$PAPER_SPACE
 70
     0
 10
0.0
 20
0.0
 30
0.0
  3
$PAPER_SPACE
  1

  0
ENDBLK
  5
D5
 67
     1
  8
0
  0
ENDSEC
  0
SECTION
  2
ENTITIES
  0
POLYLINE
  5
2A2
  8
0
 66
     1
 10
0.0
 20
0.0
 30
0.0
 70
     1
  0
VERTEX
  5
402
  8
0
 10
2778.3951272384770164
 20
1662.9459349579060472
 30
0.0
  0
VERTEX
  5
403
  8
0
 10
2778.3951272384770164
 20
1337.9459349579060472
 30
0.0
  0
VERTEX
  5
404
  8
0
 10
2832.3951272384770164
 20
1337.9459349579060472
 30
0.0
  0
VERTEX
  5
405
  8
0
 10
2832.3951272384770164
 20
1662.9459349579060472
 30
0.0
  0
SEQEND
  5
406
  8
0
  0
POLYLINE
  5
2A3
  8
0
 66
     1
 10
0.0
 20
0.0
 30
0.0
 70
     1
  0
VERTEX
  5
407
  8
0
 10
2829.4951272384769254
 20
1662.9459349579060472
 30
0.0
  0
VERTEX
  5
408
  8
0
 10
2829.4951272384760159
 20
1337.9459349579060472
 30
0.0
  0
VERTEX
  5
409
  8
0
 10
2823.2951272384771073
 20
1337.9459349579060472
 30
0.0
  0
VERTEX
  5
40A
  8
0
 10
2823.2951272384771073
 20
1662.9459349579060472
 30
0.0
  0
SEQEND
  5
40B
  8
0
  0
POLYLINE
  5
2A4
  8
0
 66
     1
 10
0.0
 20
0.0
 30
0.0
 70
     1
  0
VERTEX
  5
40C
  8
0
 10
2823.2951272384771073
 20
1662.9459349579060472
 30
0.0
  0
VERTEX
  5
40D
  8
0
 10
2823.2951272384771073
 20
1337.9459349579060472
 30
0.0
  0
VERTEX
  5
40E
  8
0
 10
2816.2951272384761978
 20
1337.9459349579060472
 30
0.0
  0
VERTEX
  5
40F
  8
0
 10
2816.2951272384761978
 20
1662.9459349579060472
 30
0.0
  0
SEQEND
  5
410
  8
0
  0
POLYLINE
  5
2A5
  8
0
 66
     1
 10
0.0
 20
0.0
 30
0.0
 70
     1
  0
VERTEX
  5
411
  8
0
 10
2816.2951272384761978
 20
1662.9459349579060472
 30
0.0
  0
VERTEX
  5
412
  8
0
 10
2816.2951272384761978
 20
1337.9459349579060472
 30
0.0
  0
VERTEX
  5
413
  8
0
 10
2808.8951272384761069
 20
1337.9459349579060472
 30
0.0
  0
VERTEX
  5
414
  8
0
 10
2808.8951272384770164
 20
1662.9459349579060472
 30
0.0
  0
SEQEND
  5
415
  8
0
  0
POLYLINE
  5
2A6
  8
0
 66
     1
 10
0.0
 20
0.0
 30
0.0
 70
     1
  0
VERTEX
  5
416
  8
0
 10
2808.8951272384770164
 20
1662.9459349579060472
 30
0.0
  0
VERTEX
  5
417
  8
0
 10
2808.8951272384761069
 20
1337.9459349579060472
 30
0.0
  0
VERTEX
  5
418
  8
0
 10
2801.8951272384761069
 20
1337.9459349579060472
 30
0.0
  0
VERTEX
  5
419
  8
0
 10
2801.8951272384770164
 20
1662.9459349579060472
 30
0.0
  0
SEQEND
  5
41A
  8
0
  0
POLYLINE
  5
2A7
  8
0
 66
     1
 10
0.0
 20
0.0
 30
0.0
 70
     1
  0
VERTEX
  5
41B
  8
0
 10
2801.8951272384770164
 20
1662.9459349579060472
 30
0.0
  0
VERTEX
  5
41C
  8
0
 10
2801.8951272384761069
 20
1337.9459349579060472
 30
0.0
  0
VERTEX
  5
41D
  8
0
 10
2794.4951272384760159
 20
1337.9459349579060472
 30
0.0
  0
VERTEX
  5
41E
  8
0
 10
2794.4951272384760159
 20
1662.9459349579060472
 30
0.0
  0
SEQEND
  5
41F
  8
0
  0
POLYLINE
  5
2A8
  8
0
 66
     1
 10
0.0
 20
0.0
 30
0.0
 70
     1
  0
VERTEX
  5
420
  8
0
 10
2794.4951272384760159
 20
1662.9459349579060472
 30
0.0
  0
VERTEX
  5
421
  8
0
 10
2794.4951272384760159
 20
1337.9459349579060472
 30
0.0
  0
VERTEX
  5
422
  8
0
 10
2787.4951272384760159
 20
1337.9459349579060472
 30
0.0
  0
VERTEX
  5
423
  8
0
 10
2787.4951272384760159
 20
1662.9459349579060472
 30
0.0
  0
SEQEND
  5
424
  8
0
  0
POLYLINE
  5
2A9
  8
0
 66
     1
 10
0.0
 20
0.0
 30
0.0
 70
     1
  0
VERTEX
  5
425
  8
0
 10
2787.4951272384760159
 20
1662.9459349579060472
 30
0.0
  0
VERTEX
  5
426
  8
0
 10
2787.4951272384760159
 20
1337.9459349579060472
 30
0.0
  0
VERTEX
  5
427
  8
0
 10
2781.2951272384761978
 20
1337.9459349579060472
 30
0.0
  0
VERTEX
  5
428
  8
0
 10
2781.2951272384761978
 20
1662.9459349579060472
 30
0.0
  0
SEQEND
  5
429
  8
0
  0
POLYLINE
  5
2B1
  8
0
 66
     1
 10
0.0
 20
0.0
 30
0.0
 70
     1
  0
VERTEX
  5
42D
  8
0
 10
2781.2951272384761978
 20
1670.4621468351529074
 30
0.0
  0
VERTEX
  5
42E
  8
0
 10
2829.4951272384760159
 20
1670.4621468351529074
 30
0.0
  0
VERTEX
  5
42F
  8
0
 10
2829.4951272384760159
 20
1327.6574981256439969
 30
0.0
  0
VERTEX
  5
430
  8
0
 10
2781.2951272384761978
 20
1327.6574981256439969
 30
0.0
  0
SEQEND
  5
431
  8
0
  0
POLYLINE
  5
35E
  8
0
 66
     1
 10
0.0
 20
0.0
 30
0.0
 70
     1
  0
VERTEX
  5
432
  8
0
 10
2778.3951272384770164
 20
2032.9459349579060472
 30
0.0
  0
VERTEX
  5
433
  8
0
 10
2778.3951272384770164
 20
1707.9459349579060472
 30
0.0
  0
VERTEX
  5
434
  8
0
 10
2832.3951272384770164
 20
1707.9459349579060472
 30
0.0
  0
VERTEX
  5
435
  8
0
 10
2832.3951272384770164
 20
2032.9459349579060472
 30
0.0
  0
SEQEND
  5
436
  8
0
  0
POLYLINE
  5
35F
  8
0
 66
     1
 10
0.0
 20
0.0
 30
0.0
 70
     1
  0
VERTEX
  5
437
  8
0
 10
2829.4951272384769254
 20
2032.9459349579060472
 30
0.0
  0
VERTEX
  5
438
  8
0
 10
2829.4951272384760159
 20
1707.9459349579060472
 30
0.0
  0
VERTEX
  5
439
  8
0
 10
2823.2951272384771073
 20
1707.9459349579060472
 30
0.0
  0
VERTEX
  5
43A
  8
0
 10
2823.2951272384771073
 20
2032.9459349579060472
 30
0.0
  0
SEQEND
  5
43B
  8
0
  0
POLYLINE
  5
360
  8
0
 66
     1
 10
0.0
 20
0.0
 30
0.0
 70
     1
  0
VERTEX
  5
43C
  8
0
 10
2823.2951272384771073
 20
2032.9459349579060472
 30
0.0
  0
VERTEX
  5
43D
  8
0
 10
2823.2951272384771073
 20
1707.9459349579060472
 30
0.0
  0
VERTEX
  5
43E
  8
0
 10
2816.2951272384761978
 20
1707.9459349579060472
 30
0.0
  0
VERTEX
  5
43F
  8
0
 10
2816.2951272384761978
 20
2032.9459349579060472
 30
0.0
  0
SEQEND
  5
440
  8
0
  0
POLYLINE
  5
361
  8
0
 66
     1
 10
0.0
 20
0.0
 30
0.0
 70
     1
  0
VERTEX
  5
441
  8
0
 10
2816.2951272384761978
 20
2032.9459349579060472
 30
0.0
  0
VERTEX
  5
442
  8
0
 10
2816.2951272384761978
 20
1707.9459349579060472
 30
0.0
  0
VERTEX
  5
443
  8
0
 10
2808.8951272384761069
 20
1707.9459349579060472
 30
0.0
  0
VERTEX
  5
444
  8
0
 10
2808.8951272384770164
 20
2032.9459349579060472
 30
0.0
  0
SEQEND
  5
445
  8
0
  0
POLYLINE
  5
362
  8
0
 66
     1
 10
0.0
 20
0.0
 30
0.0
 70
     1
  0
VERTEX
  5
446
  8
0
 10
2808.8951272384770164
 20
2032.9459349579060472
 30
0.0
  0
VERTEX
  5
447
  8
0
 10
2808.8951272384761069
 20
1707.9459349579060472
 30
0.0
  0
VERTEX
  5
448
  8
0
 10
2801.8951272384761069
 20
1707.9459349579060472
 30
0.0
  0
VERTEX
  5
449
  8
0
 10
2801.8951272384770164
 20
2032.9459349579060472
 30
0.0
  0
SEQEND
  5
44A
  8
0
  0
POLYLINE
  5
363
  8
0
 66
     1
 10
0.0
 20
0.0
 30
0.0
 70
     1
  0
VERTEX
  5
44B
  8
0
 10
2801.8951272384770164
 20
2032.9459349579060472
 30
0.0
  0
VERTEX
  5
44C
  8
0
 10
2801.8951272384761069
 20
1707.9459349579060472
 30
0.0
  0
VERTEX
  5
44D
  8
0
 10
2794.4951272384760159
 20
1707.9459349579060472
 30
0.0
  0
VERTEX
  5
44E
  8
0
 10
2794.4951272384760159
 20
2032.9459349579060472
 30
0.0
  0
SEQEND
  5
44F
  8
0
  0
POLYLINE
  5
364
  8
0
 66
     1
 10
0.0
 20
0.0
 30
0.0
 70
     1
  0
VERTEX
  5
450
  8
0
 10
2794.4951272384760159
 20
2032.9459349579060472
 30
0.0
  0
VERTEX
  5
451
  8
0
 10
2794.4951272384760159
 20
1707.9459349579060472
 30
0.0
  0
VERTEX
  5
452
  8
0
 10
2787.4951272384760159
 20
1707.9459349579060472
 30
0.0
  0
VERTEX
  5
453
  8
0
 10
2787.4951272384760159
 20
2032.9459349579060472
 30
0.0
  0
SEQEND
  5
454
  8
0
  0
POLYLINE
  5
365
  8
0
 66
     1
 10
0.0
 20
0.0
 30
0.0
 70
     1
  0
VERTEX
  5
455
  8
0
 10
2787.4951272384760159
 20
2032.9459349579060472
 30
0.0
  0
VERTEX
  5
456
  8
0
 10
2787.4951272384760159
 20
1707.9459349579060472
 30
0.0
  0
VERTEX
  5
457
  8
0
 10
2781.2951272384761978
 20
1707.9459349579060472
 30
0.0
  0
VERTEX
  5
458
  8
0
 10
2781.2951272384761978
 20
2032.9459349579060472
 30
0.0
  0
SEQEND
  5
459
  8
0
  0
POLYLINE
  5
366
  8
0
 66
     1
 10
0.0
 20
0.0
 30
0.0
 70
     1
  0
VERTEX
  5
45A
  8
0
 10
2781.2951272384761978
 20
2040.4621468351529074
 30
0.0
  0
VERTEX
  5
45B
  8
0
 10
2829.4951272384760159
 20
2040.4621468351529074
 30
0.0
  0
VERTEX
  5
45C
  8
0
 10
2829.4951272384760159
 20
1697.6574981256439969
 30
0.0
  0
VERTEX
  5
45D
  8
0
 10
2781.2951272384761978
 20
1697.6574981256439969
 30
0.0
  0
SEQEND
  5
45E
  8
0
  0
POLYLINE
  5
367
  8
0
 66
     1
 10
0.0
 20
0.0
 30
0.0
 70
     1
  0
VERTEX
  5
45F
  8
0
 10
2778.3951272384770164
 20
2397.9459349579060472
 30
0.0
  0
VERTEX
  5
460
  8
0
 10
2778.3951272384770164
 20
2072.9459349579060472
 30
0.0
  0
VERTEX
  5
461
  8
0
 10
2832.3951272384770164
 20
2072.9459349579060472
 30
0.0
  0
VERTEX
  5
462
  8
0
 10
2832.3951272384770164
 20
2397.9459349579060472
 30
0.0
  0
SEQEND
  5
463
  8
0
  0
POLYLINE
  5
368
  8
0
 66
     1
 10
0.0
 20
0.0
 30
0.0
 70
     1
  0
VERTEX
  5
464
  8
0
 10
2829.4951272384769254
 20
2397.9459349579060472
 30
0.0
  0
VERTEX
  5
465
  8
0
 10
2829.4951272384760159
 20
2072.9459349579060472
 30
0.0
  0
VERTEX
  5
466
  8
0
 10
2823.2951272384771073
 20
2072.9459349579060472
 30
0.0
  0
VERTEX
  5
467
  8
0
 10
2823.2951272384771073
 20
2397.9459349579060472
 30
0.0
  0
SEQEND
  5
468
  8
0
  0
POLYLINE
  5
369
  8
0
 66
     1
 10
0.0
 20
0.0
 30
0.0
 70
     1
  0
VERTEX
  5
469
  8
0
 10
2823.2951272384771073
 20
2397.9459349579060472
 30
0.0
  0
VERTEX
  5
46A
  8
0
 10
2823.2951272384771073
 20
2072.9459349579060472
 30
0.0
  0
VERTEX
  5
46B
  8
0
 10
2816.2951272384761978
 20
2072.9459349579060472
 30
0.0
  0
VERTEX
  5
46C
  8
0
 10
2816.2951272384761978
 20
2397.9459349579060472
 30
0.0
  0
SEQEND
  5
46D
  8
0
  0
POLYLINE
  5
36A
  8
0
 66
     1
 10
0.0
 20
0.0
 30
0.0
 70
     1
  0
VERTEX
  5
46E
  8
0
 10
2816.2951272384761978
 20
2397.9459349579060472
 30
0.0
  0
VERTEX
  5
46F
  8
0
 10
2816.2951272384761978
 20
2072.9459349579060472
 30
0.0
  0
VERTEX
  5
470
  8
0
 10
2808.8951272384761069
 20
2072.9459349579060472
 30
0.0
  0
VERTEX
  5
471
  8
0
 10
2808.8951272384770164
 20
2397.9459349579060472
 30
0.0
  0
SEQEND
  5
472
  8
0
  0
POLYLINE
  5
36B
  8
0
 66
     1
 10
0.0
 20
0.0
 30
0.0
 70
     1
  0
VERTEX
  5
473
  8
0
 10
2808.8951272384770164
 20
2397.9459349579060472
 30
0.0
  0
VERTEX
  5
474
  8
0
 10
2808.8951272384761069
 20
2072.9459349579060472
 30
0.0
  0
VERTEX
  5
475
  8
0
 10
2801.8951272384761069
 20
2072.9459349579060472
 30
0.0
  0
VERTEX
  5
476
  8
0
 10
2801.8951272384770164
 20
2397.9459349579060472
 30
0.0
  0
SEQEND
  5
477
  8
0
  0
POLYLINE
  5
36C
  8
0
 66
     1
 10
0.0
 20
0.0
 30
0.0
 70
     1
  0
VERTEX
  5
478
  8
0
 10
2801.8951272384770164
 20
2397.9459349579060472
 30
0.0
  0
VERTEX
  5
479
  8
0
 10
2801.8951272384761069
 20
2072.9459349579060472
 30
0.0
  0
VERTEX
  5
47A
  8
0
 10
2794.4951272384760159
 20
2072.9459349579060472
 30
0.0
  0
VERTEX
  5
47B
  8
0
 10
2794.4951272384760159
 20
2397.9459349579060472
 30
0.0
  0
SEQEND
  5
47C
  8
0
  0
POLYLINE
  5
36D
  8
0
 66
     1
 10
0.0
 20
0.0
 30
0.0
 70
     1
  0
VERTEX
  5
47D
  8
0
 10
2794.4951272384760159
 20
2397.9459349579060472
 30
0.0
  0
VERTEX
  5
47E
  8
0
 10
2794.4951272384760159
 20
2072.9459349579060472
 30
0.0
  0
VERTEX
  5
47F
  8
0
 10
2787.4951272384760159
 20
2072.9459349579060472
 30
0.0
  0
VERTEX
  5
480
  8
0
 10
2787.4951272384760159
 20
2397.9459349579060472
 30
0.0
  0
SEQEND
  5
481
  8
0
  0
POLYLINE
  5
36E
  8
0
 66
     1
 10
0.0
 20
0.0
 30
0.0
 70
     1
  0
VERTEX
  5
482
  8
0
 10
2787.4951272384760159
 20
2397.9459349579060472
 30
0.0
  0
VERTEX
  5
483
  8
0
 10
2787.4951272384760159
 20
2072.9459349579060472
 30
0.0
  0
VERTEX
  5
484
  8
0
 10
2781.2951272384761978
 20
2072.9459349579060472
 30
0.0
  0
VERTEX
  5
485
  8
0
 10
2781.2951272384761978
 20
2397.9459349579060472
 30
0.0
  0
SEQEND
  5
486
  8
0
  0
POLYLINE
  5
36F
  8
0
 66
     1
 10
0.0
 20
0.0
 30
0.0
 70
     1
  0
VERTEX
  5
487
  8
0
 10
2781.2951272384761978
 20
2405.4621468351538169
 30
0.0
  0
VERTEX
  5
488
  8
0
 10
2829.4951272384760159
 20
2405.4621468351538169
 30
0.0
  0
VERTEX
  5
489
  8
0
 10
2829.4951272384760159
 20
2062.6574981256449064
 30
0.0
  0
VERTEX
  5
48A
  8
0
 10
2781.2951272384761978
 20
2062.6574981256449064
 30
0.0
  0
SEQEND
  5
48B
  8
0
  0
POLYLINE
  5
370
  8
0
 66
     1
 10
0.0
 20
0.0
 30
0.0
 70
     1
  0
VERTEX
  5
48C
  8
0
 10
2778.3951272384770164
 20
2762.9459349579060472
 30
0.0
  0
VERTEX
  5
48D
  8
0
 10
2778.3951272384770164
 20
2437.9459349579060472
 30
0.0
  0
VERTEX
  5
48E
  8
0
 10
2832.3951272384770164
 20
2437.9459349579060472
 30
0.0
  0
VERTEX
  5
48F
  8
0
 10
2832.3951272384770164
 20
2762.9459349579060472
 30
0.0
  0
SEQEND
  5
490
  8
0
  0
POLYLINE
  5
371
  8
0
 66
     1
 10
0.0
 20
0.0
 30
0.0
 70
     1
  0
VERTEX
  5
491
  8
0
 10
2829.4951272384769254
 20
2762.9459349579060472
 30
0.0
  0
VERTEX
  5
492
  8
0
 10
2829.4951272384760159
 20
2437.9459349579060472
 30
0.0
  0
VERTEX
  5
493
  8
0
 10
2823.2951272384771073
 20
2437.9459349579060472
 30
0.0
  0
VERTEX
  5
494
  8
0
 10
2823.2951272384771073
 20
2762.9459349579060472
 30
0.0
  0
SEQEND
  5
495
  8
0
  0
POLYLINE
  5
372
  8
0
 66
     1
 10
0.0
 20
0.0
 30
0.0
 70
     1
  0
VERTEX
  5
496
  8
0
 10
2823.2951272384771073
 20
2762.9459349579060472
 30
0.0
  0
VERTEX
  5
497
  8
0
 10
2823.2951272384771073
 20
2437.9459349579060472
 30
0.0
  0
VERTEX
  5
498
  8
0
 10
2816.2951272384761978
 20
2437.9459349579060472
 30
0.0
  0
VERTEX
  5
499
  8
0
 10
2816.2951272384761978
 20
2762.9459349579060472
 30
0.0
  0
SEQEND
  5
49A
  8
0
  0
POLYLINE
  5
373
  8
0
 66
     1
 10
0.0
 20
0.0
 30
0.0
 70
     1
  0
VERTEX
  5
49B
  8
0
 10
2816.2951272384761978
 20
2762.9459349579060472
 30
0.0
  0
VERTEX
  5
49C
  8
0
 10
2816.2951272384761978
 20
2437.9459349579060472
 30
0.0
  0
VERTEX
  5
49D
  8
0
 10
2808.8951272384761069
 20
2437.9459349579060472
 30
0.0
  0
VERTEX
  5
49E
  8
0
 10
2808.8951272384770164
 20
2762.9459349579060472
 30
0.0
  0
SEQEND
  5
49F
  8
0
  0
POLYLINE
  5
374
  8
0
 66
     1
 10
0.0
 20
0.0
 30
0.0
 70
     1
  0
VERTEX
  5
4A0
  8
0
 10
2808.8951272384770164
 20
2762.9459349579060472
 30
0.0
  0
VERTEX
  5
4A1
  8
0
 10
2808.8951272384761069
 20
2437.9459349579060472
 30
0.0
  0
VERTEX
  5
4A2
  8
0
 10
2801.8951272384761069
 20
2437.9459349579060472
 30
0.0
  0
VERTEX
  5
4A3
  8
0
 10
2801.8951272384770164
 20
2762.9459349579060472
 30
0.0
  0
SEQEND
  5
4A4
  8
0
  0
POLYLINE
  5
375
  8
0
 66
     1
 10
0.0
 20
0.0
 30
0.0
 70
     1
  0
VERTEX
  5
4A5
  8
0
 10
2801.8951272384770164
 20
2762.9459349579060472
 30
0.0
  0
VERTEX
  5
4A6
  8
0
 10
2801.8951272384761069
 20
2437.9459349579060472
 30
0.0
  0
VERTEX
  5
4A7
  8
0
 10
2794.4951272384760159
 20
2437.9459349579060472
 30
0.0
  0
VERTEX
  5
4A8
  8
0
 10
2794.4951272384760159
 20
2762.9459349579060472
 30
0.0
  0
SEQEND
  5
4A9
  8
0
  0
POLYLINE
  5
376
  8
0
 66
     1
 10
0.0
 20
0.0
 30
0.0
 70
     1
  0
VERTEX
  5
4AA
  8
0
 10
2794.4951272384760159
 20
2762.9459349579060472
 30
0.0
  0
VERTEX
  5
4AB
  8
0
 10
2794.4951272384760159
 20
2437.9459349579060472
 30
0.0
  0
VERTEX
  5
4AC
  8
0
 10
2787.4951272384760159
 20
2437.9459349579060472
 30
0.0
  0
VERTEX
  5
4AD
  8
0
 10
2787.4951272384760159
 20
2762.9459349579060472
 30
0.0
  0
SEQEND
  5
4AE
  8
0
  0
POLYLINE
  5
377
  8
0
 66
     1
 10
0.0
 20
0.0
 30
0.0
 70
     1
  0
VERTEX
  5
4AF
  8
0
 10
2787.4951272384760159
 20
2762.9459349579060472
 30
0.0
  0
VERTEX
  5
4B0
  8
0
 10
2787.4951272384760159
 20
2437.9459349579060472
 30
0.0
  0
VERTEX
  5
4B1
  8
0
 10
2781.2951272384761978
 20
2437.9459349579060472
 30
0.0
  0
VERTEX
  5
4B2
  8
0
 10
2781.2951272384761978
 20
2762.9459349579060472
 30
0.0
  0
SEQEND
  5
4B3
  8
0
  0
POLYLINE
  5
378
  8
0
 66
     1
 10
0.0
 20
0.0
 30
0.0
 70
     1
  0
VERTEX
  5
4B4
  8
0
 10
2781.2951272384761978
 20
2770.4621468351538169
 30
0.0
  0
VERTEX
  5
4B5
  8
0
 10
2829.4951272384760159
 20
2770.4621468351538169
 30
0.0
  0
VERTEX
  5
4B6
  8
0
 10
2829.4951272384760159
 20
2427.6574981256449064
 30
0.0
  0
VERTEX
  5
4B7
  8
0
 10
2781.2951272384761978
 20
2427.6574981256449064
 30
0.0
  0
SEQEND
  5
4B8
  8
0
  0
POLYLINE
  5
385
  8
0
 66
     1
 10
0.0
 20
0.0
 30
0.0
 70
     1
  0
VERTEX
  5
4D7
  8
0
 10
2789.4951272384769254
 20
3127.9459349579060472
 30
0.0
  0
VERTEX
  5
4D8
  8
0
 10
2789.4951272384769254
 20
2802.9459349579060472
 30
0.0
  0
VERTEX
  5
4D9
  8
0
 10
2829.4951272384769254
 20
2802.9459349579060472
 30
0.0
  0
VERTEX
  5
4DA
  8
0
 10
2829.4951272384769254
 20
3127.9459349579060472
 30
0.0
  0
SEQEND
  5
4DB
  8
0
  0
POLYLINE
  5
386
  8
0
 66
     1
 10
0.0
 20
0.0
 30
0.0
 70
     1
  0
VERTEX
  5
4DC
  8
0
 10
2826.3951272384770164
 20
3127.9459349579060472
 30
0.0
  0
VERTEX
  5
4DD
  8
0
 10
2826.3951272384770164
 20
2802.9459349579060472
 30
0.0
  0
VERTEX
  5
4DE
  8
0
 10
2820.1951272384771983
 20
2802.9459349579060472
 30
0.0
  0
VERTEX
  5
4DF
  8
0
 10
2820.1951272384771983
 20
3127.9459349579060472
 30
0.0
  0
SEQEND
  5
4E0
  8
0
  0
POLYLINE
  5
387
  8
0
 66
     1
 10
0.0
 20
0.0
 30
0.0
 70
     1
  0
VERTEX
  5
4E1
  8
0
 10
2820.1951272384771983
 20
3127.9459349579060472
 30
0.0
  0
VERTEX
  5
4E2
  8
0
 10
2820.1951272384771983
 20
2802.9459349579060472
 30
0.0
  0
VERTEX
  5
4E3
  8
0
 10
2813.1951272384771983
 20
2802.9459349579060472
 30
0.0
  0
VERTEX
  5
4E4
  8
0
 10
2813.1951272384771983
 20
3127.9459349579060472
 30
0.0
  0
SEQEND
  5
4E5
  8
0
  0
POLYLINE
  5
388
  8
0
 66
     1
 10
0.0
 20
0.0
 30
0.0
 70
     1
  0
VERTEX
  5
4E6
  8
0
 10
2813.1951272384771983
 20
3127.9459349579060472
 30
0.0
  0
VERTEX
  5
4E7
  8
0
 10
2813.1951272384771983
 20
2802.9459349579060472
 30
0.0
  0
VERTEX
  5
4E8
  8
0
 10
2805.7951272384771073
 20
2802.9459349579060472
 30
0.0
  0
VERTEX
  5
4E9
  8
0
 10
2805.7951272384771073
 20
3127.9459349579060472
 30
0.0
  0
SEQEND
  5
4EA
  8
0
  0
POLYLINE
  5
389
  8
0
 66
     1
 10
0.0
 20
0.0
 30
0.0
 70
     1
  0
VERTEX
  5
4EB
  8
0
 10
2805.7951272384771073
 20
3127.9459349579060472
 30
0.0
  0
VERTEX
  5
4EC
  8
0
 10
2805.7951272384771073
 20
2802.9459349579060472
 30
0.0
  0
VERTEX
  5
4ED
  8
0
 10
2798.7951272384771073
 20
2802.9459349579060472
 30
0.0
  0
VERTEX
  5
4EE
  8
0
 10
2798.7951272384771073
 20
3127.9459349579060472
 30
0.0
  0
SEQEND
  5
4EF
  8
0
  0
POLYLINE
  5
38A
  8
0
 66
     1
 10
0.0
 20
0.0
 30
0.0
 70
     1
  0
VERTEX
  5
4F0
  8
0
 10
2798.7951272384771073
 20
3127.9459349579060472
 30
0.0
  0
VERTEX
  5
4F1
  8
0
 10
2798.7951272384771073
 20
2802.9459349579060472
 30
0.0
  0
VERTEX
  5
4F2
  8
0
 10
2792.5951272384768345
 20
2802.9459349579060472
 30
0.0
  0
VERTEX
  5
4F3
  8
0
 10
2792.5951272384768345
 20
3127.9459349579060472
 30
0.0
  0
SEQEND
  5
4F4
  8
0
  0
POLYLINE
  5
38C
  8
0
 66
     1
 10
0.0
 20
0.0
 30
0.0
 70
     1
  0
VERTEX
  5
4F5
  8
0
 10
2792.5951272384768345
 20
3137.9459349579060472
 30
0.0
  0
VERTEX
  5
4F6
  8
0
 10
2826.3951272384770164
 20
3137.9459349579060472
 30
0.0
  0
VERTEX
  5
4F7
  8
0
 10
2826.3951272384770164
 20
2792.9459349579060472
 30
0.0
  0
VERTEX
  5
4F8
  8
0
 10
2792.5951272384768345
 20
2792.9459349579060472
 30
0.0
  0
SEQEND
  5
4F9
  8
0
  0
ENDSEC
  0
EOF
