  0
SECTION
  2
HEADER
  9
$ACADVER
  1
AC1009
  9
$INSBASE
 10
0.0
 20
0.0
 30
0.0
  9
$EXTMIN
 10
-3.0
 20
0.0
 30
0.0
  9
$EXTMAX
 10
426.3213312818360237
 20
178.0
 30
0.0
  9
$LIMMIN
 10
0.0
 20
0.0
  9
$LIMMAX
 10
420.0
 20
297.0
  9
$ORTHOMODE
 70
     0
  9
$REGENMODE
 70
     1
  9
$FILLMODE
 70
     1
  9
$QTEXTMODE
 70
     0
  9
$MIRRTEXT
 70
     0
  9
$DRAGMODE
 70
     2
  9
$LTSCALE
 40
1.0
  9
$OSMODE
 70
  1327
  9
$ATTMODE
 70
     1
  9
$TEXTSIZE
 40
2.5
  9
$TRACEWID
 40
1.0
  9
$TEXTSTYLE
  7
STANDARD
  9
$CLAYER
  8
0
  9
$CELTYPE
  6
BYLAYER
  9
$CECOLOR
 62
   256
  9
$DIMSCALE
 40
1.0
  9
$DIMASZ
 40
2.5
  9
$DIMEXO
 40
0.625
  9
$DIMDLI
 40
3.75
  9
$DIMRND
 40
0.0
  9
$DIMDLE
 40
0.0
  9
$DIMEXE
 40
1.25
  9
$DIMTP
 40
0.0
  9
$DIMTM
 40
0.0
  9
$DIMTXT
 40
2.5
  9
$DIMCEN
 40
2.5
  9
$DIMTSZ
 40
0.0
  9
$DIMTOL
 70
     0
  9
$DIMLIM
 70
     0
  9
$DIMTIH
 70
     0
  9
$DIMTOH
 70
     0
  9
$DIMSE1
 70
     0
  9
$DIMSE2
 70
     0
  9
$DIMTAD
 70
     1
  9
$DIMZIN
 70
     8
  9
$DIMBLK
  1

  9
$DIMASO
 70
     1
  9
$DIMSHO
 70
     1
  9
$DIMPOST
  1

  9
$DIMAPOST
  1

  9
$DIMALT
 70
     0
  9
$DIMALTD
 70
     3
  9
$DIMALTF
 40
0.03937007874016
  9
$DIMLFAC
 40
1.0
  9
$DIMTOFL
 70
     1
  9
$DIMTVP
 40
0.0
  9
$DIMTIX
 70
     0
  9
$DIMSOXD
 70
     0
  9
$DIMSAH
 70
     0
  9
$DIMBLK1
  1

  9
$DIMBLK2
  1

  9
$DIMSTYLE
  2
ISO-25
  9
$DIMCLRD
 70
     0
  9
$DIMCLRE
 70
     0
  9
$DIMCLRT
 70
     0
  9
$DIMTFAC
 40
1.0
  9
$DIMGAP
 40
0.625
  9
$LUNITS
 70
     2
  9
$LUPREC
 70
     4
  9
$SKETCHINC
 40
1.0
  9
$FILLETRAD
 40
10.0
  9
$AUNITS
 70
     0
  9
$AUPREC
 70
     0
  9
$MENU
  1
.
  9
$ELEVATION
 40
0.0
  9
$PELEVATION
 40
0.0
  9
$THICKNESS
 40
0.0
  9
$LIMCHECK
 70
     0
  9
$BLIPMODE
 70
     0
  9
$CHAMFERA
 40
3.0
  9
$CHAMFERB
 40
3.0
  9
$SKPOLY
 70
     0
  9
$TDCREATE
 40
2460714.2763657411560416
  9
$TDUPDATE
 40
2460780.642708333209157
  9
$TDINDWG
 40
0.1048611111
  9
$TDUSRTIMER
 40
0.1048611111
  9
$USRTIMER
 70
     1
  9
$ANGBASE
 50
0.0
  9
$ANGDIR
 70
     0
  9
$PDMODE
 70
     0
  9
$PDSIZE
 40
0.0
  9
$PLINEWID
 40
0.0
  9
$COORDS
 70
     1
  9
$SPLFRAME
 70
     0
  9
$SPLINETYPE
 70
     6
  9
$SPLINESEGS
 70
     8
  9
$ATTDIA
 70
     1
  9
$ATTREQ
 70
     1
  9
$HANDLING
 70
     1
  9
$HANDSEED
  5
CBE
  9
$SURFTAB1
 70
     6
  9
$SURFTAB2
 70
     6
  9
$SURFTYPE
 70
     6
  9
$SURFU
 70
     6
  9
$SURFV
 70
     6
  9
$UCSNAME
  2

  9
$UCSORG
 10
0.0
 20
0.0
 30
0.0
  9
$UCSXDIR
 10
1.0
 20
0.0
 30
0.0
  9
$UCSYDIR
 10
0.0
 20
1.0
 30
0.0
  9
$PUCSNAME
  2

  9
$PUCSORG
 10
0.0
 20
0.0
 30
0.0
  9
$PUCSXDIR
 10
1.0
 20
0.0
 30
0.0
  9
$PUCSYDIR
 10
0.0
 20
1.0
 30
0.0
  9
$USERI1
 70
     0
  9
$USERI2
 70
     0
  9
$USERI3
 70
     0
  9
$USERI4
 70
     0
  9
$USERI5
 70
     0
  9
$USERR1
 40
0.0
  9
$USERR2
 40
0.0
  9
$USERR3
 40
0.0
  9
$USERR4
 40
0.0
  9
$USERR5
 40
0.0
  9
$WORLDVIEW
 70
     1
  9
$SHADEDGE
 70
     3
  9
$SHADEDIF
 70
    70
  9
$TILEMODE
 70
     1
  9
$MAXACTVP
 70
    64
  9
$PLIMCHECK
 70
     0
  9
$PEXTMIN
 10
0.0
 20
0.0
 30
0.0
  9
$PEXTMAX
 10
0.0
 20
0.0
 30
0.0
  9
$PLIMMIN
 10
0.0
 20
0.0
  9
$PLIMMAX
 10
12.0
 20
9.0
  9
$UNITMODE
 70
     0
  9
$VISRETAIN
 70
     1
  9
$PLINEGEN
 70
     0
  9
$PSLTSCALE
 70
     1
  0
ENDSEC
  0
SECTION
  2
TABLES
  0
TABLE
  2
VPORT
 70
     1
  0
VPORT
  2
*ACTIVE
 70
     0
 10
0.0
 20
0.0
 11
1.0
 21
1.0
 12
127.1310374192348007
 22
58.0218699996863734
 13
0.0
 23
0.0
 14
10.0
 24
10.0
 15
10.0
 25
10.0
 16
0.0
 26
0.0
 36
1.0
 17
0.0
 27
0.0
 37
0.0
 40
201.0184603301100026
 41
2.2927120669056151
 42
50.0
 43
0.0
 44
0.0
 50
0.0
 51
0.0
 71
     0
 72
  1000
 73
     1
 74
     3
 75
     0
 76
     1
 77
     0
 78
     0
  0
ENDTAB
  0
TABLE
  2
LTYPE
 70
     6
  0
LTYPE
  2
CONTINUOUS
 70
     0
  3
Solid line
 72
    65
 73
     0
 40
0.0
  0
LTYPE
  2
SLD-SÓLIDA
 70
     0
  3
SolidWorks Line Style
 72
    65
 73
     0
 40
0.0
  0
LTYPE
  2
SLD-TRACEJADA
 70
     0
  3
SolidWorks Line Style
 72
    65
 73
     2
 40
1.905
 49
1.27
 49
-0.635
  0
LTYPE
  2
SLD-MISTA-DUPLA
 70
     0
  3
SolidWorks Line Style
 72
    65
 73
     6
 40
12.6999999999999993
 49
6.349999999999997
 49
-1.27
 49
1.27
 49
-1.27
 49
1.27
 49
-1.27
  0
LTYPE
  2
SLD-MISTA-LONGA
 70
     0
  3
SolidWorks Line Style
 72
    65
 73
     4
 40
19.0500000000000007
 49
15.2400000000000002
 49
-1.27
 49
1.27
 49
-1.27
  0
ENDTAB
  0
TABLE
  2
LAYER
 70
     3
  0
LAYER
  2
0
 70
     0
 62
     7
  6
CONTINUOUS
  0
LAYER
  2
COTAS
 70
     0
 62
   176
  6
SLD-SÓLIDA
  0
LAYER
  2
DEFPOINTS
 70
     0
 62
     7
  6
CONTINUOUS
  0
ENDTAB
  0
TABLE
  2
STYLE
 70
     3
  0
STYLE
  2
STANDARD
 70
     0
 40
0.0
 41
1.0
 50
0.0
 71
     0
 42
2.5
  3
txt
  4

  0
STYLE
  2
ANNOTATIVE
 70
     0
 40
0.0
 41
1.0
 50
0.0
 71
     0
 42
2.5
  3
txt
  4

  0
STYLE
  2
SLDTEXTSTYLE2
 70
     0
 40
0.0
 41
0.75
 50
0.0
 71
     0
 42
3.5
  3
TXT
  4

  0
ENDTAB
  0
TABLE
  2
VIEW
 70
     0
  0
ENDTAB
  0
TABLE
  2
UCS
 70
     0
  0
ENDTAB
  0
TABLE
  2
APPID
 70
     9
  0
APPID
  2
ACAD
 70
     0
  0
APPID
  2
ACADANNOTATIVE
 70
     0
  0
APPID
  2
ACAD_PSEXT
 70
     0
  0
APPID
  2
ACADANNOPO
 70
     0
  0
APPID
  2
ACAD_DSTYLE_DIMJAG
 70
     0
  0
APPID
  2
ACAD_DSTYLE_DIMTALN
 70
     0
  0
APPID
  2
ACAD_MLEADERVER
 70
     0
  0
APPID
  2
ACAD_NAV_VCDISPLAY
 70
     0
  0
APPID
  2
ACAD_EXEMPT_FROM_CAD_STANDARDS
 70
     0
  0
ENDTAB
  0
TABLE
  2
DIMSTYLE
 70
    11
  0
DIMSTYLE
  2
STANDARD
 70
     0
  3

  4

  5

  6

  7

 40
1.0
 41
0.18
 42
0.0625
 43
0.38
 44
0.18
 45
0.0
 46
0.0
 47
0.0
 48
0.0
140
0.18
141
0.09
142
0.0
143
25.3999999999999986
144
1.0
145
0.0
146
1.0
147
0.09
 71
     0
 72
     0
 73
     1
 74
     1
 75
     0
 76
     0
 77
     0
 78
     0
170
     0
171
     2
172
     0
173
     0
174
     0
175
     0
176
     0
177
     0
178
     0
  0
DIMSTYLE
  2
ANNOTATIVE
 70
     0
  3

  4

  5

  6

  7

 40
0.0
 41
2.5
 42
0.625
 43
3.75
 44
1.25
 45
0.0
 46
0.0
 47
0.0
 48
0.0
140
2.5
141
2.5
142
0.0
143
0.03937007874016
144
1.0
145
0.0
146
1.0
147
0.625
 71
     0
 72
     0
 73
     0
 74
     0
 75
     0
 76
     0
 77
     1
 78
     8
170
     0
171
     3
172
     1
173
     0
174
     0
175
     0
176
     0
177
     0
178
     0
  0
DIMSTYLE
  2
ISO-25
 70
     0
  3

  4

  5

  6

  7

 40
1.0
 41
2.5
 42
0.625
 43
3.75
 44
1.25
 45
0.0
 46
0.0
 47
0.0
 48
0.0
140
2.5
141
2.5
142
0.0
143
0.03937007874016
144
1.0
145
0.0
146
1.0
147
0.625
 71
     0
 72
     0
 73
     0
 74
     0
 75
     0
 76
     0
 77
     1
 78
     8
170
     0
171
     3
172
     1
173
     0
174
     0
175
     0
176
     0
177
     0
178
     0
  0
DIMSTYLE
  2
SLDDIMSTYLE0
 70
     0
  3

  4

  5

  6

  7

 40
1.0
 41
0.3386666666666667
 42
0.0625
 43
0.38
 44
0.0
 45
0.000000001
 46
0.0
 47
0.0
 48
0.0
140
3.5
141
0.09
142
0.0
143
25.3999999999999986
144
2.0
145
0.0
146
1.0
147
0.875
 71
     0
 72
     0
 73
     1
 74
     1
 75
     0
 76
     0
 77
     0
 78
     8
170
     0
171
     2
172
     0
173
     1
174
     0
175
     0
176
     0
177
     0
178
     0
  0
DIMSTYLE
  2
SLDDIMSTYLE1
 70
     0
  3

  4

  5

  6

  7

 40
1.0
 41
3.3019999999999992
 42
0.0625
 43
0.38
 44
0.0
 45
0.000000001
 46
0.0
 47
0.0
 48
0.0
140
3.5
141
0.09
142
0.0
143
25.3999999999999986
144
2.0
145
0.0
146
1.0
147
0.875
 71
     0
 72
     0
 73
     1
 74
     1
 75
     0
 76
     0
 77
     0
 78
    12
170
     0
171
     2
172
     0
173
     1
174
     0
175
     0
176
     0
177
     0
178
     0
  0
DIMSTYLE
  2
SLDDIMSTYLE2
 70
     0
  3

  4

  5

  6

  7

 40
1.0
 41
3.3019999999999992
 42
0.0625
 43
0.38
 44
0.0
 45
0.000000001
 46
0.0
 47
0.021
 48
0.0
140
3.5
141
0.0
142
0.0
143
25.3999999999999986
144
2.0
145
0.0
146
1.0
147
0.875
 71
     1
 72
     0
 73
     0
 74
     0
 75
     0
 76
     0
 77
     1
 78
    12
170
     0
171
     2
172
     1
173
     1
174
     0
175
     0
176
     0
177
     0
178
     0
  0
DIMSTYLE
  2
SLDDIMSTYLE3
 70
     0
  3

  4

  5

  6

  7

 40
1.0
 41
3.3019999999999992
 42
0.0625
 43
0.38
 44
0.0
 45
0.000000001
 46
0.0
 47
0.01
 48
0.01
140
3.5
141
0.09
142
0.0
143
25.3999999999999986
144
2.0
145
0.0
146
1.0
147
0.875
 71
     1
 72
     0
 73
     0
 74
     0
 75
     0
 76
     0
 77
     1
 78
    12
170
     0
171
     2
172
     0
173
     1
174
     0
175
     0
176
     0
177
     0
178
     0
  0
DIMSTYLE
  2
SLDDIMSTYLE4
 70
     0
  3

  4

  5

  6

  7

 40
1.0
 41
3.3019999999999992
 42
0.0625
 43
0.38
 44
0.0
 45
0.000000001
 46
0.0
 47
0.0
 48
0.0
140
3.5
141
0.0
142
0.0
143
25.3999999999999986
144
2.0
145
0.0
146
1.0
147
0.875
 71
     0
 72
     0
 73
     0
 74
     0
 75
     0
 76
     0
 77
     1
 78
    12
170
     0
171
     2
172
     0
173
     1
174
     0
175
     0
176
     0
177
     0
178
     0
  0
DIMSTYLE
  2
SLDDIMSTYLE5
 70
     0
  3

  4

  5

  6

  7

 40
1.0
 41
3.3019999999999992
 42
0.0625
 43
0.38
 44
0.0
 45
0.000000001
 46
0.0
 47
0.0
 48
0.0
140
3.5
141
0.09
142
0.0
143
25.3999999999999986
144
2.0
145
0.0
146
1.0
147
0.875
 71
     0
 72
     0
 73
     0
 74
     0
 75
     0
 76
     0
 77
     1
 78
    12
170
     0
171
     2
172
     0
173
     1
174
     0
175
     0
176
     0
177
     0
178
     0
  0
DIMSTYLE
  2
SLDDIMSTYLE6
 70
     0
  3

  4

  5

  6

  7

 40
1.0
 41
3.3019999999999992
 42
0.0625
 43
0.38
 44
0.0
 45
0.000000001
 46
0.0
 47
0.0
 48
0.0
140
3.5
141
0.0
142
0.0
143
25.3999999999999986
144
2.0
145
0.0
146
1.0
147
0.875
 71
     0
 72
     0
 73
     0
 74
     0
 75
     0
 76
     0
 77
     1
 78
    12
170
     0
171
     2
172
     0
173
     1
174
     0
175
     0
176
     0
177
     0
178
     0
  0
ENDTAB
  0
ENDSEC
  0
SECTION
  2
BLOCKS
  0
BLOCK
  8
0
  2
$MODEL_SPACE
 70
     0
 10
0.0
 20
0.0
 30
0.0
  3
$MODEL_SPACE
  1

  0
ENDBLK
  5
B37
  8
0
  0
BLOCK
 67
     1
  8
0
  2
$PAPER_SPACE
 70
     0
 10
0.0
 20
0.0
 30
0.0
  3
$PAPER_SPACE
  1

  0
ENDBLK
  5
B33
 67
     1
  8
0
  0
BLOCK
  8
0
  2
_ORIGIN
 70
     0
 10
0.0
 20
0.0
 30
0.0
  3
_ORIGIN
  1

  0
CIRCLE
  5
2B2
  8
0
  6
BYBLOCK
 62
     0
 10
0.0
 20
0.0
 30
0.0
 40
0.5
  0
LINE
  5
2B3
  8
0
  6
BYBLOCK
 62
     0
 10
0.0
 20
0.0
 30
0.0
 11
-1.0
 21
0.0
 31
0.0
  0
ENDBLK
  5
2B4
  8
0
  0
BLOCK
  8
0
  2
_D
 70
     0
 10
0.0
 20
0.0
 30
0.0
  3
_D
  1

  0
INSERT
  5
2B7
  8
COTAS
  2
_ORIGIN
 10
131.5363999999989915
 20
153.2047509270524017
 30
0.0
 41
1.016
 42
1.016
 50
0.0000000000004071
  0
LINE
  5
2B8
  8
COTAS
 10
131.5363999999989915
 20
166.1337678148269106
 30
0.0
 11
131.5363999999989915
 21
152.1887509270524959
 31
0.0
  0
INSERT
  5
2B9
  8
0
  2
*U4
 10
0.0
 20
0.0
 30
0.0
  0
ENDBLK
  5
2BA
  8
0
  0
BLOCK
  8
0
  2
*U4
 70
     1
 10
0.0
 20
0.0
 30
0.0
  3
*U4
  1

  0
TEXT
  5
75B
  8
COTAS
 10
133.3027880809497105
 20
149.6026397335295997
 30
0.0
 40
3.5
  1
0
 50
90.0000000000003837
 41
0.75
  7
SLDTEXTSTYLE2
  0
ENDBLK
  5
75D
  8
0
  0
BLOCK
  8
0
  2
_D_1
 70
     0
 10
0.0
 20
0.0
 30
0.0
  3
_D_1
  1

  0
SOLID
  5
2BD
  8
COTAS
 10
104.2864000000020042
 20
153.2047509270524017
 30
0.0
 11
107.5884000000019967
 21
152.6967509270525056
 31
0.0
 12
107.5884000000019967
 22
153.7127509270524968
 32
0.0
 13
107.5884000000019967
 23
153.7127509270524968
 33
0.0
  0
LINE
  5
2BE
  8
COTAS
 10
104.2864000000020042
 20
201.912399999999991
 30
0.0
 11
104.2864000000020042
 21
152.1887509270524959
 31
0.0
  0
LINE
  5
2BF
  8
COTAS
 10
131.5363999999989915
 20
153.2047509270524017
 30
0.0
 11
104.2864000000020042
 21
153.2047509270524017
 31
0.0
  0
INSERT
  5
2C0
  8
0
  2
*U6
 10
0.0
 20
0.0
 30
0.0
  0
ENDBLK
  5
2C1
  8
0
  0
BLOCK
  8
0
  2
*U6
 70
     1
 10
0.0
 20
0.0
 30
0.0
  3
*U6
  1

  0
TEXT
  5
75F
  8
COTAS
 10
106.0527880809527943
 20
140.5512504397844111
 30
0.0
 40
3.5
  1
54,50
 50
90.0000000000003837
 41
0.75
  7
SLDTEXTSTYLE2
  0
ENDBLK
  5
761
  8
0
  0
BLOCK
  8
0
  2
_D_2
 70
     0
 10
0.0
 20
0.0
 30
0.0
  3
_D_2
  1

  0
SOLID
  5
2C4
  8
COTAS
 10
92.7864000000021605
 20
153.2047509270524017
 30
0.0
 11
96.088400000002153
 21
152.6967509270523919
 31
0.0
 12
96.088400000002153
 22
153.7127509270524968
 32
0.0
 13
96.088400000002153
 23
153.7127509270524968
 33
0.0
  0
LINE
  5
2C5
  8
COTAS
 10
92.7864000000021605
 20
200.6624000000003036
 30
0.0
 11
92.7864000000021605
 21
152.1887509270524106
 31
0.0
  0
LINE
  5
2C6
  8
COTAS
 10
104.2864000000020042
 20
153.2047509270524017
 30
0.0
 11
92.7864000000021605
 21
153.2047509270524017
 31
0.0
  0
INSERT
  5
2C7
  8
0
  2
*U8
 10
0.0
 20
0.0
 30
0.0
  0
ENDBLK
  5
2C8
  8
0
  0
BLOCK
  8
0
  2
*U8
 70
     1
 10
0.0
 20
0.0
 30
0.0
  3
*U8
  1

  0
TEXT
  5
763
  8
COTAS
 10
94.5527880809529648
 20
140.5512504397844111
 30
0.0
 40
3.5
  1
77,50
 50
90.0000000000003837
 41
0.75
  7
SLDTEXTSTYLE2
  0
ENDBLK
  5
765
  8
0
  0
BLOCK
  8
0
  2
_D_3
 70
     0
 10
0.0
 20
0.0
 30
0.0
  3
_D_3
  1

  0
SOLID
  5
2CB
  8
COTAS
 10
84.2864000000019331
 20
153.2047509270524017
 30
0.0
 11
87.5884000000019398
 21
152.6967509270523919
 31
0.0
 12
87.5884000000019398
 22
153.7127509270524968
 32
0.0
 13
87.5884000000019398
 23
153.7127509270524968
 33
0.0
  0
LINE
  5
2CC
  8
COTAS
 10
84.2864000000019331
 20
170.4123999999999057
 30
0.0
 11
84.2864000000019331
 21
152.1887509270524106
 31
0.0
  0
LINE
  5
2CD
  8
COTAS
 10
92.7864000000021605
 20
153.2047509270524017
 30
0.0
 11
84.2864000000019331
 21
153.2047509270524017
 31
0.0
  0
INSERT
  5
2CE
  8
0
  2
*U10
 10
0.0
 20
0.0
 30
0.0
  0
ENDBLK
  5
2CF
  8
0
  0
BLOCK
  8
0
  2
*U10
 70
     1
 10
0.0
 20
0.0
 30
0.0
  3
*U10
  1

  0
TEXT
  5
767
  8
COTAS
 10
86.0527880809528369
 20
140.5512504397844111
 30
0.0
 40
3.5
  1
94,50
 50
90.0000000000003837
 41
0.75
  7
SLDTEXTSTYLE2
  0
ENDBLK
  5
769
  8
0
  0
BLOCK
  8
0
  2
_D_4
 70
     0
 10
0.0
 20
0.0
 30
0.0
  3
_D_4
  1

  0
SOLID
  5
2D2
  8
COTAS
 10
159.286399999999702
 20
153.2047509270524017
 30
0.0
 11
155.9843999999997948
 21
153.7127509270524968
 31
0.0
 12
155.9843999999997948
 22
152.6967509270525056
 32
0.0
 13
155.9843999999997948
 23
152.6967509270525056
 33
0.0
  0
LINE
  5
2D3
  8
COTAS
 10
159.286399999999702
 20
200.412399999999991
 30
0.0
 11
159.286399999999702
 21
152.1887509270524959
 31
0.0
  0
LINE
  5
2D4
  8
COTAS
 10
131.5363999999989915
 20
153.2047509270524017
 30
0.0
 11
159.286399999999702
 21
153.2047509270524017
 31
0.0
  0
INSERT
  5
2D5
  8
0
  2
*U12
 10
0.0
 20
0.0
 30
0.0
  0
ENDBLK
  5
2D6
  8
0
  0
BLOCK
  8
0
  2
*U12
 70
     1
 10
0.0
 20
0.0
 30
0.0
  3
*U12
  1

  0
TEXT
  5
76B
  8
COTAS
 10
161.0527880809505916
 20
140.5512504397844111
 30
0.0
 40
3.5
  1
55,50
 50
90.0000000000003837
 41
0.75
  7
SLDTEXTSTYLE2
  0
ENDBLK
  5
76D
  8
0
  0
BLOCK
  8
0
  2
_D_5
 70
     0
 10
0.0
 20
0.0
 30
0.0
  3
_D_5
  1

  0
SOLID
  5
2D9
  8
COTAS
 10
170.7863999999991051
 20
153.2047509270524017
 30
0.0
 11
167.4843999999991127
 21
153.7127509270524968
 31
0.0
 12
167.4843999999991127
 22
152.6967509270525056
 32
0.0
 13
167.4843999999991127
 23
152.6967509270525056
 33
0.0
  0
LINE
  5
2DA
  8
COTAS
 10
170.7863999999991051
 20
214.412399999999991
 30
0.0
 11
170.7863999999991051
 21
152.1887509270524959
 31
0.0
  0
LINE
  5
2DB
  8
COTAS
 10
159.286399999999702
 20
153.2047509270524017
 30
0.0
 11
170.7863999999991051
 21
153.2047509270524017
 31
0.0
  0
INSERT
  5
2DC
  8
0
  2
*U14
 10
0.0
 20
0.0
 30
0.0
  0
ENDBLK
  5
2DD
  8
0
  0
BLOCK
  8
0
  2
*U14
 70
     1
 10
0.0
 20
0.0
 30
0.0
  3
*U14
  1

  0
TEXT
  5
76F
  8
COTAS
 10
172.5527880809499095
 20
140.5512504397844111
 30
0.0
 40
3.5
  1
78,50
 50
90.0000000000003837
 41
0.75
  7
SLDTEXTSTYLE2
  0
ENDBLK
  5
771
  8
0
  0
BLOCK
  8
0
  2
_D_6
 70
     0
 10
0.0
 20
0.0
 30
0.0
  3
_D_6
  1

  0
SOLID
  5
2E0
  8
COTAS
 10
179.2863999999979114
 20
153.2047509270524017
 30
0.0
 11
175.9843999999978905
 21
153.7127509270524968
 31
0.0
 12
175.9843999999978905
 22
152.6967509270525056
 32
0.0
 13
175.9843999999978905
 23
152.6967509270525056
 33
0.0
  0
LINE
  5
2E1
  8
COTAS
 10
179.2863999999979114
 20
200.4123999999997068
 30
0.0
 11
179.2863999999979114
 21
152.1887509270524959
 31
0.0
  0
LINE
  5
2E2
  8
COTAS
 10
170.7863999999991051
 20
153.2047509270524017
 30
0.0
 11
179.2863999999979114
 21
153.2047509270524017
 31
0.0
  0
INSERT
  5
2E3
  8
0
  2
*U16
 10
0.0
 20
0.0
 30
0.0
  0
ENDBLK
  5
2E4
  8
0
  0
BLOCK
  8
0
  2
*U16
 70
     1
 10
0.0
 20
0.0
 30
0.0
  3
*U16
  1

  0
TEXT
  5
773
  8
COTAS
 10
181.0527880809486874
 20
140.5512504397844111
 30
0.0
 40
3.5
  1
95,50
 50
90.0000000000003837
 41
0.75
  7
SLDTEXTSTYLE2
  0
ENDBLK
  5
775
  8
0
  0
BLOCK
  8
0
  2
_NONE
 70
     0
 10
0.0
 20
0.0
 30
0.0
  3
_NONE
  1

  0
ENDBLK
  5
2E7
  8
0
  0
BLOCK
  8
0
  2
_D_7
 70
     0
 10
0.0
 20
0.0
 30
0.0
  3
_D_7
  1

  0
SOLID
  5
2EA
  8
COTAS
 10
161.9567708685538889
 20
205.6183047744875125
 30
0.0
 11
158.635803715235312
 21
205.2543746073137072
 31
0.0
 12
158.8987638650594931
 22
204.2729939678040978
 32
0.0
 13
158.8987638650594931
 23
204.2729939678040978
 33
0.0
  0
LINE
  5
2EB
  8
COTAS
 10
161.9567708685538889
 20
205.6183047744875125
 30
0.0
 11
114.2761205137735061
 21
192.8423130173337086
 31
0.0
  0
LINE
  5
2EC
  8
COTAS
 10
161.9567708685538889
 20
205.6183047744875125
 30
0.0
 11
171.6160291314444919
 21
208.2064952255126116
 31
0.0
  0
INSERT
  5
2ED
  8
0
  2
*U19
 10
0.0
 20
0.0
 30
0.0
  0
INSERT
  5
2EE
  8
0
  2
*U20
 10
0.0
 20
0.0
 30
0.0
  0
INSERT
  5
2F0
  8
0
  2
*U21
 10
0.0
 20
0.0
 30
0.0
  0
INSERT
  5
2F3
  8
0
  2
*U22
 10
0.0
 20
0.0
 30
0.0
  0
INSERT
  5
2F5
  8
0
  2
*U23
 10
0.0
 20
0.0
 30
0.0
  0
INSERT
  5
2F6
  8
0
  2
*U24
 10
0.0
 20
0.0
 30
0.0
  0
INSERT
  5
2F7
  8
0
  2
*U25
 10
0.0
 20
0.0
 30
0.0
  0
ENDBLK
  5
2F8
  8
0
  0
BLOCK
  8
0
  2
*U19
 70
     1
 10
0.0
 20
0.0
 30
0.0
  3
*U19
  1

  0
TEXT
  5
777
  8
COTAS
 10
112.6129600830802957
 20
199.049312245819209
 30
0.0
 40
3.5
  1
\U+2205
 50
15.0000000000000107
 41
0.75
  7
SLDTEXTSTYLE2
  0
ENDBLK
  5
779
  8
0
  0
BLOCK
  8
0
  2
*U20
 70
     1
 10
0.0
 20
0.0
 30
0.0
  3
*U20
  1

  0
TEXT
  5
77B
  8
COTAS
 10
117.6976994709172999
 20
200.4671225293234897
 30
0.0
 40
3.5
  1
20,00
 50
15.0000000000000107
 41
0.75
  7
SLDTEXTSTYLE2
  0
ENDBLK
  5
77D
  8
0
  0
BLOCK
  8
0
  2
*U21
 70
     1
 10
0.0
 20
0.0
 30
0.0
  3
*U21
  1

  0
TEXT
  5
77F
  8
COTAS
 10
129.0301613341131031
 20
208.1336318102071914
 30
0.0
 40
3.5
  1
H7
 50
15.0000000000000107
 41
0.75
  7
SLDTEXTSTYLE2
  0
ENDBLK
  5
781
  8
0
  0
BLOCK
  8
0
  2
*U22
 70
     1
 10
0.0
 20
0.0
 30
0.0
  3
*U22
  1

  0
TEXT
  5
783
  8
COTAS
 10
135.8573779593058077
 20
209.9629789914800142
 30
0.0
 40
3.5
  1
+
 50
15.0000000000000107
 41
0.75
  7
SLDTEXTSTYLE2
  0
ENDBLK
  5
785
  8
0
  0
BLOCK
  8
0
  2
*U23
 70
     1
 10
0.0
 20
0.0
 30
0.0
  3
*U23
  1

  0
TEXT
  5
787
  8
COTAS
 10
138.5901443895697014
 20
210.6952215495720964
 30
0.0
 40
3.5
  1
0,02
 50
15.0000000000000107
 41
0.75
  7
SLDTEXTSTYLE2
  0
ENDBLK
  5
789
  8
0
  0
BLOCK
  8
0
  2
*U24
 70
     1
 10
0.0
 20
0.0
 30
0.0
  3
*U24
  1

  0
TEXT
  5
78B
  8
COTAS
 10
139.7614803263685133
 20
206.3237363207082922
 30
0.0
 40
3.5
  1
0,00
 50
15.0000000000000107
 41
0.75
  7
SLDTEXTSTYLE2
  0
ENDBLK
  5
78D
  8
0
  0
BLOCK
  8
0
  2
*U25
 70
     1
 10
0.0
 20
0.0
 30
0.0
  3
*U25
  1

  0
TEXT
  5
78F
  8
COTAS
 10
129.3743458943309861
 20
197.7882585890399127
 30
0.0
 40
3.5
  1
2X
 50
15.0000000000000107
 41
0.75
  7
SLDTEXTSTYLE2
  0
ENDBLK
  5
791
  8
0
  0
BLOCK
  8
0
  2
_D_8
 70
     0
 10
0.0
 20
0.0
 30
0.0
  3
_D_8
  1

  0
SOLID
  5
2FB
  8
COTAS
 10
96.7864000000021036
 20
271.6207969499923252
 30
0.0
 11
100.0884000000019967
 21
271.112796949992287
 31
0.0
 12
100.0884000000019967
 22
272.1287969499924202
 32
0.0
 13
100.0884000000019967
 23
272.1287969499924202
 33
0.0
  0
SOLID
  5
2FC
  8
COTAS
 10
166.7863999999991904
 20
271.6207969499923252
 30
0.0
 11
163.4843999999991979
 21
272.1287969499924202
 31
0.0
 12
163.4843999999991979
 22
271.112796949992287
 32
0.0
 13
163.4843999999991979
 23
271.112796949992287
 33
0.0
  0
LINE
  5
2FD
  8
COTAS
 10
96.7864000000021036
 20
222.9124000000003036
 30
0.0
 11
96.7864000000021036
 21
272.6207969499923252
 31
0.0
  0
LINE
  5
2FE
  8
COTAS
 10
166.7863999999991904
 20
207.912399999999991
 30
0.0
 11
166.7863999999991904
 21
272.6207969499923252
 31
0.0
  0
LINE
  5
2FF
  8
COTAS
 10
96.7864000000021036
 20
271.6207969499923252
 30
0.0
 11
166.7863999999991904
 21
271.6207969499923252
 31
0.0
  0
INSERT
  5
300
  8
0
  2
*U27
 10
0.0
 20
0.0
 30
0.0
  0
INSERT
  5
301
  8
0
  2
*U28
 10
0.0
 20
0.0
 30
0.0
  0
ENDBLK
  5
302
  8
0
  0
BLOCK
  8
0
  2
*U27
 70
     1
 10
0.0
 20
0.0
 30
0.0
  3
*U27
  1

  0
TEXT
  5
793
  8
COTAS
 10
119.5996819850978028
 20
272.6325338645712009
 30
0.0
 40
3.5
  1
140,00
 41
0.75
  7
SLDTEXTSTYLE2
  0
ENDBLK
  5
795
  8
0
  0
BLOCK
  8
0
  2
*U28
 70
     1
 10
0.0
 20
0.0
 30
0.0
  3
*U28
  1

  0
TEXT
  5
797
  8
COTAS
 10
135.1357938987191858
 20
272.6325338645712009
 30
0.0
 40
3.5
  1
±0,01
 41
0.75
  7
SLDTEXTSTYLE2
  0
ENDBLK
  5
799
  8
0
  0
BLOCK
  8
0
  2
_D_9
 70
     0
 10
0.0
 20
0.0
 30
0.0
  3
_D_9
  1

  0
SOLID
  5
305
  8
COTAS
 10
219.2864000000018905
 20
221.9124000000003036
 30
0.0
 11
218.7784000000019091
 21
218.6104000000003111
 31
0.0
 12
219.7944000000019003
 22
218.6104000000003111
 32
0.0
 13
219.7944000000019003
 23
218.6104000000003111
 33
0.0
  0
SOLID
  5
306
  8
COTAS
 10
219.2864000000018905
 20
206.912399999999991
 30
0.0
 11
219.7944000000019003
 21
210.2144000000000119
 31
0.0
 12
218.7784000000019091
 22
210.2144000000000119
 32
0.0
 13
218.7784000000019091
 23
210.2144000000000119
 33
0.0
  0
LINE
  5
307
  8
COTAS
 10
99.4886788135575841
 20
221.9124000000003036
 30
0.0
 11
220.2864000000018905
 21
221.9124000000003036
 31
0.0
  0
LINE
  5
308
  8
COTAS
 10
167.7863999999991904
 20
206.912399999999991
 30
0.0
 11
220.2864000000018905
 21
206.912399999999991
 31
0.0
  0
LINE
  5
309
  8
COTAS
 10
219.2864000000018905
 20
221.9124000000003036
 30
0.0
 11
219.2864000000018905
 21
252.171148073646691
 31
0.0
  0
LINE
  5
30A
  8
COTAS
 10
219.2864000000018905
 20
221.9124000000003036
 30
0.0
 11
219.2864000000018905
 21
206.912399999999991
 31
0.0
  0
INSERT
  5
30B
  8
0
  2
*U30
 10
0.0
 20
0.0
 30
0.0
  0
INSERT
  5
30C
  8
0
  2
*U31
 10
0.0
 20
0.0
 30
0.0
  0
ENDBLK
  5
30D
  8
0
  0
BLOCK
  8
0
  2
*U30
 70
     1
 10
0.0
 20
0.0
 30
0.0
  3
*U30
  1

  0
TEXT
  5
79B
  8
COTAS
 10
218.2746630854231
 20
227.6273970424863933
 30
0.0
 40
3.5
  1
30,00
 50
90.0000000000003837
 41
0.75
  7
SLDTEXTSTYLE2
  0
ENDBLK
  5
79D
  8
0
  0
BLOCK
  8
0
  2
*U31
 70
     1
 10
0.0
 20
0.0
 30
0.0
  3
*U31
  1

  0
TEXT
  5
79F
  8
COTAS
 10
218.2746630854229863
 20
240.5773975297543075
 30
0.0
 40
3.5
  1
±0,01
 50
90.0000000000003837
 41
0.75
  7
SLDTEXTSTYLE2
  0
ENDBLK
  5
7A1
  8
0
  0
BLOCK
  8
0
  2
_D_10
 70
     0
 10
0.0
 20
0.0
 30
0.0
  3
_D_10
  1

  0
SOLID
  5
310
  8
COTAS
 10
93.4004894609126524
 20
201.8236419304558069
 30
0.0
 11
94.5801969013912043
 21
198.6980126570325069
 31
0.0
 12
95.4651394603170758
 22
199.197144570860786
 32
0.0
 13
95.4651394603170758
 23
199.197144570860786
 33
0.0
  0
LINE
  5
311
  8
COTAS
 10
93.4004894609126524
 20
201.8236419304558069
 30
0.0
 11
101.9200530921778949
 21
186.7187683851836937
 31
0.0
  0
LINE
  5
312
  8
COTAS
 10
93.4004894609126524
 20
201.8236419304558069
 30
0.0
 11
92.7864000000021036
 21
202.9124000000003036
 31
0.0
  0
INSERT
  5
313
  8
0
  2
*U33
 10
0.0
 20
0.0
 30
0.0
  0
ENDBLK
  5
314
  8
0
  0
BLOCK
  8
0
  2
*U33
 70
     1
 10
0.0
 20
0.0
 30
0.0
  3
*U33
  1

  0
TEXT
  5
7A3
  8
COTAS
 10
96.9083841106110668
 20
197.5376631038319886
 30
0.0
 40
3.5
  1
R2,50
 50
299.4241924097946139
 41
0.75
  7
SLDTEXTSTYLE2
  0
ENDBLK
  5
7A5
  8
0
  0
BLOCK
  8
0
  2
_D_13
 70
     0
 10
0.0
 20
0.0
 30
0.0
  3
_D_13
  1

  0
SOLID
  5
317
  8
COTAS
 10
74.28640000000199
 20
214.9124000000007868
 30
0.0
 11
73.7784000000018523
 21
211.610400000000908
 31
0.0
 12
74.7944000000018434
 22
211.6104000000007943
 32
0.0
 13
74.7944000000018434
 23
211.6104000000007943
 33
0.0
  0
SOLID
  5
318
  8
COTAS
 10
74.2864000000014642
 20
202.9124000000012131
 30
0.0
 11
74.7944000000016018
 21
206.2144000000012056
 31
0.0
 12
73.7784000000016107
 22
206.2144000000012909
 32
0.0
 13
73.7784000000016107
 23
206.2144000000012909
 33
0.0
  0
LINE
  5
319
  8
COTAS
 10
84.7864000000020184
 20
214.9124000000003889
 30
0.0
 11
73.2864000000019757
 21
214.9124000000009005
 31
0.0
  0
LINE
  5
31A
  8
COTAS
 10
93.0364000000020752
 20
202.9124000000003889
 30
0.0
 11
73.2864000000014642
 21
202.9124000000012984
 31
0.0
  0
LINE
  5
31B
  8
COTAS
 10
74.28640000000199
 20
214.9124000000007868
 30
0.0
 11
74.2864000000014642
 21
202.9124000000012131
 31
0.0
  0
LINE
  5
31C
  8
COTAS
 10
74.2864000000014642
 20
202.9124000000012131
 30
0.0
 11
74.2864000000006257
 21
184.4286723520463056
 31
0.0
  0
INSERT
  5
31D
  8
0
  2
*U35
 10
0.0
 20
0.0
 30
0.0
  0
ENDBLK
  5
31E
  8
0
  0
BLOCK
  8
0
  2
*U35
 70
     1
 10
0.0
 20
0.0
 30
0.0
  3
*U35
  1

  0
TEXT
  5
7A7
  8
COTAS
 10
73.2746630854217926
 20
184.4286723520463056
 30
0.0
 40
3.5
  1
24,00
 50
89.9999999999978542
 41
0.75
  7
SLDTEXTSTYLE2
  0
ENDBLK
  5
7A9
  8
0
  0
BLOCK
  8
0
  2
_D_14
 70
     0
 10
0.0
 20
0.0
 30
0.0
  3
_D_14
  1

  0
SOLID
  5
321
  8
COTAS
 10
199.344951197891703
 20
202.9123999999997068
 30
0.0
 11
199.8529511978917128
 21
206.2143999999996993
 31
0.0
 12
198.8369511978916933
 22
206.2143999999996993
 32
0.0
 13
198.8369511978916933
 23
206.2143999999996993
 33
0.0
  0
SOLID
  5
322
  8
COTAS
 10
199.344951197891703
 20
214.4123999999997068
 30
0.0
 11
198.8369511978916933
 21
211.1103999999999985
 31
0.0
 12
199.8529511978917128
 22
211.1103999999999985
 32
0.0
 13
199.8529511978917128
 23
211.1103999999999985
 33
0.0
  0
LINE
  5
323
  8
COTAS
 10
178.7863999999977977
 20
202.9123999999997068
 30
0.0
 11
200.344951197891703
 21
202.9123999999997068
 31
0.0
  0
LINE
  5
324
  8
COTAS
 10
185.8147200319677097
 20
214.4123999999997068
 30
0.0
 11
200.344951197891703
 21
214.4123999999997068
 31
0.0
  0
LINE
  5
325
  8
COTAS
 10
199.344951197891703
 20
202.9123999999997068
 30
0.0
 11
199.344951197891703
 21
185.8250055274828014
 31
0.0
  0
LINE
  5
326
  8
COTAS
 10
199.344951197891703
 20
202.9123999999997068
 30
0.0
 11
199.344951197891703
 21
214.4123999999997068
 31
0.0
  0
INSERT
  5
327
  8
0
  2
*U37
 10
0.0
 20
0.0
 30
0.0
  0
ENDBLK
  5
328
  8
0
  0
BLOCK
  8
0
  2
*U37
 70
     1
 10
0.0
 20
0.0
 30
0.0
  3
*U37
  1

  0
TEXT
  5
7AB
  8
COTAS
 10
198.3332142833127989
 20
185.8250055274826877
 30
0.0
 40
3.5
  1
23,00
 50
90.0
 41
0.75
  7
SLDTEXTSTYLE2
  0
ENDBLK
  5
7AD
  8
0
  0
BLOCK
  8
0
  2
_D_15
 70
     0
 10
0.0
 20
0.0
 30
0.0
  3
_D_15
  1

  0
SOLID
  5
32B
  8
COTAS
 10
199.3449511978930957
 20
225.9124000000003036
 30
0.0
 11
198.8369511978930859
 21
222.6104000000003111
 31
0.0
 12
199.8529511978931055
 22
222.6104000000003111
 32
0.0
 13
199.8529511978931055
 23
222.6104000000003111
 33
0.0
  0
SOLID
  5
32C
  8
COTAS
 10
199.3449511978930957
 20
214.4123999999997068
 30
0.0
 11
199.8529511978931055
 21
217.714399999999813
 31
0.0
 12
198.8369511978930859
 22
217.714399999999813
 32
0.0
 13
198.8369511978930859
 23
217.714399999999813
 33
0.0
  0
LINE
  5
32D
  8
COTAS
 10
170.5363999999991904
 20
225.9124000000003036
 30
0.0
 11
200.3449511978930957
 21
225.9124000000003036
 31
0.0
  0
LINE
  5
32E
  8
COTAS
 10
185.8147200319677097
 20
214.4123999999997068
 30
0.0
 11
200.3449511978930957
 21
214.4123999999997068
 31
0.0
  0
LINE
  5
32F
  8
COTAS
 10
199.3449511978930957
 20
225.9124000000003036
 30
0.0
 11
199.3449511978930957
 21
237.6525039544841036
 31
0.0
  0
LINE
  5
330
  8
COTAS
 10
199.3449511978930957
 20
225.9124000000003036
 30
0.0
 11
199.3449511978930957
 21
214.4123999999997068
 31
0.0
  0
INSERT
  5
331
  8
0
  2
*U39
 10
0.0
 20
0.0
 30
0.0
  0
ENDBLK
  5
332
  8
0
  0
BLOCK
  8
0
  2
*U39
 70
     1
 10
0.0
 20
0.0
 30
0.0
  3
*U39
  1

  0
TEXT
  5
7AF
  8
COTAS
 10
198.3332142833139073
 20
226.0150034672161041
 30
0.0
 40
3.5
  1
23,00
 50
90.0000000000003837
 41
0.75
  7
SLDTEXTSTYLE2
  0
ENDBLK
  5
7B1
  8
0
  0
BLOCK
  8
0
  2
_D_16
 70
     0
 10
0.0
 20
0.0
 30
0.0
  3
_D_16
  1

  0
SOLID
  5
335
  8
COTAS
 10
191.1217181460513075
 20
225.9124000000003036
 30
0.0
 11
190.6137181460512977
 21
222.6104000000003111
 31
0.0
 12
191.6297181460512888
 22
222.6104000000003111
 32
0.0
 13
191.6297181460512888
 23
222.6104000000003111
 33
0.0
  0
SOLID
  5
336
  8
COTAS
 10
191.1217181460513075
 20
213.912399999999991
 30
0.0
 11
191.6297181460512888
 21
217.2143999999998982
 31
0.0
 12
190.6137181460512977
 22
217.2143999999998982
 32
0.0
 13
190.6137181460512977
 23
217.2143999999998982
 33
0.0
  0
LINE
  5
337
  8
COTAS
 10
170.5363999999991904
 20
225.9124000000003036
 30
0.0
 11
192.1217181460511938
 21
225.9124000000003036
 31
0.0
  0
LINE
  5
338
  8
COTAS
 10
178.7863999999977977
 20
213.912399999999991
 30
0.0
 11
192.1217181460511938
 21
213.912399999999991
 31
0.0
  0
LINE
  5
339
  8
COTAS
 10
191.1217181460513075
 20
225.9124000000003036
 30
0.0
 11
191.1217181460513075
 21
237.6525039544841036
 31
0.0
  0
LINE
  5
33A
  8
COTAS
 10
191.1217181460513075
 20
225.9124000000003036
 30
0.0
 11
191.1217181460513075
 21
213.912399999999991
 31
0.0
  0
INSERT
  5
33B
  8
0
  2
*U41
 10
0.0
 20
0.0
 30
0.0
  0
ENDBLK
  5
33C
  8
0
  0
BLOCK
  8
0
  2
*U41
 70
     1
 10
0.0
 20
0.0
 30
0.0
  3
*U41
  1

  0
TEXT
  5
7B3
  8
COTAS
 10
190.1099812314724886
 20
226.0150034672161041
 30
0.0
 40
3.5
  1
24,00
 50
90.0000000000003837
 41
0.75
  7
SLDTEXTSTYLE2
  0
ENDBLK
  5
7B5
  8
0
  0
BLOCK
  8
0
  2
_D_17
 70
     0
 10
0.0
 20
0.0
 30
0.0
  3
_D_17
  1

  0
ARC
  5
33F
  8
COTAS
 10
109.2864000000000004
 20
227.912399999999991
 30
0.0
 40
5.0000000000000302
 50
33.6900675259793303
 51
78.6900675259793871
  0
SOLID
  5
340
  8
COTAS
 10
112.8219339059315018
 20
231.4479339059313929
 30
0.0
 11
115.516010742252206
 21
233.423590252566612
 31
0.0
 12
114.7975902525667067
 22
234.1420107422520971
 32
0.0
 13
114.7975902525667067
 23
234.1420107422520971
 33
0.0
  0
LINE
  5
341
  8
COTAS
 10
112.8219339059315018
 20
231.4479339059313929
 30
0.0
 11
128.844212421288006
 21
247.4702124212876981
 31
0.0
  0
LINE
  5
342
  8
COTAS
 10
112.8219339059315018
 20
231.4479339059313929
 30
0.0
 11
109.2864000000000004
 21
227.912399999999991
 31
0.0
  0
INSERT
  5
343
  8
0
  2
*U43
 10
0.0
 20
0.0
 30
0.0
  0
INSERT
  5
344
  8
0
  2
*U44
 10
0.0
 20
0.0
 30
0.0
  0
ENDBLK
  5
345
  8
0
  0
BLOCK
  8
0
  2
*U43
 70
     1
 10
0.0
 20
0.0
 30
0.0
  3
*U43
  1

  0
TEXT
  5
7B7
  8
COTAS
 10
114.0963356883262065
 20
241.7522565011136066
 30
0.0
 40
3.5
  1
R10,00
 50
44.9999999999995168
 41
0.75
  7
SLDTEXTSTYLE2
  0
ENDBLK
  5
7B9
  8
0
  0
BLOCK
  8
0
  2
*U44
 70
     1
 10
0.0
 20
0.0
 30
0.0
  3
*U44
  1

  0
TEXT
  5
7BB
  8
COTAS
 10
121.2219100832499947
 20
241.0201068027458859
 30
0.0
 40
3.5
  1
4X
 50
44.9999999999995168
 41
0.75
  7
SLDTEXTSTYLE2
  0
ENDBLK
  5
7BD
  8
0
  0
BLOCK
  8
0
  2
SW_CENTERMARKSYMBOL_0
 70
     0
 10
0.0
 20
0.0
 30
0.0
  3
SW_CENTERMARKSYMBOL_0
  1

  0
LINE
  5
348
  8
COTAS
 62
     0
 10
0.0
 20
0.0
 30
0.0
 11
0.0
 21
1.2500000000000011
 31
0.0
  0
LINE
  5
349
  8
COTAS
 62
     0
 10
0.0
 20
0.0
 30
0.0
 11
-1.2500000000000011
 21
0.0
 31
0.0
  0
LINE
  5
34A
  8
COTAS
 62
     0
 10
0.0
 20
0.0
 30
0.0
 11
0.0
 21
-1.2500000000000011
 31
0.0
  0
LINE
  5
34B
  8
COTAS
 62
     0
 10
0.0
 20
0.0
 30
0.0
 11
1.2500000000000011
 21
0.0
 31
0.0
  0
LINE
  5
34C
  8
COTAS
 62
     0
 10
0.0
 20
2.5000000000000022
 30
0.0
 11
0.0
 21
4.0000000000000009
 31
0.0
  0
LINE
  5
34D
  8
COTAS
 62
     0
 10
-2.5000000000000022
 20
0.0
 30
0.0
 11
-4.0000000000000009
 21
0.0
 31
0.0
  0
LINE
  5
34E
  8
COTAS
 62
     0
 10
0.0
 20
-2.5000000000000022
 30
0.0
 11
0.0
 21
-4.0000000000000009
 31
0.0
  0
LINE
  5
34F
  8
COTAS
 62
     0
 10
2.5000000000000022
 20
0.0
 30
0.0
 11
4.0000000000000009
 21
0.0
 31
0.0
  0
ENDBLK
  5
350
  8
0
  0
BLOCK
  8
0
  2
SW_CENTERMARKSYMBOL_1
 70
     0
 10
0.0
 20
0.0
 30
0.0
  3
SW_CENTERMARKSYMBOL_1
  1

  0
LINE
  5
353
  8
COTAS
 62
     0
 10
0.0
 20
0.0
 30
0.0
 11
0.0
 21
1.2500000000000011
 31
0.0
  0
LINE
  5
354
  8
COTAS
 62
     0
 10
0.0
 20
0.0
 30
0.0
 11
-1.2500000000000011
 21
0.0
 31
0.0
  0
LINE
  5
355
  8
COTAS
 62
     0
 10
0.0
 20
0.0
 30
0.0
 11
0.0
 21
-1.2500000000000011
 31
0.0
  0
LINE
  5
356
  8
COTAS
 62
     0
 10
0.0
 20
0.0
 30
0.0
 11
1.2500000000000011
 21
0.0
 31
0.0
  0
LINE
  5
357
  8
COTAS
 62
     0
 10
0.0
 20
2.5000000000000022
 30
0.0
 11
0.0
 21
4.0000000000000009
 31
0.0
  0
LINE
  5
358
  8
COTAS
 62
     0
 10
-2.5000000000000022
 20
0.0
 30
0.0
 11
-4.0000000000000009
 21
0.0
 31
0.0
  0
LINE
  5
359
  8
COTAS
 62
     0
 10
0.0
 20
-2.5000000000000022
 30
0.0
 11
0.0
 21
-4.0000000000000009
 31
0.0
  0
LINE
  5
35A
  8
COTAS
 62
     0
 10
2.5000000000000022
 20
0.0
 30
0.0
 11
4.0000000000000009
 21
0.0
 31
0.0
  0
ENDBLK
  5
35B
  8
0
  0
BLOCK
  8
0
  2
SW_CENTERMARKSYMBOL_2
 70
     0
 10
0.0
 20
0.0
 30
0.0
  3
SW_CENTERMARKSYMBOL_2
  1

  0
LINE
  5
35E
  8
COTAS
 62
     0
 10
0.0
 20
0.0
 30
0.0
 11
0.0
 21
1.2500000000000011
 31
0.0
  0
LINE
  5
35F
  8
COTAS
 62
     0
 10
0.0
 20
0.0
 30
0.0
 11
-1.2500000000000011
 21
0.0
 31
0.0
  0
LINE
  5
360
  8
COTAS
 62
     0
 10
0.0
 20
0.0
 30
0.0
 11
0.0
 21
-1.2500000000000011
 31
0.0
  0
LINE
  5
361
  8
COTAS
 62
     0
 10
0.0
 20
0.0
 30
0.0
 11
1.2500000000000011
 21
0.0
 31
0.0
  0
LINE
  5
362
  8
COTAS
 62
     0
 10
0.0
 20
2.5000000000000022
 30
0.0
 11
0.0
 21
4.0000000000000009
 31
0.0
  0
LINE
  5
363
  8
COTAS
 62
     0
 10
-2.5000000000000022
 20
0.0
 30
0.0
 11
-4.0000000000000009
 21
0.0
 31
0.0
  0
LINE
  5
364
  8
COTAS
 62
     0
 10
0.0
 20
-2.5000000000000022
 30
0.0
 11
0.0
 21
-4.0000000000000009
 31
0.0
  0
LINE
  5
365
  8
COTAS
 62
     0
 10
2.5000000000000022
 20
0.0
 30
0.0
 11
4.0000000000000009
 21
0.0
 31
0.0
  0
ENDBLK
  5
366
  8
0
  0
BLOCK
  8
0
  2
SW_CENTERMARKSYMBOL_3
 70
     0
 10
0.0
 20
0.0
 30
0.0
  3
SW_CENTERMARKSYMBOL_3
  1

  0
LINE
  5
369
  8
COTAS
 62
     0
 10
0.0
 20
0.0
 30
0.0
 11
0.0
 21
1.2500000000000011
 31
0.0
  0
LINE
  5
36A
  8
COTAS
 62
     0
 10
0.0
 20
0.0
 30
0.0
 11
-1.2500000000000011
 21
0.0
 31
0.0
  0
LINE
  5
36B
  8
COTAS
 62
     0
 10
0.0
 20
0.0
 30
0.0
 11
0.0
 21
-1.2500000000000011
 31
0.0
  0
LINE
  5
36C
  8
COTAS
 62
     0
 10
0.0
 20
0.0
 30
0.0
 11
1.2500000000000011
 21
0.0
 31
0.0
  0
LINE
  5
36D
  8
COTAS
 62
     0
 10
0.0
 20
2.5000000000000022
 30
0.0
 11
0.0
 21
4.0000000000000009
 31
0.0
  0
LINE
  5
36E
  8
COTAS
 62
     0
 10
-2.5000000000000022
 20
0.0
 30
0.0
 11
-4.0000000000000009
 21
0.0
 31
0.0
  0
LINE
  5
36F
  8
COTAS
 62
     0
 10
0.0
 20
-2.5000000000000022
 30
0.0
 11
0.0
 21
-4.0000000000000009
 31
0.0
  0
LINE
  5
370
  8
COTAS
 62
     0
 10
2.5000000000000022
 20
0.0
 30
0.0
 11
4.0000000000000009
 21
0.0
 31
0.0
  0
ENDBLK
  5
371
  8
0
  0
BLOCK
  8
0
  2
SW_CENTERMARKSYMBOL_4
 70
     0
 10
0.0
 20
0.0
 30
0.0
  3
SW_CENTERMARKSYMBOL_4
  1

  0
LINE
  5
374
  8
COTAS
 62
     0
 10
0.0
 20
0.0
 30
0.0
 11
0.0
 21
1.2500000000000011
 31
0.0
  0
LINE
  5
375
  8
COTAS
 62
     0
 10
0.0
 20
0.0
 30
0.0
 11
-1.2500000000000011
 21
0.0
 31
0.0
  0
LINE
  5
376
  8
COTAS
 62
     0
 10
0.0
 20
0.0
 30
0.0
 11
0.0
 21
-1.2500000000000011
 31
0.0
  0
LINE
  5
377
  8
COTAS
 62
     0
 10
0.0
 20
0.0
 30
0.0
 11
1.2500000000000011
 21
0.0
 31
0.0
  0
LINE
  5
378
  8
COTAS
 62
     0
 10
0.0
 20
1.2500000000000011
 30
0.0
 11
0.0
 21
2.0749999999999922
 31
0.0
  0
LINE
  5
379
  8
COTAS
 62
     0
 10
-1.2500000000000011
 20
0.0
 30
0.0
 11
-2.0749999999999922
 21
0.0
 31
0.0
  0
LINE
  5
37A
  8
COTAS
 62
     0
 10
0.0
 20
-1.2500000000000011
 30
0.0
 11
0.0
 21
-2.0749999999999922
 31
0.0
  0
LINE
  5
37B
  8
COTAS
 62
     0
 10
1.2500000000000011
 20
0.0
 30
0.0
 11
2.0749999999999922
 21
0.0
 31
0.0
  0
ENDBLK
  5
37C
  8
0
  0
BLOCK
  8
0
  2
SW_CENTERMARKSYMBOL_5
 70
     0
 10
0.0
 20
0.0
 30
0.0
  3
SW_CENTERMARKSYMBOL_5
  1

  0
LINE
  5
37F
  8
COTAS
 62
     0
 10
0.0
 20
0.0
 30
0.0
 11
0.0
 21
1.2500000000000011
 31
0.0
  0
LINE
  5
380
  8
COTAS
 62
     0
 10
0.0
 20
0.0
 30
0.0
 11
-1.2500000000000011
 21
0.0
 31
0.0
  0
LINE
  5
381
  8
COTAS
 62
     0
 10
0.0
 20
0.0
 30
0.0
 11
0.0
 21
-1.2500000000000011
 31
0.0
  0
LINE
  5
382
  8
COTAS
 62
     0
 10
0.0
 20
0.0
 30
0.0
 11
1.2500000000000011
 21
0.0
 31
0.0
  0
LINE
  5
383
  8
COTAS
 62
     0
 10
0.0
 20
1.2500000000000011
 30
0.0
 11
0.0
 21
2.0749999999999922
 31
0.0
  0
LINE
  5
384
  8
COTAS
 62
     0
 10
-1.2500000000000011
 20
0.0
 30
0.0
 11
-2.0749999999999922
 21
0.0
 31
0.0
  0
LINE
  5
385
  8
COTAS
 62
     0
 10
0.0
 20
-1.2500000000000011
 30
0.0
 11
0.0
 21
-2.075000000000021
 31
0.0
  0
LINE
  5
386
  8
COTAS
 62
     0
 10
1.2500000000000011
 20
0.0
 30
0.0
 11
2.0749999999999922
 21
0.0
 31
0.0
  0
ENDBLK
  5
387
  8
0
  0
BLOCK
  8
0
  2
SW_CENTERMARKSYMBOL_6
 70
     0
 10
0.0
 20
0.0
 30
0.0
  3
SW_CENTERMARKSYMBOL_6
  1

  0
LINE
  5
38A
  8
COTAS
 62
     0
 10
0.0
 20
0.0
 30
0.0
 11
0.0
 21
1.2500000000000011
 31
0.0
  0
LINE
  5
38B
  8
COTAS
 62
     0
 10
0.0
 20
0.0
 30
0.0
 11
-1.2500000000000011
 21
0.0
 31
0.0
  0
LINE
  5
38C
  8
COTAS
 62
     0
 10
0.0
 20
0.0
 30
0.0
 11
0.0
 21
-1.2500000000000011
 31
0.0
  0
LINE
  5
38D
  8
COTAS
 62
     0
 10
0.0
 20
0.0
 30
0.0
 11
1.2500000000000011
 21
0.0
 31
0.0
  0
LINE
  5
38E
  8
COTAS
 62
     0
 10
0.0
 20
1.2500000000000011
 30
0.0
 11
0.0
 21
2.0749999999999922
 31
0.0
  0
LINE
  5
38F
  8
COTAS
 62
     0
 10
-1.2500000000000011
 20
0.0
 30
0.0
 11
-2.0749999999999922
 21
0.0
 31
0.0
  0
LINE
  5
390
  8
COTAS
 62
     0
 10
0.0
 20
-1.2500000000000011
 30
0.0
 11
0.0
 21
-2.075000000000021
 31
0.0
  0
LINE
  5
391
  8
COTAS
 62
     0
 10
1.2500000000000011
 20
0.0
 30
0.0
 11
2.0750000000000051
 21
0.0
 31
0.0
  0
ENDBLK
  5
392
  8
0
  0
BLOCK
  8
0
  2
SW_CENTERMARKSYMBOL_7
 70
     0
 10
0.0
 20
0.0
 30
0.0
  3
SW_CENTERMARKSYMBOL_7
  1

  0
LINE
  5
395
  8
COTAS
 62
     0
 10
0.0
 20
0.0
 30
0.0
 11
0.0
 21
1.2500000000000011
 31
0.0
  0
LINE
  5
396
  8
COTAS
 62
     0
 10
0.0
 20
0.0
 30
0.0
 11
-1.2500000000000011
 21
0.0
 31
0.0
  0
LINE
  5
397
  8
COTAS
 62
     0
 10
0.0
 20
0.0
 30
0.0
 11
0.0
 21
-1.2500000000000011
 31
0.0
  0
LINE
  5
398
  8
COTAS
 62
     0
 10
0.0
 20
0.0
 30
0.0
 11
1.2500000000000011
 21
0.0
 31
0.0
  0
LINE
  5
399
  8
COTAS
 62
     0
 10
0.0
 20
1.2500000000000011
 30
0.0
 11
0.0
 21
2.075000000000021
 31
0.0
  0
LINE
  5
39A
  8
COTAS
 62
     0
 10
-1.2500000000000011
 20
0.0
 30
0.0
 11
-2.0749999999999922
 21
0.0
 31
0.0
  0
LINE
  5
39B
  8
COTAS
 62
     0
 10
0.0
 20
-1.2500000000000011
 30
0.0
 11
0.0
 21
-2.0749999999999922
 31
0.0
  0
LINE
  5
39C
  8
COTAS
 62
     0
 10
1.2500000000000011
 20
0.0
 30
0.0
 11
2.0750000000000051
 21
0.0
 31
0.0
  0
ENDBLK
  5
39D
  8
0
  0
BLOCK
  8
0
  2
SW_DOWELSYMBOL_0
 70
     0
 10
0.0
 20
0.0
 30
0.0
  3
SW_DOWELSYMBOL_0
  1

  0
CIRCLE
  5
3A0
  8
COTAS
 62
     0
 10
0.0
 20
0.0
 30
0.0
 40
4.9999999999999361
  0
INSERT
  5
3A1
  8
0
  6
SLD-SÓLIDA
 62
     0
  2
*U54
 10
0.0
 20
0.0
 30
0.0
  0
INSERT
  5
3A2
  8
0
  6
SLD-SÓLIDA
 62
     0
  2
*U55
 10
0.0
 20
0.0
 30
0.0
  0
ENDBLK
  5
3A3
  8
0
  0
BLOCK
  8
0
  2
*U54
 70
     1
 10
0.0
 20
0.0
 30
0.0
  3
*U54
  1

  0
SOLID
  5
3AC
  8
0
  6
CONTINUOUS
 62
     0
 10
0.0
 20
0.0
 30
0.0
 11
0.0
 21
4.9999999999999458
 31
0.0
 12
0.8682408883346415
 22
0.0
 32
0.0
 13
0.8682408883346415
 23
0.0
 33
0.0
  0
SOLID
  5
3AD
  8
0
  6
CONTINUOUS
 62
     0
 10
0.8682408883346415
 20
0.0
 30
0.0
 11
0.0
 21
4.9999999999999458
 31
0.0
 12
0.8682408883346415
 22
4.9240387650609758
 32
0.0
 13
0.8682408883346415
 23
4.9240387650609758
 33
0.0
  0
SOLID
  5
3AE
  8
0
  6
CONTINUOUS
 62
     0
 10
0.8682408883346415
 20
0.0
 30
0.0
 11
0.8682408883346415
 21
4.9240387650609758
 31
0.0
 12
1.7101007166283211
 22
0.0
 32
0.0
 13
1.7101007166283211
 23
0.0
 33
0.0
  0
SOLID
  5
3AF
  8
0
  6
CONTINUOUS
 62
     0
 10
1.7101007166283211
 20
0.0
 30
0.0
 11
0.8682408883346415
 21
4.9240387650609758
 31
0.0
 12
1.7101007166283211
 22
4.6984631039294831
 32
0.0
 13
1.7101007166283211
 23
4.6984631039294831
 33
0.0
  0
SOLID
  5
3B0
  8
0
  6
CONTINUOUS
 62
     0
 10
1.7101007166283211
 20
0.0
 30
0.0
 11
1.7101007166283211
 21
4.6984631039294831
 31
0.0
 12
2.499999999999968
 22
0.0
 32
0.0
 13
2.499999999999968
 23
0.0
 33
0.0
  0
SOLID
  5
3B1
  8
0
  6
CONTINUOUS
 62
     0
 10
2.499999999999968
 20
0.0
 30
0.0
 11
1.7101007166283211
 21
4.6984631039294831
 31
0.0
 12
2.499999999999968
 22
4.3301270189221368
 32
0.0
 13
2.499999999999968
 23
4.3301270189221368
 33
0.0
  0
SOLID
  5
3B2
  8
0
  6
CONTINUOUS
 62
     0
 10
2.499999999999968
 20
0.0
 30
0.0
 11
2.499999999999968
 21
4.3301270189221368
 31
0.0
 12
3.2139380484326541
 22
0.0
 32
0.0
 13
3.2139380484326541
 23
0.0
 33
0.0
  0
SOLID
  5
3B3
  8
0
  6
CONTINUOUS
 62
     0
 10
3.2139380484326541
 20
0.0
 30
0.0
 11
2.499999999999968
 21
4.3301270189221368
 31
0.0
 12
3.2139380484326541
 22
3.830222215594842
 32
0.0
 13
3.2139380484326541
 23
3.830222215594842
 33
0.0
  0
SOLID
  5
3B4
  8
0
  6
CONTINUOUS
 62
     0
 10
3.2139380484326541
 20
0.0
 30
0.0
 11
3.2139380484326541
 21
3.830222215594842
 31
0.0
 12
3.830222215594842
 22
0.0
 32
0.0
 13
3.830222215594842
 23
0.0
 33
0.0
  0
SOLID
  5
3B5
  8
0
  6
CONTINUOUS
 62
     0
 10
3.830222215594842
 20
0.0
 30
0.0
 11
3.2139380484326541
 21
3.830222215594842
 31
0.0
 12
3.830222215594842
 22
3.2139380484326541
 32
0.0
 13
3.830222215594842
 23
3.2139380484326541
 33
0.0
  0
SOLID
  5
3B6
  8
0
  6
CONTINUOUS
 62
     0
 10
3.830222215594842
 20
0.0
 30
0.0
 11
3.830222215594842
 21
3.2139380484326541
 31
0.0
 12
4.3301270189221368
 22
0.0
 32
0.0
 13
4.3301270189221368
 23
0.0
 33
0.0
  0
SOLID
  5
3B7
  8
0
  6
CONTINUOUS
 62
     0
 10
4.3301270189221368
 20
0.0
 30
0.0
 11
3.830222215594842
 21
3.2139380484326541
 31
0.0
 12
4.3301270189221368
 22
2.499999999999968
 32
0.0
 13
4.3301270189221368
 23
2.499999999999968
 33
0.0
  0
SOLID
  5
3B8
  8
0
  6
CONTINUOUS
 62
     0
 10
4.3301270189221368
 20
0.0
 30
0.0
 11
4.3301270189221368
 21
2.499999999999968
 31
0.0
 12
4.6984631039294831
 22
0.0
 32
0.0
 13
4.6984631039294831
 23
0.0
 33
0.0
  0
SOLID
  5
3B9
  8
0
  6
CONTINUOUS
 62
     0
 10
4.6984631039294831
 20
0.0
 30
0.0
 11
4.3301270189221368
 21
2.499999999999968
 31
0.0
 12
4.6984631039294831
 22
1.7101007166283211
 32
0.0
 13
4.6984631039294831
 23
1.7101007166283211
 33
0.0
  0
SOLID
  5
3BA
  8
0
  6
CONTINUOUS
 62
     0
 10
4.6984631039294831
 20
0.0
 30
0.0
 11
4.6984631039294831
 21
1.7101007166283211
 31
0.0
 12
4.9240387650609794
 22
0.0
 32
0.0
 13
4.9240387650609794
 23
0.0
 33
0.0
  0
SOLID
  5
3BB
  8
0
  6
CONTINUOUS
 62
     0
 10
4.9240387650609794
 20
0.0
 30
0.0
 11
4.6984631039294831
 21
1.7101007166283211
 31
0.0
 12
4.9240387650609794
 22
0.8682408883346407
 32
0.0
 13
4.9240387650609794
 23
0.8682408883346407
 33
0.0
  0
SOLID
  5
3BC
  8
0
  6
CONTINUOUS
 62
     0
 10
4.9240387650609794
 20
0.0
 30
0.0
 11
4.9240387650609794
 21
0.8682408883346407
 31
0.0
 12
4.9999999999999361
 22
0.0
 32
0.0
 13
4.9999999999999361
 23
0.0
 33
0.0
  0
ENDBLK
  5
3BD
  8
0
  0
BLOCK
  8
0
  2
*U55
 70
     1
 10
0.0
 20
0.0
 30
0.0
  3
*U55
  1

  0
SOLID
  5
3C0
  8
0
  6
CONTINUOUS
 62
     0
 10
-4.9240387650609758
 20
-0.8682408883346482
 30
0.0
 11
-4.9999999999999361
 21
0.0000000000000006
 31
0.0
 12
-4.9240387650609758
 22
0.0000000000000006
 32
0.0
 13
-4.9240387650609758
 23
0.0000000000000006
 33
0.0
  0
SOLID
  5
3C1
  8
0
  6
CONTINUOUS
 62
     0
 10
-4.9240387650609758
 20
-0.8682408883346482
 30
0.0
 11
-4.9240387650609758
 21
0.0000000000000006
 31
0.0
 12
-4.698463103929476
 22
-1.7101007166283351
 32
0.0
 13
-4.698463103929476
 23
-1.7101007166283351
 33
0.0
  0
SOLID
  5
3C2
  8
0
  6
CONTINUOUS
 62
     0
 10
-4.698463103929476
 20
-1.7101007166283351
 30
0.0
 11
-4.9240387650609758
 21
0.0000000000000006
 31
0.0
 12
-4.698463103929476
 22
0.0000000000000006
 32
0.0
 13
-4.698463103929476
 23
0.0000000000000006
 33
0.0
  0
SOLID
  5
3C3
  8
0
  6
CONTINUOUS
 62
     0
 10
-4.698463103929476
 20
-1.7101007166283351
 30
0.0
 11
-4.698463103929476
 21
0.0000000000000006
 31
0.0
 12
-4.330127018922127
 22
-2.499999999999988
 32
0.0
 13
-4.330127018922127
 23
-2.499999999999988
 33
0.0
  0
SOLID
  5
3C4
  8
0
  6
CONTINUOUS
 62
     0
 10
-4.330127018922127
 20
-2.499999999999988
 30
0.0
 11
-4.698463103929476
 21
0.0000000000000006
 31
0.0
 12
-4.330127018922127
 22
0.0000000000000005
 32
0.0
 13
-4.330127018922127
 23
0.0000000000000005
 33
0.0
  0
SOLID
  5
3C5
  8
0
  6
CONTINUOUS
 62
     0
 10
-4.330127018922127
 20
-2.499999999999988
 30
0.0
 11
-4.330127018922127
 21
0.0000000000000005
 31
0.0
 12
-3.8302222155948229
 22
-3.2139380484326781
 32
0.0
 13
-3.8302222155948229
 23
-3.2139380484326781
 33
0.0
  0
SOLID
  5
3C6
  8
0
  6
CONTINUOUS
 62
     0
 10
-3.8302222155948229
 20
-3.2139380484326781
 30
0.0
 11
-4.330127018922127
 21
0.0000000000000005
 31
0.0
 12
-3.8302222155948229
 22
0.0000000000000005
 32
0.0
 13
-3.8302222155948229
 23
0.0000000000000005
 33
0.0
  0
SOLID
  5
3C7
  8
0
  6
CONTINUOUS
 62
     0
 10
-3.8302222155948229
 20
-3.2139380484326781
 30
0.0
 11
-3.8302222155948229
 21
0.0000000000000005
 31
0.0
 12
-3.2139380484326261
 22
-3.8302222155948682
 32
0.0
 13
-3.2139380484326261
 23
-3.8302222155948682
 33
0.0
  0
SOLID
  5
3C8
  8
0
  6
CONTINUOUS
 62
     0
 10
-3.2139380484326261
 20
-3.8302222155948682
 30
0.0
 11
-3.8302222155948229
 21
0.0000000000000005
 31
0.0
 12
-3.2139380484326261
 22
0.0000000000000004
 32
0.0
 13
-3.2139380484326261
 23
0.0000000000000004
 33
0.0
  0
SOLID
  5
3C9
  8
0
  6
CONTINUOUS
 62
     0
 10
-3.2139380484326261
 20
-3.8302222155948682
 30
0.0
 11
-3.2139380484326261
 21
0.0000000000000004
 31
0.0
 12
-2.4999999999999281
 22
-4.3301270189221608
 32
0.0
 13
-2.4999999999999281
 23
-4.3301270189221608
 33
0.0
  0
SOLID
  5
3CA
  8
0
  6
CONTINUOUS
 62
     0
 10
-2.4999999999999281
 20
-4.3301270189221608
 30
0.0
 11
-3.2139380484326261
 21
0.0000000000000004
 31
0.0
 12
-2.4999999999999281
 22
0.0000000000000003
 32
0.0
 13
-2.4999999999999281
 23
0.0000000000000003
 33
0.0
  0
SOLID
  5
3CB
  8
0
  6
CONTINUOUS
 62
     0
 10
-2.4999999999999281
 20
-4.3301270189221608
 30
0.0
 11
-2.4999999999999281
 21
0.0000000000000003
 31
0.0
 12
-1.71010071662827
 22
-4.6984631039295
 32
0.0
 13
-1.71010071662827
 23
-4.6984631039295
 33
0.0
  0
SOLID
  5
3CC
  8
0
  6
CONTINUOUS
 62
     0
 10
-1.71010071662827
 20
-4.6984631039295
 30
0.0
 11
-2.4999999999999281
 21
0.0000000000000003
 31
0.0
 12
-1.71010071662827
 22
0.0000000000000002
 32
0.0
 13
-1.71010071662827
 23
0.0000000000000002
 33
0.0
  0
SOLID
  5
3CD
  8
0
  6
CONTINUOUS
 62
     0
 10
-1.71010071662827
 20
-4.6984631039295
 30
0.0
 11
-1.71010071662827
 21
0.0000000000000002
 31
0.0
 12
-0.8682408883345795
 22
-4.92403876506099
 32
0.0
 13
-0.8682408883345795
 23
-4.92403876506099
 33
0.0
  0
SOLID
  5
3CE
  8
0
  6
CONTINUOUS
 62
     0
 10
-0.8682408883345795
 20
-4.92403876506099
 30
0.0
 11
-1.71010071662827
 21
0.0000000000000002
 31
0.0
 12
-0.8682408883345795
 22
0.0000000000000001
 32
0.0
 13
-0.8682408883345795
 23
0.0000000000000001
 33
0.0
  0
SOLID
  5
3CF
  8
0
  6
CONTINUOUS
 62
     0
 10
-0.8682408883345795
 20
-4.92403876506099
 30
0.0
 11
-0.8682408883345795
 21
0.0000000000000001
 31
0.0
 12
0.0
 22
-4.9999999999999458
 32
0.0
 13
0.0
 23
-4.9999999999999458
 33
0.0
  0
SOLID
  5
3D0
  8
0
  6
CONTINUOUS
 62
     0
 10
0.0
 20
-4.9999999999999458
 30
0.0
 11
-0.8682408883345795
 21
0.0000000000000001
 31
0.0
 12
0.0
 22
0.0
 32
0.0
 13
0.0
 23
0.0
 33
0.0
  0
ENDBLK
  5
3D1
  8
0
  0
BLOCK
  8
0
  2
SW_DOWELSYMBOL_1
 70
     0
 10
0.0
 20
0.0
 30
0.0
  3
SW_DOWELSYMBOL_1
  1

  0
CIRCLE
  5
3A6
  8
COTAS
 62
     0
 10
0.0
 20
0.0
 30
0.0
 40
4.999999999999714
  0
INSERT
  5
3A7
  8
0
  6
SLD-SÓLIDA
 62
     0
  2
*U57
 10
0.0
 20
0.0
 30
0.0
  0
INSERT
  5
3A8
  8
0
  6
SLD-SÓLIDA
 62
     0
  2
*U58
 10
0.0
 20
0.0
 30
0.0
  0
ENDBLK
  5
3A9
  8
0
  0
BLOCK
  8
0
  2
*U57
 70
     1
 10
0.0
 20
0.0
 30
0.0
  3
*U57
  1

  0
SOLID
  5
3D4
  8
0
  6
CONTINUOUS
 62
     0
 10
0.0
 20
0.0
 30
0.0
 11
0.0
 21
4.9999999999997264
 31
0.0
 12
0.8682408883346028
 22
0.0
 32
0.0
 13
0.8682408883346028
 23
0.0
 33
0.0
  0
SOLID
  5
3D5
  8
0
  6
CONTINUOUS
 62
     0
 10
0.8682408883346028
 20
0.0
 30
0.0
 11
0.0
 21
4.9999999999997264
 31
0.0
 12
0.8682408883346028
 22
4.9240387650607591
 32
0.0
 13
0.8682408883346028
 23
4.9240387650607591
 33
0.0
  0
SOLID
  5
3D6
  8
0
  6
CONTINUOUS
 62
     0
 10
0.8682408883346028
 20
0.0
 30
0.0
 11
0.8682408883346028
 21
4.9240387650607591
 31
0.0
 12
1.710100716628244
 22
0.0
 32
0.0
 13
1.710100716628244
 23
0.0
 33
0.0
  0
SOLID
  5
3D7
  8
0
  6
CONTINUOUS
 62
     0
 10
1.710100716628244
 20
0.0
 30
0.0
 11
0.8682408883346028
 21
4.9240387650607591
 31
0.0
 12
1.710100716628244
 22
4.6984631039292717
 32
0.0
 13
1.710100716628244
 23
4.6984631039292717
 33
0.0
  0
SOLID
  5
3D8
  8
0
  6
CONTINUOUS
 62
     0
 10
1.710100716628244
 20
0.0
 30
0.0
 11
1.710100716628244
 21
4.6984631039292717
 31
0.0
 12
2.499999999999857
 22
0.0
 32
0.0
 13
2.499999999999857
 23
0.0
 33
0.0
  0
SOLID
  5
3D9
  8
0
  6
CONTINUOUS
 62
     0
 10
2.499999999999857
 20
0.0
 30
0.0
 11
1.710100716628244
 21
4.6984631039292717
 31
0.0
 12
2.499999999999857
 22
4.3301270189219441
 32
0.0
 13
2.499999999999857
 23
4.3301270189219441
 33
0.0
  0
SOLID
  5
3DA
  8
0
  6
CONTINUOUS
 62
     0
 10
2.499999999999857
 20
0.0
 30
0.0
 11
2.499999999999857
 21
4.3301270189219441
 31
0.0
 12
3.2139380484325111
 22
0.0
 32
0.0
 13
3.2139380484325111
 23
0.0
 33
0.0
  0
SOLID
  5
3DB
  8
0
  6
CONTINUOUS
 62
     0
 10
3.2139380484325111
 20
0.0
 30
0.0
 11
2.499999999999857
 21
4.3301270189219441
 31
0.0
 12
3.2139380484325111
 22
3.830222215594671
 32
0.0
 13
3.2139380484325111
 23
3.830222215594671
 33
0.0
  0
SOLID
  5
3DC
  8
0
  6
CONTINUOUS
 62
     0
 10
3.2139380484325111
 20
0.0
 30
0.0
 11
3.2139380484325111
 21
3.830222215594671
 31
0.0
 12
3.830222215594671
 22
0.0
 32
0.0
 13
3.830222215594671
 23
0.0
 33
0.0
  0
SOLID
  5
3DD
  8
0
  6
CONTINUOUS
 62
     0
 10
3.830222215594671
 20
0.0
 30
0.0
 11
3.2139380484325111
 21
3.830222215594671
 31
0.0
 12
3.830222215594671
 22
3.2139380484325111
 32
0.0
 13
3.830222215594671
 23
3.2139380484325111
 33
0.0
  0
SOLID
  5
3DE
  8
0
  6
CONTINUOUS
 62
     0
 10
3.830222215594671
 20
0.0
 30
0.0
 11
3.830222215594671
 21
3.2139380484325111
 31
0.0
 12
4.3301270189219441
 22
0.0
 32
0.0
 13
4.3301270189219441
 23
0.0
 33
0.0
  0
SOLID
  5
3DF
  8
0
  6
CONTINUOUS
 62
     0
 10
4.3301270189219441
 20
0.0
 30
0.0
 11
3.830222215594671
 21
3.2139380484325111
 31
0.0
 12
4.3301270189219441
 22
2.499999999999857
 32
0.0
 13
4.3301270189219441
 23
2.499999999999857
 33
0.0
  0
SOLID
  5
3E0
  8
0
  6
CONTINUOUS
 62
     0
 10
4.3301270189219441
 20
0.0
 30
0.0
 11
4.3301270189219441
 21
2.499999999999857
 31
0.0
 12
4.6984631039292717
 22
0.0
 32
0.0
 13
4.6984631039292717
 23
0.0
 33
0.0
  0
SOLID
  5
3E1
  8
0
  6
CONTINUOUS
 62
     0
 10
4.6984631039292717
 20
0.0
 30
0.0
 11
4.3301270189219441
 21
2.499999999999857
 31
0.0
 12
4.6984631039292717
 22
1.710100716628244
 32
0.0
 13
4.6984631039292717
 23
1.710100716628244
 33
0.0
  0
SOLID
  5
3E2
  8
0
  6
CONTINUOUS
 62
     0
 10
4.6984631039292717
 20
0.0
 30
0.0
 11
4.6984631039292717
 21
1.710100716628244
 31
0.0
 12
4.9240387650607591
 22
0.0
 32
0.0
 13
4.9240387650607591
 23
0.0
 33
0.0
  0
SOLID
  5
3E3
  8
0
  6
CONTINUOUS
 62
     0
 10
4.9240387650607591
 20
0.0
 30
0.0
 11
4.6984631039292717
 21
1.710100716628244
 31
0.0
 12
4.9240387650607591
 22
0.8682408883346022
 32
0.0
 13
4.9240387650607591
 23
0.8682408883346022
 33
0.0
  0
SOLID
  5
3E4
  8
0
  6
CONTINUOUS
 62
     0
 10
4.9240387650607591
 20
0.0
 30
0.0
 11
4.9240387650607591
 21
0.8682408883346022
 31
0.0
 12
4.999999999999714
 22
0.0
 32
0.0
 13
4.999999999999714
 23
0.0
 33
0.0
  0
ENDBLK
  5
3E5
  8
0
  0
BLOCK
  8
0
  2
*U58
 70
     1
 10
0.0
 20
0.0
 30
0.0
  3
*U58
  1

  0
SOLID
  5
3E8
  8
0
  6
CONTINUOUS
 62
     0
 10
-4.9240387650607591
 20
-0.8682408883346093
 30
0.0
 11
-4.999999999999714
 21
0.0000000000000006
 31
0.0
 12
-4.9240387650607591
 22
0.0000000000000006
 32
0.0
 13
-4.9240387650607591
 23
0.0000000000000006
 33
0.0
  0
SOLID
  5
3E9
  8
0
  6
CONTINUOUS
 62
     0
 10
-4.9240387650607591
 20
-0.8682408883346096
 30
0.0
 11
-4.9240387650607591
 21
0.0000000000000006
 31
0.0
 12
-4.698463103929269
 22
-1.71010071662826
 32
0.0
 13
-4.698463103929269
 23
-1.71010071662826
 33
0.0
  0
SOLID
  5
3EA
  8
0
  6
CONTINUOUS
 62
     0
 10
-4.698463103929269
 20
-1.71010071662826
 30
0.0
 11
-4.9240387650607591
 21
0.0000000000000006
 31
0.0
 12
-4.698463103929269
 22
0.0000000000000006
 32
0.0
 13
-4.698463103929269
 23
0.0000000000000006
 33
0.0
  0
SOLID
  5
3EB
  8
0
  6
CONTINUOUS
 62
     0
 10
-4.698463103929269
 20
-1.71010071662826
 30
0.0
 11
-4.698463103929269
 21
0.0000000000000006
 31
0.0
 12
-4.3301270189219352
 22
-2.4999999999998761
 32
0.0
 13
-4.3301270189219352
 23
-2.4999999999998761
 33
0.0
  0
SOLID
  5
3EC
  8
0
  6
CONTINUOUS
 62
     0
 10
-4.3301270189219352
 20
-2.4999999999998761
 30
0.0
 11
-4.698463103929269
 21
0.0000000000000006
 31
0.0
 12
-4.3301270189219352
 22
0.0000000000000005
 32
0.0
 13
-4.3301270189219352
 23
0.0000000000000005
 33
0.0
  0
SOLID
  5
3ED
  8
0
  6
CONTINUOUS
 62
     0
 10
-4.3301270189219352
 20
-2.4999999999998761
 30
0.0
 11
-4.3301270189219352
 21
0.0000000000000005
 31
0.0
 12
-3.8302222155946519
 22
-3.2139380484325351
 32
0.0
 13
-3.8302222155946519
 23
-3.2139380484325351
 33
0.0
  0
SOLID
  5
3EE
  8
0
  6
CONTINUOUS
 62
     0
 10
-3.8302222155946519
 20
-3.2139380484325351
 30
0.0
 11
-4.3301270189219352
 21
0.0000000000000005
 31
0.0
 12
-3.8302222155946519
 22
0.0000000000000005
 32
0.0
 13
-3.8302222155946519
 23
0.0000000000000005
 33
0.0
  0
SOLID
  5
3EF
  8
0
  6
CONTINUOUS
 62
     0
 10
-3.8302222155946519
 20
-3.2139380484325351
 30
0.0
 11
-3.8302222155946519
 21
0.0000000000000005
 31
0.0
 12
-3.2139380484324831
 22
-3.830222215594695
 32
0.0
 13
-3.2139380484324831
 23
-3.830222215594695
 33
0.0
  0
SOLID
  5
3F0
  8
0
  6
CONTINUOUS
 62
     0
 10
-3.2139380484324831
 20
-3.830222215594695
 30
0.0
 11
-3.8302222155946519
 21
0.0000000000000005
 31
0.0
 12
-3.2139380484324831
 22
0.0000000000000004
 32
0.0
 13
-3.2139380484324831
 23
0.0000000000000004
 33
0.0
  0
SOLID
  5
3F1
  8
0
  6
CONTINUOUS
 62
     0
 10
-3.2139380484324831
 20
-3.830222215594695
 30
0.0
 11
-3.2139380484324831
 21
0.0000000000000004
 31
0.0
 12
-2.499999999999817
 22
-4.3301270189219681
 32
0.0
 13
-2.499999999999817
 23
-4.3301270189219681
 33
0.0
  0
SOLID
  5
3F2
  8
0
  6
CONTINUOUS
 62
     0
 10
-2.499999999999817
 20
-4.3301270189219681
 30
0.0
 11
-3.2139380484324831
 21
0.0000000000000004
 31
0.0
 12
-2.499999999999817
 22
0.0000000000000003
 32
0.0
 13
-2.499999999999817
 23
0.0000000000000003
 33
0.0
  0
SOLID
  5
3F3
  8
0
  6
CONTINUOUS
 62
     0
 10
-2.499999999999817
 20
-4.3301270189219681
 30
0.0
 11
-2.499999999999817
 21
0.0000000000000003
 31
0.0
 12
-1.7101007166281941
 22
-4.698463103929293
 32
0.0
 13
-1.7101007166281941
 23
-4.698463103929293
 33
0.0
  0
SOLID
  5
3F4
  8
0
  6
CONTINUOUS
 62
     0
 10
-1.7101007166281941
 20
-4.698463103929293
 30
0.0
 11
-2.499999999999817
 21
0.0000000000000003
 31
0.0
 12
-1.7101007166281941
 22
0.0000000000000002
 32
0.0
 13
-1.7101007166281941
 23
0.0000000000000002
 33
0.0
  0
SOLID
  5
3F5
  8
0
  6
CONTINUOUS
 62
     0
 10
-1.7101007166281941
 20
-4.698463103929293
 30
0.0
 11
-1.7101007166281941
 21
0.0000000000000002
 31
0.0
 12
-0.8682408883345408
 22
-4.924038765060768
 32
0.0
 13
-0.8682408883345408
 23
-4.924038765060768
 33
0.0
  0
SOLID
  5
3F6
  8
0
  6
CONTINUOUS
 62
     0
 10
-0.8682408883345408
 20
-4.924038765060768
 30
0.0
 11
-1.7101007166281941
 21
0.0000000000000002
 31
0.0
 12
-0.8682408883345408
 22
0.0000000000000001
 32
0.0
 13
-0.8682408883345408
 23
0.0000000000000001
 33
0.0
  0
SOLID
  5
3F7
  8
0
  6
CONTINUOUS
 62
     0
 10
-0.8682408883345408
 20
-4.924038765060768
 30
0.0
 11
-0.8682408883345408
 21
0.0000000000000001
 31
0.0
 12
0.0
 22
-4.9999999999997264
 32
0.0
 13
0.0
 23
-4.9999999999997264
 33
0.0
  0
SOLID
  5
3F8
  8
0
  6
CONTINUOUS
 62
     0
 10
0.0
 20
-4.9999999999997264
 30
0.0
 11
-0.8682408883345408
 21
0.0000000000000001
 31
0.0
 12
0.0
 22
0.0
 32
0.0
 13
0.0
 23
0.0
 33
0.0
  0
ENDBLK
  5
3F9
  8
0
  0
BLOCK
  8
0
  2
*D59
 70
     1
 10
0.0
 20
0.0
 30
0.0
  3
*D59
  1

  0
LINE
  5
66D
  8
COTAS
 62
     0
 10
378.5713312818371037
 20
40.8928527439618819
 30
0.0
 11
378.5713312818371037
 21
26.0103358561873783
 31
0.0
  0
INSERT
  5
66E
  8
0
  2
*U60
 10
0.0
 20
0.0
 30
0.0
  0
POINT
  5
66F
  8
DEFPOINTS
 62
     0
 10
378.5713312818371037
 20
40.9553527439619103
 30
0.0
  0
POINT
  5
670
  8
DEFPOINTS
 62
     0
 10
378.5713312818371037
 20
26.0103358561873783
 30
0.0
  0
POINT
  5
671
  8
DEFPOINTS
 62
     0
 10
378.5713312818371037
 20
40.9553527439619103
 30
0.0
  0
ENDBLK
  5
5D1
  8
0
  0
BLOCK
  8
0
  2
*U60
 70
     1
 10
0.0
 20
0.0
 30
0.0
  3
*U60
  1

  0
TEXT
  5
7EF
  8
COTAS
 62
     0
 10
380.3213312818368763
 20
23.8228358561872717
 30
0.0
 40
3.5
  1
0
 50
90.0
 41
0.75
  7
SLDTEXTSTYLE2
  0
ENDBLK
  5
7F1
  8
0
  0
BLOCK
  8
0
  2
*D61
 70
     1
 10
0.0
 20
0.0
 30
0.0
  3
*D61
  1

  0
LINE
  5
672
  8
COTAS
 62
     0
 10
351.3213312818400027
 20
76.6714849291348628
 30
0.0
 11
351.3213312818400027
 21
26.0103358561873783
 31
0.0
  0
INSERT
  5
673
  8
0
  2
*U62
 10
0.0
 20
0.0
 30
0.0
  0
POINT
  5
674
  8
DEFPOINTS
 62
     0
 10
351.3213312818400027
 20
76.7339849291348628
 30
0.0
  0
POINT
  5
675
  8
DEFPOINTS
 62
     0
 10
351.3213312818400027
 20
26.0103358561873783
 30
0.0
  0
POINT
  5
676
  8
DEFPOINTS
 62
     0
 10
378.5713312818371037
 20
40.9553527439619103
 30
0.0
  0
ENDBLK
  5
5D9
  8
0
  0
BLOCK
  8
0
  2
*U62
 70
     1
 10
0.0
 20
0.0
 30
0.0
  3
*U62
  1

  0
TEXT
  5
7F3
  8
COTAS
 62
     0
 10
353.0713312818400027
 20
17.2603358561872717
 30
0.0
 40
3.5
  1
54.5
 50
90.0
 41
0.75
  7
SLDTEXTSTYLE2
  0
ENDBLK
  5
7F5
  8
0
  0
BLOCK
  8
0
  2
*D63
 70
     1
 10
0.0
 20
0.0
 30
0.0
  3
*D63
  1

  0
LINE
  5
677
  8
COTAS
 62
     0
 10
339.8213312818401164
 20
75.4214849291352891
 30
0.0
 11
339.8213312818401164
 21
26.0103358561873783
 31
0.0
  0
INSERT
  5
678
  8
0
  2
*U64
 10
0.0
 20
0.0
 30
0.0
  0
POINT
  5
679
  8
DEFPOINTS
 62
     0
 10
339.8213312818401164
 20
75.4839849291352891
 30
0.0
  0
POINT
  5
67A
  8
DEFPOINTS
 62
     0
 10
339.8213312818401164
 20
26.0103358561873783
 30
0.0
  0
POINT
  5
67B
  8
DEFPOINTS
 62
     0
 10
378.5713312818371037
 20
40.9553527439619103
 30
0.0
  0
ENDBLK
  5
5E1
  8
0
  0
BLOCK
  8
0
  2
*U64
 70
     1
 10
0.0
 20
0.0
 30
0.0
  3
*U64
  1

  0
TEXT
  5
7F7
  8
COTAS
 62
     0
 10
341.5713312818401164
 20
17.2603358561872717
 30
0.0
 40
3.5
  1
77.5
 50
90.0
 41
0.75
  7
SLDTEXTSTYLE2
  0
ENDBLK
  5
7F9
  8
0
  0
BLOCK
  8
0
  2
*D65
 70
     1
 10
0.0
 20
0.0
 30
0.0
  3
*D65
  1

  0
LINE
  5
67C
  8
COTAS
 62
     0
 10
331.3213312818400027
 20
45.1714849291348131
 30
0.0
 11
331.3213312818400027
 21
26.0103358561873783
 31
0.0
  0
INSERT
  5
67D
  8
0
  2
*U66
 10
0.0
 20
0.0
 30
0.0
  0
POINT
  5
67E
  8
DEFPOINTS
 62
     0
 10
331.3213312818400027
 20
45.2339849291348131
 30
0.0
  0
POINT
  5
67F
  8
DEFPOINTS
 62
     0
 10
331.3213312818400027
 20
26.0103358561873783
 30
0.0
  0
POINT
  5
680
  8
DEFPOINTS
 62
     0
 10
378.5713312818371037
 20
40.9553527439619103
 30
0.0
  0
ENDBLK
  5
5E9
  8
0
  0
BLOCK
  8
0
  2
*U66
 70
     1
 10
0.0
 20
0.0
 30
0.0
  3
*U66
  1

  0
TEXT
  5
7FB
  8
COTAS
 62
     0
 10
333.071331281839889
 20
17.2603358561872717
 30
0.0
 40
3.5
  1
94.5
 50
90.0
 41
0.75
  7
SLDTEXTSTYLE2
  0
ENDBLK
  5
7FD
  8
0
  0
BLOCK
  8
0
  2
*D67
 70
     1
 10
0.0
 20
0.0
 30
0.0
  3
*D67
  1

  0
LINE
  5
681
  8
COTAS
 62
     0
 10
406.3213312818376721
 20
75.1714849291349481
 30
0.0
 11
406.3213312818376721
 21
26.0103358561873783
 31
0.0
  0
INSERT
  5
682
  8
0
  2
*U68
 10
0.0
 20
0.0
 30
0.0
  0
POINT
  5
683
  8
DEFPOINTS
 62
     0
 10
406.3213312818376721
 20
75.2339849291349481
 30
0.0
  0
POINT
  5
684
  8
DEFPOINTS
 62
     0
 10
406.3213312818376721
 20
26.0103358561873783
 30
0.0
  0
POINT
  5
685
  8
DEFPOINTS
 62
     0
 10
378.5713312818371037
 20
40.9553527439619103
 30
0.0
  0
ENDBLK
  5
5F1
  8
0
  0
BLOCK
  8
0
  2
*U68
 70
     1
 10
0.0
 20
0.0
 30
0.0
  3
*U68
  1

  0
TEXT
  5
7FF
  8
COTAS
 62
     0
 10
408.0713312818376153
 20
17.2603358561872611
 30
0.0
 40
3.5
  1
55.5
 50
90.0
 41
0.75
  7
SLDTEXTSTYLE2
  0
ENDBLK
  5
801
  8
0
  0
BLOCK
  8
0
  2
*D69
 70
     1
 10
0.0
 20
0.0
 30
0.0
  3
*D69
  1

  0
LINE
  5
686
  8
COTAS
 62
     0
 10
417.8213312818372742
 20
89.1714849291349196
 30
0.0
 11
417.8213312818372742
 21
26.0103358561873783
 31
0.0
  0
INSERT
  5
687
  8
0
  2
*U70
 10
0.0
 20
0.0
 30
0.0
  0
POINT
  5
688
  8
DEFPOINTS
 62
     0
 10
417.8213312818372742
 20
89.2339849291349054
 30
0.0
  0
POINT
  5
689
  8
DEFPOINTS
 62
     0
 10
417.8213312818372742
 20
26.0103358561873783
 30
0.0
  0
POINT
  5
68A
  8
DEFPOINTS
 62
     0
 10
378.5713312818371037
 20
40.9553527439619103
 30
0.0
  0
ENDBLK
  5
5F9
  8
0
  0
BLOCK
  8
0
  2
*U70
 70
     1
 10
0.0
 20
0.0
 30
0.0
  3
*U70
  1

  0
TEXT
  5
803
  8
COTAS
 62
     0
 10
419.57133128183699
 20
17.2603358561872611
 30
0.0
 40
3.5
  1
78.5
 50
90.0
 41
0.75
  7
SLDTEXTSTYLE2
  0
ENDBLK
  5
805
  8
0
  0
BLOCK
  8
0
  2
*D71
 70
     1
 10
0.0
 20
0.0
 30
0.0
  3
*D71
  1

  0
LINE
  5
68B
  8
COTAS
 62
     0
 10
426.3213312818360237
 20
75.1714849291347207
 30
0.0
 11
426.3213312818360237
 21
26.0103358561873783
 31
0.0
  0
INSERT
  5
68C
  8
0
  2
*U72
 10
0.0
 20
0.0
 30
0.0
  0
POINT
  5
68D
  8
DEFPOINTS
 62
     0
 10
426.3213312818360237
 20
75.2339849291347207
 30
0.0
  0
POINT
  5
68E
  8
DEFPOINTS
 62
     0
 10
426.3213312818360237
 20
26.0103358561873783
 30
0.0
  0
POINT
  5
68F
  8
DEFPOINTS
 62
     0
 10
378.5713312818371037
 20
40.9553527439619103
 30
0.0
  0
ENDBLK
  5
601
  8
0
  0
BLOCK
  8
0
  2
*U72
 70
     1
 10
0.0
 20
0.0
 30
0.0
  3
*U72
  1

  0
TEXT
  5
807
  8
COTAS
 62
     0
 10
428.0713312818360237
 20
17.2603358561872611
 30
0.0
 40
3.5
  1
95.5
 50
90.0
 41
0.75
  7
SLDTEXTSTYLE2
  0
ENDBLK
  5
809
  8
0
  0
BLOCK
  8
0
  2
*D73
 70
     1
 10
0.0
 20
0.0
 30
0.0
  3
*D73
  1

  0
LINE
  5
690
  8
COTAS
 62
     0
 10
366.9500480144238281
 20
68.1748624294216228
 30
0.0
 11
405.8022150719850742
 21
78.5852692166938738
 31
0.0
  0
INSERT
  5
691
  8
0
  2
*U74
 10
0.0
 20
0.0
 30
0.0
  0
LINE
  5
692
  8
COTAS
 62
     0
 10
418.6509604132825189
 20
82.0280801546474265
 30
0.0
 11
408.9917021503919159
 21
79.4398897036223417
 31
0.0
  0
SOLID
  5
693
  8
COTAS
 62
     0
 10
405.659778324163824
 20
79.1168503964282763
 30
0.0
 11
405.9446518198067224
 21
78.0536880369594428
 31
0.0
 12
408.9917021503919159
 22
79.4398897036223417
 32
0.0
 13
408.9917021503919159
 23
79.4398897036223417
 33
0.0
  0
POINT
  5
694
  8
DEFPOINTS
 62
     0
 10
408.9917021503919159
 20
79.4398897036223417
 30
0.0
  0
POINT
  5
695
  8
DEFPOINTS
 62
     0
 10
418.6509604132825189
 20
82.0280801546474265
 30
0.0
  0
ENDBLK
  5
609
  8
0
  0
BLOCK
  8
0
  2
*U74
 70
     1
 10
0.0
 20
0.0
 30
0.0
  3
*U74
  1

  0
TEXT
  5
80B
  8
COTAS
 62
     0
 10
365.7570331322444872
 20
76.0079949759127231
 30
0.0
 40
3.5
  1
\U+220520
 50
14.9999999999993801
 41
0.75
  7
SLDTEXTSTYLE2
  0
TEXT
  5
80C
  8
COTAS
 62
     0
 10
372.3371953600303073
 20
80.1867885518704639
 30
0.0
 40
3.5
  1
+0.02
 50
14.9999999999993801
 41
0.75
  7
SLDTEXTSTYLE2
  0
TEXT
  5
80D
  8
COTAS
 62
     0
 10
373.545017570508719
 20
75.6791346958548274
 30
0.0
 40
3.5
  1
 0
 50
14.9999999999993801
 41
0.75
  7
SLDTEXTSTYLE2
  0
TEXT
  5
80E
  8
COTAS
 62
     0
 10
382.4794165360655143
 20
82.9043885254468336
 30
0.0
 40
3.5
  1
H7
 50
14.9999999999993801
 41
0.75
  7
SLDTEXTSTYLE2
  0
TEXT
  5
80F
  8
COTAS
 62
     0
 10
382.7813720886850888
 20
81.7774750614429138
 30
0.0
 40
3.5
  1

 50
14.9999999999993801
 41
0.75
  7
SLDTEXTSTYLE2
  0
TEXT
  5
810
  8
COTAS
 62
     0
 10
376.2319137024920792
 20
71.5677975026523541
 30
0.0
 40
3.5
  1
2X
 50
14.9999999999993801
 41
0.75
  7
SLDTEXTSTYLE2
  0
ENDBLK
  5
812
  8
0
  0
BLOCK
  8
0
  2
*D75
 70
     1
 10
0.0
 20
0.0
 30
0.0
  3
*D75
  1

  0
LINE
  5
696
  8
COTAS
 62
     0
 10
343.8213312818400027
 20
95.7964849291351612
 30
0.0
 11
343.8213312818400027
 21
145.4423818791271117
 31
0.0
  0
LINE
  5
697
  8
COTAS
 62
     0
 10
413.8213312818368763
 20
80.7964849291349054
 30
0.0
 11
413.8213312818368763
 21
145.4423818791271117
 31
0.0
  0
LINE
  5
698
  8
COTAS
 62
     0
 10
347.1233312818400236
 20
145.4423818791271117
 30
0.0
 11
410.5193312818370828
 21
145.4423818791271117
 31
0.0
  0
SOLID
  5
699
  8
COTAS
 62
     0
 10
347.1233312818400236
 20
145.9927152124604959
 30
0.0
 11
347.1233312818400236
 21
144.8920485457938128
 31
0.0
 12
343.8213312818400027
 22
145.4423818791271117
 32
0.0
 13
343.8213312818400027
 23
145.4423818791271117
 33
0.0
  0
SOLID
  5
69A
  8
COTAS
 62
     0
 10
410.5193312818370828
 20
145.9927152124604959
 30
0.0
 11
410.5193312818370828
 21
144.8920485457938128
 31
0.0
 12
413.8213312818368763
 22
145.4423818791271117
 32
0.0
 13
413.8213312818368763
 23
145.4423818791271117
 33
0.0
  0
INSERT
  5
69B
  8
0
  2
*U76
 10
0.0
 20
0.0
 30
0.0
  0
POINT
  5
69C
  8
DEFPOINTS
 62
     0
 10
343.8213312818400027
 20
95.7339849291351754
 30
0.0
  0
POINT
  5
69D
  8
DEFPOINTS
 62
     0
 10
413.8213312818368763
 20
80.7339849291348486
 30
0.0
  0
POINT
  5
69E
  8
DEFPOINTS
 62
     0
 10
413.8213312818368763
 20
145.4423818791271117
 30
0.0
  0
ENDBLK
  5
612
  8
0
  0
BLOCK
  8
0
  2
*U76
 70
     1
 10
0.0
 20
0.0
 30
0.0
  3
*U76
  1

  0
TEXT
  5
814
  8
COTAS
 62
     0
 10
372.5432944956926917
 20
146.3173818791271117
 30
0.0
 40
3.5
  1
140±0.01
 41
0.75
  7
SLDTEXTSTYLE2
  0
ENDBLK
  5
816
  8
0
  0
BLOCK
  8
0
  2
*D77
 70
     1
 10
0.0
 20
0.0
 30
0.0
  3
*D77
  1

  0
LINE
  5
69F
  8
COTAS
 62
     0
 10
343.8838312818401164
 20
95.7339849291352039
 30
0.0
 11
466.3213312818397185
 21
95.7339849291352039
 31
0.0
  0
LINE
  5
6A0
  8
COTAS
 62
     0
 10
413.8838312818372742
 20
80.7339849291349196
 30
0.0
 11
466.3213312818397185
 21
80.7339849291349196
 31
0.0
  0
LINE
  5
6A1
  8
COTAS
 62
     0
 10
466.3213312818397185
 20
84.0359849291349121
 30
0.0
 11
466.3213312818397185
 21
92.4319849291352114
 31
0.0
  0
LINE
  5
6A2
  8
COTAS
 62
     0
 10
466.3213312818397185
 20
95.7339849291352039
 30
0.0
 11
466.3213312818397185
 21
121.3771074872015987
 31
0.0
  0
SOLID
  5
6A3
  8
COTAS
 62
     0
 10
465.7709979485064764
 20
84.0359849291349121
 30
0.0
 11
466.8716646151731879
 21
84.0359849291349121
 31
0.0
 12
466.3213312818397185
 22
80.7339849291349196
 32
0.0
 13
466.3213312818397185
 23
80.7339849291349196
 33
0.0
  0
SOLID
  5
6A4
  8
COTAS
 62
     0
 10
465.7709979485064764
 20
92.4319849291352114
 30
0.0
 11
466.8716646151731879
 21
92.4319849291352114
 31
0.0
 12
466.3213312818397185
 22
95.7339849291352039
 32
0.0
 13
466.3213312818397185
 23
95.7339849291352039
 33
0.0
  0
INSERT
  5
6A5
  8
0
  2
*U78
 10
0.0
 20
0.0
 30
0.0
  0
POINT
  5
6A6
  8
DEFPOINTS
 62
     0
 10
343.8213312818401164
 20
95.7339849291352039
 30
0.0
  0
POINT
  5
6A7
  8
DEFPOINTS
 62
     0
 10
413.8213312818373879
 20
80.7339849291349196
 30
0.0
  0
POINT
  5
6A8
  8
DEFPOINTS
 62
     0
 10
466.3213312818397185
 20
80.7339849291349196
 30
0.0
  0
ENDBLK
  5
61E
  8
0
  0
BLOCK
  8
0
  2
*U78
 70
     1
 10
0.0
 20
0.0
 30
0.0
  3
*U78
  1

  0
TEXT
  5
818
  8
COTAS
 62
     0
 10
465.4463312818397185
 20
106.9396074872014992
 30
0.0
 40
3.5
  1
30±0.01
 50
90.0
 41
0.75
  7
SLDTEXTSTYLE2
  0
ENDBLK
  5
81A
  8
0
  0
BLOCK
  8
0
  2
*D79
 70
     1
 10
0.0
 20
0.0
 30
0.0
  3
*D79
  1

  0
LINE
  5
6A9
  8
COTAS
 62
     0
 10
348.5413987511220171
 20
61.2736254400208509
 30
0.0
 11
342.0575994626918828
 21
72.7691635430816035
 31
0.0
  0
INSERT
  5
6AA
  8
0
  2
*U80
 10
0.0
 20
0.0
 30
0.0
  0
SOLID
  5
6AB
  8
COTAS
 62
     0
 10
342.5369433487769015
 20
73.0395266630718396
 30
0.0
 11
341.5782555766070914
 21
72.498800423091339
 31
0.0
 12
340.4354207427505798
 22
75.6452268595906787
 32
0.0
 13
340.4354207427505798
 23
75.6452268595906787
 33
0.0
  0
POINT
  5
6AC
  8
DEFPOINTS
 62
     0
 10
340.4354207427505798
 20
75.6452268595906787
 30
0.0
  0
POINT
  5
6AD
  8
DEFPOINTS
 62
     0
 10
339.8213312818400027
 20
76.7339849291352607
 30
0.0
  0
ENDBLK
  5
62B
  8
0
  0
BLOCK
  8
0
  2
*U80
 70
     1
 10
0.0
 20
0.0
 30
0.0
  3
*U80
  1

  0
TEXT
  5
81C
  8
COTAS
 62
     0
 10
345.0049031734292271
 20
69.3247945494706244
 30
0.0
 40
3.5
  1
R2.5
 50
299.4241924097938181
 41
0.75
  7
SLDTEXTSTYLE2
  0
ENDBLK
  5
81E
  8
0
  0
BLOCK
  8
0
  2
*D81
 70
     1
 10
0.0
 20
0.0
 30
0.0
  3
*D81
  1

  0
LINE
  5
6AE
  8
COTAS
 62
     0
 10
332.7588312818400027
 20
88.7339849291352323
 30
0.0
 11
321.3213312818389227
 21
88.7339849291352323
 31
0.0
  0
LINE
  5
6AF
  8
COTAS
 62
     0
 10
341.0088312818400027
 20
76.7339849291352891
 30
0.0
 11
321.3213312818389227
 21
76.7339849291352891
 31
0.0
  0
LINE
  5
6B0
  8
COTAS
 62
     0
 10
321.3213312818389227
 20
85.4319849291352256
 30
0.0
 11
321.3213312818389227
 21
80.0359849291352816
 31
0.0
  0
LINE
  5
6B1
  8
COTAS
 62
     0
 10
321.3213312818389227
 20
76.7339849291352891
 30
0.0
 11
321.3213312818389227
 21
61.0065075248153192
 31
0.0
  0
SOLID
  5
6B2
  8
COTAS
 62
     0
 10
320.7709979485056238
 20
85.4319849291352256
 30
0.0
 11
321.8716646151722216
 21
85.4319849291352256
 31
0.0
 12
321.3213312818389227
 22
88.7339849291352323
 32
0.0
 13
321.3213312818389227
 23
88.7339849291352323
 33
0.0
  0
SOLID
  5
6B3
  8
COTAS
 62
     0
 10
320.7709979485056238
 20
80.0359849291352816
 30
0.0
 11
321.8716646151722216
 21
80.0359849291352816
 31
0.0
 12
321.3213312818389227
 22
76.7339849291352891
 32
0.0
 13
321.3213312818389227
 23
76.7339849291352891
 33
0.0
  0
INSERT
  5
6B4
  8
0
  2
*U82
 10
0.0
 20
0.0
 30
0.0
  0
POINT
  5
6B5
  8
DEFPOINTS
 62
     0
 10
332.8213312818401164
 20
88.7339849291352323
 30
0.0
  0
POINT
  5
6B6
  8
DEFPOINTS
 62
     0
 10
341.0713312818401164
 20
76.7339849291352891
 30
0.0
  0
POINT
  5
6B7
  8
DEFPOINTS
 62
     0
 10
321.3213312818389227
 20
76.7339849291352891
 30
0.0
  0
ENDBLK
  5
633
  8
0
  0
BLOCK
  8
0
  2
*U82
 70
     1
 10
0.0
 20
0.0
 30
0.0
  3
*U82
  1

  0
TEXT
  5
820
  8
COTAS
 62
     0
 10
320.446331281838809
 20
61.8815075248152198
 30
0.0
 40
3.5
  1
24
 50
90.0
 41
0.75
  7
SLDTEXTSTYLE2
  0
ENDBLK
  5
822
  8
0
  0
BLOCK
  8
0
  2
*D83
 70
     1
 10
0.0
 20
0.0
 30
0.0
  3
*D83
  1

  0
LINE
  5
6B8
  8
COTAS
 62
     0
 10
424.8838312818360237
 20
76.7339849291346212
 30
0.0
 11
446.3798824797294742
 21
76.7339849291346212
 31
0.0
  0
LINE
  5
6B9
  8
COTAS
 62
     0
 10
431.9121513138060209
 20
88.2339849291347775
 30
0.0
 11
446.3798824797294742
 21
88.2339849291347775
 31
0.0
  0
LINE
  5
6BA
  8
COTAS
 62
     0
 10
446.3798824797294742
 20
84.931984929134785
 30
0.0
 11
446.3798824797294742
 21
80.0359849291345853
 31
0.0
  0
LINE
  5
6BB
  8
COTAS
 62
     0
 10
446.3798824797294742
 20
76.7339849291346212
 30
0.0
 11
446.3798824797294742
 21
62.4028407002518506
 31
0.0
  0
SOLID
  5
6BC
  8
COTAS
 62
     0
 10
445.8295491463961184
 20
84.931984929134785
 30
0.0
 11
446.9302158130630005
 21
84.931984929134785
 31
0.0
 12
446.3798824797294742
 22
88.2339849291347775
 32
0.0
 13
446.3798824797294742
 23
88.2339849291347775
 33
0.0
  0
SOLID
  5
6BD
  8
COTAS
 62
     0
 10
445.8295491463961184
 20
80.0359849291345853
 30
0.0
 11
446.9302158130630005
 21
80.0359849291345853
 31
0.0
 12
446.3798824797294742
 22
76.7339849291346212
 32
0.0
 13
446.3798824797294742
 23
76.7339849291346212
 33
0.0
  0
INSERT
  5
6BE
  8
0
  2
*U84
 10
0.0
 20
0.0
 30
0.0
  0
POINT
  5
6BF
  8
DEFPOINTS
 62
     0
 10
424.8213312818360237
 20
76.7339849291346212
 30
0.0
  0
POINT
  5
6C0
  8
DEFPOINTS
 62
     0
 10
431.8496513138056798
 20
88.2339849291347775
 30
0.0
  0
POINT
  5
6C1
  8
DEFPOINTS
 62
     0
 10
446.3798824797294742
 20
88.2339849291347775
 30
0.0
  0
ENDBLK
  5
640
  8
0
  0
BLOCK
  8
0
  2
*U84
 70
     1
 10
0.0
 20
0.0
 30
0.0
  3
*U84
  1

  0
TEXT
  5
824
  8
COTAS
 62
     0
 10
445.5048824797294742
 20
63.2778407002517014
 30
0.0
 40
3.5
  1
23
 50
90.0
 41
0.75
  7
SLDTEXTSTYLE2
  0
ENDBLK
  5
826
  8
0
  0
BLOCK
  8
0
  2
*D85
 70
     1
 10
0.0
 20
0.0
 30
0.0
  3
*D85
  1

  0
LINE
  5
6C2
  8
COTAS
 62
     0
 10
416.6338312818372742
 20
99.7339849291352465
 30
0.0
 11
446.3798824797311227
 21
99.7339849291352465
 31
0.0
  0
LINE
  5
6C3
  8
COTAS
 62
     0
 10
431.9121513138060209
 20
88.2339849291347775
 30
0.0
 11
446.3798824797311227
 21
88.2339849291347775
 31
0.0
  0
LINE
  5
6C4
  8
COTAS
 62
     0
 10
446.3798824797311227
 20
91.53598492913477
 30
0.0
 11
446.3798824797311227
 21
96.4319849291352256
 31
0.0
  0
LINE
  5
6C5
  8
COTAS
 62
     0
 10
446.3798824797311227
 20
99.7339849291352465
 30
0.0
 11
446.3798824797311227
 21
109.1609849291352958
 31
0.0
  0
SOLID
  5
6C6
  8
COTAS
 62
     0
 10
445.82954914639771
 20
91.53598492913477
 30
0.0
 11
446.9302158130644216
 21
91.53598492913477
 31
0.0
 12
446.3798824797311227
 22
88.2339849291347775
 32
0.0
 13
446.3798824797311227
 23
88.2339849291347775
 33
0.0
  0
SOLID
  5
6C7
  8
COTAS
 62
     0
 10
445.82954914639771
 20
96.4319849291352256
 30
0.0
 11
446.9302158130644216
 21
96.4319849291352256
 31
0.0
 12
446.3798824797311227
 22
99.7339849291352465
 32
0.0
 13
446.3798824797311227
 23
99.7339849291352465
 33
0.0
  0
INSERT
  5
6C8
  8
0
  2
*U86
 10
0.0
 20
0.0
 30
0.0
  0
POINT
  5
6C9
  8
DEFPOINTS
 62
     0
 10
416.5713312818373879
 20
99.7339849291352465
 30
0.0
  0
POINT
  5
6CA
  8
DEFPOINTS
 62
     0
 10
431.8496513138056798
 20
88.2339849291347775
 30
0.0
  0
POINT
  5
6CB
  8
DEFPOINTS
 62
     0
 10
446.3798824797311227
 20
88.2339849291347775
 30
0.0
  0
ENDBLK
  5
64D
  8
0
  0
BLOCK
  8
0
  2
*U86
 70
     1
 10
0.0
 20
0.0
 30
0.0
  3
*U86
  1

  0
TEXT
  5
828
  8
COTAS
 62
     0
 10
445.5048824797311227
 20
103.9109849291350969
 30
0.0
 40
3.5
  1
23
 50
90.0
 41
0.75
  7
SLDTEXTSTYLE2
  0
ENDBLK
  5
82A
  8
0
  0
BLOCK
  8
0
  2
*D87
 70
     1
 10
0.0
 20
0.0
 30
0.0
  3
*D87
  1

  0
LINE
  5
6CC
  8
COTAS
 62
     0
 10
416.6338312818372742
 20
99.7339849291352465
 30
0.0
 11
438.1566494278890787
 21
99.7339849291352465
 31
0.0
  0
LINE
  5
6CD
  8
COTAS
 62
     0
 10
424.8838312818360237
 20
87.7339849291349054
 30
0.0
 11
438.1566494278890787
 21
87.7339849291349054
 31
0.0
  0
LINE
  5
6CE
  8
COTAS
 62
     0
 10
438.1566494278890787
 20
91.0359849291348695
 30
0.0
 11
438.1566494278890787
 21
96.4319849291352256
 31
0.0
  0
LINE
  5
6CF
  8
COTAS
 62
     0
 10
438.1566494278890787
 20
99.7339849291352465
 30
0.0
 11
438.1566494278890787
 21
109.1609849291352958
 31
0.0
  0
SOLID
  5
6D0
  8
COTAS
 62
     0
 10
437.6063160945561208
 20
91.0359849291348695
 30
0.0
 11
438.7069827612227186
 21
91.0359849291348695
 31
0.0
 12
438.1566494278890787
 22
87.7339849291349054
 32
0.0
 13
438.1566494278890787
 23
87.7339849291349054
 33
0.0
  0
SOLID
  5
6D1
  8
COTAS
 62
     0
 10
437.6063160945561208
 20
96.4319849291352256
 30
0.0
 11
438.7069827612227186
 21
96.4319849291352256
 31
0.0
 12
438.1566494278890787
 22
99.7339849291352465
 32
0.0
 13
438.1566494278890787
 23
99.7339849291352465
 33
0.0
  0
INSERT
  5
6D2
  8
0
  2
*U88
 10
0.0
 20
0.0
 30
0.0
  0
POINT
  5
6D3
  8
DEFPOINTS
 62
     0
 10
416.5713312818373879
 20
99.7339849291352465
 30
0.0
  0
POINT
  5
6D4
  8
DEFPOINTS
 62
     0
 10
424.8213312818360237
 20
87.7339849291349054
 30
0.0
  0
POINT
  5
6D5
  8
DEFPOINTS
 62
     0
 10
438.1566494278890787
 20
87.7339849291349054
 30
0.0
  0
ENDBLK
  5
65A
  8
0
  0
BLOCK
  8
0
  2
*U88
 70
     1
 10
0.0
 20
0.0
 30
0.0
  3
*U88
  1

  0
TEXT
  5
82C
  8
COTAS
 62
     0
 10
437.2816494278890218
 20
103.9109849291350969
 30
0.0
 40
3.5
  1
24
 50
90.0
 41
0.75
  7
SLDTEXTSTYLE2
  0
ENDBLK
  5
82E
  8
0
  0
BLOCK
  8
0
  2
*D89
 70
     1
 10
0.0
 20
0.0
 30
0.0
  3
*D89
  1

  0
LINE
  5
6D6
  8
COTAS
 62
     0
 10
373.8837217592811726
 20
119.2963754065776953
 30
0.0
 11
362.1917317792472772
 21
107.6043854265442974
 31
0.0
  0
INSERT
  5
6D7
  8
0
  2
*U90
 10
0.0
 20
0.0
 30
0.0
  0
SOLID
  5
6D8
  8
COTAS
 62
     0
 10
361.8025873473345086
 20
107.9935298584571939
 30
0.0
 11
362.5808762111605006
 21
107.2152409946313014
 31
0.0
 12
359.8568651877694151
 22
105.2695188350661937
 32
0.0
 13
359.8568651877694151
 23
105.2695188350661937
 33
0.0
  0
POINT
  5
6D9
  8
DEFPOINTS
 62
     0
 10
359.8568651877694151
 20
105.2695188350661937
 30
0.0
  0
POINT
  5
6DA
  8
DEFPOINTS
 62
     0
 10
356.3213312818380132
 20
101.7339849291349054
 30
0.0
  0
ENDBLK
  5
667
  8
0
  0
BLOCK
  8
0
  2
*U90
 70
     1
 10
0.0
 20
0.0
 30
0.0
  3
*U90
  1

  0
TEXT
  5
830
  8
COTAS
 62
     0
 10
364.4998255172844779
 20
119.3994951455007936
 30
0.0
 40
3.5
  1
R10
 50
44.9999999999993108
 41
0.75
  7
SLDTEXTSTYLE2
  0
TEXT
  5
831
  8
COTAS
 62
     0
 10
369.0886538993597128
 20
115.7387444137329027
 30
0.0
 40
3.5
  1
4X
 50
44.9999999999993108
 41
0.75
  7
SLDTEXTSTYLE2
  0
ENDBLK
  5
833
  8
0
  0
BLOCK
  8
0
  2
*U91
 70
     1
 10
0.0
 20
0.0
 30
0.0
  3
*U91
  1

  0
TEXT
  5
7BF
  8
COTAS
 10
15.56119964754809
 20
60.0037220494621977
 30
0.0
 40
3.5
  1
A1
 41
0.75
  7
SLDTEXTSTYLE2
  0
ENDBLK
  5
7C1
  8
0
  0
BLOCK
  8
0
  2
*U92
 70
     1
 10
0.0
 20
0.0
 30
0.0
  3
*U92
  1

  0
TEXT
  5
7C3
  8
COTAS
 10
15.5611996475480598
 20
67.1418727712706414
 30
0.0
 40
3.5
  1
A2
 41
0.75
  7
SLDTEXTSTYLE2
  0
ENDBLK
  5
7C5
  8
0
  0
BLOCK
  8
0
  2
*U93
 70
     1
 10
0.0
 20
0.0
 30
0.0
  3
*U93
  1

  0
TEXT
  5
7C7
  8
COTAS
 10
17.3993803054845486
 20
42.7783239482653528
 30
0.0
 40
3.5
  1
B1
 41
0.75
  7
SLDTEXTSTYLE2
  0
ENDBLK
  5
7C9
  8
0
  0
BLOCK
  8
0
  2
*U94
 70
     1
 10
0.0
 20
0.0
 30
0.0
  3
*U94
  1

  0
TEXT
  5
7CB
  8
COTAS
 10
17.3993803054845486
 20
103.3612744566618034
 30
0.0
 40
3.5
  1
B2
 41
0.75
  7
SLDTEXTSTYLE2
  0
ENDBLK
  5
7CD
  8
0
  0
BLOCK
  8
0
  2
*U95
 70
     1
 10
0.0
 20
0.0
 30
0.0
  3
*U95
  1

  0
TEXT
  5
7CF
  8
COTAS
 10
101.4810624085512956
 20
42.7783239482656725
 30
0.0
 40
3.5
  1
B3
 41
0.75
  7
SLDTEXTSTYLE2
  0
ENDBLK
  5
7D1
  8
0
  0
BLOCK
  8
0
  2
*U96
 70
     1
 10
0.0
 20
0.0
 30
0.0
  3
*U96
  1

  0
TEXT
  5
7D3
  8
COTAS
 10
101.481062408551395
 20
103.3612744566619028
 30
0.0
 40
3.5
  1
B4
 41
0.75
  7
SLDTEXTSTYLE2
  0
ENDBLK
  5
7D5
  8
0
  0
BLOCK
  8
0
  2
*U97
 70
     1
 10
0.0
 20
0.0
 30
0.0
  3
*U97
  1

  0
TEXT
  5
7D7
  8
COTAS
 10
101.5833863717108017
 20
77.8449348770737686
 30
0.0
 40
3.5
  1
A3
 41
0.75
  7
SLDTEXTSTYLE2
  0
ENDBLK
  5
7D9
  8
0
  0
BLOCK
  8
0
  2
*U98
 70
     1
 10
0.0
 20
0.0
 30
0.0
  3
*U98
  1

  0
TEXT
  5
7DB
  8
COTAS
 10
102.7961736073315961
 20
86.0608726764216243
 30
0.0
 40
3.5
  1
A4
 41
0.75
  7
SLDTEXTSTYLE2
  0
ENDBLK
  5
7DD
  8
0
  0
BLOCK
  8
0
  2
*U99
 70
     1
 10
0.0
 20
0.0
 30
0.0
  3
*U99
  1

  0
TEXT
  5
7DF
  8
0
 62
     7
 10
49.7607653999273865
 20
123.9309947720496012
 30
0.0
 40
6.349999999999997
  1
A
 41
0.75
  7
SLDTEXTSTYLE2
  0
ENDBLK
  5
7E1
  8
0
  0
BLOCK
  8
0
  2
*U100
 70
     1
 10
0.0
 20
0.0
 30
0.0
  3
*U100
  1

  0
TEXT
  5
7E3
  8
0
 62
     7
 10
49.7607653999273865
 20
17.5624606684709583
 30
0.0
 40
6.349999999999997
  1
A
 41
0.75
  7
SLDTEXTSTYLE2
  0
ENDBLK
  5
7E5
  8
0
  0
BLOCK
  8
0
  2
*U101
 70
     1
 10
0.0
 20
0.0
 30
0.0
  3
*U101
  1

  0
TEXT
  5
7E7
  8
COTAS
 10
418.2906567758108167
 20
57.1511593171850407
 30
0.0
 40
3.5
  1
B3
 41
0.75
  7
SLDTEXTSTYLE2
  0
ENDBLK
  5
7E9
  8
0
  0
BLOCK
  8
0
  2
*U102
 70
     1
 10
0.0
 20
0.0
 30
0.0
  3
*U102
  1

  0
TEXT
  5
7EB
  8
0
 62
     7
 10
366.5703597671871989
 20
31.9352960373903407
 30
0.0
 40
6.349999999999997
  1
A
 41
0.75
  7
SLDTEXTSTYLE2
  0
ENDBLK
  5
7ED
  8
0
  0
ENDSEC
  0
SECTION
  2
ENTITIES
  0
POLYLINE
  5
29C
  8
0
 66
     1
 10
0.0
 20
0.0
 30
0.0
 70
     1
  0
VERTEX
  5
C3B
  8
0
 10
3.0
 20
0.0
 30
0.0
  0
VERTEX
  5
C3C
  8
0
 10
187.0
 20
0.0
 30
0.0
  0
VERTEX
  5
C3D
  8
0
 10
190.0
 20
3.0
 30
0.0
  0
VERTEX
  5
C3E
  8
0
 10
190.0
 20
175.0
 30
0.0
  0
VERTEX
  5
C3F
  8
0
 10
187.0
 20
178.0
 30
0.0
  0
VERTEX
  5
C40
  8
0
 10
3.0
 20
178.0
 30
0.0
  0
VERTEX
  5
C41
  8
0
 10
0.0
 20
175.0
 30
0.0
  0
VERTEX
  5
C42
  8
0
 10
0.0
 20
3.0
 30
0.0
  0
SEQEND
  5
C43
  8
0
  0
POLYLINE
  5
29D
  8
0
 66
     1
 10
0.0
 20
0.0
 30
0.0
 70
     1
  0
VERTEX
  5
C44
  8
0
 10
50.0
 20
52.0
 30
0.0
  0
VERTEX
  5
C45
  8
0
 10
140.0
 20
52.0
 30
0.0
 42
0.4142135623730951
  0
VERTEX
  5
C46
  8
0
 10
150.0
 20
62.0
 30
0.0
  0
VERTEX
  5
C47
  8
0
 10
150.0
 20
116.0
 30
0.0
 42
0.4142135623730951
  0
VERTEX
  5
C48
  8
0
 10
140.0
 20
126.0
 30
0.0
  0
VERTEX
  5
C49
  8
0
 10
50.0
 20
126.0
 30
0.0
 42
0.4142135623730951
  0
VERTEX
  5
C4A
  8
0
 10
40.0
 20
116.0
 30
0.0
  0
VERTEX
  5
C4B
  8
0
 10
40.0
 20
62.0
 30
0.0
 42
0.4142135623730951
  0
SEQEND
  5
C4C
  8
0
  0
CIRCLE
  5
2A4
  8
0
 10
10.0
 20
41.0
 30
0.0
 40
3.299999999999998
  0
CIRCLE
  5
2A5
  8
0
 10
10.0
 20
41.0
 30
0.0
 40
5.5
  0
CIRCLE
  5
2A6
  8
0
 10
10.0
 20
137.0
 30
0.0
 40
3.299999999999998
  0
CIRCLE
  5
2A7
  8
0
 10
10.0
 20
137.0
 30
0.0
 40
5.5
  0
CIRCLE
  5
2A8
  8
0
 10
180.0
 20
41.0
 30
0.0
 40
3.299999999999998
  0
CIRCLE
  5
2A9
  8
0
 10
180.0
 20
41.0
 30
0.0
 40
5.5
  0
CIRCLE
  5
2AA
  8
0
 10
180.0
 20
137.0
 30
0.0
 40
3.299999999999998
  0
CIRCLE
  5
2AB
  8
0
 10
180.0
 20
137.0
 30
0.0
 40
5.5
  0
CIRCLE
  5
2AC
  8
0
 10
8.5
 20
56.0
 30
0.0
 40
1.5
  0
CIRCLE
  5
2AD
  8
0
 10
8.5
 20
84.0
 30
0.0
 40
1.5
  0
CIRCLE
  5
2AE
  8
0
 10
181.5
 20
94.0
 30
0.0
 40
1.5
  0
CIRCLE
  5
2AF
  8
0
 10
181.5
 20
122.0
 30
0.0
 40
1.5
  0
CIRCLE
  5
4ED
  8
0
  6
SLD-SÓLIDA
 62
     7
 10
336.3213312818400027
 20
112.2339849291351044
 30
0.0
 40
2.75
  0
CIRCLE
  5
4EE
  8
0
  6
SLD-SÓLIDA
 62
     7
 10
421.3213312818357963
 20
112.2339849291352039
 30
0.0
 40
2.75
  0
LINE
  5
4EF
  8
0
  6
SLD-SÓLIDA
 62
     7
 10
417.8213312818368195
 20
106.4839849291355023
 30
0.0
 11
417.8213312818368195
 21
100.9839849291351044
 31
0.0
  0
ARC
  5
4F0
  8
0
  6
SLD-SÓLIDA
 62
     7
 10
417.8213312818368195
 20
99.7339849291351754
 30
0.0
 40
1.2499999999999689
 50
90.0
 51
180.0
  0
LINE
  5
4F1
  8
0
  6
SLD-SÓLIDA
 62
     7
 10
416.5713312818371037
 20
99.7339849291351754
 30
0.0
 11
406.8213312818375016
 21
99.7339849291351186
 31
0.0
  0
LINE
  5
4F2
  8
0
  6
SLD-SÓLIDA
 62
     7
 10
406.8213312818375016
 20
101.7339849291351044
 30
0.0
 11
406.8213312818375016
 21
99.7339849291351186
 31
0.0
  0
ARC
  5
4F3
  8
0
  6
SLD-SÓLIDA
 62
     7
 10
401.3213312818376153
 20
101.7339849291350049
 30
0.0
 40
5.4999999999999689
 50
0.0
 51
90.0
  0
LINE
  5
4F4
  8
0
  6
SLD-SÓLIDA
 62
     7
 10
356.3213312818380132
 20
107.2339849291350049
 30
0.0
 11
401.3213312818376153
 21
107.233984929134806
 31
0.0
  0
ARC
  5
4F5
  8
0
  6
SLD-SÓLIDA
 62
     7
 10
356.3213312818380132
 20
101.7339849291349054
 30
0.0
 40
5.5000000000000284
 50
90.0
 51
180.0000000000015916
  0
LINE
  5
4F6
  8
0
  6
SLD-SÓLIDA
 62
     7
 10
350.8213312818396048
 20
100.733984929134806
 30
0.0
 11
350.8213312818396048
 21
101.733984929134806
 31
0.0
  0
LINE
  5
4F7
  8
0
  6
SLD-SÓLIDA
 62
     7
 10
349.821331281839889
 20
99.7339849291349623
 30
0.0
 11
350.8213312818396048
 21
100.733984929134806
 31
0.0
  0
LINE
  5
4F8
  8
0
  6
SLD-SÓLIDA
 62
     7
 10
349.821331281839889
 20
99.7339849291349623
 30
0.0
 11
346.821331281839889
 21
99.7339849291349623
 31
0.0
  0
ARC
  5
4F9
  8
0
  6
SLD-SÓLIDA
 62
     7
 10
343.821331281839889
 20
95.7339849291351754
 30
0.0
 40
5.0000000000000231
 50
53.1301023541545803
 51
126.869897645842201
  0
LINE
  5
4FA
  8
0
  6
SLD-SÓLIDA
 62
     7
 10
340.8213312818400027
 20
99.7339849291352039
 30
0.0
 11
332.8213312818400027
 21
99.7339849291350333
 31
0.0
  0
LINE
  5
4FB
  8
0
  6
SLD-SÓLIDA
 62
     7
 10
331.8213312818400027
 20
100.7339849291349054
 30
0.0
 11
332.8213312818400027
 21
99.7339849291350333
 31
0.0
  0
LINE
  5
4FC
  8
0
  6
SLD-SÓLIDA
 62
     7
 10
331.8213312818400027
 20
131.7339849291352891
 30
0.0
 11
331.8213312818400027
 21
100.7339849291349054
 31
0.0
  0
LINE
  5
4FD
  8
0
  6
SLD-SÓLIDA
 62
     7
 10
332.3213312818400027
 20
132.2339849291352891
 30
0.0
 11
331.8213312818400027
 21
131.7339849291352891
 31
0.0
  0
LINE
  5
4FE
  8
0
  6
SLD-SÓLIDA
 62
     7
 10
425.3213312818357963
 20
132.233984929134806
 30
0.0
 11
332.3213312818400027
 21
132.2339849291352891
 31
0.0
  0
LINE
  5
4FF
  8
0
  6
SLD-SÓLIDA
 62
     7
 10
425.8213312818360237
 20
131.7339849291346923
 30
0.0
 11
425.3213312818357963
 21
132.233984929134806
 31
0.0
  0
LINE
  5
500
  8
0
  6
SLD-SÓLIDA
 62
     7
 10
425.8213312818352279
 20
107.7339849291353033
 30
0.0
 11
425.8213312818360237
 21
131.7339849291346923
 31
0.0
  0
LINE
  5
501
  8
0
  6
SLD-SÓLIDA
 62
     7
 10
425.8213312818352279
 20
107.7339849291353033
 30
0.0
 11
419.0713312818357963
 21
107.7339849291354028
 31
0.0
  0
ARC
  5
502
  8
0
  6
SLD-SÓLIDA
 62
     7
 10
417.8213312818368195
 20
107.7339849291354028
 30
0.0
 40
1.2499999999999689
 50
359.9999999999984084
 51
270.0
  0
CIRCLE
  5
53B
  8
0
  6
SLD-SÓLIDA
 62
     7
 10
336.3213312818400027
 20
64.2339849291349765
 30
0.0
 40
2.75
  0
CIRCLE
  5
53C
  8
0
  6
SLD-SÓLIDA
 62
     7
 10
421.3213312818357963
 20
64.2339849291352891
 30
0.0
 40
2.75
  0
LINE
  5
53D
  8
0
  6
SLD-SÓLIDA
 62
     7
 10
339.8213312818400027
 20
69.9839849291347633
 30
0.0
 11
339.8213312818400027
 21
75.4839849291352607
 31
0.0
  0
ARC
  5
53E
  8
0
  6
SLD-SÓLIDA
 62
     7
 10
339.8213312818400027
 20
76.7339849291352607
 30
0.0
 40
1.25
 50
270.0
 51
0.0
  0
LINE
  5
53F
  8
0
  6
SLD-SÓLIDA
 62
     7
 10
341.0713312818400027
 20
76.7339849291352607
 30
0.0
 11
350.821331281839889
 21
76.7339849291347633
 31
0.0
  0
LINE
  5
540
  8
0
  6
SLD-SÓLIDA
 62
     7
 10
350.821331281839889
 20
74.7339849291348344
 30
0.0
 11
350.821331281839889
 21
76.7339849291347633
 31
0.0
  0
ARC
  5
541
  8
0
  6
SLD-SÓLIDA
 62
     7
 10
356.3213312818380132
 20
74.7339849291347775
 30
0.0
 40
5.5
 50
180.0
 51
270.0
  0
LINE
  5
542
  8
0
  6
SLD-SÓLIDA
 62
     7
 10
401.3213312818376153
 20
69.2339849291348628
 30
0.0
 11
356.3213312818380132
 21
69.2339849291348202
 31
0.0
  0
ARC
  5
543
  8
0
  6
SLD-SÓLIDA
 62
     7
 10
401.3213312818376153
 20
74.733984929135346
 30
0.0
 40
5.5000000000004832
 50
270.0
 51
0.0
  0
LINE
  5
544
  8
0
  6
SLD-SÓLIDA
 62
     7
 10
406.8213312818375016
 20
75.7339849291352891
 30
0.0
 11
406.8213312818375016
 21
74.7339849291353744
 31
0.0
  0
LINE
  5
545
  8
0
  6
SLD-SÓLIDA
 62
     7
 10
407.8213312818377858
 20
76.7339849291349054
 30
0.0
 11
406.8213312818375016
 21
75.7339849291352891
 31
0.0
  0
LINE
  5
546
  8
0
  6
SLD-SÓLIDA
 62
     7
 10
407.8213312818377858
 20
76.7339849291349054
 30
0.0
 11
410.8213312818372742
 21
76.7339849291349054
 31
0.0
  0
ARC
  5
547
  8
0
  6
SLD-SÓLIDA
 62
     7
 10
413.8213312818368763
 20
80.7339849291348486
 30
0.0
 40
4.999999999999976
 50
233.130102354157998
 51
306.8698976458454126
  0
LINE
  5
548
  8
0
  6
SLD-SÓLIDA
 62
     7
 10
416.8213312818368763
 20
76.7339849291349054
 30
0.0
 11
424.8213312818355121
 21
76.7339849291345928
 31
0.0
  0
LINE
  5
549
  8
0
  6
SLD-SÓLIDA
 62
     7
 10
425.8213312818357963
 20
75.7339849291346212
 30
0.0
 11
424.8213312818355121
 21
76.7339849291345928
 31
0.0
  0
LINE
  5
54A
  8
0
  6
SLD-SÓLIDA
 62
     7
 10
425.8213312818360237
 20
44.7339849291347207
 30
0.0
 11
425.8213312818357963
 21
75.7339849291346212
 31
0.0
  0
LINE
  5
54B
  8
0
  6
SLD-SÓLIDA
 62
     7
 10
425.3213312818360237
 20
44.2339849291347491
 30
0.0
 11
425.8213312818360237
 21
44.7339849291347207
 31
0.0
  0
LINE
  5
54C
  8
0
  6
SLD-SÓLIDA
 62
     7
 10
332.3213312818396048
 20
44.2339849291347988
 30
0.0
 11
425.3213312818360237
 21
44.2339849291347491
 31
0.0
  0
LINE
  5
54D
  8
0
  6
SLD-SÓLIDA
 62
     7
 10
331.8213312818397185
 20
44.7339849291348131
 30
0.0
 11
332.3213312818396048
 21
44.2339849291347988
 31
0.0
  0
LINE
  5
54E
  8
0
  6
SLD-SÓLIDA
 62
     7
 10
331.8213312818393206
 20
68.7339849291351186
 30
0.0
 11
331.8213312818397185
 21
44.7339849291348131
 31
0.0
  0
LINE
  5
54F
  8
0
  6
SLD-SÓLIDA
 62
     7
 10
331.8213312818393206
 20
68.7339849291351186
 30
0.0
 11
338.5713312818400027
 21
68.7339849291346496
 31
0.0
  0
ARC
  5
550
  8
0
  6
SLD-SÓLIDA
 62
     7
 10
339.8213312818400027
 20
68.7339849291346923
 30
0.0
 40
1.250000000000085
 50
180.0000000000015916
 51
90.0
  0
LINE
  5
551
  8
0
  6
SLD-SÓLIDA
 62
     7
 10
332.3213312818396048
 20
44.2339849291347988
 30
0.0
 11
332.8213312818397185
 21
43.7339849291347917
 31
0.0
  0
LINE
  5
552
  8
0
  6
SLD-SÓLIDA
 62
     7
 10
424.82133128183591
 20
43.7339849291347491
 30
0.0
 11
425.3213312818360237
 21
44.2339849291347491
 31
0.0
  0
LINE
  5
553
  8
0
  6
SLD-SÓLIDA
 62
     7
 10
424.82133128183591
 20
43.7339849291347491
 30
0.0
 11
332.8213312818397185
 21
43.7339849291347917
 31
0.0
  0
LINE
  5
554
  8
0
  6
SLD-SÓLIDA
 62
     7
 10
331.321331281839889
 20
45.2339849291347988
 30
0.0
 11
331.321331281839889
 21
68.7339849291351186
 31
0.0
  0
LINE
  5
555
  8
0
  6
SLD-SÓLIDA
 62
     7
 10
331.321331281839889
 20
68.7339849291351186
 30
0.0
 11
331.8213312818393206
 21
68.7339849291351186
 31
0.0
  0
LINE
  5
556
  8
0
  6
SLD-SÓLIDA
 62
     7
 10
331.8213312818397185
 20
44.7339849291348131
 30
0.0
 11
331.321331281839889
 21
45.2339849291347988
 31
0.0
  0
ARC
  5
557
  8
0
  6
SLD-SÓLIDA
 62
     7
 10
356.3213312818380132
 20
74.7339849291347775
 30
0.0
 40
5.0
 50
180.0
 51
270.0
  0
LINE
  5
558
  8
0
  6
SLD-SÓLIDA
 62
     7
 10
356.3213312818380132
 20
69.7339849291348202
 30
0.0
 11
356.3213312818380132
 21
69.2339849291348202
 31
0.0
  0
LINE
  5
559
  8
0
  6
SLD-SÓLIDA
 62
     7
 10
351.321331281839889
 20
74.7339849291348344
 30
0.0
 11
350.821331281839889
 21
74.7339849291348344
 31
0.0
  0
LINE
  5
55A
  8
0
  6
SLD-SÓLIDA
 62
     7
 10
351.321331281839889
 20
76.7339849291347633
 30
0.0
 11
351.321331281839889
 21
74.7339849291348344
 31
0.0
  0
LINE
  5
55B
  8
0
  6
SLD-SÓLIDA
 62
     7
 10
350.821331281839889
 20
76.7339849291347633
 30
0.0
 11
351.321331281839889
 21
76.7339849291347633
 31
0.0
  0
LINE
  5
55C
  8
0
  6
SLD-SÓLIDA
 62
     7
 10
351.321331281839889
 20
101.733984929134806
 30
0.0
 11
350.8213312818396048
 21
101.733984929134806
 31
0.0
  0
LINE
  5
55D
  8
0
  6
SLD-SÓLIDA
 62
     7
 10
351.321331281839889
 20
101.733984929134806
 30
0.0
 11
351.321331281839889
 21
101.233984929134806
 31
0.0
  0
LINE
  5
55E
  8
0
  6
SLD-SÓLIDA
 62
     7
 10
350.8213312818396048
 20
100.733984929134806
 30
0.0
 11
351.321331281839889
 21
101.233984929134806
 31
0.0
  0
LINE
  5
55F
  8
0
  6
SLD-SÓLIDA
 62
     7
 10
406.8213312818375016
 20
74.7339849291353744
 30
0.0
 11
406.3213312818375016
 21
74.7339849291353744
 31
0.0
  0
LINE
  5
560
  8
0
  6
SLD-SÓLIDA
 62
     7
 10
406.3213312818375016
 20
74.7339849291353744
 30
0.0
 11
406.3213312818375016
 21
75.2339849291352749
 31
0.0
  0
LINE
  5
561
  8
0
  6
SLD-SÓLIDA
 62
     7
 10
406.8213312818375016
 20
75.7339849291352891
 30
0.0
 11
406.3213312818375016
 21
75.2339849291352749
 31
0.0
  0
LINE
  5
562
  8
0
  6
SLD-SÓLIDA
 62
     7
 10
331.321331281839889
 20
101.2339849291349054
 30
0.0
 11
331.321331281839889
 21
131.2339849291352891
 31
0.0
  0
LINE
  5
563
  8
0
  6
SLD-SÓLIDA
 62
     7
 10
331.321331281839889
 20
131.2339849291352891
 30
0.0
 11
331.8213312818400027
 21
131.7339849291352891
 31
0.0
  0
LINE
  5
564
  8
0
  6
SLD-SÓLIDA
 62
     7
 10
331.8213312818400027
 20
100.7339849291349054
 30
0.0
 11
331.321331281839889
 21
101.2339849291349054
 31
0.0
  0
LINE
  5
565
  8
0
  6
SLD-SÓLIDA
 62
     7
 10
401.3213312818376153
 20
106.733984929134806
 30
0.0
 11
356.3213312818380132
 21
106.7339849291349054
 31
0.0
  0
LINE
  5
566
  8
0
  6
SLD-SÓLIDA
 62
     7
 10
356.3213312818380132
 20
106.7339849291349054
 30
0.0
 11
356.3213312818380132
 21
107.2339849291350049
 31
0.0
  0
LINE
  5
567
  8
0
  6
SLD-SÓLIDA
 62
     7
 10
401.3213312818376153
 20
107.233984929134806
 30
0.0
 11
401.3213312818376153
 21
106.733984929134806
 31
0.0
  0
ARC
  5
568
  8
0
  6
SLD-SÓLIDA
 62
     7
 10
356.3213312818380132
 20
101.7339849291349054
 30
0.0
 40
5.0000000000000284
 50
90.0
 51
180.0000000000015916
  0
LINE
  5
569
  8
0
  6
SLD-SÓLIDA
 62
     7
 10
332.8213312818400027
 20
132.7339849291352891
 30
0.0
 11
424.82133128183591
 21
132.7339849291346923
 31
0.0
  0
LINE
  5
56A
  8
0
  6
SLD-SÓLIDA
 62
     7
 10
425.3213312818357963
 20
132.233984929134806
 30
0.0
 11
424.82133128183591
 21
132.7339849291346923
 31
0.0
  0
LINE
  5
56B
  8
0
  6
SLD-SÓLIDA
 62
     7
 10
332.8213312818400027
 20
132.7339849291352891
 30
0.0
 11
332.3213312818400027
 21
132.2339849291352891
 31
0.0
  0
LINE
  5
56C
  8
0
  6
SLD-SÓLIDA
 62
     7
 10
356.3213312818380132
 20
69.7339849291348202
 30
0.0
 11
401.3213312818376153
 21
69.7339849291348628
 31
0.0
  0
LINE
  5
56D
  8
0
  6
SLD-SÓLIDA
 62
     7
 10
401.3213312818376153
 20
69.2339849291348628
 30
0.0
 11
401.3213312818376153
 21
69.7339849291348628
 31
0.0
  0
ARC
  5
56E
  8
0
  6
SLD-SÓLIDA
 62
     7
 10
401.3213312818376153
 20
74.733984929135346
 30
0.0
 40
5.0000000000004832
 50
270.0
 51
0.0
  0
LINE
  5
56F
  8
0
  6
SLD-SÓLIDA
 62
     7
 10
406.8213312818375016
 20
101.7339849291351044
 30
0.0
 11
406.3213312818375016
 21
101.7339849291351044
 31
0.0
  0
ARC
  5
570
  8
0
  6
SLD-SÓLIDA
 62
     7
 10
401.3213312818376153
 20
101.7339849291350049
 30
0.0
 40
5.0
 50
0.0
 51
90.0
  0
LINE
  5
571
  8
0
  6
SLD-SÓLIDA
 62
     7
 10
406.3213312818375016
 20
99.7339849291351186
 30
0.0
 11
406.3213312818375016
 21
101.7339849291351044
 31
0.0
  0
LINE
  5
572
  8
0
  6
SLD-SÓLIDA
 62
     7
 10
406.8213312818375016
 20
99.7339849291351186
 30
0.0
 11
406.3213312818375016
 21
99.7339849291351186
 31
0.0
  0
LINE
  5
573
  8
0
  6
SLD-SÓLIDA
 62
     7
 10
425.8213312818360237
 20
131.7339849291346923
 30
0.0
 11
426.32133128183591
 21
131.233984929134806
 31
0.0
  0
LINE
  5
574
  8
0
  6
SLD-SÓLIDA
 62
     7
 10
426.32133128183591
 20
131.233984929134806
 30
0.0
 11
426.3213312818357963
 21
107.7339849291352039
 31
0.0
  0
LINE
  5
575
  8
0
  6
SLD-SÓLIDA
 62
     7
 10
426.3213312818357963
 20
107.7339849291352039
 30
0.0
 11
425.8213312818352279
 21
107.7339849291353033
 31
0.0
  0
LINE
  5
576
  8
0
  6
SLD-SÓLIDA
 62
     7
 10
425.8213312818357963
 20
75.7339849291346212
 30
0.0
 11
426.3213312818357963
 21
75.2339849291346212
 31
0.0
  0
LINE
  5
577
  8
0
  6
SLD-SÓLIDA
 62
     7
 10
426.3213312818357963
 20
75.2339849291346212
 30
0.0
 11
426.3213312818360237
 21
45.2339849291347207
 31
0.0
  0
LINE
  5
578
  8
0
  6
SLD-SÓLIDA
 62
     7
 10
426.3213312818360237
 20
45.2339849291347207
 30
0.0
 11
425.8213312818360237
 21
44.7339849291347207
 31
0.0
  0
LINE
  5
579
  8
0
  6
SLD-SÓLIDA
 62
     7
 10
426.3213312818357963
 20
89.2339849291349054
 30
0.0
 11
424.82133128183591
 21
87.7339849291349054
 31
0.0
  0
LINE
  5
57A
  8
0
  6
SLD-SÓLIDA
 62
     7
 10
419.3213312818353984
 20
87.7339849291351044
 30
0.0
 11
424.82133128183591
 21
87.7339849291349054
 31
0.0
  0
LINE
  5
57B
  8
0
  6
SLD-SÓLIDA
 62
     7
 10
419.3213312818353984
 20
87.7339849291351044
 30
0.0
 11
417.8213312818368195
 21
89.2339849291348344
 31
0.0
  0
LINE
  5
57C
  8
0
  6
SLD-SÓLIDA
 62
     7
 10
417.8213312818368195
 20
98.4839849291351754
 30
0.0
 11
417.8213312818368195
 21
89.2339849291348344
 31
0.0
  0
CIRCLE
  5
57D
  8
0
  6
SLD-SÓLIDA
 62
     7
 10
422.0713312818356258
 20
104.7339849291351044
 30
0.0
 40
0.8249999999999886
  0
CIRCLE
  5
57E
  8
0
  6
SLD-SÓLIDA
 62
     7
 10
422.0713312818356258
 20
90.7339849291348628
 30
0.0
 40
0.8250000000000171
  0
LINE
  5
57F
  8
0
  6
SLD-SÓLIDA
 62
     7
 10
426.3213312818357963
 20
89.2339849291349054
 30
0.0
 11
426.3213312818357963
 21
107.7339849291352039
 31
0.0
  0
ARC
  5
580
  8
0
  6
SLD-SÓLIDA
 62
     7
 10
417.8213312818368195
 20
99.7339849291351754
 30
0.0
 40
1.25
 50
270.0
 51
90.0
  0
LINE
  5
581
  8
0
  6
SLD-SÓLIDA
 62
     7
 10
331.321331281839889
 20
87.2339849291351044
 30
0.0
 11
332.821331281839889
 21
88.733984929135147
 31
0.0
  0
LINE
  5
582
  8
0
  6
SLD-SÓLIDA
 62
     7
 10
339.8213312818400027
 20
77.9839849291352607
 30
0.0
 11
339.8213312818400027
 21
87.2339849291351328
 31
0.0
  0
CIRCLE
  5
583
  8
0
  6
SLD-SÓLIDA
 62
     7
 10
335.571331281839889
 20
71.7339849291352607
 30
0.0
 40
0.8250000000000171
  0
CIRCLE
  5
584
  8
0
  6
SLD-SÓLIDA
 62
     7
 10
335.571331281839889
 20
85.7339849291351754
 30
0.0
 40
0.8250000000000171
  0
LINE
  5
585
  8
0
  6
SLD-SÓLIDA
 62
     7
 10
338.3213312818400027
 20
88.7339849291351612
 30
0.0
 11
332.821331281839889
 21
88.733984929135147
 31
0.0
  0
LINE
  5
586
  8
0
  6
SLD-SÓLIDA
 62
     7
 10
338.3213312818400027
 20
88.7339849291351612
 30
0.0
 11
339.8213312818400027
 21
87.2339849291351328
 31
0.0
  0
LINE
  5
587
  8
0
  6
SLD-SÓLIDA
 62
     7
 10
331.321331281839889
 20
87.2339849291351044
 30
0.0
 11
331.321331281839889
 21
68.733984929135147
 31
0.0
  0
ARC
  5
588
  8
0
  6
SLD-SÓLIDA
 62
     7
 10
339.8213312818400027
 20
76.7339849291352607
 30
0.0
 40
1.25
 50
90.0
 51
270.0
  0
CIRCLE
  5
589
  8
0
  6
SLD-SÓLIDA
 62
     7
 10
336.3213312818400027
 20
64.2339849291342659
 30
0.0
 40
1.650000000000003
  0
CIRCLE
  5
58A
  8
0
  6
SLD-SÓLIDA
 62
     7
 10
421.3213312818357963
 20
64.2339849291352891
 30
0.0
 40
1.650000000000003
  0
CIRCLE
  5
58B
  8
0
  6
SLD-SÓLIDA
 62
     7
 10
336.3213312818400027
 20
112.233984929134806
 30
0.0
 40
1.649999999999975
  0
CIRCLE
  5
58C
  8
0
  6
SLD-SÓLIDA
 62
     7
 10
421.3213312818357963
 20
112.2339849291352039
 30
0.0
 40
1.650000000000003
  0
LINE
  5
58D
  8
0
  6
SLD-SÓLIDA
 62
     7
 10
351.321331281839889
 20
76.7339849291347633
 30
0.0
 11
351.321331281839889
 21
101.233984929134806
 31
0.0
  0
LINE
  5
58E
  8
0
  6
SLD-SÓLIDA
 62
     7
 10
331.321331281839889
 20
101.2339849291349054
 30
0.0
 11
331.321331281839889
 21
87.2339849291351328
 31
0.0
  0
ARC
  5
58F
  8
0
  6
SLD-SÓLIDA
 62
     7
 10
343.8213312818400027
 20
95.7339849291351754
 30
0.0
 40
5.000000000000056
 50
126.8698976458453984
 51
53.1301023541549569
  0
LINE
  5
590
  8
0
  6
SLD-SÓLIDA
 62
     7
 10
426.3213312818357963
 20
75.2339849291346212
 30
0.0
 11
426.3213312818357963
 21
89.2339849291349054
 31
0.0
  0
LINE
  5
591
  8
0
  6
SLD-SÓLIDA
 62
     7
 10
406.3213312818375016
 20
99.7339849291349196
 30
0.0
 11
406.3213312818375016
 21
75.2339849291349054
 31
0.0
  0
ARC
  5
592
  8
0
  6
SLD-SÓLIDA
 62
     7
 10
413.8213312818368763
 20
80.7339849291348486
 30
0.0
 40
4.999999999999976
 50
306.8698976458454126
 51
233.130102354157998
  0
LINE
  5
593
  8
0
  6
SLD-TRACEJADA
 62
     7
 10
356.3213312818380132
 20
69.2339849291348202
 30
0.0
 11
356.3213312818380132
 21
69.7339849291348202
 31
0.0
  0
LINE
  5
594
  8
0
  6
SLD-TRACEJADA
 62
     7
 10
350.821331281839889
 20
74.7339849291348344
 30
0.0
 11
351.321331281839889
 21
74.7339849291348344
 31
0.0
  0
LINE
  5
595
  8
0
  6
SLD-TRACEJADA
 62
     7
 10
401.3213312818376153
 20
69.2339849291348628
 30
0.0
 11
401.3213312818376153
 21
69.7339849291348628
 31
0.0
  0
LINE
  5
596
  8
0
  6
SLD-TRACEJADA
 62
     7
 10
406.8213312818376153
 20
74.7339849291349481
 30
0.0
 11
406.3213312818375016
 21
74.7339849291349481
 31
0.0
  0
LINE
  5
597
  8
0
  6
SLD-TRACEJADA
 62
     7
 10
356.3213312818380132
 20
106.7339849291349054
 30
0.0
 11
356.3213312818380132
 21
107.2339849291350049
 31
0.0
  0
LINE
  5
598
  8
0
  6
SLD-TRACEJADA
 62
     7
 10
351.321331281839889
 20
101.733984929134806
 30
0.0
 11
350.821331281839889
 21
101.733984929134806
 31
0.0
  0
LINE
  5
599
  8
0
  6
SLD-TRACEJADA
 62
     7
 10
401.3213312818376153
 20
106.733984929134806
 30
0.0
 11
401.3213312818376153
 21
107.233984929134806
 31
0.0
  0
LINE
  5
59A
  8
0
  6
SLD-TRACEJADA
 62
     7
 10
406.3213312818375016
 20
101.733984929134806
 30
0.0
 11
406.8213312818375016
 21
101.733984929134806
 31
0.0
  0
LINE
  5
59B
  8
0
  6
SLD-TRACEJADA
 62
     7
 10
425.8213312818357963
 20
107.7339849291353033
 30
0.0
 11
425.82133128183591
 21
75.7339849291345217
 31
0.0
  0
LINE
  5
59C
  8
0
  6
SLD-TRACEJADA
 62
     7
 10
350.821331281839889
 20
100.733984929134806
 30
0.0
 11
350.821331281839889
 21
76.7339849291347633
 31
0.0
  0
LINE
  5
59D
  8
0
  6
SLD-TRACEJADA
 62
     7
 10
406.8213312818376153
 20
75.7339849291354739
 30
0.0
 11
406.8213312818375016
 21
99.7339849291351186
 31
0.0
  0
LINE
  5
59E
  8
0
  6
SLD-TRACEJADA
 62
     7
 10
331.821331281839889
 20
68.7339849291351186
 30
0.0
 11
331.8213312818400027
 21
100.7339849291349054
 31
0.0
  0
INSERT
  5
5B3
  8
0
  2
*U101
 10
0.0
 20
0.0
 30
0.0
  0
INSERT
  5
5B7
  8
COTAS
  2
SW_CENTERMARKSYMBOL_0
 10
336.3213312818400027
 20
64.2339849291349765
 30
0.0
  0
INSERT
  5
5B8
  8
COTAS
  2
SW_CENTERMARKSYMBOL_1
 10
421.3213312818357963
 20
64.2339849291352891
 30
0.0
  0
INSERT
  5
5B9
  8
COTAS
  2
SW_CENTERMARKSYMBOL_2
 10
421.3213312818357963
 20
112.2339849291352039
 30
0.0
  0
INSERT
  5
5BA
  8
COTAS
  2
SW_CENTERMARKSYMBOL_3
 10
336.3213312818400027
 20
112.2339849291351044
 30
0.0
  0
INSERT
  5
5BC
  8
COTAS
  2
SW_CENTERMARKSYMBOL_5
 10
422.0713312818356258
 20
104.7339849291351044
 30
0.0
  0
INSERT
  5
5BD
  8
COTAS
  2
SW_CENTERMARKSYMBOL_6
 10
335.571331281839889
 20
85.7339849291351754
 30
0.0
  0
INSERT
  5
5BE
  8
COTAS
  2
SW_CENTERMARKSYMBOL_7
 10
335.571331281839889
 20
71.7339849291352607
 30
0.0
  0
LINE
  5
5C2
  8
0
  6
SLD-SÓLIDA
 62
     7
 10
366.5703597671871989
 20
41.6199080873903284
 30
0.0
 11
378.5703597671870853
 21
41.6199080873903284
 31
0.0
  0
SOLID
  5
5C3
  8
0
  6
SLD-SÓLIDA
 62
     7
 10
378.5703597671870853
 20
41.6199080873903284
 30
0.0
 11
372.5703597671870853
 21
43.1199080873903213
 31
0.0
 12
372.5703597671870853
 22
40.1199080873903284
 32
0.0
 13
372.5703597671870853
 23
40.1199080873903284
 33
0.0
  0
INSERT
  5
5C5
  8
0
  2
*U102
 10
0.0
 20
0.0
 30
0.0
  0
ARC
  5
5C6
  8
0
  6
SLD-SÓLIDA
 62
     7
 10
422.07133128183591
 20
104.7339849291351044
 30
0.0
 40
1.00000000000003
 50
254.9999999999988063
 51
195.0000000000015064
  0
ARC
  5
5C7
  8
0
  6
SLD-SÓLIDA
 62
     7
 10
422.07133128183591
 20
90.7339849291348628
 30
0.0
 40
1.00000000000003
 50
254.9999999999988063
 51
195.0000000000015064
  0
ARC
  5
5C8
  8
0
  6
SLD-SÓLIDA
 62
     7
 10
335.5713312818397185
 20
71.7339849291352607
 30
0.0
 40
1.0000000000000251
 50
254.9999999999988063
 51
195.0000000000015064
  0
ARC
  5
5C9
  8
0
  6
SLD-SÓLIDA
 62
     7
 10
335.5713312818397185
 20
85.7339849291351754
 30
0.0
 40
0.9999999999999992
 50
254.9999999999988063
 51
195.0000000000015064
  0
LINE
  5
6E0
  8
0
 10
332.8213312818397185
 20
43.7339849291347917
 30
0.0
 11
331.3213312818397185
 21
43.7339849291347917
 31
0.0
  0
LINE
  5
6E1
  8
0
 10
331.3213312818397185
 20
43.7339849291347917
 30
0.0
 11
331.321331281839889
 21
45.2339849291347988
 31
0.0
  0
LINE
  5
6E2
  8
0
 10
331.3213312818397185
 20
43.7339849291347917
 30
0.0
 11
331.321331281839889
 21
68.7339849291351186
 31
0.0
  0
LINE
  5
6E3
  8
0
 10
331.321331281839889
 20
68.7339849291351186
 30
0.0
 11
339.8213312818400027
 21
68.7339849291346923
 31
0.0
  0
LINE
  5
6E4
  8
0
 10
339.8213312818400027
 20
68.7339849291346923
 30
0.0
 11
339.8213312818400027
 21
76.7339849291352607
 31
0.0
  0
LINE
  5
6E5
  8
0
 10
339.8213312818400027
 20
76.7339849291352607
 30
0.0
 11
352.8213312818400027
 21
76.7339849291352607
 31
0.0
  0
LINE
  5
6E6
  8
0
 10
352.8213312818400027
 20
76.7339849291352607
 30
0.0
 11
349.8213312818400027
 21
76.7339849291352607
 31
0.0
  0
LINE
  5
6E8
  8
0
 10
0.0
 20
50.0
 30
0.0
 11
14.0
 21
50.0
 31
0.0
  0
LINE
  5
6E9
  8
0
 10
17.0
 20
53.0
 30
0.0
 11
17.0
 21
63.0
 31
0.0
  0
LINE
  5
6EA
  8
0
 10
20.0
 20
66.0
 30
0.0
 11
43.0
 21
66.0
 31
0.0
  0
LINE
  5
6EB
  8
0
 10
43.0
 20
66.0
 30
0.0
 11
43.0
 21
112.0
 31
0.0
  0
LINE
  5
6EF
  8
0
 10
-3.0
 20
112.0
 30
0.0
 11
-3.0
 21
50.0
 31
0.0
  0
LINE
  5
6F0
  8
0
 10
-3.0
 20
50.0
 30
0.0
 11
0.0
 21
50.0
 31
0.0
  0
LINE
  5
994
  8
0
 10
339.8213312818400027
 20
76.7339849291352607
 30
0.0
 11
339.8213312818400027
 21
88.7339849291352607
 31
0.0
  0
LINE
  5
995
  8
0
 10
17.0
 20
69.0
 30
0.0
 11
17.0
 21
87.0
 31
0.0
  0
LINE
  5
996
  8
0
 10
14.0
 20
90.0
 30
0.0
 11
3.0
 21
90.0
 31
0.0
  0
LINE
  5
997
  8
0
 10
-3.0
 20
112.0
 30
0.0
 11
-3.0
 21
115.0
 31
0.0
  0
LINE
  5
99C
  8
0
 10
3.0
 20
112.0
 30
0.0
 11
0.0
 21
115.0
 31
0.0
  0
LINE
  5
9AA
  8
0
 10
0.0
 20
90.0
 30
0.0
 11
0.0
 21
87.0
 31
0.0
  0
LINE
  5
9B0
  8
0
 10
14.0
 20
90.0
 30
0.0
 11
17.0
 21
87.0
 31
0.0
  0
LINE
  5
9B1
  8
0
 10
0.0
 20
87.0
 30
0.0
 11
3.0
 21
90.0
 31
0.0
  0
LINE
  5
9B4
  8
0
 10
43.0
 20
112.0
 30
0.0
 11
43.0786450736836883
 21
114.9989689815644027
 31
0.0
  0
LINE
  5
9B7
  8
0
 10
190.0
 20
128.0
 30
0.0
 11
173.0
 21
128.0
 31
0.0
  0
LINE
  5
9B8
  8
0
 10
173.0
 20
128.0
 30
0.0
 11
173.0
 21
112.0
 31
0.0
  0
LINE
  5
9B9
  8
0
 10
173.0
 20
112.0
 30
0.0
 11
147.0
 21
112.0
 31
0.0
  0
LINE
  5
9BA
  8
0
 10
147.0
 20
112.0
 30
0.0
 11
147.0
 21
66.0
 31
0.0
  0
LINE
  5
9BC
  8
0
 10
193.0
 20
66.0
 30
0.0
 11
193.0
 21
128.0
 31
0.0
  0
LINE
  5
9BD
  8
0
 10
193.0
 20
128.0
 30
0.0
 11
190.0
 21
128.0
 31
0.0
  0
LINE
  5
9C9
  8
0
 10
173.0
 20
112.0
 30
0.0
 11
173.0
 21
90.9948174248096819
 31
0.0
  0
CIRCLE
  5
9CB
  8
0
 10
173.0
 20
112.0
 30
0.0
 40
3.0
  0
CIRCLE
  5
9CC
  8
0
 10
173.0
 20
128.0
 30
0.0
 40
3.0
  0
LINE
  5
9DA
  8
0
 10
150.0
 20
63.0
 30
0.0
 11
153.0
 21
66.0
 31
0.0
  0
LINE
  5
9DB
  8
0
 10
153.0
 20
66.0
 30
0.0
 11
187.0
 21
66.0
 31
0.0
  0
LINE
  5
9DD
  8
0
 10
147.0
 20
63.0
 30
0.0
 11
147.0
 21
66.0
 31
0.0
  0
LINE
  5
9DE
  8
0
 10
193.0
 20
66.0
 30
0.0
 11
193.0
 21
63.0
 31
0.0
  0
LINE
  5
9E3
  8
0
 10
187.0
 20
66.0
 30
0.0
 11
190.0
 21
63.0
 31
0.0
  0
LINE
  5
9E7
  8
0
 10
190.0
 20
63.0
 30
0.0
 11
192.8284271247462129
 21
60.1715728752538226
 31
0.0
  0
LINE
  5
9E8
  8
0
 10
192.8284271247462129
 20
60.1715728752538226
 30
0.0
 11
193.0
 21
63.0
 31
0.0
  0
LINE
  5
9E9
  8
0
 10
150.0
 20
63.0
 30
0.0
 11
147.1715728752537871
 21
60.1715728752538226
 31
0.0
  0
LINE
  5
9EA
  8
0
 10
147.1715728752537871
 20
60.1715728752538226
 30
0.0
 11
147.0
 21
63.0
 31
0.0
  0
LINE
  5
9F2
  8
0
 10
175.9999955311857036
 20
87.9948218859105538
 30
0.0
 11
175.9999955311857036
 21
88.0
 31
0.0
  0
LINE
  5
9F6
  8
0
 10
173.0
 20
112.0
 30
0.0
 11
173.0
 21
128.0
 31
0.0
  0
LINE
  5
9F7
  8
0
 10
173.0
 20
128.0
 30
0.0
 11
193.0
 21
128.0
 31
0.0
  0
LINE
  5
9F8
  8
0
 10
193.0
 20
128.0
 30
0.0
 11
192.8284271247462129
 21
60.1715728752538226
 31
0.0
  0
LINE
  5
A08
  8
0
 10
193.0
 20
128.0
 30
0.0
 11
190.0
 21
128.0
 31
0.0
  0
LINE
  5
A09
  8
0
 10
190.0
 20
128.0
 30
0.0
 11
190.0
 21
91.0
 31
0.0
  0
POLYLINE
  5
A10
  8
0
 66
     1
 10
0.0
 20
0.0
 30
0.0
  0
VERTEX
  5
C4D
  8
0
 10
172.9999955311857036
 20
90.9948218859105253
 30
0.0
  0
VERTEX
  5
C4E
  8
0
 10
175.9999955311857036
 20
88.0
 30
0.0
  0
VERTEX
  5
C4F
  8
0
 10
187.0
 20
88.0
 30
0.0
  0
VERTEX
  5
C50
  8
0
 10
190.0
 20
91.0
 30
0.0
  0
VERTEX
  5
C51
  8
0
 10
192.9698484809835008
 20
93.9698484809835008
 30
0.0
  0
VERTEX
  5
C52
  8
0
 10
192.8284271247462129
 20
60.1715728752538226
 30
0.0
  0
VERTEX
  5
C53
  8
0
 10
187.0
 20
66.0
 30
0.0
  0
VERTEX
  5
C54
  8
0
 10
153.0
 20
66.0
 30
0.0
  0
VERTEX
  5
C55
  8
0
 10
147.1715728752537871
 20
60.1715728752538226
 30
0.0
  0
VERTEX
  5
C56
  8
0
 10
147.0
 20
63.0
 30
0.0
  0
VERTEX
  5
C57
  8
0
 10
147.0
 20
112.0
 30
0.0
  0
VERTEX
  5
C58
  8
0
 10
173.0
 20
112.0
 30
0.0
  0
VERTEX
  5
C59
  8
0
 10
173.0
 20
90.9948174248096535
 30
0.0
  0
SEQEND
  5
C5A
  8
0
  0
POLYLINE
  5
A18
  8
0
 66
     1
 10
0.0
 20
0.0
 30
0.0
 70
     1
  0
VERTEX
  5
C5B
  8
0
 10
170.005178366770707
 20
112.176191331063194
 30
0.0
  0
VERTEX
  5
C5C
  8
0
 10
170.0909492049048879
 20
87.4247307782790841
 30
0.0
  0
VERTEX
  5
C5D
  8
0
 10
179.1502919782533922
 20
80.7762522159258083
 30
0.0
  0
VERTEX
  5
C5E
  8
0
 10
192.8991378028648001
 20
77.0707106781186582
 30
0.0
  0
VERTEX
  5
C5F
  8
0
 10
193.0
 20
128.0
 30
0.0
  0
VERTEX
  5
C60
  8
0
 10
173.0
 20
128.0
 30
0.0
  0
VERTEX
  5
C61
  8
0
 10
173.0
 20
112.0
 30
0.0
  0
SEQEND
  5
C62
  8
0
  0
POLYLINE
  5
A27
  8
0
 66
     1
 10
0.0
 20
0.0
 30
0.0
 70
     1
  0
VERTEX
  5
C63
  8
0
 10
-2.917565155927786
 20
83.9787728385776546
 30
0.0
  0
VERTEX
  5
C64
  8
0
 10
-3.0
 20
115.0
 30
0.0
  0
VERTEX
  5
C65
  8
0
 10
-2.9698484809835
 20
117.9698484809835008
 30
0.0
  0
VERTEX
  5
C66
  8
0
 10
0.0
 20
115.0
 30
0.0
  0
VERTEX
  5
C67
  8
0
 10
3.0
 20
112.0
 30
0.0
  0
VERTEX
  5
C68
  8
0
 10
37.0
 20
112.0
 30
0.0
  0
VERTEX
  5
C69
  8
0
 10
40.0
 20
115.0
 30
0.0
  0
VERTEX
  5
C6A
  8
0
 10
42.9698484809834866
 20
117.9698484809835008
 30
0.0
  0
VERTEX
  5
C6B
  8
0
 10
43.0786450736836883
 20
114.9989689815644027
 30
0.0
  0
VERTEX
  5
C6C
  8
0
 10
43.0
 20
66.0
 30
0.0
  0
VERTEX
  5
C6D
  8
0
 10
17.0
 20
66.0
 30
0.0
  0
VERTEX
  5
C6E
  8
0
 10
17.0
 20
87.0
 30
0.0
  0
VERTEX
  5
C6F
  8
0
 10
14.0
 20
90.0
 30
0.0
  0
VERTEX
  5
C70
  8
0
 10
3.0
 20
90.0
 30
0.0
  0
VERTEX
  5
C71
  8
0
 10
0.0
 20
87.0
 30
0.0
  0
SEQEND
  5
C72
  8
0
  0
LINE
  5
A2F
  8
0
 10
-3.0
 20
50.0
 30
0.0
 11
0.0
 21
50.0
 31
0.0
  0
POLYLINE
  5
A30
  8
0
 66
     1
 10
0.0
 20
0.0
 30
0.0
 70
     1
  0
VERTEX
  5
C73
  8
0
 10
17.0
 20
50.0
 30
0.0
  0
VERTEX
  5
C74
  8
0
 10
17.0
 20
66.0
 30
0.0
  0
VERTEX
  5
C75
  8
0
 10
20.0
 20
66.0
 30
0.0
  0
VERTEX
  5
C76
  8
0
 10
19.4192778122855287
 20
90.2773383581996001
 30
0.0
  0
VERTEX
  5
C77
  8
0
 10
13.1065650241690701
 20
94.8231441453063866
 30
0.0
  0
VERTEX
  5
C78
  8
0
 10
-2.9587825779638921
 20
99.4893864192888344
 30
0.0
  0
VERTEX
  5
C79
  8
0
 10
-3.0
 20
50.0
 30
0.0
  0
SEQEND
  5
C7A
  8
0
  0
CIRCLE
  5
A31
  8
0
 10
17.0
 20
50.0
 30
0.0
 40
3.0
  0
CIRCLE
  5
A32
  8
0
 10
17.0
 20
66.0
 30
0.0
 40
3.0
  0
CIRCLE
  5
C27
  8
0
 10
25.0
 20
104.0
 30
0.0
 40
6.0
  0
CIRCLE
  5
C28
  8
0
 10
165.0
 20
74.0
 30
0.0
 40
6.0
  0
ENDSEC
  0
EOF
