  0
SECTION
  2
HEADER
  9
$ACADVER
  1
AC1009
  9
$INSBASE
 10
0.0
 20
0.0
 30
0.0
  9
$EXTMIN
 10
-63.0388335300717415
 20
-110.9178964944968016
 30
0.0
  9
$EXTMAX
 10
602.5342285580173893
 20
266.1421844145457953
 30
0.0
  9
$LIMMIN
 10
0.0
 20
0.0
  9
$LIMMAX
 10
420.0
 20
297.0
  9
$ORTHOMODE
 70
     0
  9
$REGENMODE
 70
     1
  9
$FILLMODE
 70
     1
  9
$QTEXTMODE
 70
     0
  9
$MIRRTEXT
 70
     0
  9
$DRAGMODE
 70
     2
  9
$LTSCALE
 40
1.0
  9
$OSMODE
 70
  3447
  9
$ATTMODE
 70
     1
  9
$TEXTSIZE
 40
2.5
  9
$TRACEWID
 40
1.0
  9
$TEXTSTYLE
  7
STANDARD
  9
$CLAYER
  8
0
  9
$CELTYPE
  6
BYLAYER
  9
$CECOLOR
 62
   256
  9
$DIMSCALE
 40
1.0
  9
$DIMASZ
 40
2.5
  9
$DIMEXO
 40
0.625
  9
$DIMDLI
 40
3.75
  9
$DIMRND
 40
0.0
  9
$DIMDLE
 40
0.0
  9
$DIMEXE
 40
1.25
  9
$DIMTP
 40
0.0
  9
$DIMTM
 40
0.0
  9
$DIMTXT
 40
2.5
  9
$DIMCEN
 40
2.5
  9
$DIMTSZ
 40
0.0
  9
$DIMTOL
 70
     0
  9
$DIMLIM
 70
     0
  9
$DIMTIH
 70
     0
  9
$DIMTOH
 70
     0
  9
$DIMSE1
 70
     0
  9
$DIMSE2
 70
     0
  9
$DIMTAD
 70
     1
  9
$DIMZIN
 70
     8
  9
$DIMBLK
  1

  9
$DIMASO
 70
     1
  9
$DIMSHO
 70
     1
  9
$DIMPOST
  1

  9
$DIMAPOST
  1

  9
$DIMALT
 70
     0
  9
$DIMALTD
 70
     3
  9
$DIMALTF
 40
0.03937007874016
  9
$DIMLFAC
 40
1.0
  9
$DIMTOFL
 70
     1
  9
$DIMTVP
 40
0.0
  9
$DIMTIX
 70
     0
  9
$DIMSOXD
 70
     0
  9
$DIMSAH
 70
     0
  9
$DIMBLK1
  1

  9
$DIMBLK2
  1

  9
$DIMSTYLE
  2
ISO-25
  9
$DIMCLRD
 70
     0
  9
$DIMCLRE
 70
     0
  9
$DIMCLRT
 70
     0
  9
$DIMTFAC
 40
1.0
  9
$DIMGAP
 40
0.625
  9
$LUNITS
 70
     2
  9
$LUPREC
 70
     4
  9
$SKETCHINC
 40
1.0
  9
$FILLETRAD
 40
0.0
  9
$AUNITS
 70
     0
  9
$AUPREC
 70
     0
  9
$MENU
  1
.
  9
$ELEVATION
 40
0.0
  9
$PELEVATION
 40
0.0
  9
$THICKNESS
 40
0.0
  9
$LIMCHECK
 70
     0
  9
$BLIPMODE
 70
     0
  9
$CHAMFERA
 40
0.0
  9
$CHAMFERB
 40
0.0
  9
$SKPOLY
 70
     0
  9
$TDCREATE
 40
2460447.6563773150555789
  9
$TDUPDATE
 40
2460447.6585648148320615
  9
$TDINDWG
 40
0.0021875
  9
$TDUSRTIMER
 40
0.0021875
  9
$USRTIMER
 70
     1
  9
$ANGBASE
 50
0.0
  9
$ANGDIR
 70
     0
  9
$PDMODE
 70
     0
  9
$PDSIZE
 40
0.0
  9
$PLINEWID
 40
0.0
  9
$COORDS
 70
     1
  9
$SPLFRAME
 70
     0
  9
$SPLINETYPE
 70
     6
  9
$SPLINESEGS
 70
     8
  9
$ATTDIA
 70
     1
  9
$ATTREQ
 70
     1
  9
$HANDLING
 70
     1
  9
$HANDSEED
  5
41C
  9
$SURFTAB1
 70
     6
  9
$SURFTAB2
 70
     6
  9
$SURFTYPE
 70
     6
  9
$SURFU
 70
     6
  9
$SURFV
 70
     6
  9
$UCSNAME
  2

  9
$UCSORG
 10
0.0
 20
0.0
 30
0.0
  9
$UCSXDIR
 10
1.0
 20
0.0
 30
0.0
  9
$UCSYDIR
 10
0.0
 20
1.0
 30
0.0
  9
$PUCSNAME
  2

  9
$PUCSORG
 10
0.0
 20
0.0
 30
0.0
  9
$PUCSXDIR
 10
1.0
 20
0.0
 30
0.0
  9
$PUCSYDIR
 10
0.0
 20
1.0
 30
0.0
  9
$USERI1
 70
     0
  9
$USERI2
 70
     0
  9
$USERI3
 70
     0
  9
$USERI4
 70
     0
  9
$USERI5
 70
     0
  9
$USERR1
 40
0.0
  9
$USERR2
 40
0.0
  9
$USERR3
 40
0.0
  9
$USERR4
 40
0.0
  9
$USERR5
 40
0.0
  9
$WORLDVIEW
 70
     1
  9
$SHADEDGE
 70
     3
  9
$SHADEDIF
 70
    70
  9
$TILEMODE
 70
     1
  9
$MAXACTVP
 70
    64
  9
$PLIMCHECK
 70
     0
  9
$PEXTMIN
 10
0.0
 20
0.0
 30
0.0
  9
$PEXTMAX
 10
0.0
 20
0.0
 30
0.0
  9
$PLIMMIN
 10
0.0
 20
0.0
  9
$PLIMMAX
 10
12.0
 20
9.0
  9
$UNITMODE
 70
     0
  9
$VISRETAIN
 70
     1
  9
$PLINEGEN
 70
     0
  9
$PSLTSCALE
 70
     1
  0
ENDSEC
  0
SECTION
  2
TABLES
  0
TABLE
  2
VPORT
 70
     1
  0
VPORT
  2
*ACTIVE
 70
     0
 10
0.0
 20
0.0
 11
1.0
 21
1.0
 12
955.1527664295950899
 22
2.483328562277165
 13
0.0
 23
0.0
 14
10.0
 24
10.0
 15
10.0
 25
10.0
 16
0.0
 26
0.0
 36
1.0
 17
0.0
 27
0.0
 37
0.0
 40
1048.4203152970510473
 41
2.0480256136606192
 42
50.0
 43
0.0
 44
0.0
 50
0.0
 51
0.0
 71
     0
 72
  1000
 73
     1
 74
     3
 75
     0
 76
     1
 77
     0
 78
     0
  0
ENDTAB
  0
TABLE
  2
LTYPE
 70
     2
  0
LTYPE
  2
CONTINUOUS
 70
     0
  3
Solid line
 72
    65
 73
     0
 40
0.0
  0
ENDTAB
  0
TABLE
  2
LAYER
 70
     2
  0
LAYER
  2
0
 70
     0
 62
     7
  6
CONTINUOUS
  0
LAYER
  2
VISIBLE__ISO_
 70
     0
 62
     7
  6
CONTINUOUS
  0
ENDTAB
  0
TABLE
  2
STYLE
 70
     2
  0
STYLE
  2
STANDARD
 70
     0
 40
0.0
 41
1.0
 50
0.0
 71
     0
 42
2.5
  3
txt
  4

  0
STYLE
  2
ANNOTATIVE
 70
     0
 40
0.0
 41
1.0
 50
0.0
 71
     0
 42
2.5
  3
txt
  4

  0
ENDTAB
  0
TABLE
  2
VIEW
 70
     0
  0
ENDTAB
  0
TABLE
  2
UCS
 70
     0
  0
ENDTAB
  0
TABLE
  2
APPID
 70
     9
  0
APPID
  2
ACAD
 70
     0
  0
APPID
  2
ACAD_PSEXT
 70
     0
  0
APPID
  2
ACADANNOPO
 70
     0
  0
APPID
  2
ACADANNOTATIVE
 70
     0
  0
APPID
  2
ACAD_DSTYLE_DIMJAG
 70
     0
  0
APPID
  2
ACAD_DSTYLE_DIMTALN
 70
     0
  0
APPID
  2
ACAD_MLEADERVER
 70
     0
  0
APPID
  2
ACAD_NAV_VCDISPLAY
 70
     0
  0
APPID
  2
ACAD_EXEMPT_FROM_CAD_STANDARDS
 70
     0
  0
ENDTAB
  0
TABLE
  2
DIMSTYLE
 70
     4
  0
DIMSTYLE
  2
STANDARD
 70
     0
  3

  4

  5

  6

  7

 40
1.0
 41
0.18
 42
0.0625
 43
0.38
 44
0.18
 45
0.0
 46
0.0
 47
0.0
 48
0.0
140
0.18
141
0.09
142
0.0
143
25.3999999999999986
144
1.0
145
0.0
146
1.0
147
0.09
 71
     0
 72
     0
 73
     1
 74
     1
 75
     0
 76
     0
 77
     0
 78
     0
170
     0
171
     2
172
     0
173
     0
174
     0
175
     0
176
     0
177
     0
178
     0
  0
DIMSTYLE
  2
ANNOTATIVE
 70
     0
  3

  4

  5

  6

  7

 40
0.0
 41
2.5
 42
0.625
 43
3.75
 44
1.25
 45
0.0
 46
0.0
 47
0.0
 48
0.0
140
2.5
141
2.5
142
0.0
143
0.03937007874016
144
1.0
145
0.0
146
1.0
147
0.625
 71
     0
 72
     0
 73
     0
 74
     0
 75
     0
 76
     0
 77
     1
 78
     8
170
     0
171
     3
172
     1
173
     0
174
     0
175
     0
176
     0
177
     0
178
     0
  0
DIMSTYLE
  2
ISO-25
 70
     0
  3

  4

  5

  6

  7

 40
1.0
 41
2.5
 42
0.625
 43
3.75
 44
1.25
 45
0.0
 46
0.0
 47
0.0
 48
0.0
140
2.5
141
2.5
142
0.0
143
0.03937007874016
144
1.0
145
0.0
146
1.0
147
0.625
 71
     0
 72
     0
 73
     0
 74
     0
 75
     0
 76
     0
 77
     1
 78
     8
170
     0
171
     3
172
     1
173
     0
174
     0
175
     0
176
     0
177
     0
178
     0
  0
ENDTAB
  0
ENDSEC
  0
SECTION
  2
BLOCKS
  0
BLOCK
  8
0
  2
$MODEL_SPACE
 70
     0
 10
0.0
 20
0.0
 30
0.0
  3
$MODEL_SPACE
  1

  0
ENDBLK
  5
21
  8
0
  0
BLOCK
 67
     1
  8
0
  2
$PAPER_SPACE
 70
     0
 10
0.0
 20
0.0
 30
0.0
  3
$PAPER_SPACE
  1

  0
ENDBLK
  5
D5
 67
     1
  8
0
  0
ENDSEC
  0
SECTION
  2
ENTITIES
  0
ARC
  5
2A2
  8
VISIBLE__ISO_
 10
16.3868141790890007
 20
256.7500000000002842
 30
0.0
 40
6.3500000000000139
 50
90.0
 51
180.0
  0
CIRCLE
  5
2A3
  8
VISIBLE__ISO_
 10
254.4588141790891029
 20
130.0000000000001137
 30
0.0
 40
3.174999999999998
  0
CIRCLE
  5
2A4
  8
VISIBLE__ISO_
 10
148.2868141790891059
 20
236.172000000000196
 30
0.0
 40
3.174999999999998
  0
CIRCLE
  5
2A5
  8
VISIBLE__ISO_
 10
148.2868141790891059
 20
23.8280000000000918
 30
0.0
 40
3.174999999999998
  0
CIRCLE
  5
2A6
  8
VISIBLE__ISO_
 10
35.4368141790889766
 20
236.172000000000196
 30
0.0
 40
3.174999999999998
  0
POLYLINE
  5
2A7
  8
0
 66
     1
 10
0.0
 20
0.0
 30
0.0
 70
     1
  0
VERTEX
  5
369
  8
0
 10
100.5305796262018987
 20
8.0092303380036451
 30
0.0
  0
VERTEX
  5
36A
  8
0
 10
100.5305796262018987
 20
24.1469489307121989
 30
0.0
  0
VERTEX
  5
36B
  8
0
 10
110.1868141790890974
 20
20.0336259148176907
 30
0.0
  0
VERTEX
  5
36C
  8
0
 10
113.3618141790892935
 20
19.0343359457530283
 30
0.0
 42
0.0141881286525119
  0
VERTEX
  5
36D
  8
0
 10
119.7118141790892025
 20
17.2320808075274812
 30
0.0
 42
1.077068088013047
  0
VERTEX
  5
36E
  8
0
 10
159.8802427300267937
 20
245.7528688129773116
 30
0.0
  0
VERTEX
  5
36F
  8
0
 10
110.1868141790888984
 20
250.7300000000001035
 30
0.0
  0
VERTEX
  5
370
  8
0
 10
13.2118141790889894
 20
250.7300000000001035
 30
0.0
 42
0.4142135623730931
  0
VERTEX
  5
371
  8
0
 10
10.0368141790889993
 20
247.5550000000000921
 30
0.0
  0
VERTEX
  5
372
  8
0
 10
0.0000000000000142
 20
241.4560740656719133
 30
0.0
  0
VERTEX
  5
373
  8
0
 10
0.0
 20
263.1000000000000227
 30
0.0
  0
VERTEX
  5
374
  8
0
 10
16.3868141790890007
 20
263.1000000000000796
 30
0.0
  0
VERTEX
  5
375
  8
0
 10
200.0266141790891083
 20
263.1000000000000796
 30
0.0
 42
-0.4142135623730951
  0
VERTEX
  5
376
  8
0
 10
206.376614179088989
 20
256.7500000000002842
 30
0.0
  0
VERTEX
  5
377
  8
0
 10
206.3766141790891027
 20
250.1617022014920053
 30
0.0
 42
0.2763681881238862
  0
VERTEX
  5
378
  8
0
 10
209.7255673877432116
 20
244.5656126600215998
 30
0.0
 42
-0.8899903815968581
  0
VERTEX
  5
379
  8
0
 10
114.9063046764611045
 20
4.358678829992626
 30
0.0
  0
SEQEND
  5
37A
  8
0
  0
POLYLINE
  5
2A8
  8
0
 66
     1
 10
0.0
 20
0.0
 30
0.0
 70
     1
  0
VERTEX
  5
37B
  8
0
 10
118.4680793859014045
 20
36.6004871996993231
 30
0.0
 42
0.0033221350202668
  0
VERTEX
  5
37C
  8
0
 10
119.7118141790889041
 20
36.2124991749968501
 30
0.0
 42
0.2352156698736041
  0
VERTEX
  5
37D
  8
0
 10
205.9159245270585075
 20
50.6809507337516081
 30
0.0
 42
-0.3895342695752455
  0
VERTEX
  5
37E
  8
0
 10
210.18308459083201
 20
50.1898629376169865
 30
0.0
 42
1.0748156801379549
  0
VERTEX
  5
37F
  8
0
 10
228.0969512414741871
 20
68.1037295882599665
 30
0.0
 42
-0.3895342695752424
  0
VERTEX
  5
380
  8
0
 10
227.605863445339196
 20
72.370889652032858
 30
0.0
 42
0.3249217386957443
  0
VERTEX
  5
381
  8
0
 10
227.6058634453372065
 20
187.6291103479703111
 30
0.0
 42
-0.3895342695752713
  0
VERTEX
  5
382
  8
0
 10
228.0969512414717997
 20
191.8962704117436999
 30
0.0
 42
1.0748156801380691
  0
VERTEX
  5
383
  8
0
 10
210.1830845908289973
 20
209.8101370623857918
 30
0.0
 42
-0.3895342695752729
  0
VERTEX
  5
384
  8
0
 10
205.9159245270554948
 20
209.3190492662508859
 30
0.0
 42
0.1583853872085063
  0
VERTEX
  5
385
  8
0
 10
148.2868141790891059
 20
228.0440000000002954
 30
0.0
  0
VERTEX
  5
386
  8
0
 10
16.3868141790889617
 20
228.0440000000002954
 30
0.0
 42
-0.414213562373093
  0
VERTEX
  5
387
  8
0
 10
10.0368141790889993
 20
234.3940000000000907
 30
0.0
  0
VERTEX
  5
388
  8
0
 10
10.0368141790889993
 20
247.5550000000000921
 30
0.0
  0
VERTEX
  5
389
  8
0
 10
10.0368141790890508
 20
256.7500000000002842
 30
0.0
 42
-0.414213562373118
  0
VERTEX
  5
38A
  8
0
 10
16.3868141790890007
 20
263.100000000000307
 30
0.0
  0
VERTEX
  5
38B
  8
0
 10
200.0266141790891936
 20
263.1000000000000227
 30
0.0
 42
-0.4142135623730951
  0
VERTEX
  5
38C
  8
0
 10
206.376614179088989
 20
256.7500000000003979
 30
0.0
  0
VERTEX
  5
38D
  8
0
 10
206.3766141790891027
 20
250.1617022014920053
 30
0.0
 42
0.2763681881238847
  0
VERTEX
  5
38E
  8
0
 10
209.7255673877432116
 20
244.5656126600215998
 30
0.0
 42
-0.8899903815968578
  0
VERTEX
  5
38F
  8
0
 10
114.9063046764612039
 20
4.3586788299926686
 30
0.0
 42
-0.066075122275542
  0
VERTEX
  5
390
  8
0
 10
113.3618141790890945
 20
4.9965128192657451
 30
0.0
 42
-0.2679491924311219
  0
VERTEX
  5
391
  8
0
 10
110.1868141790890974
 20
10.4957741332969992
 30
0.0
  0
VERTEX
  5
392
  8
0
 10
110.1868141790890974
 20
20.0336259148176907
 30
0.0
  0
VERTEX
  5
393
  8
0
 10
110.1868141790890974
 20
30.5512959561564799
 30
0.0
 42
-0.5079117798187353
  0
SEQEND
  5
394
  8
0
  0
CIRCLE
  5
2E2
  8
VISIBLE__ISO_
 10
-39.2577957581574424
 20
57.0372982955086627
 30
0.0
 40
3.174999999999998
  0
CIRCLE
  5
2E3
  8
VISIBLE__ISO_
 10
66.9142042418425262
 20
163.2092982955086882
 30
0.0
 40
3.174999999999998
  0
CIRCLE
  5
2E4
  8
VISIBLE__ISO_
 10
66.9142042418425262
 20
-49.1347017044913414
 30
0.0
 40
3.174999999999998
  0
CIRCLE
  5
2E5
  8
VISIBLE__ISO_
 10
179.7642042418426058
 20
163.2092982955086882
 30
0.0
 40
3.174999999999998
  0
LINE
  5
2E6
  8
VISIBLE__ISO_
 10
95.4892042418424438
 20
-36.7502025294947074
 30
0.0
 11
95.4892042418424438
 21
-55.7306208969638206
 31
0.0
  0
POLYLINE
  5
2E7
  8
VISIBLE__ISO_
 66
     1
 10
0.0
 20
0.0
 30
0.0
 70
     1
  0
VERTEX
  5
3F0
  8
VISIBLE__ISO_
 10
101.8392042418423955
 20
-53.9283657587383303
 30
0.0
  0
VERTEX
  5
3F1
  8
VISIBLE__ISO_
 10
114.1115475223760996
 20
-50.5568457198678516
 30
0.0
  0
VERTEX
  5
3F2
  8
VISIBLE__ISO_
 10
116.020503692996698
 20
-63.8001686514544417
 30
0.0
  0
VERTEX
  5
3F3
  8
VISIBLE__ISO_
 10
101.8392042418423955
 20
-67.9661888852257476
 30
0.0
 42
-0.0660751222755329
  0
VERTEX
  5
3F4
  8
VISIBLE__ISO_
 10
100.2947137444707977
 20
-68.6040228744986962
 30
0.0
 42
-0.8899903815968565
  0
VERTEX
  5
3F5
  8
VISIBLE__ISO_
 10
5.4754510331882784
 20
171.602910955530092
 30
0.0
 42
0.27636818812389
  0
VERTEX
  5
3F6
  8
VISIBLE__ISO_
 10
8.8244042418425561
 20
177.1990004970004122
 30
0.0
  0
VERTEX
  5
3F7
  8
VISIBLE__ISO_
 10
8.8244042418425011
 20
183.7872982955086059
 30
0.0
 42
-0.4142135623730951
  0
VERTEX
  5
3F8
  8
VISIBLE__ISO_
 10
15.1744042418424598
 20
190.1372982955086002
 30
0.0
  0
VERTEX
  5
3F9
  8
VISIBLE__ISO_
 10
198.8142042418425888
 20
190.1372982955087139
 30
0.0
  0
VERTEX
  5
3FA
  8
VISIBLE__ISO_
 10
213.3557317523066104
 20
190.0946027862337075
 30
0.0
  0
VERTEX
  5
3FB
  8
VISIBLE__ISO_
 10
213.3557317523066104
 20
170.5167631780095121
 30
0.0
  0
VERTEX
  5
3FC
  8
VISIBLE__ISO_
 10
206.0455151951447874
 20
170.5167631780095121
 30
0.0
  0
VERTEX
  5
3FD
  8
VISIBLE__ISO_
 10
205.1642042418424978
 20
174.5922982955086127
 30
0.0
 42
0.4142135623730951
  0
VERTEX
  5
3FE
  8
VISIBLE__ISO_
 10
201.9892042418426001
 20
177.7672982955087093
 30
0.0
  0
VERTEX
  5
3FF
  8
VISIBLE__ISO_
 10
105.0142042418425063
 20
177.7672982955087093
 30
0.0
  0
VERTEX
  5
400
  8
VISIBLE__ISO_
 10
55.3207756909047177
 20
172.7901671084856901
 30
0.0
 42
1.077068088013049
  0
VERTEX
  5
401
  8
VISIBLE__ISO_
 10
95.4892042418426854
 20
-55.7306208969637709
 30
0.0
 42
0.0141881286525119
  0
SEQEND
  5
402
  8
VISIBLE__ISO_
  0
POLYLINE
  5
2E8
  8
VISIBLE__ISO_
 66
     1
 10
0.0
 20
0.0
 30
0.0
 70
     1
  0
VERTEX
  5
403
  8
VISIBLE__ISO_
 10
5.0179338300998211
 20
-22.7728387668743686
 30
0.0
 42
-1.07481568013796
  0
VERTEX
  5
404
  8
VISIBLE__ISO_
 10
-12.8959328205424999
 20
-4.8589721162314836
 30
0.0
 42
0.389534269575245
  0
VERTEX
  5
405
  8
VISIBLE__ISO_
 10
-12.4048450244076207
 20
-0.5918120524585362
 30
0.0
 42
-0.3249217386957444
  0
VERTEX
  5
406
  8
VISIBLE__ISO_
 10
-12.4048450244055104
 20
114.6664086434787038
 30
0.0
 42
0.3895342695752729
  0
VERTEX
  5
407
  8
VISIBLE__ISO_
 10
-12.8959328205403398
 20
118.9335687072523058
 30
0.0
 42
-1.0748156801380551
  0
VERTEX
  5
408
  8
VISIBLE__ISO_
 10
5.0179338301026064
 20
136.8474353578943976
 30
0.0
 42
0.3895342695752701
  0
VERTEX
  5
409
  8
VISIBLE__ISO_
 10
9.2850938938759668
 20
136.3563475617592076
 30
0.0
 42
-0.1583853872085063
  0
VERTEX
  5
40A
  8
VISIBLE__ISO_
 10
66.9142042418425262
 20
155.0812982955087023
 30
0.0
  0
VERTEX
  5
40B
  8
VISIBLE__ISO_
 10
198.8142042418425888
 20
155.0812982955085886
 30
0.0
 42
0.4142135623730951
  0
VERTEX
  5
40C
  8
VISIBLE__ISO_
 10
205.1642042418424978
 20
161.4312982955086113
 30
0.0
  0
VERTEX
  5
40D
  8
VISIBLE__ISO_
 10
205.1642042418424978
 20
174.5922982955086127
 30
0.0
  0
VERTEX
  5
40E
  8
VISIBLE__ISO_
 10
205.1642042418424978
 20
183.7872982955086059
 30
0.0
 42
0.414213562373093
  0
VERTEX
  5
40F
  8
VISIBLE__ISO_
 10
198.8142042418425888
 20
190.1372982955087139
 30
0.0
  0
VERTEX
  5
410
  8
VISIBLE__ISO_
 10
15.1744042418424598
 20
190.1372982955084865
 30
0.0
 42
0.4142135623730898
  0
VERTEX
  5
411
  8
VISIBLE__ISO_
 10
8.8244042418425011
 20
183.7872982955086059
 30
0.0
  0
VERTEX
  5
412
  8
VISIBLE__ISO_
 10
8.8244042418425011
 20
177.1990004970004122
 30
0.0
 42
-0.2763681881198893
  0
VERTEX
  5
413
  8
VISIBLE__ISO_
 10
5.4754510331882784
 20
171.602910955530092
 30
0.0
 42
0.8899903815968569
  0
VERTEX
  5
414
  8
VISIBLE__ISO_
 10
100.2947137444707977
 20
-68.6040228744986962
 30
0.0
 42
0.0660751222755242
  0
VERTEX
  5
415
  8
VISIBLE__ISO_
 10
101.839204241842495
 20
-67.9661888852257619
 30
0.0
 42
0.267949192431124
  0
VERTEX
  5
416
  8
VISIBLE__ISO_
 10
105.0142042418425063
 20
-62.4669275711945602
 30
0.0
  0
VERTEX
  5
417
  8
VISIBLE__ISO_
 10
105.0142042418425063
 20
-42.4114057483349427
 30
0.0
 42
0.5079117798187353
  0
VERTEX
  5
418
  8
VISIBLE__ISO_
 10
96.7329390350298723
 20
-36.3622145047921492
 30
0.0
 42
-0.0033221350202679
  0
VERTEX
  5
419
  8
VISIBLE__ISO_
 10
95.4892042418422875
 20
-36.7502025294947714
 30
0.0
 42
-0.235215669873603
  0
VERTEX
  5
41A
  8
VISIBLE__ISO_
 10
9.2850938938728405
 20
-22.2817509707398109
 30
0.0
 42
0.3895342695752468
  0
SEQEND
  5
41B
  8
VISIBLE__ISO_
  0
ENDSEC
  0
EOF
