  0
SECTION
  2
HEADER
  9
$ACADVER
  1
AC1009
  9
$INSBASE
 10
0.0
 20
0.0
 30
0.0
  9
$EXTMIN
 10
-952.2000000000001592
 20
-1132.4040324744739792
 30
0.0
  9
$EXTMAX
 10
579.4999999999998863
 20
50.1499999999999986
 30
0.0
  9
$LIMMIN
 10
0.0
 20
0.0
  9
$LIMMAX
 10
420.0
 20
297.0
  9
$ORTHOMODE
 70
     1
  9
$REGENMODE
 70
     1
  9
$FILLMODE
 70
     1
  9
$QTEXTMODE
 70
     0
  9
$MIRRTEXT
 70
     1
  9
$DRAGMODE
 70
     2
  9
$LTSCALE
 40
1.0
  9
$OSMODE
 70
   951
  9
$ATTMODE
 70
     1
  9
$TEXTSIZE
 40
6.3499999999999988
  9
$TRACEWID
 40
1.0
  9
$TEXTSTYLE
  7
STANDARD
  9
$CLAYER
  8
0
  9
$CELTYPE
  6
BYLAYER
  9
$CECOLOR
 62
   256
  9
$DIMSCALE
 40
1.0
  9
$DIMASZ
 40
5.9943999999999988
  9
$DIMEXO
 40
0.0
  9
$DIMDLI
 40
3.75
  9
$DIMRND
 40
0.0
  9
$DIMDLE
 40
0.0
  9
$DIMEXE
 40
0.9906
  9
$DIMTP
 40
0.0
  9
$DIMTM
 40
0.0
  9
$DIMTXT
 40
6.3499999999999988
  9
$DIMCEN
 40
2.5
  9
$DIMTSZ
 40
0.0
  9
$DIMTOL
 70
     0
  9
$DIMLIM
 70
     0
  9
$DIMTIH
 70
     1
  9
$DIMTOH
 70
     1
  9
$DIMSE1
 70
     0
  9
$DIMSE2
 70
     0
  9
$DIMTAD
 70
     1
  9
$DIMZIN
 70
     0
  9
$DIMBLK
  1

  9
$DIMASO
 70
     1
  9
$DIMSHO
 70
     1
  9
$DIMPOST
  1

  9
$DIMAPOST
  1

  9
$DIMALT
 70
     0
  9
$DIMALTD
 70
     3
  9
$DIMALTF
 40
0.0393700787
  9
$DIMLFAC
 40
1.0
  9
$DIMTOFL
 70
     1
  9
$DIMTVP
 40
0.0
  9
$DIMTIX
 70
     0
  9
$DIMSOXD
 70
     0
  9
$DIMSAH
 70
     0
  9
$DIMBLK1
  1

  9
$DIMBLK2
  1

  9
$DIMSTYLE
  2
ISO-25
  9
$DIMCLRD
 70
     0
  9
$DIMCLRE
 70
     0
  9
$DIMCLRT
 70
     0
  9
$DIMTFAC
 40
1.0
  9
$DIMGAP
 40
1.524
  9
$LUNITS
 70
     2
  9
$LUPREC
 70
     2
  9
$SKETCHINC
 40
1.0
  9
$FILLETRAD
 40
10.0
  9
$AUNITS
 70
     0
  9
$AUPREC
 70
     2
  9
$MENU
  1
.
  9
$ELEVATION
 40
0.0
  9
$PELEVATION
 40
0.0
  9
$THICKNESS
 40
0.0
  9
$LIMCHECK
 70
     0
  9
$BLIPMODE
 70
     0
  9
$CHAMFERA
 40
0.0
  9
$CHAMFERB
 40
0.0
  9
$SKPOLY
 70
     0
  9
$TDCREATE
 40
2459894.3641087971627712
  9
$TDUPDATE
 40
2459894.6311805560253561
  9
$TDINDWG
 40
0.0050578819
  9
$TDUSRTIMER
 40
0.0050578819
  9
$USRTIMER
 70
     1
  9
$ANGBASE
 50
0.0
  9
$ANGDIR
 70
     0
  9
$PDMODE
 70
     0
  9
$PDSIZE
 40
-1.0
  9
$PLINEWID
 40
0.0
  9
$COORDS
 70
     1
  9
$SPLFRAME
 70
     0
  9
$SPLINETYPE
 70
     6
  9
$SPLINESEGS
 70
     8
  9
$ATTDIA
 70
     1
  9
$ATTREQ
 70
     1
  9
$HANDLING
 70
     1
  9
$HANDSEED
  5
1CC
  9
$SURFTAB1
 70
     6
  9
$SURFTAB2
 70
     6
  9
$SURFTYPE
 70
     6
  9
$SURFU
 70
     6
  9
$SURFV
 70
     6
  9
$UCSNAME
  2

  9
$UCSORG
 10
0.0
 20
0.0
 30
0.0
  9
$UCSXDIR
 10
1.0
 20
0.0
 30
0.0
  9
$UCSYDIR
 10
0.0
 20
1.0
 30
0.0
  9
$PUCSNAME
  2

  9
$PUCSORG
 10
0.0
 20
0.0
 30
0.0
  9
$PUCSXDIR
 10
1.0
 20
0.0
 30
0.0
  9
$PUCSYDIR
 10
0.0
 20
1.0
 30
0.0
  9
$USERI1
 70
     0
  9
$USERI2
 70
     0
  9
$USERI3
 70
     0
  9
$USERI4
 70
     0
  9
$USERI5
 70
     0
  9
$USERR1
 40
0.0
  9
$USERR2
 40
0.0
  9
$USERR3
 40
0.0
  9
$USERR4
 40
0.0
  9
$USERR5
 40
0.0
  9
$WORLDVIEW
 70
     1
  9
$SHADEDGE
 70
     3
  9
$SHADEDIF
 70
    70
  9
$TILEMODE
 70
     1
  9
$MAXACTVP
 70
    64
  9
$PLIMCHECK
 70
     0
  9
$PEXTMIN
 10
1.0000000000000000E+20
 20
1.0000000000000000E+20
 30
1.0000000000000000E+20
  9
$PEXTMAX
 10
-1.0000000000000000E+20
 20
-1.0000000000000000E+20
 30
-1.0000000000000000E+20
  9
$PLIMMIN
 10
0.0
 20
0.0
  9
$PLIMMAX
 10
420.0
 20
297.0
  9
$UNITMODE
 70
     0
  9
$VISRETAIN
 70
     1
  9
$PLINEGEN
 70
     0
  9
$PSLTSCALE
 70
     1
  0
ENDSEC
  0
SECTION
  2
TABLES
  0
TABLE
  2
VPORT
 70
     1
  0
VPORT
  2
*ACTIVE
 70
     0
 10
0.0
 20
0.0
 11
1.0
 21
1.0
 12
-685.7053109379271518
 22
-292.2186839627374866
 13
0.0
 23
0.0
 14
10.0
 24
10.0
 15
10.0
 25
10.0
 16
0.0
 26
0.0
 36
1.0
 17
0.0
 27
0.0
 37
0.0
 40
2134.1464412352997897
 41
2.3047158403869399
 42
50.0
 43
0.0
 44
0.0
 50
0.0
 51
0.0
 71
     0
 72
   100
 73
     1
 74
     3
 75
     0
 76
     0
 77
     0
 78
     0
  0
ENDTAB
  0
TABLE
  2
LTYPE
 70
     7
  0
LTYPE
  2
CONTINUOUS
 70
     0
  3
Solid line
 72
    65
 73
     0
 40
0.0
  0
LTYPE
  2
HIDDEN
 70
     0
  3
Hidden __ __ __ __ __ __ __ __ __ __ __ __ __ __
 72
    65
 73
     2
 40
1.905
 49
1.27
 49
-0.635
  0
LTYPE
  2
PHANTOM
 70
     0
  3
Phantom ______  __  __  ______  __  __  ______
 72
    65
 73
     6
 40
12.6999999999999993
 49
6.3499999999999988
 49
-1.27
 49
1.27
 49
-1.27
 49
1.27
 49
-1.27
  0
LTYPE
  2
CENTER
 70
     0
  3
Center ____ _ ____ _ ____ _ ____ _ ____ _ ____
 72
    65
 73
     4
 40
10.1600000000000001
 49
6.3499999999999988
 49
-1.27
 49
1.27
 49
-1.27
  0
LTYPE
  2
CENTERX2
 70
     0
  3
Center (2x) ________  __  ________  __  _____
 72
    65
 73
     4
 40
20.3200000000000003
 49
12.6999999999999993
 49
-2.54
 49
2.54
 49
-2.54
  0
LTYPE
  2
DOT2
 70
     0
  3
Dot (.5x) ........................................
 72
    65
 73
     2
 40
0.635
 49
0.0
 49
-0.635
  0
ENDTAB
  0
TABLE
  2
LAYER
 70
     1
  0
LAYER
  2
0
 70
     0
 62
     7
  6
CONTINUOUS
  0
ENDTAB
  0
TABLE
  2
STYLE
 70
     1
  0
STYLE
  2
STANDARD
 70
     0
 40
0.0
 41
1.0
 50
0.0
 71
     0
 42
6.3499999999999988
  3
txt
  4

  0
ENDTAB
  0
TABLE
  2
VIEW
 70
     0
  0
ENDTAB
  0
TABLE
  2
UCS
 70
     0
  0
ENDTAB
  0
TABLE
  2
APPID
 70
     4
  0
APPID
  2
ACAD
 70
     0
  0
APPID
  2
ACAD_NAV_VCDISPLAY
 70
     0
  0
APPID
  2
ACAD_EXEMPT_FROM_CAD_STANDARDS
 70
     0
  0
APPID
  2
ACAD_MLEADERVER
 70
     0
  0
ENDTAB
  0
TABLE
  2
DIMSTYLE
 70
     2
  0
DIMSTYLE
  2
ISO-25
 70
     0
  3

  4

  5

  6

  7

 40
1.0
 41
2.5
 42
0.625
 43
3.75
 44
1.25
 45
0.0
 46
0.0
 47
0.0
 48
0.0
140
2.5
141
2.5
142
0.0
143
0.0393700787
144
1.0
145
0.0
146
1.0
147
0.625
 71
     0
 72
     0
 73
     0
 74
     0
 75
     0
 76
     0
 77
     1
 78
     8
170
     0
171
     3
172
     1
173
     0
174
     0
175
     0
176
     0
177
     0
178
     0
  0
ENDTAB
  0
ENDSEC
  0
SECTION
  2
BLOCKS
  0
BLOCK
  8
0
  2
$MODEL_SPACE
 70
     0
 10
0.0
 20
0.0
 30
0.0
  3
$MODEL_SPACE
  1

  0
ENDBLK
  5
21
  8
0
  0
BLOCK
 67
     1
  8
0
  2
$PAPER_SPACE
 70
     0
 10
0.0
 20
0.0
 30
0.0
  3
$PAPER_SPACE
  1

  0
ENDBLK
  5
1D
 67
     1
  8
0
  0
ENDSEC
  0
SECTION
  2
ENTITIES
  0
CIRCLE
  5
73
  8
0
  6
CONTINUOUS
 62
     7
 10
-604.1499999999999773
 20
15.1499999999999808
 30
0.0
 40
6.0
  0
CIRCLE
  5
74
  8
0
  6
CONTINUOUS
 62
     7
 10
-604.1499999999999773
 20
-14.8500000000000192
 30
0.0
 40
6.0
  0
CIRCLE
  5
75
  8
0
  6
CONTINUOUS
 62
     7
 10
-604.1500000000000909
 20
-1078.8499999999999091
 30
0.0
 40
6.0
  0
CIRCLE
  5
76
  8
0
  6
CONTINUOUS
 62
     7
 10
-604.1500000000000909
 20
-1108.8499999999999091
 30
0.0
 40
6.0
  0
POLYLINE
  5
D0
  8
0
  6
CONTINUOUS
 62
     7
 66
     1
 10
0.0
 20
0.0
 30
0.0
 70
     1
  0
VERTEX
  5
14C
  8
0
  6
CONTINUOUS
 62
     7
 10
-570.5000000000002274
 20
-1028.3499999999999091
 30
0.0
 42
0.4142135623730951
  0
VERTEX
  5
14D
  8
0
  6
CONTINUOUS
 62
     7
 10
-575.0000000000002274
 20
-1032.8499999999999091
 30
0.0
  0
VERTEX
  5
14E
  8
0
  6
CONTINUOUS
 62
     7
 10
-575.0000000000002274
 20
-1121.8499999999999091
 30
0.0
 42
-0.4142135623730951
  0
VERTEX
  5
14F
  8
0
  6
CONTINUOUS
 62
     7
 10
-579.5000000000002274
 20
-1126.3499999999999091
 30
0.0
  0
VERTEX
  5
150
  8
0
  6
CONTINUOUS
 62
     7
 10
-628.8000000000001819
 20
-1126.3499999999999091
 30
0.0
 42
-0.4142135623730951
  0
VERTEX
  5
151
  8
0
  6
CONTINUOUS
 62
     7
 10
-633.3000000000000682
 20
-1121.8499999999999091
 30
0.0
  0
VERTEX
  5
152
  8
0
  6
CONTINUOUS
 62
     7
 10
-633.2999999999999545
 20
28.1499999999999808
 30
0.0
 42
-0.4142135623730951
  0
VERTEX
  5
153
  8
0
  6
CONTINUOUS
 62
     7
 10
-628.7999999999999545
 20
32.6499999999999773
 30
0.0
  0
VERTEX
  5
154
  8
0
  6
CONTINUOUS
 62
     7
 10
-579.4999999999998863
 20
32.6499999999999773
 30
0.0
 42
-0.4142135623730951
  0
VERTEX
  5
155
  8
0
  6
CONTINUOUS
 62
     7
 10
-575.0
 20
28.1499999999999808
 30
0.0
  0
VERTEX
  5
156
  8
0
  6
CONTINUOUS
 62
     7
 10
-575.0
 20
-60.8500000000000227
 30
0.0
 42
0.4142135623730951
  0
VERTEX
  5
157
  8
0
  6
CONTINUOUS
 62
     7
 10
-570.5
 20
-65.3500000000000227
 30
0.0
  0
VERTEX
  5
158
  8
0
  6
CONTINUOUS
 62
     7
 10
-566.5
 20
-65.3500000000000227
 30
0.0
 42
-0.4142135623730951
  0
VERTEX
  5
159
  8
0
  6
CONTINUOUS
 62
     7
 10
-562.0
 20
-69.8500000000000227
 30
0.0
  0
VERTEX
  5
15A
  8
0
  6
CONTINUOUS
 62
     7
 10
-562.0
 20
-505.3500000000000227
 30
0.0
 42
-0.4142135623730951
  0
VERTEX
  5
15B
  8
0
  6
CONTINUOUS
 62
     7
 10
-566.5
 20
-509.8500000000000227
 30
0.0
  0
VERTEX
  5
15C
  8
0
  6
CONTINUOUS
 62
     7
 10
-595.5
 20
-509.8500000000000227
 30
0.0
 42
0.4142135623730951
  0
VERTEX
  5
15D
  8
0
  6
CONTINUOUS
 62
     7
 10
-600.0
 20
-514.3500000000000227
 30
0.0
  0
VERTEX
  5
15E
  8
0
  6
CONTINUOUS
 62
     7
 10
-600.0
 20
-579.3500000000000227
 30
0.0
 42
0.4142135623730951
  0
VERTEX
  5
15F
  8
0
  6
CONTINUOUS
 62
     7
 10
-595.5
 20
-583.8500000000000227
 30
0.0
  0
VERTEX
  5
160
  8
0
  6
CONTINUOUS
 62
     7
 10
-566.5
 20
-583.8500000000000227
 30
0.0
 42
-0.4142135623730951
  0
VERTEX
  5
161
  8
0
  6
CONTINUOUS
 62
     7
 10
-562.0
 20
-588.3500000000000227
 30
0.0
  0
VERTEX
  5
162
  8
0
  6
CONTINUOUS
 62
     7
 10
-562.0000000000002274
 20
-1023.8500000000000227
 30
0.0
 42
-0.4142135623730951
  0
VERTEX
  5
163
  8
0
  6
CONTINUOUS
 62
     7
 10
-566.5000000000002274
 20
-1028.3499999999999091
 30
0.0
  0
SEQEND
  5
164
  8
0
  6
CONTINUOUS
 62
     7
  0
CIRCLE
  5
D1
  8
0
  6
CONTINUOUS
 62
     7
 10
-710.4499999999999318
 20
15.1499999999999808
 30
0.0
 40
6.0
  0
CIRCLE
  5
D2
  8
0
  6
CONTINUOUS
 62
     7
 10
-710.4499999999999318
 20
-14.8500000000000192
 30
0.0
 40
6.0
  0
CIRCLE
  5
D3
  8
0
  6
CONTINUOUS
 62
     7
 10
-710.4500000000000455
 20
-1078.8499999999999091
 30
0.0
 40
6.0
  0
CIRCLE
  5
D4
  8
0
  6
CONTINUOUS
 62
     7
 10
-710.4500000000000455
 20
-1108.8499999999999091
 30
0.0
 40
6.0
  0
POLYLINE
  5
D5
  8
0
  6
CONTINUOUS
 62
     7
 66
     1
 10
0.0
 20
0.0
 30
0.0
 70
     1
  0
VERTEX
  5
165
  8
0
  6
CONTINUOUS
 62
     7
 10
-676.8000000000000682
 20
-1028.3499999999999091
 30
0.0
 42
0.4142135623730951
  0
VERTEX
  5
166
  8
0
  6
CONTINUOUS
 62
     7
 10
-681.3000000000001819
 20
-1032.8499999999999091
 30
0.0
  0
VERTEX
  5
167
  8
0
  6
CONTINUOUS
 62
     7
 10
-681.3000000000001819
 20
-1121.8499999999999091
 30
0.0
 42
-0.4142135623730951
  0
VERTEX
  5
168
  8
0
  6
CONTINUOUS
 62
     7
 10
-685.8000000000001819
 20
-1126.3499999999999091
 30
0.0
  0
VERTEX
  5
169
  8
0
  6
CONTINUOUS
 62
     7
 10
-735.1000000000001364
 20
-1126.3499999999999091
 30
0.0
 42
-0.4142135623730951
  0
VERTEX
  5
16A
  8
0
  6
CONTINUOUS
 62
     7
 10
-739.6000000000001364
 20
-1121.8499999999999091
 30
0.0
  0
VERTEX
  5
16B
  8
0
  6
CONTINUOUS
 62
     7
 10
-739.6000000000000227
 20
28.1499999999999808
 30
0.0
 42
-0.4142135623730951
  0
VERTEX
  5
16C
  8
0
  6
CONTINUOUS
 62
     7
 10
-735.0999999999999091
 20
32.6499999999999773
 30
0.0
  0
VERTEX
  5
16D
  8
0
  6
CONTINUOUS
 62
     7
 10
-685.7999999999999545
 20
32.6499999999999773
 30
0.0
 42
-0.4142135623730951
  0
VERTEX
  5
16E
  8
0
  6
CONTINUOUS
 62
     7
 10
-681.2999999999999545
 20
28.1499999999999808
 30
0.0
  0
VERTEX
  5
16F
  8
0
  6
CONTINUOUS
 62
     7
 10
-681.2999999999999545
 20
-60.8500000000000227
 30
0.0
 42
0.4142135623730951
  0
VERTEX
  5
170
  8
0
  6
CONTINUOUS
 62
     7
 10
-676.7999999999999545
 20
-65.3500000000000227
 30
0.0
  0
VERTEX
  5
171
  8
0
  6
CONTINUOUS
 62
     7
 10
-672.7999999999999545
 20
-65.3500000000000227
 30
0.0
 42
-0.4142135623730951
  0
VERTEX
  5
172
  8
0
  6
CONTINUOUS
 62
     7
 10
-668.2999999999999545
 20
-69.8500000000000227
 30
0.0
  0
VERTEX
  5
173
  8
0
  6
CONTINUOUS
 62
     7
 10
-668.2999999999999545
 20
-505.3500000000000227
 30
0.0
 42
-0.4142135623730951
  0
VERTEX
  5
174
  8
0
  6
CONTINUOUS
 62
     7
 10
-672.7999999999999545
 20
-509.8500000000000227
 30
0.0
  0
VERTEX
  5
175
  8
0
  6
CONTINUOUS
 62
     7
 10
-701.7999999999999545
 20
-509.8500000000000227
 30
0.0
 42
0.4142135623730951
  0
VERTEX
  5
176
  8
0
  6
CONTINUOUS
 62
     7
 10
-706.2999999999999545
 20
-514.3500000000000227
 30
0.0
  0
VERTEX
  5
177
  8
0
  6
CONTINUOUS
 62
     7
 10
-706.2999999999999545
 20
-579.3500000000000227
 30
0.0
 42
0.4142135623730951
  0
VERTEX
  5
178
  8
0
  6
CONTINUOUS
 62
     7
 10
-701.7999999999999545
 20
-583.8500000000000227
 30
0.0
  0
VERTEX
  5
179
  8
0
  6
CONTINUOUS
 62
     7
 10
-672.7999999999999545
 20
-583.8500000000000227
 30
0.0
 42
-0.4142135623730951
  0
VERTEX
  5
17A
  8
0
  6
CONTINUOUS
 62
     7
 10
-668.2999999999999545
 20
-588.3500000000000227
 30
0.0
  0
VERTEX
  5
17B
  8
0
  6
CONTINUOUS
 62
     7
 10
-668.3000000000000682
 20
-1023.8500000000000227
 30
0.0
 42
-0.4142135623730951
  0
VERTEX
  5
17C
  8
0
  6
CONTINUOUS
 62
     7
 10
-672.8000000000000682
 20
-1028.3499999999999091
 30
0.0
  0
SEQEND
  5
17D
  8
0
  6
CONTINUOUS
 62
     7
  0
CIRCLE
  5
D6
  8
0
  6
CONTINUOUS
 62
     7
 10
-816.75
 20
15.1499999999999808
 30
0.0
 40
6.0
  0
CIRCLE
  5
D7
  8
0
  6
CONTINUOUS
 62
     7
 10
-816.75
 20
-14.8500000000000192
 30
0.0
 40
6.0
  0
CIRCLE
  5
D8
  8
0
  6
CONTINUOUS
 62
     7
 10
-816.75
 20
-1078.8499999999999091
 30
0.0
 40
6.0
  0
CIRCLE
  5
D9
  8
0
  6
CONTINUOUS
 62
     7
 10
-816.7500000000002274
 20
-1108.8499999999999091
 30
0.0
 40
6.0
  0
POLYLINE
  5
DA
  8
0
  6
CONTINUOUS
 62
     7
 66
     1
 10
0.0
 20
0.0
 30
0.0
 70
     1
  0
VERTEX
  5
17E
  8
0
  6
CONTINUOUS
 62
     7
 10
-783.1000000000001364
 20
-1028.3499999999999091
 30
0.0
 42
0.4142135623730951
  0
VERTEX
  5
17F
  8
0
  6
CONTINUOUS
 62
     7
 10
-787.6000000000001364
 20
-1032.8499999999999091
 30
0.0
  0
VERTEX
  5
180
  8
0
  6
CONTINUOUS
 62
     7
 10
-787.6000000000001364
 20
-1121.8499999999999091
 30
0.0
 42
-0.4142135623730951
  0
VERTEX
  5
181
  8
0
  6
CONTINUOUS
 62
     7
 10
-792.1000000000001364
 20
-1126.3499999999999091
 30
0.0
  0
VERTEX
  5
182
  8
0
  6
CONTINUOUS
 62
     7
 10
-841.4000000000000909
 20
-1126.3499999999999091
 30
0.0
 42
-0.4142135623730951
  0
VERTEX
  5
183
  8
0
  6
CONTINUOUS
 62
     7
 10
-845.9000000000000909
 20
-1121.8499999999999091
 30
0.0
  0
VERTEX
  5
184
  8
0
  6
CONTINUOUS
 62
     7
 10
-845.8999999999998636
 20
28.1499999999999808
 30
0.0
 42
-0.4142135623730951
  0
VERTEX
  5
185
  8
0
  6
CONTINUOUS
 62
     7
 10
-841.3999999999998636
 20
32.6499999999999773
 30
0.0
  0
VERTEX
  5
186
  8
0
  6
CONTINUOUS
 62
     7
 10
-792.0999999999999091
 20
32.6499999999999773
 30
0.0
 42
-0.4142135623730951
  0
VERTEX
  5
187
  8
0
  6
CONTINUOUS
 62
     7
 10
-787.5999999999999091
 20
28.1499999999999808
 30
0.0
  0
VERTEX
  5
188
  8
0
  6
CONTINUOUS
 62
     7
 10
-787.5999999999999091
 20
-60.849999999999973
 30
0.0
 42
0.4142135623730951
  0
VERTEX
  5
189
  8
0
  6
CONTINUOUS
 62
     7
 10
-783.0999999999999091
 20
-65.3499999999999659
 30
0.0
  0
VERTEX
  5
18A
  8
0
  6
CONTINUOUS
 62
     7
 10
-779.0999999999999091
 20
-65.3499999999999659
 30
0.0
 42
-0.4142135623730951
  0
VERTEX
  5
18B
  8
0
  6
CONTINUOUS
 62
     7
 10
-774.5999999999999091
 20
-69.8499999999999659
 30
0.0
  0
VERTEX
  5
18C
  8
0
  6
CONTINUOUS
 62
     7
 10
-774.6000000000000227
 20
-505.3500000000000227
 30
0.0
 42
-0.4142135623730951
  0
VERTEX
  5
18D
  8
0
  6
CONTINUOUS
 62
     7
 10
-779.1000000000000227
 20
-509.8500000000000227
 30
0.0
  0
VERTEX
  5
18E
  8
0
  6
CONTINUOUS
 62
     7
 10
-808.0999999999999091
 20
-509.8499999999999091
 30
0.0
 42
0.4142135623730951
  0
VERTEX
  5
18F
  8
0
  6
CONTINUOUS
 62
     7
 10
-812.6000000000001364
 20
-514.3500000000000227
 30
0.0
  0
VERTEX
  5
190
  8
0
  6
CONTINUOUS
 62
     7
 10
-812.6000000000001364
 20
-579.3500000000000227
 30
0.0
 42
0.4142135623730951
  0
VERTEX
  5
191
  8
0
  6
CONTINUOUS
 62
     7
 10
-808.0999999999999091
 20
-583.8500000000000227
 30
0.0
  0
VERTEX
  5
192
  8
0
  6
CONTINUOUS
 62
     7
 10
-779.1000000000000227
 20
-583.8500000000000227
 30
0.0
 42
-0.4142135623730951
  0
VERTEX
  5
193
  8
0
  6
CONTINUOUS
 62
     7
 10
-774.6000000000000227
 20
-588.3500000000000227
 30
0.0
  0
VERTEX
  5
194
  8
0
  6
CONTINUOUS
 62
     7
 10
-774.6000000000001364
 20
-1023.8500000000000227
 30
0.0
 42
-0.4142135623730951
  0
VERTEX
  5
195
  8
0
  6
CONTINUOUS
 62
     7
 10
-779.1000000000001364
 20
-1028.3499999999999091
 30
0.0
  0
SEQEND
  5
196
  8
0
  6
CONTINUOUS
 62
     7
  0
CIRCLE
  5
DB
  8
0
  6
CONTINUOUS
 62
     7
 10
-923.0499999999999545
 20
15.1500000000000892
 30
0.0
 40
6.0
  0
CIRCLE
  5
DC
  8
0
  6
CONTINUOUS
 62
     7
 10
-923.0499999999999545
 20
-14.8499999999999108
 30
0.0
 40
6.0
  0
CIRCLE
  5
DD
  8
0
  6
CONTINUOUS
 62
     7
 10
-923.0500000000001819
 20
-1078.8499999999999091
 30
0.0
 40
6.0
  0
CIRCLE
  5
DE
  8
0
  6
CONTINUOUS
 62
     7
 10
-923.0500000000001819
 20
-1108.8499999999999091
 30
0.0
 40
6.0
  0
POLYLINE
  5
DF
  8
0
  6
CONTINUOUS
 62
     7
 66
     1
 10
0.0
 20
0.0
 30
0.0
 70
     1
  0
VERTEX
  5
197
  8
0
  6
CONTINUOUS
 62
     7
 10
-889.4000000000000909
 20
-1028.3499999999999091
 30
0.0
 42
0.4142135623730951
  0
VERTEX
  5
198
  8
0
  6
CONTINUOUS
 62
     7
 10
-893.9000000000000909
 20
-1032.8499999999999091
 30
0.0
  0
VERTEX
  5
199
  8
0
  6
CONTINUOUS
 62
     7
 10
-893.9000000000000909
 20
-1121.8499999999999091
 30
0.0
 42
-0.4142135623730951
  0
VERTEX
  5
19A
  8
0
  6
CONTINUOUS
 62
     7
 10
-898.4000000000000909
 20
-1126.3499999999999091
 30
0.0
  0
VERTEX
  5
19B
  8
0
  6
CONTINUOUS
 62
     7
 10
-947.7000000000001592
 20
-1126.3499999999999091
 30
0.0
 42
-0.4142135623730951
  0
VERTEX
  5
19C
  8
0
  6
CONTINUOUS
 62
     7
 10
-952.2000000000001592
 20
-1121.8499999999999091
 30
0.0
  0
VERTEX
  5
19D
  8
0
  6
CONTINUOUS
 62
     7
 10
-952.2000000000000455
 20
28.1500000000000909
 30
0.0
 42
-0.4142135623730951
  0
VERTEX
  5
19E
  8
0
  6
CONTINUOUS
 62
     7
 10
-947.7000000000000455
 20
32.6500000000000909
 30
0.0
  0
VERTEX
  5
19F
  8
0
  6
CONTINUOUS
 62
     7
 10
-898.3999999999997499
 20
32.6499999999999773
 30
0.0
 42
-0.4142135623730951
  0
VERTEX
  5
1A0
  8
0
  6
CONTINUOUS
 62
     7
 10
-893.8999999999997499
 20
28.1499999999999808
 30
0.0
  0
VERTEX
  5
1A1
  8
0
  6
CONTINUOUS
 62
     7
 10
-893.8999999999997499
 20
-60.849999999999973
 30
0.0
 42
0.4142135623730951
  0
VERTEX
  5
1A2
  8
0
  6
CONTINUOUS
 62
     7
 10
-889.3999999999997499
 20
-65.3499999999999659
 30
0.0
  0
VERTEX
  5
1A3
  8
0
  6
CONTINUOUS
 62
     7
 10
-885.3999999999998636
 20
-65.3499999999999659
 30
0.0
 42
-0.4142135623730951
  0
VERTEX
  5
1A4
  8
0
  6
CONTINUOUS
 62
     7
 10
-880.8999999999998636
 20
-69.8499999999999659
 30
0.0
  0
VERTEX
  5
1A5
  8
0
  6
CONTINUOUS
 62
     7
 10
-880.9000000000000909
 20
-505.3499999999999091
 30
0.0
 42
-0.4142135623730951
  0
VERTEX
  5
1A6
  8
0
  6
CONTINUOUS
 62
     7
 10
-885.3999999999999773
 20
-509.8499999999999091
 30
0.0
  0
VERTEX
  5
1A7
  8
0
  6
CONTINUOUS
 62
     7
 10
-914.4000000000000909
 20
-509.8499999999999091
 30
0.0
 42
0.4142135623730951
  0
VERTEX
  5
1A8
  8
0
  6
CONTINUOUS
 62
     7
 10
-918.9000000000000909
 20
-514.3499999999999091
 30
0.0
  0
VERTEX
  5
1A9
  8
0
  6
CONTINUOUS
 62
     7
 10
-918.9000000000000909
 20
-579.3499999999997954
 30
0.0
 42
0.4142135623730951
  0
VERTEX
  5
1AA
  8
0
  6
CONTINUOUS
 62
     7
 10
-914.4000000000000909
 20
-583.8499999999997954
 30
0.0
  0
VERTEX
  5
1AB
  8
0
  6
CONTINUOUS
 62
     7
 10
-885.3999999999999773
 20
-583.8500000000000227
 30
0.0
 42
-0.4142135623730951
  0
VERTEX
  5
1AC
  8
0
  6
CONTINUOUS
 62
     7
 10
-880.9000000000000909
 20
-588.3500000000000227
 30
0.0
  0
VERTEX
  5
1AD
  8
0
  6
CONTINUOUS
 62
     7
 10
-880.9000000000000909
 20
-1023.8500000000000227
 30
0.0
 42
-0.4142135623730951
  0
VERTEX
  5
1AE
  8
0
  6
CONTINUOUS
 62
     7
 10
-885.3999999999999773
 20
-1028.3499999999999091
 30
0.0
  0
SEQEND
  5
1AF
  8
0
  6
CONTINUOUS
 62
     7
  0
ENDSEC
  0
EOF
