  0
SECTION
  2
HEADER
  9
$ACADVER
  1
AC1009
  9
$INSBASE
 10
0.0
 20
0.0
 30
0.0
  9
$EXTMIN
 10
0.0
 20
-3.0
 30
0.0
  9
$EXTMAX
 10
1921.3079590091570026
 20
1729.2558899652399305
 30
0.0
  9
$LIMMIN
 10
0.0
 20
0.0
  9
$LIMMAX
 10
420.0
 20
297.0
  9
$ORTHOMODE
 70
     0
  9
$REGENMODE
 70
     1
  9
$FILLMODE
 70
     1
  9
$QTEXTMODE
 70
     0
  9
$MIRRTEXT
 70
     0
  9
$DRAGMODE
 70
     2
  9
$LTSCALE
 40
1.0
  9
$OSMODE
 70
   353
  9
$ATTMODE
 70
     1
  9
$TEXTSIZE
 40
2.5
  9
$TRACEWID
 40
1.0
  9
$TEXTSTYLE
  7
STANDARD
  9
$CLAYER
  8
0
  9
$CELTYPE
  6
BYLAYER
  9
$CECOLOR
 62
   256
  9
$DIMSCALE
 40
1.0
  9
$DIMASZ
 40
2.5
  9
$DIMEXO
 40
0.625
  9
$DIMDLI
 40
3.75
  9
$DIMRND
 40
0.0
  9
$DIMDLE
 40
0.0
  9
$DIMEXE
 40
1.25
  9
$DIMTP
 40
0.0
  9
$DIMTM
 40
0.0
  9
$DIMTXT
 40
2.5
  9
$DIMCEN
 40
2.5
  9
$DIMTSZ
 40
0.0
  9
$DIMTOL
 70
     0
  9
$DIMLIM
 70
     0
  9
$DIMTIH
 70
     0
  9
$DIMTOH
 70
     0
  9
$DIMSE1
 70
     0
  9
$DIMSE2
 70
     0
  9
$DIMTAD
 70
     1
  9
$DIMZIN
 70
     8
  9
$DIMBLK
  1

  9
$DIMASO
 70
     1
  9
$DIMSHO
 70
     1
  9
$DIMPOST
  1

  9
$DIMAPOST
  1

  9
$DIMALT
 70
     0
  9
$DIMALTD
 70
     3
  9
$DIMALTF
 40
0.03937007874016
  9
$DIMLFAC
 40
1.0
  9
$DIMTOFL
 70
     1
  9
$DIMTVP
 40
0.0
  9
$DIMTIX
 70
     0
  9
$DIMSOXD
 70
     0
  9
$DIMSAH
 70
     0
  9
$DIMBLK1
  1

  9
$DIMBLK2
  1

  9
$DIMSTYLE
  2
ISO-25
  9
$DIMCLRD
 70
     0
  9
$DIMCLRE
 70
     0
  9
$DIMCLRT
 70
     0
  9
$DIMTFAC
 40
1.0
  9
$DIMGAP
 40
0.625
  9
$LUNITS
 70
     2
  9
$LUPREC
 70
     4
  9
$SKETCHINC
 40
1.0
  9
$FILLETRAD
 40
0.0
  9
$AUNITS
 70
     0
  9
$AUPREC
 70
     0
  9
$MENU
  1
.
  9
$ELEVATION
 40
0.0
  9
$PELEVATION
 40
0.0
  9
$THICKNESS
 40
0.0
  9
$LIMCHECK
 70
     0
  9
$BLIPMODE
 70
     0
  9
$CHAMFERA
 40
0.0
  9
$CHAMFERB
 40
0.0
  9
$SKPOLY
 70
     0
  9
$TDCREATE
 40
2460255.41434027813375
  9
$TDUPDATE
 40
2460255.4592245370149612
  9
$TDINDWG
 40
0.0448842593
  9
$TDUSRTIMER
 40
0.0448842593
  9
$USRTIMER
 70
     1
  9
$ANGBASE
 50
0.0
  9
$ANGDIR
 70
     0
  9
$PDMODE
 70
     0
  9
$PDSIZE
 40
0.0
  9
$PLINEWID
 40
0.0
  9
$COORDS
 70
     1
  9
$SPLFRAME
 70
     0
  9
$SPLINETYPE
 70
     6
  9
$SPLINESEGS
 70
     8
  9
$ATTDIA
 70
     1
  9
$ATTREQ
 70
     1
  9
$HANDLING
 70
     1
  9
$HANDSEED
  5
67E
  9
$SURFTAB1
 70
     6
  9
$SURFTAB2
 70
     6
  9
$SURFTYPE
 70
     6
  9
$SURFU
 70
     6
  9
$SURFV
 70
     6
  9
$UCSNAME
  2

  9
$UCSORG
 10
0.0
 20
0.0
 30
0.0
  9
$UCSXDIR
 10
1.0
 20
0.0
 30
0.0
  9
$UCSYDIR
 10
0.0
 20
1.0
 30
0.0
  9
$PUCSNAME
  2

  9
$PUCSORG
 10
0.0
 20
0.0
 30
0.0
  9
$PUCSXDIR
 10
1.0
 20
0.0
 30
0.0
  9
$PUCSYDIR
 10
0.0
 20
1.0
 30
0.0
  9
$USERI1
 70
     0
  9
$USERI2
 70
     0
  9
$USERI3
 70
     0
  9
$USERI4
 70
     0
  9
$USERI5
 70
     0
  9
$USERR1
 40
0.0
  9
$USERR2
 40
0.0
  9
$USERR3
 40
0.0
  9
$USERR4
 40
0.0
  9
$USERR5
 40
0.0
  9
$WORLDVIEW
 70
     1
  9
$SHADEDGE
 70
     3
  9
$SHADEDIF
 70
    70
  9
$TILEMODE
 70
     1
  9
$MAXACTVP
 70
    64
  9
$PLIMCHECK
 70
     0
  9
$PEXTMIN
 10
0.0
 20
0.0
 30
0.0
  9
$PEXTMAX
 10
0.0
 20
0.0
 30
0.0
  9
$PLIMMIN
 10
0.0
 20
0.0
  9
$PLIMMAX
 10
12.0
 20
9.0
  9
$UNITMODE
 70
     0
  9
$VISRETAIN
 70
     1
  9
$PLINEGEN
 70
     0
  9
$PSLTSCALE
 70
     1
  0
ENDSEC
  0
SECTION
  2
TABLES
  0
TABLE
  2
VPORT
 70
     1
  0
VPORT
  2
*ACTIVE
 70
     0
 10
0.0
 20
0.0
 11
1.0
 21
1.0
 12
45.8457657342311222
 22
49.7547716619901621
 13
0.0
 23
0.0
 14
10.0
 24
10.0
 15
10.0
 25
10.0
 16
0.0
 26
0.0
 36
1.0
 17
0.0
 27
0.0
 37
0.0
 40
135.4126176454500978
 41
2.2252042007001158
 42
50.0
 43
0.0
 44
0.0
 50
0.0
 51
0.0
 71
     0
 72
  1000
 73
     1
 74
     3
 75
     0
 76
     1
 77
     0
 78
     0
  0
ENDTAB
  0
TABLE
  2
LTYPE
 70
     3
  0
LTYPE
  2
CONTINUOUS
 70
     0
  3
Solid line
 72
    65
 73
     0
 40
0.0
  0
LTYPE
  2
CENTERX2
 70
     0
  3
Center (2x) ________  __  ________  __  _____
 72
    65
 73
     4
 40
20.3200000000000003
 49
12.6999999999999993
 49
-2.54
 49
2.54
 49
-2.54
  0
ENDTAB
  0
TABLE
  2
LAYER
 70
     3
  0
LAYER
  2
0
 70
     0
 62
     7
  6
CONTINUOUS
  0
LAYER
  2
CONTORNO
 70
     0
 62
     7
  6
CONTINUOUS
  0
LAYER
  2
DEFPOINTS
 70
     0
 62
     7
  6
CONTINUOUS
  0
ENDTAB
  0
TABLE
  2
STYLE
 70
     3
  0
STYLE
  2
STANDARD
 70
     0
 40
0.0
 41
1.0
 50
0.0
 71
     0
 42
2.5
  3
txt
  4

  0
STYLE
  2
ANNOTATIVE
 70
     0
 40
0.0
 41
1.0
 50
0.0
 71
     0
 42
2.5
  3
txt
  4

  0
STYLE
  2
SLDTEXTSTYLE1
 70
     0
 40
0.0
 41
0.75
 50
0.0
 71
     0
 42
16.93333333333333
  3
TXT
  4

  0
ENDTAB
  0
TABLE
  2
VIEW
 70
     0
  0
ENDTAB
  0
TABLE
  2
UCS
 70
     0
  0
ENDTAB
  0
TABLE
  2
APPID
 70
     9
  0
APPID
  2
ACAD
 70
     0
  0
APPID
  2
ACAD_PSEXT
 70
     0
  0
APPID
  2
ACADANNOPO
 70
     0
  0
APPID
  2
ACADANNOTATIVE
 70
     0
  0
APPID
  2
ACAD_DSTYLE_DIMJAG
 70
     0
  0
APPID
  2
ACAD_DSTYLE_DIMTALN
 70
     0
  0
APPID
  2
ACAD_MLEADERVER
 70
     0
  0
APPID
  2
ACAD_NAV_VCDISPLAY
 70
     0
  0
APPID
  2
ACAD_EXEMPT_FROM_CAD_STANDARDS
 70
     0
  0
ENDTAB
  0
TABLE
  2
DIMSTYLE
 70
     7
  0
DIMSTYLE
  2
STANDARD
 70
     0
  3

  4

  5

  6

  7

 40
1.0
 41
0.18
 42
0.0625
 43
0.38
 44
0.18
 45
0.0
 46
0.0
 47
0.0
 48
0.0
140
0.18
141
0.09
142
0.0
143
25.3999999999999986
144
1.0
145
0.0
146
1.0
147
0.09
 71
     0
 72
     0
 73
     1
 74
     1
 75
     0
 76
     0
 77
     0
 78
     0
170
     0
171
     2
172
     0
173
     0
174
     0
175
     0
176
     0
177
     0
178
     0
  0
DIMSTYLE
  2
ANNOTATIVE
 70
     0
  3

  4

  5

  6

  7

 40
0.0
 41
2.5
 42
0.625
 43
3.75
 44
1.25
 45
0.0
 46
0.0
 47
0.0
 48
0.0
140
2.5
141
2.5
142
0.0
143
0.03937007874016
144
1.0
145
0.0
146
1.0
147
0.625
 71
     0
 72
     0
 73
     0
 74
     0
 75
     0
 76
     0
 77
     1
 78
     8
170
     0
171
     3
172
     1
173
     0
174
     0
175
     0
176
     0
177
     0
178
     0
  0
DIMSTYLE
  2
ISO-25
 70
     0
  3

  4

  5

  6

  7

 40
1.0
 41
2.5
 42
0.625
 43
3.75
 44
1.25
 45
0.0
 46
0.0
 47
0.0
 48
0.0
140
2.5
141
2.5
142
0.0
143
0.03937007874016
144
1.0
145
0.0
146
1.0
147
0.625
 71
     0
 72
     0
 73
     0
 74
     0
 75
     0
 76
     0
 77
     1
 78
     8
170
     0
171
     3
172
     1
173
     0
174
     0
175
     0
176
     0
177
     0
178
     0
  0
DIMSTYLE
  2
SLDDIMSTYLE0
 70
     0
  3

  4

  5

  6
NONE
  7
NONE
 40
1.0
 41
13.2080000000000002
 42
0.0625
 43
0.38
 44
0.0
 45
0.000000001
 46
0.0
 47
0.0
 48
0.0
140
12.6999999999999993
141
0.09
142
0.0
143
25.3999999999999986
144
1.0
145
0.0
146
1.0
147
3.1749999999999989
 71
     0
 72
     0
 73
     1
 74
     1
 75
     0
 76
     0
 77
     0
 78
     8
170
     0
171
     2
172
     0
173
     1
174
     0
175
     0
176
     0
177
     0
178
     0
  0
DIMSTYLE
  2
SLDDIMSTYLE2
 70
     0
  3

  4

  5

  6

  7

 40
1.0
 41
13.2080000000000002
 42
0.0625
 43
0.38
 44
0.0
 45
0.000000001
 46
0.0
 47
0.0
 48
0.0
140
12.6999999999999993
141
0.09
142
0.0
143
25.3999999999999986
144
1.0
145
0.0
146
1.0
147
3.1749999999999989
 71
     0
 72
     0
 73
     0
 74
     0
 75
     0
 76
     0
 77
     1
 78
    12
170
     0
171
     2
172
     1
173
     1
174
     0
175
     0
176
     0
177
     0
178
     0
  0
DIMSTYLE
  2
SLDDIMSTYLE3
 70
     0
  3

  4

  5

  6

  7

 40
1.0
 41
13.2080000000000002
 42
0.0625
 43
0.38
 44
0.0
 45
0.000000001
 46
0.0
 47
0.0
 48
0.0
140
12.6999999999999993
141
0.09
142
0.0
143
25.3999999999999986
144
1.0
145
0.0
146
1.0
147
3.1749999999999989
 71
     0
 72
     0
 73
     0
 74
     0
 75
     0
 76
     0
 77
     1
 78
    12
170
     0
171
     2
172
     0
173
     1
174
     0
175
     0
176
     0
177
     0
178
     0
  0
ENDTAB
  0
ENDSEC
  0
SECTION
  2
BLOCKS
  0
BLOCK
  8
0
  2
$MODEL_SPACE
 70
     0
 10
0.0
 20
0.0
 30
0.0
  3
$MODEL_SPACE
  1

  0
ENDBLK
  5
21
  8
0
  0
BLOCK
 67
     1
  8
0
  2
$PAPER_SPACE
 70
     0
 10
0.0
 20
0.0
 30
0.0
  3
$PAPER_SPACE
  1

  0
ENDBLK
  5
D5
 67
     1
  8
0
  0
BLOCK
  8
0
  2
_NONE
 70
     0
 10
0.0
 20
0.0
 30
0.0
  3
_NONE
  1

  0
ENDBLK
  5
297
  8
0
  0
BLOCK
  8
0
  2
_D
 70
     0
 10
0.0
 20
0.0
 30
0.0
  3
_D
  1

  0
LINE
  5
29A
  8
CONTORNO
 10
1410.4267339747038932
 20
774.8495432078343583
 30
0.0
 11
1410.4267339747050301
 21
730.3525342988489228
 31
0.0
  0
INSERT
  5
29B
  8
0
  2
*U15
 10
0.0
 20
0.0
 30
0.0
  0
ENDBLK
  5
29C
  8
0
  0
BLOCK
  8
0
  2
_D_11
 70
     0
 10
0.0
 20
0.0
 30
0.0
  3
_D_11
  1

  0
SOLID
  5
29F
  8
CONTORNO
 10
1438.8188192109180363
 20
831.8495432078345857
 30
0.0
 11
1440.8508192109179618
 21
845.0575432078345557
 31
0.0
 12
1436.7868192109181109
 22
845.0575432078345557
 32
0.0
 13
1436.7868192109181109
 23
845.0575432078345557
 33
0.0
  0
SOLID
  5
2A0
  8
CONTORNO
 10
1438.8188192109180363
 20
800.8495432078345857
 30
0.0
 11
1436.7868192109181109
 21
787.6415432078346157
 31
0.0
 12
1440.8508192109179618
 22
787.6415432078346157
 32
0.0
 13
1440.8508192109179618
 23
787.6415432078346157
 33
0.0
  0
LINE
  5
2A1
  8
CONTORNO
 10
1391.1767339747038932
 20
831.8495432078342446
 30
0.0
 11
1442.8188192109180363
 21
831.8495432078345857
 31
0.0
  0
LINE
  5
2A2
  8
CONTORNO
 10
1391.1767339747038932
 20
800.8495432078343583
 30
0.0
 11
1442.8188192109180363
 21
800.8495432078345857
 31
0.0
  0
LINE
  5
2A3
  8
CONTORNO
 10
1438.8188192109180363
 20
831.8495432078345857
 30
0.0
 11
1438.8188192109180363
 21
857.249543207834563
 31
0.0
  0
LINE
  5
2A4
  8
CONTORNO
 10
1438.8188192109180363
 20
831.8495432078345857
 30
0.0
 11
1438.8188192109180363
 21
800.8495432078345857
 31
0.0
  0
LINE
  5
2A5
  8
CONTORNO
 10
1438.8188192109180363
 20
800.8495432078345857
 30
0.0
 11
1438.8188192109180363
 21
775.4495432078344948
 31
0.0
  0
INSERT
  5
2A6
  8
0
  2
*U16
 10
0.0
 20
0.0
 30
0.0
  0
ENDBLK
  5
2A7
  8
0
  0
BLOCK
  8
0
  2
_D_12
 70
     0
 10
0.0
 20
0.0
 30
0.0
  3
_D_12
  1

  0
SOLID
  5
2AA
  8
CONTORNO
 10
1461.2749895801850926
 20
783.8495432078345857
 30
0.0
 11
1463.306989580185018
 21
797.0575432078345557
 31
0.0
 12
1459.2429895801849398
 22
797.0575432078345557
 32
0.0
 13
1459.2429895801849398
 23
797.0575432078345557
 33
0.0
  0
SOLID
  5
2AB
  8
CONTORNO
 10
1461.2749895801850926
 20
848.8495432078345857
 30
0.0
 11
1459.2429895801849398
 21
835.6415432078346157
 31
0.0
 12
1463.306989580185018
 22
835.6415432078346157
 32
0.0
 13
1463.306989580185018
 23
835.6415432078346157
 33
0.0
  0
LINE
  5
2AC
  8
CONTORNO
 10
1389.4267339747038932
 20
783.8495432078342446
 30
0.0
 11
1465.2749895801850926
 21
783.8495432078345857
 31
0.0
  0
LINE
  5
2AD
  8
CONTORNO
 10
1389.4267339747038932
 20
848.8495432078342446
 30
0.0
 11
1465.2749895801850926
 21
848.8495432078345857
 31
0.0
  0
LINE
  5
2AE
  8
CONTORNO
 10
1461.2749895801850926
 20
783.8495432078345857
 30
0.0
 11
1461.2749895801850926
 21
848.8495432078345857
 31
0.0
  0
INSERT
  5
2AF
  8
0
  2
*U17
 10
0.0
 20
0.0
 30
0.0
  0
ENDBLK
  5
2B0
  8
0
  0
BLOCK
  8
0
  2
SW_CENTERMARKSYMBOL_0
 70
     0
 10
0.0
 20
0.0
 30
0.0
  3
SW_CENTERMARKSYMBOL_0
  1

  0
LINE
  5
2B3
  8
CONTORNO
 62
     0
 10
0.0
 20
0.0
 30
0.0
 11
-2.4999999999999458
 21
0.0
 31
0.0
  0
LINE
  5
2B4
  8
CONTORNO
 62
     0
 10
0.0
 20
0.0
 30
0.0
 11
0.0
 21
-2.5000000000000568
 31
0.0
  0
LINE
  5
2B5
  8
CONTORNO
 62
     0
 10
0.0
 20
0.0
 30
0.0
 11
2.4999999999999458
 21
0.0
 31
0.0
  0
LINE
  5
2B6
  8
CONTORNO
 62
     0
 10
0.0
 20
0.0
 30
0.0
 11
0.0
 21
2.4999999999999458
 31
0.0
  0
LINE
  5
2B7
  8
CONTORNO
 62
     0
 10
0.0
 20
-5.0000000000000044
 30
0.0
 11
0.0
 21
-6.7500000000000329
 31
0.0
  0
LINE
  5
2B8
  8
CONTORNO
 62
     0
 10
0.0
 20
5.0000000000000044
 30
0.0
 11
0.0
 21
6.7499999999999218
 31
0.0
  0
LINE
  5
2B9
  8
CONTORNO
 62
     0
 10
148.499999999999801
 20
0.0000000000004441
 30
0.0
 11
145.9999999999998863
 21
0.0000000000004441
 31
0.0
  0
LINE
  5
2BA
  8
CONTORNO
 62
     0
 10
148.499999999999801
 20
0.0000000000004441
 30
0.0
 11
148.499999999999801
 21
-2.4999999999995022
 31
0.0
  0
LINE
  5
2BB
  8
CONTORNO
 62
     0
 10
148.499999999999801
 20
0.0000000000004441
 30
0.0
 11
150.999999999999801
 21
0.0000000000004441
 31
0.0
  0
LINE
  5
2BC
  8
CONTORNO
 62
     0
 10
148.499999999999801
 20
0.0000000000004441
 30
0.0
 11
148.499999999999801
 21
2.5000000000005009
 31
0.0
  0
LINE
  5
2BD
  8
CONTORNO
 62
     0
 10
148.499999999999801
 20
-4.9999999999995604
 30
0.0
 11
148.499999999999801
 21
-6.7499999999994778
 31
0.0
  0
LINE
  5
2BE
  8
CONTORNO
 62
     0
 10
153.4999999999996874
 20
0.0000000000004441
 30
0.0
 11
155.2499999999996021
 21
0.0000000000005551
 31
0.0
  0
LINE
  5
2BF
  8
CONTORNO
 62
     0
 10
148.499999999999801
 20
5.0000000000004476
 30
0.0
 11
148.499999999999801
 21
6.750000000000477
 31
0.0
  0
LINE
  5
2C0
  8
CONTORNO
 62
     0
 10
-148.5000000000001137
 20
-0.0000000000005551
 30
0.0
 11
-151.0
 21
-0.0000000000005551
 31
0.0
  0
LINE
  5
2C1
  8
CONTORNO
 62
     0
 10
-148.5000000000001137
 20
-0.0000000000005551
 30
0.0
 11
-148.5000000000001137
 21
-2.5000000000005009
 31
0.0
  0
LINE
  5
2C2
  8
CONTORNO
 62
     0
 10
-148.5000000000001137
 20
-0.0000000000005551
 30
0.0
 11
-146.0000000000001137
 21
-0.0000000000005551
 31
0.0
  0
LINE
  5
2C3
  8
CONTORNO
 62
     0
 10
-148.5000000000001137
 20
-0.0000000000005551
 30
0.0
 11
-148.5000000000001137
 21
2.4999999999993912
 31
0.0
  0
LINE
  5
2C4
  8
CONTORNO
 62
     0
 10
-148.5000000000001137
 20
-5.0000000000005587
 30
0.0
 11
-148.5000000000001137
 21
-6.750000000000588
 31
0.0
  0
LINE
  5
2C5
  8
CONTORNO
 62
     0
 10
-148.5000000000001137
 20
4.9999999999994493
 30
0.0
 11
-148.5000000000001137
 21
6.7499999999993667
 31
0.0
  0
LINE
  5
2C6
  8
CONTORNO
 62
     0
 10
-297.0000000000002274
 20
-0.0000000000011102
 30
0.0
 11
-299.5000000000001137
 21
-0.0000000000011102
 31
0.0
  0
LINE
  5
2C7
  8
CONTORNO
 62
     0
 10
-297.0000000000002274
 20
-0.0000000000011102
 30
0.0
 11
-297.0000000000002274
 21
-2.500000000001056
 31
0.0
  0
LINE
  5
2C8
  8
CONTORNO
 62
     0
 10
-297.0000000000002274
 20
-0.0000000000011102
 30
0.0
 11
-294.5000000000001137
 21
-0.0000000000011102
 31
0.0
  0
LINE
  5
2C9
  8
CONTORNO
 62
     0
 10
-297.0000000000002274
 20
-0.0000000000011102
 30
0.0
 11
-297.0000000000002274
 21
2.4999999999989471
 31
0.0
  0
LINE
  5
2CA
  8
CONTORNO
 62
     0
 10
-297.0
 20
-5.0000000000011138
 30
0.0
 11
-297.0
 21
-6.7500000000010321
 31
0.0
  0
LINE
  5
2CB
  8
CONTORNO
 62
     0
 10
-297.0000000000002274
 20
4.9999999999988942
 30
0.0
 11
-297.0000000000002274
 21
6.7499999999989226
 31
0.0
  0
LINE
  5
2CC
  8
CONTORNO
 62
     0
 10
-445.5
 20
-0.0000000000015543
 30
0.0
 11
-448.0
 21
-0.0000000000015543
 31
0.0
  0
LINE
  5
2CD
  8
CONTORNO
 62
     0
 10
-445.5
 20
-0.0000000000015543
 30
0.0
 11
-445.5
 21
-2.500000000001612
 31
0.0
  0
LINE
  5
2CE
  8
CONTORNO
 62
     0
 10
-445.5
 20
-0.0000000000015543
 30
0.0
 11
-443.0
 21
-0.0000000000015543
 31
0.0
  0
LINE
  5
2CF
  8
CONTORNO
 62
     0
 10
-445.5
 20
-0.0000000000015543
 30
0.0
 11
-445.5
 21
2.499999999998392
 31
0.0
  0
LINE
  5
2D0
  8
CONTORNO
 62
     0
 10
-445.5
 20
-5.0000000000015579
 30
0.0
 11
-445.5
 21
-6.7500000000015881
 31
0.0
  0
LINE
  5
2D1
  8
CONTORNO
 62
     0
 10
-445.5
 20
4.9999999999984501
 30
0.0
 11
-445.5
 21
6.7499999999983684
 31
0.0
  0
LINE
  5
2D2
  8
CONTORNO
 62
     0
 10
-594.0000000000001137
 20
-0.0000000000021094
 30
0.0
 11
-596.4999999999998863
 21
-0.0000000000021094
 31
0.0
  0
LINE
  5
2D3
  8
CONTORNO
 62
     0
 10
-594.0000000000001137
 20
-0.0000000000021094
 30
0.0
 11
-594.0000000000001137
 21
-2.5000000000020561
 31
0.0
  0
LINE
  5
2D4
  8
CONTORNO
 62
     0
 10
-594.0000000000001137
 20
-0.0000000000021094
 30
0.0
 11
-591.5
 21
-0.0000000000021094
 31
0.0
  0
LINE
  5
2D5
  8
CONTORNO
 62
     0
 10
-594.0000000000001137
 20
-0.0000000000021094
 30
0.0
 11
-594.0000000000001137
 21
2.4999999999978368
 31
0.0
  0
LINE
  5
2D6
  8
CONTORNO
 62
     0
 10
-594.0
 20
-5.000000000002113
 30
0.0
 11
-594.0
 21
-6.7500000000021432
 31
0.0
  0
LINE
  5
2D7
  8
CONTORNO
 62
     0
 10
-594.0000000000001137
 20
4.999999999997895
 30
0.0
 11
-594.0000000000001137
 21
6.7499999999978133
 31
0.0
  0
LINE
  5
2D8
  8
CONTORNO
 62
     0
 10
-742.5000000000001137
 20
-0.0000000000026645
 30
0.0
 11
-745.0000000000001137
 21
-0.0000000000026645
 31
0.0
  0
LINE
  5
2D9
  8
CONTORNO
 62
     0
 10
-742.5000000000001137
 20
-0.0000000000026645
 30
0.0
 11
-742.5000000000001137
 21
-2.5000000000026108
 31
0.0
  0
LINE
  5
2DA
  8
CONTORNO
 62
     0
 10
-742.5000000000001137
 20
-0.0000000000026645
 30
0.0
 11
-740.0000000000001137
 21
-0.0000000000026645
 31
0.0
  0
LINE
  5
2DB
  8
CONTORNO
 62
     0
 10
-742.5000000000001137
 20
-0.0000000000026645
 30
0.0
 11
-742.5000000000001137
 21
2.4999999999973932
 31
0.0
  0
LINE
  5
2DC
  8
CONTORNO
 62
     0
 10
-742.5000000000001137
 20
-5.0000000000026681
 30
0.0
 11
-742.5000000000001137
 21
-6.7500000000025873
 31
0.0
  0
LINE
  5
2DD
  8
CONTORNO
 62
     0
 10
-742.5000000000001137
 20
4.999999999997339
 30
0.0
 11
-742.5000000000001137
 21
6.7499999999973692
 31
0.0
  0
LINE
  5
2DE
  8
CONTORNO
 62
     0
 10
-891.0
 20
-0.0000000000031086
 30
0.0
 11
-893.5
 21
-0.0000000000031086
 31
0.0
  0
LINE
  5
2DF
  8
CONTORNO
 62
     0
 10
-891.0
 20
-0.0000000000031086
 30
0.0
 11
-891.0
 21
-2.5000000000031659
 31
0.0
  0
LINE
  5
2E0
  8
CONTORNO
 62
     0
 10
-891.0
 20
-0.0000000000031086
 30
0.0
 11
-888.4999999999998863
 21
-0.0000000000031086
 31
0.0
  0
LINE
  5
2E1
  8
CONTORNO
 62
     0
 10
-891.0
 20
-0.0000000000031086
 30
0.0
 11
-891.0
 21
2.4999999999968381
 31
0.0
  0
LINE
  5
2E2
  8
CONTORNO
 62
     0
 10
-891.0
 20
-5.0000000000031131
 30
0.0
 11
-891.0
 21
-6.7500000000031424
 31
0.0
  0
LINE
  5
2E3
  8
CONTORNO
 62
     0
 10
-891.0
 20
4.9999999999968949
 30
0.0
 11
-891.0
 21
6.7499999999968141
 31
0.0
  0
LINE
  5
2E4
  8
CONTORNO
 62
     0
 10
-1039.5
 20
-0.0000000000036637
 30
0.0
 11
-1042.0
 21
-0.0000000000036637
 31
0.0
  0
LINE
  5
2E5
  8
CONTORNO
 62
     0
 10
-1039.5
 20
-0.0000000000036637
 30
0.0
 11
-1039.5
 21
-2.500000000003721
 31
0.0
  0
LINE
  5
2E6
  8
CONTORNO
 62
     0
 10
-1039.5
 20
-0.0000000000036637
 30
0.0
 11
-1037.0
 21
-0.0000000000036637
 31
0.0
  0
LINE
  5
2E7
  8
CONTORNO
 62
     0
 10
-1039.5
 20
-0.0000000000036637
 30
0.0
 11
-1039.5
 21
2.4999999999962821
 31
0.0
  0
LINE
  5
2E8
  8
CONTORNO
 62
     0
 10
-1044.5
 20
-0.0000000000036637
 30
0.0
 11
-1046.25
 21
-0.0000000000036637
 31
0.0
  0
LINE
  5
2E9
  8
CONTORNO
 62
     0
 10
-1039.5
 20
-5.0000000000036682
 30
0.0
 11
-1039.5
 21
-6.7500000000036966
 31
0.0
  0
LINE
  5
2EA
  8
CONTORNO
 62
     0
 10
-1039.5
 20
4.9999999999963398
 30
0.0
 11
-1039.5
 21
6.7499999999962581
 31
0.0
  0
LINE
  5
2EB
  8
CONTORNO
 62
     0
 10
143.5
 20
0.0000000000004441
 30
0.0
 11
4.9999999999998934
 21
0.0
 31
0.0
  0
LINE
  5
2EC
  8
CONTORNO
 62
     0
 10
-5.0000000000001146
 20
-0.000000000000111
 30
0.0
 11
-143.5
 21
-0.0000000000005551
 31
0.0
  0
LINE
  5
2ED
  8
CONTORNO
 62
     0
 10
-153.500000000000199
 20
-0.0000000000005551
 30
0.0
 11
-292.0000000000001137
 21
-0.0000000000011102
 31
0.0
  0
LINE
  5
2EE
  8
CONTORNO
 62
     0
 10
-302.0
 20
-0.0000000000011102
 30
0.0
 11
-440.5000000000001137
 21
-0.0000000000015543
 31
0.0
  0
LINE
  5
2EF
  8
CONTORNO
 62
     0
 10
-450.4999999999998863
 20
-0.0000000000016653
 30
0.0
 11
-589.0
 21
-0.0000000000021094
 31
0.0
  0
LINE
  5
2F0
  8
CONTORNO
 62
     0
 10
-599.0
 20
-0.0000000000021094
 30
0.0
 11
-737.5
 21
-0.0000000000026645
 31
0.0
  0
LINE
  5
2F1
  8
CONTORNO
 62
     0
 10
-747.5
 20
-0.0000000000026645
 30
0.0
 11
-885.9999999999998863
 21
-0.0000000000031086
 31
0.0
  0
LINE
  5
2F2
  8
CONTORNO
 62
     0
 10
-895.9999999999998863
 20
-0.0000000000032196
 30
0.0
 11
-1034.5
 21
-0.0000000000036637
 31
0.0
  0
ENDBLK
  5
2F3
  8
0
  0
BLOCK
  8
0
  2
SW_CENTERMARKSYMBOL_1
 70
     0
 10
0.0
 20
0.0
 30
0.0
  3
SW_CENTERMARKSYMBOL_1
  1

  0
LINE
  5
2F6
  8
CONTORNO
 62
     0
 10
0.0
 20
0.0
 30
0.0
 11
-2.4999999999999458
 21
0.0
 31
0.0
  0
LINE
  5
2F7
  8
CONTORNO
 62
     0
 10
0.0
 20
0.0
 30
0.0
 11
0.0
 21
-2.4999999999999458
 31
0.0
  0
LINE
  5
2F8
  8
CONTORNO
 62
     0
 10
0.0
 20
0.0
 30
0.0
 11
2.5000000000001679
 21
0.0
 31
0.0
  0
LINE
  5
2F9
  8
CONTORNO
 62
     0
 10
0.0
 20
0.0
 30
0.0
 11
0.0
 21
2.5000000000000568
 31
0.0
  0
LINE
  5
2FA
  8
CONTORNO
 62
     0
 10
0.0
 20
-5.0000000000000044
 30
0.0
 11
0.0
 21
-6.7499999999999218
 31
0.0
  0
LINE
  5
2FB
  8
CONTORNO
 62
     0
 10
0.0
 20
5.0000000000000044
 30
0.0
 11
0.0
 21
6.7500000000000329
 31
0.0
  0
LINE
  5
2FC
  8
CONTORNO
 62
     0
 10
148.5000000000001137
 20
0.0000000000005551
 30
0.0
 11
146.0000000000001137
 21
0.0000000000005551
 31
0.0
  0
LINE
  5
2FD
  8
CONTORNO
 62
     0
 10
148.5000000000001137
 20
0.0000000000005551
 30
0.0
 11
148.5000000000001137
 21
-2.4999999999993912
 31
0.0
  0
LINE
  5
2FE
  8
CONTORNO
 62
     0
 10
148.5000000000001137
 20
0.0000000000005551
 30
0.0
 11
151.0
 21
0.0000000000005551
 31
0.0
  0
LINE
  5
2FF
  8
CONTORNO
 62
     0
 10
148.5000000000001137
 20
0.0000000000005551
 30
0.0
 11
148.5000000000001137
 21
2.500000000000612
 31
0.0
  0
LINE
  5
300
  8
CONTORNO
 62
     0
 10
148.5000000000001137
 20
-4.9999999999994493
 30
0.0
 11
148.5000000000001137
 21
-6.7499999999993667
 31
0.0
  0
LINE
  5
301
  8
CONTORNO
 62
     0
 10
153.4999999999998863
 20
0.0000000000005551
 30
0.0
 11
155.2499999999998863
 21
0.0000000000005551
 31
0.0
  0
LINE
  5
302
  8
CONTORNO
 62
     0
 10
148.5000000000001137
 20
5.0000000000005587
 30
0.0
 11
148.5000000000001137
 21
6.750000000000588
 31
0.0
  0
LINE
  5
303
  8
CONTORNO
 62
     0
 10
-148.5000000000001137
 20
-0.0000000000004441
 30
0.0
 11
-151.0
 21
-0.0000000000004441
 31
0.0
  0
LINE
  5
304
  8
CONTORNO
 62
     0
 10
-148.5000000000001137
 20
-0.0000000000004441
 30
0.0
 11
-148.5000000000001137
 21
-2.5000000000005009
 31
0.0
  0
LINE
  5
305
  8
CONTORNO
 62
     0
 10
-148.5000000000001137
 20
-0.0000000000004441
 30
0.0
 11
-145.9999999999998863
 21
-0.0000000000004441
 31
0.0
  0
LINE
  5
306
  8
CONTORNO
 62
     0
 10
-148.5000000000001137
 20
-0.0000000000004441
 30
0.0
 11
-148.5000000000001137
 21
2.4999999999995022
 31
0.0
  0
LINE
  5
307
  8
CONTORNO
 62
     0
 10
-148.5000000000001137
 20
-5.0000000000004476
 30
0.0
 11
-148.5000000000001137
 21
-6.750000000000477
 31
0.0
  0
LINE
  5
308
  8
CONTORNO
 62
     0
 10
-148.5000000000001137
 20
4.9999999999995604
 30
0.0
 11
-148.5000000000001137
 21
6.7499999999994778
 31
0.0
  0
LINE
  5
309
  8
CONTORNO
 62
     0
 10
-296.9999999999998863
 20
-0.0000000000009992
 30
0.0
 11
-299.5
 21
-0.0000000000009992
 31
0.0
  0
LINE
  5
30A
  8
CONTORNO
 62
     0
 10
-296.9999999999998863
 20
-0.0000000000009992
 30
0.0
 11
-296.9999999999998863
 21
-2.500000000000945
 31
0.0
  0
LINE
  5
30B
  8
CONTORNO
 62
     0
 10
-296.9999999999998863
 20
-0.0000000000009992
 30
0.0
 11
-294.5
 21
-0.0000000000009992
 31
0.0
  0
LINE
  5
30C
  8
CONTORNO
 62
     0
 10
-296.9999999999998863
 20
-0.0000000000009992
 30
0.0
 11
-296.9999999999998863
 21
2.4999999999989471
 31
0.0
  0
LINE
  5
30D
  8
CONTORNO
 62
     0
 10
-296.9999999999998863
 20
-5.0000000000010028
 30
0.0
 11
-296.9999999999998863
 21
-6.750000000000921
 31
0.0
  0
LINE
  5
30E
  8
CONTORNO
 62
     0
 10
-297.0
 20
4.9999999999990052
 30
0.0
 11
-297.0
 21
6.7499999999990337
 31
0.0
  0
LINE
  5
30F
  8
CONTORNO
 62
     0
 10
-445.4999999999998863
 20
-0.0000000000015543
 30
0.0
 11
-447.9999999999998863
 21
-0.0000000000015543
 31
0.0
  0
LINE
  5
310
  8
CONTORNO
 62
     0
 10
-445.4999999999998863
 20
-0.0000000000015543
 30
0.0
 11
-445.4999999999998863
 21
-2.500000000001501
 31
0.0
  0
LINE
  5
311
  8
CONTORNO
 62
     0
 10
-445.4999999999998863
 20
-0.0000000000015543
 30
0.0
 11
-442.9999999999998863
 21
-0.0000000000015543
 31
0.0
  0
LINE
  5
312
  8
CONTORNO
 62
     0
 10
-445.4999999999998863
 20
-0.0000000000015543
 30
0.0
 11
-445.5
 21
2.499999999998503
 31
0.0
  0
LINE
  5
313
  8
CONTORNO
 62
     0
 10
-445.4999999999998863
 20
-5.0000000000015579
 30
0.0
 11
-445.4999999999998863
 21
-6.750000000001477
 31
0.0
  0
LINE
  5
314
  8
CONTORNO
 62
     0
 10
-445.5
 20
4.9999999999984501
 30
0.0
 11
-445.5
 21
6.7499999999984794
 31
0.0
  0
LINE
  5
315
  8
CONTORNO
 62
     0
 10
-593.9999999999997726
 20
-0.0000000000019984
 30
0.0
 11
-596.4999999999997726
 21
-0.0000000000019984
 31
0.0
  0
LINE
  5
316
  8
CONTORNO
 62
     0
 10
-593.9999999999997726
 20
-0.0000000000019984
 30
0.0
 11
-593.9999999999997726
 21
-2.5000000000020561
 31
0.0
  0
LINE
  5
317
  8
CONTORNO
 62
     0
 10
-593.9999999999997726
 20
-0.0000000000019984
 30
0.0
 11
-591.4999999999998863
 21
-0.0000000000019984
 31
0.0
  0
LINE
  5
318
  8
CONTORNO
 62
     0
 10
-593.9999999999997726
 20
-0.0000000000019984
 30
0.0
 11
-593.9999999999997726
 21
2.4999999999979479
 31
0.0
  0
LINE
  5
319
  8
CONTORNO
 62
     0
 10
-593.9999999999997726
 20
-5.000000000002002
 30
0.0
 11
-593.9999999999997726
 21
-6.7500000000020322
 31
0.0
  0
LINE
  5
31A
  8
CONTORNO
 62
     0
 10
-594.0
 20
4.999999999998006
 30
0.0
 11
-594.0
 21
6.7499999999979243
 31
0.0
  0
LINE
  5
31B
  8
CONTORNO
 62
     0
 10
-742.4999999999997726
 20
-0.0000000000025535
 30
0.0
 11
-745.0
 21
-0.0000000000025535
 31
0.0
  0
LINE
  5
31C
  8
CONTORNO
 62
     0
 10
-742.4999999999997726
 20
-0.0000000000025535
 30
0.0
 11
-742.4999999999997726
 21
-2.5000000000024998
 31
0.0
  0
LINE
  5
31D
  8
CONTORNO
 62
     0
 10
-742.4999999999997726
 20
-0.0000000000025535
 30
0.0
 11
-740.0
 21
-0.0000000000025535
 31
0.0
  0
LINE
  5
31E
  8
CONTORNO
 62
     0
 10
-742.4999999999997726
 20
-0.0000000000025535
 30
0.0
 11
-742.4999999999997726
 21
2.4999999999973932
 31
0.0
  0
LINE
  5
31F
  8
CONTORNO
 62
     0
 10
-742.4999999999997726
 20
-5.0000000000025571
 30
0.0
 11
-742.4999999999997726
 21
-6.7500000000024762
 31
0.0
  0
LINE
  5
320
  8
CONTORNO
 62
     0
 10
-742.4999999999997726
 20
4.99999999999745
 30
0.0
 11
-742.4999999999997726
 21
6.7499999999974802
 31
0.0
  0
LINE
  5
321
  8
CONTORNO
 62
     0
 10
-890.9999999999997726
 20
-0.0000000000031086
 30
0.0
 11
-893.4999999999997726
 21
-0.0000000000031086
 31
0.0
  0
LINE
  5
322
  8
CONTORNO
 62
     0
 10
-890.9999999999997726
 20
-0.0000000000031086
 30
0.0
 11
-890.9999999999997726
 21
-2.5000000000030549
 31
0.0
  0
LINE
  5
323
  8
CONTORNO
 62
     0
 10
-890.9999999999997726
 20
-0.0000000000031086
 30
0.0
 11
-888.4999999999998863
 21
-0.0000000000031086
 31
0.0
  0
LINE
  5
324
  8
CONTORNO
 62
     0
 10
-890.9999999999997726
 20
-0.0000000000031086
 30
0.0
 11
-890.9999999999997726
 21
2.4999999999969491
 31
0.0
  0
LINE
  5
325
  8
CONTORNO
 62
     0
 10
-890.9999999999997726
 20
-5.0000000000031131
 30
0.0
 11
-890.9999999999997726
 21
-6.7500000000030314
 31
0.0
  0
LINE
  5
326
  8
CONTORNO
 62
     0
 10
-890.9999999999997726
 20
4.9999999999968949
 30
0.0
 11
-890.9999999999997726
 21
6.7499999999969251
 31
0.0
  0
LINE
  5
327
  8
CONTORNO
 62
     0
 10
-1039.5
 20
-0.0000000000035527
 30
0.0
 11
-1042.0
 21
-0.0000000000035527
 31
0.0
  0
LINE
  5
328
  8
CONTORNO
 62
     0
 10
-1039.5
 20
-0.0000000000035527
 30
0.0
 11
-1039.5
 21
-2.50000000000361
 31
0.0
  0
LINE
  5
329
  8
CONTORNO
 62
     0
 10
-1039.5
 20
-0.0000000000035527
 30
0.0
 11
-1037.0
 21
-0.0000000000035527
 31
0.0
  0
LINE
  5
32A
  8
CONTORNO
 62
     0
 10
-1039.5
 20
-0.0000000000035527
 30
0.0
 11
-1039.5
 21
2.4999999999963931
 31
0.0
  0
LINE
  5
32B
  8
CONTORNO
 62
     0
 10
-1044.5
 20
-0.0000000000035527
 30
0.0
 11
-1046.25
 21
-0.0000000000036637
 31
0.0
  0
LINE
  5
32C
  8
CONTORNO
 62
     0
 10
-1039.5
 20
-5.0000000000035572
 30
0.0
 11
-1039.5
 21
-6.7500000000035856
 31
0.0
  0
LINE
  5
32D
  8
CONTORNO
 62
     0
 10
-1039.5
 20
4.9999999999964508
 30
0.0
 11
-1039.5
 21
6.74999999999637
 31
0.0
  0
LINE
  5
32E
  8
CONTORNO
 62
     0
 10
143.500000000000199
 20
0.0000000000005551
 30
0.0
 11
5.0000000000001146
 21
0.000000000000111
 31
0.0
  0
LINE
  5
32F
  8
CONTORNO
 62
     0
 10
-4.9999999999998934
 20
0.0
 30
0.0
 11
-143.5
 21
-0.0000000000004441
 31
0.0
  0
LINE
  5
330
  8
CONTORNO
 62
     0
 10
-153.4999999999998863
 20
-0.0000000000004441
 30
0.0
 11
-292.0000000000001137
 21
-0.0000000000009992
 31
0.0
  0
LINE
  5
331
  8
CONTORNO
 62
     0
 10
-302.0
 20
-0.0000000000009992
 30
0.0
 11
-440.5
 21
-0.0000000000014433
 31
0.0
  0
LINE
  5
332
  8
CONTORNO
 62
     0
 10
-450.4999999999998863
 20
-0.0000000000015543
 30
0.0
 11
-589.0
 21
-0.0000000000019984
 31
0.0
  0
LINE
  5
333
  8
CONTORNO
 62
     0
 10
-599.0
 20
-0.0000000000019984
 30
0.0
 11
-737.5
 21
-0.0000000000025535
 31
0.0
  0
LINE
  5
334
  8
CONTORNO
 62
     0
 10
-747.5
 20
-0.0000000000025535
 30
0.0
 11
-885.9999999999998863
 21
-0.0000000000029976
 31
0.0
  0
LINE
  5
335
  8
CONTORNO
 62
     0
 10
-895.9999999999998863
 20
-0.0000000000031086
 30
0.0
 11
-1034.5
 21
-0.0000000000035527
 31
0.0
  0
ENDBLK
  5
336
  8
0
  0
BLOCK
  8
0
  2
SW_CENTERMARKSYMBOL_2
 70
     0
 10
0.0
 20
0.0
 30
0.0
  3
SW_CENTERMARKSYMBOL_2
  1

  0
LINE
  5
339
  8
CONTORNO
 62
     0
 10
0.0
 20
0.0
 30
0.0
 11
-2.4999999999999458
 21
0.0
 31
0.0
  0
LINE
  5
33A
  8
CONTORNO
 62
     0
 10
0.0
 20
0.0
 30
0.0
 11
0.0
 21
-2.5000000000000568
 31
0.0
  0
LINE
  5
33B
  8
CONTORNO
 62
     0
 10
0.0
 20
0.0
 30
0.0
 11
2.4999999999999458
 21
0.0
 31
0.0
  0
LINE
  5
33C
  8
CONTORNO
 62
     0
 10
0.0
 20
0.0
 30
0.0
 11
0.0
 21
2.4999999999999458
 31
0.0
  0
LINE
  5
33D
  8
CONTORNO
 62
     0
 10
0.0
 20
-2.5000000000000568
 30
0.0
 11
0.0
 21
-5.0000000000000044
 31
0.0
  0
LINE
  5
33E
  8
CONTORNO
 62
     0
 10
0.0
 20
2.4999999999999458
 30
0.0
 11
0.0
 21
5.0000000000000044
 31
0.0
  0
LINE
  5
33F
  8
CONTORNO
 62
     0
 10
148.499999999999801
 20
0.0000000000004441
 30
0.0
 11
145.9999999999998863
 21
0.0000000000004441
 31
0.0
  0
LINE
  5
340
  8
CONTORNO
 62
     0
 10
148.499999999999801
 20
0.0000000000004441
 30
0.0
 11
148.499999999999801
 21
-2.4999999999995022
 31
0.0
  0
LINE
  5
341
  8
CONTORNO
 62
     0
 10
148.499999999999801
 20
0.0000000000004441
 30
0.0
 11
150.999999999999801
 21
0.0000000000004441
 31
0.0
  0
LINE
  5
342
  8
CONTORNO
 62
     0
 10
148.499999999999801
 20
0.0000000000004441
 30
0.0
 11
148.499999999999801
 21
2.5000000000005009
 31
0.0
  0
LINE
  5
343
  8
CONTORNO
 62
     0
 10
148.499999999999801
 20
-2.4999999999995022
 30
0.0
 11
148.499999999999801
 21
-4.9999999999995604
 31
0.0
  0
LINE
  5
344
  8
CONTORNO
 62
     0
 10
150.999999999999801
 20
0.0000000000004441
 30
0.0
 11
153.4999999999998863
 21
0.0000000000005551
 31
0.0
  0
LINE
  5
345
  8
CONTORNO
 62
     0
 10
148.499999999999801
 20
2.5000000000005009
 30
0.0
 11
148.499999999999801
 21
5.0000000000004476
 31
0.0
  0
LINE
  5
346
  8
CONTORNO
 62
     0
 10
-148.5000000000001137
 20
-0.0000000000005551
 30
0.0
 11
-151.0
 21
-0.0000000000005551
 31
0.0
  0
LINE
  5
347
  8
CONTORNO
 62
     0
 10
-148.5000000000001137
 20
-0.0000000000005551
 30
0.0
 11
-148.5000000000001137
 21
-2.5000000000005009
 31
0.0
  0
LINE
  5
348
  8
CONTORNO
 62
     0
 10
-148.5000000000001137
 20
-0.0000000000005551
 30
0.0
 11
-145.9999999999998863
 21
-0.0000000000005551
 31
0.0
  0
LINE
  5
349
  8
CONTORNO
 62
     0
 10
-148.5000000000001137
 20
-0.0000000000005551
 30
0.0
 11
-148.5000000000001137
 21
2.4999999999995022
 31
0.0
  0
LINE
  5
34A
  8
CONTORNO
 62
     0
 10
-148.5000000000001137
 20
-2.5000000000005009
 30
0.0
 11
-148.5000000000001137
 21
-5.0000000000005587
 31
0.0
  0
LINE
  5
34B
  8
CONTORNO
 62
     0
 10
-148.5000000000001137
 20
2.4999999999995022
 30
0.0
 11
-148.5000000000001137
 21
4.9999999999994493
 31
0.0
  0
LINE
  5
34C
  8
CONTORNO
 62
     0
 10
-297.0
 20
-0.0000000000011102
 30
0.0
 11
-299.5000000000001137
 21
-0.0000000000011102
 31
0.0
  0
LINE
  5
34D
  8
CONTORNO
 62
     0
 10
-297.0
 20
-0.0000000000011102
 30
0.0
 11
-297.0
 21
-2.500000000001056
 31
0.0
  0
LINE
  5
34E
  8
CONTORNO
 62
     0
 10
-297.0
 20
-0.0000000000011102
 30
0.0
 11
-294.5
 21
-0.0000000000011102
 31
0.0
  0
LINE
  5
34F
  8
CONTORNO
 62
     0
 10
-297.0
 20
-0.0000000000011102
 30
0.0
 11
-297.0
 21
2.4999999999989471
 31
0.0
  0
LINE
  5
350
  8
CONTORNO
 62
     0
 10
-297.0
 20
-2.500000000001056
 30
0.0
 11
-297.0
 21
-5.0000000000011138
 31
0.0
  0
LINE
  5
351
  8
CONTORNO
 62
     0
 10
-297.0
 20
2.4999999999989471
 30
0.0
 11
-297.0
 21
4.9999999999988942
 31
0.0
  0
LINE
  5
352
  8
CONTORNO
 62
     0
 10
-445.5
 20
-0.0000000000015543
 30
0.0
 11
-447.9999999999998863
 21
-0.0000000000015543
 31
0.0
  0
LINE
  5
353
  8
CONTORNO
 62
     0
 10
-445.5
 20
-0.0000000000015543
 30
0.0
 11
-445.5
 21
-2.500000000001612
 31
0.0
  0
LINE
  5
354
  8
CONTORNO
 62
     0
 10
-445.5
 20
-0.0000000000015543
 30
0.0
 11
-442.9999999999998863
 21
-0.0000000000015543
 31
0.0
  0
LINE
  5
355
  8
CONTORNO
 62
     0
 10
-445.5
 20
-0.0000000000015543
 30
0.0
 11
-445.5
 21
2.499999999998392
 31
0.0
  0
LINE
  5
356
  8
CONTORNO
 62
     0
 10
-445.5
 20
-2.500000000001612
 30
0.0
 11
-445.5
 21
-5.0000000000015579
 31
0.0
  0
LINE
  5
357
  8
CONTORNO
 62
     0
 10
-445.5
 20
2.499999999998392
 30
0.0
 11
-445.5
 21
4.9999999999984501
 31
0.0
  0
LINE
  5
358
  8
CONTORNO
 62
     0
 10
-594.0
 20
-0.0000000000021094
 30
0.0
 11
-596.4999999999998863
 21
-0.0000000000021094
 31
0.0
  0
LINE
  5
359
  8
CONTORNO
 62
     0
 10
-594.0
 20
-0.0000000000021094
 30
0.0
 11
-594.0
 21
-2.5000000000020561
 31
0.0
  0
LINE
  5
35A
  8
CONTORNO
 62
     0
 10
-594.0
 20
-0.0000000000021094
 30
0.0
 11
-591.4999999999998863
 21
-0.0000000000021094
 31
0.0
  0
LINE
  5
35B
  8
CONTORNO
 62
     0
 10
-594.0
 20
-0.0000000000021094
 30
0.0
 11
-594.0
 21
2.4999999999979479
 31
0.0
  0
LINE
  5
35C
  8
CONTORNO
 62
     0
 10
-594.0
 20
-2.5000000000020561
 30
0.0
 11
-594.0
 21
-5.000000000002113
 31
0.0
  0
LINE
  5
35D
  8
CONTORNO
 62
     0
 10
-594.0
 20
2.4999999999979479
 30
0.0
 11
-594.0
 21
4.999999999997895
 31
0.0
  0
LINE
  5
35E
  8
CONTORNO
 62
     0
 10
-742.4999999999998863
 20
-0.0000000000026645
 30
0.0
 11
-745.0000000000001137
 21
-0.0000000000026645
 31
0.0
  0
LINE
  5
35F
  8
CONTORNO
 62
     0
 10
-742.4999999999998863
 20
-0.0000000000026645
 30
0.0
 11
-742.4999999999998863
 21
-2.5000000000026108
 31
0.0
  0
LINE
  5
360
  8
CONTORNO
 62
     0
 10
-742.4999999999998863
 20
-0.0000000000026645
 30
0.0
 11
-740.0
 21
-0.0000000000026645
 31
0.0
  0
LINE
  5
361
  8
CONTORNO
 62
     0
 10
-742.4999999999998863
 20
-0.0000000000026645
 30
0.0
 11
-742.4999999999998863
 21
2.4999999999973932
 31
0.0
  0
LINE
  5
362
  8
CONTORNO
 62
     0
 10
-742.4999999999998863
 20
-2.5000000000026108
 30
0.0
 11
-742.4999999999998863
 21
-5.0000000000026681
 31
0.0
  0
LINE
  5
363
  8
CONTORNO
 62
     0
 10
-742.4999999999998863
 20
2.4999999999973932
 30
0.0
 11
-742.4999999999998863
 21
4.999999999997339
 31
0.0
  0
LINE
  5
364
  8
CONTORNO
 62
     0
 10
-890.9999999999997726
 20
-0.0000000000031086
 30
0.0
 11
-893.5
 21
-0.0000000000031086
 31
0.0
  0
LINE
  5
365
  8
CONTORNO
 62
     0
 10
-890.9999999999997726
 20
-0.0000000000031086
 30
0.0
 11
-890.9999999999997726
 21
-2.5000000000031659
 31
0.0
  0
LINE
  5
366
  8
CONTORNO
 62
     0
 10
-890.9999999999997726
 20
-0.0000000000031086
 30
0.0
 11
-888.4999999999998863
 21
-0.0000000000031086
 31
0.0
  0
LINE
  5
367
  8
CONTORNO
 62
     0
 10
-890.9999999999997726
 20
-0.0000000000031086
 30
0.0
 11
-890.9999999999997726
 21
2.4999999999968381
 31
0.0
  0
LINE
  5
368
  8
CONTORNO
 62
     0
 10
-890.9999999999997726
 20
-2.5000000000031659
 30
0.0
 11
-890.9999999999997726
 21
-5.0000000000031131
 31
0.0
  0
LINE
  5
369
  8
CONTORNO
 62
     0
 10
-890.9999999999997726
 20
2.4999999999968381
 30
0.0
 11
-890.9999999999997726
 21
4.9999999999968949
 31
0.0
  0
LINE
  5
36A
  8
CONTORNO
 62
     0
 10
-1039.5
 20
-0.0000000000036637
 30
0.0
 11
-1042.0
 21
-0.0000000000036637
 31
0.0
  0
LINE
  5
36B
  8
CONTORNO
 62
     0
 10
-1039.5
 20
-0.0000000000036637
 30
0.0
 11
-1039.5
 21
-2.50000000000361
 31
0.0
  0
LINE
  5
36C
  8
CONTORNO
 62
     0
 10
-1039.5
 20
-0.0000000000036637
 30
0.0
 11
-1037.0
 21
-0.0000000000036637
 31
0.0
  0
LINE
  5
36D
  8
CONTORNO
 62
     0
 10
-1039.5
 20
-0.0000000000036637
 30
0.0
 11
-1039.5
 21
2.4999999999963931
 31
0.0
  0
LINE
  5
36E
  8
CONTORNO
 62
     0
 10
-1042.0
 20
-0.0000000000036637
 30
0.0
 11
-1044.5
 21
-0.0000000000036637
 31
0.0
  0
LINE
  5
36F
  8
CONTORNO
 62
     0
 10
-1039.5
 20
-2.50000000000361
 30
0.0
 11
-1039.5
 21
-5.0000000000036682
 31
0.0
  0
LINE
  5
370
  8
CONTORNO
 62
     0
 10
-1039.5
 20
2.4999999999963931
 30
0.0
 11
-1039.5
 21
4.9999999999963398
 31
0.0
  0
LINE
  5
371
  8
CONTORNO
 62
     0
 10
143.5
 20
0.0000000000004441
 30
0.0
 11
4.9999999999998934
 21
0.0
 31
0.0
  0
LINE
  5
372
  8
CONTORNO
 62
     0
 10
-4.9999999999998934
 20
0.0
 30
0.0
 11
-143.5
 21
-0.0000000000005551
 31
0.0
  0
LINE
  5
373
  8
CONTORNO
 62
     0
 10
-153.4999999999998863
 20
-0.0000000000005551
 30
0.0
 11
-292.0000000000001137
 21
-0.0000000000009992
 31
0.0
  0
LINE
  5
374
  8
CONTORNO
 62
     0
 10
-302.0
 20
-0.0000000000011102
 30
0.0
 11
-440.5
 21
-0.0000000000015543
 31
0.0
  0
LINE
  5
375
  8
CONTORNO
 62
     0
 10
-450.4999999999998863
 20
-0.0000000000015543
 30
0.0
 11
-589.0
 21
-0.0000000000021094
 31
0.0
  0
LINE
  5
376
  8
CONTORNO
 62
     0
 10
-599.0
 20
-0.0000000000021094
 30
0.0
 11
-737.5
 21
-0.0000000000025535
 31
0.0
  0
LINE
  5
377
  8
CONTORNO
 62
     0
 10
-747.5
 20
-0.0000000000026645
 30
0.0
 11
-885.9999999999998863
 21
-0.0000000000031086
 31
0.0
  0
LINE
  5
378
  8
CONTORNO
 62
     0
 10
-895.9999999999998863
 20
-0.0000000000031086
 30
0.0
 11
-1034.5
 21
-0.0000000000036637
 31
0.0
  0
ENDBLK
  5
379
  8
0
  0
BLOCK
  8
0
  2
SW_CENTERMARKSYMBOL_3
 70
     0
 10
0.0
 20
0.0
 30
0.0
  3
SW_CENTERMARKSYMBOL_3
  1

  0
LINE
  5
37C
  8
CONTORNO
 62
     0
 10
0.0
 20
0.0
 30
0.0
 11
-2.4999999999999458
 21
0.0
 31
0.0
  0
LINE
  5
37D
  8
CONTORNO
 62
     0
 10
0.0
 20
0.0
 30
0.0
 11
0.0
 21
-2.4999999999999458
 31
0.0
  0
LINE
  5
37E
  8
CONTORNO
 62
     0
 10
0.0
 20
0.0
 30
0.0
 11
2.4999999999999458
 21
0.0
 31
0.0
  0
LINE
  5
37F
  8
CONTORNO
 62
     0
 10
0.0
 20
0.0
 30
0.0
 11
0.0
 21
2.5000000000000568
 31
0.0
  0
LINE
  5
380
  8
CONTORNO
 62
     0
 10
0.0
 20
-2.4999999999999458
 30
0.0
 11
0.0
 21
-5.0000000000000044
 31
0.0
  0
LINE
  5
381
  8
CONTORNO
 62
     0
 10
0.0
 20
2.5000000000000568
 30
0.0
 11
0.0
 21
5.0000000000000044
 31
0.0
  0
LINE
  5
382
  8
CONTORNO
 62
     0
 10
148.5000000000001137
 20
0.0000000000005551
 30
0.0
 11
146.0000000000001137
 21
0.0000000000005551
 31
0.0
  0
LINE
  5
383
  8
CONTORNO
 62
     0
 10
148.5000000000001137
 20
0.0000000000005551
 30
0.0
 11
148.5000000000001137
 21
-2.4999999999995022
 31
0.0
  0
LINE
  5
384
  8
CONTORNO
 62
     0
 10
148.5000000000001137
 20
0.0000000000005551
 30
0.0
 11
151.0
 21
0.0000000000005551
 31
0.0
  0
LINE
  5
385
  8
CONTORNO
 62
     0
 10
148.5000000000001137
 20
0.0000000000005551
 30
0.0
 11
148.5000000000001137
 21
2.5000000000005009
 31
0.0
  0
LINE
  5
386
  8
CONTORNO
 62
     0
 10
148.5000000000001137
 20
-2.4999999999995022
 30
0.0
 11
148.5000000000001137
 21
-4.9999999999994493
 31
0.0
  0
LINE
  5
387
  8
CONTORNO
 62
     0
 10
151.0
 20
0.0000000000005551
 30
0.0
 11
153.4999999999998863
 21
0.0000000000005551
 31
0.0
  0
LINE
  5
388
  8
CONTORNO
 62
     0
 10
148.5000000000001137
 20
2.5000000000005009
 30
0.0
 11
148.5000000000001137
 21
5.0000000000005587
 31
0.0
  0
LINE
  5
389
  8
CONTORNO
 62
     0
 10
-148.5000000000001137
 20
-0.0000000000004441
 30
0.0
 11
-151.0
 21
-0.0000000000004441
 31
0.0
  0
LINE
  5
38A
  8
CONTORNO
 62
     0
 10
-148.5000000000001137
 20
-0.0000000000004441
 30
0.0
 11
-148.5000000000001137
 21
-2.5000000000005009
 31
0.0
  0
LINE
  5
38B
  8
CONTORNO
 62
     0
 10
-148.5000000000001137
 20
-0.0000000000004441
 30
0.0
 11
-146.0000000000001137
 21
-0.0000000000004441
 31
0.0
  0
LINE
  5
38C
  8
CONTORNO
 62
     0
 10
-148.5000000000001137
 20
-0.0000000000004441
 30
0.0
 11
-148.5000000000001137
 21
2.4999999999995022
 31
0.0
  0
LINE
  5
38D
  8
CONTORNO
 62
     0
 10
-148.5000000000001137
 20
-2.5000000000005009
 30
0.0
 11
-148.5000000000001137
 21
-5.0000000000004476
 31
0.0
  0
LINE
  5
38E
  8
CONTORNO
 62
     0
 10
-148.5000000000001137
 20
2.4999999999995022
 30
0.0
 11
-148.5000000000001137
 21
4.9999999999995604
 31
0.0
  0
LINE
  5
38F
  8
CONTORNO
 62
     0
 10
-297.0
 20
-0.0000000000009992
 30
0.0
 11
-299.5000000000001137
 21
-0.0000000000009992
 31
0.0
  0
LINE
  5
390
  8
CONTORNO
 62
     0
 10
-297.0
 20
-0.0000000000009992
 30
0.0
 11
-297.0
 21
-2.500000000001056
 31
0.0
  0
LINE
  5
391
  8
CONTORNO
 62
     0
 10
-297.0
 20
-0.0000000000009992
 30
0.0
 11
-294.5
 21
-0.0000000000009992
 31
0.0
  0
LINE
  5
392
  8
CONTORNO
 62
     0
 10
-297.0
 20
-0.0000000000009992
 30
0.0
 11
-297.0
 21
2.4999999999989471
 31
0.0
  0
LINE
  5
393
  8
CONTORNO
 62
     0
 10
-297.0
 20
-2.500000000001056
 30
0.0
 11
-297.0
 21
-5.0000000000010028
 31
0.0
  0
LINE
  5
394
  8
CONTORNO
 62
     0
 10
-297.0
 20
2.4999999999989471
 30
0.0
 11
-297.0
 21
4.9999999999990052
 31
0.0
  0
LINE
  5
395
  8
CONTORNO
 62
     0
 10
-445.5
 20
-0.0000000000015543
 30
0.0
 11
-448.0
 21
-0.0000000000015543
 31
0.0
  0
LINE
  5
396
  8
CONTORNO
 62
     0
 10
-445.5
 20
-0.0000000000015543
 30
0.0
 11
-445.5
 21
-2.500000000001501
 31
0.0
  0
LINE
  5
397
  8
CONTORNO
 62
     0
 10
-445.5
 20
-0.0000000000015543
 30
0.0
 11
-443.0
 21
-0.0000000000015543
 31
0.0
  0
LINE
  5
398
  8
CONTORNO
 62
     0
 10
-445.5
 20
-0.0000000000015543
 30
0.0
 11
-445.5
 21
2.499999999998503
 31
0.0
  0
LINE
  5
399
  8
CONTORNO
 62
     0
 10
-445.5
 20
-2.500000000001501
 30
0.0
 11
-445.5
 21
-5.0000000000015579
 31
0.0
  0
LINE
  5
39A
  8
CONTORNO
 62
     0
 10
-445.5
 20
2.499999999998503
 30
0.0
 11
-445.5
 21
4.9999999999984501
 31
0.0
  0
LINE
  5
39B
  8
CONTORNO
 62
     0
 10
-594.0
 20
-0.0000000000019984
 30
0.0
 11
-596.4999999999998863
 21
-0.0000000000019984
 31
0.0
  0
LINE
  5
39C
  8
CONTORNO
 62
     0
 10
-594.0
 20
-0.0000000000019984
 30
0.0
 11
-594.0
 21
-2.5000000000020561
 31
0.0
  0
LINE
  5
39D
  8
CONTORNO
 62
     0
 10
-594.0
 20
-0.0000000000019984
 30
0.0
 11
-591.4999999999998863
 21
-0.0000000000019984
 31
0.0
  0
LINE
  5
39E
  8
CONTORNO
 62
     0
 10
-594.0
 20
-0.0000000000019984
 30
0.0
 11
-594.0
 21
2.4999999999979479
 31
0.0
  0
LINE
  5
39F
  8
CONTORNO
 62
     0
 10
-594.0
 20
-2.5000000000020561
 30
0.0
 11
-594.0
 21
-5.000000000002002
 31
0.0
  0
LINE
  5
3A0
  8
CONTORNO
 62
     0
 10
-594.0
 20
2.4999999999979479
 30
0.0
 11
-594.0
 21
4.999999999998006
 31
0.0
  0
LINE
  5
3A1
  8
CONTORNO
 62
     0
 10
-742.4999999999998863
 20
-0.0000000000025535
 30
0.0
 11
-745.0000000000001137
 21
-0.0000000000025535
 31
0.0
  0
LINE
  5
3A2
  8
CONTORNO
 62
     0
 10
-742.4999999999998863
 20
-0.0000000000025535
 30
0.0
 11
-742.4999999999998863
 21
-2.5000000000026108
 31
0.0
  0
LINE
  5
3A3
  8
CONTORNO
 62
     0
 10
-742.4999999999998863
 20
-0.0000000000025535
 30
0.0
 11
-740.0
 21
-0.0000000000025535
 31
0.0
  0
LINE
  5
3A4
  8
CONTORNO
 62
     0
 10
-742.4999999999998863
 20
-0.0000000000025535
 30
0.0
 11
-742.4999999999998863
 21
2.4999999999973932
 31
0.0
  0
LINE
  5
3A5
  8
CONTORNO
 62
     0
 10
-742.4999999999998863
 20
-2.5000000000026108
 30
0.0
 11
-742.4999999999998863
 21
-5.0000000000025571
 31
0.0
  0
LINE
  5
3A6
  8
CONTORNO
 62
     0
 10
-742.4999999999998863
 20
2.4999999999973932
 30
0.0
 11
-742.4999999999998863
 21
4.99999999999745
 31
0.0
  0
LINE
  5
3A7
  8
CONTORNO
 62
     0
 10
-890.9999999999997726
 20
-0.0000000000031086
 30
0.0
 11
-893.5
 21
-0.0000000000031086
 31
0.0
  0
LINE
  5
3A8
  8
CONTORNO
 62
     0
 10
-890.9999999999997726
 20
-0.0000000000031086
 30
0.0
 11
-890.9999999999997726
 21
-2.5000000000030549
 31
0.0
  0
LINE
  5
3A9
  8
CONTORNO
 62
     0
 10
-890.9999999999997726
 20
-0.0000000000031086
 30
0.0
 11
-888.4999999999998863
 21
-0.0000000000031086
 31
0.0
  0
LINE
  5
3AA
  8
CONTORNO
 62
     0
 10
-890.9999999999997726
 20
-0.0000000000031086
 30
0.0
 11
-890.9999999999997726
 21
2.4999999999969491
 31
0.0
  0
LINE
  5
3AB
  8
CONTORNO
 62
     0
 10
-890.9999999999997726
 20
-2.5000000000030549
 30
0.0
 11
-890.9999999999997726
 21
-5.0000000000031131
 31
0.0
  0
LINE
  5
3AC
  8
CONTORNO
 62
     0
 10
-890.9999999999997726
 20
2.4999999999969491
 30
0.0
 11
-890.9999999999997726
 21
4.9999999999968949
 31
0.0
  0
LINE
  5
3AD
  8
CONTORNO
 62
     0
 10
-1039.5
 20
-0.0000000000035527
 30
0.0
 11
-1042.0
 21
-0.0000000000035527
 31
0.0
  0
LINE
  5
3AE
  8
CONTORNO
 62
     0
 10
-1039.5
 20
-0.0000000000035527
 30
0.0
 11
-1039.5
 21
-2.50000000000361
 31
0.0
  0
LINE
  5
3AF
  8
CONTORNO
 62
     0
 10
-1039.5
 20
-0.0000000000035527
 30
0.0
 11
-1037.0
 21
-0.0000000000035527
 31
0.0
  0
LINE
  5
3B0
  8
CONTORNO
 62
     0
 10
-1039.5
 20
-0.0000000000035527
 30
0.0
 11
-1039.5
 21
2.4999999999963931
 31
0.0
  0
LINE
  5
3B1
  8
CONTORNO
 62
     0
 10
-1042.0
 20
-0.0000000000035527
 30
0.0
 11
-1044.5
 21
-0.0000000000036637
 31
0.0
  0
LINE
  5
3B2
  8
CONTORNO
 62
     0
 10
-1039.5
 20
-2.50000000000361
 30
0.0
 11
-1039.5
 21
-5.0000000000035572
 31
0.0
  0
LINE
  5
3B3
  8
CONTORNO
 62
     0
 10
-1039.5
 20
2.4999999999963931
 30
0.0
 11
-1039.5
 21
4.9999999999964508
 31
0.0
  0
LINE
  5
3B4
  8
CONTORNO
 62
     0
 10
143.5
 20
0.0000000000005551
 30
0.0
 11
5.0000000000001146
 21
0.0
 31
0.0
  0
LINE
  5
3B5
  8
CONTORNO
 62
     0
 10
-5.0000000000001146
 20
0.0
 30
0.0
 11
-143.5
 21
-0.0000000000004441
 31
0.0
  0
LINE
  5
3B6
  8
CONTORNO
 62
     0
 10
-153.4999999999998863
 20
-0.0000000000005551
 30
0.0
 11
-292.0000000000001137
 21
-0.0000000000009992
 31
0.0
  0
LINE
  5
3B7
  8
CONTORNO
 62
     0
 10
-302.0
 20
-0.0000000000009992
 30
0.0
 11
-440.5
 21
-0.0000000000015543
 31
0.0
  0
LINE
  5
3B8
  8
CONTORNO
 62
     0
 10
-450.4999999999998863
 20
-0.0000000000015543
 30
0.0
 11
-589.0
 21
-0.0000000000019984
 31
0.0
  0
LINE
  5
3B9
  8
CONTORNO
 62
     0
 10
-599.0
 20
-0.0000000000021094
 30
0.0
 11
-737.5
 21
-0.0000000000025535
 31
0.0
  0
LINE
  5
3BA
  8
CONTORNO
 62
     0
 10
-747.5
 20
-0.0000000000025535
 30
0.0
 11
-885.9999999999998863
 21
-0.0000000000031086
 31
0.0
  0
LINE
  5
3BB
  8
CONTORNO
 62
     0
 10
-895.9999999999998863
 20
-0.0000000000031086
 30
0.0
 11
-1034.5
 21
-0.0000000000035527
 31
0.0
  0
ENDBLK
  5
3BC
  8
0
  0
BLOCK
  8
0
  2
*D10
 70
     1
 10
0.0
 20
0.0
 30
0.0
  3
*D10
  1

  0
LINE
  5
4D3
  8
CONTORNO
 62
     0
 10
1866.4597034036780769
 20
481.1933899652419768
 30
0.0
 11
1866.4597034036780769
 21
432.7588810562564845
 31
0.0
  0
INSERT
  5
4D4
  8
0
  2
*U18
 10
0.0
 20
0.0
 30
0.0
  0
POINT
  5
4D5
  8
DEFPOINTS
 62
     0
 10
1866.4597034036780769
 20
481.2558899652420905
 30
0.0
  0
POINT
  5
4D6
  8
DEFPOINTS
 62
     0
 10
1866.4597034036780769
 20
432.7588810562564845
 30
0.0
  0
POINT
  5
4D7
  8
DEFPOINTS
 62
     0
 10
1866.4597034036780769
 20
481.2558899652420905
 30
0.0
  0
ENDBLK
  5
4B3
  8
0
  0
BLOCK
  8
0
  2
*D11
 70
     1
 10
0.0
 20
0.0
 30
0.0
  3
*D11
  1

  0
LINE
  5
4D8
  8
CONTORNO
 62
     0
 10
1843.2722034036760306
 20
534.2558899652418631
 30
0.0
 11
1894.8517886398910832
 21
534.2558899652418631
 31
0.0
  0
LINE
  5
4D9
  8
CONTORNO
 62
     0
 10
1843.2722034036760306
 20
503.25588996524192
 30
0.0
 11
1894.8517886398910832
 21
503.25588996524192
 31
0.0
  0
LINE
  5
4DA
  8
CONTORNO
 62
     0
 10
1894.8517886398910832
 20
547.4638899652419468
 30
0.0
 11
1894.8517886398910832
 21
560.6718899652419168
 31
0.0
  0
LINE
  5
4DB
  8
CONTORNO
 62
     0
 10
1894.8517886398910832
 20
490.0478899652418932
 30
0.0
 11
1894.8517886398910832
 21
476.8398899652419232
 31
0.0
  0
LINE
  5
4DC
  8
CONTORNO
 62
     0
 10
1894.8517886398910832
 20
534.2558899652418631
 30
0.0
 11
1894.8517886398910832
 21
503.25588996524192
 31
0.0
  0
SOLID
  5
4DD
  8
CONTORNO
 62
     0
 10
1892.650455306556978
 20
547.4638899652419468
 30
0.0
 11
1897.0531219732240515
 21
547.4638899652419468
 31
0.0
 12
1894.8517886398910832
 22
534.2558899652418631
 32
0.0
 13
1894.8517886398910832
 23
534.2558899652418631
 33
0.0
  0
SOLID
  5
4DE
  8
CONTORNO
 62
     0
 10
1892.650455306556978
 20
490.0478899652418932
 30
0.0
 11
1897.0531219732240515
 21
490.0478899652418932
 31
0.0
 12
1894.8517886398910832
 22
503.25588996524192
 32
0.0
 13
1894.8517886398910832
 23
503.25588996524192
 33
0.0
  0
INSERT
  5
4DF
  8
0
  2
*U19
 10
0.0
 20
0.0
 30
0.0
  0
POINT
  5
4E0
  8
DEFPOINTS
 62
     0
 10
1843.2097034036769401
 20
534.2558899652418631
 30
0.0
  0
POINT
  5
4E1
  8
DEFPOINTS
 62
     0
 10
1843.2097034036769401
 20
503.25588996524192
 30
0.0
  0
POINT
  5
4E2
  8
DEFPOINTS
 62
     0
 10
1894.8517886398910832
 20
503.25588996524192
 30
0.0
  0
ENDBLK
  5
4BB
  8
0
  0
BLOCK
  8
0
  2
*D12
 70
     1
 10
0.0
 20
0.0
 30
0.0
  3
*D12
  1

  0
LINE
  5
4E3
  8
CONTORNO
 62
     0
 10
1841.5222034036769401
 20
486.2558899652419768
 30
0.0
 11
1917.3079590091579121
 21
486.2558899652419768
 31
0.0
  0
LINE
  5
4E4
  8
CONTORNO
 62
     0
 10
1841.5222034036760306
 20
551.2558899652418631
 30
0.0
 11
1917.3079590091570026
 21
551.2558899652418631
 31
0.0
  0
LINE
  5
4E5
  8
CONTORNO
 62
     0
 10
1917.3079590091579121
 20
499.4638899652420037
 30
0.0
 11
1917.3079590091570026
 21
538.0478899652420068
 31
0.0
  0
SOLID
  5
4E6
  8
CONTORNO
 62
     0
 10
1915.1066256758240343
 20
499.4638899652420037
 30
0.0
 11
1919.5092923424911078
 21
499.4638899652420037
 31
0.0
 12
1917.3079590091579121
 22
486.2558899652419768
 32
0.0
 13
1917.3079590091579121
 23
486.2558899652419768
 33
0.0
  0
SOLID
  5
4E7
  8
CONTORNO
 62
     0
 10
1915.1066256758240343
 20
538.0478899652420068
 30
0.0
 11
1919.5092923424911078
 21
538.0478899652420068
 31
0.0
 12
1917.3079590091570026
 22
551.2558899652418631
 32
0.0
 13
1917.3079590091570026
 23
551.2558899652418631
 33
0.0
  0
INSERT
  5
4E8
  8
0
  2
*U20
 10
0.0
 20
0.0
 30
0.0
  0
POINT
  5
4E9
  8
DEFPOINTS
 62
     0
 10
1841.4597034036769401
 20
486.2558899652419768
 30
0.0
  0
POINT
  5
4EA
  8
DEFPOINTS
 62
     0
 10
1841.4597034036769401
 20
551.2558899652418631
 30
0.0
  0
POINT
  5
4EB
  8
DEFPOINTS
 62
     0
 10
1917.3079590091570026
 20
551.2558899652418631
 30
0.0
  0
ENDBLK
  5
4C9
  8
0
  0
BLOCK
  8
0
  2
*U15
 70
     1
 10
0.0
 20
0.0
 30
0.0
  3
*U15
  1

  0
TEXT
  5
643
  8
CONTORNO
 10
1416.8450195387940767
 20
720.9686453836678766
 30
0.0
 40
12.6999999999999993
  1
0
 50
90.0000000000001847
 41
0.75
  7
SLDTEXTSTYLE1
  0
ENDBLK
  5
645
  8
0
  0
BLOCK
  8
0
  2
*U16
 70
     1
 10
0.0
 20
0.0
 30
0.0
  3
*U16
  1

  0
TEXT
  5
647
  8
CONTORNO
 10
1435.1476607784600219
 20
807.9715643396460791
 30
0.0
 40
12.6999999999999993
  1
31
 50
90.0000000000006253
 41
0.75
  7
SLDTEXTSTYLE1
  0
ENDBLK
  5
649
  8
0
  0
BLOCK
  8
0
  2
*U17
 70
     1
 10
0.0
 20
0.0
 30
0.0
  3
*U17
  1

  0
TEXT
  5
64B
  8
CONTORNO
 10
1457.6038311477270781
 20
807.9715643396460791
 30
0.0
 40
12.6999999999999993
  1
65
 50
90.0000000000001847
 41
0.75
  7
SLDTEXTSTYLE1
  0
ENDBLK
  5
64D
  8
0
  0
BLOCK
  8
0
  2
*U18
 70
     1
 10
0.0
 20
0.0
 30
0.0
  3
*U18
  1

  0
TEXT
  5
64F
  8
CONTORNO
 62
     0
 10
1872.8097034036770765
 20
424.8213810562559161
 30
0.0
 40
12.6999999999999993
  1
0
 50
90.0
 41
0.75
  7
SLDTEXTSTYLE1
  0
ENDBLK
  5
651
  8
0
  0
BLOCK
  8
0
  2
*U19
 70
     1
 10
0.0
 20
0.0
 30
0.0
  3
*U19
  1

  0
TEXT
  5
653
  8
CONTORNO
 62
     0
 10
1891.6767886398899918
 20
512.4058899652411583
 30
0.0
 40
12.6999999999999993
  1
31
 50
90.0
 41
0.75
  7
SLDTEXTSTYLE1
  0
ENDBLK
  5
655
  8
0
  0
BLOCK
  8
0
  2
*U20
 70
     1
 10
0.0
 20
0.0
 30
0.0
  3
*U20
  1

  0
TEXT
  5
657
  8
CONTORNO
 62
     0
 10
1914.1329590091570481
 20
511.8243000122346871
 30
0.0
 40
12.6999999999999993
  1
65
 50
90.0
 41
0.75
  7
SLDTEXTSTYLE1
  0
ENDBLK
  5
659
  8
0
  0
ENDSEC
  0
SECTION
  2
ENTITIES
  0
LINE
  5
55D
  8
0
  6
CONTINUOUS
 62
     7
 10
65.5000000000001137
 20
13.4000000000004302
 30
0.0
 11
74.9999999999998863
 21
13.4000000000000892
 31
0.0
  0
LINE
  5
55E
  8
0
  6
CONTINUOUS
 62
     7
 10
74.9999999999998863
 20
13.4000000000000892
 30
0.0
 11
74.9999999999998863
 21
0.0
 31
0.0
  0
LINE
  5
55F
  8
0
  6
CONTINUOUS
 62
     7
 10
74.9999999999998863
 20
0.0
 30
0.0
 11
57.9999999999998934
 21
0.0
 31
0.0
  0
LINE
  5
560
  8
0
  6
CONTINUOUS
 62
     7
 10
57.9999999999998934
 20
0.0
 30
0.0
 11
57.9999999999998934
 21
20.0000000000004583
 31
0.0
  0
LINE
  5
561
  8
0
  6
CONTINUOUS
 62
     7
 10
57.9999999999998934
 20
20.0000000000004583
 30
0.0
 11
65.5000000000001137
 21
20.0000000000004583
 31
0.0
  0
LINE
  5
562
  8
0
  6
CONTINUOUS
 62
     7
 10
65.5000000000001137
 20
20.0000000000004583
 30
0.0
 11
65.5000000000001137
 21
13.4000000000004302
 31
0.0
  0
LINE
  5
563
  8
0
  6
CONTINUOUS
 62
     7
 10
17.0
 20
0.0
 30
0.0
 11
0.0
 21
0.0
 31
0.0
  0
LINE
  5
564
  8
0
  6
CONTINUOUS
 62
     7
 10
0.0
 20
0.0
 30
0.0
 11
0.0
 21
13.4000000000000892
 31
0.0
  0
LINE
  5
565
  8
0
  6
CONTINUOUS
 62
     7
 10
0.0
 20
13.4000000000000892
 30
0.0
 11
9.4999999999998863
 21
13.4000000000004302
 31
0.0
  0
LINE
  5
566
  8
0
  6
CONTINUOUS
 62
     7
 10
9.4999999999998863
 20
13.4000000000004302
 30
0.0
 11
9.4999999999998863
 21
20.0000000000004583
 31
0.0
  0
LINE
  5
567
  8
0
  6
CONTINUOUS
 62
     7
 10
9.4999999999998863
 20
20.0000000000004583
 30
0.0
 11
17.0
 21
20.0000000000004583
 31
0.0
  0
LINE
  5
568
  8
0
  6
CONTINUOUS
 62
     7
 10
17.0
 20
20.0000000000004583
 30
0.0
 11
17.0
 21
0.0
 31
0.0
  0
LINE
  5
569
  8
0
  6
CONTINUOUS
 62
     7
 10
65.5000000000001137
 20
1227.9999999999990905
 30
0.0
 11
58.0
 21
1227.9999999999990905
 31
0.0
  0
LINE
  5
56A
  8
0
  6
CONTINUOUS
 62
     7
 10
65.5000000000001137
 20
20.0000000000004583
 30
0.0
 11
65.5000000000001137
 21
1227.9999999999990905
 31
0.0
  0
LINE
  5
56B
  8
0
  6
CONTINUOUS
 62
     7
 10
57.9999999999998934
 20
20.0000000000004583
 30
0.0
 11
58.0
 21
1227.9999999999990905
 31
0.0
  0
LINE
  5
56C
  8
0
  6
CONTINUOUS
 62
     7
 10
9.5
 20
1234.5999999999989996
 30
0.0
 11
0.0000000000001137
 21
1234.5999999999989996
 31
0.0
  0
LINE
  5
56D
  8
0
  6
CONTINUOUS
 62
     7
 10
0.0000000000001137
 20
1234.5999999999989996
 30
0.0
 11
0.0000000000001137
 21
1248.0
 31
0.0
  0
LINE
  5
56E
  8
0
  6
CONTINUOUS
 62
     7
 10
0.0000000000001137
 20
1248.0
 30
0.0
 11
17.0000000000001101
 21
1248.0
 31
0.0
  0
LINE
  5
56F
  8
0
  6
CONTINUOUS
 62
     7
 10
17.0000000000001101
 20
1227.9999999999990905
 30
0.0
 11
9.5
 21
1227.9999999999990905
 31
0.0
  0
LINE
  5
570
  8
0
  6
CONTINUOUS
 62
     7
 10
9.5
 20
1227.9999999999990905
 30
0.0
 11
9.5
 21
1234.5999999999989996
 31
0.0
  0
LINE
  5
571
  8
0
  6
CONTINUOUS
 62
     7
 10
17.0000000000001101
 20
1248.0
 30
0.0
 11
17.0000000000001101
 21
1227.9999999999990905
 31
0.0
  0
LINE
  5
572
  8
0
  6
CONTINUOUS
 62
     7
 10
58.0
 20
1248.0
 30
0.0
 11
75.0
 21
1248.0
 31
0.0
  0
LINE
  5
573
  8
0
  6
CONTINUOUS
 62
     7
 10
75.0
 20
1248.0
 30
0.0
 11
75.0
 21
1234.5999999999989996
 31
0.0
  0
LINE
  5
574
  8
0
  6
CONTINUOUS
 62
     7
 10
75.0
 20
1234.5999999999989996
 30
0.0
 11
65.5000000000001137
 21
1234.5999999999989996
 31
0.0
  0
LINE
  5
575
  8
0
  6
CONTINUOUS
 62
     7
 10
65.5000000000001137
 20
1234.5999999999989996
 30
0.0
 11
65.5000000000001137
 21
1227.9999999999990905
 31
0.0
  0
LINE
  5
576
  8
0
  6
CONTINUOUS
 62
     7
 10
58.0
 20
1227.9999999999990905
 30
0.0
 11
58.0
 21
1248.0
 31
0.0
  0
LINE
  5
577
  8
0
  6
CONTINUOUS
 62
     7
 10
9.4999999999998863
 20
20.0000000000004583
 30
0.0
 11
9.5
 21
1227.9999999999990905
 31
0.0
  0
LINE
  5
578
  8
0
  6
CONTINUOUS
 62
     7
 10
17.0
 20
20.0000000000004583
 30
0.0
 11
17.0000000000001101
 21
1227.9999999999990905
 31
0.0
  0
CIRCLE
  5
579
  8
0
  6
CONTINUOUS
 62
     7
 10
5.0000000000001128
 20
327.0
 30
0.0
 40
2.5
  0
CIRCLE
  5
57A
  8
0
  6
CONTINUOUS
 62
     7
 10
5.0000000000001128
 20
475.4999999999998863
 30
0.0
 40
2.5
  0
LINE
  5
57B
  8
0
  6
CONTINUOUS
 62
     7
 10
0.0000000000001137
 20
1234.5999999999989996
 30
0.0
 11
0.0
 21
13.4000000000000892
 31
0.0
  0
CIRCLE
  5
57C
  8
0
  6
CONTINUOUS
 62
     7
 10
5.0000000000001128
 20
1218.0
 30
0.0
 40
2.4999999999997722
  0
CIRCLE
  5
57D
  8
0
  6
CONTINUOUS
 62
     7
 10
5.0000000000001128
 20
1069.5
 30
0.0
 40
2.5
  0
CIRCLE
  5
57E
  8
0
  6
CONTINUOUS
 62
     7
 10
5.0000000000001128
 20
921.0
 30
0.0
 40
2.5
  0
CIRCLE
  5
57F
  8
0
  6
CONTINUOUS
 62
     7
 10
5.0000000000001128
 20
772.5
 30
0.0
 40
2.5
  0
CIRCLE
  5
580
  8
0
  6
CONTINUOUS
 62
     7
 10
5.0000000000001128
 20
624.0
 30
0.0
 40
2.4999999999998859
  0
CIRCLE
  5
581
  8
0
  6
CONTINUOUS
 62
     7
 10
5.0
 20
178.5000000000001137
 30
0.0
 40
2.5
  0
CIRCLE
  5
582
  8
0
  6
CONTINUOUS
 62
     7
 10
5.0
 20
30.0
 30
0.0
 40
2.4999999999999432
  0
CIRCLE
  5
583
  8
0
  6
CONTINUOUS
 62
     7
 10
69.9999999999998863
 20
327.0
 30
0.0
 40
2.5
  0
LINE
  5
584
  8
0
  6
CONTINUOUS
 62
     7
 10
75.0
 20
1234.5999999999989996
 30
0.0
 11
74.9999999999998863
 21
13.4000000000000892
 31
0.0
  0
CIRCLE
  5
585
  8
0
  6
CONTINUOUS
 62
     7
 10
70.0
 20
1218.0
 30
0.0
 40
2.4999999999997722
  0
CIRCLE
  5
586
  8
0
  6
CONTINUOUS
 62
     7
 10
70.0
 20
1069.5
 30
0.0
 40
2.5
  0
CIRCLE
  5
587
  8
0
  6
CONTINUOUS
 62
     7
 10
70.0
 20
921.0
 30
0.0
 40
2.5
  0
CIRCLE
  5
588
  8
0
  6
CONTINUOUS
 62
     7
 10
69.9999999999998863
 20
178.5000000000001137
 30
0.0
 40
2.5
  0
CIRCLE
  5
589
  8
0
  6
CONTINUOUS
 62
     7
 10
69.9999999999998863
 20
30.0
 30
0.0
 40
2.4999999999999432
  0
CIRCLE
  5
58A
  8
0
  6
CONTINUOUS
 62
     7
 10
69.9999999999998863
 20
475.4999999999998863
 30
0.0
 40
2.5
  0
CIRCLE
  5
58B
  8
0
  6
CONTINUOUS
 62
     7
 10
69.9999999999998863
 20
624.0
 30
0.0
 40
2.4999999999998859
  0
CIRCLE
  5
58C
  8
0
  6
CONTINUOUS
 62
     7
 10
69.9999999999998863
 20
772.5
 30
0.0
 40
2.5
  0
CIRCLE
  5
58D
  8
0
  6
CONTINUOUS
 62
     7
 10
52.9999999999998934
 20
30.0
 30
0.0
 40
4.2499999999999707
  0
CIRCLE
  5
58E
  8
0
  6
CONTINUOUS
 62
     7
 10
52.9999999999998934
 20
475.4999999999998863
 30
0.0
 40
4.25
  0
CIRCLE
  5
58F
  8
0
  6
CONTINUOUS
 62
     7
 10
52.9999999999998934
 20
624.0
 30
0.0
 40
4.2499999999998863
  0
CIRCLE
  5
590
  8
0
  6
CONTINUOUS
 62
     7
 10
53.0
 20
1069.5
 30
0.0
 40
4.25
  0
LINE
  5
591
  8
0
  6
CONTINUOUS
 62
     7
 10
47.9999999999998934
 20
25.0000000000005684
 30
0.0
 11
57.9999999999998934
 21
25.0000000000005684
 31
0.0
  0
LINE
  5
592
  8
0
  6
CONTINUOUS
 62
     7
 10
47.9999999999998934
 20
40.0
 30
0.0
 11
47.9999999999998934
 21
25.0000000000005684
 31
0.0
  0
LINE
  5
593
  8
0
  6
CONTINUOUS
 62
     7
 10
45.9999999999998792
 20
40.0
 30
0.0
 11
47.9999999999998934
 21
40.0
 31
0.0
  0
LINE
  5
594
  8
0
  6
CONTINUOUS
 62
     7
 10
45.9999999999998792
 20
40.0
 30
0.0
 11
46.0
 21
1208.0
 31
0.0
  0
LINE
  5
595
  8
0
  6
CONTINUOUS
 62
     7
 10
48.0
 20
1208.0
 30
0.0
 11
46.0
 21
1208.0
 31
0.0
  0
LINE
  5
596
  8
0
  6
CONTINUOUS
 62
     7
 10
48.0
 20
1222.9999999999990905
 30
0.0
 11
48.0
 21
1208.0
 31
0.0
  0
LINE
  5
597
  8
0
  6
CONTINUOUS
 62
     7
 10
58.0
 20
1222.9999999999990905
 30
0.0
 11
48.0
 21
1222.9999999999990905
 31
0.0
  0
CIRCLE
  5
598
  8
0
  6
CONTINUOUS
 62
     7
 10
53.0
 20
1218.0
 30
0.0
 40
4.2499999999997717
  0
CIRCLE
  5
599
  8
0
  6
CONTINUOUS
 62
     7
 10
53.0
 20
921.0
 30
0.0
 40
4.2499999999997717
  0
CIRCLE
  5
59A
  8
0
  6
CONTINUOUS
 62
     7
 10
52.9999999999998934
 20
772.5
 30
0.0
 40
4.25
  0
CIRCLE
  5
59B
  8
0
  6
CONTINUOUS
 62
     7
 10
52.9999999999998934
 20
327.0
 30
0.0
 40
4.2499999999999432
  0
CIRCLE
  5
59C
  8
0
  6
CONTINUOUS
 62
     7
 10
52.9999999999998934
 20
178.5000000000001137
 30
0.0
 40
4.25
  0
LINE
  5
59D
  8
0
  6
CONTINUOUS
 62
     7
 10
48.0
 20
1248.0
 30
0.0
 11
58.0
 21
1248.0
 31
0.0
  0
LINE
  5
59E
  8
0
  6
CONTINUOUS
 62
     7
 10
48.0
 20
1222.9999999999990905
 30
0.0
 11
48.0
 21
1248.0
 31
0.0
  0
LINE
  5
59F
  8
0
  6
CONTINUOUS
 62
     7
 10
57.9999999999998934
 20
0.0
 30
0.0
 11
47.9999999999998934
 21
0.0
 31
0.0
  0
LINE
  5
5A0
  8
0
  6
CONTINUOUS
 62
     7
 10
47.9999999999998934
 20
0.0
 30
0.0
 11
47.9999999999998934
 21
25.0000000000005684
 31
0.0
  0
LINE
  5
5A1
  8
0
  6
CONTINUOUS
 62
     7
 10
27.0000000000001208
 20
1222.9999999999990905
 30
0.0
 11
17.0000000000001101
 21
1222.9999999999990905
 31
0.0
  0
LINE
  5
5A2
  8
0
  6
CONTINUOUS
 62
     7
 10
17.0000000000001101
 20
1248.0
 30
0.0
 11
27.0000000000001208
 21
1248.0
 31
0.0
  0
LINE
  5
5A3
  8
0
  6
CONTINUOUS
 62
     7
 10
27.0000000000001208
 20
1248.0
 30
0.0
 11
27.0000000000001208
 21
1222.9999999999990905
 31
0.0
  0
CIRCLE
  5
5A4
  8
0
  6
CONTINUOUS
 62
     7
 10
22.0
 20
178.5000000000001137
 30
0.0
 40
4.25
  0
CIRCLE
  5
5A5
  8
0
  6
CONTINUOUS
 62
     7
 10
22.0000000000001101
 20
1069.5
 30
0.0
 40
4.25
  0
LINE
  5
5A6
  8
0
  6
CONTINUOUS
 62
     7
 10
29.0000000000001101
 20
1208.0
 30
0.0
 11
29.0
 21
40.0
 31
0.0
  0
LINE
  5
5A7
  8
0
  6
CONTINUOUS
 62
     7
 10
27.0
 20
40.0
 30
0.0
 11
29.0
 21
40.0
 31
0.0
  0
LINE
  5
5A8
  8
0
  6
CONTINUOUS
 62
     7
 10
27.0
 20
25.0000000000005684
 30
0.0
 11
27.0
 21
40.0
 31
0.0
  0
LINE
  5
5A9
  8
0
  6
CONTINUOUS
 62
     7
 10
17.0
 20
25.0000000000005684
 30
0.0
 11
27.0
 21
25.0000000000005684
 31
0.0
  0
LINE
  5
5AA
  8
0
  6
CONTINUOUS
 62
     7
 10
29.0000000000001101
 20
1208.0
 30
0.0
 11
27.0000000000001208
 21
1208.0
 31
0.0
  0
CIRCLE
  5
5AB
  8
0
  6
CONTINUOUS
 62
     7
 10
22.0000000000001101
 20
1218.0
 30
0.0
 40
4.2499999999997717
  0
CIRCLE
  5
5AC
  8
0
  6
CONTINUOUS
 62
     7
 10
22.0000000000001101
 20
921.0
 30
0.0
 40
4.2499999999997717
  0
CIRCLE
  5
5AD
  8
0
  6
CONTINUOUS
 62
     7
 10
22.0000000000001101
 20
772.5
 30
0.0
 40
4.25
  0
CIRCLE
  5
5AE
  8
0
  6
CONTINUOUS
 62
     7
 10
22.0000000000001101
 20
624.0
 30
0.0
 40
4.2499999999998863
  0
CIRCLE
  5
5AF
  8
0
  6
CONTINUOUS
 62
     7
 10
22.0000000000001101
 20
475.4999999999998863
 30
0.0
 40
4.25
  0
CIRCLE
  5
5B0
  8
0
  6
CONTINUOUS
 62
     7
 10
22.0000000000001101
 20
327.0
 30
0.0
 40
4.2499999999999432
  0
CIRCLE
  5
5B1
  8
0
  6
CONTINUOUS
 62
     7
 10
22.0
 20
30.0
 30
0.0
 40
4.2499999999999707
  0
LINE
  5
5B2
  8
0
  6
CONTINUOUS
 62
     7
 10
27.0000000000001208
 20
1208.0
 30
0.0
 11
27.0000000000001208
 21
1222.9999999999990905
 31
0.0
  0
LINE
  5
5B3
  8
0
  6
CONTINUOUS
 62
     7
 10
27.0
 20
0.0
 30
0.0
 11
17.0
 21
0.0
 31
0.0
  0
LINE
  5
5B4
  8
0
  6
CONTINUOUS
 62
     7
 10
27.0
 20
25.0000000000005684
 30
0.0
 11
27.0
 21
0.0
 31
0.0
  0
CIRCLE
  5
5B5
  8
0
  6
CONTINUOUS
 62
     7
 10
22.0000000000001101
 20
475.4999999999998863
 30
0.0
 40
2.75
  0
CIRCLE
  5
5B6
  8
0
  6
CONTINUOUS
 62
     7
 10
52.9999999999998934
 20
327.0
 30
0.0
 40
2.7499999999999432
  0
CIRCLE
  5
5B7
  8
0
  6
CONTINUOUS
 62
     7
 10
22.0000000000001101
 20
327.0
 30
0.0
 40
2.7499999999999432
  0
CIRCLE
  5
5B8
  8
0
  6
CONTINUOUS
 62
     7
 10
52.9999999999998934
 20
475.4999999999998863
 30
0.0
 40
2.75
  0
CIRCLE
  5
5B9
  8
0
  6
CONTINUOUS
 62
     7
 10
52.9999999999998934
 20
178.5000000000001137
 30
0.0
 40
2.75
  0
CIRCLE
  5
5BA
  8
0
  6
CONTINUOUS
 62
     7
 10
22.0000000000001101
 20
624.0
 30
0.0
 40
2.75
  0
CIRCLE
  5
5BB
  8
0
  6
CONTINUOUS
 62
     7
 10
52.9999999999998934
 20
772.5
 30
0.0
 40
2.7500000000001128
  0
CIRCLE
  5
5BC
  8
0
  6
CONTINUOUS
 62
     7
 10
22.0
 20
178.5000000000001137
 30
0.0
 40
2.75
  0
CIRCLE
  5
5BD
  8
0
  6
CONTINUOUS
 62
     7
 10
22.0000000000001101
 20
772.5
 30
0.0
 40
2.7500000000001128
  0
CIRCLE
  5
5BE
  8
0
  6
CONTINUOUS
 62
     7
 10
52.9999999999998934
 20
30.0
 30
0.0
 40
2.750000000000028
  0
CIRCLE
  5
5BF
  8
0
  6
CONTINUOUS
 62
     7
 10
52.9999999999998934
 20
624.0
 30
0.0
 40
2.75
  0
CIRCLE
  5
5C0
  8
0
  6
CONTINUOUS
 62
     7
 10
22.0
 20
30.0
 30
0.0
 40
2.750000000000028
  0
CIRCLE
  5
5C1
  8
0
  6
CONTINUOUS
 62
     7
 10
53.0
 20
1218.0
 30
0.0
 40
2.75
  0
CIRCLE
  5
5C2
  8
0
  6
CONTINUOUS
 62
     7
 10
22.0000000000001101
 20
1218.0
 30
0.0
 40
2.75
  0
CIRCLE
  5
5C3
  8
0
  6
CONTINUOUS
 62
     7
 10
53.0
 20
1069.5
 30
0.0
 40
2.75
  0
CIRCLE
  5
5C4
  8
0
  6
CONTINUOUS
 62
     7
 10
22.0000000000001101
 20
1069.5
 30
0.0
 40
2.75
  0
CIRCLE
  5
5C5
  8
0
  6
CONTINUOUS
 62
     7
 10
53.0
 20
921.0
 30
0.0
 40
2.75
  0
CIRCLE
  5
5C6
  8
0
  6
CONTINUOUS
 62
     7
 10
22.0000000000001101
 20
921.0
 30
0.0
 40
2.75
  0
LINE
  5
5C7
  8
0
  6
CONTINUOUS
 62
     7
 10
46.0
 20
1208.0
 30
0.0
 11
29.0000000000001101
 21
1208.0
 31
0.0
  0
LINE
  5
5C8
  8
0
  6
CONTINUOUS
 62
     7
 10
29.0
 20
40.0
 30
0.0
 11
45.9999999999998792
 21
40.0
 31
0.0
  0
POLYLINE
  5
5D0
  8
0
 66
     1
 10
0.0
 20
0.0
 30
0.0
 70
     1
  0
VERTEX
  5
65D
  8
0
 10
0.0
 20
-3.0
 30
0.0
  0
VERTEX
  5
65E
  8
0
 10
9.5
 20
-3.0
 30
0.0
  0
VERTEX
  5
65F
  8
0
 10
9.5
 20
1251.0
 30
0.0
  0
VERTEX
  5
660
  8
0
 10
0.0
 20
1251.0
 30
0.0
  0
SEQEND
  5
661
  8
0
  0
POLYLINE
  5
5D1
  8
0
 66
     1
 10
0.0
 20
0.0
 30
0.0
 70
     1
  0
VERTEX
  5
662
  8
0
 10
75.0
 20
-3.0
 30
0.0
  0
VERTEX
  5
663
  8
0
 10
65.5
 20
-3.0
 30
0.0
  0
VERTEX
  5
664
  8
0
 10
65.5
 20
1251.0
 30
0.0
  0
VERTEX
  5
665
  8
0
 10
75.0
 20
1251.0
 30
0.0
  0
SEQEND
  5
666
  8
0
  0
POLYLINE
  5
5D2
  8
0
 66
     1
 10
0.0
 20
0.0
 30
0.0
 70
     1
  0
VERTEX
  5
667
  8
0
 10
17.0
 20
-3.0
 30
0.0
  0
VERTEX
  5
668
  8
0
 10
58.0
 20
-3.0
 30
0.0
  0
VERTEX
  5
669
  8
0
 10
58.0
 20
1251.0
 30
0.0
  0
VERTEX
  5
66A
  8
0
 10
17.0
 20
1251.0
 30
0.0
  0
SEQEND
  5
66B
  8
0
  0
POLYLINE
  5
5E0
  8
0
 66
     1
 10
0.0
 20
0.0
 30
0.0
 70
     1
  0
VERTEX
  5
66C
  8
0
 10
29.0
 20
-3.0
 30
0.0
  0
VERTEX
  5
66D
  8
0
 10
46.0
 20
-3.0
 30
0.0
  0
VERTEX
  5
66E
  8
0
 10
46.0
 20
1251.0
 30
0.0
  0
VERTEX
  5
66F
  8
0
 10
29.0
 20
1251.0
 30
0.0
  0
SEQEND
  5
670
  8
0
  0
POLYLINE
  5
5ED
  8
0
 66
     1
 10
0.0
 20
0.0
 30
0.0
 70
     1
  0
VERTEX
  5
671
  8
0
 10
27.0000000000001208
 20
1248.0
 30
0.0
  0
VERTEX
  5
672
  8
0
 10
0.0000000000001137
 20
1248.0
 30
0.0
  0
VERTEX
  5
673
  8
0
 10
0.0
 20
0.0
 30
0.0
  0
VERTEX
  5
674
  8
0
 10
27.0
 20
0.0
 30
0.0
  0
VERTEX
  5
675
  8
0
 10
27.0
 20
40.0
 30
0.0
  0
VERTEX
  5
676
  8
0
 10
47.9999999999998934
 20
40.0
 30
0.0
  0
VERTEX
  5
677
  8
0
 10
47.9999999999998934
 20
0.0
 30
0.0
  0
VERTEX
  5
678
  8
0
 10
74.9999999999998863
 20
0.0
 30
0.0
  0
VERTEX
  5
679
  8
0
 10
75.0
 20
1248.0
 30
0.0
  0
VERTEX
  5
67A
  8
0
 10
48.0
 20
1248.0
 30
0.0
  0
VERTEX
  5
67B
  8
0
 10
48.0
 20
1208.0
 30
0.0
  0
VERTEX
  5
67C
  8
0
 10
27.0000000000001208
 20
1208.0
 30
0.0
  0
SEQEND
  5
67D
  8
0
  0
ENDSEC
  0
EOF
