  0
SECTION
  2
HEADER
  9
$ACADVER
  1
AC1009
  9
$INSBASE
 10
0.0
 20
0.0
 30
0.0
  9
$EXTMIN
 10
-2468.5268181063488555
 20
0.0
 30
0.0
  9
$EXTMAX
 10
3853.9140756603269438
 20
3853.9140756603269438
 30
0.0
  9
$LIMMIN
 10
0.0
 20
0.0
  9
$LIMMAX
 10
420.0
 20
297.0
  9
$ORTHOMODE
 70
     1
  9
$REGENMODE
 70
     1
  9
$FILLMODE
 70
     1
  9
$QTEXTMODE
 70
     0
  9
$MIRRTEXT
 70
     0
  9
$DRAGMODE
 70
     2
  9
$LTSCALE
 40
1.0
  9
$OSMODE
 70
   353
  9
$ATTMODE
 70
     1
  9
$TEXTSIZE
 40
2.5
  9
$TRACEWID
 40
1.0
  9
$TEXTSTYLE
  7
STANDARD
  9
$CLAYER
  8
0
  9
$CELTYPE
  6
BYLAYER
  9
$CECOLOR
 62
   256
  9
$DIMSCALE
 40
1.0
  9
$DIMASZ
 40
2.5
  9
$DIMEXO
 40
0.625
  9
$DIMDLI
 40
3.75
  9
$DIMRND
 40
0.0
  9
$DIMDLE
 40
0.0
  9
$DIMEXE
 40
1.25
  9
$DIMTP
 40
0.0
  9
$DIMTM
 40
0.0
  9
$DIMTXT
 40
2.5
  9
$DIMCEN
 40
2.5
  9
$DIMTSZ
 40
0.0
  9
$DIMTOL
 70
     0
  9
$DIMLIM
 70
     0
  9
$DIMTIH
 70
     0
  9
$DIMTOH
 70
     0
  9
$DIMSE1
 70
     0
  9
$DIMSE2
 70
     0
  9
$DIMTAD
 70
     1
  9
$DIMZIN
 70
     8
  9
$DIMBLK
  1

  9
$DIMASO
 70
     1
  9
$DIMSHO
 70
     1
  9
$DIMPOST
  1

  9
$DIMAPOST
  1

  9
$DIMALT
 70
     0
  9
$DIMALTD
 70
     3
  9
$DIMALTF
 40
0.03937007874016
  9
$DIMLFAC
 40
1.0
  9
$DIMTOFL
 70
     1
  9
$DIMTVP
 40
0.0
  9
$DIMTIX
 70
     0
  9
$DIMSOXD
 70
     0
  9
$DIMSAH
 70
     0
  9
$DIMBLK1
  1

  9
$DIMBLK2
  1

  9
$DIMSTYLE
  2
ISO-25
  9
$DIMCLRD
 70
     0
  9
$DIMCLRE
 70
     0
  9
$DIMCLRT
 70
     0
  9
$DIMTFAC
 40
1.0
  9
$DIMGAP
 40
0.625
  9
$LUNITS
 70
     2
  9
$LUPREC
 70
     4
  9
$SKETCHINC
 40
1.0
  9
$FILLETRAD
 40
0.0
  9
$AUNITS
 70
     0
  9
$AUPREC
 70
     0
  9
$MENU
  1
.
  9
$ELEVATION
 40
0.0
  9
$PELEVATION
 40
0.0
  9
$THICKNESS
 40
0.0
  9
$LIMCHECK
 70
     0
  9
$BLIPMODE
 70
     0
  9
$CHAMFERA
 40
0.0
  9
$CHAMFERB
 40
0.0
  9
$SKPOLY
 70
     0
  9
$TDCREATE
 40
2460270.5900231478735805
  9
$TDUPDATE
 40
2460270.5923726852051914
  9
$TDINDWG
 40
0.002349537
  9
$TDUSRTIMER
 40
0.002349537
  9
$USRTIMER
 70
     1
  9
$ANGBASE
 50
0.0
  9
$ANGDIR
 70
     0
  9
$PDMODE
 70
     0
  9
$PDSIZE
 40
0.0
  9
$PLINEWID
 40
0.0
  9
$COORDS
 70
     1
  9
$SPLFRAME
 70
     0
  9
$SPLINETYPE
 70
     6
  9
$SPLINESEGS
 70
     8
  9
$ATTDIA
 70
     1
  9
$ATTREQ
 70
     1
  9
$HANDLING
 70
     1
  9
$HANDSEED
  5
431
  9
$SURFTAB1
 70
     6
  9
$SURFTAB2
 70
     6
  9
$SURFTYPE
 70
     6
  9
$SURFU
 70
     6
  9
$SURFV
 70
     6
  9
$UCSNAME
  2

  9
$UCSORG
 10
0.0
 20
0.0
 30
0.0
  9
$UCSXDIR
 10
1.0
 20
0.0
 30
0.0
  9
$UCSYDIR
 10
0.0
 20
1.0
 30
0.0
  9
$PUCSNAME
  2

  9
$PUCSORG
 10
0.0
 20
0.0
 30
0.0
  9
$PUCSXDIR
 10
1.0
 20
0.0
 30
0.0
  9
$PUCSYDIR
 10
0.0
 20
1.0
 30
0.0
  9
$USERI1
 70
     0
  9
$USERI2
 70
     0
  9
$USERI3
 70
     0
  9
$USERI4
 70
     0
  9
$USERI5
 70
     0
  9
$USERR1
 40
0.0
  9
$USERR2
 40
0.0
  9
$USERR3
 40
0.0
  9
$USERR4
 40
0.0
  9
$USERR5
 40
0.0
  9
$WORLDVIEW
 70
     1
  9
$SHADEDGE
 70
     3
  9
$SHADEDIF
 70
    70
  9
$TILEMODE
 70
     1
  9
$MAXACTVP
 70
    64
  9
$PLIMCHECK
 70
     0
  9
$PEXTMIN
 10
0.0
 20
0.0
 30
0.0
  9
$PEXTMAX
 10
0.0
 20
0.0
 30
0.0
  9
$PLIMMIN
 10
0.0
 20
0.0
  9
$PLIMMAX
 10
12.0
 20
9.0
  9
$UNITMODE
 70
     0
  9
$VISRETAIN
 70
     1
  9
$PLINEGEN
 70
     0
  9
$PSLTSCALE
 70
     1
  0
ENDSEC
  0
SECTION
  2
TABLES
  0
TABLE
  2
VPORT
 70
     1
  0
VPORT
  2
*ACTIVE
 70
     0
 10
0.0
 20
0.0
 11
1.0
 21
1.0
 12
-618.5803305632933871
 22
1252.3260557190760665
 13
0.0
 23
0.0
 14
10.0
 24
10.0
 15
10.0
 25
10.0
 16
0.0
 26
0.0
 36
1.0
 17
0.0
 27
0.0
 37
0.0
 40
3570.9425298726077926
 41
2.2103448275862059
 42
50.0
 43
0.0
 44
0.0
 50
0.0
 51
0.0
 71
     0
 72
  1000
 73
     1
 74
     3
 75
     0
 76
     1
 77
     0
 78
     0
  0
ENDTAB
  0
TABLE
  2
LTYPE
 70
     4
  0
LTYPE
  2
CONTINUOUS
 70
     0
  3
Solid line
 72
    65
 73
     0
 40
0.0
  0
LTYPE
  2
CHAIN
 70
     0
  3
Chain ____ _ ____ _ ____ _ ____ _ ____ _ ____
 72
    65
 73
     4
 40
0.7087
 49
0.4724000000000001
 49
-0.0591
 49
0.1181
 49
-0.0591
  0
ENDTAB
  0
TABLE
  2
LAYER
 70
     8
  0
LAYER
  2
0
 70
     0
 62
     7
  6
CONTINUOUS
  0
LAYER
  2
CENTER_MARK__ISO_
 70
     0
 62
     7
  6
CONTINUOUS
  0
LAYER
  2
CENTERLINE__ISO_
 70
     0
 62
     7
  6
CONTINUOUS
  0
LAYER
  2
DETAIL_BOUNDARY__ISO_
 70
     0
 62
     7
  6
CONTINUOUS
  0
LAYER
  2
DIMENSION__ISO_
 70
     0
 62
     7
  6
CONTINUOUS
  0
LAYER
  2
SYMBOL__ISO_
 70
     0
 62
     7
  6
CONTINUOUS
  0
LAYER
  2
VISIBLE__ISO_
 70
     0
 62
     7
  6
CONTINUOUS
  0
LAYER
  2
DEFPOINTS
 70
     0
 62
     7
  6
CONTINUOUS
  0
ENDTAB
  0
TABLE
  2
STYLE
 70
     6
  0
STYLE
  2
STANDARD
 70
     0
 40
0.0
 41
1.0
 50
0.0
 71
     0
 42
2.5
  3
txt
  4

  0
STYLE
  2
ANNOTATIVE
 70
     0
 40
0.0
 41
1.0
 50
0.0
 71
     0
 42
2.5
  3
txt
  4

  0
STYLE
  2
LABEL_TEXT__ANSI_
 70
     0
 40
0.0
 41
1.0
 50
0.0
 71
     0
 42
0.2
  3
txt
  4

  0
STYLE
  2
NOTE_TEXT__ANSI_
 70
     0
 40
0.0
 41
1.0
 50
0.0
 71
     0
 42
0.2
  3
txt
  4

  0
STYLE
  2
MtXpl_Tahoma
 70
     0
 40
0.0
 41
1.0
 50
0.0
 71
     0
 42
2.5
  3
txt
  4

  0
STYLE
  2
MtXpl_AIGDT
 70
     0
 40
0.0
 41
1.0
 50
0.0
 71
     0
 42
2.5
  3
txt
  4

  0
ENDTAB
  0
TABLE
  2
VIEW
 70
     0
  0
ENDTAB
  0
TABLE
  2
UCS
 70
     0
  0
ENDTAB
  0
TABLE
  2
APPID
 70
     9
  0
APPID
  2
ACAD
 70
     0
  0
APPID
  2
ACAD_PSEXT
 70
     0
  0
APPID
  2
ACADANNOPO
 70
     0
  0
APPID
  2
ACADANNOTATIVE
 70
     0
  0
APPID
  2
ACAD_DSTYLE_DIMJAG
 70
     0
  0
APPID
  2
ACAD_DSTYLE_DIMTALN
 70
     0
  0
APPID
  2
ACAD_MLEADERVER
 70
     0
  0
APPID
  2
ACAD_NAV_VCDISPLAY
 70
     0
  0
APPID
  2
ACAD_EXEMPT_FROM_CAD_STANDARDS
 70
     0
  0
ENDTAB
  0
TABLE
  2
DIMSTYLE
 70
     9
  0
DIMSTYLE
  2
STANDARD
 70
     0
  3

  4

  5

  6

  7

 40
1.0
 41
0.18
 42
0.0625
 43
0.38
 44
0.18
 45
0.0
 46
0.0
 47
0.0
 48
0.0
140
0.18
141
0.09
142
0.0
143
25.3999999999999986
144
1.0
145
0.0
146
1.0
147
0.09
 71
     0
 72
     0
 73
     1
 74
     1
 75
     0
 76
     0
 77
     0
 78
     0
170
     0
171
     2
172
     0
173
     0
174
     0
175
     0
176
     0
177
     0
178
     0
  0
DIMSTYLE
  2
ANNOTATIVE
 70
     0
  3

  4

  5

  6

  7

 40
0.0
 41
2.5
 42
0.625
 43
3.75
 44
1.25
 45
0.0
 46
0.0
 47
0.0
 48
0.0
140
2.5
141
2.5
142
0.0
143
0.03937007874016
144
1.0
145
0.0
146
1.0
147
0.625
 71
     0
 72
     0
 73
     0
 74
     0
 75
     0
 76
     0
 77
     1
 78
     8
170
     0
171
     3
172
     1
173
     0
174
     0
175
     0
176
     0
177
     0
178
     0
  0
DIMSTYLE
  2
ISO-25
 70
     0
  3

  4

  5

  6

  7

 40
1.0
 41
2.5
 42
0.625
 43
3.75
 44
1.25
 45
0.0
 46
0.0
 47
0.0
 48
0.0
140
2.5
141
2.5
142
0.0
143
0.03937007874016
144
1.0
145
0.0
146
1.0
147
0.625
 71
     0
 72
     0
 73
     0
 74
     0
 75
     0
 76
     0
 77
     1
 78
     8
170
     0
171
     3
172
     1
173
     0
174
     0
175
     0
176
     0
177
     0
178
     0
  0
DIMSTYLE
  2
INTRALOX_ALIGNED_X_X__X_XX
 70
     0
  3

  4

  5

  6

  7

 40
4.0
 41
2.5
 42
1.587499999999999
 43
5.9999999999999991
 44
3.174999999999998
 45
0.00000001
 46
10.0
 47
0.0
 48
0.0
140
2.539999961853026
141
0.09
142
0.0
143
0.03937
144
1.0
145
0.0
146
1.2000000476837149
147
0.8
 71
     0
 72
     0
 73
     1
 74
     1
 75
     0
 76
     0
 77
     0
 78
     0
170
     1
171
     2
172
     1
173
     0
174
     0
175
     0
176
   256
177
   256
178
   256
  0
DIMSTYLE
  2
INTRALOX_HOLE_CALLOUT__MET
 70
     0
  3
 mm
  4
 in
  5

  6

  7

 40
4.0
 41
2.5
 42
1.587499999999999
 43
5.9999999999999991
 44
3.174999999999998
 45
0.00000001
 46
10.0
 47
0.0
 48
0.0
140
2.539999961853026
141
0.09
142
0.0
143
0.03937
144
1.0
145
0.0
146
1.2000000476837149
147
0.8
 71
     0
 72
     0
 73
     1
 74
     1
 75
     0
 76
     0
 77
     0
 78
     8
170
     0
171
     2
172
     1
173
     0
174
     0
175
     0
176
   256
177
   256
178
   256
  0
DIMSTYLE
  2
INTRALOX_X_X__X_XX__MM-INC
 70
     0
  3

  4

  5

  6

  7

 40
4.0
 41
2.5
 42
1.587499999999999
 43
5.9999999999999991
 44
3.174999999999998
 45
0.00000001
 46
10.0
 47
0.0
 48
0.0
140
2.539999961853026
141
0.09
142
0.0
143
0.03937
144
1.0
145
0.0
146
1.2000000476837149
147
0.8
 71
     0
 72
     0
 73
     1
 74
     1
 75
     0
 76
     0
 77
     0
 78
     0
170
     1
171
     2
172
     1
173
     0
174
     0
175
     0
176
   256
177
   256
178
   256
  0
DIMSTYLE
  2
INTRALOX_X_XX__X_XXX__MM-I
 70
     0
  3

  4

  5

  6

  7

 40
4.0
 41
2.5
 42
1.587499999999999
 43
5.9999999999999991
 44
3.174999999999998
 45
0.00000001
 46
17.7800000000000011
 47
0.0
 48
0.0
140
2.539999961853026
141
0.09
142
0.0
143
0.03937
144
1.0
145
0.0
146
1.2000000476837149
147
0.8
 71
     0
 72
     0
 73
     1
 74
     1
 75
     0
 76
     0
 77
     0
 78
     8
170
     1
171
     3
172
     1
173
     0
174
     0
175
     0
176
   256
177
   256
178
   256
  0
ENDTAB
  0
ENDSEC
  0
SECTION
  2
BLOCKS
  0
BLOCK
  8
0
  2
$MODEL_SPACE
 70
     0
 10
0.0
 20
0.0
 30
0.0
  3
$MODEL_SPACE
  1

  0
ENDBLK
  5
21
  8
0
  0
BLOCK
 67
     1
  8
0
  2
$PAPER_SPACE
 70
     0
 10
0.0
 20
0.0
 30
0.0
  3
$PAPER_SPACE
  1

  0
ENDBLK
  5
D5
 67
     1
  8
0
  0
BLOCK
  8
0
  2
_CLOSED
 70
     0
 10
0.0
 20
0.0
 30
0.0
  3
_CLOSED
  1

  0
LINE
  5
297
  8
0
  6
BYBLOCK
 62
     0
 10
-1.0
 20
0.1666666666666666
 30
0.0
 11
0.0
 21
0.0
 31
0.0
  0
LINE
  5
298
  8
0
  6
BYBLOCK
 62
     0
 10
0.0
 20
0.0
 30
0.0
 11
-1.0
 21
-0.1666666666666666
 31
0.0
  0
LINE
  5
299
  8
0
  6
BYBLOCK
 62
     0
 10
-1.0
 20
0.1666666666666666
 30
0.0
 11
-1.0
 21
-0.1666666666666666
 31
0.0
  0
LINE
  5
29A
  8
0
  6
BYBLOCK
 62
     0
 10
0.0
 20
0.0
 30
0.0
 11
-1.0
 21
0.0
 31
0.0
  0
ENDBLK
  5
29B
  8
0
  0
BLOCK
  8
0
  2
*D2
 70
     1
 10
0.0
 20
0.0
 30
0.0
  3
*D2
  1

  0
LINE
  5
29E
  8
DIMENSION__ISO_
 10
112.388756837011897
 20
445.294758997323072
 30
0.0
 11
112.388756837011897
 21
502.4049589973229217
 31
0.0
  0
LINE
  5
29F
  8
DIMENSION__ISO_
 10
739.6137568370119197
 20
399.8457589973227755
 30
0.0
 11
739.6137568370119197
 21
502.4049589973229217
 31
0.0
  0
LINE
  5
2A0
  8
DIMENSION__ISO_
 10
122.388756837011897
 20
489.7049589973228194
 30
0.0
 11
377.565717177354486
 21
489.7049589973228194
 31
0.0
  0
LINE
  5
2A1
  8
DIMENSION__ISO_
 10
729.6137568370119197
 20
489.7049589973228194
 30
0.0
 11
474.4367964966692739
 21
489.7049589973228194
 31
0.0
  0
SOLID
  5
2A2
  8
DIMENSION__ISO_
 10
122.388756837011897
 20
491.371625663989505
 30
0.0
 11
122.388756837011897
 21
488.038292330656077
 31
0.0
 12
112.388756837011897
 22
489.7049589973228194
 32
0.0
 13
112.388756837011897
 23
489.7049589973228194
 33
0.0
  0
SOLID
  5
2A3
  8
DIMENSION__ISO_
 10
729.6137568370119197
 20
491.371625663989505
 30
0.0
 11
729.6137568370119197
 21
488.038292330656077
 31
0.0
 12
739.6137568370119197
 22
489.7049589973228194
 32
0.0
 13
739.6137568370119197
 23
489.7049589973228194
 33
0.0
  0
INSERT
  5
2A4
  8
0
  2
*U8
 10
0.0
 20
0.0
 30
0.0
  0
POINT
  5
2A5
  8
DEFPOINTS
 62
     0
 10
112.388756837011897
 20
438.9447589973228787
 30
0.0
  0
POINT
  5
2A6
  8
DEFPOINTS
 62
     0
 10
739.6137568370119197
 20
393.4957589973229233
 30
0.0
  0
POINT
  5
2A7
  8
DEFPOINTS
 62
     0
 10
739.6137568370119197
 20
489.7049589973228194
 30
0.0
  0
ENDBLK
  5
2A8
  8
0
  0
BLOCK
  8
0
  2
2DDETAIL0
 70
     0
 10
0.0
 20
0.0
 30
0.0
  3
2DDETAIL0
  1

  0
INSERT
  5
2AB
  8
0
  2
*U9
 10
0.0
 20
0.0
 30
0.0
  0
LINE
  5
2AC
  8
DETAIL_BOUNDARY__ISO_
  6
CONTINUOUS
 10
209.1758637494145034
 20
87.3300135371740964
 30
0.0
 11
204.1758637494145034
 21
87.3300135371740964
 31
0.0
  0
POLYLINE
  5
2AD
  8
DETAIL_BOUNDARY__ISO_
  6
CONTINUOUS
 66
     1
 10
0.0
 20
0.0
 30
0.0
 70
   128
  0
VERTEX
  5
2AE
  8
DETAIL_BOUNDARY__ISO_
  6
CONTINUOUS
 10
209.1758728027344034
 20
88.3300113677978516
 30
0.0
  0
VERTEX
  5
2AF
  8
DETAIL_BOUNDARY__ISO_
  6
CONTINUOUS
 10
204.1758728027344034
 20
87.33001708984375
 30
0.0
  0
VERTEX
  5
2B0
  8
DETAIL_BOUNDARY__ISO_
  6
CONTINUOUS
 10
209.1758728027344034
 20
86.3300132751464844
 30
0.0
  0
VERTEX
  5
2B1
  8
DETAIL_BOUNDARY__ISO_
  6
CONTINUOUS
 10
209.1758728027344034
 20
88.3300113677978516
 30
0.0
  0
SEQEND
  5
2B2
  8
DETAIL_BOUNDARY__ISO_
  6
CONTINUOUS
  0
SOLID
  5
2B3
  8
DETAIL_BOUNDARY__ISO_
 10
209.1758728027344034
 20
88.3300113677978516
 30
0.0
 11
204.1758728027344034
 21
87.33001708984375
 31
0.0
 12
209.1758728027344034
 22
86.3300132751464844
 32
0.0
 13
209.1758728027344034
 23
88.3300113677978516
 33
0.0
  0
LINE
  5
2B4
  8
DETAIL_BOUNDARY__ISO_
  6
CONTINUOUS
 10
209.1758637494145034
 20
88.3300135371740964
 30
0.0
 11
204.1758637494145034
 21
87.3300135371740964
 31
0.0
  0
LINE
  5
2B5
  8
DETAIL_BOUNDARY__ISO_
  6
CONTINUOUS
 10
204.1758637494145034
 20
87.3300135371740964
 30
0.0
 11
209.1758637494145034
 21
86.3300135371741106
 31
0.0
  0
LINE
  5
2B6
  8
DETAIL_BOUNDARY__ISO_
  6
CONTINUOUS
 10
209.1758637494145034
 20
86.3300135371741106
 30
0.0
 11
209.1758637494145034
 21
88.3300135371740964
 31
0.0
  0
LINE
  5
2B7
  8
DETAIL_BOUNDARY__ISO_
  6
CONTINUOUS
 10
183.2109911132552043
 20
87.3300135371740964
 30
0.0
 11
188.2109911132552043
 21
87.3300135371740964
 31
0.0
  0
POLYLINE
  5
2B8
  8
DETAIL_BOUNDARY__ISO_
  6
CONTINUOUS
 66
     1
 10
0.0
 20
0.0
 30
0.0
 70
   128
  0
VERTEX
  5
2B9
  8
DETAIL_BOUNDARY__ISO_
  6
CONTINUOUS
 10
183.2109832763671875
 20
86.3300132751464844
 30
0.0
  0
VERTEX
  5
2BA
  8
DETAIL_BOUNDARY__ISO_
  6
CONTINUOUS
 10
188.2109832763671875
 20
87.33001708984375
 30
0.0
  0
VERTEX
  5
2BB
  8
DETAIL_BOUNDARY__ISO_
  6
CONTINUOUS
 10
183.2109832763671875
 20
88.3300113677978516
 30
0.0
  0
VERTEX
  5
2BC
  8
DETAIL_BOUNDARY__ISO_
  6
CONTINUOUS
 10
183.2109832763671875
 20
86.3300132751464844
 30
0.0
  0
SEQEND
  5
2BD
  8
DETAIL_BOUNDARY__ISO_
  6
CONTINUOUS
  0
SOLID
  5
2BE
  8
DETAIL_BOUNDARY__ISO_
 10
183.2109832763671875
 20
86.3300132751464844
 30
0.0
 11
188.2109832763671875
 21
87.33001708984375
 31
0.0
 12
183.2109832763671875
 22
88.3300113677978516
 32
0.0
 13
183.2109832763671875
 23
86.3300132751464844
 33
0.0
  0
LINE
  5
2BF
  8
DETAIL_BOUNDARY__ISO_
  6
CONTINUOUS
 10
183.2109911132552043
 20
86.3300135371741106
 30
0.0
 11
188.2109911132552043
 21
87.3300135371740964
 31
0.0
  0
LINE
  5
2C0
  8
DETAIL_BOUNDARY__ISO_
  6
CONTINUOUS
 10
188.2109911132552043
 20
87.3300135371740964
 30
0.0
 11
183.2109911132552043
 21
88.3300135371740964
 31
0.0
  0
LINE
  5
2C1
  8
DETAIL_BOUNDARY__ISO_
  6
CONTINUOUS
 10
183.2109911132552043
 20
88.3300135371740964
 30
0.0
 11
183.2109911132552043
 21
86.3300135371741106
 31
0.0
  0
POLYLINE
  5
2C2
  8
DETAIL_BOUNDARY__ISO_
 66
     1
 10
0.0
 20
0.0
 30
0.0
 70
   128
  0
VERTEX
  5
2C3
  8
DETAIL_BOUNDARY__ISO_
 10
209.1758640024964109
 20
87.330013987154274
 30
0.0
  0
VERTEX
  5
2C4
  8
DETAIL_BOUNDARY__ISO_
 10
210.8685703490081949
 20
87.330013987154274
 30
0.0
  0
VERTEX
  5
2C5
  8
DETAIL_BOUNDARY__ISO_
 10
210.8685703490081949
 20
102.8921523955767015
 30
0.0
  0
VERTEX
  5
2C6
  8
DETAIL_BOUNDARY__ISO_
 10
180.4209048960510131
 20
102.8921523955767015
 30
0.0
  0
VERTEX
  5
2C7
  8
DETAIL_BOUNDARY__ISO_
 10
180.4209048960510131
 20
87.330013987154274
 30
0.0
  0
VERTEX
  5
2C8
  8
DETAIL_BOUNDARY__ISO_
 10
183.21099116542959
 20
87.330013987154274
 30
0.0
  0
SEQEND
  5
2C9
  8
DETAIL_BOUNDARY__ISO_
  0
ENDBLK
  5
2CA
  8
0
  0
BLOCK
  8
0
  2
*D5
 70
     1
 10
0.0
 20
0.0
 30
0.0
  3
*D5
  1

  0
LINE
  5
357
  8
DIMENSION__ISO_
 10
2508.9140756603269438
 20
2470.0508181063478332
 30
0.0
 11
2508.9140756603269438
 21
2527.1610181063479104
 31
0.0
  0
LINE
  5
358
  8
DIMENSION__ISO_
 10
3136.1390756603259433
 20
2424.6018181063482189
 30
0.0
 11
3136.1390756603259433
 21
2527.1610181063479104
 31
0.0
  0
LINE
  5
359
  8
DIMENSION__ISO_
 10
2518.9140756603260343
 20
2514.4610181063480923
 30
0.0
 11
2774.0910357083998861
 21
2514.4610181063480923
 31
0.0
  0
LINE
  5
35A
  8
DIMENSION__ISO_
 10
3126.1390756603268528
 20
2514.4610181063480923
 30
0.0
 11
2870.962115612253001
 21
2514.4610181063480923
 31
0.0
  0
SOLID
  5
35B
  8
DIMENSION__ISO_
 10
2518.9140756603260343
 20
2516.1276847730150621
 30
0.0
 11
2518.9140756603260343
 21
2512.7943514396820319
 31
0.0
 12
2508.9140756603269438
 22
2514.4610181063480923
 32
0.0
 13
2508.9140756603269438
 23
2514.4610181063480923
 33
0.0
  0
SOLID
  5
35C
  8
DIMENSION__ISO_
 10
3126.1390756603268528
 20
2516.1276847730150621
 30
0.0
 11
3126.1390756603268528
 21
2512.7943514396820319
 31
0.0
 12
3136.1390756603259433
 22
2514.4610181063480923
 32
0.0
 13
3136.1390756603259433
 23
2514.4610181063480923
 33
0.0
  0
INSERT
  5
35D
  8
0
  2
*U14
 10
0.0
 20
0.0
 30
0.0
  0
POINT
  5
35E
  8
DEFPOINTS
 62
     0
 10
2508.9140756603269438
 20
2463.7008181063488337
 30
0.0
  0
POINT
  5
35F
  8
DEFPOINTS
 62
     0
 10
3136.1390756603259433
 20
2418.2518181063478551
 30
0.0
  0
POINT
  5
360
  8
DEFPOINTS
 62
     0
 10
3136.1390756603259433
 20
2514.4610181063480923
 30
0.0
  0
ENDBLK
  5
34C
  8
0
  0
BLOCK
  8
0
  2
*U8
 70
     1
 10
0.0
 20
0.0
 30
0.0
  3
*U8
  1

  0
TEXT
  5
3FF
  8
DIMENSION__ISO_
 10
380.1857306178985141
 20
485.9623398030695967
 30
0.0
 40
10.1599998474121094
  1
627.2 [24.694]
  7
MtXpl_Tahoma
  0
ENDBLK
  5
402
  8
0
  0
BLOCK
  8
0
  2
*U9
 70
     1
 10
0.0
 20
0.0
 30
0.0
  3
*U9
  1

  0
TEXT
  5
404
  8
DETAIL_BOUNDARY__ISO_
 10
194.2486690751960055
 20
85.044013583427315
 30
0.0
 40
4.5719999074935904
  1
A
  7
MtXpl_Tahoma
  0
ENDBLK
  5
406
  8
0
  0
BLOCK
  8
0
  2
*U10
 70
     1
 10
0.0
 20
0.0
 30
0.0
  3
*U10
  1

  0
TEXT
  5
409
  8
SYMBOL__ISO_
 10
937.2179948358613046
 20
38.9466703319549765
 30
0.0
 40
10.1600003242492605
  1
8X  
  7
MtXpl_Tahoma
  0
TEXT
  5
40A
  8
SYMBOL__ISO_
 10
961.693428793606131
 20
38.9466703319549765
 30
0.0
 40
10.1600000000000001
  1
n
  7
MtXpl_AIGDT
  0
TEXT
  5
40C
  8
SYMBOL__ISO_
 10
973.3954524466940939
 20
38.9466703319549765
 30
0.0
 40
10.1600000000000001
  1
6.6 mm THRU
  7
MtXpl_Tahoma
  0
TEXT
  5
40D
  8
SYMBOL__ISO_
 10
936.9953027842586835
 20
21.1666685533523697
 30
0.0
 40
10.1600000000000001
  1
n
  7
MtXpl_AIGDT
  0
TEXT
  5
40E
  8
SYMBOL__ISO_
 10
948.6973264373468737
 20
21.1666685533523697
 30
0.0
 40
10.1600000000000001
  1
14.5 mm C'SINK X 90°
  7
MtXpl_Tahoma
  0
TEXT
  5
40F
  8
SYMBOL__ISO_
 10
936.6925952549306658
 20
3.3866667747497572
 30
0.0
 40
10.1600000000000001
  1
NEAR SIDE
  7
MtXpl_Tahoma
  0
ENDBLK
  5
411
  8
0
  0
BLOCK
  8
0
  2
*U11
 70
     1
 10
0.0
 20
0.0
 30
0.0
  3
*U11
  1

  0
SOLID
  5
413
  8
SYMBOL__ISO_
 10
878.1449460527755946
 20
85.103389759242063
 30
0.0
 11
871.9782767913725365
 21
93.1501262404649282
 31
0.0
 12
880.4213649514748568
 22
87.5383493294929451
 32
0.0
 13
880.4213649514748568
 23
87.5383493294929451
 33
0.0
  0
POLYLINE
  5
414
  8
SYMBOL__ISO_
 66
     1
 10
0.0
 20
0.0
 30
0.0
  0
VERTEX
  5
415
  8
SYMBOL__ISO_
 10
879.2831555021252825
 20
86.3208695443675111
 30
0.0
  0
VERTEX
  5
416
  8
SYMBOL__ISO_
 10
924.522924334850245
 20
44.0266704940796103
 30
0.0
  0
VERTEX
  5
417
  8
SYMBOL__ISO_
 10
934.522924334850245
 20
44.0266704940796103
 30
0.0
  0
SEQEND
  5
418
  8
SYMBOL__ISO_
  0
ENDBLK
  5
41A
  8
0
  0
BLOCK
  8
0
  2
*U12
 70
     1
 10
0.0
 20
0.0
 30
0.0
  3
*U12
  1

  0
TEXT
  5
41C
  8
SYMBOL__ISO_
 10
324.9540396927325787
 20
34.4983822316847935
 30
0.0
 40
10.1600003242492605
  1
 
  7
MtXpl_Tahoma
  0
TEXT
  5
41D
  8
SYMBOL__ISO_
 10
329.3209975218255749
 20
34.4983822316847935
 30
0.0
 40
10.1600000000000001
  1
n
  7
MtXpl_AIGDT
  0
TEXT
  5
41E
  8
SYMBOL__ISO_
 10
341.0230211749137084
 20
34.4983822316847935
 30
0.0
 40
10.1600000000000001
  1
20 mm THRU
  7
MtXpl_Tahoma
  0
ENDBLK
  5
420
  8
0
  0
BLOCK
  8
0
  2
*U13
 70
     1
 10
0.0
 20
0.0
 30
0.0
  3
*U13
  1

  0
SOLID
  5
422
  8
SYMBOL__ISO_
 10
277.4926235536793797
 20
113.5221776550037021
 30
0.0
 11
275.0012176229515717
 21
123.3492155742402048
 31
0.0
 12
280.5451003960951084
 22
114.8613924389821932
 32
0.0
 13
280.5451003960951084
 23
114.8613924389821932
 33
0.0
  0
POLYLINE
  5
423
  8
SYMBOL__ISO_
 66
     1
 10
0.0
 20
0.0
 30
0.0
  0
VERTEX
  5
424
  8
SYMBOL__ISO_
 10
279.0188619748872725
 20
114.1917850469930045
 30
0.0
  0
VERTEX
  5
425
  8
SYMBOL__ISO_
 10
311.7540396927325901
 20
39.5783823938094201
 30
0.0
  0
VERTEX
  5
426
  8
SYMBOL__ISO_
 10
321.7540396927325901
 20
39.5783823938094201
 30
0.0
  0
SEQEND
  5
427
  8
SYMBOL__ISO_
  0
ENDBLK
  5
429
  8
0
  0
BLOCK
  8
0
  2
*U14
 70
     1
 10
0.0
 20
0.0
 30
0.0
  3
*U14
  1

  0
TEXT
  5
42B
  8
DIMENSION__ISO_
 10
2776.7110491489452215
 20
2510.7183989550348997
 30
0.0
 40
10.1599998474121094
  1
627.2 [24.694]
  7
MtXpl_Tahoma
  0
ENDBLK
  5
42D
  8
0
  0
ENDSEC
  0
SECTION
  2
ENTITIES
  0
CIRCLE
  5
38A
  8
VISIBLE__ISO_
 10
25.3350000000000399
 20
271.0830000000000837
 30
0.0
 40
10.0
  0
ARC
  5
38B
  8
VISIBLE__ISO_
 10
4.8260000000000209
 20
4.8260000000000209
 30
0.0
 40
4.8260000000000156
 50
180.0
 51
270.0
  0
ARC
  5
38C
  8
VISIBLE__ISO_
 10
4.8260000000000209
 20
1340.1739999999999782
 30
0.0
 40
4.8259999999996408
 50
90.0
 51
180.0
  0
ARC
  5
38D
  8
VISIBLE__ISO_
 10
70.9740000000001601
 20
4.8260000000000209
 30
0.0
 40
4.8260000000000041
 50
270.0
 51
0.0
  0
ARC
  5
38E
  8
VISIBLE__ISO_
 10
70.9740000000006148
 20
1340.1739999999999782
 30
0.0
 40
4.825999999999623
 50
0.0
 51
90.0
  0
LINE
  5
38F
  8
VISIBLE__ISO_
 10
0.0000000000004547
 20
1340.1739999999999782
 30
0.0
 11
0.0000000000004547
 21
4.8260000000000209
 31
0.0
  0
LINE
  5
390
  8
VISIBLE__ISO_
 10
75.8000000000006366
 20
1340.1739999999999782
 30
0.0
 11
75.8000000000001819
 21
4.8260000000000209
 31
0.0
  0
LINE
  5
391
  8
VISIBLE__ISO_
 10
70.9740000000006148
 20
1345.0
 30
0.0
 11
4.8260000000004757
 21
1345.0
 31
0.0
  0
LINE
  5
392
  8
VISIBLE__ISO_
 10
70.9740000000001601
 20
0.0
 30
0.0
 11
4.8260000000000209
 21
0.0
 31
0.0
  0
CIRCLE
  5
393
  8
VISIBLE__ISO_
 10
16.0000000000004512
 20
90.0
 30
0.0
 40
7.25
  0
CIRCLE
  5
394
  8
VISIBLE__ISO_
 10
16.0000000000004512
 20
90.0
 30
0.0
 40
3.2999999999999989
  0
CIRCLE
  5
395
  8
VISIBLE__ISO_
 10
16.0
 20
478.3333333333334281
 30
0.0
 40
7.25
  0
CIRCLE
  5
396
  8
VISIBLE__ISO_
 10
16.0
 20
478.3333333333334281
 30
0.0
 40
3.2999999999999989
  0
CIRCLE
  5
397
  8
VISIBLE__ISO_
 10
16.0
 20
866.6666666666666288
 30
0.0
 40
7.25
  0
CIRCLE
  5
398
  8
VISIBLE__ISO_
 10
16.0
 20
866.6666666666666288
 30
0.0
 40
3.2999999999999989
  0
CIRCLE
  5
399
  8
VISIBLE__ISO_
 10
16.0000000000004512
 20
1255.0
 30
0.0
 40
7.25
  0
CIRCLE
  5
39A
  8
VISIBLE__ISO_
 10
16.0000000000004512
 20
1255.0
 30
0.0
 40
3.2999999999999989
  0
ARC
  5
39B
  8
VISIBLE__ISO_
 10
50.2750000000005386
 20
631.2250000000003638
 30
0.0
 40
4.0
 50
180.0
 51
0.0
  0
LINE
  5
39C
  8
VISIBLE__ISO_
 10
54.2750000000005528
 20
713.7750000000000909
 30
0.0
 11
54.2750000000005528
 21
631.2250000000003638
 31
0.0
  0
ARC
  5
39D
  8
VISIBLE__ISO_
 10
50.2750000000005386
 20
713.7750000000000909
 30
0.0
 40
4.0
 50
0.0
 51
180.0
  0
LINE
  5
39E
  8
VISIBLE__ISO_
 10
46.2750000000005386
 20
631.2250000000003638
 30
0.0
 11
46.2750000000005386
 21
713.7749999999996362
 31
0.0
  0
CIRCLE
  5
39F
  8
VISIBLE__ISO_
 10
59.8000000000001819
 20
90.0
 30
0.0
 40
7.25
  0
CIRCLE
  5
3A0
  8
VISIBLE__ISO_
 10
59.8000000000001819
 20
90.0
 30
0.0
 40
3.2999999999999989
  0
CIRCLE
  5
3A1
  8
VISIBLE__ISO_
 10
59.8000000000001819
 20
478.3333333333334281
 30
0.0
 40
7.25
  0
CIRCLE
  5
3A2
  8
VISIBLE__ISO_
 10
59.8000000000001819
 20
478.3333333333334281
 30
0.0
 40
3.2999999999999989
  0
CIRCLE
  5
3A3
  8
VISIBLE__ISO_
 10
59.8000000000001819
 20
866.6666666666666288
 30
0.0
 40
7.25
  0
CIRCLE
  5
3A4
  8
VISIBLE__ISO_
 10
59.8000000000001819
 20
866.6666666666666288
 30
0.0
 40
3.2999999999999989
  0
CIRCLE
  5
3A5
  8
VISIBLE__ISO_
 10
59.8000000000006366
 20
1255.0
 30
0.0
 40
7.25
  0
CIRCLE
  5
3A6
  8
VISIBLE__ISO_
 10
59.8000000000006366
 20
1255.0
 30
0.0
 40
3.2999999999999989
  0
ENDSEC
  0
EOF
