  0
SECTION
  2
HEADER
  9
$ACADVER
  1
AC1009
  9
$INSBASE
 10
0.0
 20
0.0
 30
0.0
  9
$EXTMIN
 10
-329.5519853322056179
 20
-0.6684856703438984
 30
0.0
  9
$EXTMAX
 10
601.005949288114266
 20
663.840244759483312
 30
0.0
  9
$LIMMIN
 10
0.0
 20
0.0
  9
$LIMMAX
 10
420.0
 20
297.0
  9
$ORTHOMODE
 70
     0
  9
$REGENMODE
 70
     1
  9
$FILLMODE
 70
     1
  9
$QTEXTMODE
 70
     0
  9
$MIRRTEXT
 70
     0
  9
$DRAGMODE
 70
     2
  9
$LTSCALE
 40
1.0
  9
$OSMODE
 70
   327
  9
$ATTMODE
 70
     1
  9
$TEXTSIZE
 40
2.5
  9
$TRACEWID
 40
1.0
  9
$TEXTSTYLE
  7
STANDARD
  9
$CLAYER
  8
0
  9
$CELTYPE
  6
BYLAYER
  9
$CECOLOR
 62
   256
  9
$DIMSCALE
 40
1.0
  9
$DIMASZ
 40
2.5
  9
$DIMEXO
 40
0.625
  9
$DIMDLI
 40
3.75
  9
$DIMRND
 40
0.0
  9
$DIMDLE
 40
0.0
  9
$DIMEXE
 40
1.25
  9
$DIMTP
 40
0.0
  9
$DIMTM
 40
0.0
  9
$DIMTXT
 40
2.5
  9
$DIMCEN
 40
2.5
  9
$DIMTSZ
 40
0.0
  9
$DIMTOL
 70
     0
  9
$DIMLIM
 70
     0
  9
$DIMTIH
 70
     0
  9
$DIMTOH
 70
     0
  9
$DIMSE1
 70
     0
  9
$DIMSE2
 70
     0
  9
$DIMTAD
 70
     1
  9
$DIMZIN
 70
     8
  9
$DIMBLK
  1

  9
$DIMASO
 70
     1
  9
$DIMSHO
 70
     1
  9
$DIMPOST
  1

  9
$DIMAPOST
  1

  9
$DIMALT
 70
     0
  9
$DIMALTD
 70
     3
  9
$DIMALTF
 40
0.03937007874016
  9
$DIMLFAC
 40
1.0
  9
$DIMTOFL
 70
     1
  9
$DIMTVP
 40
0.0
  9
$DIMTIX
 70
     0
  9
$DIMSOXD
 70
     0
  9
$DIMSAH
 70
     0
  9
$DIMBLK1
  1

  9
$DIMBLK2
  1

  9
$DIMSTYLE
  2
ISO-25
  9
$DIMCLRD
 70
     0
  9
$DIMCLRE
 70
     0
  9
$DIMCLRT
 70
     0
  9
$DIMTFAC
 40
1.0
  9
$DIMGAP
 40
0.625
  9
$LUNITS
 70
     2
  9
$LUPREC
 70
     4
  9
$SKETCHINC
 40
1.0
  9
$FILLETRAD
 40
0.0
  9
$AUNITS
 70
     0
  9
$AUPREC
 70
     0
  9
$MENU
  1
.
  9
$ELEVATION
 40
0.0
  9
$PELEVATION
 40
0.0
  9
$THICKNESS
 40
0.0
  9
$LIMCHECK
 70
     0
  9
$BLIPMODE
 70
     0
  9
$CHAMFERA
 40
0.0
  9
$CHAMFERB
 40
0.0
  9
$SKPOLY
 70
     0
  9
$TDCREATE
 40
2460580.6015046290121973
  9
$TDUPDATE
 40
2460580.6126157408580184
  9
$TDINDWG
 40
0.0111111111
  9
$TDUSRTIMER
 40
0.0111111111
  9
$USRTIMER
 70
     1
  9
$ANGBASE
 50
0.0
  9
$ANGDIR
 70
     0
  9
$PDMODE
 70
     0
  9
$PDSIZE
 40
0.0
  9
$PLINEWID
 40
0.0
  9
$COORDS
 70
     1
  9
$SPLFRAME
 70
     0
  9
$SPLINETYPE
 70
     6
  9
$SPLINESEGS
 70
     8
  9
$ATTDIA
 70
     1
  9
$ATTREQ
 70
     1
  9
$HANDLING
 70
     1
  9
$HANDSEED
  5
6C3
  9
$SURFTAB1
 70
     6
  9
$SURFTAB2
 70
     6
  9
$SURFTYPE
 70
     6
  9
$SURFU
 70
     6
  9
$SURFV
 70
     6
  9
$UCSNAME
  2

  9
$UCSORG
 10
0.0
 20
0.0
 30
0.0
  9
$UCSXDIR
 10
1.0
 20
0.0
 30
0.0
  9
$UCSYDIR
 10
0.0
 20
1.0
 30
0.0
  9
$PUCSNAME
  2

  9
$PUCSORG
 10
0.0
 20
0.0
 30
0.0
  9
$PUCSXDIR
 10
1.0
 20
0.0
 30
0.0
  9
$PUCSYDIR
 10
0.0
 20
1.0
 30
0.0
  9
$USERI1
 70
     0
  9
$USERI2
 70
     0
  9
$USERI3
 70
     0
  9
$USERI4
 70
     0
  9
$USERI5
 70
     0
  9
$USERR1
 40
0.0
  9
$USERR2
 40
0.0
  9
$USERR3
 40
0.0
  9
$USERR4
 40
0.0
  9
$USERR5
 40
0.0
  9
$WORLDVIEW
 70
     1
  9
$SHADEDGE
 70
     3
  9
$SHADEDIF
 70
    70
  9
$TILEMODE
 70
     1
  9
$MAXACTVP
 70
    64
  9
$PLIMCHECK
 70
     0
  9
$PEXTMIN
 10
0.0
 20
0.0
 30
0.0
  9
$PEXTMAX
 10
0.0
 20
0.0
 30
0.0
  9
$PLIMMIN
 10
0.0
 20
0.0
  9
$PLIMMAX
 10
12.0
 20
9.0
  9
$UNITMODE
 70
     0
  9
$VISRETAIN
 70
     1
  9
$PLINEGEN
 70
     0
  9
$PSLTSCALE
 70
     1
  0
ENDSEC
  0
SECTION
  2
TABLES
  0
TABLE
  2
VPORT
 70
     1
  0
VPORT
  2
*ACTIVE
 70
     0
 10
0.0
 20
0.0
 11
1.0
 21
1.0
 12
15.2542628332236596
 22
104.4870990024682982
 13
0.0
 23
0.0
 14
10.0
 24
10.0
 15
10.0
 25
10.0
 16
0.0
 26
0.0
 36
1.0
 17
0.0
 27
0.0
 37
0.0
 40
191.4657580484999926
 41
2.0480256136606192
 42
50.0
 43
0.0
 44
0.0
 50
0.0
 51
0.0
 71
     0
 72
  1000
 73
     1
 74
     3
 75
     0
 76
     1
 77
     0
 78
     0
  0
ENDTAB
  0
TABLE
  2
LTYPE
 70
     3
  0
LTYPE
  2
CONTINUOUS
 70
     0
  3
Solid line
 72
    65
 73
     0
 40
0.0
  0
LTYPE
  2
CHAIN
 70
     0
  3
Chain ____ _ ____ _ ____ _ ____ _ ____ _ ____
 72
    65
 73
     4
 40
0.7087
 49
0.4724000000000001
 49
-0.0591
 49
0.1181
 49
-0.0591
  0
ENDTAB
  0
TABLE
  2
LAYER
 70
     7
  0
LAYER
  2
0
 70
     0
 62
     7
  6
CONTINUOUS
  0
LAYER
  2
CENTRO_TMG-1_
 70
     0
 62
     7
  6
CONTINUOUS
  0
LAYER
  2
CONTORNO
 70
     0
 62
     1
  6
CONTINUOUS
  0
LAYER
  2
COTAS
 70
     0
 62
     7
  6
CONTINUOUS
  0
LAYER
  2
QUOTE_TMG-1_
 70
     0
 62
     7
  6
CONTINUOUS
  0
LAYER
  2
SPIGOLI_VISIBILI_TMG-1_
 70
     0
 62
     7
  6
CONTINUOUS
  0
LAYER
  2
DEFPOINTS
 70
     0
 62
     7
  6
CONTINUOUS
  0
ENDTAB
  0
TABLE
  2
STYLE
 70
     7
  0
STYLE
  2
STANDARD
 70
     0
 40
0.0
 41
1.0
 50
0.0
 71
     0
 42
2.5
  3
txt
  4

  0
STYLE
  2
ANNOTATIVE
 70
     0
 40
0.0
 41
1.0
 50
0.0
 71
     0
 42
2.5
  3
txt
  4

  0
STYLE
  2
SELGRON_-_COTAS
 70
     0
 40
0.0
 41
1.0
 50
0.0
 71
     0
 42
0.2
  3
txt
  4

  0
STYLE
  2
SELGRON_-_LEGENDA
 70
     0
 40
0.0
 41
1.0
 50
0.0
 71
     0
 42
0.2
  3
Simplex.shx
  4

  0
STYLE
  2
TMG
 70
     0
 40
0.0
 41
1.0
 50
0.0
 71
     0
 42
0.2
  3
txt
  4

  0
STYLE
  2
MtXpl_Simplex
 70
     0
 40
0.0
 41
1.0
 50
0.0
 71
     0
 42
2.5
  3
txt
  4

  0
STYLE
  2
MtXpl_AIGDT
 70
     0
 40
0.0
 41
1.0
 50
0.0
 71
     0
 42
2.5
  3
txt
  4

  0
ENDTAB
  0
TABLE
  2
VIEW
 70
     0
  0
ENDTAB
  0
TABLE
  2
UCS
 70
     0
  0
ENDTAB
  0
TABLE
  2
APPID
 70
    10
  0
APPID
  2
ACAD
 70
     0
  0
APPID
  2
ACAD_PSEXT
 70
     0
  0
APPID
  2
ACADANNOPO
 70
     0
  0
APPID
  2
ACADANNOTATIVE
 70
     0
  0
APPID
  2
ACAD_DSTYLE_DIMJAG
 70
     0
  0
APPID
  2
ACAD_DSTYLE_DIMTALN
 70
     0
  0
APPID
  2
ACAD_MLEADERVER
 70
     0
  0
APPID
  2
ACAD_NAV_VCDISPLAY
 70
     0
  0
APPID
  2
ACAD_DSTYLE_DIMRADIAL_EXTENSION
 70
     0
  0
APPID
  2
ACAD_EXEMPT_FROM_CAD_STANDARDS
 70
     0
  0
ENDTAB
  0
TABLE
  2
DIMSTYLE
 70
     6
  0
DIMSTYLE
  2
STANDARD
 70
     0
  3

  4

  5

  6

  7

 40
1.0
 41
0.18
 42
0.0625
 43
0.38
 44
0.18
 45
0.0
 46
0.0
 47
0.0
 48
0.0
140
0.18
141
0.09
142
0.0
143
25.3999999999999986
144
1.0
145
0.0
146
1.0
147
0.09
 71
     0
 72
     0
 73
     1
 74
     1
 75
     0
 76
     0
 77
     0
 78
     0
170
     0
171
     2
172
     0
173
     0
174
     0
175
     0
176
     0
177
     0
178
     0
  0
DIMSTYLE
  2
ANNOTATIVE
 70
     0
  3

  4

  5

  6

  7

 40
0.0
 41
2.5
 42
0.625
 43
3.75
 44
1.25
 45
0.0
 46
0.0
 47
0.0
 48
0.0
140
2.5
141
2.5
142
0.0
143
0.03937007874016
144
1.0
145
0.0
146
1.0
147
0.625
 71
     0
 72
     0
 73
     0
 74
     0
 75
     0
 76
     0
 77
     1
 78
     8
170
     0
171
     3
172
     1
173
     0
174
     0
175
     0
176
     0
177
     0
178
     0
  0
DIMSTYLE
  2
ISO-25
 70
     0
  3

  4

  5

  6

  7

 40
1.0
 41
2.5
 42
0.625
 43
3.75
 44
1.25
 45
0.0
 46
0.0
 47
0.0
 48
0.0
140
2.5
141
2.5
142
0.0
143
0.03937007874016
144
1.0
145
0.0
146
1.0
147
0.625
 71
     0
 72
     0
 73
     0
 74
     0
 75
     0
 76
     0
 77
     1
 78
     8
170
     0
171
     3
172
     1
173
     0
174
     0
175
     0
176
     0
177
     0
178
     0
  0
DIMSTYLE
  2
SELGRON$7
 70
     0
  3

  4

  5
FILLED-1
  6

  7

 40
4.0
 41
3.0
 42
1.0
 43
5.9999999999999991
 44
2.9999999999999991
 45
0.00000001
 46
12.0
 47
0.0
 48
0.0
140
2.7999999523162842
141
0.09
142
0.0
143
0.03937
144
1.0
145
0.0
146
0.6785714030265808
147
1.0
 71
     0
 72
     0
 73
     0
 74
     1
 75
     0
 76
     0
 77
     1
 78
     8
170
     0
171
     3
172
     1
173
     0
174
     0
175
     0
176
     7
177
   256
178
     7
  0
DIMSTYLE
  2
TMG-QUOTE
 70
     0
  3

  4

  5
EMPTY-1
  6

  7

 40
4.0
 41
3.0
 42
1.4999999999999989
 43
2.9999999999999991
 44
1.4999999999999989
 45
0.00000001
 46
4.0
 47
0.0
 48
0.0
140
2.5
141
0.09
142
0.0
143
0.03937
144
1.0
145
0.0
146
1.0
147
0.4
 71
     0
 72
     0
 73
     0
 74
     1
 75
     0
 76
     0
 77
     1
 78
     8
170
     0
171
     3
172
     1
173
     0
174
     0
175
     0
176
     7
177
     7
178
     7
  0
ENDTAB
  0
ENDSEC
  0
SECTION
  2
BLOCKS
  0
BLOCK
  8
0
  2
$MODEL_SPACE
 70
     0
 10
0.0
 20
0.0
 30
0.0
  3
$MODEL_SPACE
  1

  0
ENDBLK
  5
21
  8
0
  0
BLOCK
 67
     1
  8
0
  2
$PAPER_SPACE
 70
     0
 10
0.0
 20
0.0
 30
0.0
  3
$PAPER_SPACE
  1

  0
ENDBLK
  5
D5
 67
     1
  8
0
  0
BLOCK
  8
0
  2
FILLED-1
 70
     0
 10
0.0
 20
0.0
 30
0.0
  3
FILLED-1
  1

  0
LINE
  5
297
  8
0
 62
     0
 10
-1.0
 20
0.0
 30
0.0
 11
0.0
 21
0.0
 31
0.0
  0
POLYLINE
  5
298
  8
0
 62
     0
 66
     1
 10
0.0
 20
0.0
 30
0.0
 70
   128
  0
VERTEX
  5
299
  8
0
 62
     0
 10
-1.0
 20
-0.1666666666666667
 30
0.0
  0
VERTEX
  5
29A
  8
0
 62
     0
 10
0.0
 20
0.0
 30
0.0
  0
VERTEX
  5
29B
  8
0
 62
     0
 10
-1.0
 20
0.1666666666666667
 30
0.0
  0
VERTEX
  5
29C
  8
0
 62
     0
 10
-1.0
 20
-0.1666666666666667
 30
0.0
  0
SEQEND
  5
29D
  8
0
 62
     0
  0
SOLID
  5
29E
  8
0
 62
     0
 10
-1.0
 20
-0.1666666666666667
 30
0.0
 11
0.0
 21
0.0
 31
0.0
 12
-1.0
 22
0.1666666666666667
 32
0.0
 13
-1.0
 23
-0.1666666666666667
 33
0.0
  0
LINE
  5
29F
  8
0
 62
     0
 10
-1.0
 20
-0.1666666666666667
 30
0.0
 11
0.0
 21
0.0
 31
0.0
  0
LINE
  5
2A0
  8
0
 62
     0
 10
0.0
 20
0.0
 30
0.0
 11
-1.0
 21
0.1666666666666667
 31
0.0
  0
LINE
  5
2A1
  8
0
 62
     0
 10
-1.0
 20
0.1666666666666667
 30
0.0
 11
-1.0
 21
-0.1666666666666667
 31
0.0
  0
ENDBLK
  5
2A2
  8
0
  0
BLOCK
  8
0
  2
EMPTY-1
 70
     0
 10
0.0
 20
0.0
 30
0.0
  3
EMPTY-1
  1

  0
LINE
  5
2A5
  8
0
 62
     0
 10
-1.0
 20
-0.1333333333333333
 30
0.0
 11
0.0
 21
0.0
 31
0.0
  0
LINE
  5
2A6
  8
0
 62
     0
 10
0.0
 20
0.0
 30
0.0
 11
-1.0
 21
0.1333333333333333
 31
0.0
  0
LINE
  5
2A7
  8
0
 62
     0
 10
-1.0
 20
0.1333333333333333
 30
0.0
 11
-1.0
 21
-0.1333333333333333
 31
0.0
  0
ENDBLK
  5
2A8
  8
0
  0
BLOCK
  8
0
  2
_CLOSEDBLANK
 70
     0
 10
0.0
 20
0.0
 30
0.0
  3
_CLOSEDBLANK
  1

  0
LINE
  5
2AB
  8
0
  6
BYBLOCK
 62
     0
 10
-1.0
 20
0.1666666666666666
 30
0.0
 11
0.0
 21
0.0
 31
0.0
  0
LINE
  5
2AC
  8
0
  6
BYBLOCK
 62
     0
 10
0.0
 20
0.0
 30
0.0
 11
-1.0
 21
-0.1666666666666666
 31
0.0
  0
LINE
  5
2AD
  8
0
  6
BYBLOCK
 62
     0
 10
-1.0
 20
0.1666666666666666
 30
0.0
 11
-1.0
 21
-0.1666666666666666
 31
0.0
  0
ENDBLK
  5
2AE
  8
0
  0
BLOCK
  8
0
  2
*D4
 70
     1
 10
0.0
 20
0.0
 30
0.0
  3
*D4
  1

  0
LINE
  5
2B1
  8
QUOTE_TMG-1_
  6
CONTINUOUS
 62
     7
 10
473.8692467951412937
 20
654.9639350401331512
 30
0.0
 11
509.3288886640738724
 21
539.6428541281171647
 31
0.0
  0
LINE
  5
2B2
  8
QUOTE_TMG-1_
  6
CONTINUOUS
 62
     7
 10
543.8188471931605363
 20
427.475356416595389
 30
0.0
 11
513.4527275856179358
 21
526.2313943142446533
 31
0.0
  0
INSERT
  5
2B3
  8
0
  2
*U37
 10
0.0
 20
0.0
 30
0.0
  0
INSERT
  5
2B4
  8
QUOTE_TMG-1_
  6
CONTINUOUS
 62
     7
  2
EMPTY-1
 10
547.3457178014640476
 20
416.0053440490220851
 30
0.0
 41
12.0
 42
12.0
 43
12.0
 50
287.0919409882623086
  0
POINT
  5
2B5
  8
DEFPOINTS
  6
CONTINUOUS
 62
     0
 10
547.3457178014640476
 20
416.0053440490220851
 30
0.0
  0
POINT
  5
2B6
  8
DEFPOINTS
  6
CONTINUOUS
 62
     0
 10
473.8692467951412937
 20
654.9639350401331512
 30
0.0
  0
ENDBLK
  5
2B7
  8
0
  0
BLOCK
  8
0
  2
*D5
 70
     1
 10
0.0
 20
0.0
 30
0.0
  3
*D5
  1

  0
LINE
  5
2BA
  8
QUOTE_TMG-1_
  6
CONTINUOUS
 62
     7
 10
473.86924679514118
 20
654.9639350401344018
 30
0.0
 11
495.831576753928573
 21
488.9322499309786281
 31
0.0
  0
LINE
  5
2BB
  8
QUOTE_TMG-1_
  6
CONTINUOUS
 62
     7
 10
499.834105336730488
 20
458.6737770573266175
 30
0.0
 11
497.6056170852522769
 21
475.5207901171062872
 31
0.0
  0
INSERT
  5
2BC
  8
0
  2
*U38
 10
0.0
 20
0.0
 30
0.0
  0
INSERT
  5
2BD
  8
QUOTE_TMG-1_
  6
CONTINUOUS
 62
     7
  2
EMPTY-1
 10
501.4077331271298021
 20
446.7774038462474095
 30
0.0
 41
12.0
 42
12.0
 43
12.0
 50
277.5352220576331206
  0
POINT
  5
2BE
  8
DEFPOINTS
  6
CONTINUOUS
 62
     0
 10
501.4077331271298021
 20
446.7774038462474095
 30
0.0
  0
POINT
  5
2BF
  8
DEFPOINTS
  6
CONTINUOUS
 62
     0
 10
473.86924679514118
 20
654.9639350401344018
 30
0.0
  0
ENDBLK
  5
2C0
  8
0
  0
BLOCK
  8
0
  2
*D6
 70
     1
 10
0.0
 20
0.0
 30
0.0
  3
*D6
  1

  0
LINE
  5
2C3
  8
QUOTE_TMG-1_
  6
CONTINUOUS
 62
     7
 10
473.86924679514118
 20
654.9639350401331512
 30
0.0
 11
595.7863053527041757
 21
606.8446426561346243
 31
0.0
  0
LINE
  5
2C4
  8
QUOTE_TMG-1_
  6
CONTINUOUS
 62
     7
 10
648.7412999815242074
 20
585.943901612302966
 30
0.0
 11
629.7661427622418842
 21
593.4331828422622266
 31
0.0
  0
INSERT
  5
2C5
  8
0
  2
*U39
 10
0.0
 20
0.0
 30
0.0
  0
INSERT
  5
2C6
  8
QUOTE_TMG-1_
  6
CONTINUOUS
 62
     7
  2
EMPTY-1
 10
659.9033459295911825
 20
581.5383675637181113
 30
0.0
 41
12.0
 42
12.0
 43
12.0
 50
338.4614077447527052
  0
POINT
  5
2C7
  8
DEFPOINTS
  6
CONTINUOUS
 62
     0
 10
659.9033459295911825
 20
581.5383675637181113
 30
0.0
  0
POINT
  5
2C8
  8
DEFPOINTS
  6
CONTINUOUS
 62
     0
 10
473.86924679514118
 20
654.9639350401331512
 30
0.0
  0
ENDBLK
  5
2C9
  8
0
  0
BLOCK
  8
0
  2
*D7
 70
     1
 10
0.0
 20
0.0
 30
0.0
  3
*D7
  1

  0
LINE
  5
2CC
  8
QUOTE_TMG-1_
  6
CONTINUOUS
 62
     7
 10
473.86924679514118
 20
654.9639350401331512
 30
0.0
 11
600.3103097935705819
 21
561.4749091544191515
 31
0.0
  0
LINE
  5
2CD
  8
QUOTE_TMG-1_
  6
CONTINUOUS
 62
     7
 10
673.280360647342377
 20
507.5217169605600134
 30
0.0
 11
618.4489011326196533
 21
548.0634493405468675
 31
0.0
  0
INSERT
  5
2CE
  8
0
  2
*U40
 10
0.0
 20
0.0
 30
0.0
  0
INSERT
  5
2CF
  8
QUOTE_TMG-1_
  6
CONTINUOUS
 62
     7
  2
EMPTY-1
 10
682.929285511158696
 20
500.3874160857420179
 30
0.0
 41
12.0
 42
12.0
 43
12.0
 50
323.5212169748488122
  0
POINT
  5
2D0
  8
DEFPOINTS
  6
CONTINUOUS
 62
     0
 10
682.929285511158696
 20
500.3874160857420179
 30
0.0
  0
POINT
  5
2D1
  8
DEFPOINTS
  6
CONTINUOUS
 62
     0
 10
473.86924679514118
 20
654.9639350401331512
 30
0.0
  0
ENDBLK
  5
2D2
  8
0
  0
BLOCK
  8
0
  2
*D8
 70
     1
 10
0.0
 20
0.0
 30
0.0
  3
*D8
  1

  0
LINE
  5
2D5
  8
QUOTE_TMG-1_
  6
CONTINUOUS
 62
     7
 10
487.9928676972324979
 20
810.18018104471264
 30
0.0
 11
533.241180881123455
 21
810.1801810447127536
 31
0.0
  0
LINE
  5
2D6
  8
QUOTE_TMG-1_
  6
CONTINUOUS
 62
     7
 10
533.241180881123455
 20
810.1801810447127536
 30
0.0
 11
543.8378983001624647
 21
829.7086626758025432
 31
0.0
  0
INSERT
  5
2D7
  8
0
  2
*U41
 10
0.0
 20
0.0
 30
0.0
  0
INSERT
  5
2D8
  8
QUOTE_TMG-1_
  6
CONTINUOUS
 62
     7
  2
EMPTY-1
 10
549.5611407272990618
 20
840.2559133185163773
 30
0.0
 41
12.0
 42
12.0
 43
12.0
 50
61.5144655417335997
  0
POINT
  5
2D9
  8
DEFPOINTS
  6
CONTINUOUS
 62
     0
 10
549.5611407272990618
 20
840.2559133185163773
 30
0.0
  0
POINT
  5
2DA
  8
DEFPOINTS
  6
CONTINUOUS
 62
     0
 10
563.8692467951406115
 20
866.6240399252998259
 30
0.0
  0
ENDBLK
  5
2DB
  8
0
  0
BLOCK
  8
0
  2
*D9
 70
     1
 10
0.0
 20
0.0
 30
0.0
  3
*D9
  1

  0
LINE
  5
2DE
  8
QUOTE_TMG-1_
  6
CONTINUOUS
 62
     7
 10
473.8692467951460117
 20
388.9639350401380966
 30
0.0
 11
473.8692467951460117
 21
330.8729870260053758
 31
0.0
  0
INSERT
  5
2DF
  8
0
  2
*U42
 10
0.0
 20
0.0
 30
0.0
  0
POINT
  5
2E0
  8
DEFPOINTS
  6
CONTINUOUS
 62
     0
 10
473.8692467951460117
 20
394.9639350401380966
 30
0.0
  0
POINT
  5
2E1
  8
DEFPOINTS
  6
CONTINUOUS
 62
     0
 10
473.8692467951460117
 20
330.8729870260053758
 30
0.0
  0
POINT
  5
2E2
  8
DEFPOINTS
  6
CONTINUOUS
 62
     0
 10
473.8692467951453864
 20
394.963935040137585
 30
0.0
  0
ENDBLK
  5
2E3
  8
0
  0
BLOCK
  8
0
  2
*D10
 70
     1
 10
0.0
 20
0.0
 30
0.0
  3
*D10
  1

  0
LINE
  5
2E6
  8
QUOTE_TMG-1_
  6
CONTINUOUS
 62
     7
 10
493.8692467951461822
 20
419.8351502923459861
 30
0.0
 11
493.8692467951462959
 21
378.8729870260053758
 31
0.0
  0
LINE
  5
2E7
  8
QUOTE_TMG-1_
  6
CONTINUOUS
 62
     7
 10
493.8692467951462959
 20
378.8729870260053758
 30
0.0
 11
496.0750385367559261
 21
354.8729870260053758
 31
0.0
  0
LINE
  5
2E8
  8
QUOTE_TMG-1_
  6
CONTINUOUS
 62
     7
 10
496.0750385367559261
 20
354.8729870260053758
 30
0.0
 11
496.0750385367559261
 21
330.8729870260053758
 31
0.0
  0
INSERT
  5
2E9
  8
0
  2
*U43
 10
0.0
 20
0.0
 30
0.0
  0
POINT
  5
2EA
  8
DEFPOINTS
  6
CONTINUOUS
 62
     0
 10
493.8692467951461822
 20
425.8351502923460998
 30
0.0
  0
POINT
  5
2EB
  8
DEFPOINTS
  6
CONTINUOUS
 62
     0
 10
496.0750385367559261
 20
330.8729870260053758
 30
0.0
  0
POINT
  5
2EC
  8
DEFPOINTS
  6
CONTINUOUS
 62
     0
 10
473.8692467951453864
 20
394.963935040137585
 30
0.0
  0
ENDBLK
  5
2ED
  8
0
  0
BLOCK
  8
0
  2
*D11
 70
     1
 10
0.0
 20
0.0
 30
0.0
  3
*D11
  1

  0
LINE
  5
2F0
  8
QUOTE_TMG-1_
  6
CONTINUOUS
 62
     7
 10
563.8692467951462959
 20
437.3038301549707967
 30
0.0
 11
563.8692467951462959
 21
378.8729870260053758
 31
0.0
  0
LINE
  5
2F1
  8
QUOTE_TMG-1_
  6
CONTINUOUS
 62
     7
 10
563.8692467951462959
 20
378.8729870260053758
 30
0.0
 11
597.9583884665705682
 21
354.8729870260053758
 31
0.0
  0
LINE
  5
2F2
  8
QUOTE_TMG-1_
  6
CONTINUOUS
 62
     7
 10
597.9583884665705682
 20
354.8729870260053758
 30
0.0
 11
597.9583884665705682
 21
330.8729870260053758
 31
0.0
  0
INSERT
  5
2F3
  8
0
  2
*U44
 10
0.0
 20
0.0
 30
0.0
  0
POINT
  5
2F4
  8
DEFPOINTS
  6
CONTINUOUS
 62
     0
 10
563.8692467951462959
 20
443.3038301549707967
 30
0.0
  0
POINT
  5
2F5
  8
DEFPOINTS
  6
CONTINUOUS
 62
     0
 10
597.9583884665705682
 20
330.8729870260053758
 30
0.0
  0
POINT
  5
2F6
  8
DEFPOINTS
  6
CONTINUOUS
 62
     0
 10
473.8692467951453864
 20
394.963935040137585
 30
0.0
  0
ENDBLK
  5
2F7
  8
0
  0
BLOCK
  8
0
  2
*D12
 70
     1
 10
0.0
 20
0.0
 30
0.0
  3
*D12
  1

  0
LINE
  5
2FA
  8
QUOTE_TMG-1_
  6
CONTINUOUS
 62
     7
 10
582.5648989690591861
 20
423.8300744183121083
 30
0.0
 11
582.5648989690591861
 21
378.872987026005319
 31
0.0
  0
LINE
  5
2FB
  8
QUOTE_TMG-1_
  6
CONTINUOUS
 62
     7
 10
582.5648989690591861
 20
378.872987026005319
 30
0.0
 11
669.1108244398573106
 21
354.8729870260053758
 31
0.0
  0
LINE
  5
2FC
  8
QUOTE_TMG-1_
  6
CONTINUOUS
 62
     7
 10
669.1108244398573106
 20
354.8729870260053758
 30
0.0
 11
669.1108244398573106
 21
330.8729870260053758
 31
0.0
  0
INSERT
  5
2FD
  8
0
  2
*U45
 10
0.0
 20
0.0
 30
0.0
  0
POINT
  5
2FE
  8
DEFPOINTS
  6
CONTINUOUS
 62
     0
 10
582.5648989690591861
 20
429.8300744183121083
 30
0.0
  0
POINT
  5
2FF
  8
DEFPOINTS
  6
CONTINUOUS
 62
     0
 10
669.1108244398573106
 20
330.8729870260053758
 30
0.0
  0
POINT
  5
300
  8
DEFPOINTS
  6
CONTINUOUS
 62
     0
 10
473.8692467951453864
 20
394.963935040137585
 30
0.0
  0
ENDBLK
  5
301
  8
0
  0
BLOCK
  8
0
  2
*D13
 70
     1
 10
0.0
 20
0.0
 30
0.0
  3
*D13
  1

  0
LINE
  5
304
  8
QUOTE_TMG-1_
  6
CONTINUOUS
 62
     7
 10
565.1735946212330646
 20
459.8514921178041845
 30
0.0
 11
565.1735946212330646
 21
378.8729870260053758
 31
0.0
  0
LINE
  5
305
  8
QUOTE_TMG-1_
  6
CONTINUOUS
 62
     7
 10
565.1735946212330646
 20
378.8729870260053758
 30
0.0
 11
621.071192357871837
 21
354.8729870260053758
 31
0.0
  0
LINE
  5
306
  8
QUOTE_TMG-1_
  6
CONTINUOUS
 62
     7
 10
621.071192357871837
 20
354.8729870260053758
 30
0.0
 11
621.071192357871837
 21
330.8729870260053758
 31
0.0
  0
INSERT
  5
307
  8
0
  2
*U46
 10
0.0
 20
0.0
 30
0.0
  0
POINT
  5
308
  8
DEFPOINTS
  6
CONTINUOUS
 62
     0
 10
565.1735946212330646
 20
465.8514921178041845
 30
0.0
  0
POINT
  5
309
  8
DEFPOINTS
  6
CONTINUOUS
 62
     0
 10
621.071192357871837
 20
330.8729870260053758
 30
0.0
  0
POINT
  5
30A
  8
DEFPOINTS
  6
CONTINUOUS
 62
     0
 10
473.8692467951453864
 20
394.963935040137585
 30
0.0
  0
ENDBLK
  5
30B
  8
0
  0
BLOCK
  8
0
  2
*D14
 70
     1
 10
0.0
 20
0.0
 30
0.0
  3
*D14
  1

  0
LINE
  5
30E
  8
QUOTE_TMG-1_
  6
CONTINUOUS
 62
     7
 10
703.8692467951460685
 20
648.9639350401382671
 30
0.0
 11
703.8692467951460685
 21
330.8729870260053758
 31
0.0
  0
INSERT
  5
30F
  8
0
  2
*U47
 10
0.0
 20
0.0
 30
0.0
  0
POINT
  5
310
  8
DEFPOINTS
  6
CONTINUOUS
 62
     0
 10
703.8692467951460685
 20
654.9639350401383808
 30
0.0
  0
POINT
  5
311
  8
DEFPOINTS
  6
CONTINUOUS
 62
     0
 10
703.8692467951460685
 20
330.8729870260053758
 30
0.0
  0
POINT
  5
312
  8
DEFPOINTS
  6
CONTINUOUS
 62
     0
 10
473.8692467951453864
 20
394.963935040137585
 30
0.0
  0
ENDBLK
  5
313
  8
0
  0
BLOCK
  8
0
  2
*D15
 70
     1
 10
0.0
 20
0.0
 30
0.0
  3
*D15
  1

  0
LINE
  5
316
  8
QUOTE_TMG-1_
  6
CONTINUOUS
 62
     7
 10
733.8692467951464096
 20
648.9639350401382671
 30
0.0
 11
733.8692467951464096
 21
330.8729870260053758
 31
0.0
  0
INSERT
  5
317
  8
0
  2
*U48
 10
0.0
 20
0.0
 30
0.0
  0
POINT
  5
318
  8
DEFPOINTS
  6
CONTINUOUS
 62
     0
 10
733.8692467951464096
 20
654.9639350401383808
 30
0.0
  0
POINT
  5
319
  8
DEFPOINTS
  6
CONTINUOUS
 62
     0
 10
733.8692467951464096
 20
330.8729870260053758
 30
0.0
  0
POINT
  5
31A
  8
DEFPOINTS
  6
CONTINUOUS
 62
     0
 10
473.8692467951453864
 20
394.963935040137585
 30
0.0
  0
ENDBLK
  5
31B
  8
0
  0
BLOCK
  8
0
  2
*D16
 70
     1
 10
0.0
 20
0.0
 30
0.0
  3
*D16
  1

  0
LINE
  5
31E
  8
QUOTE_TMG-1_
  6
CONTINUOUS
 62
     7
 10
552.1301163603635587
 20
833.0162001576794637
 30
0.0
 11
552.1301163603635587
 21
330.8729870260053758
 31
0.0
  0
INSERT
  5
31F
  8
0
  2
*U49
 10
0.0
 20
0.0
 30
0.0
  0
POINT
  5
320
  8
DEFPOINTS
  6
CONTINUOUS
 62
     0
 10
552.1301163603635587
 20
839.0162001576794637
 30
0.0
  0
POINT
  5
321
  8
DEFPOINTS
  6
CONTINUOUS
 62
     0
 10
552.1301163603635587
 20
330.8729870260053758
 30
0.0
  0
POINT
  5
322
  8
DEFPOINTS
  6
CONTINUOUS
 62
     0
 10
473.8692467951453864
 20
394.963935040137585
 30
0.0
  0
ENDBLK
  5
323
  8
0
  0
BLOCK
  8
0
  2
*D17
 70
     1
 10
0.0
 20
0.0
 30
0.0
  3
*D17
  1

  0
LINE
  5
326
  8
QUOTE_TMG-1_
  6
CONTINUOUS
 62
     7
 10
575.6083772299289194
 20
888.2318796929406517
 30
0.0
 11
575.6083772299290331
 21
378.872987026005319
 31
0.0
  0
LINE
  5
327
  8
QUOTE_TMG-1_
  6
CONTINUOUS
 62
     7
 10
575.6083772299290331
 20
378.872987026005319
 30
0.0
 11
645.0910083988644601
 21
354.8729870260053758
 31
0.0
  0
LINE
  5
328
  8
QUOTE_TMG-1_
  6
CONTINUOUS
 62
     7
 10
645.0910083988644601
 20
354.8729870260053758
 30
0.0
 11
645.0910083988644601
 21
330.8729870260053758
 31
0.0
  0
INSERT
  5
329
  8
0
  2
*U50
 10
0.0
 20
0.0
 30
0.0
  0
POINT
  5
32A
  8
DEFPOINTS
  6
CONTINUOUS
 62
     0
 10
575.6083772299289194
 20
894.2318796929407654
 30
0.0
  0
POINT
  5
32B
  8
DEFPOINTS
  6
CONTINUOUS
 62
     0
 10
645.0910083988644601
 20
330.8729870260053758
 30
0.0
  0
POINT
  5
32C
  8
DEFPOINTS
  6
CONTINUOUS
 62
     0
 10
473.8692467951453864
 20
394.963935040137585
 30
0.0
  0
ENDBLK
  5
32D
  8
0
  0
BLOCK
  8
0
  2
2DTRANSSYMBOL1
 70
     0
 10
0.0
 20
0.0
 30
0.0
  3
2DTRANSSYMBOL1
  1

  0
LINE
  5
330
  8
QUOTE_TMG-1_
 10
121.467311698785295
 20
84.2182467565007045
 30
0.0
 11
118.467311698785295
 21
84.2182467565007045
 31
0.0
  0
CIRCLE
  5
331
  8
QUOTE_TMG-1_
 10
118.467311698785295
 20
84.2182467565007045
 30
0.0
 40
1.5
  0
LINE
  5
332
  8
QUOTE_TMG-1_
 10
121.0187596341877025
 20
83.8182467565006988
 30
0.0
 11
124.0187596341877025
 21
84.2182467565007045
 31
0.0
  0
LINE
  5
333
  8
QUOTE_TMG-1_
 10
124.0187596341877025
 20
84.2182467565007045
 30
0.0
 11
121.0187596341877025
 21
84.6182467565006959
 31
0.0
  0
LINE
  5
334
  8
QUOTE_TMG-1_
 10
121.0187596341877025
 20
84.6182467565006959
 30
0.0
 11
121.0187596341877025
 21
83.8182467565006988
 31
0.0
  0
LINE
  5
335
  8
QUOTE_TMG-1_
 10
135.0325290900896107
 20
83.8182467565006988
 30
0.0
 11
138.0325290900896107
 21
84.2182467565007045
 31
0.0
  0
LINE
  5
336
  8
QUOTE_TMG-1_
 10
138.0325290900896107
 20
84.2182467565007045
 30
0.0
 11
135.0325290900896107
 21
84.6182467565006959
 31
0.0
  0
LINE
  5
337
  8
QUOTE_TMG-1_
 10
135.0325290900896107
 20
84.6182467565006959
 30
0.0
 11
135.0325290900896107
 21
83.8182467565006988
 31
0.0
  0
LINE
  5
338
  8
QUOTE_TMG-1_
 10
146.4895971166413915
 20
83.8182467565006988
 30
0.0
 11
149.4895971166413915
 21
84.2182467565007045
 31
0.0
  0
LINE
  5
339
  8
QUOTE_TMG-1_
 10
149.4895971166413915
 20
84.2182467565007045
 30
0.0
 11
146.4895971166413915
 21
84.6182467565006959
 31
0.0
  0
LINE
  5
33A
  8
QUOTE_TMG-1_
 10
146.4895971166413915
 20
84.6182467565006959
 30
0.0
 11
146.4895971166413915
 21
83.8182467565006988
 31
0.0
  0
LINE
  5
33B
  8
QUOTE_TMG-1_
 10
152.2677980894667087
 20
83.8182467565006988
 30
0.0
 11
155.2677980894667087
 21
84.2182467565007045
 31
0.0
  0
LINE
  5
33C
  8
QUOTE_TMG-1_
 10
155.2677980894667087
 20
84.2182467565007045
 30
0.0
 11
152.2677980894667087
 21
84.6182467565006959
 31
0.0
  0
LINE
  5
33D
  8
QUOTE_TMG-1_
 10
152.2677980894667087
 20
84.6182467565006959
 30
0.0
 11
152.2677980894667087
 21
83.8182467565006988
 31
0.0
  0
LINE
  5
33E
  8
QUOTE_TMG-1_
 10
158.2727520997148076
 20
83.8182467565006988
 30
0.0
 11
161.2727520997148076
 21
84.2182467565007045
 31
0.0
  0
LINE
  5
33F
  8
QUOTE_TMG-1_
 10
161.2727520997148076
 20
84.2182467565007045
 30
0.0
 11
158.2727520997148076
 21
84.6182467565006959
 31
0.0
  0
LINE
  5
340
  8
QUOTE_TMG-1_
 10
158.2727520997148076
 20
84.6182467565006959
 30
0.0
 11
158.2727520997148076
 21
83.8182467565006988
 31
0.0
  0
LINE
  5
341
  8
QUOTE_TMG-1_
 10
164.2777061099629918
 20
83.8182467565006988
 30
0.0
 11
167.2777061099629918
 21
84.2182467565007045
 31
0.0
  0
LINE
  5
342
  8
QUOTE_TMG-1_
 10
167.2777061099629918
 20
84.2182467565007045
 30
0.0
 11
164.2777061099629918
 21
84.6182467565006959
 31
0.0
  0
LINE
  5
343
  8
QUOTE_TMG-1_
 10
164.2777061099629918
 20
84.6182467565006959
 30
0.0
 11
164.2777061099629918
 21
83.8182467565006988
 31
0.0
  0
LINE
  5
344
  8
QUOTE_TMG-1_
 10
172.967311698785295
 20
83.8182467565006988
 30
0.0
 11
175.967311698785295
 21
84.2182467565007045
 31
0.0
  0
LINE
  5
345
  8
QUOTE_TMG-1_
 10
175.967311698785295
 20
84.2182467565007045
 30
0.0
 11
172.967311698785295
 21
84.6182467565006959
 31
0.0
  0
LINE
  5
346
  8
QUOTE_TMG-1_
 10
172.967311698785295
 20
84.6182467565006959
 30
0.0
 11
172.967311698785295
 21
83.8182467565006988
 31
0.0
  0
LINE
  5
347
  8
QUOTE_TMG-1_
 10
180.467311698785295
 20
83.8182467565006988
 30
0.0
 11
183.467311698785295
 21
84.2182467565007045
 31
0.0
  0
LINE
  5
348
  8
QUOTE_TMG-1_
 10
183.467311698785295
 20
84.2182467565007045
 30
0.0
 11
180.467311698785295
 21
84.6182467565006959
 31
0.0
  0
LINE
  5
349
  8
QUOTE_TMG-1_
 10
180.467311698785295
 20
84.6182467565006959
 30
0.0
 11
180.467311698785295
 21
83.8182467565006988
 31
0.0
  0
LINE
  5
34A
  8
QUOTE_TMG-1_
 10
121.0187596341877025
 20
84.2182467565007045
 30
0.0
 11
121.467311698785295
 21
84.2182467565007045
 31
0.0
  0
LINE
  5
34B
  8
QUOTE_TMG-1_
 10
124.0187596341877025
 20
84.2182467565007045
 30
0.0
 11
135.0325290900896107
 21
84.2182467565007045
 31
0.0
  0
LINE
  5
34C
  8
QUOTE_TMG-1_
 10
138.0325290900896107
 20
84.2182467565007045
 30
0.0
 11
146.4895971166413915
 21
84.2182467565007045
 31
0.0
  0
LINE
  5
34D
  8
QUOTE_TMG-1_
 10
149.4895971166413915
 20
84.2182467565007045
 30
0.0
 11
152.2677980894667087
 21
84.2182467565007045
 31
0.0
  0
LINE
  5
34E
  8
QUOTE_TMG-1_
 10
155.2677980894667087
 20
84.2182467565007045
 30
0.0
 11
158.2727520997148076
 21
84.2182467565007045
 31
0.0
  0
LINE
  5
34F
  8
QUOTE_TMG-1_
 10
161.2727520997148076
 20
84.2182467565007045
 30
0.0
 11
164.2777061099629918
 21
84.2182467565007045
 31
0.0
  0
LINE
  5
350
  8
QUOTE_TMG-1_
 10
167.2777061099629918
 20
84.2182467565007045
 30
0.0
 11
172.967311698785295
 21
84.2182467565007045
 31
0.0
  0
LINE
  5
351
  8
QUOTE_TMG-1_
 10
175.967311698785295
 20
84.2182467565007045
 30
0.0
 11
180.467311698785295
 21
84.2182467565007045
 31
0.0
  0
ENDBLK
  5
352
  8
0
  0
BLOCK
  8
0
  2
*D19
 70
     1
 10
0.0
 20
0.0
 30
0.0
  3
*D19
  1

  0
LINE
  5
355
  8
QUOTE_TMG-1_
  6
CONTINUOUS
 62
     7
 10
473.86924679514118
 20
667.9639350401331512
 30
0.0
 11
473.86924679514118
 21
936.624039925300508
 31
0.0
  0
LINE
  5
356
  8
QUOTE_TMG-1_
  6
CONTINUOUS
 62
     7
 10
563.8692467951410663
 20
912.624039925300508
 30
0.0
 11
563.8692467951410663
 21
936.624039925300508
 31
0.0
  0
LINE
  5
357
  8
QUOTE_TMG-1_
  6
CONTINUOUS
 62
     7
 10
485.86924679514118
 20
930.6240399253003943
 30
0.0
 11
551.8692467951410663
 21
930.6240399253003943
 31
0.0
  0
INSERT
  5
358
  8
QUOTE_TMG-1_
  6
CONTINUOUS
 62
     7
  2
EMPTY-1
 10
473.86924679514118
 20
930.6240399253003943
 30
0.0
 41
12.0
 42
12.0
 43
12.0
 50
180.0
  0
INSERT
  5
359
  8
QUOTE_TMG-1_
  6
CONTINUOUS
 62
     7
  2
EMPTY-1
 10
563.8692467951410663
 20
930.6240399253003943
 30
0.0
 41
12.0
 42
12.0
 43
12.0
  0
INSERT
  5
35A
  8
0
  2
*U51
 10
0.0
 20
0.0
 30
0.0
  0
POINT
  5
35B
  8
DEFPOINTS
  6
CONTINUOUS
 62
     0
 10
473.86924679514118
 20
661.9639350401332649
 30
0.0
  0
POINT
  5
35C
  8
DEFPOINTS
  6
CONTINUOUS
 62
     0
 10
563.8692467951410663
 20
906.6240399253003943
 30
0.0
  0
POINT
  5
35D
  8
DEFPOINTS
  6
CONTINUOUS
 62
     0
 10
563.8692467951410663
 20
930.6240399253003943
 30
0.0
  0
ENDBLK
  5
35E
  8
0
  0
BLOCK
  8
0
  2
*D21
 70
     1
 10
0.0
 20
0.0
 30
0.0
  3
*D21
  1

  0
LINE
  5
453
  8
QUOTE_TMG-1_
  6
CONTINUOUS
 62
     7
 10
7.0000000000003118
 20
359.3471555770180998
 30
0.0
 11
42.4596418780711105
 21
244.026074635282697
 31
0.0
  0
LINE
  5
454
  8
QUOTE_TMG-1_
  6
CONTINUOUS
 62
     7
 10
76.9496003980194416
 20
131.8585769534801955
 30
0.0
 11
46.583480781338551
 21
230.6146148808489897
 31
0.0
  0
INSERT
  5
455
  8
0
  2
*U55
 10
0.0
 20
0.0
 30
0.0
  0
INSERT
  5
456
  8
QUOTE_TMG-1_
  6
CONTINUOUS
 62
     7
  2
EMPTY-1
 10
80.4764710063229245
 20
120.3885645859069058
 30
0.0
 41
12.0
 42
12.0
 43
12.0
 50
287.0919409882623086
  0
POINT
  5
457
  8
DEFPOINTS
  6
CONTINUOUS
 62
     0
 10
80.4764710063229245
 20
120.3885645859069058
 30
0.0
  0
POINT
  5
458
  8
DEFPOINTS
  6
CONTINUOUS
 62
     0
 10
7.0000000000003118
 20
359.3471555770180998
 30
0.0
  0
ENDBLK
  5
3CA
  8
0
  0
BLOCK
  8
0
  2
*D22
 70
     1
 10
0.0
 20
0.0
 30
0.0
  3
*D22
  1

  0
LINE
  5
459
  8
QUOTE_TMG-1_
  6
CONTINUOUS
 62
     7
 10
7.0000000000000417
 20
359.3471555770191799
 30
0.0
 11
28.9623299627186803
 21
193.3154704381441036
 31
0.0
  0
LINE
  5
45A
  8
QUOTE_TMG-1_
  6
CONTINUOUS
 62
     7
 10
32.9648585415894004
 20
163.0569975942113956
 30
0.0
 11
30.7363702861800014
 21
179.904010683710311
 31
0.0
  0
INSERT
  5
45B
  8
0
  2
*U56
 10
0.0
 20
0.0
 30
0.0
  0
INSERT
  5
45C
  8
QUOTE_TMG-1_
  6
CONTINUOUS
 62
     7
  2
EMPTY-1
 10
34.538486331988743
 20
151.1606243831321876
 30
0.0
 41
12.0
 42
12.0
 43
12.0
 50
277.5352220576331206
  0
POINT
  5
45D
  8
DEFPOINTS
  6
CONTINUOUS
 62
     0
 10
34.538486331988743
 20
151.1606243831321876
 30
0.0
  0
POINT
  5
45E
  8
DEFPOINTS
  6
CONTINUOUS
 62
     0
 10
7.0000000000000417
 20
359.3471555770191799
 30
0.0
  0
ENDBLK
  5
3D3
  8
0
  0
BLOCK
  8
0
  2
*D23
 70
     1
 10
0.0
 20
0.0
 30
0.0
  3
*D23
  1

  0
LINE
  5
45F
  8
QUOTE_TMG-1_
  6
CONTINUOUS
 62
     7
 10
7.000000000000127
 20
359.3471555770180998
 30
0.0
 11
128.9170586328608863
 21
311.2278631633002988
 31
0.0
  0
LINE
  5
460
  8
QUOTE_TMG-1_
  6
CONTINUOUS
 62
     7
 10
181.872053186383198
 20
290.3271221491879146
 30
0.0
 11
162.8968958918026999
 21
297.8164034088663925
 31
0.0
  0
INSERT
  5
461
  8
0
  2
*U57
 10
0.0
 20
0.0
 30
0.0
  0
INSERT
  5
462
  8
QUOTE_TMG-1_
  6
CONTINUOUS
 62
     7
  2
EMPTY-1
 10
193.0340991344500878
 20
285.9215881006028894
 30
0.0
 41
12.0
 42
12.0
 43
12.0
 50
338.4614077447527052
  0
POINT
  5
463
  8
DEFPOINTS
  6
CONTINUOUS
 62
     0
 10
193.0340991344500878
 20
285.9215881006028894
 30
0.0
  0
POINT
  5
464
  8
DEFPOINTS
  6
CONTINUOUS
 62
     0
 10
7.000000000000127
 20
359.3471555770180998
 30
0.0
  0
ENDBLK
  5
3DC
  8
0
  0
BLOCK
  8
0
  2
*D24
 70
     1
 10
0.0
 20
0.0
 30
0.0
  3
*D24
  1

  0
LINE
  5
465
  8
QUOTE_TMG-1_
  6
CONTINUOUS
 62
     7
 10
7.000000000000056
 20
359.3471555770178725
 30
0.0
 11
133.4410630386240086
 21
265.8581296615845986
 31
0.0
  0
LINE
  5
466
  8
QUOTE_TMG-1_
  6
CONTINUOUS
 62
     7
 10
206.411113852201197
 20
211.9049374974447062
 30
0.0
 11
151.5796542972842076
 21
252.446669907150806
 31
0.0
  0
INSERT
  5
467
  8
0
  2
*U58
 10
0.0
 20
0.0
 30
0.0
  0
INSERT
  5
468
  8
QUOTE_TMG-1_
  6
CONTINUOUS
 62
     7
  2
EMPTY-1
 10
216.0600387160174876
 20
204.770636622626796
 30
0.0
 41
12.0
 42
12.0
 43
12.0
 50
323.5212169748488122
  0
POINT
  5
469
  8
DEFPOINTS
  6
CONTINUOUS
 62
     0
 10
216.0600387160174876
 20
204.770636622626796
 30
0.0
  0
POINT
  5
46A
  8
DEFPOINTS
  6
CONTINUOUS
 62
     0
 10
7.000000000000056
 20
359.3471555770178725
 30
0.0
  0
ENDBLK
  5
3E5
  8
0
  0
BLOCK
  8
0
  2
*D25
 70
     1
 10
0.0
 20
0.0
 30
0.0
  3
*D25
  1

  0
LINE
  5
46B
  8
QUOTE_TMG-1_
  6
CONTINUOUS
 62
     7
 10
21.1236209715355905
 20
514.563401581597418
 30
0.0
 11
66.3719340859823888
 21
514.563401581597418
 31
0.0
  0
LINE
  5
46C
  8
QUOTE_TMG-1_
  6
CONTINUOUS
 62
     7
 10
66.3719340859823888
 20
514.563401581597418
 30
0.0
 11
76.9686515050213416
 21
534.0918832126873212
 31
0.0
  0
INSERT
  5
46D
  8
0
  2
*U59
 10
0.0
 20
0.0
 30
0.0
  0
INSERT
  5
46E
  8
QUOTE_TMG-1_
  6
CONTINUOUS
 62
     7
  2
EMPTY-1
 10
82.691893932158024
 20
544.639133855400928
 30
0.0
 41
12.0
 42
12.0
 43
12.0
 50
61.5144655417336779
  0
POINT
  5
46F
  8
DEFPOINTS
  6
CONTINUOUS
 62
     0
 10
82.691893932158024
 20
544.639133855400928
 30
0.0
  0
POINT
  5
470
  8
DEFPOINTS
  6
CONTINUOUS
 62
     0
 10
96.999999999999531
 20
571.0072604621844903
 30
0.0
  0
ENDBLK
  5
3EE
  8
0
  0
BLOCK
  8
0
  2
*D26
 70
     1
 10
0.0
 20
0.0
 30
0.0
  3
*D26
  1

  0
LINE
  5
471
  8
QUOTE_TMG-1_
  6
CONTINUOUS
 62
     7
 10
7.0000000000048974
 20
93.3471555770229742
 30
0.0
 11
7.0000000000048948
 21
35.2562075628901823
 31
0.0
  0
INSERT
  5
472
  8
0
  2
*U60
 10
0.0
 20
0.0
 30
0.0
  0
POINT
  5
473
  8
DEFPOINTS
  6
CONTINUOUS
 62
     0
 10
7.0000000000048948
 20
99.3471555770229884
 30
0.0
  0
POINT
  5
474
  8
DEFPOINTS
  6
CONTINUOUS
 62
     0
 10
7.0000000000048948
 20
35.2562075628901823
 30
0.0
  0
POINT
  5
475
  8
DEFPOINTS
  6
CONTINUOUS
 62
     0
 10
7.000000000004384
 20
99.3471555770224768
 30
0.0
  0
ENDBLK
  5
3F7
  8
0
  0
BLOCK
  8
0
  2
*D27
 70
     1
 10
0.0
 20
0.0
 30
0.0
  3
*D27
  1

  0
LINE
  5
476
  8
QUOTE_TMG-1_
  6
CONTINUOUS
 62
     7
 10
27.0000000000052012
 20
124.2183708292310058
 30
0.0
 11
27.0000000000052083
 21
83.2562075628901681
 31
0.0
  0
LINE
  5
477
  8
QUOTE_TMG-1_
  6
CONTINUOUS
 62
     7
 10
27.0000000000052083
 20
83.2562075628901681
 30
0.0
 11
29.205791741614771
 21
59.2562075628901894
 31
0.0
  0
LINE
  5
478
  8
QUOTE_TMG-1_
  6
CONTINUOUS
 62
     7
 10
29.205791741614771
 20
59.2562075628901894
 30
0.0
 11
29.2057917416147816
 21
35.2562075628901823
 31
0.0
  0
INSERT
  5
479
  8
0
  2
*U61
 10
0.0
 20
0.0
 30
0.0
  0
POINT
  5
47A
  8
DEFPOINTS
  6
CONTINUOUS
 62
     0
 10
27.0000000000052012
 20
130.2183708292309916
 30
0.0
  0
POINT
  5
47B
  8
DEFPOINTS
  6
CONTINUOUS
 62
     0
 10
29.2057917416147816
 20
35.2562075628901823
 30
0.0
  0
POINT
  5
47C
  8
DEFPOINTS
  6
CONTINUOUS
 62
     0
 10
7.000000000004384
 20
99.3471555770224768
 30
0.0
  0
ENDBLK
  5
3FF
  8
0
  0
BLOCK
  8
0
  2
*D28
 70
     1
 10
0.0
 20
0.0
 30
0.0
  3
*D28
  1

  0
LINE
  5
47D
  8
QUOTE_TMG-1_
  6
CONTINUOUS
 62
     7
 10
97.0000000000052864
 20
141.6870506918556885
 30
0.0
 11
97.0000000000053006
 21
83.2562075628901965
 31
0.0
  0
LINE
  5
47E
  8
QUOTE_TMG-1_
  6
CONTINUOUS
 62
     7
 10
97.0000000000053006
 20
83.2562075628901965
 30
0.0
 11
131.0891416714295872
 21
59.2562075628901894
 31
0.0
  0
LINE
  5
47F
  8
QUOTE_TMG-1_
  6
CONTINUOUS
 62
     7
 10
131.0891416714295872
 20
59.2562075628901894
 30
0.0
 11
131.0891416714295872
 21
35.2562075628901823
 31
0.0
  0
INSERT
  5
480
  8
0
  2
*U62
 10
0.0
 20
0.0
 30
0.0
  0
POINT
  5
481
  8
DEFPOINTS
  6
CONTINUOUS
 62
     0
 10
97.0000000000052864
 20
147.6870506918556885
 30
0.0
  0
POINT
  5
482
  8
DEFPOINTS
  6
CONTINUOUS
 62
     0
 10
131.0891416714295872
 20
35.2562075628901823
 30
0.0
  0
POINT
  5
483
  8
DEFPOINTS
  6
CONTINUOUS
 62
     0
 10
7.000000000004384
 20
99.3471555770224768
 30
0.0
  0
ENDBLK
  5
409
  8
0
  0
BLOCK
  8
0
  2
*D29
 70
     1
 10
0.0
 20
0.0
 30
0.0
  3
*D29
  1

  0
LINE
  5
484
  8
QUOTE_TMG-1_
  6
CONTINUOUS
 62
     7
 10
115.6956521739183046
 20
128.213294955197
 30
0.0
 11
115.6956521739183046
 21
83.2562075628901681
 31
0.0
  0
LINE
  5
485
  8
QUOTE_TMG-1_
  6
CONTINUOUS
 62
     7
 10
115.6956521739183046
 20
83.2562075628901681
 30
0.0
 11
202.2415776447163864
 21
59.2562075628901894
 31
0.0
  0
LINE
  5
486
  8
QUOTE_TMG-1_
  6
CONTINUOUS
 62
     7
 10
202.2415776447163864
 20
59.2562075628901894
 30
0.0
 11
202.2415776447163864
 21
35.2562075628901823
 31
0.0
  0
INSERT
  5
487
  8
0
  2
*U63
 10
0.0
 20
0.0
 30
0.0
  0
POINT
  5
488
  8
DEFPOINTS
  6
CONTINUOUS
 62
     0
 10
115.6956521739183046
 20
134.213294955197
 30
0.0
  0
POINT
  5
489
  8
DEFPOINTS
  6
CONTINUOUS
 62
     0
 10
202.2415776447163864
 20
35.2562075628901823
 30
0.0
  0
POINT
  5
48A
  8
DEFPOINTS
  6
CONTINUOUS
 62
     0
 10
7.000000000004384
 20
99.3471555770224768
 30
0.0
  0
ENDBLK
  5
413
  8
0
  0
BLOCK
  8
0
  2
*D30
 70
     1
 10
0.0
 20
0.0
 30
0.0
  3
*D30
  1

  0
LINE
  5
48B
  8
QUOTE_TMG-1_
  6
CONTINUOUS
 62
     7
 10
98.3043478260921546
 20
164.2347126546891047
 30
0.0
 11
98.3043478260921972
 21
83.2562075628901681
 31
0.0
  0
LINE
  5
48C
  8
QUOTE_TMG-1_
  6
CONTINUOUS
 62
     7
 10
98.3043478260921972
 20
83.2562075628901681
 30
0.0
 11
154.2019455627307991
 21
59.2562075628901894
 31
0.0
  0
LINE
  5
48D
  8
QUOTE_TMG-1_
  6
CONTINUOUS
 62
     7
 10
154.2019455627307991
 20
59.2562075628901894
 30
0.0
 11
154.2019455627307991
 21
35.2562075628901823
 31
0.0
  0
INSERT
  5
48E
  8
0
  2
*U64
 10
0.0
 20
0.0
 30
0.0
  0
POINT
  5
48F
  8
DEFPOINTS
  6
CONTINUOUS
 62
     0
 10
98.3043478260921546
 20
170.2347126546891047
 30
0.0
  0
POINT
  5
490
  8
DEFPOINTS
  6
CONTINUOUS
 62
     0
 10
154.2019455627307991
 20
35.2562075628901823
 30
0.0
  0
POINT
  5
491
  8
DEFPOINTS
  6
CONTINUOUS
 62
     0
 10
7.000000000004384
 20
99.3471555770224768
 30
0.0
  0
ENDBLK
  5
41D
  8
0
  0
BLOCK
  8
0
  2
*D31
 70
     1
 10
0.0
 20
0.0
 30
0.0
  3
*D31
  1

  0
LINE
  5
492
  8
QUOTE_TMG-1_
  6
CONTINUOUS
 62
     7
 10
237.0000000000052864
 20
353.3471555770233863
 30
0.0
 11
237.0000000000052864
 21
35.2562075628901823
 31
0.0
  0
INSERT
  5
493
  8
0
  2
*U65
 10
0.0
 20
0.0
 30
0.0
  0
POINT
  5
494
  8
DEFPOINTS
  6
CONTINUOUS
 62
     0
 10
237.0000000000052864
 20
359.3471555770233863
 30
0.0
  0
POINT
  5
495
  8
DEFPOINTS
  6
CONTINUOUS
 62
     0
 10
237.0000000000052864
 20
35.2562075628901823
 30
0.0
  0
POINT
  5
496
  8
DEFPOINTS
  6
CONTINUOUS
 62
     0
 10
7.000000000004384
 20
99.3471555770224768
 30
0.0
  0
ENDBLK
  5
427
  8
0
  0
BLOCK
  8
0
  2
*D32
 70
     1
 10
0.0
 20
0.0
 30
0.0
  3
*D32
  1

  0
LINE
  5
497
  8
QUOTE_TMG-1_
  6
CONTINUOUS
 62
     7
 10
267.0000000000055138
 20
353.3471555770233863
 30
0.0
 11
267.0000000000055138
 21
35.2562075628901823
 31
0.0
  0
INSERT
  5
498
  8
0
  2
*U66
 10
0.0
 20
0.0
 30
0.0
  0
POINT
  5
499
  8
DEFPOINTS
  6
CONTINUOUS
 62
     0
 10
267.0000000000055138
 20
359.3471555770233863
 30
0.0
  0
POINT
  5
49A
  8
DEFPOINTS
  6
CONTINUOUS
 62
     0
 10
267.0000000000055138
 20
35.2562075628901823
 30
0.0
  0
POINT
  5
49B
  8
DEFPOINTS
  6
CONTINUOUS
 62
     0
 10
7.000000000004384
 20
99.3471555770224768
 30
0.0
  0
ENDBLK
  5
42F
  8
0
  0
BLOCK
  8
0
  2
*D33
 70
     1
 10
0.0
 20
0.0
 30
0.0
  3
*D33
  1

  0
LINE
  5
49C
  8
QUOTE_TMG-1_
  6
CONTINUOUS
 62
     7
 10
85.2608695652226061
 20
537.3994206945646965
 30
0.0
 11
85.2608695652226061
 21
35.2562075628901823
 31
0.0
  0
INSERT
  5
49D
  8
0
  2
*U67
 10
0.0
 20
0.0
 30
0.0
  0
POINT
  5
49E
  8
DEFPOINTS
  6
CONTINUOUS
 62
     0
 10
85.2608695652226061
 20
543.3994206945648102
 30
0.0
  0
POINT
  5
49F
  8
DEFPOINTS
  6
CONTINUOUS
 62
     0
 10
85.2608695652226061
 20
35.2562075628901823
 30
0.0
  0
POINT
  5
4A0
  8
DEFPOINTS
  6
CONTINUOUS
 62
     0
 10
7.000000000004384
 20
99.3471555770224768
 30
0.0
  0
ENDBLK
  5
437
  8
0
  0
BLOCK
  8
0
  2
*D34
 70
     1
 10
0.0
 20
0.0
 30
0.0
  3
*D34
  1

  0
LINE
  5
4A1
  8
QUOTE_TMG-1_
  6
CONTINUOUS
 62
     7
 10
108.7391304347878958
 20
592.6151002298259982
 30
0.0
 11
108.7391304347879952
 21
83.2562075628901681
 31
0.0
  0
LINE
  5
4A2
  8
QUOTE_TMG-1_
  6
CONTINUOUS
 62
     7
 10
108.7391304347879952
 20
83.2562075628901681
 30
0.0
 11
178.2217616037235075
 21
59.2562075628901894
 31
0.0
  0
LINE
  5
4A3
  8
QUOTE_TMG-1_
  6
CONTINUOUS
 62
     7
 10
178.2217616037235075
 20
59.2562075628901894
 30
0.0
 11
178.2217616037235075
 21
35.2562075628901823
 31
0.0
  0
INSERT
  5
4A4
  8
0
  2
*U68
 10
0.0
 20
0.0
 30
0.0
  0
POINT
  5
4A5
  8
DEFPOINTS
  6
CONTINUOUS
 62
     0
 10
108.7391304347878958
 20
598.6151002298258845
 30
0.0
  0
POINT
  5
4A6
  8
DEFPOINTS
  6
CONTINUOUS
 62
     0
 10
178.2217616037235075
 20
35.2562075628901823
 30
0.0
  0
POINT
  5
4A7
  8
DEFPOINTS
  6
CONTINUOUS
 62
     0
 10
7.000000000004384
 20
99.3471555770224768
 30
0.0
  0
ENDBLK
  5
43F
  8
0
  0
BLOCK
  8
0
  2
*D35
 70
     1
 10
0.0
 20
0.0
 30
0.0
  3
*D35
  1

  0
LINE
  5
4A8
  8
QUOTE_TMG-1_
  6
CONTINUOUS
 62
     7
 10
7.000000000000056
 20
372.3471555770179862
 30
0.0
 11
7.0000000000000728
 21
641.0072604621851724
 31
0.0
  0
LINE
  5
4A9
  8
QUOTE_TMG-1_
  6
CONTINUOUS
 62
     7
 10
97.0000000000000568
 20
617.0072604621850587
 30
0.0
 11
97.0000000000000568
 21
641.0072604621851724
 31
0.0
  0
LINE
  5
4AA
  8
QUOTE_TMG-1_
  6
CONTINUOUS
 62
     7
 10
19.0000000000000711
 20
635.0072604621851724
 30
0.0
 11
85.0000000000000568
 21
635.0072604621851724
 31
0.0
  0
INSERT
  5
4AB
  8
QUOTE_TMG-1_
  6
CONTINUOUS
 62
     7
  2
EMPTY-1
 10
7.0000000000000728
 20
635.0072604621851724
 30
0.0
 41
12.0
 42
12.0
 43
12.0
 50
180.0
  0
INSERT
  5
4AC
  8
QUOTE_TMG-1_
  6
CONTINUOUS
 62
     7
  2
EMPTY-1
 10
97.0000000000000568
 20
635.0072604621851724
 30
0.0
 41
12.0
 42
12.0
 43
12.0
  0
INSERT
  5
4AD
  8
0
  2
*U69
 10
0.0
 20
0.0
 30
0.0
  0
POINT
  5
4AE
  8
DEFPOINTS
  6
CONTINUOUS
 62
     0
 10
7.000000000000056
 20
366.3471555770179862
 30
0.0
  0
POINT
  5
4AF
  8
DEFPOINTS
  6
CONTINUOUS
 62
     0
 10
97.0000000000000568
 20
611.0072604621850587
 30
0.0
  0
POINT
  5
4B0
  8
DEFPOINTS
  6
CONTINUOUS
 62
     0
 10
97.0000000000000568
 20
635.0072604621851724
 30
0.0
  0
ENDBLK
  5
449
  8
0
  0
BLOCK
  8
0
  2
*U37
 70
     1
 10
0.0
 20
0.0
 30
0.0
  3
*U37
  1

  0
TEXT
  5
61D
  8
QUOTE_TMG-1_
 62
     7
 10
494.4774383192832943
 20
528.0223902809137826
 30
0.0
 40
10.0
  1
R250
  7
TMG
  0
ENDBLK
  5
61F
  8
0
  0
BLOCK
  8
0
  2
*U38
 70
     1
 10
0.0
 20
0.0
 30
0.0
  3
*U38
  1

  0
TEXT
  5
621
  8
QUOTE_TMG-1_
 62
     7
 10
479.8052271140281277
 20
477.3117860837754165
 30
0.0
 40
10.0
  1
R210
  7
TMG
  0
ENDBLK
  5
623
  8
0
  0
BLOCK
  8
0
  2
*U39
 70
     1
 10
0.0
 20
0.0
 30
0.0
  3
*U39
  1

  0
TEXT
  5
625
  8
QUOTE_TMG-1_
 62
     7
 10
595.8628542519106759
 20
595.2241788089313559
 30
0.0
 40
10.0
  1
R200
  7
TMG
  0
ENDBLK
  5
627
  8
0
  0
BLOCK
  8
0
  2
*U40
 70
     1
 10
0.0
 20
0.0
 30
0.0
  3
*U40
  1

  0
TEXT
  5
629
  8
QUOTE_TMG-1_
 62
     7
 10
592.466235657532593
 20
549.8544453072159968
 30
0.0
 40
10.0
  1
R260
  7
TMG
  0
ENDBLK
  5
62B
  8
0
  0
BLOCK
  8
0
  2
*U41
 70
     1
 10
0.0
 20
0.0
 30
0.0
  3
*U41
  1

  0
TEXT
  5
62D
  8
QUOTE_TMG-1_
 62
     7
 10
486.8946412306567026
 20
811.9779982938225658
 30
0.0
 40
10.0
  1
R30
  7
TMG
  0
ENDBLK
  5
62F
  8
0
  0
BLOCK
  8
0
  2
*U42
 70
     1
 10
0.0
 20
0.0
 30
0.0
  3
*U42
  1

  0
TEXT
  5
631
  8
QUOTE_TMG-1_
 62
     7
 10
478.7839807651322985
 20
322.1720320085108824
 30
0.0
 40
10.0
  1
0
 50
90.0
  7
TMG
  0
ENDBLK
  5
633
  8
0
  0
BLOCK
  8
0
  2
*U43
 70
     1
 10
0.0
 20
0.0
 30
0.0
  3
*U43
  1

  0
TEXT
  5
635
  8
QUOTE_TMG-1_
 62
     7
 10
500.9897725067420993
 20
314.4025913074510754
 30
0.0
 40
10.0
  1
20
 50
90.0
  7
TMG
  0
ENDBLK
  5
637
  8
0
  0
BLOCK
  8
0
  2
*U44
 70
     1
 10
0.0
 20
0.0
 30
0.0
  3
*U44
  1

  0
TEXT
  5
639
  8
QUOTE_TMG-1_
 62
     7
 10
602.8731224365569688
 20
314.4025913084436752
 30
0.0
 40
10.0
  1
90
 50
90.0
  7
TMG
  0
ENDBLK
  5
63B
  8
0
  0
BLOCK
  8
0
  2
*U45
 70
     1
 10
0.0
 20
0.0
 30
0.0
  3
*U45
  1

  0
TEXT
  5
63D
  8
QUOTE_TMG-1_
 62
     7
 10
673.1217384916990341
 20
294.9482937927713238
 30
0.0
 40
10.0
  1
108,7
 50
90.0
  7
TMG
  0
ENDBLK
  5
63F
  8
0
  0
BLOCK
  8
0
  2
*U46
 70
     1
 10
0.0
 20
0.0
 30
0.0
  3
*U46
  1

  0
TEXT
  5
641
  8
QUOTE_TMG-1_
 62
     7
 10
625.0821064097134467
 20
302.7177344873592801
 30
0.0
 40
10.0
  1
91,3
 50
90.0
  7
TMG
  0
ENDBLK
  5
643
  8
0
  0
BLOCK
  8
0
  2
*U47
 70
     1
 10
0.0
 20
0.0
 30
0.0
  3
*U47
  1

  0
TEXT
  5
645
  8
QUOTE_TMG-1_
 62
     7
 10
708.7805701239318523
 20
306.6331506073838113
 30
0.0
 40
10.0
  1
230
 50
90.0
  7
TMG
  0
ENDBLK
  5
647
  8
0
  0
BLOCK
  8
0
  2
*U48
 70
     1
 10
0.0
 20
0.0
 30
0.0
  3
*U48
  1

  0
TEXT
  5
649
  8
QUOTE_TMG-1_
 62
     7
 10
738.7839807651328101
 20
306.6331506073838113
 30
0.0
 40
10.0
  1
260
 50
90.0
  7
TMG
  0
ENDBLK
  5
64B
  8
0
  0
BLOCK
  8
0
  2
*U49
 70
     1
 10
0.0
 20
0.0
 30
0.0
  3
*U49
  1

  0
TEXT
  5
64D
  8
QUOTE_TMG-1_
 62
     7
 10
556.1410304122055095
 20
294.9551150702092741
 30
0.0
 40
10.0
  1
78,26
 50
90.0
  7
TMG
  0
ENDBLK
  5
64F
  8
0
  0
BLOCK
  8
0
  2
*U50
 70
     1
 10
0.0
 20
0.0
 30
0.0
  3
*U50
  1

  0
TEXT
  5
651
  8
QUOTE_TMG-1_
 62
     7
 10
649.1019224507062972
 20
294.9482937927713238
 30
0.0
 40
10.0
  1
101,7
 50
90.0
  7
TMG
  0
ENDBLK
  5
653
  8
0
  0
BLOCK
  8
0
  2
*U51
 70
     1
 10
0.0
 20
0.0
 30
0.0
  3
*U51
  1

  0
TEXT
  5
655
  8
QUOTE_TMG-1_
 62
     7
 10
511.1441444343141143
 20
932.415035891969751
 30
0.0
 40
10.0
  1
90
  7
TMG
  0
ENDBLK
  5
657
  8
0
  0
BLOCK
  8
0
  2
*U52
 70
     1
 10
0.0
 20
0.0
 30
0.0
  3
*U52
  1

  0
TEXT
  5
65A
  8
CONTORNO
 62
     7
 10
222.0383450336425142
 20
650.2331488330706861
 30
0.0
 40
10.0
  1
04-0001
  7
MtXpl_Simplex
  0
ENDBLK
  5
65C
  8
0
  0
BLOCK
  8
0
  2
*U53
 70
     1
 10
0.0
 20
0.0
 30
0.0
  3
*U53
  1

  0
TEXT
  5
65F
  8
COTAS
 62
     7
 10
150.4577715416639023
 20
601.7201010177628859
 30
0.0
 40
11.1999999999999993
  1
n
  7
MtXpl_AIGDT
  0
TEXT
  5
660
  8
COTAS
 62
     7
 10
163.3576401356191923
 20
601.7201010177628859
 30
0.0
 40
11.1999999999999993
  1
6.5 (4x)
  7
MtXpl_AIGDT
  0
ENDBLK
  5
662
  8
0
  0
BLOCK
  8
0
  2
*U54
 70
     1
 10
0.0
 20
0.0
 30
0.0
  3
*U54
  1

  0
INSERT
  5
664
  8
COTAS
  6
CONTINUOUS
 62
     7
  2
FILLED-1
 10
99.2980970388567243
 20
573.3053575010410441
 30
0.0
 41
12.0
 42
12.0
 43
12.0
 50
221.7951628486655125
  0
POLYLINE
  5
665
  8
COTAS
  6
CONTINUOUS
 62
     7
 66
     1
 10
0.0
 20
0.0
 30
0.0
  0
VERTEX
  5
666
  8
COTAS
  6
CONTINUOUS
 62
     7
 10
108.2444842609547067
 20
581.3029918807987997
 30
0.0
  0
VERTEX
  5
667
  8
COTAS
  6
CONTINUOUS
 62
     7
 10
135.259874038378797
 20
605.4534343669906775
 30
0.0
  0
VERTEX
  5
668
  8
COTAS
  6
CONTINUOUS
 62
     7
 10
147.2598740383787117
 20
605.4534343669906775
 30
0.0
  0
SEQEND
  5
669
  8
COTAS
  6
CONTINUOUS
 62
     7
  0
ENDBLK
  5
66B
  8
0
  0
BLOCK
  8
0
  2
*U55
 70
     1
 10
0.0
 20
0.0
 30
0.0
  3
*U55
  1

  0
TEXT
  5
66D
  8
QUOTE_TMG-1_
 62
     7
 10
27.6081916161984999
 20
232.4056107880795139
 30
0.0
 40
10.0
  1
R250
  7
TMG
  0
ENDBLK
  5
66F
  8
0
  0
BLOCK
  8
0
  2
*U56
 70
     1
 10
0.0
 20
0.0
 30
0.0
  3
*U56
  1

  0
TEXT
  5
671
  8
QUOTE_TMG-1_
 62
     7
 10
12.9359804109432197
 20
181.6950065909408067
 30
0.0
 40
10.0
  1
R210
  7
TMG
  0
ENDBLK
  5
673
  8
0
  0
BLOCK
  8
0
  2
*U57
 70
     1
 10
0.0
 20
0.0
 30
0.0
  3
*U57
  1

  0
TEXT
  5
675
  8
QUOTE_TMG-1_
 62
     7
 10
128.9936075488257927
 20
299.6073993160969167
 30
0.0
 40
10.0
  1
R200
  7
TMG
  0
ENDBLK
  5
677
  8
0
  0
BLOCK
  8
0
  2
*U58
 70
     1
 10
0.0
 20
0.0
 30
0.0
  3
*U58
  1

  0
TEXT
  5
679
  8
QUOTE_TMG-1_
 62
     7
 10
125.5969889544476956
 20
254.2376658143815007
 30
0.0
 40
10.0
  1
R260
  7
TMG
  0
ENDBLK
  5
67B
  8
0
  0
BLOCK
  8
0
  2
*U59
 70
     1
 10
0.0
 20
0.0
 30
0.0
  3
*U59
  1

  0
TEXT
  5
67D
  8
QUOTE_TMG-1_
 62
     7
 10
20.0253945049598308
 20
516.3612187712288915
 30
0.0
 40
10.0
  1
R30
  7
TMG
  0
ENDBLK
  5
67F
  8
0
  0
BLOCK
  8
0
  2
*U60
 70
     1
 10
0.0
 20
0.0
 30
0.0
  3
*U60
  1

  0
TEXT
  5
681
  8
QUOTE_TMG-1_
 62
     7
 10
11.9147339699912607
 20
26.5552525833540187
 30
0.0
 40
10.0
  1
0
 50
90.0
  7
TMG
  0
ENDBLK
  5
683
  8
0
  0
BLOCK
  8
0
  2
*U61
 70
     1
 10
0.0
 20
0.0
 30
0.0
  3
*U61
  1

  0
TEXT
  5
685
  8
QUOTE_TMG-1_
 62
     7
 10
34.1205257116011325
 20
18.7858119285108884
 30
0.0
 40
10.0
  1
20
 50
90.0
  7
TMG
  0
ENDBLK
  5
687
  8
0
  0
BLOCK
  8
0
  2
*U62
 70
     1
 10
0.0
 20
0.0
 30
0.0
  3
*U62
  1

  0
TEXT
  5
689
  8
QUOTE_TMG-1_
 62
     7
 10
136.0038756414159877
 20
18.7858119285108707
 30
0.0
 40
10.0
  1
90
 50
90.0
  7
TMG
  0
ENDBLK
  5
68B
  8
0
  0
BLOCK
  8
0
  2
*U63
 70
     1
 10
0.0
 20
0.0
 30
0.0
  3
*U63
  1

  0
TEXT
  5
68D
  8
QUOTE_TMG-1_
 62
     7
 10
206.2524916965581099
 20
-0.6684854794018361
 30
0.0
 40
10.0
  1
108,7
 50
90.0
  7
TMG
  0
ENDBLK
  5
68F
  8
0
  0
BLOCK
  8
0
  2
*U64
 70
     1
 10
0.0
 20
0.0
 30
0.0
  3
*U64
  1

  0
TEXT
  5
691
  8
QUOTE_TMG-1_
 62
     7
 10
158.2128596145724941
 20
7.1009551754412881
 30
0.0
 40
10.0
  1
91,3
 50
90.0
  7
TMG
  0
ENDBLK
  5
693
  8
0
  0
BLOCK
  8
0
  2
*U65
 70
     1
 10
0.0
 20
0.0
 30
0.0
  3
*U65
  1

  0
TEXT
  5
695
  8
QUOTE_TMG-1_
 62
     7
 10
241.9113233287910987
 20
11.0163712736677404
 30
0.0
 40
10.0
  1
230
 50
90.0
  7
TMG
  0
ENDBLK
  5
697
  8
0
  0
BLOCK
  8
0
  2
*U66
 70
     1
 10
0.0
 20
0.0
 30
0.0
  3
*U66
  1

  0
TEXT
  5
699
  8
QUOTE_TMG-1_
 62
     7
 10
271.9147339699919144
 20
11.0163712736677297
 30
0.0
 40
10.0
  1
260
 50
90.0
  7
TMG
  0
ENDBLK
  5
69B
  8
0
  0
BLOCK
  8
0
  2
*U67
 70
     1
 10
0.0
 20
0.0
 30
0.0
  3
*U67
  1

  0
TEXT
  5
69D
  8
QUOTE_TMG-1_
 62
     7
 10
89.2717836170643579
 20
-0.6616641970007114
 30
0.0
 40
10.0
  1
78,26
 50
90.0
  7
TMG
  0
ENDBLK
  5
69F
  8
0
  0
BLOCK
  8
0
  2
*U68
 70
     1
 10
0.0
 20
0.0
 30
0.0
  3
*U68
  1

  0
TEXT
  5
6A1
  8
QUOTE_TMG-1_
 62
     7
 10
182.2326756555652878
 20
-0.6684854794018361
 30
0.0
 40
10.0
  1
101,7
 50
90.0
  7
TMG
  0
ENDBLK
  5
6A3
  8
0
  0
BLOCK
  8
0
  2
*U69
 70
     1
 10
0.0
 20
0.0
 30
0.0
  3
*U69
  1

  0
TEXT
  5
6A5
  8
QUOTE_TMG-1_
 62
     7
 10
44.2748976807640418
 20
636.7982563694157534
 30
0.0
 40
10.0
  1
90
  7
TMG
  0
ENDBLK
  5
6A7
  8
0
  0
ENDSEC
  0
SECTION
  2
ENTITIES
  0
CIRCLE
  5
39F
  8
SPIGOLI_VISIBILI_TMG-1_
 10
237.0
 20
359.3471555770180998
 30
0.0
 40
3.25
  0
CIRCLE
  5
3A0
  8
SPIGOLI_VISIBILI_TMG-1_
 10
27.0000000000000604
 20
130.2183708292259894
 30
0.0
 40
3.25
  0
CIRCLE
  5
3A1
  8
SPIGOLI_VISIBILI_TMG-1_
 10
97.0000000000000568
 20
147.6870506918507999
 30
0.0
 40
3.25
  0
CIRCLE
  5
3A2
  8
SPIGOLI_VISIBILI_TMG-1_
 10
97.0000000000000568
 20
571.0072604621850587
 30
0.0
 40
3.25
  0
POLYLINE
  5
4BE
  8
SPIGOLI_VISIBILI_TMG-1_
 66
     1
 10
0.0
 20
0.0
 30
0.0
 70
     1
  0
VERTEX
  5
6A8
  8
SPIGOLI_VISIBILI_TMG-1_
 10
7.000000000000056
 20
149.3471555770179862
 30
0.0
  0
VERTEX
  5
6A9
  8
SPIGOLI_VISIBILI_TMG-1_
 10
7.000000000000056
 20
109.3471555770180004
 30
0.0
  0
VERTEX
  5
6AA
  8
SPIGOLI_VISIBILI_TMG-1_
 10
7.0000000000000648
 20
99.347155577018043
 30
0.0
 42
0.8167746640101643
  0
VERTEX
  5
6AB
  8
SPIGOLI_VISIBILI_TMG-1_
 10
108.7391304347822967
 20
598.6151002298157664
 30
0.0
 42
0.9999999999999996
  0
VERTEX
  5
6AC
  8
SPIGOLI_VISIBILI_TMG-1_
 10
85.260869565217746
 20
543.3994206945545784
 30
0.0
 42
-0.8167746640101643
  0
VERTEX
  5
6AD
  8
SPIGOLI_VISIBILI_TMG-1_
 10
7.0000000000000773
 20
159.3471555770180998
 30
0.0
  0
SEQEND
  5
6AE
  8
SPIGOLI_VISIBILI_TMG-1_
  0
POLYLINE
  5
4BF
  8
SPIGOLI_VISIBILI_TMG-1_
 66
     1
 10
0.0
 20
0.0
 30
0.0
 70
     1
  0
VERTEX
  5
6AF
  8
SPIGOLI_VISIBILI_TMG-1_
 10
6.9999999999998481
 20
149.3471555770179862
 30
0.0
 42
0.1129255916494378
  0
VERTEX
  5
6B0
  8
SPIGOLI_VISIBILI_TMG-1_
 10
98.3043478260835286
 20
170.2347126546825962
 30
0.0
 42
-0.9999999999999996
  0
VERTEX
  5
6B1
  8
SPIGOLI_VISIBILI_TMG-1_
 10
115.6956521739127055
 20
134.2132949551919125
 30
0.0
 42
-0.1129255916494378
  0
VERTEX
  5
6B2
  8
SPIGOLI_VISIBILI_TMG-1_
 10
7.0000000000000098
 20
109.3471555770180004
 30
0.0
  0
SEQEND
  5
6B3
  8
SPIGOLI_VISIBILI_TMG-1_
  0
CIRCLE
  5
4C6
  8
SPIGOLI_VISIBILI_TMG-1_
 10
-236.9999999999998863
 20
359.3471555770180998
 30
0.0
 40
3.25
  0
CIRCLE
  5
4C7
  8
SPIGOLI_VISIBILI_TMG-1_
 10
-27.0000000000000107
 20
130.2183708292259894
 30
0.0
 40
3.25
  0
CIRCLE
  5
4C8
  8
SPIGOLI_VISIBILI_TMG-1_
 10
-97.0
 20
147.6870506918507999
 30
0.0
 40
3.25
  0
CIRCLE
  5
4C9
  8
SPIGOLI_VISIBILI_TMG-1_
 10
-96.9999999999998437
 20
571.0072604621850587
 30
0.0
 40
3.25
  0
POLYLINE
  5
4CA
  8
SPIGOLI_VISIBILI_TMG-1_
 66
     1
 10
0.0
 20
0.0
 30
0.0
 70
     1
  0
VERTEX
  5
6B4
  8
SPIGOLI_VISIBILI_TMG-1_
 10
-7.0000000000000009
 20
149.3471555770179862
 30
0.0
  0
VERTEX
  5
6B5
  8
SPIGOLI_VISIBILI_TMG-1_
 10
-7.000000000000016
 20
109.3471555770180004
 30
0.0
  0
VERTEX
  5
6B6
  8
SPIGOLI_VISIBILI_TMG-1_
 10
-7.0000000000000293
 20
99.347155577018043
 30
0.0
 42
-0.8167746640101643
  0
VERTEX
  5
6B7
  8
SPIGOLI_VISIBILI_TMG-1_
 10
-108.7391304347820977
 20
598.6151002298157664
 30
0.0
 42
-0.9999999999999996
  0
VERTEX
  5
6B8
  8
SPIGOLI_VISIBILI_TMG-1_
 10
-85.260869565217547
 20
543.3994206945545784
 30
0.0
 42
0.8167746640101643
  0
VERTEX
  5
6B9
  8
SPIGOLI_VISIBILI_TMG-1_
 10
-7.0000000000000178
 20
159.3471555770180998
 30
0.0
  0
SEQEND
  5
6BA
  8
SPIGOLI_VISIBILI_TMG-1_
  0
POLYLINE
  5
4CB
  8
SPIGOLI_VISIBILI_TMG-1_
 66
     1
 10
0.0
 20
0.0
 30
0.0
 70
     1
  0
VERTEX
  5
6BB
  8
SPIGOLI_VISIBILI_TMG-1_
 10
-6.9999999999997931
 20
149.3471555770179862
 30
0.0
 42
-0.1129255916494378
  0
VERTEX
  5
6BC
  8
SPIGOLI_VISIBILI_TMG-1_
 10
-98.304347826083486
 20
170.2347126546825962
 30
0.0
 42
0.9999999999999996
  0
VERTEX
  5
6BD
  8
SPIGOLI_VISIBILI_TMG-1_
 10
-115.6956521739127055
 20
134.2132949551919978
 30
0.0
 42
0.1129255916494378
  0
VERTEX
  5
6BE
  8
SPIGOLI_VISIBILI_TMG-1_
 10
-6.9999999999999698
 20
109.3471555770180004
 30
0.0
  0
SEQEND
  5
6BF
  8
SPIGOLI_VISIBILI_TMG-1_
  0
ENDSEC
  0
EOF
