  0
SECTION
  2
HEADER
  9
$ACADVER
  1
AC1009
  9
$INSBASE
 10
0.0
 20
0.0
 30
0.0
  9
$EXTMIN
 10
-149.3395732429910083
 20
-242.1084517334064117
 30
0.0
  9
$EXTMAX
 10
363.6108116673831887
 20
364.9331155088744936
 30
0.0
  9
$LIMMIN
 10
0.0
 20
0.0
  9
$LIMMAX
 10
420.0
 20
297.0
  9
$ORTHOMODE
 70
     0
  9
$REGENMODE
 70
     1
  9
$FILLMODE
 70
     1
  9
$QTEXTMODE
 70
     0
  9
$MIRRTEXT
 70
     0
  9
$DRAGMODE
 70
     2
  9
$LTSCALE
 40
1.0
  9
$OSMODE
 70
  3447
  9
$ATTMODE
 70
     1
  9
$TEXTSIZE
 40
2.5
  9
$TRACEWID
 40
1.0
  9
$TEXTSTYLE
  7
STANDARD
  9
$CLAYER
  8
0
  9
$CELTYPE
  6
BYLAYER
  9
$CECOLOR
 62
   256
  9
$DIMSCALE
 40
1.0
  9
$DIMASZ
 40
2.5
  9
$DIMEXO
 40
0.625
  9
$DIMDLI
 40
3.75
  9
$DIMRND
 40
0.0
  9
$DIMDLE
 40
0.0
  9
$DIMEXE
 40
1.25
  9
$DIMTP
 40
0.0
  9
$DIMTM
 40
0.0
  9
$DIMTXT
 40
2.5
  9
$DIMCEN
 40
2.5
  9
$DIMTSZ
 40
0.0
  9
$DIMTOL
 70
     0
  9
$DIMLIM
 70
     0
  9
$DIMTIH
 70
     0
  9
$DIMTOH
 70
     0
  9
$DIMSE1
 70
     0
  9
$DIMSE2
 70
     0
  9
$DIMTAD
 70
     1
  9
$DIMZIN
 70
     8
  9
$DIMBLK
  1

  9
$DIMASO
 70
     1
  9
$DIMSHO
 70
     1
  9
$DIMPOST
  1

  9
$DIMAPOST
  1

  9
$DIMALT
 70
     0
  9
$DIMALTD
 70
     3
  9
$DIMALTF
 40
0.03937007874016
  9
$DIMLFAC
 40
1.0
  9
$DIMTOFL
 70
     1
  9
$DIMTVP
 40
0.0
  9
$DIMTIX
 70
     0
  9
$DIMSOXD
 70
     0
  9
$DIMSAH
 70
     0
  9
$DIMBLK1
  1

  9
$DIMBLK2
  1

  9
$DIMSTYLE
  2
ISO-25
  9
$DIMCLRD
 70
     0
  9
$DIMCLRE
 70
     0
  9
$DIMCLRT
 70
     0
  9
$DIMTFAC
 40
1.0
  9
$DIMGAP
 40
0.625
  9
$LUNITS
 70
     2
  9
$LUPREC
 70
     4
  9
$SKETCHINC
 40
1.0
  9
$FILLETRAD
 40
0.0
  9
$AUNITS
 70
     0
  9
$AUPREC
 70
     0
  9
$MENU
  1
.
  9
$ELEVATION
 40
0.0
  9
$PELEVATION
 40
0.0
  9
$THICKNESS
 40
0.0
  9
$LIMCHECK
 70
     0
  9
$BLIPMODE
 70
     0
  9
$CHAMFERA
 40
0.0
  9
$CHAMFERB
 40
0.0
  9
$SKPOLY
 70
     0
  9
$TDCREATE
 40
2460447.6399652771651745
  9
$TDUPDATE
 40
2460447.6561574069783092
  9
$TDINDWG
 40
0.0161921296
  9
$TDUSRTIMER
 40
0.0161921296
  9
$USRTIMER
 70
     1
  9
$ANGBASE
 50
0.0
  9
$ANGDIR
 70
     0
  9
$PDMODE
 70
     0
  9
$PDSIZE
 40
0.0
  9
$PLINEWID
 40
0.0
  9
$COORDS
 70
     1
  9
$SPLFRAME
 70
     0
  9
$SPLINETYPE
 70
     6
  9
$SPLINESEGS
 70
     8
  9
$ATTDIA
 70
     1
  9
$ATTREQ
 70
     1
  9
$HANDLING
 70
     1
  9
$HANDSEED
  5
7C4
  9
$SURFTAB1
 70
     6
  9
$SURFTAB2
 70
     6
  9
$SURFTYPE
 70
     6
  9
$SURFU
 70
     6
  9
$SURFV
 70
     6
  9
$UCSNAME
  2

  9
$UCSORG
 10
0.0
 20
0.0
 30
0.0
  9
$UCSXDIR
 10
1.0
 20
0.0
 30
0.0
  9
$UCSYDIR
 10
0.0
 20
1.0
 30
0.0
  9
$PUCSNAME
  2

  9
$PUCSORG
 10
0.0
 20
0.0
 30
0.0
  9
$PUCSXDIR
 10
1.0
 20
0.0
 30
0.0
  9
$PUCSYDIR
 10
0.0
 20
1.0
 30
0.0
  9
$USERI1
 70
     0
  9
$USERI2
 70
     0
  9
$USERI3
 70
     0
  9
$USERI4
 70
     0
  9
$USERI5
 70
     0
  9
$USERR1
 40
0.0
  9
$USERR2
 40
0.0
  9
$USERR3
 40
0.0
  9
$USERR4
 40
0.0
  9
$USERR5
 40
0.0
  9
$WORLDVIEW
 70
     1
  9
$SHADEDGE
 70
     3
  9
$SHADEDIF
 70
    70
  9
$TILEMODE
 70
     1
  9
$MAXACTVP
 70
    64
  9
$PLIMCHECK
 70
     0
  9
$PEXTMIN
 10
0.0
 20
0.0
 30
0.0
  9
$PEXTMAX
 10
0.0
 20
0.0
 30
0.0
  9
$PLIMMIN
 10
0.0
 20
0.0
  9
$PLIMMAX
 10
12.0
 20
9.0
  9
$UNITMODE
 70
     0
  9
$VISRETAIN
 70
     1
  9
$PLINEGEN
 70
     0
  9
$PSLTSCALE
 70
     1
  0
ENDSEC
  0
SECTION
  2
TABLES
  0
TABLE
  2
VPORT
 70
     1
  0
VPORT
  2
*ACTIVE
 70
     0
 10
0.0
 20
0.0
 11
1.0
 21
1.0
 12
430.1812875459150973
 22
111.7571690749881981
 13
0.0
 23
0.0
 14
10.0
 24
10.0
 15
10.0
 25
10.0
 16
0.0
 26
0.0
 36
1.0
 17
0.0
 27
0.0
 37
0.0
 40
743.6052216218413378
 41
2.0480256136606192
 42
50.0
 43
0.0
 44
0.0
 50
0.0
 51
0.0
 71
     0
 72
  1000
 73
     1
 74
     3
 75
     0
 76
     1
 77
     0
 78
     0
  0
ENDTAB
  0
TABLE
  2
LTYPE
 70
     3
  0
LTYPE
  2
CONTINUOUS
 70
     0
  3
Solid line
 72
    65
 73
     0
 40
0.0
  0
LTYPE
  2
CHAIN
 70
     0
  3
Chain ____ _ ____ _ ____ _ ____ _ ____ _ ____
 72
    65
 73
     4
 40
0.7087
 49
0.4724000000000001
 49
-0.0591
 49
0.1181
 49
-0.0591
  0
ENDTAB
  0
TABLE
  2
LAYER
 70
     8
  0
LAYER
  2
0
 70
     0
 62
     7
  6
CONTINUOUS
  0
LAYER
  2
CENTER_MARK__ISO_
 70
     0
 62
     7
  6
CONTINUOUS
  0
LAYER
  2
CENTERLINE__ISO_
 70
     0
 62
     7
  6
CONTINUOUS
  0
LAYER
  2
DIMENSION__ISO_
 70
     0
 62
     7
  6
CONTINUOUS
  0
LAYER
  2
SYMBOL__ISO_
 70
     0
 62
     7
  6
CONTINUOUS
  0
LAYER
  2
VISIBLE__ISO_
 70
     0
 62
     7
  6
CONTINUOUS
  0
LAYER
  2
DEFPOINTS
 70
     0
 62
     7
  6
CONTINUOUS
  0
LAYER
  2
VISIBLE_NARROW__ISO_
 70
     0
 62
     7
  6
CONTINUOUS
  0
ENDTAB
  0
TABLE
  2
STYLE
 70
     6
  0
STYLE
  2
STANDARD
 70
     0
 40
0.0
 41
1.0
 50
0.0
 71
     0
 42
2.5
  3
txt
  4

  0
STYLE
  2
ANNOTATIVE
 70
     0
 40
0.0
 41
1.0
 50
0.0
 71
     0
 42
2.5
  3
txt
  4

  0
STYLE
  2
LABEL_TEXT__ANSI_
 70
     0
 40
0.0
 41
1.0
 50
0.0
 71
     0
 42
0.2
  3
txt
  4

  0
STYLE
  2
NOTE_TEXT__ANSI_
 70
     0
 40
0.0
 41
1.0
 50
0.0
 71
     0
 42
0.2
  3
txt
  4

  0
STYLE
  2
MtXpl_Tahoma
 70
     0
 40
0.0
 41
1.0
 50
0.0
 71
     0
 42
2.5
  3
txt
  4

  0
STYLE
  2
MtXpl_AIGDT
 70
     0
 40
0.0
 41
1.0
 50
0.0
 71
     0
 42
2.5
  3
txt
  4

  0
ENDTAB
  0
TABLE
  2
VIEW
 70
     0
  0
ENDTAB
  0
TABLE
  2
UCS
 70
     0
  0
ENDTAB
  0
TABLE
  2
APPID
 70
    11
  0
APPID
  2
ACAD
 70
     0
  0
APPID
  2
ACAD_PSEXT
 70
     0
  0
APPID
  2
ACADANNOPO
 70
     0
  0
APPID
  2
ACADANNOTATIVE
 70
     0
  0
APPID
  2
ACAD_DSTYLE_DIMJAG
 70
     0
  0
APPID
  2
ACAD_DSTYLE_DIMTALN
 70
     0
  0
APPID
  2
ACAD_MLEADERVER
 70
     0
  0
APPID
  2
ACAD_NAV_VCDISPLAY
 70
     0
  0
APPID
  2
ACAD_DSTYLE_DIMRADIAL_EXTENSION
 70
     0
  0
APPID
  2
ACAD_DSTYLE_DIMANGULAR_EXT
 70
     0
  0
APPID
  2
ACAD_EXEMPT_FROM_CAD_STANDARDS
 70
     0
  0
ENDTAB
  0
TABLE
  2
DIMSTYLE
 70
     7
  0
DIMSTYLE
  2
STANDARD
 70
     0
  3

  4

  5

  6

  7

 40
1.0
 41
0.18
 42
0.0625
 43
0.38
 44
0.18
 45
0.0
 46
0.0
 47
0.0
 48
0.0
140
0.18
141
0.09
142
0.0
143
25.3999999999999986
144
1.0
145
0.0
146
1.0
147
0.09
 71
     0
 72
     0
 73
     1
 74
     1
 75
     0
 76
     0
 77
     0
 78
     0
170
     0
171
     2
172
     0
173
     0
174
     0
175
     0
176
     0
177
     0
178
     0
  0
DIMSTYLE
  2
ANNOTATIVE
 70
     0
  3

  4

  5

  6

  7

 40
0.0
 41
2.5
 42
0.625
 43
3.75
 44
1.25
 45
0.0
 46
0.0
 47
0.0
 48
0.0
140
2.5
141
2.5
142
0.0
143
0.03937007874016
144
1.0
145
0.0
146
1.0
147
0.625
 71
     0
 72
     0
 73
     0
 74
     0
 75
     0
 76
     0
 77
     1
 78
     8
170
     0
171
     3
172
     1
173
     0
174
     0
175
     0
176
     0
177
     0
178
     0
  0
DIMSTYLE
  2
ISO-25
 70
     0
  3

  4

  5

  6

  7

 40
1.0
 41
2.5
 42
0.625
 43
3.75
 44
1.25
 45
0.0
 46
0.0
 47
0.0
 48
0.0
140
2.5
141
2.5
142
0.0
143
0.03937007874016
144
1.0
145
0.0
146
1.0
147
0.625
 71
     0
 72
     0
 73
     0
 74
     0
 75
     0
 76
     0
 77
     1
 78
     8
170
     0
171
     3
172
     1
173
     0
174
     0
175
     0
176
     0
177
     0
178
     0
  0
DIMSTYLE
  2
INTRALOX_HOLE_CALLOUT__MET
 70
     0
  3

  4

  5

  6

  7

 40
2.5
 41
2.5
 42
1.587499999999999
 43
5.9999999999999991
 44
3.174999999999998
 45
0.00000001
 46
10.0
 47
0.0
 48
0.0
140
2.539999961853026
141
0.09
142
0.0
143
0.03937
144
1.0
145
0.0
146
1.2000000476837149
147
0.8
 71
     0
 72
     0
 73
     1
 74
     1
 75
     0
 76
     0
 77
     0
 78
     8
170
     1
171
     3
172
     1
173
     0
174
     0
175
     0
176
   256
177
   256
178
   256
  0
DIMSTYLE
  2
INTRALOX_X_X__X_XX__MM-INC
 70
     0
  3

  4

  5

  6

  7

 40
2.5
 41
2.5
 42
1.587499999999999
 43
5.9999999999999991
 44
3.174999999999998
 45
0.00000001
 46
10.0
 47
0.0
 48
0.0
140
2.539999961853026
141
0.09
142
0.0
143
0.03937
144
1.0
145
0.0
146
1.2000000476837149
147
0.8
 71
     0
 72
     0
 73
     1
 74
     1
 75
     0
 76
     0
 77
     0
 78
     0
170
     1
171
     2
172
     1
173
     0
174
     0
175
     0
176
   256
177
   256
178
   256
  0
DIMSTYLE
  2
INTRALOX_X_XX__X_XXX__MM-I
 70
     0
  3

  4

  5

  6

  7

 40
2.5
 41
2.5
 42
1.587499999999999
 43
5.9999999999999991
 44
3.174999999999998
 45
0.00000001
 46
17.7800000000000011
 47
0.0
 48
0.0
140
2.539999961853026
141
0.09
142
0.0
143
0.03937
144
1.0
145
0.0
146
1.2000000476837149
147
0.8
 71
     0
 72
     0
 73
     1
 74
     1
 75
     0
 76
     0
 77
     0
 78
     8
170
     1
171
     3
172
     1
173
     0
174
     0
175
     0
176
   256
177
   256
178
   256
  0
ENDTAB
  0
ENDSEC
  0
SECTION
  2
BLOCKS
  0
BLOCK
  8
0
  2
$MODEL_SPACE
 70
     0
 10
0.0
 20
0.0
 30
0.0
  3
$MODEL_SPACE
  1

  0
ENDBLK
  5
21
  8
0
  0
BLOCK
 67
     1
  8
0
  2
$PAPER_SPACE
 70
     0
 10
0.0
 20
0.0
 30
0.0
  3
$PAPER_SPACE
  1

  0
ENDBLK
  5
D5
 67
     1
  8
0
  0
BLOCK
  8
0
  2
_CLOSED
 70
     0
 10
0.0
 20
0.0
 30
0.0
  3
_CLOSED
  1

  0
LINE
  5
297
  8
0
  6
BYBLOCK
 62
     0
 10
-1.0
 20
0.1666666666666666
 30
0.0
 11
0.0
 21
0.0
 31
0.0
  0
LINE
  5
298
  8
0
  6
BYBLOCK
 62
     0
 10
0.0
 20
0.0
 30
0.0
 11
-1.0
 21
-0.1666666666666666
 31
0.0
  0
LINE
  5
299
  8
0
  6
BYBLOCK
 62
     0
 10
-1.0
 20
0.1666666666666666
 30
0.0
 11
-1.0
 21
-0.1666666666666666
 31
0.0
  0
LINE
  5
29A
  8
0
  6
BYBLOCK
 62
     0
 10
0.0
 20
0.0
 30
0.0
 11
-1.0
 21
0.0
 31
0.0
  0
ENDBLK
  5
29B
  8
0
  0
BLOCK
  8
0
  2
*D2
 70
     1
 10
0.0
 20
0.0
 30
0.0
  3
*D2
  1

  0
LINE
  5
29E
  8
DIMENSION__ISO_
 10
832.7365312484837432
 20
269.935502000720021
 30
0.0
 11
850.1717460655171408
 21
293.8188988623106184
 31
0.0
  0
LINE
  5
29F
  8
DIMENSION__ISO_
 10
888.6714764804304423
 20
346.5572419348204107
 30
0.0
 11
859.1563605285375615
 21
306.1263533514322717
 31
0.0
  0
INSERT
  5
2A0
  8
0
  2
*U38
 10
0.0
 20
0.0
 30
0.0
  0
SOLID
  5
2A1
  8
DIMENSION__ISO_
 10
887.8301414867007679
 20
347.1714282850189761
 30
0.0
 11
889.5128114741600029
 21
345.9430555846217885
 31
0.0
 12
892.3565945816218345
 22
351.6052518971986842
 32
0.0
 13
892.3565945816218345
 23
351.6052518971986842
 33
0.0
  0
ARC
  5
2A2
  8
DIMENSION__ISO_
 10
832.7365312484837432
 20
269.935502000720021
 30
0.0
 40
101.1162697096802958
 50
49.3723847862460019
 51
122.0134880322855935
  0
POINT
  5
2A3
  8
DEFPOINTS
 62
     0
 10
892.3565945816218345
 20
351.6052518971986842
 30
0.0
  0
POINT
  5
2A4
  8
DEFPOINTS
 62
     0
 10
832.7365312484837432
 20
269.935502000720021
 30
0.0
  0
ENDBLK
  5
2A5
  8
0
  0
BLOCK
  8
0
  2
*D3
 70
     1
 10
0.0
 20
0.0
 30
0.0
  3
*D3
  1

  0
LINE
  5
2A8
  8
DIMENSION__ISO_
 10
692.5177812484838569
 20
269.9355020007199073
 30
0.0
 11
656.4105864257521716
 21
269.9355020007199073
 31
0.0
  0
LINE
  5
2A9
  8
DIMENSION__ISO_
 10
711.8457902484840361
 20
323.9105020007198732
 30
0.0
 11
656.4105864257521716
 21
323.9105020007198732
 31
0.0
  0
LINE
  5
2AA
  8
DIMENSION__ISO_
 10
664.3480864257519443
 20
276.1855020007199073
 30
0.0
 11
664.3480864257519443
 21
290.7692747561591204
 31
0.0
  0
LINE
  5
2AB
  8
DIMENSION__ISO_
 10
664.3480864257519443
 20
317.6605020007198732
 30
0.0
 11
664.3480864257519443
 21
303.0767292452808874
 31
0.0
  0
SOLID
  5
2AC
  8
DIMENSION__ISO_
 10
663.3064197590854292
 20
276.1855020007199073
 30
0.0
 11
665.3897530924186867
 21
276.1855020007199073
 31
0.0
 12
664.3480864257519443
 22
269.9355020007199073
 32
0.0
 13
664.3480864257519443
 23
269.9355020007199073
 33
0.0
  0
SOLID
  5
2AD
  8
DIMENSION__ISO_
 10
663.3064197590854292
 20
317.6605020007198732
 30
0.0
 11
665.3897530924186867
 21
317.6605020007198732
 31
0.0
 12
664.3480864257519443
 22
323.9105020007198732
 32
0.0
 13
664.3480864257519443
 23
323.9105020007198732
 33
0.0
  0
INSERT
  5
2AE
  8
0
  2
*U39
 10
0.0
 20
0.0
 30
0.0
  0
POINT
  5
2AF
  8
DEFPOINTS
 62
     0
 10
696.4865312484837432
 20
269.9355020007199073
 30
0.0
  0
POINT
  5
2B0
  8
DEFPOINTS
 62
     0
 10
715.8145402484840361
 20
323.9105020007198732
 30
0.0
  0
POINT
  5
2B1
  8
DEFPOINTS
 62
     0
 10
664.3480864257519443
 20
323.9105020007198732
 30
0.0
  0
ENDBLK
  5
2B2
  8
0
  0
BLOCK
  8
0
  2
*D4
 70
     1
 10
0.0
 20
0.0
 30
0.0
  3
*D4
  1

  0
LINE
  5
2B5
  8
DIMENSION__ISO_
 10
692.5177812484838569
 20
269.9355020007199073
 30
0.0
 11
688.1137927722229506
 21
269.9355020007199073
 31
0.0
  0
LINE
  5
2B6
  8
DIMENSION__ISO_
 10
711.8457902484840361
 20
245.1705020007198925
 30
0.0
 11
688.113792772223178
 21
245.1705020007198925
 31
0.0
  0
LINE
  5
2B7
  8
DIMENSION__ISO_
 10
696.0512927722230643
 20
263.6855020007199073
 30
0.0
 11
696.0512927722230643
 21
251.4205020007198925
 31
0.0
  0
LINE
  5
2B8
  8
DIMENSION__ISO_
 10
696.0512927722230643
 20
245.1705020007198925
 30
0.0
 11
696.0512927722230643
 21
227.9095272381935047
 31
0.0
  0
LINE
  5
2B9
  8
DIMENSION__ISO_
 10
696.0512927722230643
 20
227.9095272381935047
 30
0.0
 11
689.8012927722230643
 21
227.9095272381935047
 31
0.0
  0
SOLID
  5
2BA
  8
DIMENSION__ISO_
 10
695.0096261055563218
 20
263.6855020007199073
 30
0.0
 11
697.0929594388898067
 21
263.6855020007199073
 31
0.0
 12
696.0512927722230643
 22
269.9355020007199073
 32
0.0
 13
696.0512927722230643
 23
269.9355020007199073
 33
0.0
  0
SOLID
  5
2BB
  8
DIMENSION__ISO_
 10
695.0096261055564355
 20
251.4205020007198925
 30
0.0
 11
697.0929594388898067
 21
251.4205020007198925
 31
0.0
 12
696.0512927722230643
 22
245.1705020007198925
 32
0.0
 13
696.0512927722230643
 23
245.1705020007198925
 33
0.0
  0
INSERT
  5
2BC
  8
0
  2
*U40
 10
0.0
 20
0.0
 30
0.0
  0
POINT
  5
2BD
  8
DEFPOINTS
 62
     0
 10
696.4865312484837432
 20
269.9355020007199073
 30
0.0
  0
POINT
  5
2BE
  8
DEFPOINTS
 62
     0
 10
715.8145402484840361
 20
245.1705020007198925
 30
0.0
  0
POINT
  5
2BF
  8
DEFPOINTS
 62
     0
 10
696.0512927722230643
 20
245.1705020007198925
 30
0.0
  0
ENDBLK
  5
2C0
  8
0
  0
BLOCK
  8
0
  2
*D5
 70
     1
 10
0.0
 20
0.0
 30
0.0
  3
*D5
  1

  0
LINE
  5
2C3
  8
DIMENSION__ISO_
 10
970.9865312484836295
 20
400.6542520007196231
 30
0.0
 11
970.9865312484836295
 21
432.4779434919013283
 31
0.0
  0
LINE
  5
2C4
  8
DIMENSION__ISO_
 10
726.5645312484837177
 20
338.6292430007197822
 30
0.0
 11
726.5645312484837177
 21
432.4779434919013283
 31
0.0
  0
LINE
  5
2C5
  8
DIMENSION__ISO_
 10
964.7365312484836295
 20
424.540443491901101
 30
0.0
 11
876.612652923198425
 21
424.540443491901101
 31
0.0
  0
LINE
  5
2C6
  8
DIMENSION__ISO_
 10
732.8145312484837177
 20
424.540443491901101
 30
0.0
 11
820.9384095737688085
 21
424.540443491901101
 31
0.0
  0
SOLID
  5
2C7
  8
DIMENSION__ISO_
 10
964.7365312484836295
 20
425.5821101585679003
 30
0.0
 11
964.7365312484836295
 21
423.4987768252344722
 31
0.0
 12
970.9865312484836295
 22
424.540443491901101
 32
0.0
 13
970.9865312484836295
 23
424.540443491901101
 33
0.0
  0
SOLID
  5
2C8
  8
DIMENSION__ISO_
 10
732.8145312484837177
 20
425.5821101585679003
 30
0.0
 11
732.8145312484837177
 21
423.4987768252344722
 31
0.0
 12
726.5645312484837177
 22
424.540443491901101
 32
0.0
 13
726.5645312484837177
 23
424.540443491901101
 33
0.0
  0
INSERT
  5
2C9
  8
0
  2
*U41
 10
0.0
 20
0.0
 30
0.0
  0
POINT
  5
2CA
  8
DEFPOINTS
 62
     0
 10
970.9865312484836295
 20
396.6855020007199073
 30
0.0
  0
POINT
  5
2CB
  8
DEFPOINTS
 62
     0
 10
726.5645312484837177
 20
334.6604930007197822
 30
0.0
  0
POINT
  5
2CC
  8
DEFPOINTS
 62
     0
 10
726.5645312484837177
 20
424.540443491901101
 30
0.0
  0
ENDBLK
  5
2CD
  8
0
  0
BLOCK
  8
0
  2
*D6
 70
     1
 10
0.0
 20
0.0
 30
0.0
  3
*D6
  1

  0
LINE
  5
2D0
  8
DIMENSION__ISO_
 10
730.6460106675724546
 20
150.0926501713958032
 30
0.0
 11
739.1375094610909855
 21
150.0926501713958885
 31
0.0
  0
LINE
  5
2D1
  8
DIMENSION__ISO_
 10
739.1375094610909855
 20
150.0926501713958885
 30
0.0
 11
750.0580281871183388
 21
173.9818984716492878
 31
0.0
  0
INSERT
  5
2D2
  8
0
  2
*U42
 10
0.0
 20
0.0
 30
0.0
  0
SOLID
  5
2D3
  8
DIMENSION__ISO_
 10
749.1106547356588408
 20
174.414972354392404
 30
0.0
 11
751.0054016385777231
 21
173.5488245889063137
 31
0.0
 12
752.6564714835767518
 22
179.6661391804063044
 32
0.0
 13
752.6564714835767518
 23
179.6661391804063044
 33
0.0
  0
POINT
  5
2D4
  8
DEFPOINTS
 62
     0
 10
752.6564714835767518
 20
179.6661391804063044
 30
0.0
  0
POINT
  5
2D5
  8
DEFPOINTS
 62
     0
 10
761.2365312484829474
 20
198.4355020007214137
 30
0.0
  0
ENDBLK
  5
2D6
  8
0
  0
BLOCK
  8
0
  2
*D7
 70
     1
 10
0.0
 20
0.0
 30
0.0
  3
*D7
  1

  0
LINE
  5
2D9
  8
DIMENSION__ISO_
 10
793.8314600528099163
 20
209.3598774048969915
 30
0.0
 11
787.5814600528099163
 21
209.3598774048969915
 31
0.0
  0
LINE
  5
2DA
  8
DIMENSION__ISO_
 10
787.5814600528099163
 20
209.3598774048969915
 30
0.0
 11
755.2784640990014395
 21
195.9648875341731866
 31
0.0
  0
INSERT
  5
2DB
  8
0
  2
*U43
 10
0.0
 20
0.0
 30
0.0
  0
SOLID
  5
2DC
  8
DIMENSION__ISO_
 10
754.8794630546623239
 20
196.9271076810526893
 30
0.0
 11
755.6774651433406689
 21
195.0026673872937977
 31
0.0
 12
749.505143217725049
 22
193.5708812681378106
 32
0.0
 13
749.505143217725049
 23
193.5708812681378106
 33
0.0
  0
POINT
  5
2DD
  8
DEFPOINTS
 62
     0
 10
749.505143217725049
 20
193.5708812681378106
 30
0.0
  0
POINT
  5
2DE
  8
DEFPOINTS
 62
     0
 10
761.236531248478741
 20
198.4355020007218116
 30
0.0
  0
ENDBLK
  5
2DF
  8
0
  0
BLOCK
  8
0
  2
*D8
 70
     1
 10
0.0
 20
0.0
 30
0.0
  3
*D8
  1

  0
LINE
  5
2E2
  8
DIMENSION__ISO_
 10
768.4622786687305052
 20
334.2097545804718948
 30
0.0
 11
792.2057206606989439
 21
310.4663125885037971
 31
0.0
  0
ARC
  5
2E3
  8
DIMENSION__ISO_
 10
832.7365312484834021
 20
269.9355020007197936
 30
0.0
 40
65.2567220272198085
 50
140.4896357026786973
 51
152.4192315833840041
  0
ARC
  5
2E4
  8
DIMENSION__ISO_
 10
832.7365312484834021
 20
269.9355020007197936
 30
0.0
 40
65.2567220272198085
 50
162.4000947849048941
 51
174.5103642973226954
  0
SOLID
  5
2E5
  8
DIMENSION__ISO_
 10
781.6193524218863331
 20
312.1534412922026718
 30
0.0
 11
783.1613468216137335
 21
310.7525376377759017
 31
0.0
 12
786.5930605850304573
 22
316.0789726641718858
 32
0.0
 13
786.5930605850304573
 23
316.0789726641718858
 33
0.0
  0
SOLID
  5
2E6
  8
DIMENSION__ISO_
 10
768.8195794747747414
 20
276.1284484006361026
 30
0.0
 11
766.7386363043414121
 21
276.2282146234007882
 31
0.0
 12
767.4798092212639631
 22
269.9355020007184862
 32
0.0
 13
767.4798092212639631
 23
269.9355020007184862
 33
0.0
  0
INSERT
  5
2E7
  8
0
  2
*U44
 10
0.0
 20
0.0
 30
0.0
  0
POINT
  5
2E8
  8
DEFPOINTS
 62
     0
 10
832.7365312484836295
 20
269.9355020007197936
 30
0.0
  0
POINT
  5
2E9
  8
DEFPOINTS
 62
     0
 10
765.6559486308963187
 20
337.0160846183060244
 30
0.0
  0
POINT
  5
2EA
  8
DEFPOINTS
 62
     0
 10
828.7677812484837432
 20
269.9355020007196799
 30
0.0
  0
POINT
  5
2EB
  8
DEFPOINTS
 62
     0
 10
776.2225522052112865
 20
302.5638630143291152
 30
0.0
  0
ENDBLK
  5
2EC
  8
0
  0
BLOCK
  8
0
  2
*D9
 70
     1
 10
0.0
 20
0.0
 30
0.0
  3
*D9
  1

  0
LINE
  5
2EF
  8
DIMENSION__ISO_
 10
750.6431877828266579
 20
187.8421585350712064
 30
0.0
 11
806.9182949004086822
 21
244.1172656526472906
 31
0.0
  0
ARC
  5
2F0
  8
DIMENSION__ISO_
 10
832.7365312484834021
 20
269.9355020007196231
 30
0.0
 40
44.4499999999998323
 50
188.0628632266358125
 51
195.3534880623161882
  0
ARC
  5
2F1
  8
DIMENSION__ISO_
 10
832.7365312484834021
 20
269.9355020007196231
 30
0.0
 40
44.4499999999998323
 50
210.0392717136778913
 51
216.9371367733618001
  0
SOLID
  5
2F2
  8
DIMENSION__ISO_
 10
787.6868402478853568
 20
263.6277337624081838
 30
0.0
 11
789.7650186495320668
 21
263.7741998291497794
 31
0.0
 12
788.286531248483584
 22
269.9355020007192252
 32
0.0
 13
788.286531248483584
 23
269.9355020007192252
 33
0.0
  0
SOLID
  5
2F3
  8
DIMENSION__ISO_
 10
797.9943847454643446
 20
243.9067525906158096
 30
0.0
 11
796.4213235561378497
 21
242.5408256993028999
 31
0.0
 12
801.305634824740082
 22
238.5046055769794009
 32
0.0
 13
801.305634824740082
 23
238.5046055769794009
 33
0.0
  0
INSERT
  5
2F4
  8
0
  2
*U45
 10
0.0
 20
0.0
 30
0.0
  0
POINT
  5
2F5
  8
DEFPOINTS
 62
     0
 10
832.7365312484836295
 20
269.9355020007196799
 30
0.0
  0
POINT
  5
2F6
  8
DEFPOINTS
 62
     0
 10
828.7677812484837432
 20
269.9355020007196231
 30
0.0
  0
POINT
  5
2F7
  8
DEFPOINTS
 62
     0
 10
747.8368577449924715
 20
185.0358284972371905
 30
0.0
  0
POINT
  5
2F8
  8
DEFPOINTS
 62
     0
 10
789.8011282699345657
 20
258.4309954459130836
 30
0.0
  0
ENDBLK
  5
2F9
  8
0
  0
BLOCK
  8
0
  2
*D10
 70
     1
 10
0.0
 20
0.0
 30
0.0
  3
*D10
  1

  0
LINE
  5
2FC
  8
DIMENSION__ISO_
 10
795.2556388185035985
 20
330.6561083681510809
 30
0.0
 11
786.8737582063264426
 21
330.6561083681511946
 31
0.0
  0
LINE
  5
2FD
  8
DIMENSION__ISO_
 10
786.8737582063264426
 20
330.6561083681511946
 30
0.0
 11
778.3444977347966187
 21
343.8993542892389996
 31
0.0
  0
INSERT
  5
2FE
  8
0
  2
*U46
 10
0.0
 20
0.0
 30
0.0
  0
SOLID
  5
2FF
  8
DIMENSION__ISO_
 10
779.2202513863726381
 20
344.4633799856351857
 30
0.0
 11
777.4687440832201446
 21
343.3353285928429273
 31
0.0
 12
774.9603435564193887
 22
349.1538761986968211
 32
0.0
 13
774.9603435564193887
 23
349.1538761986968211
 33
0.0
  0
POINT
  5
300
  8
DEFPOINTS
 62
     0
 10
774.9603435564193887
 20
349.1538761986968211
 30
0.0
  0
POINT
  5
301
  8
DEFPOINTS
 62
     0
 10
773.2411932338037559
 20
351.8231733287013867
 30
0.0
  0
ENDBLK
  5
302
  8
0
  0
BLOCK
  8
0
  2
*D12
 70
     1
 10
0.0
 20
0.0
 30
0.0
  3
*D12
  1

  0
LINE
  5
3F7
  8
DIMENSION__ISO_
 10
203.0466935914500084
 20
157.6799998687343134
 30
0.0
 11
220.4819083888918101
 21
181.563396703487399
 31
0.0
  0
LINE
  5
3F8
  8
DIMENSION__ISO_
 10
258.9816388233966222
 20
234.3017398028347884
 30
0.0
 11
229.4665228910955079
 21
193.8708512462839906
 31
0.0
  0
INSERT
  5
3F9
  8
0
  2
*U50
 10
0.0
 20
0.0
 30
0.0
  0
SOLID
  5
3FA
  8
DIMENSION__ISO_
 10
258.140303829666891
 20
234.9159261530334106
 30
0.0
 11
259.8229738171264103
 21
233.6875534526361946
 31
0.0
 12
262.666756924588185
 22
239.349749765213005
 32
0.0
 13
262.666756924588185
 23
239.349749765213005
 33
0.0
  0
ARC
  5
3FB
  8
DIMENSION__ISO_
 10
203.0466935914500084
 20
157.6799998687343134
 30
0.0
 40
101.1162697096800969
 50
49.3723847862460872
 51
122.013488032285494
  0
POINT
  5
3FC
  8
DEFPOINTS
 62
     0
 10
262.666756924588185
 20
239.349749765213005
 30
0.0
  0
POINT
  5
3FD
  8
DEFPOINTS
 62
     0
 10
203.0466935914500084
 20
157.6799998687343134
 30
0.0
  0
ENDBLK
  5
392
  8
0
  0
BLOCK
  8
0
  2
*D13
 70
     1
 10
0.0
 20
0.0
 30
0.0
  3
*D13
  1

  0
LINE
  5
3FE
  8
DIMENSION__ISO_
 10
62.8279435914498876
 20
157.6799998687338871
 30
0.0
 11
26.7207487687182486
 21
157.6799998687338871
 31
0.0
  0
LINE
  5
3FF
  8
DIMENSION__ISO_
 10
82.155952591449946
 20
211.6549998687341088
 30
0.0
 11
26.7207487687182415
 21
211.6549998687341088
 31
0.0
  0
LINE
  5
400
  8
DIMENSION__ISO_
 10
34.6582487687182521
 20
163.9299998687338871
 30
0.0
 11
34.6582487687182379
 21
178.5137725973357021
 31
0.0
  0
LINE
  5
401
  8
DIMENSION__ISO_
 10
34.6582487687182379
 20
205.4049998687341088
 30
0.0
 11
34.6582487687182379
 21
190.8212271401324074
 31
0.0
  0
SOLID
  5
402
  8
DIMENSION__ISO_
 10
33.6165821020515878
 20
163.9299998687338871
 30
0.0
 11
35.6999154353849235
 21
163.9299998687338871
 31
0.0
 12
34.6582487687182521
 22
157.6799998687338871
 32
0.0
 13
34.6582487687182521
 23
157.6799998687338871
 33
0.0
  0
SOLID
  5
403
  8
DIMENSION__ISO_
 10
33.6165821020515807
 20
205.4049998687341088
 30
0.0
 11
35.6999154353849093
 21
205.4049998687341088
 31
0.0
 12
34.6582487687182379
 22
211.6549998687341088
 32
0.0
 13
34.6582487687182379
 23
211.6549998687341088
 33
0.0
  0
INSERT
  5
404
  8
0
  2
*U51
 10
0.0
 20
0.0
 30
0.0
  0
POINT
  5
405
  8
DEFPOINTS
 62
     0
 10
66.7966935914498947
 20
157.6799998687338871
 30
0.0
  0
POINT
  5
406
  8
DEFPOINTS
 62
     0
 10
86.1247025914499744
 20
211.6549998687341088
 30
0.0
  0
POINT
  5
407
  8
DEFPOINTS
 62
     0
 10
34.6582487687182379
 20
211.6549998687341088
 30
0.0
  0
ENDBLK
  5
39C
  8
0
  0
BLOCK
  8
0
  2
*D14
 70
     1
 10
0.0
 20
0.0
 30
0.0
  3
*D14
  1

  0
LINE
  5
408
  8
DIMENSION__ISO_
 10
62.8279435914498876
 20
157.6799998687338871
 30
0.0
 11
58.4239552667214994
 21
157.6799998687338871
 31
0.0
  0
LINE
  5
409
  8
DIMENSION__ISO_
 10
82.155952591449946
 20
132.914999868733986
 30
0.0
 11
58.4239552667215065
 21
132.914999868733986
 31
0.0
  0
LINE
  5
40A
  8
DIMENSION__ISO_
 10
66.3614552667215065
 20
151.4299998687338871
 30
0.0
 11
66.3614552667215065
 21
139.164999868733986
 31
0.0
  0
LINE
  5
40B
  8
DIMENSION__ISO_
 10
66.3614552667215065
 20
132.914999868733986
 30
0.0
 11
66.3614552667215065
 21
115.6540251062075981
 31
0.0
  0
LINE
  5
40C
  8
DIMENSION__ISO_
 10
66.3614552667215065
 20
115.6540251062075981
 30
0.0
 11
60.1114552667215065
 21
115.6540251062075981
 31
0.0
  0
SOLID
  5
40D
  8
DIMENSION__ISO_
 10
65.3197886000548351
 20
151.4299998687338871
 30
0.0
 11
67.4031219333881779
 21
151.4299998687338871
 31
0.0
 12
66.3614552667215065
 22
157.6799998687338871
 32
0.0
 13
66.3614552667215065
 23
157.6799998687338871
 33
0.0
  0
SOLID
  5
40E
  8
DIMENSION__ISO_
 10
65.3197886000548351
 20
139.164999868733986
 30
0.0
 11
67.4031219333881779
 21
139.164999868733986
 31
0.0
 12
66.3614552667215065
 22
132.914999868733986
 32
0.0
 13
66.3614552667215065
 23
132.914999868733986
 33
0.0
  0
INSERT
  5
40F
  8
0
  2
*U52
 10
0.0
 20
0.0
 30
0.0
  0
POINT
  5
410
  8
DEFPOINTS
 62
     0
 10
66.7966935914498947
 20
157.6799998687338871
 30
0.0
  0
POINT
  5
411
  8
DEFPOINTS
 62
     0
 10
86.1247025914499744
 20
132.914999868733986
 30
0.0
  0
POINT
  5
412
  8
DEFPOINTS
 62
     0
 10
66.3614552667215065
 20
132.914999868733986
 30
0.0
  0
ENDBLK
  5
3A9
  8
0
  0
BLOCK
  8
0
  2
*D15
 70
     1
 10
0.0
 20
0.0
 30
0.0
  3
*D15
  1

  0
LINE
  5
413
  8
DIMENSION__ISO_
 10
341.2966935914499231
 20
288.3987498687341144
 30
0.0
 11
341.2966935914499231
 21
320.2224413599154218
 31
0.0
  0
LINE
  5
414
  8
DIMENSION__ISO_
 10
96.8746935914499545
 20
226.3737408687339894
 30
0.0
 11
96.8746935914499545
 21
320.2224413599154218
 31
0.0
  0
LINE
  5
415
  8
DIMENSION__ISO_
 10
335.0466935914499231
 20
312.2849413599154218
 30
0.0
 11
246.9228154330994869
 21
312.2849413599154218
 31
0.0
  0
LINE
  5
416
  8
DIMENSION__ISO_
 10
103.1246935914498977
 20
312.2849413599154218
 30
0.0
 11
191.2485717498001065
 21
312.2849413599154218
 31
0.0
  0
SOLID
  5
417
  8
DIMENSION__ISO_
 10
335.0466935914499231
 20
313.3266080265819937
 30
0.0
 11
335.0466935914499231
 21
311.2432746932486793
 31
0.0
 12
341.2966935914499231
 22
312.2849413599154218
 32
0.0
 13
341.2966935914499231
 23
312.2849413599154218
 33
0.0
  0
SOLID
  5
418
  8
DIMENSION__ISO_
 10
103.1246935914498977
 20
313.3266080265819937
 30
0.0
 11
103.1246935914498977
 21
311.2432746932486793
 31
0.0
 12
96.8746935914499545
 22
312.2849413599154218
 32
0.0
 13
96.8746935914499545
 23
312.2849413599154218
 33
0.0
  0
INSERT
  5
419
  8
0
  2
*U53
 10
0.0
 20
0.0
 30
0.0
  0
POINT
  5
41A
  8
DEFPOINTS
 62
     0
 10
341.2966935914499231
 20
284.4299998687341144
 30
0.0
  0
POINT
  5
41B
  8
DEFPOINTS
 62
     0
 10
96.8746935914499545
 20
222.4049908687339894
 30
0.0
  0
POINT
  5
41C
  8
DEFPOINTS
 62
     0
 10
96.8746935914499545
 20
312.2849413599154218
 30
0.0
  0
ENDBLK
  5
3B7
  8
0
  0
BLOCK
  8
0
  2
*D16
 70
     1
 10
0.0
 20
0.0
 30
0.0
  3
*D16
  1

  0
LINE
  5
41D
  8
DIMENSION__ISO_
 10
100.9561732189553993
 20
37.8371480394101383
 30
0.0
 11
109.4476718040568954
 21
37.837148039410117
 31
0.0
  0
LINE
  5
41E
  8
DIMENSION__ISO_
 10
109.4476718040568954
 20
37.837148039410117
 30
0.0
 11
120.3681905300845045
 21
61.7263963396636015
 31
0.0
  0
INSERT
  5
41F
  8
0
  2
*U54
 10
0.0
 20
0.0
 30
0.0
  0
SOLID
  5
420
  8
DIMENSION__ISO_
 10
119.4208170786250065
 20
62.1594702224067035
 30
0.0
 11
121.3155639815440026
 21
61.2933224569205066
 31
0.0
 12
122.9666338265431023
 22
67.4106370484205399
 32
0.0
 13
122.9666338265431023
 23
67.4106370484205399
 33
0.0
  0
POINT
  5
421
  8
DEFPOINTS
 62
     0
 10
122.9666338265431023
 20
67.4106370484205399
 30
0.0
  0
POINT
  5
422
  8
DEFPOINTS
 62
     0
 10
131.5466935914492126
 20
86.1799998687355924
 30
0.0
  0
ENDBLK
  5
3C4
  8
0
  0
BLOCK
  8
0
  2
*D17
 70
     1
 10
0.0
 20
0.0
 30
0.0
  3
*D17
  1

  0
LINE
  5
423
  8
DIMENSION__ISO_
 10
164.1416223957766078
 20
97.1043752729112271
 30
0.0
 11
157.8916223957766078
 21
97.1043752729112271
 31
0.0
  0
LINE
  5
424
  8
DIMENSION__ISO_
 10
157.8916223957766078
 20
97.1043752729112271
 30
0.0
 11
125.5886264419677047
 21
83.7093854021874648
 31
0.0
  0
INSERT
  5
425
  8
0
  2
*U55
 10
0.0
 20
0.0
 30
0.0
  0
SOLID
  5
426
  8
DIMENSION__ISO_
 10
125.1896253976285038
 20
84.6716055490668964
 30
0.0
 11
125.9876274863070051
 21
82.7471652553080617
 31
0.0
 12
119.8153055606913
 22
81.3153791361520177
 32
0.0
 13
119.8153055606913
 23
81.3153791361520177
 33
0.0
  0
POINT
  5
427
  8
DEFPOINTS
 62
     0
 10
119.8153055606913
 20
81.3153791361520177
 30
0.0
  0
POINT
  5
428
  8
DEFPOINTS
 62
     0
 10
131.5466935914448925
 20
86.1799998687360187
 30
0.0
  0
ENDBLK
  5
3CD
  8
0
  0
BLOCK
  8
0
  2
*D18
 70
     1
 10
0.0
 20
0.0
 30
0.0
  3
*D18
  1

  0
LINE
  5
429
  8
DIMENSION__ISO_
 10
138.7724410116967135
 20
221.9542524484859882
 30
0.0
 11
162.5158830036650954
 21
198.2108104565180042
 31
0.0
  0
ARC
  5
42A
  8
DIMENSION__ISO_
 10
203.0466935914498947
 20
157.6799998687338018
 30
0.0
 40
65.2567220272197943
 50
140.489635702678811
 51
152.4192315833838904
  0
ARC
  5
42B
  8
DIMENSION__ISO_
 10
203.0466935914498947
 20
157.6799998687338018
 30
0.0
 40
65.2567220272197943
 50
162.4000947849048941
 51
174.5103642973217859
  0
SOLID
  5
42C
  8
DIMENSION__ISO_
 10
151.9295147648523994
 20
199.8979391602167937
 30
0.0
 11
153.4715091645799134
 21
198.4970355057899098
 31
0.0
 12
156.9032229279968078
 22
203.8234705321860929
 32
0.0
 13
156.9032229279968078
 23
203.8234705321860929
 33
0.0
  0
SOLID
  5
42D
  8
DIMENSION__ISO_
 10
139.1297418177410066
 20
163.8729462686511908
 30
0.0
 11
137.0487986473077058
 21
163.9727124914159901
 31
0.0
 12
137.7899715642300862
 22
157.6799998687336881
 32
0.0
 13
137.7899715642300862
 23
157.6799998687336881
 33
0.0
  0
INSERT
  5
42E
  8
0
  2
*U56
 10
0.0
 20
0.0
 30
0.0
  0
POINT
  5
42F
  8
DEFPOINTS
 62
     0
 10
203.0466935914498947
 20
157.6799998687338871
 30
0.0
  0
POINT
  5
430
  8
DEFPOINTS
 62
     0
 10
135.9661109738624987
 20
224.7605824863200894
 30
0.0
  0
POINT
  5
431
  8
DEFPOINTS
 62
     0
 10
199.0779435914500084
 20
157.6799998687338018
 30
0.0
  0
POINT
  5
432
  8
DEFPOINTS
 62
     0
 10
146.5327145481778075
 20
190.3083608823434076
 30
0.0
  0
ENDBLK
  5
3D6
  8
0
  0
BLOCK
  8
0
  2
*D19
 70
     1
 10
0.0
 20
0.0
 30
0.0
  3
*D19
  1

  0
LINE
  5
433
  8
DIMENSION__ISO_
 10
120.9533501257930936
 20
75.5866564030854988
 30
0.0
 11
177.2284572433748906
 21
131.8617635206614978
 31
0.0
  0
ARC
  5
434
  8
DIMENSION__ISO_
 10
203.0466935914498947
 20
157.6799998687338871
 30
0.0
 40
44.449999999999811
 50
188.0628632266349882
 51
195.3534880623163019
  0
ARC
  5
435
  8
DIMENSION__ISO_
 10
203.0466935914498947
 20
157.6799998687338871
 30
0.0
 40
44.449999999999811
 50
210.0392717136778913
 51
216.9371367733618001
  0
SOLID
  5
436
  8
DIMENSION__ISO_
 10
157.9970025908517073
 20
151.3722316304229025
 30
0.0
 11
160.0751809924983888
 21
151.5186976971646118
 31
0.0
 12
158.596693591450105
 22
157.6799998687340008
 32
0.0
 13
158.596693591450105
 23
157.6799998687340008
 33
0.0
  0
SOLID
  5
437
  8
DIMENSION__ISO_
 10
168.3045470884306951
 20
131.6512504586299883
 30
0.0
 11
166.7314858991040865
 21
130.2853235673169934
 31
0.0
 12
171.615797167706404
 22
126.2491034449935938
 32
0.0
 13
171.615797167706404
 23
126.2491034449935938
 33
0.0
  0
INSERT
  5
438
  8
0
  2
*U57
 10
0.0
 20
0.0
 30
0.0
  0
POINT
  5
439
  8
DEFPOINTS
 62
     0
 10
203.0466935914498947
 20
157.6799998687338871
 30
0.0
  0
POINT
  5
43A
  8
DEFPOINTS
 62
     0
 10
199.0779435914498947
 20
157.6799998687338871
 30
0.0
  0
POINT
  5
43B
  8
DEFPOINTS
 62
     0
 10
118.147020087958893
 20
72.7803263652515255
 30
0.0
  0
POINT
  5
43C
  8
DEFPOINTS
 62
     0
 10
160.1112906129008024
 20
146.1754933139276886
 30
0.0
  0
ENDBLK
  5
3E3
  8
0
  0
BLOCK
  8
0
  2
*D20
 70
     1
 10
0.0
 20
0.0
 30
0.0
  3
*D20
  1

  0
LINE
  5
43D
  8
DIMENSION__ISO_
 10
165.5658009677387099
 20
218.4006062361654017
 30
0.0
 11
157.1839205492927931
 21
218.4006062361654017
 31
0.0
  0
LINE
  5
43E
  8
DIMENSION__ISO_
 10
157.1839205492927931
 20
218.4006062361654017
 30
0.0
 11
148.6546600777627987
 21
231.6438521572532068
 31
0.0
  0
INSERT
  5
43F
  8
0
  2
*U58
 10
0.0
 20
0.0
 30
0.0
  0
SOLID
  5
440
  8
DIMENSION__ISO_
 10
149.5304137293391022
 20
232.2078778536493928
 30
0.0
 11
147.7789064261864951
 21
231.0798264608569923
 31
0.0
 12
145.2705058993855971
 22
236.8983740667109998
 32
0.0
 13
145.2705058993855971
 23
236.8983740667109998
 33
0.0
  0
POINT
  5
441
  8
DEFPOINTS
 62
     0
 10
145.2705058993855971
 20
236.8983740667109998
 30
0.0
  0
POINT
  5
442
  8
DEFPOINTS
 62
     0
 10
143.5513555767699927
 20
239.5676711967155939
 30
0.0
  0
ENDBLK
  5
3F0
  8
0
  0
BLOCK
  8
0
  2
*D24
 70
     1
 10
0.0
 20
0.0
 30
0.0
  3
*D24
  1

  0
LINE
  5
4EB
  8
DIMENSION__ISO_
 10
962.426679868550309
 20
273.5261854374269888
 30
0.0
 11
999.8780187729378213
 21
273.5261854374269888
 31
0.0
  0
LINE
  5
4EC
  8
DIMENSION__ISO_
 10
943.0986708685484246
 20
327.5011854374270115
 30
0.0
 11
999.8780187729378213
 21
327.5011854374270115
 31
0.0
  0
LINE
  5
4ED
  8
DIMENSION__ISO_
 10
991.940518772937935
 20
279.7761854374269888
 30
0.0
 11
991.940518772937935
 21
294.3599581928662019
 31
0.0
  0
LINE
  5
4EE
  8
DIMENSION__ISO_
 10
991.940518772937935
 20
321.2511854374270115
 30
0.0
 11
991.940518772937935
 21
306.6674126819881963
 31
0.0
  0
SOLID
  5
4EF
  8
DIMENSION__ISO_
 10
990.8988521062710788
 20
279.7761854374269888
 30
0.0
 11
992.98218543960445
 21
279.7761854374269888
 31
0.0
 12
991.940518772937935
 22
273.5261854374269888
 32
0.0
 13
991.940518772937935
 23
273.5261854374269888
 33
0.0
  0
SOLID
  5
4F0
  8
DIMENSION__ISO_
 10
990.8988521062710788
 20
321.2511854374270115
 30
0.0
 11
992.98218543960445
 21
321.2511854374270115
 31
0.0
 12
991.940518772937935
 22
327.5011854374270115
 32
0.0
 13
991.940518772937935
 23
327.5011854374270115
 33
0.0
  0
INSERT
  5
4F1
  8
0
  2
*U59
 10
0.0
 20
0.0
 30
0.0
  0
POINT
  5
4F2
  8
DEFPOINTS
 62
     0
 10
958.4579298685506501
 20
273.5261854374269888
 30
0.0
  0
POINT
  5
4F3
  8
DEFPOINTS
 62
     0
 10
939.1299208685484246
 20
327.5011854374270115
 30
0.0
  0
POINT
  5
4F4
  8
DEFPOINTS
 62
     0
 10
991.940518772937935
 20
327.5011854374270115
 30
0.0
  0
ENDBLK
  5
4F5
  8
0
  0
BLOCK
  8
0
  2
*D25
 70
     1
 10
0.0
 20
0.0
 30
0.0
  3
*D25
  1

  0
LINE
  5
4F8
  8
DIMENSION__ISO_
 10
683.9579298685498543
 20
404.2449354374268182
 30
0.0
 11
683.9579298685498543
 21
446.3478831531502919
 31
0.0
  0
LINE
  5
4F9
  8
DIMENSION__ISO_
 10
928.3799298685478334
 20
342.2199264374269205
 30
0.0
 11
928.3799298685478334
 21
446.3478831531502919
 31
0.0
  0
LINE
  5
4FA
  8
DIMENSION__ISO_
 10
690.2079298685498543
 20
438.4103831531502919
 30
0.0
 11
778.3318081938340356
 21
438.4103831531502919
 31
0.0
  0
LINE
  5
4FB
  8
DIMENSION__ISO_
 10
922.1299298685478334
 20
438.4103831531502919
 30
0.0
 11
834.0060515432636521
 21
438.4103831531502919
 31
0.0
  0
SOLID
  5
4FC
  8
DIMENSION__ISO_
 10
690.2079298685498543
 20
439.4520498198169207
 30
0.0
 11
690.2079298685498543
 21
437.3687164864834926
 31
0.0
 12
683.9579298685498543
 22
438.4103831531502919
 32
0.0
 13
683.9579298685498543
 23
438.4103831531502919
 33
0.0
  0
SOLID
  5
4FD
  8
DIMENSION__ISO_
 10
922.1299298685478334
 20
439.4520498198169207
 30
0.0
 11
922.1299298685478334
 21
437.3687164864834926
 31
0.0
 12
928.3799298685478334
 22
438.4103831531502919
 32
0.0
 13
928.3799298685478334
 23
438.4103831531502919
 33
0.0
  0
INSERT
  5
4FE
  8
0
  2
*U60
 10
0.0
 20
0.0
 30
0.0
  0
POINT
  5
4FF
  8
DEFPOINTS
 62
     0
 10
683.9579298685498543
 20
400.2761854374268182
 30
0.0
  0
POINT
  5
500
  8
DEFPOINTS
 62
     0
 10
928.3799298685478334
 20
338.2511764374269205
 30
0.0
  0
POINT
  5
501
  8
DEFPOINTS
 62
     0
 10
928.3799298685478334
 20
438.4103831531502919
 30
0.0
  0
ENDBLK
  5
502
  8
0
  0
BLOCK
  8
0
  2
*D26
 70
     1
 10
0.0
 20
0.0
 30
0.0
  3
*D26
  1

  0
LINE
  5
505
  8
DIMENSION__ISO_
 10
822.2079298685506501
 20
273.5261854374268751
 30
0.0
 11
788.3511789504161698
 21
238.007084762535186
 31
0.0
  0
LINE
  5
506
  8
DIMENSION__ISO_
 10
756.7534866690123181
 20
204.8579613882567969
 30
0.0
 11
776.6197326818731881
 21
225.6996302734133906
 31
0.0
  0
INSERT
  5
507
  8
0
  2
*U61
 10
0.0
 20
0.0
 30
0.0
  0
SOLID
  5
508
  8
DIMENSION__ISO_
 10
755.9994842161894439
 20
205.576675340801188
 30
0.0
 11
757.5074891218347375
 21
204.1392474357122921
 31
0.0
 12
752.44120295374546
 22
200.3339466713215984
 32
0.0
 13
752.44120295374546
 23
200.3339466713215984
 33
0.0
  0
ARC
  5
509
  8
DIMENSION__ISO_
 10
822.2079298685506501
 20
273.5261854374268751
 30
0.0
 40
101.1162697096741994
 50
221.874983767416694
 51
302.013488032283874
  0
POINT
  5
50A
  8
DEFPOINTS
 62
     0
 10
752.44120295374546
 20
200.3339466713215984
 30
0.0
  0
POINT
  5
50B
  8
DEFPOINTS
 62
     0
 10
822.2079298685506501
 20
273.5261854374268751
 30
0.0
  0
ENDBLK
  5
50C
  8
0
  0
BLOCK
  8
0
  2
*D27
 70
     1
 10
0.0
 20
0.0
 30
0.0
  3
*D27
  1

  0
LINE
  5
50F
  8
DIMENSION__ISO_
 10
904.3012733341969351
 20
355.6195289030794129
 30
0.0
 11
858.632767934420599
 21
309.9510235033001209
 31
0.0
  0
ARC
  5
510
  8
DIMENSION__ISO_
 10
822.207929868549968
 20
273.5261854374269888
 30
0.0
 40
59.449999999999882
 50
6.0263034082677098
 51
17.1289732268073607
  0
ARC
  5
511
  8
DIMENSION__ISO_
 10
822.207929868549968
 20
273.5261854374269888
 30
0.0
 40
59.449999999999882
 50
28.0890478698041086
 51
38.9736965917342104
  0
SOLID
  5
512
  8
DIMENSION__ISO_
 10
882.3696240459220235
 20
279.8223001792608784
 30
0.0
 11
880.2891709308746613
 21
279.7127893858771017
 31
0.0
 12
881.6579298685497861
 22
273.5261854374269888
 32
0.0
 13
881.6579298685497861
 23
273.5261854374269888
 33
0.0
  0
SOLID
  5
513
  8
DIMENSION__ISO_
 10
867.6521588879138562
 20
310.2212352478642856
 30
0.0
 11
869.2006972181191031
 21
311.6149019288401973
 31
0.0
 12
864.2454280100887445
 22
315.5636835789686074
 32
0.0
 13
864.2454280100887445
 23
315.5636835789686074
 33
0.0
  0
INSERT
  5
514
  8
0
  2
*U62
 10
0.0
 20
0.0
 30
0.0
  0
POINT
  5
515
  8
DEFPOINTS
 62
     0
 10
822.207929868549968
 20
273.5261854374269888
 30
0.0
  0
POINT
  5
516
  8
DEFPOINTS
 62
     0
 10
958.457929868549968
 20
273.5261854374269888
 30
0.0
  0
POINT
  5
517
  8
DEFPOINTS
 62
     0
 10
907.1076033720308942
 20
358.4258589409135993
 30
0.0
  0
POINT
  5
518
  8
DEFPOINTS
 62
     0
 10
879.6322202414347657
 20
288.9129776687724984
 30
0.0
  0
ENDBLK
  5
519
  8
0
  0
BLOCK
  8
0
  2
*D28
 70
     1
 10
0.0
 20
0.0
 30
0.0
  3
*D28
  1

  0
LINE
  5
51C
  8
DIMENSION__ISO_
 10
886.482182448297749
 20
209.2519328576780993
 30
0.0
 11
850.1940251585616579
 21
245.5400901474145883
 31
0.0
  0
ARC
  5
51D
  8
DIMENSION__ISO_
 10
822.2079298685492859
 20
273.5261854374269888
 30
0.0
 40
47.5158155170011725
 50
322.5418526141875759
 51
330.4629885556773274
  0
ARC
  5
51E
  8
DIMENSION__ISO_
 10
822.2079298685492859
 20
273.5261854374269888
 30
0.0
 40
47.5158155170011725
 50
344.1939896629265832
 51
352.4581473858121967
  0
SOLID
  5
51F
  8
DIMENSION__ISO_
 10
860.709297337210387
 20
243.9414011743018023
 30
0.0
 11
859.1424628118960527
 21
245.3144661210764923
 31
0.0
 12
855.8066852342295761
 22
239.9274300717463007
 32
0.0
 13
855.8066852342295761
 23
239.9274300717463007
 33
0.0
  0
SOLID
  5
520
  8
DIMENSION__ISO_
 10
868.2732866102709295
 20
267.358224770751292
 30
0.0
 11
870.3521094629913932
 21
267.2212089877780841
 31
0.0
 12
869.7237453855505009
 22
273.5261854374269888
 32
0.0
 13
869.7237453855505009
 23
273.5261854374269888
 33
0.0
  0
INSERT
  5
521
  8
0
  2
*U63
 10
0.0
 20
0.0
 30
0.0
  0
POINT
  5
522
  8
DEFPOINTS
 62
     0
 10
822.2079298685492859
 20
273.5261854374269888
 30
0.0
  0
POINT
  5
523
  8
DEFPOINTS
 62
     0
 10
889.2885124861319355
 20
206.4456028198439981
 30
0.0
  0
POINT
  5
524
  8
DEFPOINTS
 62
     0
 10
958.4579298685498543
 20
273.5261854374268751
 30
0.0
  0
POINT
  5
525
  8
DEFPOINTS
 62
     0
 10
863.3578331878069321
 20
249.7682776789264096
 30
0.0
  0
ENDBLK
  5
526
  8
0
  0
BLOCK
  8
0
  2
*D29
 70
     1
 10
0.0
 20
0.0
 30
0.0
  3
*D29
  1

  0
LINE
  5
529
  8
DIMENSION__ISO_
 10
863.6572719078184264
 20
341.1756940647247802
 30
0.0
 11
871.981710419699084
 21
341.1756940647247802
 31
0.0
  0
LINE
  5
52A
  8
DIMENSION__ISO_
 10
871.981710419699084
 20
341.1756940647247802
 30
0.0
 11
876.3886995534237485
 21
347.63015658696429
 31
0.0
  0
INSERT
  5
52B
  8
0
  2
*U64
 10
0.0
 20
0.0
 30
0.0
  0
SOLID
  5
52C
  8
DIMENSION__ISO_
 10
875.5284320712792123
 20
348.2175315128924922
 30
0.0
 11
877.248967035568171
 21
347.0427816610360878
 31
0.0
 12
879.9129491089931889
 22
352.7917614798312229
 32
0.0
 13
879.9129491089931889
 23
352.7917614798312229
 33
0.0
  0
POINT
  5
52D
  8
DEFPOINTS
 62
     0
 10
879.9129491089931889
 20
352.7917614798312229
 30
0.0
  0
POINT
  5
52E
  8
DEFPOINTS
 62
     0
 10
881.703267883222793
 20
355.4138567654076724
 30
0.0
  0
ENDBLK
  5
52F
  8
0
  0
BLOCK
  8
0
  2
*D31
 70
     1
 10
0.0
 20
0.0
 30
0.0
  3
*D31
  1

  0
LINE
  5
604
  8
DIMENSION__ISO_
 10
278.4687500000002274
 20
157.6799997687350015
 30
0.0
 11
315.9200889043880238
 21
157.6799997687350015
 31
0.0
  0
LINE
  5
605
  8
DIMENSION__ISO_
 10
259.1407409999981724
 20
211.6549997687349958
 30
0.0
 11
315.9200889043880238
 21
211.6549997687349958
 31
0.0
  0
LINE
  5
606
  8
DIMENSION__ISO_
 10
307.9825889043880238
 20
163.9299997687350015
 30
0.0
 11
307.9825889043880238
 21
178.5137724973365039
 31
0.0
  0
LINE
  5
607
  8
DIMENSION__ISO_
 10
307.9825889043880238
 20
205.4049997687349958
 30
0.0
 11
307.9825889043880238
 21
190.8212270401332091
 31
0.0
  0
SOLID
  5
608
  8
DIMENSION__ISO_
 10
306.9409222377212814
 20
163.9299997687350015
 30
0.0
 11
309.0242555710545957
 21
163.9299997687350015
 31
0.0
 12
307.9825889043880238
 22
157.6799997687350015
 32
0.0
 13
307.9825889043880238
 23
157.6799997687350015
 33
0.0
  0
SOLID
  5
609
  8
DIMENSION__ISO_
 10
306.9409222377212814
 20
205.4049997687349958
 30
0.0
 11
309.0242555710545957
 21
205.4049997687349958
 31
0.0
 12
307.9825889043880238
 22
211.6549997687349958
 32
0.0
 13
307.9825889043880238
 23
211.6549997687349958
 33
0.0
  0
INSERT
  5
60A
  8
0
  2
*U72
 10
0.0
 20
0.0
 30
0.0
  0
POINT
  5
60B
  8
DEFPOINTS
 62
     0
 10
274.5000000000002274
 20
157.6799997687350015
 30
0.0
  0
POINT
  5
60C
  8
DEFPOINTS
 62
     0
 10
255.1719909999982008
 20
211.6549997687349958
 30
0.0
  0
POINT
  5
60D
  8
DEFPOINTS
 62
     0
 10
307.9825889043880238
 20
211.6549997687349958
 30
0.0
  0
ENDBLK
  5
5BF
  8
0
  0
BLOCK
  8
0
  2
*D32
 70
     1
 10
0.0
 20
0.0
 30
0.0
  3
*D32
  1

  0
LINE
  5
60E
  8
DIMENSION__ISO_
 10
0.0000000000000002
 20
288.3987497687347741
 30
0.0
 11
0.0000000000000028
 21
330.5016974844584183
 31
0.0
  0
LINE
  5
60F
  8
DIMENSION__ISO_
 10
244.4219999999980075
 20
226.3737407687349048
 30
0.0
 11
244.4219999999980075
 21
330.5016974844584183
 31
0.0
  0
LINE
  5
610
  8
DIMENSION__ISO_
 10
6.2500000000000018
 20
322.5641974844584183
 30
0.0
 11
94.3738781583491715
 21
322.5641974844584183
 31
0.0
  0
LINE
  5
611
  8
DIMENSION__ISO_
 10
238.1719999999980075
 20
322.5641974844584183
 30
0.0
 11
150.0481218416485092
 21
322.5641974844584183
 31
0.0
  0
SOLID
  5
612
  8
DIMENSION__ISO_
 10
6.2500000000000018
 20
323.6058641511251039
 30
0.0
 11
6.2500000000000018
 21
321.5225308177916759
 31
0.0
 12
0.0000000000000023
 22
322.5641974844584183
 32
0.0
 13
0.0000000000000023
 23
322.5641974844584183
 33
0.0
  0
SOLID
  5
613
  8
DIMENSION__ISO_
 10
238.1719999999980075
 20
323.6058641511251039
 30
0.0
 11
238.1719999999980075
 21
321.5225308177916759
 31
0.0
 12
244.4219999999980075
 22
322.5641974844584183
 32
0.0
 13
244.4219999999980075
 23
322.5641974844584183
 33
0.0
  0
INSERT
  5
614
  8
0
  2
*U73
 10
0.0
 20
0.0
 30
0.0
  0
POINT
  5
615
  8
DEFPOINTS
 62
     0
 10
0.0
 20
284.4299997687347741
 30
0.0
  0
POINT
  5
616
  8
DEFPOINTS
 62
     0
 10
244.4219999999980075
 20
222.4049907687349048
 30
0.0
  0
POINT
  5
617
  8
DEFPOINTS
 62
     0
 10
244.4219999999980075
 20
322.5641974844584183
 30
0.0
  0
ENDBLK
  5
5CC
  8
0
  0
BLOCK
  8
0
  2
*D33
 70
     1
 10
0.0
 20
0.0
 30
0.0
  3
*D33
  1

  0
LINE
  5
618
  8
DIMENSION__ISO_
 10
138.2500000000009095
 20
157.6799997687348878
 30
0.0
 11
104.3932491074479003
 21
122.1608991206804973
 31
0.0
  0
LINE
  5
619
  8
DIMENSION__ISO_
 10
72.7955568004622933
 20
89.0117757195648664
 30
0.0
 11
92.66180278774182
 21
109.8534445778839057
 31
0.0
  0
INSERT
  5
61A
  8
0
  2
*U74
 10
0.0
 20
0.0
 30
0.0
  0
SOLID
  5
61B
  8
DIMENSION__ISO_
 10
72.0415543476397744
 20
89.7304896721092575
 30
0.0
 11
73.5495592532848548
 21
88.2930617670204043
 31
0.0
 12
68.4832730851957052
 22
84.4877610026295969
 32
0.0
 13
68.4832730851957052
 23
84.4877610026295969
 33
0.0
  0
ARC
  5
61C
  8
DIMENSION__ISO_
 10
138.2500000000009095
 20
157.6799997687348878
 30
0.0
 40
101.1162697096741994
 50
221.874983767416694
 51
302.013488032283874
  0
POINT
  5
61D
  8
DEFPOINTS
 62
     0
 10
68.4832730851957052
 20
84.4877610026295969
 30
0.0
  0
POINT
  5
61E
  8
DEFPOINTS
 62
     0
 10
138.2500000000009095
 20
157.6799997687348878
 30
0.0
  0
ENDBLK
  5
5D9
  8
0
  0
BLOCK
  8
0
  2
*D34
 70
     1
 10
0.0
 20
0.0
 30
0.0
  3
*D34
  1

  0
LINE
  5
61F
  8
DIMENSION__ISO_
 10
220.3433434656469103
 20
239.7733432343873119
 30
0.0
 11
174.6748380658708015
 21
194.1048378346081904
 31
0.0
  0
ARC
  5
620
  8
DIMENSION__ISO_
 10
138.25
 20
157.6799997687348878
 30
0.0
 40
59.4500000000000313
 50
6.0263034082676707
 51
17.1289732268073607
  0
ARC
  5
621
  8
DIMENSION__ISO_
 10
138.25
 20
157.6799997687348878
 30
0.0
 40
59.4500000000000313
 50
28.0890478698040411
 51
38.9736965917342033
  0
SOLID
  5
622
  8
DIMENSION__ISO_
 10
198.4116941773723113
 20
163.9761145105688911
 30
0.0
 11
196.3312410623250059
 21
163.866603717185086
 31
0.0
 12
197.6999999999999886
 22
157.6799997687348878
 32
0.0
 13
197.6999999999999886
 23
157.6799997687348878
 33
0.0
  0
SOLID
  5
623
  8
DIMENSION__ISO_
 10
183.6942290193640019
 20
194.375049579172412
 30
0.0
 11
185.2427673495693909
 21
195.768716260148409
 31
0.0
 12
180.2874981415388902
 22
199.7174979102765917
 32
0.0
 13
180.2874981415388902
 23
199.7174979102765917
 33
0.0
  0
INSERT
  5
624
  8
0
  2
*U75
 10
0.0
 20
0.0
 30
0.0
  0
POINT
  5
625
  8
DEFPOINTS
 62
     0
 10
138.25
 20
157.6799997687348878
 30
0.0
  0
POINT
  5
626
  8
DEFPOINTS
 62
     0
 10
274.5000000000002274
 20
157.6799997687348878
 30
0.0
  0
POINT
  5
627
  8
DEFPOINTS
 62
     0
 10
223.1496735034808978
 20
242.5796732722214983
 30
0.0
  0
POINT
  5
628
  8
DEFPOINTS
 62
     0
 10
195.6742903728849967
 20
173.0667920000805111
 30
0.0
  0
ENDBLK
  5
5E3
  8
0
  0
BLOCK
  8
0
  2
*D35
 70
     1
 10
0.0
 20
0.0
 30
0.0
  3
*D35
  1

  0
LINE
  5
629
  8
DIMENSION__ISO_
 10
202.5242525797480084
 20
93.4057471889861546
 30
0.0
 11
166.2360952900118036
 21
129.693904478722601
 31
0.0
  0
ARC
  5
62A
  8
DIMENSION__ISO_
 10
138.2499999999996021
 20
157.6799997687348878
 30
0.0
 40
47.5158155170011511
 50
322.5418526141875759
 51
330.4629885556773843
  0
ARC
  5
62B
  8
DIMENSION__ISO_
 10
138.2499999999996021
 20
157.6799997687348878
 30
0.0
 40
47.5158155170011511
 50
344.1939896629266968
 51
352.4581473858121967
  0
SOLID
  5
62C
  8
DIMENSION__ISO_
 10
176.7513674686607033
 20
128.0952155056097865
 30
0.0
 11
175.184532943346511
 21
129.468280452384306
 31
0.0
 12
171.8487553656798923
 22
124.0812444030542991
 32
0.0
 13
171.8487553656798923
 23
124.0812444030542991
 33
0.0
  0
SOLID
  5
62D
  8
DIMENSION__ISO_
 10
184.3153567417211036
 20
151.512039102059191
 30
0.0
 11
186.3941795944417947
 21
151.3750233190860968
 31
0.0
 12
185.7658155170007035
 22
157.6799997687348878
 32
0.0
 13
185.7658155170007035
 23
157.6799997687348878
 33
0.0
  0
INSERT
  5
62E
  8
0
  2
*U76
 10
0.0
 20
0.0
 30
0.0
  0
POINT
  5
62F
  8
DEFPOINTS
 62
     0
 10
138.2499999999994884
 20
157.6799997687348878
 30
0.0
  0
POINT
  5
630
  8
DEFPOINTS
 62
     0
 10
205.3305826175821096
 20
90.5994171511520392
 30
0.0
  0
POINT
  5
631
  8
DEFPOINTS
 62
     0
 10
274.5000000000002274
 20
157.6799997687348878
 30
0.0
  0
POINT
  5
632
  8
DEFPOINTS
 62
     0
 10
179.3999033192573052
 20
133.922092010234195
 30
0.0
  0
ENDBLK
  5
5F0
  8
0
  0
BLOCK
  8
0
  2
*D36
 70
     1
 10
0.0
 20
0.0
 30
0.0
  3
*D36
  1

  0
LINE
  5
633
  8
DIMENSION__ISO_
 10
179.6993422094325012
 20
225.3295083960329066
 30
0.0
 11
188.0237805511488887
 21
225.3295083960327929
 31
0.0
  0
LINE
  5
634
  8
DIMENSION__ISO_
 10
188.0237805511488887
 20
225.3295083960327929
 30
0.0
 11
192.43076968487361
 21
231.7839709182723027
 31
0.0
  0
INSERT
  5
635
  8
0
  2
*U77
 10
0.0
 20
0.0
 30
0.0
  0
SOLID
  5
636
  8
DIMENSION__ISO_
 10
191.5705022027291022
 20
232.3713458442005901
 30
0.0
 11
193.2910371670180893
 21
231.1965959923441005
 31
0.0
 12
195.9550192404433062
 22
236.9455758111392072
 32
0.0
 13
195.9550192404433062
 23
236.9455758111392072
 33
0.0
  0
POINT
  5
637
  8
DEFPOINTS
 62
     0
 10
195.9550192404433062
 20
236.9455758111392072
 30
0.0
  0
POINT
  5
638
  8
DEFPOINTS
 62
     0
 10
197.7453380146729103
 20
239.5676710967157135
 30
0.0
  0
ENDBLK
  5
5FD
  8
0
  0
BLOCK
  8
0
  2
*U38
 70
     1
 10
0.0
 20
0.0
 30
0.0
  3
*U38
  1

  0
TEXT
  5
6F1
  8
DIMENSION__ISO_
 10
825.2361325011906956
 20
297.6334891104631879
 30
0.0
 40
6.3499999046325666
  1
R101.1 [R3.98]
  7
MtXpl_Tahoma
  0
ENDBLK
  5
6F4
  8
0
  0
BLOCK
  8
0
  2
*U39
 70
     1
 10
0.0
 20
0.0
 30
0.0
  3
*U39
  1

  0
TEXT
  5
6F6
  8
DIMENSION__ISO_
 10
644.1039968638849587
 20
294.5838650043114058
 30
0.0
 40
6.3499999046325666
  1
54 [2.125]
  7
MtXpl_Tahoma
  0
ENDBLK
  5
6F8
  8
0
  0
BLOCK
  8
0
  2
*U40
 70
     1
 10
0.0
 20
0.0
 30
0.0
  3
*U40
  1

  0
TEXT
  5
6FA
  8
DIMENSION__ISO_
 10
640.4300379103053729
 20
225.5703902417849065
 30
0.0
 40
6.3499999046325666
  1
24.8 [0.975]
  7
MtXpl_Tahoma
  0
ENDBLK
  5
6FC
  8
0
  0
BLOCK
  8
0
  2
*U41
 70
     1
 10
0.0
 20
0.0
 30
0.0
  3
*U41
  1

  0
TEXT
  5
6FE
  8
DIMENSION__ISO_
 10
822.4735674047931298
 20
422.2013064954928723
 30
0.0
 40
6.3499999046325666
  1
244.4 [9.623]
  7
MtXpl_Tahoma
  0
ENDBLK
  5
700
  8
0
  0
BLOCK
  8
0
  2
*U42
 70
     1
 10
0.0
 20
0.0
 30
0.0
  3
*U42
  1

  0
TEXT
  5
702
  8
DIMENSION__ISO_
 10
663.6737142408865111
 20
147.7903499435035997
 30
0.0
 40
6.25
  1
2X R20.6 [R0.81]
  7
MtXpl_Tahoma
  0
ENDBLK
  5
704
  8
0
  0
BLOCK
  8
0
  2
*U43
 70
     1
 10
0.0
 20
0.0
 30
0.0
  3
*U43
  1

  0
TEXT
  5
706
  8
DIMENSION__ISO_
 10
795.3739382260805542
 20
207.0575771770047027
 30
0.0
 40
6.25
  1
2X R12.7 [R0.50]
  7
MtXpl_Tahoma
  0
ENDBLK
  5
708
  8
0
  0
BLOCK
  8
0
  2
*U44
 70
     1
 10
0.0
 20
0.0
 30
0.0
  3
*U44
  1

  0
TEXT
  5
70A
  8
DIMENSION__ISO_
 10
765.7538806362106243
 20
291.7992698280240234
 30
0.0
 40
6.3499999046325666
  1
45
  7
MtXpl_Tahoma
  0
ENDBLK
  5
70C
  8
0
  0
BLOCK
  8
0
  2
*U45
 70
     1
 10
0.0
 20
0.0
 30
0.0
  3
*U45
  1

  0
TEXT
  5
70E
  8
DIMENSION__ISO_
 10
784.9767852558110235
 20
249.8163248891258945
 30
0.0
 40
6.3499999046325666
  1
45
  7
MtXpl_Tahoma
  0
ENDBLK
  5
710
  8
0
  0
BLOCK
  8
0
  2
*U46
 70
     1
 10
0.0
 20
0.0
 30
0.0
  3
*U46
  1

  0
TEXT
  5
712
  8
DIMENSION__ISO_
 10
796.9450276700816858
 20
328.3538081402588773
 30
0.0
 40
6.25
  1
8X R3.2 [R0.12]
  7
MtXpl_Tahoma
  0
ENDBLK
  5
714
  8
0
  0
BLOCK
  8
0
  2
*U47
 70
     1
 10
0.0
 20
0.0
 30
0.0
  3
*U47
  1

  0
TEXT
  5
716
  8
SYMBOL__ISO_
 10
173.1789275229241127
 20
0.0076762926586529
 30
0.0
 40
11.42999976873398
  1
VIEW A-A
  7
MtXpl_Tahoma
  0
ENDBLK
  5
718
  8
0
  0
BLOCK
  8
0
  2
*U48
 70
     1
 10
0.0
 20
0.0
 30
0.0
  3
*U48
  1

  0
TEXT
  5
71B
  8
SYMBOL__ISO_
 10
-0.4648421907921299
 20
235.8253801950218076
 30
0.0
 40
6.3500002026557931
  1
2X  
  7
MtXpl_Tahoma
  0
TEXT
  5
71C
  8
SYMBOL__ISO_
 10
14.8323040327984206
 20
235.8253801950218076
 30
0.0
 40
6.3499999999999988
  1
n
  7
MtXpl_AIGDT
  0
TEXT
  5
71E
  8
SYMBOL__ISO_
 10
22.1460688159784489
 20
235.8253801950218076
 30
0.0
 40
6.3499999999999988
  1
9 X 4.7 DP
  7
MtXpl_Tahoma
  0
ENDBLK
  5
720
  8
0
  0
BLOCK
  8
0
  2
*U49
 70
     1
 10
0.0
 20
0.0
 30
0.0
  3
*U49
  1

  0
SOLID
  5
722
  8
SYMBOL__ISO_
 10
96.3359555793544757
 20
213.5253420711376862
 30
0.0
 11
99.718780371427556
 21
208.1677245156770084
 31
0.0
 12
94.7812052798576872
 22
212.1386087571972041
 32
0.0
 13
94.7812052798576872
 23
212.1386087571972041
 33
0.0
  0
POLYLINE
  5
723
  8
SYMBOL__ISO_
 66
     1
 10
0.0
 20
0.0
 30
0.0
  0
VERTEX
  5
724
  8
SYMBOL__ISO_
 10
95.5585804296060815
 20
212.8319754141674878
 30
0.0
  0
VERTEX
  5
725
  8
SYMBOL__ISO_
 10
72.21811293810606
 20
239.0003802963497037
 30
0.0
  0
VERTEX
  5
726
  8
SYMBOL__ISO_
 10
65.96811293810606
 20
239.0003802963497037
 30
0.0
  0
SEQEND
  5
727
  8
SYMBOL__ISO_
  0
ENDBLK
  5
729
  8
0
  0
BLOCK
  8
0
  2
*U50
 70
     1
 10
0.0
 20
0.0
 30
0.0
  3
*U50
  1

  0
TEXT
  5
72B
  8
DIMENSION__ISO_
 10
195.5462946581822905
 20
185.3779870053147931
 30
0.0
 40
6.3499999046325666
  1
R101.1 [R3.98]
  7
MtXpl_Tahoma
  0
ENDBLK
  5
72D
  8
0
  0
BLOCK
  8
0
  2
*U51
 70
     1
 10
0.0
 20
0.0
 30
0.0
  3
*U51
  1

  0
TEXT
  5
72F
  8
DIMENSION__ISO_
 10
14.4141590794699397
 20
182.3283628991632099
 30
0.0
 40
6.3499999046325666
  1
54 [2.125]
  7
MtXpl_Tahoma
  0
ENDBLK
  5
731
  8
0
  0
BLOCK
  8
0
  2
*U52
 70
     1
 10
0.0
 20
0.0
 30
0.0
  3
*U52
  1

  0
TEXT
  5
733
  8
DIMENSION__ISO_
 10
10.7402001017392799
 20
113.3148881366366965
 30
0.0
 40
6.3499999046325666
  1
24.8 [0.975]
  7
MtXpl_Tahoma
  0
ENDBLK
  5
735
  8
0
  0
BLOCK
  8
0
  2
*U53
 70
     1
 10
0.0
 20
0.0
 30
0.0
  3
*U53
  1

  0
TEXT
  5
737
  8
DIMENSION__ISO_
 10
192.7837295808243141
 20
309.9458043903445059
 30
0.0
 40
6.3499999046325666
  1
244.4 [9.623]
  7
MtXpl_Tahoma
  0
ENDBLK
  5
739
  8
0
  0
BLOCK
  8
0
  2
*U54
 70
     1
 10
0.0
 20
0.0
 30
0.0
  3
*U54
  1

  0
TEXT
  5
73B
  8
DIMENSION__ISO_
 10
33.9838763754362674
 20
35.5348478379326167
 30
0.0
 40
6.25
  1
2X R20.6 [R0.81]
  7
MtXpl_Tahoma
  0
ENDBLK
  5
73D
  8
0
  0
BLOCK
  8
0
  2
*U55
 70
     1
 10
0.0
 20
0.0
 30
0.0
  3
*U55
  1

  0
TEXT
  5
73F
  8
DIMENSION__ISO_
 10
165.6841005690471889
 20
94.8020750714337339
 30
0.0
 40
6.25
  1
2X R12.7 [R0.50]
  7
MtXpl_Tahoma
  0
ENDBLK
  5
741
  8
0
  0
BLOCK
  8
0
  2
*U56
 70
     1
 10
0.0
 20
0.0
 30
0.0
  3
*U56
  1

  0
TEXT
  5
743
  8
DIMENSION__ISO_
 10
136.0640429791770032
 20
179.5437676960380884
 30
0.0
 40
6.3499999046325666
  1
45
  7
MtXpl_Tahoma
  0
ENDBLK
  5
745
  8
0
  0
BLOCK
  8
0
  2
*U57
 70
     1
 10
0.0
 20
0.0
 30
0.0
  3
*U57
  1

  0
TEXT
  5
747
  8
DIMENSION__ISO_
 10
155.2869475987770898
 20
137.5608227571401017
 30
0.0
 40
6.3499999046325666
  1
45
  7
MtXpl_Tahoma
  0
ENDBLK
  5
749
  8
0
  0
BLOCK
  8
0
  2
*U58
 70
     1
 10
0.0
 20
0.0
 30
0.0
  3
*U58
  1

  0
TEXT
  5
74B
  8
DIMENSION__ISO_
 10
167.2551898193169109
 20
216.0983060346879086
 30
0.0
 40
6.25
  1
8X R3.2 [R0.12]
  7
MtXpl_Tahoma
  0
ENDBLK
  5
74D
  8
0
  0
BLOCK
  8
0
  2
*U59
 70
     1
 10
0.0
 20
0.0
 30
0.0
  3
*U59
  1

  0
TEXT
  5
752
  8
DIMENSION__ISO_
 10
971.6964292110703809
 20
298.1745484410186009
 30
0.0
 40
6.3499999046325666
  1
54 [2.125]
  7
MtXpl_Tahoma
  0
ENDBLK
  5
754
  8
0
  0
BLOCK
  8
0
  2
*U60
 70
     1
 10
0.0
 20
0.0
 30
0.0
  3
*U60
  1

  0
TEXT
  5
756
  8
DIMENSION__ISO_
 10
779.8669660248582431
 20
436.0712461567420064
 30
0.0
 40
6.3499999046325666
  1
244.4 [9.623]
  7
MtXpl_Tahoma
  0
ENDBLK
  5
758
  8
0
  0
BLOCK
  8
0
  2
*U61
 70
     1
 10
0.0
 20
0.0
 30
0.0
  3
*U61
  1

  0
TEXT
  5
75A
  8
DIMENSION__ISO_
 10
753.0575350203074549
 20
229.5142205215659033
 30
0.0
 40
6.3499999046325666
  1
R101.1 [R3.98]
  7
MtXpl_Tahoma
  0
ENDBLK
  5
75C
  8
0
  0
BLOCK
  8
0
  2
*U62
 70
     1
 10
0.0
 20
0.0
 30
0.0
  3
*U62
  1

  0
TEXT
  5
75E
  8
DIMENSION__ISO_
 10
870.4392673037997383
 20
293.1678169485659282
 30
0.0
 40
6.3499999046325666
  1
45
  7
MtXpl_Tahoma
  0
ENDBLK
  5
760
  8
0
  0
BLOCK
  8
0
  2
*U63
 70
     1
 10
0.0
 20
0.0
 30
0.0
  3
*U63
  1

  0
TEXT
  5
762
  8
DIMENSION__ISO_
 10
859.4135185227430611
 20
252.2337715207879114
 30
0.0
 40
6.3499999046325666
  1
45
  7
MtXpl_Tahoma
  0
ENDBLK
  5
764
  8
0
  0
BLOCK
  8
0
  2
*U64
 70
     1
 10
0.0
 20
0.0
 30
0.0
  3
*U64
  1

  0
TEXT
  5
766
  8
DIMENSION__ISO_
 10
808.6728867545264166
 20
338.8733938368325198
 30
0.0
 40
6.25
  1
8X R3 [R0.12]
  7
MtXpl_Tahoma
  0
ENDBLK
  5
768
  8
0
  0
BLOCK
  8
0
  2
*U65
 70
     1
 10
0.0
 20
0.0
 30
0.0
  3
*U65
  1

  0
TEXT
  5
76A
  8
SYMBOL__ISO_
 10
100.1322339314717027
 20
0.0076762926586529
 30
0.0
 40
11.42999976873398
  1
VIEW A-A
  7
MtXpl_Tahoma
  0
ENDBLK
  5
76C
  8
0
  0
BLOCK
  8
0
  2
*U66
 70
     1
 10
0.0
 20
0.0
 30
0.0
  3
*U66
  1

  0
TEXT
  5
76E
  8
SYMBOL__ISO_
 10
269.5098423642144212
 20
232.0405793698762125
 30
0.0
 40
6.3500002026557931
  1
2X  
  7
MtXpl_Tahoma
  0
TEXT
  5
76F
  8
SYMBOL__ISO_
 10
284.8069885878049945
 20
232.0405793698762125
 30
0.0
 40
6.3499999999999988
  1
n
  7
MtXpl_AIGDT
  0
TEXT
  5
770
  8
SYMBOL__ISO_
 10
292.1207533709850281
 20
232.0405793698762125
 30
0.0
 40
6.3499999999999988
  1
9 X 4.7 DP
  7
MtXpl_Tahoma
  0
ENDBLK
  5
772
  8
0
  0
BLOCK
  8
0
  2
*U67
 70
     1
 10
0.0
 20
0.0
 30
0.0
  3
*U67
  1

  0
SOLID
  5
774
  8
SYMBOL__ISO_
 10
251.4471226356318141
 20
219.8080592464089875
 30
0.0
 11
246.8592483122124861
 21
215.4378214225654062
 31
0.0
 12
249.7817549996057949
 22
221.0597894148777982
 32
0.0
 13
249.7817549996057949
 23
221.0597894148777982
 33
0.0
  0
POLYLINE
  5
775
  8
SYMBOL__ISO_
 66
     1
 10
0.0
 20
0.0
 30
0.0
  0
VERTEX
  5
776
  8
SYMBOL__ISO_
 10
250.6144388176188045
 20
220.4339243306434923
 30
0.0
  0
VERTEX
  5
777
  8
SYMBOL__ISO_
 10
261.7246845550066041
 20
235.2155794712041086
 30
0.0
  0
VERTEX
  5
778
  8
SYMBOL__ISO_
 10
267.9746845550066041
 20
235.2155794712041086
 30
0.0
  0
SEQEND
  5
779
  8
SYMBOL__ISO_
  0
ENDBLK
  5
77B
  8
0
  0
BLOCK
  8
0
  2
*U68
 70
     1
 10
0.0
 20
0.0
 30
0.0
  3
*U68
  1

  0
TEXT
  5
77D
  8
SYMBOL__ISO_
 10
257.3558503001253825
 20
56.5030186861545403
 30
0.0
 40
6.3500002026557931
  1
2X  
  7
MtXpl_Tahoma
  0
TEXT
  5
77E
  8
SYMBOL__ISO_
 10
272.6529965237160127
 20
56.5030186861545403
 30
0.0
 40
6.3499999999999988
  1
n
  7
MtXpl_AIGDT
  0
TEXT
  5
77F
  8
SYMBOL__ISO_
 10
279.9667613068959895
 20
56.5030186861545403
 30
0.0
 40
6.3499999999999988
  1
41.3 X 7.9 DP
  7
MtXpl_Tahoma
  0
ENDBLK
  5
781
  8
0
  0
BLOCK
  8
0
  2
*U69
 70
     1
 10
0.0
 20
0.0
 30
0.0
  3
*U69
  1

  0
SOLID
  5
783
  8
SYMBOL__ISO_
 10
231.6324431648505993
 20
70.5457038545418982
 30
0.0
 11
227.0377068221287118
 21
74.9087265894489036
 31
0.0
 12
232.799113438727403
 22
72.2717276810953138
 32
0.0
 13
232.799113438727403
 23
72.2717276810953138
 33
0.0
  0
POLYLINE
  5
784
  8
SYMBOL__ISO_
 66
     1
 10
0.0
 20
0.0
 30
0.0
  0
VERTEX
  5
785
  8
SYMBOL__ISO_
 10
232.2157783017889017
 20
71.408715767818606
 30
0.0
  0
VERTEX
  5
786
  8
SYMBOL__ISO_
 10
249.5706924909175086
 20
59.6780187874824293
 30
0.0
  0
VERTEX
  5
787
  8
SYMBOL__ISO_
 10
255.8206924909175086
 20
59.6780187874824293
 30
0.0
  0
SEQEND
  5
788
  8
SYMBOL__ISO_
  0
ENDBLK
  5
78A
  8
0
  0
BLOCK
  8
0
  2
*U70
 70
     1
 10
0.0
 20
0.0
 30
0.0
  3
*U70
  1

  0
TEXT
  5
78C
  8
SYMBOL__ISO_
 10
242.5659851581222028
 20
31.3602476566106105
 30
0.0
 40
6.3500002026557931
  1
2X  
  7
MtXpl_Tahoma
  0
TEXT
  5
78D
  8
SYMBOL__ISO_
 10
257.8631313817127761
 20
31.3602476566106105
 30
0.0
 40
6.3499999999999988
  1
n
  7
MtXpl_AIGDT
  0
TEXT
  5
78E
  8
SYMBOL__ISO_
 10
265.1768961648929235
 20
31.3602476566106105
 30
0.0
 40
6.3499999999999988
  1
25.4 THRU
  7
MtXpl_Tahoma
  0
ENDBLK
  5
790
  8
0
  0
BLOCK
  8
0
  2
*U71
 70
     1
 10
0.0
 20
0.0
 30
0.0
  3
*U71
  1

  0
SOLID
  5
792
  8
SYMBOL__ISO_
 10
216.9841983899023887
 20
68.6252836552120442
 30
0.0
 11
215.1790820970292941
 21
74.6989254468926021
 31
0.0
 12
218.8564543065083114
 22
69.5390317389373962
 32
0.0
 13
218.8564543065083114
 23
69.5390317389373962
 33
0.0
  0
POLYLINE
  5
793
  8
SYMBOL__ISO_
 66
     1
 10
0.0
 20
0.0
 30
0.0
  0
VERTEX
  5
794
  8
SYMBOL__ISO_
 10
217.9203263482054069
 20
69.0821576970747202
 30
0.0
  0
VERTEX
  5
795
  8
SYMBOL__ISO_
 10
234.7808273489144142
 20
34.5352477579385067
 30
0.0
  0
VERTEX
  5
796
  8
SYMBOL__ISO_
 10
241.0308273489144142
 20
34.5352477579385067
 30
0.0
  0
SEQEND
  5
797
  8
SYMBOL__ISO_
  0
ENDBLK
  5
799
  8
0
  0
BLOCK
  8
0
  2
*U72
 70
     1
 10
0.0
 20
0.0
 30
0.0
  3
*U72
  1

  0
TEXT
  5
79B
  8
DIMENSION__ISO_
 10
287.7384992151395977
 20
182.328362799163898
 30
0.0
 40
6.3499999046325666
  1
54 [2.125]
  7
MtXpl_Tahoma
  0
ENDBLK
  5
79D
  8
0
  0
BLOCK
  8
0
  2
*U73
 70
     1
 10
0.0
 20
0.0
 30
0.0
  3
*U73
  1

  0
TEXT
  5
79F
  8
DIMENSION__ISO_
 10
95.9090359893733648
 20
320.2250605148875024
 30
0.0
 40
6.3499999046325666
  1
244.4 [9.623]
  7
MtXpl_Tahoma
  0
ENDBLK
  5
7A1
  8
0
  0
BLOCK
  8
0
  2
*U74
 70
     1
 10
0.0
 20
0.0
 30
0.0
  3
*U74
  1

  0
TEXT
  5
7A3
  8
DIMENSION__ISO_
 10
69.0996049657831719
 20
113.6680348797113993
 30
0.0
 40
6.3499999046325666
  1
R101.1 [R3.98]
  7
MtXpl_Tahoma
  0
ENDBLK
  5
7A5
  8
0
  0
BLOCK
  8
0
  2
*U75
 70
     1
 10
0.0
 20
0.0
 30
0.0
  3
*U75
  1

  0
TEXT
  5
7A7
  8
DIMENSION__ISO_
 10
186.4813374352497988
 20
177.3216312798737988
 30
0.0
 40
6.3499999046325666
  1
45
  7
MtXpl_Tahoma
  0
ENDBLK
  5
7A9
  8
0
  0
BLOCK
  8
0
  2
*U76
 70
     1
 10
0.0
 20
0.0
 30
0.0
  3
*U76
  1

  0
TEXT
  5
7AB
  8
DIMENSION__ISO_
 10
175.4555886541932068
 20
136.3875858520958957
 30
0.0
 40
6.3499999046325666
  1
45
  7
MtXpl_Tahoma
  0
ENDBLK
  5
7AD
  8
0
  0
BLOCK
  8
0
  2
*U77
 70
     1
 10
0.0
 20
0.0
 30
0.0
  3
*U77
  1

  0
TEXT
  5
7AF
  8
DIMENSION__ISO_
 10
124.7149567158126047
 20
223.0272081945554135
 30
0.0
 40
6.25
  1
8X R3 [R0.12]
  7
MtXpl_Tahoma
  0
ENDBLK
  5
7B1
  8
0
  0
ENDSEC
  0
SECTION
  2
ENTITIES
  0
LINE
  5
666
  8
VISIBLE__ISO_
 10
6.3500000000004491
 20
0.0000000000000284
 30
0.0
 11
28.7060000000003299
 21
0.0
 31
0.0
  0
ARC
  5
667
  8
VISIBLE__ISO_
 10
133.100000000000307
 20
138.25
 30
0.0
 40
98.0440000000001959
 50
342.2937936244434809
 51
31.4827081498428214
  0
LINE
  5
668
  8
VISIBLE__ISO_
 10
232.5487040438441113
 20
100.1500000000000057
 30
0.0
 11
252.6042258667035867
 21
100.1500000000000057
 31
0.0
  0
LINE
  5
669
  8
VISIBLE__ISO_
 10
35.0560000000003527
 20
6.3499999999999091
 30
0.0
 11
35.0560000000003527
 21
138.2500000000001137
 31
0.0
  0
ARC
  5
66A
  8
VISIBLE__ISO_
 10
133.100000000000307
 20
138.2500000000001137
 30
0.0
 40
98.0440000000000254
 50
148.5172918501571075
 51
180.0
  0
ARC
  5
66B
  8
VISIBLE__ISO_
 10
133.100000000000307
 20
138.25
 30
0.0
 40
98.0440000000000396
 50
58.5172918501571786
 51
121.4827081498445978
  0
ARC
  5
66E
  8
VISIBLE__ISO_
 10
232.5487040438441113
 20
106.4999999999999005
 30
0.0
 40
6.3500000000000121
 50
162.2937936244435093
 51
270.0
  0
ARC
  5
66F
  8
VISIBLE__ISO_
 10
252.6042258667035867
 20
106.4999999999999005
 30
0.0
 40
6.3499999999999668
 50
270.0
 51
345.1213219413414208
  0
ARC
  5
670
  8
VISIBLE__ISO_
 10
12.9382977985086107
 20
202.6897999999999911
 30
0.0
 40
6.3499999999999801
 50
270.0
 51
331.7964223619783866
  0
ARC
  5
671
  8
VISIBLE__ISO_
 10
6.350000000000505
 20
189.9898000000000025
 30
0.0
 40
6.3499999999999801
 50
90.0
 51
133.2387034610113119
  0
ARC
  5
672
  8
VISIBLE__ISO_
 10
6.3500000000005619
 20
6.350000000000164
 30
0.0
 40
6.3500000000001382
 50
226.7612965389886028
 51
270.0
  0
ARC
  5
673
  8
VISIBLE__ISO_
 10
28.7060000000002802
 20
6.3500000000001364
 30
0.0
 40
6.3500000000000512
 50
270.0
 51
0.0
  0
CIRCLE
  5
67A
  8
VISIBLE__ISO_
 10
79.1250000000004263
 20
244.4219999999980075
 30
0.0
 40
4.4999909999999996
  0
CIRCLE
  5
67B
  8
VISIBLE__ISO_
 10
157.8650000000004923
 20
244.4219999999992865
 30
0.0
 40
4.4999909999999996
  0
ARC
  5
67E
  8
VISIBLE__ISO_
 10
192.5953380146769121
 20
220.1376713279790067
 30
0.0
 40
3.1749999999999972
 50
233.9997883008182953
 51
319.1302620868506779
  0
ARC
  5
67F
  8
VISIBLE__ISO_
 10
214.9876713279807916
 20
197.7453380146758946
 30
0.0
 40
3.1750000000000012
 50
130.8697379131492937
 51
216.0002116991803973
  0
ARC
  5
680
  8
VISIBLE__ISO_
 10
133.1000000000015007
 20
138.2499999999978968
 30
0.0
 40
98.0439999999997269
 50
31.4827081498428214
 51
36.0002116991817331
  0
ARC
  5
681
  8
VISIBLE__ISO_
 10
51.212328672019531
 20
197.7453380146729103
 30
0.0
 40
3.1750000000000091
 50
323.9997883008196027
 51
49.1302620868598723
  0
ARC
  5
682
  8
VISIBLE__ISO_
 10
73.6046619853221671
 20
220.1376713279763919
 30
0.0
 40
3.1749999999999829
 50
220.8697379131469916
 51
306.0002116991839785
  0
ARC
  5
683
  8
VISIBLE__ISO_
 10
133.1000000000099135
 20
138.2499999999845954
 30
0.0
 40
98.0440000000157141
 50
121.4827081498445978
 51
126.0002116991840069
  0
ARC
  5
684
  8
VISIBLE__ISO_
 10
133.1000000000005059
 20
138.2499999999965894
 30
0.0
 40
98.0440000000012901
 50
53.9997883008182811
 51
58.5172918501571786
  0
ARC
  5
685
  8
VISIBLE__ISO_
 10
133.1000000000271939
 20
138.2499999999801901
 30
0.0
 40
98.0440000000312466
 50
143.9997883008196027
 51
148.5172918501571075
  0
ARC
  5
686
  8
VISIBLE__ISO_
 10
133.100000000000307
 20
138.2500000000001137
 30
0.0
 40
130.0
 50
345.1213219413414208
 51
151.7964223619783866
  0
LINE
  5
687
  8
VISIBLE__ISO_
 10
12.9382977985086107
 20
196.3397999999999968
 30
0.0
 11
6.350000000000505
 21
196.3397999999999968
 31
0.0
  0
LINE
  5
688
  8
VISIBLE__ISO_
 10
2.0000000000004259
 20
1.723986597511981
 30
0.0
 11
2.0000000000004832
 21
194.6158134024882997
 31
0.0
  0
ARC
  5
689
  8
VISIBLE__ISO_
 10
6.3499999999999943
 20
6.3500000000013008
 30
0.0
 40
6.3499999999999979
 50
180.000000000032486
 51
226.761296539016314
  0
LINE
  5
68A
  8
VISIBLE__ISO_
 10
0.0000000000007105
 20
189.9897999999994056
 30
0.0
 11
0.0000000000006537
 21
6.349999999999369
 31
0.0
  0
ARC
  5
68B
  8
VISIBLE__ISO_
 10
6.3500000000000512
 20
189.9898000000013099
 30
0.0
 40
6.349999999999997
 50
133.2387034610354988
 51
180.000000000032486
  0
ARC
  5
68C
  8
VISIBLE__ISO_
 10
204.5999999999993122
 20
209.7499999999978968
 30
0.0
 40
12.6999999999999993
 50
310.8697379131493221
 51
139.1302620868507063
  0
ARC
  5
68D
  8
VISIBLE__ISO_
 10
61.5999999999993122
 20
209.7499999999965041
 30
0.0
 40
12.6999999999999993
 50
40.8697379131424228
 51
229.1302620868576128
  0
LINE
  5
68E
  8
0
 10
49.4882909828866815
 20
189.4526176209490131
 30
0.0
 11
49.4882909828849122
 21
189.4526176209500932
 31
0.0
  0
POLYLINE
  5
699
  8
VISIBLE__ISO_
 66
     1
 10
0.0
 20
0.0
 30
0.0
 70
     1
  0
VERTEX
  5
7B2
  8
VISIBLE__ISO_
 10
55.8452783319808006
 20
181.2637053374965035
 30
0.0
  0
VERTEX
  5
7B3
  8
VISIBLE__ISO_
 10
90.4739647536625853
 20
217.2941498767503958
 30
0.0
  0
VERTEX
  5
7B4
  8
VISIBLE__ISO_
 10
85.8168034652371574
 20
223.425039405963588
 30
0.0
  0
VERTEX
  5
7B5
  8
VISIBLE__ISO_
 10
81.8973823790473858
 20
221.8617090171136113
 30
0.0
 42
-0.3788455987105649
  0
VERTEX
  5
7B6
  8
VISIBLE__ISO_
 10
77.7540309869872033
 20
222.5934298036530947
 30
0.0
 42
1.120664799288021
  0
VERTEX
  5
7B7
  8
VISIBLE__ISO_
 10
48.7565701963435885
 20
193.5959690130096931
 30
0.0
 42
-0.3788455987105601
  0
VERTEX
  5
7B8
  8
VISIBLE__ISO_
 10
49.4882909828843935
 20
189.4526176209492121
 30
0.0
  0
VERTEX
  5
7B9
  8
VISIBLE__ISO_
 10
48.2797958934788696
 20
183.945346860051302
 30
0.0
  0
SEQEND
  5
7BA
  8
VISIBLE__ISO_
  0
POLYLINE
  5
69A
  8
VISIBLE__ISO_
 66
     1
 10
0.0
 20
0.0
 30
0.0
 70
     1
  0
VERTEX
  5
7BB
  8
VISIBLE__ISO_
 10
217.4434298036543964
 20
193.5959690130125921
 30
0.0
 42
1.1206647992879359
  0
VERTEX
  5
7BC
  8
VISIBLE__ISO_
 10
188.4459690130105969
 20
222.5934298036563916
 30
0.0
 42
-0.3788455987105306
  0
VERTEX
  5
7BD
  8
VISIBLE__ISO_
 10
184.3026176209500022
 20
221.861709017115686
 30
0.0
  0
VERTEX
  5
7BE
  8
VISIBLE__ISO_
 10
180.4565829891870976
 20
223.7137734258504054
 30
0.0
  0
VERTEX
  5
7BF
  8
VISIBLE__ISO_
 10
176.1581606306245078
 20
216.7803933965442127
 30
0.0
  0
VERTEX
  5
7C0
  8
VISIBLE__ISO_
 10
210.8938501600314055
 20
182.5161300655200023
 30
0.0
  0
VERTEX
  5
7C1
  8
VISIBLE__ISO_
 10
218.2274169646298105
 20
185.7654670431329009
 30
0.0
  0
VERTEX
  5
7C2
  8
VISIBLE__ISO_
 10
216.7117090171151972
 20
189.4526176209502921
 30
0.0
 42
-0.378845598710542
  0
SEQEND
  5
7C3
  8
VISIBLE__ISO_
  0
ENDSEC
  0
EOF
