  0
SECTION
  2
HEADER
  9
$ACADVER
  1
AC1009
  9
$INSBASE
 10
0.0
 20
0.0
 30
0.0
  9
$EXTMIN
 10
0.0179388998356558
 20
0.0129390676875687
 30
0.0
  9
$EXTMAX
 10
276.4415275104640273
 20
263.1000000000000227
 30
0.0
  9
$LIMMIN
 10
0.0
 20
0.0
  9
$LIMMAX
 10
420.0
 20
297.0
  9
$ORTHOMODE
 70
     0
  9
$REGENMODE
 70
     1
  9
$FILLMODE
 70
     1
  9
$QTEXTMODE
 70
     0
  9
$MIRRTEXT
 70
     0
  9
$DRAGMODE
 70
     2
  9
$LTSCALE
 40
1.0
  9
$OSMODE
 70
   103
  9
$ATTMODE
 70
     1
  9
$TEXTSIZE
 40
2.5
  9
$TRACEWID
 40
1.0
  9
$TEXTSTYLE
  7
STANDARD
  9
$CLAYER
  8
0
  9
$CELTYPE
  6
BYLAYER
  9
$CECOLOR
 62
   256
  9
$DIMSCALE
 40
1.0
  9
$DIMASZ
 40
2.5
  9
$DIMEXO
 40
0.625
  9
$DIMDLI
 40
3.75
  9
$DIMRND
 40
0.0
  9
$DIMDLE
 40
0.0
  9
$DIMEXE
 40
1.25
  9
$DIMTP
 40
0.0
  9
$DIMTM
 40
0.0
  9
$DIMTXT
 40
2.5
  9
$DIMCEN
 40
2.5
  9
$DIMTSZ
 40
0.0
  9
$DIMTOL
 70
     0
  9
$DIMLIM
 70
     0
  9
$DIMTIH
 70
     0
  9
$DIMTOH
 70
     0
  9
$DIMSE1
 70
     0
  9
$DIMSE2
 70
     0
  9
$DIMTAD
 70
     1
  9
$DIMZIN
 70
     8
  9
$DIMBLK
  1

  9
$DIMASO
 70
     1
  9
$DIMSHO
 70
     1
  9
$DIMPOST
  1

  9
$DIMAPOST
  1

  9
$DIMALT
 70
     0
  9
$DIMALTD
 70
     3
  9
$DIMALTF
 40
0.03937007874016
  9
$DIMLFAC
 40
1.0
  9
$DIMTOFL
 70
     1
  9
$DIMTVP
 40
0.0
  9
$DIMTIX
 70
     0
  9
$DIMSOXD
 70
     0
  9
$DIMSAH
 70
     0
  9
$DIMBLK1
  1

  9
$DIMBLK2
  1

  9
$DIMSTYLE
  2
ISO-25
  9
$DIMCLRD
 70
     0
  9
$DIMCLRE
 70
     0
  9
$DIMCLRT
 70
     0
  9
$DIMTFAC
 40
1.0
  9
$DIMGAP
 40
0.625
  9
$LUNITS
 70
     2
  9
$LUPREC
 70
     4
  9
$SKETCHINC
 40
1.0
  9
$FILLETRAD
 40
0.0
  9
$AUNITS
 70
     0
  9
$AUPREC
 70
     0
  9
$MENU
  1
.
  9
$ELEVATION
 40
0.0
  9
$PELEVATION
 40
0.0
  9
$THICKNESS
 40
0.0
  9
$LIMCHECK
 70
     0
  9
$BLIPMODE
 70
     0
  9
$CHAMFERA
 40
0.0
  9
$CHAMFERB
 40
0.0
  9
$SKPOLY
 70
     0
  9
$TDCREATE
 40
2460447.63980324100703
  9
$TDUPDATE
 40
2460823.3709722221828997
  9
$TDINDWG
 40
0.8067824074
  9
$TDUSRTIMER
 40
0.8067824074
  9
$USRTIMER
 70
     1
  9
$ANGBASE
 50
0.0
  9
$ANGDIR
 70
     0
  9
$PDMODE
 70
     0
  9
$PDSIZE
 40
0.0
  9
$PLINEWID
 40
0.0
  9
$COORDS
 70
     1
  9
$SPLFRAME
 70
     0
  9
$SPLINETYPE
 70
     6
  9
$SPLINESEGS
 70
     8
  9
$ATTDIA
 70
     1
  9
$ATTREQ
 70
     1
  9
$HANDLING
 70
     1
  9
$HANDSEED
  5
7C5
  9
$SURFTAB1
 70
     6
  9
$SURFTAB2
 70
     6
  9
$SURFTYPE
 70
     6
  9
$SURFU
 70
     6
  9
$SURFV
 70
     6
  9
$UCSNAME
  2

  9
$UCSORG
 10
0.0
 20
0.0
 30
0.0
  9
$UCSXDIR
 10
1.0
 20
0.0
 30
0.0
  9
$UCSYDIR
 10
0.0
 20
1.0
 30
0.0
  9
$PUCSNAME
  2

  9
$PUCSORG
 10
0.0
 20
0.0
 30
0.0
  9
$PUCSXDIR
 10
1.0
 20
0.0
 30
0.0
  9
$PUCSYDIR
 10
0.0
 20
1.0
 30
0.0
  9
$USERI1
 70
     0
  9
$USERI2
 70
     0
  9
$USERI3
 70
     0
  9
$USERI4
 70
     0
  9
$USERI5
 70
     0
  9
$USERR1
 40
0.0
  9
$USERR2
 40
0.0
  9
$USERR3
 40
0.0
  9
$USERR4
 40
0.0
  9
$USERR5
 40
0.0
  9
$WORLDVIEW
 70
     1
  9
$SHADEDGE
 70
     3
  9
$SHADEDIF
 70
    70
  9
$TILEMODE
 70
     1
  9
$MAXACTVP
 70
    64
  9
$PLIMCHECK
 70
     0
  9
$PEXTMIN
 10
0.0
 20
0.0
 30
0.0
  9
$PEXTMAX
 10
0.0
 20
0.0
 30
0.0
  9
$PLIMMIN
 10
0.0
 20
0.0
  9
$PLIMMAX
 10
12.0
 20
9.0
  9
$UNITMODE
 70
     0
  9
$VISRETAIN
 70
     1
  9
$PLINEGEN
 70
     0
  9
$PSLTSCALE
 70
     1
  0
ENDSEC
  0
SECTION
  2
TABLES
  0
TABLE
  2
VPORT
 70
     1
  0
VPORT
  2
*ACTIVE
 70
     0
 10
0.0
 20
0.0
 11
1.0
 21
1.0
 12
34.8712943946675296
 22
68.4937915650847913
 13
0.0
 23
0.0
 14
10.0
 24
10.0
 15
10.0
 25
10.0
 16
0.0
 26
0.0
 36
1.0
 17
0.0
 27
0.0
 37
0.0
 40
364.9432143854621131
 41
2.0480256136606192
 42
50.0
 43
0.0
 44
0.0
 50
0.0
 51
0.0
 71
     0
 72
  1000
 73
     1
 74
     3
 75
     0
 76
     1
 77
     0
 78
     0
  0
ENDTAB
  0
TABLE
  2
LTYPE
 70
     3
  0
LTYPE
  2
CONTINUOUS
 70
     0
  3
Solid line
 72
    65
 73
     0
 40
0.0
  0
LTYPE
  2
CHAIN
 70
     0
  3
Chain ____ _ ____ _ ____ _ ____ _ ____ _ ____
 72
    65
 73
     4
 40
0.7087
 49
0.4724000000000001
 49
-0.0591
 49
0.1181
 49
-0.0591
  0
ENDTAB
  0
TABLE
  2
LAYER
 70
     8
  0
LAYER
  2
0
 70
     0
 62
     7
  6
CONTINUOUS
  0
LAYER
  2
CENTER_MARK__ISO_
 70
     0
 62
     7
  6
CONTINUOUS
  0
LAYER
  2
CENTERLINE__ISO_
 70
     0
 62
     7
  6
CONTINUOUS
  0
LAYER
  2
DIMENSION__ISO_
 70
     0
 62
     7
  6
CONTINUOUS
  0
LAYER
  2
SECTION_LINE__ISO_
 70
     0
 62
     7
  6
CHAIN
  0
LAYER
  2
SYMBOL__ISO_
 70
     0
 62
     7
  6
CONTINUOUS
  0
LAYER
  2
VISIBLE__ISO_
 70
     0
 62
     7
  6
CONTINUOUS
  0
LAYER
  2
DEFPOINTS
 70
     0
 62
     7
  6
CONTINUOUS
  0
ENDTAB
  0
TABLE
  2
STYLE
 70
     6
  0
STYLE
  2
STANDARD
 70
     0
 40
0.0
 41
1.0
 50
0.0
 71
     0
 42
2.5
  3
txt
  4

  0
STYLE
  2
ANNOTATIVE
 70
     0
 40
0.0
 41
1.0
 50
0.0
 71
     0
 42
2.5
  3
txt
  4

  0
STYLE
  2
LABEL_TEXT__ANSI_
 70
     0
 40
0.0
 41
1.0
 50
0.0
 71
     0
 42
0.2
  3
txt
  4

  0
STYLE
  2
NOTE_TEXT__ANSI_
 70
     0
 40
0.0
 41
1.0
 50
0.0
 71
     0
 42
0.2
  3
txt
  4

  0
STYLE
  2
MTXPL_TAHOMA
 70
     0
 40
0.0
 41
1.0
 50
0.0
 71
     0
 42
2.5
  3
txt
  4

  0
STYLE
  2
MTXPL_AIGDT
 70
     0
 40
0.0
 41
1.0
 50
0.0
 71
     0
 42
2.5
  3
txt
  4

  0
ENDTAB
  0
TABLE
  2
VIEW
 70
     0
  0
ENDTAB
  0
TABLE
  2
UCS
 70
     0
  0
ENDTAB
  0
TABLE
  2
APPID
 70
    11
  0
APPID
  2
ACAD
 70
     0
  0
APPID
  2
ACADANNOTATIVE
 70
     0
  0
APPID
  2
ACAD_PSEXT
 70
     0
  0
APPID
  2
ACADANNOPO
 70
     0
  0
APPID
  2
ACAD_DSTYLE_DIMJAG
 70
     0
  0
APPID
  2
ACAD_DSTYLE_DIMTALN
 70
     0
  0
APPID
  2
ACAD_MLEADERVER
 70
     0
  0
APPID
  2
ACAD_NAV_VCDISPLAY
 70
     0
  0
APPID
  2
ACAD_DSTYLE_DIMANGULAR_EXT
 70
     0
  0
APPID
  2
ACAD_DSTYLE_DIMRADIAL_EXTENSION
 70
     0
  0
APPID
  2
ACAD_EXEMPT_FROM_CAD_STANDARDS
 70
     0
  0
ENDTAB
  0
TABLE
  2
DIMSTYLE
 70
     7
  0
DIMSTYLE
  2
STANDARD
 70
     0
  3

  4

  5

  6

  7

 40
1.0
 41
0.18
 42
0.0625
 43
0.38
 44
0.18
 45
0.0
 46
0.0
 47
0.0
 48
0.0
140
0.18
141
0.09
142
0.0
143
25.3999999999999986
144
1.0
145
0.0
146
1.0
147
0.09
 71
     0
 72
     0
 73
     1
 74
     1
 75
     0
 76
     0
 77
     0
 78
     0
170
     0
171
     2
172
     0
173
     0
174
     0
175
     0
176
     0
177
     0
178
     0
  0
DIMSTYLE
  2
ANNOTATIVE
 70
     0
  3

  4

  5

  6

  7

 40
0.0
 41
2.5
 42
0.625
 43
3.75
 44
1.25
 45
0.0
 46
0.0
 47
0.0
 48
0.0
140
2.5
141
2.5
142
0.0
143
0.03937007874016
144
1.0
145
0.0
146
1.0
147
0.625
 71
     0
 72
     0
 73
     0
 74
     0
 75
     0
 76
     0
 77
     1
 78
     8
170
     0
171
     3
172
     1
173
     0
174
     0
175
     0
176
     0
177
     0
178
     0
  0
DIMSTYLE
  2
ISO-25
 70
     0
  3

  4

  5

  6

  7

 40
1.0
 41
2.5
 42
0.625
 43
3.75
 44
1.25
 45
0.0
 46
0.0
 47
0.0
 48
0.0
140
2.5
141
2.5
142
0.0
143
0.03937007874016
144
1.0
145
0.0
146
1.0
147
0.625
 71
     0
 72
     0
 73
     0
 74
     0
 75
     0
 76
     0
 77
     1
 78
     8
170
     0
171
     3
172
     1
173
     0
174
     0
175
     0
176
     0
177
     0
178
     0
  0
DIMSTYLE
  2
INTRALOX_HOLE_CALLOUT__MET
 70
     0
  3

  4

  5

  6

  7

 40
2.5
 41
2.5
 42
1.587499999999999
 43
5.9999999999999991
 44
3.174999999999998
 45
0.00000001
 46
10.0
 47
0.0
 48
0.0
140
2.539999961853026
141
0.09
142
0.0
143
0.03937
144
1.0
145
0.0
146
1.200000047683714
147
0.8
 71
     0
 72
     0
 73
     1
 74
     1
 75
     0
 76
     0
 77
     0
 78
     8
170
     1
171
     3
172
     1
173
     0
174
     0
175
     0
176
   256
177
   256
178
   256
  0
DIMSTYLE
  2
INTRALOX_X_X__X_XX__MM-INC
 70
     0
  3

  4

  5

  6

  7

 40
2.5
 41
2.5
 42
1.587499999999999
 43
5.9999999999999991
 44
3.174999999999998
 45
0.00000001
 46
10.0
 47
0.0
 48
0.0
140
2.539999961853026
141
0.09
142
0.0
143
0.03937
144
1.0
145
0.0
146
1.200000047683714
147
0.8
 71
     0
 72
     0
 73
     1
 74
     1
 75
     0
 76
     0
 77
     0
 78
     0
170
     1
171
     2
172
     1
173
     0
174
     0
175
     0
176
   256
177
   256
178
   256
  0
DIMSTYLE
  2
INTRALOX_X_XX__X_XXX__MM-I
 70
     0
  3

  4

  5

  6

  7

 40
2.5
 41
2.5
 42
1.587499999999999
 43
5.9999999999999991
 44
3.174999999999998
 45
0.00000001
 46
17.7800000000000011
 47
0.0
 48
0.0
140
2.539999961853026
141
0.09
142
0.0
143
0.03937
144
1.0
145
0.0
146
1.200000047683714
147
0.8
 71
     0
 72
     0
 73
     1
 74
     1
 75
     0
 76
     0
 77
     0
 78
     8
170
     1
171
     3
172
     1
173
     0
174
     0
175
     0
176
   256
177
   256
178
   256
  0
ENDTAB
  0
ENDSEC
  0
SECTION
  2
BLOCKS
  0
BLOCK
  8
0
  2
$MODEL_SPACE
 70
     0
 10
0.0
 20
0.0
 30
0.0
  3
$MODEL_SPACE
  1

  0
ENDBLK
  5
68A
  8
0
  0
BLOCK
 67
     1
  8
0
  2
$PAPER_SPACE
 70
     0
 10
0.0
 20
0.0
 30
0.0
  3
$PAPER_SPACE
  1

  0
ENDBLK
  5
686
 67
     1
  8
0
  0
BLOCK
  8
0
  2
_CLOSED
 70
     0
 10
0.0
 20
0.0
 30
0.0
  3
_CLOSED
  1

  0
LINE
  5
297
  8
0
  6
BYBLOCK
 62
     0
 10
-1.0
 20
0.1666666666666666
 30
0.0
 11
0.0
 21
0.0
 31
0.0
  0
LINE
  5
298
  8
0
  6
BYBLOCK
 62
     0
 10
0.0
 20
0.0
 30
0.0
 11
-1.0
 21
-0.1666666666666666
 31
0.0
  0
LINE
  5
299
  8
0
  6
BYBLOCK
 62
     0
 10
-1.0
 20
0.1666666666666666
 30
0.0
 11
-1.0
 21
-0.1666666666666666
 31
0.0
  0
LINE
  5
29A
  8
0
  6
BYBLOCK
 62
     0
 10
0.0
 20
0.0
 30
0.0
 11
-1.0
 21
0.0
 31
0.0
  0
ENDBLK
  5
29B
  8
0
  0
BLOCK
  8
0
  2
*D3
 70
     1
 10
0.0
 20
0.0
 30
0.0
  3
*D3
  1

  0
LINE
  5
29E
  8
DIMENSION__ISO_
 10
359.4687235277539799
 20
395.0499354374549057
 30
0.0
 11
359.4687235277539799
 21
471.6359457948477143
 31
0.0
  0
LINE
  5
29F
  8
DIMENSION__ISO_
 10
334.0687235277540026
 20
396.9169354374549243
 30
0.0
 11
334.0687235277540026
 21
471.6359457948477143
 31
0.0
  0
LINE
  5
2A0
  8
DIMENSION__ISO_
 10
340.3187235277540026
 20
463.6984457948476006
 30
0.0
 11
353.2187235277539799
 21
463.6984457948476006
 31
0.0
  0
LINE
  5
2A1
  8
DIMENSION__ISO_
 10
359.4687235277539799
 20
463.6984457948476006
 30
0.0
 11
376.0623164535819001
 21
463.6984457948476006
 31
0.0
  0
SOLID
  5
2A2
  8
DIMENSION__ISO_
 10
340.3187235277540026
 20
464.7401124615142862
 30
0.0
 11
340.3187235277540026
 21
462.6567791281808013
 31
0.0
 12
334.0687235277540026
 22
463.6984457948476006
 32
0.0
 13
334.0687235277540026
 23
463.6984457948476006
 33
0.0
  0
SOLID
  5
2A3
  8
DIMENSION__ISO_
 10
353.2187235277539799
 20
464.7401124615142862
 30
0.0
 11
353.2187235277539799
 21
462.6567791281808013
 31
0.0
 12
359.4687235277539799
 22
463.6984457948476006
 32
0.0
 13
359.4687235277539799
 23
463.6984457948476006
 33
0.0
  0
INSERT
  5
2A4
  8
0
  2
*U4
 10
0.0
 20
0.0
 30
0.0
  0
POINT
  5
2A5
  8
DEFPOINTS
 62
     0
 10
359.4687235277539799
 20
391.0811854374549057
 30
0.0
  0
POINT
  5
2A6
  8
DEFPOINTS
 62
     0
 10
334.0687235277540026
 20
392.9481854374549243
 30
0.0
  0
POINT
  5
2A7
  8
DEFPOINTS
 62
     0
 10
334.0687235277540026
 20
463.6984457948476006
 30
0.0
  0
ENDBLK
  5
2A8
  8
0
  0
BLOCK
  8
0
  2
*U4
 70
     1
 10
0.0
 20
0.0
 30
0.0
  3
*U4
  1

  0
TEXT
  5
544
  8
DIMENSION__ISO_
 10
377.5974742846059939
 20
461.3593087984392014
 30
0.0
 40
6.3499999046325666
  1
25.4 [1.000]
  7
MTXPL_TAHOMA
  0
ENDBLK
  5
547
  8
0
  0
BLOCK
  8
0
  2
*D5
 70
     1
 10
0.0
 20
0.0
 30
0.0
  3
*D5
  1

  0
LINE
  5
2AB
  8
DIMENSION__ISO_
 10
163.1289235277540115
 20
404.2449354374547283
 30
0.0
 11
163.1289235277540115
 21
490.6422546764051162
 31
0.0
  0
LINE
  5
2AC
  8
DIMENSION__ISO_
 10
359.4687235277539799
 20
395.0499354374549057
 30
0.0
 11
359.4687235277539799
 21
490.6422546764051162
 31
0.0
  0
LINE
  5
2AD
  8
DIMENSION__ISO_
 10
169.3789235277540115
 20
482.7047546764051731
 30
0.0
 11
233.7111813641344895
 21
482.7047546764051731
 31
0.0
  0
LINE
  5
2AE
  8
DIMENSION__ISO_
 10
353.2187235277539799
 20
482.7047546764051731
 30
0.0
 11
288.8864656913734734
 21
482.7047546764051731
 31
0.0
  0
SOLID
  5
2AF
  8
DIMENSION__ISO_
 10
169.3789235277540115
 20
483.7464213430719155
 30
0.0
 11
169.3789235277540115
 21
481.6630880097384875
 31
0.0
 12
163.1289235277540115
 22
482.7047546764051731
 32
0.0
 13
163.1289235277540115
 23
482.7047546764051731
 33
0.0
  0
SOLID
  5
2B0
  8
DIMENSION__ISO_
 10
353.2187235277539799
 20
483.7464213430719155
 30
0.0
 11
353.2187235277539799
 21
481.6630880097384875
 31
0.0
 12
359.4687235277539799
 22
482.7047546764051731
 32
0.0
 13
359.4687235277539799
 23
482.7047546764051731
 33
0.0
  0
INSERT
  5
2B1
  8
0
  2
*U6
 10
0.0
 20
0.0
 30
0.0
  0
POINT
  5
2B2
  8
DEFPOINTS
 62
     0
 10
163.1289235277540115
 20
400.2761854374547852
 30
0.0
  0
POINT
  5
2B3
  8
DEFPOINTS
 62
     0
 10
359.4687235277539799
 20
391.0811854374549057
 30
0.0
  0
POINT
  5
2B4
  8
DEFPOINTS
 62
     0
 10
359.4687235277539799
 20
482.7047546764051731
 30
0.0
  0
ENDBLK
  5
2B5
  8
0
  0
BLOCK
  8
0
  2
*U6
 70
     1
 10
0.0
 20
0.0
 30
0.0
  3
*U6
  1

  0
TEXT
  5
549
  8
DIMENSION__ISO_
 10
234.7473801697443037
 20
480.3656176799968875
 30
0.0
 40
6.3499999046325666
  1
196.3 [7.730]
  7
MTXPL_TAHOMA
  0
ENDBLK
  5
54B
  8
0
  0
BLOCK
  8
0
  2
*D7
 70
     1
 10
0.0
 20
0.0
 30
0.0
  3
*D7
  1

  0
LINE
  5
2B8
  8
DIMENSION__ISO_
 10
357.0874735277541276
 20
406.6261854374548079
 30
0.0
 11
385.9058325724665792
 21
406.6261854374549785
 31
0.0
  0
LINE
  5
2B9
  8
DIMENSION__ISO_
 10
360.2624735277541959
 20
394.2561854374550876
 30
0.0
 11
385.9058325724665792
 21
394.2561854374550876
 31
0.0
  0
LINE
  5
2BA
  8
DIMENSION__ISO_
 10
377.9683325724665224
 20
388.0061854374550876
 30
0.0
 11
377.9683325724665792
 21
381.7561854374549739
 31
0.0
  0
LINE
  5
2BB
  8
DIMENSION__ISO_
 10
377.9683325724665224
 20
412.8761854374548079
 30
0.0
 11
377.9683325724665224
 21
425.105257408483908
 31
0.0
  0
LINE
  5
2BC
  8
DIMENSION__ISO_
 10
377.9683325724665224
 20
425.105257408483908
 30
0.0
 11
384.2183325724665792
 21
425.1052574084840217
 31
0.0
  0
LINE
  5
2BD
  8
DIMENSION__ISO_
 10
377.9683325724665224
 20
394.2561854374550876
 30
0.0
 11
377.9683325724665224
 21
406.6261854374548079
 31
0.0
  0
SOLID
  5
2BE
  8
DIMENSION__ISO_
 10
376.9266659057997231
 20
388.0061854374550876
 30
0.0
 11
379.009999239133208
 21
388.0061854374550876
 31
0.0
 12
377.9683325724665224
 22
394.2561854374550876
 32
0.0
 13
377.9683325724665224
 23
394.2561854374550876
 33
0.0
  0
SOLID
  5
2BF
  8
DIMENSION__ISO_
 10
376.9266659057997231
 20
412.8761854374548079
 30
0.0
 11
379.009999239133208
 21
412.8761854374548079
 31
0.0
 12
377.9683325724665224
 22
406.6261854374548079
 32
0.0
 13
377.9683325724665224
 23
406.6261854374548079
 33
0.0
  0
INSERT
  5
2C0
  8
0
  2
*U8
 10
0.0
 20
0.0
 30
0.0
  0
POINT
  5
2C1
  8
DEFPOINTS
 62
     0
 10
353.1187235277541276
 20
406.6261854374548079
 30
0.0
  0
POINT
  5
2C2
  8
DEFPOINTS
 62
     0
 10
356.2937235277540822
 20
394.2561854374550876
 30
0.0
  0
POINT
  5
2C3
  8
DEFPOINTS
 62
     0
 10
377.9683325724665224
 20
394.2561854374550876
 30
0.0
  0
ENDBLK
  5
2C4
  8
0
  0
BLOCK
  8
0
  2
*U8
 70
     1
 10
0.0
 20
0.0
 30
0.0
  3
*U8
  1

  0
TEXT
  5
54D
  8
DIMENSION__ISO_
 10
385.2545313780764786
 20
422.7661204120753951
 30
0.0
 40
6.3499999046325666
  1
12.4 [0.487]
  7
MTXPL_TAHOMA
  0
ENDBLK
  5
54F
  8
0
  0
BLOCK
  8
0
  2
*D9
 70
     1
 10
0.0
 20
0.0
 30
0.0
  3
*D9
  1

  0
LINE
  5
2C7
  8
DIMENSION__ISO_
 10
359.4687235277539799
 20
373.9514354374549043
 30
0.0
 11
359.4687235277539799
 21
325.5326854374549157
 31
0.0
  0
LINE
  5
2C8
  8
DIMENSION__ISO_
 10
259.3187235277540026
 20
390.2874354374548034
 30
0.0
 11
259.3187235277540026
 21
325.5326854374549157
 31
0.0
  0
LINE
  5
2C9
  8
DIMENSION__ISO_
 10
353.2187235277539799
 20
333.4701854374549157
 30
0.0
 11
336.9813656913735258
 21
333.4701854374549157
 31
0.0
  0
LINE
  5
2CA
  8
DIMENSION__ISO_
 10
265.5687235277540026
 20
333.4701854374549157
 30
0.0
 11
281.8060813641345135
 21
333.4701854374549157
 31
0.0
  0
SOLID
  5
2CB
  8
DIMENSION__ISO_
 10
353.2187235277539799
 20
334.5118521041213739
 30
0.0
 11
353.2187235277539799
 21
332.4285187707881732
 31
0.0
 12
359.4687235277539799
 22
333.4701854374549157
 32
0.0
 13
359.4687235277539799
 23
333.4701854374549157
 33
0.0
  0
SOLID
  5
2CC
  8
DIMENSION__ISO_
 10
265.5687235277540026
 20
334.5118521041213739
 30
0.0
 11
265.5687235277540026
 21
332.4285187707881732
 31
0.0
 12
259.3187235277540026
 22
333.4701854374549157
 32
0.0
 13
259.3187235277540026
 23
333.4701854374549157
 33
0.0
  0
INSERT
  5
2CD
  8
0
  2
*U10
 10
0.0
 20
0.0
 30
0.0
  0
POINT
  5
2CE
  8
DEFPOINTS
 62
     0
 10
359.4687235277539799
 20
377.9201854374547906
 30
0.0
  0
POINT
  5
2CF
  8
DEFPOINTS
 62
     0
 10
259.3187235277540026
 20
394.2561854374549171
 30
0.0
  0
POINT
  5
2D0
  8
DEFPOINTS
 62
     0
 10
259.3187235277540026
 20
333.4701854374549157
 30
0.0
  0
ENDBLK
  5
2D1
  8
0
  0
BLOCK
  8
0
  2
*U10
 70
     1
 10
0.0
 20
0.0
 30
0.0
  3
*U10
  1

  0
TEXT
  5
551
  8
DIMENSION__ISO_
 10
282.8422801697442992
 20
331.1310484410465165
 30
0.0
 40
6.3499999046325666
  1
100.2 [3.943]
  7
MTXPL_TAHOMA
  0
ENDBLK
  5
553
  8
0
  0
BLOCK
  8
0
  2
*D11
 70
     1
 10
0.0
 20
0.0
 30
0.0
  3
*D11
  1

  0
ARC
  5
2D4
  8
DIMENSION__ISO_
 10
259.3187235277540026
 20
394.2561854374549171
 30
0.0
 40
35.8101321516917466
 50
195.7321443331910018
 51
272.1187923967011102
  0
ARC
  5
2D5
  8
DIMENSION__ISO_
 10
259.3187235277540026
 20
394.2561854374549171
 30
0.0
 40
35.8101321516917466
 50
306.9644717004138101
 51
349.9873395872365904
  0
SOLID
  5
2D6
  8
DIMENSION__ISO_
 10
223.8265789956614071
 20
384.3527445505729929
 30
0.0
 11
225.8735145087879062
 21
384.7404722680233249
 31
0.0
 12
223.6868635998739876
 22
390.6874149486777128
 32
0.0
 13
223.6868635998739876
 23
390.6874149486777128
 33
0.0
  0
SOLID
  5
2D7
  8
DIMENSION__ISO_
 10
293.5457516260934767
 20
388.1209306749610164
 30
0.0
 11
295.621137173570105
 21
387.9391269150896733
 31
0.0
 12
295.1288556794456781
 22
394.2561854374549171
 32
0.0
 13
295.1288556794456781
 23
394.2561854374549171
 33
0.0
  0
INSERT
  5
2D8
  8
0
  2
*U12
 10
0.0
 20
0.0
 30
0.0
  0
POINT
  5
2D9
  8
DEFPOINTS
 62
     0
 10
259.3187235277540026
 20
394.2561854374549171
 30
0.0
  0
POINT
  5
2DA
  8
DEFPOINTS
 62
     0
 10
255.3697310054772061
 20
393.8606672690958135
 30
0.0
  0
POINT
  5
2DB
  8
DEFPOINTS
 62
     0
 10
356.2937235277539116
 20
394.2561854374549171
 30
0.0
  0
POINT
  5
2DC
  8
DEFPOINTS
 62
     0
 10
243.5156252674601092
 20
362.1216611668651808
 30
0.0
  0
ENDBLK
  5
2DD
  8
0
  0
BLOCK
  8
0
  2
*U12
 70
     1
 10
0.0
 20
0.0
 30
0.0
  3
*U12
  1

  0
TEXT
  5
555
  8
DIMENSION__ISO_
 10
261.6788757621209811
 20
357.2829228424952248
 30
0.0
 40
6.3499999046325666
  1
174°
  7
MTXPL_TAHOMA
  0
ENDBLK
  5
557
  8
0
  0
BLOCK
  8
0
  2
*D13
 70
     1
 10
0.0
 20
0.0
 30
0.0
  3
*D13
  1

  0
LINE
  5
2E0
  8
DIMENSION__ISO_
 10
395.1835048189640247
 20
445.0738203268090274
 30
0.0
 11
387.0149139637541111
 21
445.0738203268090274
 31
0.0
  0
LINE
  5
2E1
  8
DIMENSION__ISO_
 10
387.0149139637541111
 20
445.0738203268090274
 30
0.0
 11
360.9547570445773204
 21
399.2729734934926
 31
0.0
  0
INSERT
  5
2E2
  8
0
  2
*U14
 10
0.0
 20
0.0
 30
0.0
  0
SOLID
  5
2E3
  8
DIMENSION__ISO_
 10
360.049387011858812
 20
399.7881186655553165
 30
0.0
 11
361.8601270772959992
 21
398.7578283214299972
 31
0.0
 12
357.8638860122010215
 22
393.8407532971809246
 32
0.0
 13
357.8638860122010215
 23
393.8407532971809246
 33
0.0
  0
POINT
  5
2E4
  8
DEFPOINTS
 62
     0
 10
357.8638860122010215
 20
393.8407532971809246
 30
0.0
  0
POINT
  5
2E5
  8
DEFPOINTS
 62
     0
 10
356.2937235277539116
 20
391.0811854374546215
 30
0.0
  0
ENDBLK
  5
2E6
  8
0
  0
BLOCK
  8
0
  2
*U14
 70
     1
 10
0.0
 20
0.0
 30
0.0
  3
*U14
  1

  0
TEXT
  5
559
  8
DIMENSION__ISO_
 10
396.539549153685698
 20
442.7346833304007987
 30
0.0
 40
6.3499999046325666
  1
R3.2 [R0.12]
  7
MTXPL_TAHOMA
  0
ENDBLK
  5
55B
  8
0
  0
BLOCK
  8
0
  2
*D15
 70
     1
 10
0.0
 20
0.0
 30
0.0
  3
*D15
  1

  0
LINE
  5
2E9
  8
DIMENSION__ISO_
 10
221.2187235277540083
 20
273.5261854374546147
 30
0.0
 11
193.3426519528096037
 21
330.9809453731494955
 31
0.0
  0
LINE
  5
2EA
  8
DIMENSION__ISO_
 10
181.1490679317570027
 20
356.1128740526195884
 30
0.0
 11
187.3712845216670075
 21
343.2883998622712056
 31
0.0
  0
INSERT
  5
2EB
  8
0
  2
*U16
 10
0.0
 20
0.0
 30
0.0
  0
SOLID
  5
2EC
  8
DIMENSION__ISO_
 10
182.0862511969027935
 20
356.5675794209350897
 30
0.0
 11
180.211884666611013
 21
355.6581686843039734
 31
0.0
 12
178.4208357218633125
 22
361.7359736434945034
 32
0.0
 13
178.4208357218633125
 23
361.7359736434945034
 33
0.0
  0
POINT
  5
2ED
  8
DEFPOINTS
 62
     0
 10
178.4208357218633125
 20
361.7359736434945034
 30
0.0
  0
POINT
  5
2EE
  8
DEFPOINTS
 62
     0
 10
221.2187235277540083
 20
273.5261854374546147
 30
0.0
  0
ENDBLK
  5
2EF
  8
0
  0
BLOCK
  8
0
  2
*U16
 70
     1
 10
0.0
 20
0.0
 30
0.0
  3
*U16
  1

  0
TEXT
  5
55D
  8
DIMENSION__ISO_
 10
163.3129627696455941
 20
334.7955356213020082
 30
0.0
 40
6.3499999046325666
  1
R98.0 [R3.86]
  7
MTXPL_TAHOMA
  0
ENDBLK
  5
55F
  8
0
  0
BLOCK
  8
0
  2
*D17
 70
     1
 10
0.0
 20
0.0
 30
0.0
  3
*D17
  1

  0
LINE
  5
2F2
  8
DIMENSION__ISO_
 10
221.2187235277540083
 20
273.5261854374550126
 30
0.0
 11
186.9596620883411049
 21
295.6857244957807893
 31
0.0
  0
LINE
  5
2F3
  8
DIMENSION__ISO_
 10
137.3181602349617094
 20
327.7949753921990919
 30
0.0
 11
167.9321074810090977
 21
307.9931789849027268
 31
0.0
  0
INSERT
  5
2F4
  8
0
  2
*U18
 10
0.0
 20
0.0
 30
0.0
  0
SOLID
  5
2F5
  8
DIMENSION__ISO_
 10
137.8839014084389873
 20
328.6696218173772763
 30
0.0
 11
136.7524190614844883
 21
326.9203289670209074
 31
0.0
 12
132.0702816838924036
 22
331.1894224330624752
 32
0.0
 13
132.0702816838924036
 23
331.1894224330624752
 33
0.0
  0
POINT
  5
2F6
  8
DEFPOINTS
 62
     0
 10
132.0702816838924036
 20
331.1894224330624752
 30
0.0
  0
POINT
  5
2F7
  8
DEFPOINTS
 62
     0
 10
221.2187235277540083
 20
273.5261854374550126
 30
0.0
  0
ENDBLK
  5
2F8
  8
0
  0
BLOCK
  8
0
  2
*U18
 70
     1
 10
0.0
 20
0.0
 30
0.0
  3
*U18
  1

  0
TEXT
  5
561
  8
DIMENSION__ISO_
 10
148.0179639888382042
 20
299.5003147439334725
 30
0.0
 40
6.3499999046325666
  1
R106.2 [R4.18]
  7
MTXPL_TAHOMA
  0
ENDBLK
  5
563
  8
0
  0
BLOCK
  8
0
  2
*D19
 70
     1
 10
0.0
 20
0.0
 30
0.0
  3
*D19
  1

  0
LINE
  5
2FB
  8
DIMENSION__ISO_
 10
221.2187235277536956
 20
273.5261854374542736
 30
0.0
 11
177.3165974718804137
 21
248.5564778776424077
 31
0.0
  0
LINE
  5
2FC
  8
DIMENSION__ISO_
 10
125.5309175593579027
 20
219.1029320161946998
 30
0.0
 11
155.6774406209615904
 21
236.2490233885206123
 31
0.0
  0
INSERT
  5
2FD
  8
0
  2
*U20
 10
0.0
 20
0.0
 30
0.0
  0
SOLID
  5
2FE
  8
DIMENSION__ISO_
 10
125.0159297413633936
 20
220.0083915634751861
 30
0.0
 11
126.0459053773523976
 21
218.1974724689139862
 31
0.0
 12
120.0981602756742035
 22
216.0130051082271905
 32
0.0
 13
120.0981602756742035
 23
216.0130051082271905
 33
0.0
  0
POINT
  5
2FF
  8
DEFPOINTS
 62
     0
 10
120.0981602756742035
 20
216.0130051082271905
 30
0.0
  0
POINT
  5
300
  8
DEFPOINTS
 62
     0
 10
221.2187235277536956
 20
273.5261854374542736
 30
0.0
  0
ENDBLK
  5
301
  8
0
  0
BLOCK
  8
0
  2
*U20
 70
     1
 10
0.0
 20
0.0
 30
0.0
  3
*U20
  1

  0
TEXT
  5
565
  8
DIMENSION__ISO_
 10
137.0690982505834938
 20
240.0636136366732956
 30
0.0
 40
6.3499999046325666
  1
R116.3 [R4.58]
  7
MTXPL_TAHOMA
  0
ENDBLK
  5
567
  8
0
  0
BLOCK
  8
0
  2
*D21
 70
     1
 10
0.0
 20
0.0
 30
0.0
  3
*D21
  1

  0
LINE
  5
304
  8
DIMENSION__ISO_
 10
221.2187235277540083
 20
273.5261854374551262
 30
0.0
 11
188.2826116881622056
 21
216.2312544684307056
 31
0.0
  0
LINE
  5
305
  8
DIMENSION__ISO_
 10
159.5448466236452987
 20
166.2396746002725934
 30
0.0
 11
181.2076455321935953
 21
203.9237999793087965
 31
0.0
  0
INSERT
  5
306
  8
0
  2
*U22
 10
0.0
 20
0.0
 30
0.0
  0
SOLID
  5
307
  8
DIMENSION__ISO_
 10
158.6417615155883141
 20
166.7588149782532128
 30
0.0
 11
160.447931731702397
 21
165.7205342222918034
 31
0.0
 12
156.4300043557610138
 22
160.8211639519300036
 32
0.0
 13
156.4300043557610138
 23
160.8211639519300036
 33
0.0
  0
POINT
  5
308
  8
DEFPOINTS
 62
     0
 10
156.4300043557610138
 20
160.8211639519300036
 30
0.0
  0
POINT
  5
309
  8
DEFPOINTS
 62
     0
 10
221.2187235277540083
 20
273.5261854374551262
 30
0.0
  0
ENDBLK
  5
30A
  8
0
  0
BLOCK
  8
0
  2
*U22
 70
     1
 10
0.0
 20
0.0
 30
0.0
  3
*U22
  1

  0
TEXT
  5
569
  8
DIMENSION__ISO_
 10
155.3172078143412875
 20
207.7383902274613945
 30
0.0
 40
6.3499999046325666
  1
R130.0 [R5.12]
  7
MTXPL_TAHOMA
  0
ENDBLK
  5
56B
  8
0
  0
BLOCK
  8
0
  2
*D23
 70
     1
 10
0.0
 20
0.0
 30
0.0
  3
*D23
  1

  0
LINE
  5
30D
  8
DIMENSION__ISO_
 10
129.117868723514988
 20
436.3820018905075813
 30
0.0
 11
137.3956634847484111
 21
436.3820018905075813
 31
0.0
  0
LINE
  5
30E
  8
DIMENSION__ISO_
 10
137.3956634847484111
 20
436.3820018905075813
 30
0.0
 11
161.1095129610785932
 21
409.6949415531220211
 31
0.0
  0
INSERT
  5
30F
  8
0
  2
*U24
 10
0.0
 20
0.0
 30
0.0
  0
SOLID
  5
310
  8
DIMENSION__ISO_
 10
161.8881799679957112
 20
410.3868571092295952
 30
0.0
 11
160.3308459541615036
 21
409.0030259970147881
 31
0.0
 12
165.2610062977229859
 22
405.0229395116202227
 32
0.0
 13
165.2610062977229859
 23
405.0229395116202227
 33
0.0
  0
POINT
  5
311
  8
DEFPOINTS
 62
     0
 10
165.2610062977229859
 20
405.0229395116202227
 30
0.0
  0
POINT
  5
312
  8
DEFPOINTS
 62
     0
 10
169.4789235277536932
 20
400.2761854374543873
 30
0.0
  0
ENDBLK
  5
313
  8
0
  0
BLOCK
  8
0
  2
*U24
 70
     1
 10
0.0
 20
0.0
 30
0.0
  3
*U24
  1

  0
TEXT
  5
56D
  8
DIMENSION__ISO_
 10
61.2725031273887311
 20
434.0797016626153209
 30
0.0
 40
6.25
  1
R6.4 [R0.25] TYP
  7
MTXPL_TAHOMA
  0
ENDBLK
  5
56F
  8
0
  0
BLOCK
  8
0
  2
*D25
 70
     1
 10
0.0
 20
0.0
 30
0.0
  3
*D25
  1

  0
LINE
  5
316
  8
DIMENSION__ISO_
 10
334.0687235277540026
 20
396.9169354374549243
 30
0.0
 11
334.0687235277540026
 21
471.6359457948477143
 31
0.0
  0
LINE
  5
317
  8
DIMENSION__ISO_
 10
221.2187235277540083
 20
396.9169354374549243
 30
0.0
 11
221.2187235277540083
 21
471.6359457948477143
 31
0.0
  0
LINE
  5
318
  8
DIMENSION__ISO_
 10
327.8187235277540026
 20
463.6984457948476006
 30
0.0
 11
305.2313656913735258
 21
463.6984457948476006
 31
0.0
  0
LINE
  5
319
  8
DIMENSION__ISO_
 10
227.4687235277540083
 20
463.6984457948476006
 30
0.0
 11
250.0560813641345135
 21
463.6984457948476006
 31
0.0
  0
SOLID
  5
31A
  8
DIMENSION__ISO_
 10
327.8187235277540026
 20
464.7401124615142862
 30
0.0
 11
327.8187235277540026
 21
462.6567791281808013
 31
0.0
 12
334.0687235277540026
 22
463.6984457948476006
 32
0.0
 13
334.0687235277540026
 23
463.6984457948476006
 33
0.0
  0
SOLID
  5
31B
  8
DIMENSION__ISO_
 10
227.4687235277540083
 20
464.7401124615142862
 30
0.0
 11
227.4687235277540083
 21
462.6567791281808013
 31
0.0
 12
221.2187235277540083
 22
463.6984457948476006
 32
0.0
 13
221.2187235277540083
 23
463.6984457948476006
 33
0.0
  0
INSERT
  5
31C
  8
0
  2
*U26
 10
0.0
 20
0.0
 30
0.0
  0
POINT
  5
31D
  8
DEFPOINTS
 62
     0
 10
334.0687235277540026
 20
392.9481854374549243
 30
0.0
  0
POINT
  5
31E
  8
DEFPOINTS
 62
     0
 10
221.2187235277540083
 20
392.9481854374549243
 30
0.0
  0
POINT
  5
31F
  8
DEFPOINTS
 62
     0
 10
221.2187235277540083
 20
463.6984457948476006
 30
0.0
  0
ENDBLK
  5
320
  8
0
  0
BLOCK
  8
0
  2
*U26
 70
     1
 10
0.0
 20
0.0
 30
0.0
  3
*U26
  1

  0
TEXT
  5
571
  8
DIMENSION__ISO_
 10
251.0922801697442992
 20
461.3593087984392014
 30
0.0
 40
6.3499999046325666
  1
112.9 [4.443]
  7
MTXPL_TAHOMA
  0
ENDBLK
  5
573
  8
0
  0
BLOCK
  8
0
  2
2DTRANSSECTION1
 70
     0
 10
0.0
 20
0.0
 30
0.0
  3
2DTRANSSECTION1
  1

  0
LINE
  5
323
  8
SECTION_LINE__ISO_
  6
CHAIN
 10
97.0100111604063784
 20
73.2837374704739801
 30
0.0
 11
108.9458934252467941
 21
73.2837374704739801
 31
0.0
  0
LINE
  5
324
  8
SECTION_LINE__ISO_
  6
CONTINUOUS
 10
97.0100111604063784
 20
73.2837374704739801
 30
0.0
 11
108.9458934252467941
 21
73.2837374704739801
 31
0.0
  0
LINE
  5
325
  8
SECTION_LINE__ISO_
  6
CONTINUOUS
 10
100.0100111604064068
 20
78.2837374704739801
 30
0.0
 11
100.0100111604064068
 21
73.2837374704739801
 31
0.0
  0
POLYLINE
  5
326
  8
SECTION_LINE__ISO_
  6
CONTINUOUS
 66
     1
 10
0.0
 20
0.0
 30
0.0
 70
   128
  0
VERTEX
  5
748
  8
SECTION_LINE__ISO_
  6
CONTINUOUS
 10
99.0100108115532862
 20
78.2837376484926892
 30
0.0
  0
VERTEX
  5
749
  8
SECTION_LINE__ISO_
  6
CONTINUOUS
 10
100.0100108115532009
 20
73.2837357411440422
 30
0.0
  0
VERTEX
  5
74A
  8
SECTION_LINE__ISO_
  6
CONTINUOUS
 10
101.0100108115532009
 20
78.2837376484926892
 30
0.0
  0
VERTEX
  5
74B
  8
SECTION_LINE__ISO_
  6
CONTINUOUS
 10
99.0100108115532862
 20
78.2837376484926892
 30
0.0
  0
SEQEND
  5
74C
  8
SECTION_LINE__ISO_
  6
CONTINUOUS
  0
SOLID
  5
32C
  8
SECTION_LINE__ISO_
 10
99.0100108115532862
 20
78.2837376484926892
 30
0.0
 11
100.0100108115532009
 21
73.2837357411440422
 31
0.0
 12
101.0100108115532009
 22
78.2837376484926892
 32
0.0
 13
99.0100108115532862
 23
78.2837376484926892
 33
0.0
  0
LINE
  5
32D
  8
SECTION_LINE__ISO_
  6
CONTINUOUS
 10
99.0100111604064068
 20
78.2837374704739801
 30
0.0
 11
100.0100111604064068
 21
73.2837374704739801
 31
0.0
  0
LINE
  5
32E
  8
SECTION_LINE__ISO_
  6
CONTINUOUS
 10
100.0100111604064068
 20
73.2837374704739801
 30
0.0
 11
101.0100111604062931
 21
78.2837374704739801
 31
0.0
  0
LINE
  5
32F
  8
SECTION_LINE__ISO_
  6
CONTINUOUS
 10
101.0100111604062931
 20
78.2837374704739801
 30
0.0
 11
99.0100111604064068
 21
78.2837374704739801
 31
0.0
  0
LINE
  5
330
  8
SECTION_LINE__ISO_
  6
CONTINUOUS
 10
100.0100111604064068
 20
83.7240439793845468
 30
0.0
 11
100.0100111604064068
 21
78.2837374704739801
 31
0.0
  0
LINE
  5
331
  8
SECTION_LINE__ISO_
  6
CONTINUOUS
 10
105.9458934252467941
 20
78.2837374704739801
 30
0.0
 11
105.9458934252467941
 21
73.2837374704739801
 31
0.0
  0
POLYLINE
  5
332
  8
SECTION_LINE__ISO_
  6
CONTINUOUS
 66
     1
 10
0.0
 20
0.0
 30
0.0
 70
   128
  0
VERTEX
  5
74D
  8
SECTION_LINE__ISO_
  6
CONTINUOUS
 10
104.9458933799126044
 20
78.2837376484926892
 30
0.0
  0
VERTEX
  5
74E
  8
SECTION_LINE__ISO_
  6
CONTINUOUS
 10
105.9458933799126044
 20
73.2837357411440422
 30
0.0
  0
VERTEX
  5
74F
  8
SECTION_LINE__ISO_
  6
CONTINUOUS
 10
106.9458943335869066
 20
78.2837376484926892
 30
0.0
  0
VERTEX
  5
750
  8
SECTION_LINE__ISO_
  6
CONTINUOUS
 10
104.9458933799126044
 20
78.2837376484926892
 30
0.0
  0
SEQEND
  5
751
  8
SECTION_LINE__ISO_
  6
CONTINUOUS
  0
SOLID
  5
338
  8
SECTION_LINE__ISO_
 10
104.9458933799126044
 20
78.2837376484926892
 30
0.0
 11
105.9458933799126044
 21
73.2837357411440422
 31
0.0
 12
106.9458943335869066
 22
78.2837376484926892
 32
0.0
 13
104.9458933799126044
 23
78.2837376484926892
 33
0.0
  0
LINE
  5
339
  8
SECTION_LINE__ISO_
  6
CONTINUOUS
 10
104.9458934252467941
 20
78.2837374704739801
 30
0.0
 11
105.9458934252467941
 21
73.2837374704739801
 31
0.0
  0
LINE
  5
33A
  8
SECTION_LINE__ISO_
  6
CONTINUOUS
 10
105.9458934252467941
 20
73.2837374704739801
 30
0.0
 11
106.9458934252467941
 21
78.2837374704739801
 31
0.0
  0
LINE
  5
33B
  8
SECTION_LINE__ISO_
  6
CONTINUOUS
 10
106.9458934252467941
 20
78.2837374704739801
 30
0.0
 11
104.9458934252467941
 21
78.2837374704739801
 31
0.0
  0
LINE
  5
33C
  8
SECTION_LINE__ISO_
  6
CONTINUOUS
 10
105.9458934252467941
 20
83.7240439793845468
 30
0.0
 11
105.9458934252467941
 21
78.2837374704739801
 31
0.0
  0
INSERT
  5
33D
  8
0
  2
*U28
 10
0.0
 20
0.0
 30
0.0
  0
INSERT
  5
33E
  8
0
  2
*U29
 10
0.0
 20
0.0
 30
0.0
  0
ENDBLK
  5
33F
  8
0
  0
BLOCK
  8
0
  2
*U28
 70
     1
 10
0.0
 20
0.0
 30
0.0
  3
*U28
  1

  0
TEXT
  5
575
  8
SECTION_LINE__ISO_
 10
98.1510521834121619
 20
86.7837374704739801
 30
0.0
 40
4.5719999074935904
  1
B
  7
MTXPL_TAHOMA
  0
ENDBLK
  5
577
  8
0
  0
BLOCK
  8
0
  2
*U29
 70
     1
 10
0.0
 20
0.0
 30
0.0
  3
*U29
  1

  0
TEXT
  5
579
  8
SECTION_LINE__ISO_
 10
104.086934448252606
 20
86.7837374704739801
 30
0.0
 40
4.5719999074935904
  1
B
  7
MTXPL_TAHOMA
  0
ENDBLK
  5
57B
  8
0
  0
BLOCK
  8
0
  2
*D30
 70
     1
 10
0.0
 20
0.0
 30
0.0
  3
*D30
  1

  0
LINE
  5
463
  8
DIMENSION__ISO_
 10
297.562405759666774
 20
257.7737500000000068
 30
0.0
 11
297.562405759666774
 21
334.3597603573928154
 31
0.0
  0
LINE
  5
464
  8
DIMENSION__ISO_
 10
272.1624057596669104
 20
259.6407500000000255
 30
0.0
 11
272.1624057596669104
 21
334.3597603573928154
 31
0.0
  0
LINE
  5
465
  8
DIMENSION__ISO_
 10
278.4124057596669104
 20
326.4222603573928154
 30
0.0
 11
291.312405759666774
 21
326.4222603573928154
 31
0.0
  0
LINE
  5
466
  8
DIMENSION__ISO_
 10
297.562405759666774
 20
326.4222603573928154
 30
0.0
 11
314.155998533962304
 21
326.4222603573928154
 31
0.0
  0
SOLID
  5
467
  8
DIMENSION__ISO_
 10
278.4124057596669104
 20
327.463927024059501
 30
0.0
 11
278.4124057596669104
 21
325.380593690726073
 31
0.0
 12
272.1624057596669104
 22
326.4222603573928154
 32
0.0
 13
272.1624057596669104
 23
326.4222603573928154
 33
0.0
  0
SOLID
  5
468
  8
DIMENSION__ISO_
 10
291.312405759666774
 20
327.463927024059501
 30
0.0
 11
291.312405759666774
 21
325.380593690726073
 31
0.0
 12
297.562405759666774
 22
326.4222603573928154
 32
0.0
 13
297.562405759666774
 23
326.4222603573928154
 33
0.0
  0
INSERT
  5
469
  8
0
  2
*U31
 10
0.0
 20
0.0
 30
0.0
  0
POINT
  5
46A
  8
DEFPOINTS
 62
     0
 10
297.562405759666774
 20
253.8050000000000068
 30
0.0
  0
POINT
  5
46B
  8
DEFPOINTS
 62
     0
 10
272.1624057596669104
 20
255.671999999999997
 30
0.0
  0
POINT
  5
46C
  8
DEFPOINTS
 62
     0
 10
272.1624057596669104
 20
326.4222603573928154
 30
0.0
  0
ENDBLK
  5
3E0
  8
0
  0
BLOCK
  8
0
  2
*U31
 70
     1
 10
0.0
 20
0.0
 30
0.0
  3
*U31
  1

  0
TEXT
  5
590
  8
DIMENSION__ISO_
 10
315.6911563649865116
 20
324.0831233878218995
 30
0.0
 40
6.3499999046325666
  1
25.4 [1.000]
  7
MTXPL_TAHOMA
  0
ENDBLK
  5
592
  8
0
  0
BLOCK
  8
0
  2
*D32
 70
     1
 10
0.0
 20
0.0
 30
0.0
  3
*D32
  1

  0
LINE
  5
46D
  8
DIMENSION__ISO_
 10
101.2226057596668056
 20
266.96875
 30
0.0
 11
101.2226057596668056
 21
353.3660692389505016
 31
0.0
  0
LINE
  5
46E
  8
DIMENSION__ISO_
 10
297.562405759666774
 20
257.7737500000000068
 30
0.0
 11
297.562405759666774
 21
353.3660692389505016
 31
0.0
  0
LINE
  5
46F
  8
DIMENSION__ISO_
 10
107.4726057596668056
 20
345.4285692389503879
 30
0.0
 11
171.8048634307243105
 21
345.4285692389503879
 31
0.0
  0
LINE
  5
470
  8
DIMENSION__ISO_
 10
291.312405759666774
 20
345.4285692389503879
 30
0.0
 11
226.9801480886092975
 21
345.4285692389503879
 31
0.0
  0
SOLID
  5
471
  8
DIMENSION__ISO_
 10
107.4726057596668056
 20
346.4702359056170735
 30
0.0
 11
107.4726057596668056
 21
344.3869025722837023
 31
0.0
 12
101.2226057596668056
 22
345.4285692389503879
 32
0.0
 13
101.2226057596668056
 23
345.4285692389503879
 33
0.0
  0
SOLID
  5
472
  8
DIMENSION__ISO_
 10
291.312405759666774
 20
346.4702359056170735
 30
0.0
 11
291.312405759666774
 21
344.3869025722837023
 31
0.0
 12
297.562405759666774
 22
345.4285692389503879
 32
0.0
 13
297.562405759666774
 23
345.4285692389503879
 33
0.0
  0
INSERT
  5
473
  8
0
  2
*U33
 10
0.0
 20
0.0
 30
0.0
  0
POINT
  5
474
  8
DEFPOINTS
 62
     0
 10
101.2226057596668056
 20
263.0
 30
0.0
  0
POINT
  5
475
  8
DEFPOINTS
 62
     0
 10
297.562405759666774
 20
253.8050000000000068
 30
0.0
  0
POINT
  5
476
  8
DEFPOINTS
 62
     0
 10
297.562405759666774
 20
345.4285692389503879
 30
0.0
  0
ENDBLK
  5
3ED
  8
0
  0
BLOCK
  8
0
  2
*U33
 70
     1
 10
0.0
 20
0.0
 30
0.0
  3
*U33
  1

  0
TEXT
  5
594
  8
DIMENSION__ISO_
 10
172.841062236334011
 20
343.0894322693795857
 30
0.0
 40
6.3499999046325666
  1
196.3 [7.730]
  7
MTXPL_TAHOMA
  0
ENDBLK
  5
596
  8
0
  0
BLOCK
  8
0
  2
*D34
 70
     1
 10
0.0
 20
0.0
 30
0.0
  3
*D34
  1

  0
LINE
  5
477
  8
DIMENSION__ISO_
 10
295.1811557596668081
 20
269.3500000000000227
 30
0.0
 11
323.9995146544587783
 21
269.3500000000000227
 31
0.0
  0
LINE
  5
478
  8
DIMENSION__ISO_
 10
298.3561557596668763
 20
256.980000000000075
 30
0.0
 11
323.9995146544587783
 21
256.980000000000075
 31
0.0
  0
LINE
  5
479
  8
DIMENSION__ISO_
 10
316.0620146544587783
 20
250.7299999999999898
 30
0.0
 11
316.0620146544587783
 21
244.4799999999999898
 31
0.0
  0
LINE
  5
47A
  8
DIMENSION__ISO_
 10
316.0620146544587783
 20
275.6000000000000227
 30
0.0
 11
316.0620146544587783
 21
287.8290719710290091
 31
0.0
  0
LINE
  5
47B
  8
DIMENSION__ISO_
 10
316.0620146544587783
 20
287.8290719710290091
 30
0.0
 11
322.3120146544587783
 21
287.8290719710290091
 31
0.0
  0
LINE
  5
47C
  8
DIMENSION__ISO_
 10
316.0620146544587783
 20
256.980000000000075
 30
0.0
 11
316.0620146544587783
 21
269.3500000000000227
 31
0.0
  0
SOLID
  5
47D
  8
DIMENSION__ISO_
 10
315.0203479877922064
 20
250.7299999999999898
 30
0.0
 11
317.1036813211255208
 21
250.7299999999999898
 31
0.0
 12
316.0620146544587783
 22
256.980000000000075
 32
0.0
 13
316.0620146544587783
 23
256.980000000000075
 33
0.0
  0
SOLID
  5
47E
  8
DIMENSION__ISO_
 10
315.0203479877922064
 20
275.6000000000000227
 30
0.0
 11
317.1036813211255208
 21
275.6000000000000227
 31
0.0
 12
316.0620146544587783
 22
269.3500000000000227
 32
0.0
 13
316.0620146544587783
 23
269.3500000000000227
 33
0.0
  0
INSERT
  5
47F
  8
0
  2
*U35
 10
0.0
 20
0.0
 30
0.0
  0
POINT
  5
480
  8
DEFPOINTS
 62
     0
 10
291.2124057596669218
 20
269.3500000000000227
 30
0.0
  0
POINT
  5
481
  8
DEFPOINTS
 62
     0
 10
294.3874057596668763
 20
256.980000000000075
 30
0.0
  0
POINT
  5
482
  8
DEFPOINTS
 62
     0
 10
316.0620146544587783
 20
256.980000000000075
 30
0.0
  0
ENDBLK
  5
3FA
  8
0
  0
BLOCK
  8
0
  2
*U35
 70
     1
 10
0.0
 20
0.0
 30
0.0
  3
*U35
  1

  0
TEXT
  5
598
  8
DIMENSION__ISO_
 10
323.3482134600686777
 20
285.4899350014579795
 30
0.0
 40
6.3499999046325666
  1
12.4 [0.487]
  7
MTXPL_TAHOMA
  0
ENDBLK
  5
59A
  8
0
  0
BLOCK
  8
0
  2
*D36
 70
     1
 10
0.0
 20
0.0
 30
0.0
  3
*D36
  1

  0
LINE
  5
483
  8
DIMENSION__ISO_
 10
297.562405759666774
 20
236.6752500000000055
 30
0.0
 11
297.562405759666774
 21
188.2564999999999031
 31
0.0
  0
LINE
  5
484
  8
DIMENSION__ISO_
 10
197.4124057596667967
 20
253.0112499999999898
 30
0.0
 11
197.4124057596667967
 21
188.2564999999999031
 31
0.0
  0
LINE
  5
485
  8
DIMENSION__ISO_
 10
291.312405759666774
 20
196.1939999999999031
 30
0.0
 11
275.0750480886093214
 21
196.1939999999999031
 31
0.0
  0
LINE
  5
486
  8
DIMENSION__ISO_
 10
203.6624057596667967
 20
196.1939999999999031
 30
0.0
 11
219.8997634307243061
 21
196.1939999999999031
 31
0.0
  0
SOLID
  5
487
  8
DIMENSION__ISO_
 10
291.312405759666774
 20
197.2356666666665035
 30
0.0
 11
291.312405759666774
 21
195.1523333333333028
 31
0.0
 12
297.562405759666774
 22
196.1939999999999031
 32
0.0
 13
297.562405759666774
 23
196.1939999999999031
 33
0.0
  0
SOLID
  5
488
  8
DIMENSION__ISO_
 10
203.6624057596667967
 20
197.2356666666665035
 30
0.0
 11
203.6624057596667967
 21
195.1523333333333028
 31
0.0
 12
197.4124057596667967
 22
196.1939999999999031
 32
0.0
 13
197.4124057596667967
 23
196.1939999999999031
 33
0.0
  0
INSERT
  5
489
  8
0
  2
*U37
 10
0.0
 20
0.0
 30
0.0
  0
POINT
  5
48A
  8
DEFPOINTS
 62
     0
 10
297.562405759666774
 20
240.6440000000000055
 30
0.0
  0
POINT
  5
48B
  8
DEFPOINTS
 62
     0
 10
197.4124057596667967
 20
256.9800000000000182
 30
0.0
  0
POINT
  5
48C
  8
DEFPOINTS
 62
     0
 10
197.4124057596667967
 20
196.1939999999999031
 30
0.0
  0
ENDBLK
  5
409
  8
0
  0
BLOCK
  8
0
  2
*U37
 70
     1
 10
0.0
 20
0.0
 30
0.0
  3
*U37
  1

  0
TEXT
  5
59C
  8
DIMENSION__ISO_
 10
220.9359622363340918
 20
193.8548630304291009
 30
0.0
 40
6.3499999046325666
  1
100.2 [3.943]
  7
MTXPL_TAHOMA
  0
ENDBLK
  5
59E
  8
0
  0
BLOCK
  8
0
  2
*D38
 70
     1
 10
0.0
 20
0.0
 30
0.0
  3
*D38
  1

  0
ARC
  5
48D
  8
DIMENSION__ISO_
 10
197.4124057596667967
 20
256.9800000000000182
 30
0.0
 40
35.8101321516917181
 50
195.7321443331908029
 51
272.1187923967009965
  0
ARC
  5
48E
  8
DIMENSION__ISO_
 10
197.4124057596667967
 20
256.9800000000000182
 30
0.0
 40
35.8101321516917181
 50
306.9644717004136965
 51
349.9873395872365904
  0
SOLID
  5
48F
  8
DIMENSION__ISO_
 10
161.9202612275740023
 20
247.076559113118293
 30
0.0
 11
163.9671967407007003
 21
247.4642868305685113
 31
0.0
 12
161.7805458317868101
 22
253.4112295112230129
 32
0.0
 13
161.7805458317868101
 23
253.4112295112230129
 33
0.0
  0
SOLID
  5
490
  8
DIMENSION__ISO_
 10
231.6394338580062993
 20
250.8447452375060891
 30
0.0
 11
233.7148194054828991
 21
250.6629414776348028
 31
0.0
 12
233.2225379113585007
 22
256.9800000000000182
 32
0.0
 13
233.2225379113585007
 23
256.9800000000000182
 33
0.0
  0
INSERT
  5
491
  8
0
  2
*U39
 10
0.0
 20
0.0
 30
0.0
  0
POINT
  5
492
  8
DEFPOINTS
 62
     0
 10
197.4124057596667967
 20
256.9800000000000182
 30
0.0
  0
POINT
  5
493
  8
DEFPOINTS
 62
     0
 10
193.4634132373900002
 20
256.5844818316409146
 30
0.0
  0
POINT
  5
494
  8
DEFPOINTS
 62
     0
 10
294.3874057596667058
 20
256.9800000000000182
 30
0.0
  0
POINT
  5
495
  8
DEFPOINTS
 62
     0
 10
181.6093074993727896
 20
224.8454757294103104
 30
0.0
  0
ENDBLK
  5
416
  8
0
  0
BLOCK
  8
0
  2
*U39
 70
     1
 10
0.0
 20
0.0
 30
0.0
  3
*U39
  1

  0
TEXT
  5
5A0
  8
DIMENSION__ISO_
 10
199.7725579940336047
 20
220.0067374050402975
 30
0.0
 40
6.3499999046325666
  1
174°
  7
MTXPL_TAHOMA
  0
ENDBLK
  5
5A2
  8
0
  0
BLOCK
  8
0
  2
*D40
 70
     1
 10
0.0
 20
0.0
 30
0.0
  3
*D40
  1

  0
LINE
  5
496
  8
DIMENSION__ISO_
 10
333.2771868957074162
 20
307.7976348893541854
 30
0.0
 11
325.1085961956654842
 21
307.797634889354299
 31
0.0
  0
LINE
  5
497
  8
DIMENSION__ISO_
 10
325.1085961956654842
 20
307.797634889354299
 30
0.0
 11
299.0484392764900008
 21
261.9967880560378717
 31
0.0
  0
INSERT
  5
498
  8
0
  2
*U41
 10
0.0
 20
0.0
 30
0.0
  0
SOLID
  5
499
  8
DIMENSION__ISO_
 10
298.1430692437713788
 20
262.5119332281005882
 30
0.0
 11
299.9538093092086228
 21
261.4816428839750984
 31
0.0
 12
295.9575682441138156
 22
256.5645678597260826
 32
0.0
 13
295.9575682441138156
 23
256.5645678597260826
 33
0.0
  0
POINT
  5
49A
  8
DEFPOINTS
 62
     0
 10
295.9575682441138156
 20
256.5645678597260826
 30
0.0
  0
POINT
  5
49B
  8
DEFPOINTS
 62
     0
 10
294.3874057596667058
 20
253.8049999999996942
 30
0.0
  0
ENDBLK
  5
422
  8
0
  0
BLOCK
  8
0
  2
*U41
 70
     1
 10
0.0
 20
0.0
 30
0.0
  3
*U41
  1

  0
TEXT
  5
5A4
  8
DIMENSION__ISO_
 10
334.6332312304289189
 20
305.4584979197833832
 30
0.0
 40
6.3499999046325666
  1
R3.2 [R0.12]
  7
MTXPL_TAHOMA
  0
ENDBLK
  5
5A6
  8
0
  0
BLOCK
  8
0
  2
*D42
 70
     1
 10
0.0
 20
0.0
 30
0.0
  3
*D42
  1

  0
LINE
  5
49C
  8
DIMENSION__ISO_
 10
159.3124057596668024
 20
136.2499999999996874
 30
0.0
 11
131.4363341977434914
 21
193.7047599088571133
 31
0.0
  0
LINE
  5
49D
  8
DIMENSION__ISO_
 10
119.2427501636697968
 20
218.8366886151646042
 30
0.0
 11
125.4649667405586939
 21
206.0122144516537901
 31
0.0
  0
INSERT
  5
49E
  8
0
  2
*U43
 10
0.0
 20
0.0
 30
0.0
  0
SOLID
  5
49F
  8
DIMENSION__ISO_
 10
120.1799334288156018
 20
219.2913939834803045
 30
0.0
 11
118.3055668985240061
 21
218.3819832468491029
 31
0.0
 12
116.5145179537761067
 22
224.4597882060396046
 32
0.0
 13
116.5145179537761067
 23
224.4597882060396046
 33
0.0
  0
POINT
  5
4A0
  8
DEFPOINTS
 62
     0
 10
116.5145179537761067
 20
224.4597882060396046
 30
0.0
  0
POINT
  5
4A1
  8
DEFPOINTS
 62
     0
 10
159.3124057596668024
 20
136.2499999999996874
 30
0.0
  0
ENDBLK
  5
42B
  8
0
  0
BLOCK
  8
0
  2
*U43
 70
     1
 10
0.0
 20
0.0
 30
0.0
  3
*U43
  1

  0
TEXT
  5
5A8
  8
DIMENSION__ISO_
 10
101.4066448309863944
 20
197.5193502106845074
 30
0.0
 40
6.3499999046325666
  1
R98.0 [R3.86]
  7
MTXPL_TAHOMA
  0
ENDBLK
  5
5AA
  8
0
  0
BLOCK
  8
0
  2
*D44
 70
     1
 10
0.0
 20
0.0
 30
0.0
  3
*D44
  1

  0
LINE
  5
4A2
  8
DIMENSION__ISO_
 10
159.3124057596668024
 20
136.2500000000001137
 30
0.0
 11
125.0533443617450047
 21
158.4095390314884924
 31
0.0
  0
LINE
  5
4A3
  8
DIMENSION__ISO_
 10
75.4118424668745888
 20
190.5187899547441077
 30
0.0
 11
106.0257896714307009
 21
170.7169935742853113
 31
0.0
  0
INSERT
  5
4A4
  8
0
  2
*U45
 10
0.0
 20
0.0
 30
0.0
  0
SOLID
  5
4A5
  8
DIMENSION__ISO_
 10
75.9775836403518525
 20
191.3934363799224911
 30
0.0
 11
74.8461012933973677
 21
189.6441435295660085
 31
0.0
 12
70.1639639158052546
 22
193.9132369956076047
 32
0.0
 13
70.1639639158052546
 23
193.9132369956076047
 33
0.0
  0
POINT
  5
4A6
  8
DEFPOINTS
 62
     0
 10
70.1639639158052546
 20
193.9132369956076047
 30
0.0
  0
POINT
  5
4A7
  8
DEFPOINTS
 62
     0
 10
159.3124057596668024
 20
136.2500000000001137
 30
0.0
  0
ENDBLK
  5
434
  8
0
  0
BLOCK
  8
0
  2
*U45
 70
     1
 10
0.0
 20
0.0
 30
0.0
  3
*U45
  1

  0
TEXT
  5
5AC
  8
DIMENSION__ISO_
 10
86.1116460347765269
 20
162.2241293333161138
 30
0.0
 40
6.3499999046325666
  1
R106.2 [R4.18]
  7
MTXPL_TAHOMA
  0
ENDBLK
  5
5AE
  8
0
  0
BLOCK
  8
0
  2
*D46
 70
     1
 10
0.0
 20
0.0
 30
0.0
  3
*D46
  1

  0
LINE
  5
4A8
  8
DIMENSION__ISO_
 10
159.3124057596664045
 20
136.2499999999994031
 30
0.0
 11
115.4102797509791998
 21
111.2802924670247933
 31
0.0
  0
LINE
  5
4A9
  8
DIMENSION__ISO_
 10
63.6245997912706969
 20
81.8267465787397725
 30
0.0
 11
93.7711228056882788
 21
98.9728379242281449
 31
0.0
  0
INSERT
  5
4AA
  8
0
  2
*U47
 10
0.0
 20
0.0
 30
0.0
  0
SOLID
  5
4AB
  8
DIMENSION__ISO_
 10
63.1096119732761807
 20
82.7322061260202872
 30
0.0
 11
64.1395876092653197
 21
80.9212870314590731
 31
0.0
 12
58.1918425075869905
 22
78.7368196707722205
 32
0.0
 13
58.1918425075869905
 23
78.7368196707722205
 33
0.0
  0
POINT
  5
4AC
  8
DEFPOINTS
 62
     0
 10
58.1918425075869905
 20
78.7368196707722205
 30
0.0
  0
POINT
  5
4AD
  8
DEFPOINTS
 62
     0
 10
159.3124057596664045
 20
136.2499999999994031
 30
0.0
  0
ENDBLK
  5
43D
  8
0
  0
BLOCK
  8
0
  2
*U47
 70
     1
 10
0.0
 20
0.0
 30
0.0
  3
*U47
  1

  0
TEXT
  5
5B0
  8
DIMENSION__ISO_
 10
75.1627802965217029
 20
102.7874282260555958
 30
0.0
 40
6.3499999046325666
  1
R116.3 [R4.58]
  7
MTXPL_TAHOMA
  0
ENDBLK
  5
5B2
  8
0
  0
BLOCK
  8
0
  2
*D48
 70
     1
 10
0.0
 20
0.0
 30
0.0
  3
*D48
  1

  0
LINE
  5
4AE
  8
DIMENSION__ISO_
 10
159.3124057596668024
 20
136.250000000000199
 30
0.0
 11
126.3762939355025026
 21
78.9550690578131764
 31
0.0
  0
LINE
  5
4AF
  8
DIMENSION__ISO_
 10
97.6385288555580075
 20
28.9634891628177016
 30
0.0
 11
119.3013277486788013
 21
66.6476145150164996
 31
0.0
  0
INSERT
  5
4B0
  8
0
  2
*U49
 10
0.0
 20
0.0
 30
0.0
  0
SOLID
  5
4B1
  8
DIMENSION__ISO_
 10
96.7354437475009945
 20
29.4826295407983707
 30
0.0
 11
98.5416139636152053
 21
28.4443487848369401
 31
0.0
 12
94.5236865876737937
 22
23.5449785144751083
 32
0.0
 13
94.5236865876737937
 23
23.5449785144751083
 33
0.0
  0
POINT
  5
4B2
  8
DEFPOINTS
 62
     0
 10
94.5236865876737937
 20
23.5449785144751083
 30
0.0
  0
POINT
  5
4B3
  8
DEFPOINTS
 62
     0
 10
159.3124057596668024
 20
136.250000000000199
 30
0.0
  0
ENDBLK
  5
446
  8
0
  0
BLOCK
  8
0
  2
*U49
 70
     1
 10
0.0
 20
0.0
 30
0.0
  3
*U49
  1

  0
TEXT
  5
5B4
  8
DIMENSION__ISO_
 10
93.4108898602794255
 20
70.4622048168439932
 30
0.0
 40
6.3499999046325666
  1
R130.0 [R5.12]
  7
MTXPL_TAHOMA
  0
ENDBLK
  5
5B6
  8
0
  0
BLOCK
  8
0
  2
*D50
 70
     1
 10
0.0
 20
0.0
 30
0.0
  3
*D50
  1

  0
LINE
  5
4B4
  8
DIMENSION__ISO_
 10
67.2115511660954041
 20
299.1058164530527961
 30
0.0
 11
75.4893457166616315
 21
299.1058164530527961
 31
0.0
  0
LINE
  5
4B5
  8
DIMENSION__ISO_
 10
75.4893457166616315
 20
299.1058164530527961
 30
0.0
 11
99.2031951929915436
 21
272.4187561156671791
 31
0.0
  0
INSERT
  5
4B6
  8
0
  2
*U51
 10
0.0
 20
0.0
 30
0.0
  0
SOLID
  5
4B7
  8
DIMENSION__ISO_
 10
99.9818621999085622
 20
273.1106716717746963
 30
0.0
 11
98.4245281860745962
 21
271.7268405595600029
 31
0.0
 12
103.3546885296357942
 22
267.7467540741654943
 32
0.0
 13
103.3546885296357942
 23
267.7467540741654943
 33
0.0
  0
POINT
  5
4B8
  8
DEFPOINTS
 62
     0
 10
103.3546885296357942
 20
267.7467540741654943
 30
0.0
  0
POINT
  5
4B9
  8
DEFPOINTS
 62
     0
 10
107.572605759666601
 20
262.9999999999994884
 30
0.0
  0
ENDBLK
  5
44F
  8
0
  0
BLOCK
  8
0
  2
*U51
 70
     1
 10
0.0
 20
0.0
 30
0.0
  3
*U51
  1

  0
TEXT
  5
5B8
  8
DIMENSION__ISO_
 10
-0.6338148513660135
 20
296.8035162515752177
 30
0.0
 40
6.25
  1
R6.4 [R0.25] TYP
  7
MTXPL_TAHOMA
  0
ENDBLK
  5
5BA
  8
0
  0
BLOCK
  8
0
  2
*D52
 70
     1
 10
0.0
 20
0.0
 30
0.0
  3
*D52
  1

  0
LINE
  5
4BA
  8
DIMENSION__ISO_
 10
272.1624057596669104
 20
259.6407500000000255
 30
0.0
 11
272.1624057596669104
 21
334.3597603573928154
 31
0.0
  0
LINE
  5
4BB
  8
DIMENSION__ISO_
 10
159.3124057596668024
 20
259.6407500000000255
 30
0.0
 11
159.3124057596668024
 21
334.3597603573928154
 31
0.0
  0
LINE
  5
4BC
  8
DIMENSION__ISO_
 10
265.9124057596669104
 20
326.4222603573928154
 30
0.0
 11
243.325048088609293
 21
326.4222603573928154
 31
0.0
  0
LINE
  5
4BD
  8
DIMENSION__ISO_
 10
165.5624057596668024
 20
326.4222603573928154
 30
0.0
 11
188.1497634307243061
 21
326.4222603573928154
 31
0.0
  0
SOLID
  5
4BE
  8
DIMENSION__ISO_
 10
265.9124057596669104
 20
327.463927024059501
 30
0.0
 11
265.9124057596669104
 21
325.380593690726073
 31
0.0
 12
272.1624057596669104
 22
326.4222603573928154
 32
0.0
 13
272.1624057596669104
 23
326.4222603573928154
 33
0.0
  0
SOLID
  5
4BF
  8
DIMENSION__ISO_
 10
165.5624057596668024
 20
327.463927024059501
 30
0.0
 11
165.5624057596668024
 21
325.380593690726073
 31
0.0
 12
159.3124057596668024
 22
326.4222603573928154
 32
0.0
 13
159.3124057596668024
 23
326.4222603573928154
 33
0.0
  0
INSERT
  5
4C0
  8
0
  2
*U53
 10
0.0
 20
0.0
 30
0.0
  0
POINT
  5
4C1
  8
DEFPOINTS
 62
     0
 10
272.1624057596669104
 20
255.671999999999997
 30
0.0
  0
POINT
  5
4C2
  8
DEFPOINTS
 62
     0
 10
159.3124057596668024
 20
255.671999999999997
 30
0.0
  0
POINT
  5
4C3
  8
DEFPOINTS
 62
     0
 10
159.3124057596668024
 20
326.4222603573928154
 30
0.0
  0
ENDBLK
  5
458
  8
0
  0
BLOCK
  8
0
  2
*U53
 70
     1
 10
0.0
 20
0.0
 30
0.0
  3
*U53
  1

  0
TEXT
  5
5BC
  8
DIMENSION__ISO_
 10
189.1859622363340918
 20
324.0831233878218995
 30
0.0
 40
6.3499999046325666
  1
112.9 [4.443]
  7
MTXPL_TAHOMA
  0
ENDBLK
  5
5BE
  8
0
  0
BLOCK
  8
0
  2
*U54
 70
     1
 10
0.0
 20
0.0
 30
0.0
  3
*U54
  1

  0
TEXT
  5
57E
  8
SYMBOL__ISO_
 10
211.5702054290835861
 20
126.0342851591887978
 30
0.0
 40
6.3500002026557931
  1
4X  
  7
MTXPL_TAHOMA
  0
TEXT
  5
57F
  8
SYMBOL__ISO_
 10
226.8673516526741025
 20
126.0342851591887978
 30
0.0
 40
6.3499999999999979
  1
n
  7
MTXPL_AIGDT
  0
TEXT
  5
581
  8
SYMBOL__ISO_
 10
234.1811164358541077
 20
126.0342851591887978
 30
0.0
 40
6.3499999999999979
  1
6.4 THRU
  7
MTXPL_TAHOMA
  0
TEXT
  5
582
  8
SYMBOL__ISO_
 10
211.2860262501629052
 20
114.9217840475621983
 30
0.0
 40
6.3499999999999979
  1
n
  7
MTXPL_AIGDT
  0
TEXT
  5
583
  8
SYMBOL__ISO_
 10
218.5997910333429104
 20
114.9217840475621983
 30
0.0
 40
6.3499999999999979
  1
14 C'SINK X 90°
  7
MTXPL_TAHOMA
  0
ENDBLK
  5
585
  8
0
  0
BLOCK
  8
0
  2
*U55
 70
     1
 10
0.0
 20
0.0
 30
0.0
  3
*U55
  1

  0
SOLID
  5
587
  8
SYMBOL__ISO_
 10
165.5636641950316061
 20
41.7961820242558204
 30
0.0
 11
162.0624251516919969
 21
36.5151883103949118
 31
0.0
 12
163.6616533125178989
 22
42.6462598916167366
 32
0.0
 13
163.6616533125178989
 23
42.6462598916167366
 33
0.0
  0
POLYLINE
  5
588
  8
SYMBOL__ISO_
 66
     1
 10
0.0
 20
0.0
 30
0.0
  0
VERTEX
  5
77E
  8
SYMBOL__ISO_
 10
164.6126587537746957
 20
42.221220957936282
 30
0.0
  0
VERTEX
  5
77F
  8
SYMBOL__ISO_
 10
203.4907897192825033
 20
129.2092852605167081
 30
0.0
  0
VERTEX
  5
780
  8
SYMBOL__ISO_
 10
209.7407897192825033
 20
129.2092852605167081
 30
0.0
  0
SEQEND
  5
781
  8
SYMBOL__ISO_
  0
ENDBLK
  5
58E
  8
0
  0
ENDSEC
  0
SECTION
  2
ENTITIES
  0
CIRCLE
  5
4E7
  8
VISIBLE__ISO_
 10
23.8280000000000385
 20
130.0
 30
0.0
 40
3.174999999999998
  0
CIRCLE
  5
4E8
  8
VISIBLE__ISO_
 10
130.0
 20
236.171999999999997
 30
0.0
 40
3.174999999999998
  0
CIRCLE
  5
4E9
  8
VISIBLE__ISO_
 10
130.0
 20
23.8279999999999994
 30
0.0
 40
3.174999999999998
  0
CIRCLE
  5
4EA
  8
VISIBLE__ISO_
 10
242.850000000000108
 20
236.171999999999997
 30
0.0
 40
3.174999999999998
  0
LINE
  5
4EB
  8
VISIBLE__ISO_
 10
158.5749999999999034
 20
36.212499174996637
 30
0.0
 11
158.5749999999999034
 21
17.2320808075275202
 31
0.0
  0
POLYLINE
  5
4EC
  8
VISIBLE__ISO_
 66
     1
 10
0.0
 20
0.0
 30
0.0
 70
     1
  0
VERTEX
  5
752
  8
VISIBLE__ISO_
 10
164.9250000000000114
 20
19.0343359457529999
 30
0.0
  0
VERTEX
  5
753
  8
VISIBLE__ISO_
 10
177.1973432805336017
 20
22.4058559846234893
 30
0.0
  0
VERTEX
  5
754
  8
VISIBLE__ISO_
 10
179.1062994511540865
 20
9.1625330530368956
 30
0.0
  0
VERTEX
  5
755
  8
VISIBLE__ISO_
 10
164.9250000000000114
 20
4.9965128192655923
 30
0.0
 42
-0.0660751222755329
  0
VERTEX
  5
756
  8
VISIBLE__ISO_
 10
163.3805095026283141
 20
4.3586788299926411
 30
0.0
 42
-0.8899903815968565
  0
VERTEX
  5
757
  8
VISIBLE__ISO_
 10
68.5612467913457095
 20
244.5656126600214861
 30
0.0
 42
0.27636818812389
  0
VERTEX
  5
758
  8
VISIBLE__ISO_
 10
71.9102000000000601
 20
250.1617022014918064
 30
0.0
  0
VERTEX
  5
759
  8
VISIBLE__ISO_
 10
71.9101999999999606
 20
256.75
 30
0.0
 42
-0.4142135623730951
  0
VERTEX
  5
75A
  8
VISIBLE__ISO_
 10
78.2601999999999407
 20
263.1000000000000227
 30
0.0
  0
VERTEX
  5
75B
  8
VISIBLE__ISO_
 10
261.8999999999999773
 20
263.1000000000000227
 30
0.0
  0
VERTEX
  5
75C
  8
VISIBLE__ISO_
 10
276.4415275104640273
 20
263.0573044907250733
 30
0.0
  0
VERTEX
  5
75D
  8
VISIBLE__ISO_
 10
276.4415275104640273
 20
243.4794648825009062
 30
0.0
  0
VERTEX
  5
75E
  8
VISIBLE__ISO_
 10
269.131310953302318
 20
243.4794648825009062
 30
0.0
  0
VERTEX
  5
75F
  8
VISIBLE__ISO_
 10
268.25
 20
247.5550000000000068
 30
0.0
 42
0.4142135623730951
  0
VERTEX
  5
760
  8
VISIBLE__ISO_
 10
265.0749999999999886
 20
250.7299999999999898
 30
0.0
  0
VERTEX
  5
761
  8
VISIBLE__ISO_
 10
168.0999999999999943
 20
250.7299999999999898
 30
0.0
  0
VERTEX
  5
762
  8
VISIBLE__ISO_
 10
118.4065714490621986
 20
245.7528688129769137
 30
0.0
 42
1.0770680880130481
  0
VERTEX
  5
763
  8
VISIBLE__ISO_
 10
158.5750000000001876
 20
17.2320808075275593
 30
0.0
 42
0.0141881286525119
  0
SEQEND
  5
764
  8
VISIBLE__ISO_
  0
POLYLINE
  5
4ED
  8
VISIBLE__ISO_
 66
     1
 10
0.0
 20
0.0
 30
0.0
 70
     1
  0
VERTEX
  5
765
  8
VISIBLE__ISO_
 10
68.1037295882572806
 20
50.189862937616958
 30
0.0
 42
-1.07481568013796
  0
VERTEX
  5
766
  8
VISIBLE__ISO_
 10
50.1898629376149472
 20
68.1037295882598528
 30
0.0
 42
0.389534269575245
  0
VERTEX
  5
767
  8
VISIBLE__ISO_
 10
50.6809507337498601
 20
72.3708896520327869
 30
0.0
 42
-0.3249217386957444
  0
VERTEX
  5
768
  8
VISIBLE__ISO_
 10
50.6809507337519705
 20
187.6291103479701121
 30
0.0
 42
0.3895342695752729
  0
VERTEX
  5
769
  8
VISIBLE__ISO_
 10
50.1898629376171215
 20
191.8962704117436999
 30
0.0
 42
-1.0748156801380551
  0
VERTEX
  5
76A
  8
VISIBLE__ISO_
 10
68.103729588260066
 20
209.8101370623857918
 30
0.0
 42
0.3895342695752701
  0
VERTEX
  5
76B
  8
VISIBLE__ISO_
 10
72.3708896520334406
 20
209.3190492662506017
 30
0.0
 42
-0.1583853872085063
  0
VERTEX
  5
76C
  8
VISIBLE__ISO_
 10
130.0
 20
228.0440000000000111
 30
0.0
  0
VERTEX
  5
76D
  8
VISIBLE__ISO_
 10
261.8999999999999773
 20
228.0440000000000111
 30
0.0
 42
0.4142135623730951
  0
VERTEX
  5
76E
  8
VISIBLE__ISO_
 10
268.25
 20
234.3940000000000055
 30
0.0
  0
VERTEX
  5
76F
  8
VISIBLE__ISO_
 10
268.25
 20
247.5550000000000068
 30
0.0
  0
VERTEX
  5
770
  8
VISIBLE__ISO_
 10
268.25
 20
256.7499999999998863
 30
0.0
 42
0.414213562373093
  0
VERTEX
  5
771
  8
VISIBLE__ISO_
 10
261.8999999999999773
 20
263.1000000000000227
 30
0.0
  0
VERTEX
  5
772
  8
VISIBLE__ISO_
 10
78.2601999999998839
 20
263.0999999999997954
 30
0.0
 42
0.4142135623730898
  0
VERTEX
  5
773
  8
VISIBLE__ISO_
 10
71.9101999999999606
 20
256.75
 30
0.0
  0
VERTEX
  5
774
  8
VISIBLE__ISO_
 10
71.9101999999999748
 20
250.1617022014918064
 30
0.0
 42
-0.2763681881198893
  0
VERTEX
  5
775
  8
VISIBLE__ISO_
 10
68.5612467913457095
 20
244.5656126600214009
 30
0.0
 42
0.8899903815968569
  0
VERTEX
  5
776
  8
VISIBLE__ISO_
 10
163.3805095026283141
 20
4.3586788299926411
 30
0.0
 42
0.0660751222755242
  0
VERTEX
  5
777
  8
VISIBLE__ISO_
 10
164.9250000000000114
 20
4.9965128192655746
 30
0.0
 42
0.267949192431124
  0
VERTEX
  5
778
  8
VISIBLE__ISO_
 10
168.0999999999999943
 20
10.4957741332967807
 30
0.0
  0
VERTEX
  5
779
  8
VISIBLE__ISO_
 10
168.0999999999999943
 20
30.551295956156391
 30
0.0
 42
0.5079117798187353
  0
VERTEX
  5
77A
  8
VISIBLE__ISO_
 10
159.8187347931873035
 20
36.6004871996992023
 30
0.0
 42
-0.0033221350202679
  0
VERTEX
  5
77B
  8
VISIBLE__ISO_
 10
158.5749999999997044
 20
36.212499174996573
 30
0.0
 42
-0.235215669873603
  0
VERTEX
  5
77C
  8
VISIBLE__ISO_
 10
72.3708896520303426
 20
50.6809507337515299
 30
0.0
 42
0.3895342695752468
  0
SEQEND
  5
77D
  8
VISIBLE__ISO_
  0
ARC
  5
72A
  8
0
 10
58.5000000000013713
 20
201.5000000000019895
 30
0.0
 40
20.6499999999999986
 50
30.6036510674764912
 51
239.3963489325209082
  0
ARC
  5
72B
  8
0
 10
58.4999999999996732
 20
58.5000000000019895
 30
0.0
 40
20.6499999999999986
 50
120.6036510674812945
 51
329.3963489325165028
  0
ENDSEC
  0
EOF
