  0
SECTION
  2
HEADER
  9
$ACADVER
  1
AC1009
  9
$INSBASE
 10
0.0
 20
0.0
 30
0.0
  9
$EXTMIN
 10
-1.151023964237968
 20
-204.9307187053458961
 30
0.0
  9
$EXTMAX
 10
404.01046116680061
 20
223.1147658891964056
 30
0.0
  9
$LIMMIN
 10
0.0
 20
0.0
  9
$LIMMAX
 10
420.0
 20
297.0
  9
$ORTHOMODE
 70
     0
  9
$REGENMODE
 70
     1
  9
$FILLMODE
 70
     1
  9
$QTEXTMODE
 70
     0
  9
$MIRRTEXT
 70
     0
  9
$DRAGMODE
 70
     2
  9
$LTSCALE
 40
1.0
  9
$OSMODE
 70
     7
  9
$ATTMODE
 70
     1
  9
$TEXTSIZE
 40
2.5
  9
$TRACEWID
 40
1.0
  9
$TEXTSTYLE
  7
STANDARD
  9
$CLAYER
  8
0
  9
$CELTYPE
  6
BYLAYER
  9
$CECOLOR
 62
   256
  9
$DIMSCALE
 40
1.0
  9
$DIMASZ
 40
2.5
  9
$DIMEXO
 40
0.625
  9
$DIMDLI
 40
3.75
  9
$DIMRND
 40
0.0
  9
$DIMDLE
 40
0.0
  9
$DIMEXE
 40
1.25
  9
$DIMTP
 40
0.0
  9
$DIMTM
 40
0.0
  9
$DIMTXT
 40
2.5
  9
$DIMCEN
 40
2.5
  9
$DIMTSZ
 40
0.0
  9
$DIMTOL
 70
     0
  9
$DIMLIM
 70
     0
  9
$DIMTIH
 70
     0
  9
$DIMTOH
 70
     0
  9
$DIMSE1
 70
     0
  9
$DIMSE2
 70
     0
  9
$DIMTAD
 70
     1
  9
$DIMZIN
 70
     8
  9
$DIMBLK
  1

  9
$DIMASO
 70
     1
  9
$DIMSHO
 70
     1
  9
$DIMPOST
  1

  9
$DIMAPOST
  1

  9
$DIMALT
 70
     0
  9
$DIMALTD
 70
     3
  9
$DIMALTF
 40
0.03937007874016
  9
$DIMLFAC
 40
1.0
  9
$DIMTOFL
 70
     1
  9
$DIMTVP
 40
0.0
  9
$DIMTIX
 70
     0
  9
$DIMSOXD
 70
     0
  9
$DIMSAH
 70
     0
  9
$DIMBLK1
  1

  9
$DIMBLK2
  1

  9
$DIMSTYLE
  2
ISO-25
  9
$DIMCLRD
 70
     0
  9
$DIMCLRE
 70
     0
  9
$DIMCLRT
 70
     0
  9
$DIMTFAC
 40
1.0
  9
$DIMGAP
 40
0.625
  9
$LUNITS
 70
     2
  9
$LUPREC
 70
     4
  9
$SKETCHINC
 40
1.0
  9
$FILLETRAD
 40
0.0
  9
$AUNITS
 70
     0
  9
$AUPREC
 70
     0
  9
$MENU
  1
.
  9
$ELEVATION
 40
0.0
  9
$PELEVATION
 40
0.0
  9
$THICKNESS
 40
0.0
  9
$LIMCHECK
 70
     0
  9
$BLIPMODE
 70
     0
  9
$CHAMFERA
 40
0.0
  9
$CHAMFERB
 40
0.0
  9
$SKPOLY
 70
     0
  9
$TDCREATE
 40
2460816.7063888888806105
  9
$TDUPDATE
 40
2460816.7148148152045906
  9
$TDINDWG
 40
0.0084259259
  9
$TDUSRTIMER
 40
0.0084259259
  9
$USRTIMER
 70
     1
  9
$ANGBASE
 50
0.0
  9
$ANGDIR
 70
     0
  9
$PDMODE
 70
     0
  9
$PDSIZE
 40
0.0
  9
$PLINEWID
 40
0.0
  9
$COORDS
 70
     1
  9
$SPLFRAME
 70
     0
  9
$SPLINETYPE
 70
     6
  9
$SPLINESEGS
 70
     8
  9
$ATTDIA
 70
     1
  9
$ATTREQ
 70
     1
  9
$HANDLING
 70
     1
  9
$HANDSEED
  5
70F
  9
$SURFTAB1
 70
     6
  9
$SURFTAB2
 70
     6
  9
$SURFTYPE
 70
     6
  9
$SURFU
 70
     6
  9
$SURFV
 70
     6
  9
$UCSNAME
  2

  9
$UCSORG
 10
0.0
 20
0.0
 30
0.0
  9
$UCSXDIR
 10
1.0
 20
0.0
 30
0.0
  9
$UCSYDIR
 10
0.0
 20
1.0
 30
0.0
  9
$PUCSNAME
  2

  9
$PUCSORG
 10
0.0
 20
0.0
 30
0.0
  9
$PUCSXDIR
 10
1.0
 20
0.0
 30
0.0
  9
$PUCSYDIR
 10
0.0
 20
1.0
 30
0.0
  9
$USERI1
 70
     0
  9
$USERI2
 70
     0
  9
$USERI3
 70
     0
  9
$USERI4
 70
     0
  9
$USERI5
 70
     0
  9
$USERR1
 40
0.0
  9
$USERR2
 40
0.0
  9
$USERR3
 40
0.0
  9
$USERR4
 40
0.0
  9
$USERR5
 40
0.0
  9
$WORLDVIEW
 70
     1
  9
$SHADEDGE
 70
     3
  9
$SHADEDIF
 70
    70
  9
$TILEMODE
 70
     1
  9
$MAXACTVP
 70
    64
  9
$PLIMCHECK
 70
     0
  9
$PEXTMIN
 10
0.0
 20
0.0
 30
0.0
  9
$PEXTMAX
 10
0.0
 20
0.0
 30
0.0
  9
$PLIMMIN
 10
0.0
 20
0.0
  9
$PLIMMAX
 10
12.0
 20
9.0
  9
$UNITMODE
 70
     0
  9
$VISRETAIN
 70
     1
  9
$PLINEGEN
 70
     0
  9
$PSLTSCALE
 70
     1
  0
ENDSEC
  0
SECTION
  2
TABLES
  0
TABLE
  2
VPORT
 70
     1
  0
VPORT
  2
*ACTIVE
 70
     0
 10
0.0
 20
0.0
 11
1.0
 21
1.0
 12
108.3254518645789943
 22
45.595154809814197
 13
0.0
 23
0.0
 14
10.0
 24
10.0
 15
10.0
 25
10.0
 16
0.0
 26
0.0
 36
1.0
 17
0.0
 27
0.0
 37
0.0
 40
279.3601267315763153
 41
2.057173678532902
 42
50.0
 43
0.0
 44
0.0
 50
0.0
 51
0.0
 71
     0
 72
  1000
 73
     1
 74
     3
 75
     0
 76
     1
 77
     0
 78
     0
  0
ENDTAB
  0
TABLE
  2
LTYPE
 70
     2
  0
LTYPE
  2
CONTINUOUS
 70
     0
  3
Solid line
 72
    65
 73
     0
 40
0.0
  0
ENDTAB
  0
TABLE
  2
LAYER
 70
     3
  0
LAYER
  2
0
 70
     0
 62
     7
  6
CONTINUOUS
  0
LAYER
  2
SLD-0
 70
     0
 62
     7
  6
CONTINUOUS
  0
LAYER
  2
DEFPOINTS
 70
     0
 62
     7
  6
CONTINUOUS
  0
ENDTAB
  0
TABLE
  2
STYLE
 70
     4
  0
STYLE
  2
STANDARD
 70
     0
 40
0.0
 41
1.0
 50
0.0
 71
     0
 42
2.5
  3
txt
  4

  0
STYLE
  2
ANNOTATIVE
 70
     0
 40
0.0
 41
1.0
 50
0.0
 71
     0
 42
2.5
  3
txt
  4

  0
STYLE
  2
SLDTEXTSTYLE1
 70
     0
 40
0.0
 41
0.913
 50
0.0
 71
     0
 42
3.5
  3
txt
  4

  0
STYLE
  2
MtXpl_GDT
 70
     0
 40
0.0
 41
1.0
 50
0.0
 71
     0
 42
2.5
  3
txt
  4

  0
ENDTAB
  0
TABLE
  2
VIEW
 70
     0
  0
ENDTAB
  0
TABLE
  2
UCS
 70
     0
  0
ENDTAB
  0
TABLE
  2
APPID
 70
     9
  0
APPID
  2
ACAD
 70
     0
  0
APPID
  2
ACAD_PSEXT
 70
     0
  0
APPID
  2
ACADANNOPO
 70
     0
  0
APPID
  2
ACADANNOTATIVE
 70
     0
  0
APPID
  2
ACAD_DSTYLE_DIMJAG
 70
     0
  0
APPID
  2
ACAD_DSTYLE_DIMTALN
 70
     0
  0
APPID
  2
ACAD_MLEADERVER
 70
     0
  0
APPID
  2
ACAD_NAV_VCDISPLAY
 70
     0
  0
APPID
  2
ACAD_EXEMPT_FROM_CAD_STANDARDS
 70
     0
  0
ENDTAB
  0
TABLE
  2
DIMSTYLE
 70
     8
  0
DIMSTYLE
  2
STANDARD
 70
     0
  3

  4

  5

  6

  7

 40
1.0
 41
0.18
 42
0.0625
 43
0.38
 44
0.18
 45
0.0
 46
0.0
 47
0.0
 48
0.0
140
0.18
141
0.09
142
0.0
143
25.3999999999999986
144
1.0
145
0.0
146
1.0
147
0.09
 71
     0
 72
     0
 73
     1
 74
     1
 75
     0
 76
     0
 77
     0
 78
     0
170
     0
171
     2
172
     0
173
     0
174
     0
175
     0
176
     0
177
     0
178
     0
  0
DIMSTYLE
  2
ANNOTATIVE
 70
     0
  3

  4

  5

  6

  7

 40
0.0
 41
2.5
 42
0.625
 43
3.75
 44
1.25
 45
0.0
 46
0.0
 47
0.0
 48
0.0
140
2.5
141
2.5
142
0.0
143
0.03937007874016
144
1.0
145
0.0
146
1.0
147
0.625
 71
     0
 72
     0
 73
     0
 74
     0
 75
     0
 76
     0
 77
     1
 78
     8
170
     0
171
     3
172
     1
173
     0
174
     0
175
     0
176
     0
177
     0
178
     0
  0
DIMSTYLE
  2
ISO-25
 70
     0
  3

  4

  5

  6

  7

 40
1.0
 41
2.5
 42
0.625
 43
3.75
 44
1.25
 45
0.0
 46
0.0
 47
0.0
 48
0.0
140
2.5
141
2.5
142
0.0
143
0.03937007874016
144
1.0
145
0.0
146
1.0
147
0.625
 71
     0
 72
     0
 73
     0
 74
     0
 75
     0
 76
     0
 77
     1
 78
     8
170
     0
171
     3
172
     1
173
     0
174
     0
175
     0
176
     0
177
     0
178
     0
  0
DIMSTYLE
  2
SLDDIMSTYLE0
 70
     0
  3

  4

  5

  6

  7

 40
1.0
 41
4.0
 42
0.0625
 43
0.38
 44
0.0
 45
0.000000001
 46
0.0
 47
0.0
 48
0.0
140
3.1749999999999989
141
0.09
142
0.0
143
25.3999999999999986
144
1.0
145
0.0
146
1.0
147
0.79375
 71
     0
 72
     0
 73
     0
 74
     0
 75
     0
 76
     0
 77
     1
 78
    12
170
     0
171
     2
172
     0
173
     1
174
     0
175
     0
176
     0
177
     0
178
     0
  0
DIMSTYLE
  2
SLDDIMSTYLE1
 70
     0
  3

  4

  5

  6

  7

 40
1.0
 41
4.0
 42
0.0625
 43
0.38
 44
0.0
 45
0.000000001
 46
0.0
 47
0.0
 48
0.0
140
3.1749999999999989
141
0.09
142
0.0
143
25.3999999999999986
144
1.0
145
0.0
146
1.0
147
0.79375
 71
     0
 72
     0
 73
     0
 74
     0
 75
     0
 76
     0
 77
     1
 78
    12
170
     0
171
     2
172
     1
173
     1
174
     0
175
     0
176
     0
177
     0
178
     0
  0
DIMSTYLE
  2
SLDDIMSTYLE2
 70
     0
  3

  4

  5

  6

  7

 40
1.0
 41
4.0
 42
0.0625
 43
0.38
 44
0.0
 45
0.000000001
 46
0.0
 47
0.0
 48
0.0
140
3.1749999999999989
141
0.0
142
0.0
143
25.3999999999999986
144
1.0
145
0.0
146
1.0
147
0.79375
 71
     0
 72
     0
 73
     0
 74
     0
 75
     0
 76
     0
 77
     1
 78
    12
170
     0
171
     2
172
     0
173
     1
174
     0
175
     0
176
     0
177
     0
178
     0
  0
DIMSTYLE
  2
SLDDIMSTYLE3
 70
     0
  3

  4

  5

  6
NONE
  7

 40
1.0
 41
4.0
 42
0.0625
 43
0.38
 44
0.0
 45
0.000000001
 46
0.0
 47
0.0
 48
0.0
140
3.1749999999999989
141
0.0
142
0.0
143
25.3999999999999986
144
1.0
145
0.0
146
1.0
147
0.79375
 71
     0
 72
     0
 73
     1
 74
     1
 75
     0
 76
     0
 77
     0
 78
    12
170
     0
171
     2
172
     1
173
     1
174
     0
175
     0
176
     0
177
     0
178
     0
  0
ENDTAB
  0
ENDSEC
  0
SECTION
  2
BLOCKS
  0
BLOCK
  8
0
  2
$MODEL_SPACE
 70
     0
 10
0.0
 20
0.0
 30
0.0
  3
$MODEL_SPACE
  1

  0
ENDBLK
  5
21
  8
0
  0
BLOCK
 67
     1
  8
0
  2
$PAPER_SPACE
 70
     0
 10
0.0
 20
0.0
 30
0.0
  3
$PAPER_SPACE
  1

  0
ENDBLK
  5
D5
 67
     1
  8
0
  0
BLOCK
  8
0
  2
_D
 70
     0
 10
0.0
 20
0.0
 30
0.0
  3
_D
  1

  0
SOLID
  5
297
  8
SLD-0
 10
317.0385236212990776
 20
110.7890212078652041
 30
0.0
 11
313.0385236212990776
 21
111.1390212078651984
 31
0.0
 12
313.0385236212990776
 22
110.4390212078651956
 32
0.0
 13
313.0385236212990776
 23
110.4390212078651956
 33
0.0
  0
SOLID
  5
298
  8
SLD-0
 10
211.8837235697129131
 20
110.7890212078652041
 30
0.0
 11
215.8837235697129131
 21
110.4390212078651956
 31
0.0
 12
215.8837235697129131
 22
111.1390212078651984
 32
0.0
 13
215.8837235697129131
 23
111.1390212078651984
 33
0.0
  0
LINE
  5
299
  8
SLD-0
 10
317.0385236212990776
 20
168.8390462078652092
 30
0.0
 11
317.0385236212990776
 21
109.7890212078652041
 31
0.0
  0
LINE
  5
29A
  8
SLD-0
 10
211.8837235697129131
 20
126.7838462594514937
 30
0.0
 11
211.8837235697129131
 21
109.7890212078652041
 31
0.0
  0
LINE
  5
29B
  8
SLD-0
 10
317.0385236212990776
 20
110.7890212078652041
 30
0.0
 11
211.8837235697129131
 21
110.7890212078652041
 31
0.0
  0
INSERT
  5
29C
  8
0
  2
*U44
 10
0.0
 20
0.0
 30
0.0
  0
ENDBLK
  5
29D
  8
0
  0
BLOCK
  8
0
  2
_D_1
 70
     0
 10
0.0
 20
0.0
 30
0.0
  3
_D_1
  1

  0
SOLID
  5
2A0
  8
SLD-0
 10
187.8837235697129131
 20
126.7890462078651979
 30
0.0
 11
188.2337235697129074
 21
130.7890462078651979
 31
0.0
 12
187.5337235697128904
 22
130.7890462078651979
 32
0.0
 13
187.5337235697128904
 23
130.7890462078651979
 33
0.0
  0
SOLID
  5
2A1
  8
SLD-0
 10
187.8837235697129131
 20
221.9490462078651944
 30
0.0
 11
187.5337235697128904
 21
217.9490462078651944
 31
0.0
 12
188.2337235697129074
 22
217.9490462078651944
 32
0.0
 13
188.2337235697129074
 23
217.9490462078651944
 33
0.0
  0
LINE
  5
2A2
  8
SLD-0
 10
235.7785236212992004
 20
126.7890462078651979
 30
0.0
 11
186.8837235697127994
 21
126.7890462078651979
 31
0.0
  0
LINE
  5
2A3
  8
SLD-0
 10
306.0385236212990776
 20
221.9490462078651944
 30
0.0
 11
186.8837235697127994
 21
221.9490462078651944
 31
0.0
  0
LINE
  5
2A4
  8
SLD-0
 10
187.8837235697129131
 20
126.7890462078651979
 30
0.0
 11
187.8837235697129131
 21
221.9490462078651944
 31
0.0
  0
INSERT
  5
2A5
  8
0
  2
*U45
 10
0.0
 20
0.0
 30
0.0
  0
ENDBLK
  5
2A6
  8
0
  0
BLOCK
  8
0
  2
_D_2
 70
     0
 10
0.0
 20
0.0
 30
0.0
  3
_D_2
  1

  0
SOLID
  5
2A9
  8
SLD-0
 10
203.8837235697129984
 20
221.9490462078651944
 30
0.0
 11
203.5337235697130041
 21
217.9490462078651944
 31
0.0
 12
204.2337235697129927
 22
217.9490462078651944
 32
0.0
 13
204.2337235697129927
 23
217.9490462078651944
 33
0.0
  0
SOLID
  5
2AA
  8
SLD-0
 10
203.8837235697129984
 20
177.8282713195378903
 30
0.0
 11
204.2337235697129927
 21
181.8282713195378903
 31
0.0
 12
203.5337235697130041
 22
181.8282713195378903
 32
0.0
 13
203.5337235697130041
 23
181.8282713195378903
 33
0.0
  0
LINE
  5
2AB
  8
SLD-0
 10
306.0385236212990776
 20
221.9490462078651944
 30
0.0
 11
202.8837235697129984
 21
221.9490462078651944
 31
0.0
  0
LINE
  5
2AC
  8
SLD-0
 10
306.0385236212990776
 20
177.8282713195378903
 30
0.0
 11
202.8837235697129984
 21
177.8282713195378903
 31
0.0
  0
LINE
  5
2AD
  8
SLD-0
 10
203.8837235697129984
 20
221.9490462078651944
 30
0.0
 11
203.8837235697129984
 21
177.8282713195378903
 31
0.0
  0
INSERT
  5
2AE
  8
0
  2
*U46
 10
0.0
 20
0.0
 30
0.0
  0
ENDBLK
  5
2AF
  8
0
  0
BLOCK
  8
0
  2
_D_3
 70
     0
 10
0.0
 20
0.0
 30
0.0
  3
_D_3
  1

  0
SOLID
  5
2B2
  8
SLD-0
 10
203.8837235697127994
 20
177.8282713195378903
 30
0.0
 11
203.5337235697128904
 21
173.8282713195378903
 31
0.0
 12
204.2337235697127937
 22
173.8282713195378903
 32
0.0
 13
204.2337235697127937
 23
173.8282713195378903
 33
0.0
  0
SOLID
  5
2B3
  8
SLD-0
 10
203.8837235697127994
 20
166.8390462078652092
 30
0.0
 11
204.2337235697127937
 21
170.8390462078652092
 31
0.0
 12
203.5337235697128904
 22
170.8390462078652092
 32
0.0
 13
203.5337235697128904
 23
170.8390462078652092
 33
0.0
  0
LINE
  5
2B4
  8
SLD-0
 10
306.0385236212990776
 20
177.8282713195378903
 30
0.0
 11
202.8837235697129131
 21
177.8282713195378903
 31
0.0
  0
LINE
  5
2B5
  8
SLD-0
 10
275.9885236212991231
 20
166.8390462078652092
 30
0.0
 11
202.8837235697129131
 21
166.8390462078652092
 31
0.0
  0
LINE
  5
2B6
  8
SLD-0
 10
203.8837235697127994
 20
177.8282713195378903
 30
0.0
 11
203.8837235697127994
 21
166.8390462078652092
 31
0.0
  0
LINE
  5
2B7
  8
SLD-0
 10
203.8837235697127994
 20
166.8390462078652092
 30
0.0
 11
203.8837235697127994
 21
149.1150649689635088
 31
0.0
  0
INSERT
  5
2B8
  8
0
  2
*U47
 10
0.0
 20
0.0
 30
0.0
  0
ENDBLK
  5
2B9
  8
0
  0
BLOCK
  8
0
  2
_D_4
 70
     0
 10
0.0
 20
0.0
 30
0.0
  3
_D_4
  1

  0
SOLID
  5
2BC
  8
SLD-0
 10
195.8837235697127994
 20
166.8390462078652092
 30
0.0
 11
195.5337235697128051
 21
162.8390462078652092
 31
0.0
 12
196.2337235697127937
 22
162.8390462078652092
 32
0.0
 13
196.2337235697127937
 23
162.8390462078652092
 33
0.0
  0
SOLID
  5
2BD
  8
SLD-0
 10
195.8837235697127994
 20
136.7890462078651979
 30
0.0
 11
196.2337235697127937
 21
140.7890462078651979
 31
0.0
 12
195.5337235697128051
 22
140.7890462078651979
 32
0.0
 13
195.5337235697128051
 23
140.7890462078651979
 33
0.0
  0
LINE
  5
2BE
  8
SLD-0
 10
275.9885236212991231
 20
166.8390462078652092
 30
0.0
 11
194.8837235697127994
 21
166.8390462078652092
 31
0.0
  0
LINE
  5
2BF
  8
SLD-0
 10
255.9885236212990947
 20
136.7890462078651979
 30
0.0
 11
194.8837235697127994
 21
136.7890462078651979
 31
0.0
  0
LINE
  5
2C0
  8
SLD-0
 10
195.8837235697127994
 20
166.8390462078652092
 30
0.0
 11
195.8837235697127994
 21
136.7890462078651979
 31
0.0
  0
INSERT
  5
2C1
  8
0
  2
*U48
 10
0.0
 20
0.0
 30
0.0
  0
ENDBLK
  5
2C2
  8
0
  0
BLOCK
  8
0
  2
_D_5
 70
     0
 10
0.0
 20
0.0
 30
0.0
  3
_D_5
  1

  0
SOLID
  5
2C5
  8
SLD-0
 10
307.0385236212990776
 20
118.7890212078651047
 30
0.0
 11
303.0385236212990776
 21
119.139021207865099
 31
0.0
 12
303.0385236212990776
 22
118.4390212078650961
 32
0.0
 13
303.0385236212990776
 23
118.4390212078650961
 33
0.0
  0
SOLID
  5
2C6
  8
SLD-0
 10
317.0385236212990776
 20
118.7890212078651047
 30
0.0
 11
321.0385236212990776
 21
118.4390212078650961
 31
0.0
 12
321.0385236212990776
 22
119.139021207865099
 32
0.0
 13
321.0385236212990776
 23
119.139021207865099
 33
0.0
  0
LINE
  5
2C7
  8
SLD-0
 10
307.0385236212990776
 20
176.8282713195378903
 30
0.0
 11
307.0385236212990776
 21
117.7890212078651047
 31
0.0
  0
LINE
  5
2C8
  8
SLD-0
 10
317.0385236212990776
 20
168.8390462078652092
 30
0.0
 11
317.0385236212990776
 21
117.7890212078651047
 31
0.0
  0
LINE
  5
2C9
  8
SLD-0
 10
307.0385236212990776
 20
118.7890212078651047
 30
0.0
 11
301.0385236212990776
 21
118.7890212078651047
 31
0.0
  0
LINE
  5
2CA
  8
SLD-0
 10
307.0385236212990776
 20
118.7890212078651047
 30
0.0
 11
317.0385236212990776
 21
118.7890212078651047
 31
0.0
  0
LINE
  5
2CB
  8
SLD-0
 10
317.0385236212990776
 20
118.7890212078651047
 30
0.0
 11
323.0385236212990776
 21
118.7890212078651047
 31
0.0
  0
INSERT
  5
2CC
  8
0
  2
*U49
 10
0.0
 20
0.0
 30
0.0
  0
ENDBLK
  5
2CD
  8
0
  0
BLOCK
  8
0
  2
_D_6
 70
     0
 10
0.0
 20
0.0
 30
0.0
  3
_D_6
  1

  0
SOLID
  5
2D0
  8
SLD-0
 10
266.9885236212991799
 20
118.7890212078651047
 30
0.0
 11
270.9885236212991799
 21
118.4390212078650961
 31
0.0
 12
270.9885236212991799
 22
119.139021207865099
 32
0.0
 13
270.9885236212991799
 23
119.139021207865099
 33
0.0
  0
SOLID
  5
2D1
  8
SLD-0
 10
307.0385236212990776
 20
118.7890212078651047
 30
0.0
 11
303.0385236212990776
 21
119.139021207865099
 31
0.0
 12
303.0385236212990776
 22
118.4390212078650961
 32
0.0
 13
303.0385236212990776
 23
118.4390212078650961
 33
0.0
  0
LINE
  5
2D2
  8
SLD-0
 10
266.9885236212991799
 20
128.7890462078651979
 30
0.0
 11
266.9885236212991799
 21
117.7890212078651047
 31
0.0
  0
LINE
  5
2D3
  8
SLD-0
 10
307.0385236212990776
 20
176.8282713195378903
 30
0.0
 11
307.0385236212990776
 21
117.7890212078651047
 31
0.0
  0
LINE
  5
2D4
  8
SLD-0
 10
266.9885236212991799
 20
118.7890212078651047
 30
0.0
 11
307.0385236212990776
 21
118.7890212078651047
 31
0.0
  0
INSERT
  5
2D5
  8
0
  2
*U50
 10
0.0
 20
0.0
 30
0.0
  0
ENDBLK
  5
2D6
  8
0
  0
BLOCK
  8
0
  2
_D_7
 70
     0
 10
0.0
 20
0.0
 30
0.0
  3
_D_7
  1

  0
SOLID
  5
2D9
  8
SLD-0
 10
256.9885236212991231
 20
118.7890212078651047
 30
0.0
 11
252.9885236212990947
 21
119.139021207865099
 31
0.0
 12
252.9885236212990947
 22
118.4390212078650961
 32
0.0
 13
252.9885236212990947
 23
118.4390212078650961
 33
0.0
  0
SOLID
  5
2DA
  8
SLD-0
 10
266.9885236212991799
 20
118.7890212078651047
 30
0.0
 11
270.9885236212991799
 21
118.4390212078650961
 31
0.0
 12
270.9885236212991799
 22
119.139021207865099
 32
0.0
 13
270.9885236212991799
 23
119.139021207865099
 33
0.0
  0
LINE
  5
2DB
  8
SLD-0
 10
256.9885236212991231
 20
135.7890462078651979
 30
0.0
 11
256.9885236212991231
 21
117.7890212078651047
 31
0.0
  0
LINE
  5
2DC
  8
SLD-0
 10
266.9885236212991799
 20
128.7890462078651979
 30
0.0
 11
266.9885236212991799
 21
117.7890212078651047
 31
0.0
  0
LINE
  5
2DD
  8
SLD-0
 10
256.9885236212991231
 20
118.7890212078651047
 30
0.0
 11
250.9885236212990947
 21
118.7890212078651047
 31
0.0
  0
LINE
  5
2DE
  8
SLD-0
 10
256.9885236212991231
 20
118.7890212078651047
 30
0.0
 11
266.9885236212991799
 21
118.7890212078651047
 31
0.0
  0
LINE
  5
2DF
  8
SLD-0
 10
266.9885236212991799
 20
118.7890212078651047
 30
0.0
 11
272.9885236212991799
 21
118.7890212078651047
 31
0.0
  0
INSERT
  5
2E0
  8
0
  2
*U51
 10
0.0
 20
0.0
 30
0.0
  0
ENDBLK
  5
2E1
  8
0
  0
BLOCK
  8
0
  2
_D_8
 70
     0
 10
0.0
 20
0.0
 30
0.0
  3
_D_8
  1

  0
SOLID
  5
2E4
  8
SLD-0
 10
236.8916057209773953
 20
191.0917328475811985
 30
0.0
 11
234.1795236352544975
 21
194.0526635729277984
 31
0.0
 12
233.7065110181065108
 22
193.5366606039258102
 32
0.0
 13
233.7065110181065108
 23
193.5366606039258102
 33
0.0
  0
LINE
  5
2E5
  8
SLD-0
 10
236.8916057209773953
 20
191.0917328475811985
 30
0.0
 11
222.301818789531012
 21
204.4659839946685906
 31
0.0
  0
LINE
  5
2E6
  8
SLD-0
 10
236.8916057209773953
 20
191.0917328475811985
 30
0.0
 11
307.0385236212990776
 21
126.7890462078651979
 31
0.0
  0
INSERT
  5
2E7
  8
0
  2
*U52
 10
0.0
 20
0.0
 30
0.0
  0
ENDBLK
  5
2E8
  8
0
  0
BLOCK
  8
0
  2
_D_9
 70
     0
 10
0.0
 20
0.0
 30
0.0
  3
_D_9
  1

  0
SOLID
  5
2EB
  8
SLD-0
 10
266.9885236212991231
 20
156.8390462078650955
 30
0.0
 11
262.9885236212991231
 21
157.1890462078650899
 31
0.0
 12
262.9885236212991231
 22
156.4890462078651012
 32
0.0
 13
262.9885236212991231
 23
156.4890462078651012
 33
0.0
  0
LINE
  5
2EC
  8
SLD-0
 10
266.9885236212991231
 20
156.8390462078650955
 30
0.0
 11
255.7284958797874026
 21
156.8390462078650955
 31
0.0
  0
LINE
  5
2ED
  8
SLD-0
 10
266.9885236212991231
 20
156.8390462078650955
 30
0.0
 11
276.9885236212991231
 21
156.8390462078652092
 31
0.0
  0
INSERT
  5
2EE
  8
0
  2
*U53
 10
0.0
 20
0.0
 30
0.0
  0
ENDBLK
  5
2EF
  8
0
  0
BLOCK
  8
0
  2
_NONE
 70
     0
 10
0.0
 20
0.0
 30
0.0
  3
_NONE
  1

  0
ENDBLK
  5
2F2
  8
0
  0
BLOCK
  8
0
  2
_D_10
 70
     0
 10
0.0
 20
0.0
 30
0.0
  3
_D_10
  1

  0
SOLID
  5
2F5
  8
SLD-0
 10
314.5296433640344844
 20
182.1532713195377937
 30
0.0
 11
318.1687449791724021
 21
183.8501624282131957
 31
0.0
 12
317.8187449791723225
 22
184.4563802108623065
 32
0.0
 13
317.8187449791723225
 23
184.4563802108623065
 33
0.0
  0
LINE
  5
2F6
  8
SLD-0
 10
314.5296433640344844
 20
182.1532713195377937
 30
0.0
 11
323.9044871085530986
 21
187.5658398790461945
 31
0.0
  0
LINE
  5
2F7
  8
SLD-0
 10
299.5474038785637276
 20
173.5032713195379017
 30
0.0
 11
314.5296433640344844
 21
182.1532713195377937
 31
0.0
  0
LINE
  5
2F8
  8
SLD-0
 10
323.9044871085530986
 20
187.5658398790461945
 30
0.0
 11
361.8933595114596073
 21
187.5658398790461945
 31
0.0
  0
INSERT
  5
2F9
  8
0
  2
*U54
 10
0.0
 20
0.0
 30
0.0
  0
INSERT
  5
2FA
  8
0
  2
*U55
 10
0.0
 20
0.0
 30
0.0
  0
INSERT
  5
2FB
  8
0
  2
*U56
 10
0.0
 20
0.0
 30
0.0
  0
INSERT
  5
2FC
  8
SLD-0
  2
SW_SYMBOL_HOLE_SINK
 10
325.4960998290425778
 20
188.0061226165099981
 30
0.0
 41
0.00405556640625
 42
0.00405556640625
 43
0.00405556640625
  0
INSERT
  5
2FD
  8
0
  2
*U57
 10
0.0
 20
0.0
 30
0.0
  0
INSERT
  5
2FE
  8
0
  2
*U58
 10
0.0
 20
0.0
 30
0.0
  0
ENDBLK
  5
2FF
  8
0
  0
BLOCK
  8
0
  2
SW_SYMBOL_HOLE_SINK
 70
     0
 10
0.0
 20
0.0
 30
0.0
  3
SW_SYMBOL_HOLE_SINK
  1

  0
LINE
  5
302
  8
SLD-0
 62
     0
 10
0.0
 20
875.0
 30
0.0
 11
800.0
 21
75.0
 31
0.0
  0
LINE
  5
303
  8
SLD-0
 62
     0
 10
800.0
 20
75.0
 30
0.0
 11
1600.0
 21
875.0
 31
0.0
  0
ENDBLK
  5
304
  8
0
  0
BLOCK
  8
0
  2
SW_CENTERMARKSYMBOL_0
 70
     0
 10
0.0
 20
0.0
 30
0.0
  3
SW_CENTERMARKSYMBOL_0
  1

  0
LINE
  5
307
  8
SLD-0
 62
     0
 10
0.0
 20
0.0
 30
0.0
 11
0.0
 21
2.5000000000000022
 31
0.0
  0
LINE
  5
308
  8
SLD-0
 62
     0
 10
0.0
 20
0.0
 30
0.0
 11
-2.5000000000000022
 21
0.0
 31
0.0
  0
LINE
  5
309
  8
SLD-0
 62
     0
 10
0.0
 20
0.0
 30
0.0
 11
0.0
 21
-2.5000000000000022
 31
0.0
  0
LINE
  5
30A
  8
SLD-0
 62
     0
 10
0.0
 20
0.0
 30
0.0
 11
2.5000000000000022
 21
0.0
 31
0.0
  0
LINE
  5
30B
  8
SLD-0
 62
     0
 10
0.0
 20
4.999999999999976
 30
0.0
 11
0.0
 21
6.9999999999999778
 31
0.0
  0
LINE
  5
30C
  8
SLD-0
 62
     0
 10
-5.0000000000000044
 20
0.0
 30
0.0
 11
-7.0000000000000062
 21
0.0
 31
0.0
  0
LINE
  5
30D
  8
SLD-0
 62
     0
 10
0.0
 20
-5.0000000000000044
 30
0.0
 11
0.0
 21
-7.0000000000000062
 31
0.0
  0
LINE
  5
30E
  8
SLD-0
 62
     0
 10
5.0000000000000044
 20
0.0
 30
0.0
 11
7.0000000000000062
 21
0.0
 31
0.0
  0
ENDBLK
  5
30F
  8
0
  0
BLOCK
  8
0
  2
SW_CENTERMARKSYMBOL_1
 70
     0
 10
0.0
 20
0.0
 30
0.0
  3
SW_CENTERMARKSYMBOL_1
  1

  0
LINE
  5
312
  8
SLD-0
 62
     0
 10
0.0
 20
0.0
 30
0.0
 11
0.0
 21
2.5000000000000022
 31
0.0
  0
LINE
  5
313
  8
SLD-0
 62
     0
 10
0.0
 20
0.0
 30
0.0
 11
-2.5000000000000022
 21
0.0
 31
0.0
  0
LINE
  5
314
  8
SLD-0
 62
     0
 10
0.0
 20
0.0
 30
0.0
 11
0.0
 21
-2.5000000000000022
 31
0.0
  0
LINE
  5
315
  8
SLD-0
 62
     0
 10
0.0
 20
0.0
 30
0.0
 11
2.5000000000000022
 21
0.0
 31
0.0
  0
LINE
  5
316
  8
SLD-0
 62
     0
 10
0.0
 20
5.0000000000000044
 30
0.0
 11
0.0
 21
6.9999999999999778
 31
0.0
  0
LINE
  5
317
  8
SLD-0
 62
     0
 10
-5.0000000000000044
 20
0.0
 30
0.0
 11
-7.0000000000000062
 21
0.0
 31
0.0
  0
LINE
  5
318
  8
SLD-0
 62
     0
 10
0.0
 20
-5.0000000000000044
 30
0.0
 11
0.0
 21
-7.0000000000000062
 31
0.0
  0
LINE
  5
319
  8
SLD-0
 62
     0
 10
5.0000000000000044
 20
0.0
 30
0.0
 11
7.0000000000000062
 21
0.0
 31
0.0
  0
ENDBLK
  5
31A
  8
0
  0
BLOCK
  8
0
  2
*D17
 70
     1
 10
0.0
 20
0.0
 30
0.0
  3
*D17
  1

  0
LINE
  5
3FD
  8
SLD-0
 62
     0
 10
133.2103659921748999
 20
59.9875250000000122
 30
0.0
 11
133.2103659921748999
 21
1.0
 31
0.0
  0
LINE
  5
3FE
  8
SLD-0
 62
     0
 10
28.0555659405886786
 20
17.9323250515863002
 30
0.0
 11
28.0555659405886786
 21
1.0
 31
0.0
  0
LINE
  5
3FF
  8
SLD-0
 62
     0
 10
129.2103659921748999
 20
1.0
 30
0.0
 11
32.0555659405886786
 21
1.0
 31
0.0
  0
SOLID
  5
400
  8
SLD-0
 62
     0
 10
129.2103659921748999
 20
1.6666666666666661
 30
0.0
 11
129.2103659921748999
 21
0.3333333333333334
 31
0.0
 12
133.2103659921748999
 22
1.0
 32
0.0
 13
133.2103659921748999
 23
1.0
 33
0.0
  0
SOLID
  5
401
  8
SLD-0
 62
     0
 10
32.0555659405886786
 20
1.6666666666666661
 30
0.0
 11
32.0555659405886786
 21
0.3333333333333334
 31
0.0
 12
28.0555659405886786
 22
1.0
 32
0.0
 13
28.0555659405886786
 23
1.0
 33
0.0
  0
INSERT
  5
402
  8
0
  2
*U59
 10
0.0
 20
0.0
 30
0.0
  0
POINT
  5
403
  8
DEFPOINTS
 62
     0
 10
133.2103659921748999
 20
60.0500250000000193
 30
0.0
  0
POINT
  5
404
  8
DEFPOINTS
 62
     0
 10
28.0555659405886786
 20
17.9948250515863002
 30
0.0
  0
POINT
  5
405
  8
DEFPOINTS
 62
     0
 10
28.0555659405886786
 20
1.0
 30
0.0
  0
ENDBLK
  5
383
  8
0
  0
BLOCK
  8
0
  2
*D18
 70
     1
 10
0.0
 20
0.0
 30
0.0
  3
*D18
  1

  0
LINE
  5
406
  8
SLD-0
 62
     0
 10
52.8878659921749872
 20
17.0000250000000008
 30
0.0
 11
4.0555659405886679
 21
17.0000249999999902
 31
0.0
  0
LINE
  5
407
  8
SLD-0
 62
     0
 10
123.1478659921749994
 20
112.1600250000000045
 30
0.0
 11
4.0555659405886537
 21
112.1600250000000045
 31
0.0
  0
LINE
  5
408
  8
SLD-0
 62
     0
 10
4.0555659405886706
 20
21.0000249999999902
 30
0.0
 11
4.0555659405886511
 21
108.1600250000000045
 31
0.0
  0
SOLID
  5
409
  8
SLD-0
 62
     0
 10
3.3888992739220041
 20
21.0000249999999902
 30
0.0
 11
4.7222326072553384
 21
21.0000249999999902
 31
0.0
 12
4.0555659405886724
 22
17.0000249999999902
 32
0.0
 13
4.0555659405886724
 23
17.0000249999999902
 33
0.0
  0
SOLID
  5
40A
  8
SLD-0
 62
     0
 10
3.388899273921985
 20
108.1600250000000045
 30
0.0
 11
4.722232607255318
 21
108.1600250000000045
 31
0.0
 12
4.0555659405886511
 22
112.1600250000000045
 32
0.0
 13
4.0555659405886511
 23
112.1600250000000045
 33
0.0
  0
INSERT
  5
40B
  8
0
  2
*U60
 10
0.0
 20
0.0
 30
0.0
  0
POINT
  5
40C
  8
DEFPOINTS
 62
     0
 10
52.9503659921750014
 20
17.0000250000000008
 30
0.0
  0
POINT
  5
40D
  8
DEFPOINTS
 62
     0
 10
123.2103659921749994
 20
112.1600250000000045
 30
0.0
  0
POINT
  5
40E
  8
DEFPOINTS
 62
     0
 10
4.0555659405886511
 20
112.1600250000000045
 30
0.0
  0
ENDBLK
  5
38F
  8
0
  0
BLOCK
  8
0
  2
*D19
 70
     1
 10
0.0
 20
0.0
 30
0.0
  3
*D19
  1

  0
LINE
  5
40F
  8
SLD-0
 62
     0
 10
123.1478659921749994
 20
112.1600250000000045
 30
0.0
 11
20.0555659405887106
 21
112.1600250000000045
 31
0.0
  0
LINE
  5
410
  8
SLD-0
 62
     0
 10
123.1478659921749994
 20
68.0392501116727146
 30
0.0
 11
20.0555659405887106
 21
68.0392501116727004
 31
0.0
  0
LINE
  5
411
  8
SLD-0
 62
     0
 10
20.0555659405887106
 20
108.1600250000000045
 30
0.0
 11
20.0555659405887106
 21
72.0392501116727004
 31
0.0
  0
SOLID
  5
412
  8
SLD-0
 62
     0
 10
19.3888992739220392
 20
108.1600250000000045
 30
0.0
 11
20.7222326072553784
 21
108.1600250000000045
 31
0.0
 12
20.0555659405887106
 22
112.1600250000000045
 32
0.0
 13
20.0555659405887106
 23
112.1600250000000045
 33
0.0
  0
SOLID
  5
413
  8
SLD-0
 62
     0
 10
19.3888992739220392
 20
72.0392501116727004
 30
0.0
 11
20.7222326072553784
 21
72.0392501116727004
 31
0.0
 12
20.0555659405887212
 22
68.0392501116727004
 32
0.0
 13
20.0555659405887212
 23
68.0392501116727004
 33
0.0
  0
INSERT
  5
414
  8
0
  2
*U61
 10
0.0
 20
0.0
 30
0.0
  0
POINT
  5
415
  8
DEFPOINTS
 62
     0
 10
123.2103659921749994
 20
112.1600250000000045
 30
0.0
  0
POINT
  5
416
  8
DEFPOINTS
 62
     0
 10
123.2103659921749994
 20
68.0392501116727146
 30
0.0
  0
POINT
  5
417
  8
DEFPOINTS
 62
     0
 10
20.0555659405887212
 20
68.0392501116727004
 30
0.0
  0
ENDBLK
  5
39B
  8
0
  0
BLOCK
  8
0
  2
*D20
 70
     1
 10
0.0
 20
0.0
 30
0.0
  3
*D20
  1

  0
LINE
  5
418
  8
SLD-0
 62
     0
 10
123.1478659921749994
 20
68.0392501116727146
 30
0.0
 11
20.0555659405886892
 21
68.0392501116727004
 31
0.0
  0
LINE
  5
419
  8
SLD-0
 62
     0
 10
93.0978659921749738
 20
57.0500250000000477
 30
0.0
 11
20.0555659405886892
 21
57.0500250000000406
 31
0.0
  0
LINE
  5
41A
  8
SLD-0
 62
     0
 10
20.0555659405886892
 20
64.0392501116727004
 30
0.0
 11
20.0555659405886892
 21
61.0500250000000406
 31
0.0
  0
LINE
  5
41B
  8
SLD-0
 62
     0
 10
20.0555659405886892
 20
57.0500250000000406
 30
0.0
 11
20.0555659405886999
 21
39.1911247462498906
 31
0.0
  0
SOLID
  5
41C
  8
SLD-0
 62
     0
 10
19.3888992739220214
 20
64.0392501116727004
 30
0.0
 11
20.7222326072553606
 21
64.0392501116727004
 31
0.0
 12
20.0555659405886892
 22
68.0392501116727004
 32
0.0
 13
20.0555659405886892
 23
68.0392501116727004
 33
0.0
  0
SOLID
  5
41D
  8
SLD-0
 62
     0
 10
19.3888992739220214
 20
61.0500250000000406
 30
0.0
 11
20.7222326072553606
 21
61.0500250000000406
 31
0.0
 12
20.0555659405886892
 22
57.0500250000000406
 32
0.0
 13
20.0555659405886892
 23
57.0500250000000406
 33
0.0
  0
INSERT
  5
41E
  8
0
  2
*U62
 10
0.0
 20
0.0
 30
0.0
  0
POINT
  5
41F
  8
DEFPOINTS
 62
     0
 10
123.2103659921749994
 20
68.0392501116727146
 30
0.0
  0
POINT
  5
420
  8
DEFPOINTS
 62
     0
 10
93.1603659921749738
 20
57.0500250000000477
 30
0.0
  0
POINT
  5
421
  8
DEFPOINTS
 62
     0
 10
20.0555659405886892
 20
57.0500250000000406
 30
0.0
  0
ENDBLK
  5
3A7
  8
0
  0
BLOCK
  8
0
  2
*D21
 70
     1
 10
0.0
 20
0.0
 30
0.0
  3
*D21
  1

  0
LINE
  5
422
  8
SLD-0
 62
     0
 10
93.0978659921749738
 20
57.0500250000000477
 30
0.0
 11
12.0555659405886697
 21
57.0500250000000335
 31
0.0
  0
LINE
  5
423
  8
SLD-0
 62
     0
 10
73.0978659921749738
 20
27.0000250000000186
 30
0.0
 11
12.0555659405886697
 21
27.0000250000000115
 31
0.0
  0
LINE
  5
424
  8
SLD-0
 62
     0
 10
12.0555659405886697
 20
53.0500250000000406
 30
0.0
 11
12.0555659405886697
 21
31.0000250000000115
 31
0.0
  0
SOLID
  5
425
  8
SLD-0
 62
     0
 10
11.3888992739220001
 20
53.0500250000000406
 30
0.0
 11
12.7222326072553304
 21
53.0500250000000406
 31
0.0
 12
12.0555659405886697
 22
57.0500250000000335
 32
0.0
 13
12.0555659405886697
 23
57.0500250000000335
 33
0.0
  0
SOLID
  5
426
  8
SLD-0
 62
     0
 10
11.3888992739220001
 20
31.0000250000000115
 30
0.0
 11
12.7222326072553393
 21
31.0000250000000115
 31
0.0
 12
12.0555659405886697
 22
27.0000250000000115
 32
0.0
 13
12.0555659405886697
 23
27.0000250000000115
 33
0.0
  0
INSERT
  5
427
  8
0
  2
*U63
 10
0.0
 20
0.0
 30
0.0
  0
POINT
  5
428
  8
DEFPOINTS
 62
     0
 10
93.1603659921749738
 20
57.0500250000000477
 30
0.0
  0
POINT
  5
429
  8
DEFPOINTS
 62
     0
 10
73.1603659921749738
 20
27.0000250000000186
 30
0.0
  0
POINT
  5
42A
  8
DEFPOINTS
 62
     0
 10
12.0555659405886697
 20
27.0000250000000115
 30
0.0
  0
ENDBLK
  5
3B4
  8
0
  0
BLOCK
  8
0
  2
*D22
 70
     1
 10
0.0
 20
0.0
 30
0.0
  3
*D22
  1

  0
LINE
  5
42B
  8
SLD-0
 62
     0
 10
123.2103659921748999
 20
67.9767501116727004
 30
0.0
 11
123.2103659921748999
 21
8.9999999999999716
 31
0.0
  0
LINE
  5
42C
  8
SLD-0
 62
     0
 10
133.2103659921748999
 20
59.9875250000000122
 30
0.0
 11
133.2103659921748999
 21
8.9999999999999716
 31
0.0
  0
LINE
  5
42D
  8
SLD-0
 62
     0
 10
127.2103659921748999
 20
8.9999999999999716
 30
0.0
 11
129.2103659921748999
 21
8.9999999999999716
 31
0.0
  0
SOLID
  5
42E
  8
SLD-0
 62
     0
 10
127.2103659921748999
 20
9.6666666666666377
 30
0.0
 11
127.2103659921748999
 21
8.3333333333333055
 31
0.0
 12
123.2103659921748999
 22
8.9999999999999716
 32
0.0
 13
123.2103659921748999
 23
8.9999999999999716
 33
0.0
  0
SOLID
  5
42F
  8
SLD-0
 62
     0
 10
129.2103659921748999
 20
9.6666666666666377
 30
0.0
 11
129.2103659921748999
 21
8.3333333333333055
 31
0.0
 12
133.2103659921748999
 22
8.9999999999999716
 32
0.0
 13
133.2103659921748999
 23
8.9999999999999716
 33
0.0
  0
INSERT
  5
430
  8
0
  2
*U64
 10
0.0
 20
0.0
 30
0.0
  0
POINT
  5
431
  8
DEFPOINTS
 62
     0
 10
123.2103659921748999
 20
68.0392501116727004
 30
0.0
  0
POINT
  5
432
  8
DEFPOINTS
 62
     0
 10
133.2103659921748999
 20
60.0500250000000193
 30
0.0
  0
POINT
  5
433
  8
DEFPOINTS
 62
     0
 10
133.2103659921748999
 20
8.9999999999999716
 30
0.0
  0
ENDBLK
  5
3C0
  8
0
  0
BLOCK
  8
0
  2
*D23
 70
     1
 10
0.0
 20
0.0
 30
0.0
  3
*D23
  1

  0
LINE
  5
434
  8
SLD-0
 62
     0
 10
83.1603659921750022
 20
19.9375250000000115
 30
0.0
 11
83.1603659921750022
 21
8.9999999999999432
 31
0.0
  0
LINE
  5
435
  8
SLD-0
 62
     0
 10
123.2103659921748999
 20
67.9767501116727004
 30
0.0
 11
123.2103659921748999
 21
8.9999999999999432
 31
0.0
  0
LINE
  5
436
  8
SLD-0
 62
     0
 10
87.1603659921750165
 20
8.9999999999999432
 30
0.0
 11
119.2103659921748999
 21
8.9999999999999432
 31
0.0
  0
SOLID
  5
437
  8
SLD-0
 62
     0
 10
87.1603659921750165
 20
9.6666666666666092
 30
0.0
 11
87.1603659921750165
 21
8.3333333333332771
 31
0.0
 12
83.1603659921750022
 22
8.9999999999999432
 32
0.0
 13
83.1603659921750022
 23
8.9999999999999432
 33
0.0
  0
SOLID
  5
438
  8
SLD-0
 62
     0
 10
119.2103659921748999
 20
9.6666666666666092
 30
0.0
 11
119.2103659921748999
 21
8.3333333333332771
 31
0.0
 12
123.2103659921748999
 22
8.9999999999999432
 32
0.0
 13
123.2103659921748999
 23
8.9999999999999432
 33
0.0
  0
INSERT
  5
439
  8
0
  2
*U65
 10
0.0
 20
0.0
 30
0.0
  0
POINT
  5
43A
  8
DEFPOINTS
 62
     0
 10
83.1603659921750022
 20
20.0000250000000115
 30
0.0
  0
POINT
  5
43B
  8
DEFPOINTS
 62
     0
 10
123.2103659921748999
 20
68.0392501116727004
 30
0.0
  0
POINT
  5
43C
  8
DEFPOINTS
 62
     0
 10
123.2103659921748999
 20
8.9999999999999432
 30
0.0
  0
ENDBLK
  5
3CC
  8
0
  0
BLOCK
  8
0
  2
*D24
 70
     1
 10
0.0
 20
0.0
 30
0.0
  3
*D24
  1

  0
LINE
  5
43D
  8
SLD-0
 62
     0
 10
73.1603659921749454
 20
26.9375250000000115
 30
0.0
 11
73.1603659921749454
 21
8.9999999999999432
 31
0.0
  0
LINE
  5
43E
  8
SLD-0
 62
     0
 10
83.1603659921750022
 20
19.9375250000000115
 30
0.0
 11
83.1603659921750022
 21
8.9999999999999432
 31
0.0
  0
LINE
  5
43F
  8
SLD-0
 62
     0
 10
77.1603659921749454
 20
8.9999999999999432
 30
0.0
 11
79.1603659921750022
 21
8.9999999999999432
 31
0.0
  0
SOLID
  5
440
  8
SLD-0
 62
     0
 10
77.1603659921749454
 20
9.6666666666666092
 30
0.0
 11
77.1603659921749454
 21
8.3333333333332771
 31
0.0
 12
73.1603659921749454
 22
8.9999999999999432
 32
0.0
 13
73.1603659921749454
 23
8.9999999999999432
 33
0.0
  0
SOLID
  5
441
  8
SLD-0
 62
     0
 10
79.1603659921750022
 20
9.6666666666666092
 30
0.0
 11
79.1603659921750022
 21
8.3333333333332771
 31
0.0
 12
83.1603659921750022
 22
8.9999999999999432
 32
0.0
 13
83.1603659921750022
 23
8.9999999999999432
 33
0.0
  0
INSERT
  5
442
  8
0
  2
*U66
 10
0.0
 20
0.0
 30
0.0
  0
POINT
  5
443
  8
DEFPOINTS
 62
     0
 10
73.1603659921749454
 20
27.0000250000000115
 30
0.0
  0
POINT
  5
444
  8
DEFPOINTS
 62
     0
 10
83.1603659921750022
 20
20.0000250000000115
 30
0.0
  0
POINT
  5
445
  8
DEFPOINTS
 62
     0
 10
83.1603659921750022
 20
8.9999999999999432
 30
0.0
  0
ENDBLK
  5
3D8
  8
0
  0
BLOCK
  8
0
  2
*D25
 70
     1
 10
0.0
 20
0.0
 30
0.0
  3
*D25
  1

  0
LINE
  5
446
  8
SLD-0
 62
     0
 10
37.1742082683616388
 20
95.8681528578909479
 30
0.0
 11
50.1148596975563834
 21
84.0056408805616144
 31
0.0
  0
INSERT
  5
447
  8
0
  2
*U67
 10
0.0
 20
0.0
 30
0.0
  0
SOLID
  5
448
  8
SLD-0
 62
     0
 10
50.565347904363982
 20
84.4970722796111033
 30
0.0
 11
49.6643714907487706
 21
83.5142094815121538
 31
0.0
 12
53.0634480918532176
 22
81.302711639716037
 32
0.0
 13
53.0634480918532176
 23
81.302711639716037
 33
0.0
  0
POINT
  5
449
  8
DEFPOINTS
 62
     0
 10
53.0634480918532176
 20
81.302711639716037
 30
0.0
  0
POINT
  5
44A
  8
DEFPOINTS
 62
     0
 10
123.2103659921748999
 20
17.0000250000000008
 30
0.0
  0
ENDBLK
  5
3E4
  8
0
  0
BLOCK
  8
0
  2
*D26
 70
     1
 10
0.0
 20
0.0
 30
0.0
  3
*D26
  1

  0
LINE
  5
44B
  8
SLD-0
 62
     0
 10
67.1486603497548344
 20
47.0500249999999625
 30
0.0
 11
79.1603659921749454
 21
47.0500249999999625
 31
0.0
  0
INSERT
  5
44C
  8
0
  2
*U68
 10
0.0
 20
0.0
 30
0.0
  0
SOLID
  5
44D
  8
SLD-0
 62
     0
 10
79.1603659921749454
 20
47.7166916666666197
 30
0.0
 11
79.1603659921749454
 21
46.3833583333332911
 31
0.0
 12
83.1603659921749454
 22
47.0500249999999625
 32
0.0
 13
83.1603659921749454
 23
47.0500249999999625
 33
0.0
  0
POINT
  5
44E
  8
DEFPOINTS
 62
     0
 10
83.1603659921749454
 20
47.0500249999999625
 30
0.0
  0
POINT
  5
44F
  8
DEFPOINTS
 62
     0
 10
93.1603659921749454
 20
47.0500250000000122
 30
0.0
  0
ENDBLK
  5
3EC
  8
0
  0
BLOCK
  8
0
  2
*D27
 70
     1
 10
0.0
 20
0.0
 30
0.0
  3
*D27
  1

  0
LINE
  5
450
  8
SLD-0
 62
     0
 10
152.8140442905005045
 20
82.8215406694554162
 30
0.0
 11
148.8140442905005045
 21
82.8215406694554162
 31
0.0
  0
LINE
  5
451
  8
SLD-0
 62
     0
 10
148.8140442905005045
 20
82.8215406694554162
 30
0.0
 11
134.1655873500480993
 21
74.3642501116726464
 31
0.0
  0
INSERT
  5
452
  8
0
  2
*U69
 10
0.0
 20
0.0
 30
0.0
  0
LINE
  5
453
  8
SLD-0
 62
     0
 10
115.7192462494394931
 20
63.7142501116727118
 30
0.0
 11
130.7014857349103067
 21
72.3642501116726606
 31
0.0
  0
SOLID
  5
454
  8
SLD-0
 62
     0
 10
133.8322540167148134
 20
74.941600380862269
 30
0.0
 11
134.4989206833814137
 21
73.7868998424830096
 31
0.0
 12
130.7014857349103067
 22
72.3642501116726606
 32
0.0
 13
130.7014857349103067
 23
72.3642501116726606
 33
0.0
  0
POINT
  5
455
  8
DEFPOINTS
 62
     0
 10
130.7014857349103067
 20
72.3642501116726606
 30
0.0
  0
POINT
  5
456
  8
DEFPOINTS
 62
     0
 10
115.7192462494394931
 20
63.7142501116727118
 30
0.0
  0
ENDBLK
  5
3F5
  8
0
  0
BLOCK
  8
0
  2
_D_11
 70
     0
 10
0.0
 20
0.0
 30
0.0
  3
_D_11
  1

  0
SOLID
  5
47B
  8
SLD-0
 10
100.7235233272377997
 20
190.0429675342791995
 30
0.0
 11
98.4283269339675826
 21
186.748339555839209
 31
0.0
 12
99.0353842424484583
 22
186.3997977015089873
 32
0.0
 13
99.0353842424484583
 23
186.3997977015089873
 33
0.0
  0
LINE
  5
47C
  8
SLD-0
 10
100.7235233272377997
 20
190.0429675342791995
 30
0.0
 11
95.7153977724591272
 21
181.3202870812799006
 31
0.0
  0
LINE
  5
47D
  8
SLD-0
 10
100.7235233272377997
 20
190.0429675342791995
 30
0.0
 11
102.217274131510095
 21
192.6446417134829971
 31
0.0
  0
INSERT
  5
47E
  8
0
  2
*U70
 10
0.0
 20
0.0
 30
0.0
  0
ENDBLK
  5
47F
  8
0
  0
BLOCK
  8
0
  2
*D31
 70
     1
 10
0.0
 20
0.0
 30
0.0
  3
*D31
  1

  0
LINE
  5
568
  8
SLD-0
 62
     0
 10
229.3056747514825986
 20
184.7268151443475972
 30
0.0
 11
217.2027837433242041
 21
171.1073957801953895
 31
0.0
  0
INSERT
  5
569
  8
0
  2
*U71
 10
0.0
 20
0.0
 30
0.0
  0
SOLID
  5
56A
  8
SLD-0
 62
     0
 10
216.7044516469686073
 20
171.5502383777244972
 30
0.0
 11
217.701115839679801
 21
170.6645531826663955
 31
0.0
 12
214.5457281581498137
 22
168.1174032020618938
 32
0.0
 13
214.5457281581498137
 23
168.1174032020618938
 33
0.0
  0
LINE
  5
56B
  8
SLD-0
 62
     0
 10
151.244375786851208
 20
96.9854797682652503
 30
0.0
 11
151.4243757868511864
 21
96.9854797682652503
 31
0.0
  0
LINE
  5
56C
  8
SLD-0
 62
     0
 10
151.3343757868512114
 20
96.8954797682652469
 30
0.0
 11
151.3343757868512114
 21
97.0754797682652537
 31
0.0
  0
POINT
  5
56D
  8
DEFPOINTS
 62
     0
 10
214.5457281581498137
 20
168.1174032020618938
 30
0.0
  0
POINT
  5
56E
  8
DEFPOINTS
 62
     0
 10
151.3343757868512114
 20
96.9854797682652645
 30
0.0
  0
ENDBLK
  5
4E2
  8
0
  0
BLOCK
  8
0
  2
*D32
 70
     1
 10
0.0
 20
0.0
 30
0.0
  3
*D32
  1

  0
LINE
  5
56F
  8
SLD-0
 62
     0
 10
141.3343757868512114
 20
192.2079797682652043
 30
0.0
 11
141.3343757868512114
 21
217.9081759843697057
 31
0.0
  0
LINE
  5
570
  8
SLD-0
 62
     0
 10
246.4891758384374896
 20
98.042779819851873
 30
0.0
 11
246.4891758384374896
 21
217.9081759843697057
 31
0.0
  0
LINE
  5
571
  8
SLD-0
 62
     0
 10
145.3343757868512114
 20
217.9081759843697057
 30
0.0
 11
242.4891758384374896
 21
217.9081759843697057
 31
0.0
  0
SOLID
  5
572
  8
SLD-0
 62
     0
 10
145.3343757868512114
 20
218.5748426510363913
 30
0.0
 11
145.3343757868512114
 21
217.2415093177031054
 31
0.0
 12
141.3343757868512114
 22
217.9081759843697057
 32
0.0
 13
141.3343757868512114
 23
217.9081759843697057
 33
0.0
  0
SOLID
  5
573
  8
SLD-0
 62
     0
 10
242.4891758384374896
 20
218.5748426510363913
 30
0.0
 11
242.4891758384374896
 21
217.2415093177031054
 31
0.0
 12
246.4891758384374896
 22
217.9081759843697057
 32
0.0
 13
246.4891758384374896
 23
217.9081759843697057
 33
0.0
  0
INSERT
  5
574
  8
0
  2
*U72
 10
0.0
 20
0.0
 30
0.0
  0
POINT
  5
575
  8
DEFPOINTS
 62
     0
 10
141.3343757868512114
 20
192.1454797682652043
 30
0.0
  0
POINT
  5
576
  8
DEFPOINTS
 62
     0
 10
246.4891758384374896
 20
97.9802798198518445
 30
0.0
  0
POINT
  5
577
  8
DEFPOINTS
 62
     0
 10
246.4891758384374896
 20
217.9081759843697057
 30
0.0
  0
ENDBLK
  5
4EC
  8
0
  0
BLOCK
  8
0
  2
*D33
 70
     1
 10
0.0
 20
0.0
 30
0.0
  3
*D33
  1

  0
LINE
  5
578
  8
SLD-0
 62
     0
 10
194.3218757868513933
 20
96.9854797682654635
 30
0.0
 11
117.3343757868511972
 21
96.9854797682654635
 31
0.0
  0
LINE
  5
579
  8
SLD-0
 62
     0
 10
141.2718757868512967
 20
192.1454797682652895
 30
0.0
 11
117.3343757868511972
 21
192.1454797682652895
 31
0.0
  0
LINE
  5
57A
  8
SLD-0
 62
     0
 10
117.3343757868511972
 20
100.9854797682654066
 30
0.0
 11
117.3343757868511972
 21
188.1454797682652895
 31
0.0
  0
SOLID
  5
57B
  8
SLD-0
 62
     0
 10
116.6677091201844974
 20
100.9854797682654066
 30
0.0
 11
118.001042453517897
 21
100.9854797682654066
 31
0.0
 12
117.3343757868511972
 22
96.9854797682654635
 32
0.0
 13
117.3343757868511972
 23
96.9854797682654635
 33
0.0
  0
SOLID
  5
57C
  8
SLD-0
 62
     0
 10
116.6677091201844974
 20
188.1454797682652895
 30
0.0
 11
118.001042453517897
 21
188.1454797682652895
 31
0.0
 12
117.3343757868511972
 22
192.1454797682652895
 32
0.0
 13
117.3343757868511972
 23
192.1454797682652895
 33
0.0
  0
INSERT
  5
57D
  8
0
  2
*U73
 10
0.0
 20
0.0
 30
0.0
  0
POINT
  5
57E
  8
DEFPOINTS
 62
     0
 10
194.3843757868513933
 20
96.9854797682654635
 30
0.0
  0
POINT
  5
57F
  8
DEFPOINTS
 62
     0
 10
141.3343757868512967
 20
192.1454797682652895
 30
0.0
  0
POINT
  5
580
  8
DEFPOINTS
 62
     0
 10
117.3343757868511972
 20
192.1454797682652895
 30
0.0
  0
ENDBLK
  5
4F8
  8
0
  0
BLOCK
  8
0
  2
*D34
 70
     1
 10
0.0
 20
0.0
 30
0.0
  3
*D34
  1

  0
LINE
  5
581
  8
SLD-0
 62
     0
 10
141.3343757868512114
 20
192.2079797682652043
 30
0.0
 11
141.3343757868512114
 21
208.1454797682652895
 31
0.0
  0
LINE
  5
582
  8
SLD-0
 62
     0
 10
191.3843757868511943
 20
127.0979797682652048
 30
0.0
 11
191.3843757868511943
 21
208.1454797682652895
 31
0.0
  0
LINE
  5
583
  8
SLD-0
 62
     0
 10
145.3343757868512114
 20
208.1454797682652895
 30
0.0
 11
187.3843757868511943
 21
208.1454797682652895
 31
0.0
  0
SOLID
  5
584
  8
SLD-0
 62
     0
 10
145.3343757868512114
 20
208.8121464349318899
 30
0.0
 11
145.3343757868512114
 21
207.4788131015986039
 31
0.0
 12
141.3343757868512114
 22
208.1454797682652895
 32
0.0
 13
141.3343757868512114
 23
208.1454797682652895
 33
0.0
  0
SOLID
  5
585
  8
SLD-0
 62
     0
 10
187.3843757868511943
 20
208.8121464349318899
 30
0.0
 11
187.3843757868511943
 21
207.4788131015986039
 31
0.0
 12
191.3843757868511943
 22
208.1454797682652895
 32
0.0
 13
191.3843757868511943
 23
208.1454797682652895
 33
0.0
  0
INSERT
  5
586
  8
0
  2
*U74
 10
0.0
 20
0.0
 30
0.0
  0
POINT
  5
587
  8
DEFPOINTS
 62
     0
 10
141.3343757868512114
 20
192.1454797682652043
 30
0.0
  0
POINT
  5
588
  8
DEFPOINTS
 62
     0
 10
191.3843757868511943
 20
127.0354797682652048
 30
0.0
  0
POINT
  5
589
  8
DEFPOINTS
 62
     0
 10
191.3843757868511943
 20
208.1454797682652895
 30
0.0
  0
ENDBLK
  5
504
  8
0
  0
BLOCK
  8
0
  2
*D35
 70
     1
 10
0.0
 20
0.0
 30
0.0
  3
*D35
  1

  0
LINE
  5
58A
  8
SLD-0
 62
     0
 10
141.2718757868512967
 20
192.1454797682652895
 30
0.0
 11
125.3343757868511972
 21
192.1454797682652895
 31
0.0
  0
LINE
  5
58B
  8
SLD-0
 62
     0
 10
144.2718757868512967
 20
137.0354797682653043
 30
0.0
 11
125.3343757868511972
 21
137.0354797682653043
 31
0.0
  0
LINE
  5
58C
  8
SLD-0
 62
     0
 10
125.3343757868511972
 20
188.1454797682652895
 30
0.0
 11
125.3343757868511972
 21
141.0354797682653043
 31
0.0
  0
SOLID
  5
58D
  8
SLD-0
 62
     0
 10
124.6677091201844974
 20
188.1454797682652895
 30
0.0
 11
126.001042453517897
 21
188.1454797682652895
 31
0.0
 12
125.3343757868511972
 22
192.1454797682652895
 32
0.0
 13
125.3343757868511972
 23
192.1454797682652895
 33
0.0
  0
SOLID
  5
58E
  8
SLD-0
 62
     0
 10
124.6677091201844974
 20
141.0354797682653043
 30
0.0
 11
126.001042453517897
 21
141.0354797682653043
 31
0.0
 12
125.3343757868511972
 22
137.0354797682653043
 32
0.0
 13
125.3343757868511972
 23
137.0354797682653043
 33
0.0
  0
INSERT
  5
58F
  8
0
  2
*U75
 10
0.0
 20
0.0
 30
0.0
  0
POINT
  5
590
  8
DEFPOINTS
 62
     0
 10
141.3343757868512967
 20
192.1454797682652895
 30
0.0
  0
POINT
  5
591
  8
DEFPOINTS
 62
     0
 10
144.3343757868512967
 20
137.0354797682653043
 30
0.0
  0
POINT
  5
592
  8
DEFPOINTS
 62
     0
 10
125.3343757868511972
 20
137.0354797682653043
 30
0.0
  0
ENDBLK
  5
510
  8
0
  0
BLOCK
  8
0
  2
*D36
 70
     1
 10
0.0
 20
0.0
 30
0.0
  3
*D36
  1

  0
LINE
  5
593
  8
SLD-0
 62
     0
 10
151.2718757868512967
 20
148.0247048799380138
 30
0.0
 11
133.3343757868512967
 21
148.0247048799380138
 31
0.0
  0
LINE
  5
594
  8
SLD-0
 62
     0
 10
141.2718757868512967
 20
192.1454797682652895
 30
0.0
 11
133.3343757868512114
 21
192.1454797682652895
 31
0.0
  0
LINE
  5
595
  8
SLD-0
 62
     0
 10
133.3343757868512967
 20
152.0247048799380138
 30
0.0
 11
133.3343757868512967
 21
188.1454797682652895
 31
0.0
  0
SOLID
  5
596
  8
SLD-0
 62
     0
 10
132.667709120184611
 20
152.0247048799380138
 30
0.0
 11
134.001042453517897
 21
152.0247048799380138
 31
0.0
 12
133.3343757868512967
 22
148.0247048799380138
 32
0.0
 13
133.3343757868512967
 23
148.0247048799380138
 33
0.0
  0
SOLID
  5
597
  8
SLD-0
 62
     0
 10
132.667709120184611
 20
188.1454797682652895
 30
0.0
 11
134.001042453517897
 21
188.1454797682652895
 31
0.0
 12
133.3343757868512114
 22
192.1454797682652895
 32
0.0
 13
133.3343757868512114
 23
192.1454797682652895
 33
0.0
  0
INSERT
  5
598
  8
0
  2
*U76
 10
0.0
 20
0.0
 30
0.0
  0
POINT
  5
599
  8
DEFPOINTS
 62
     0
 10
151.3343757868512967
 20
148.0247048799380138
 30
0.0
  0
POINT
  5
59A
  8
DEFPOINTS
 62
     0
 10
141.3343757868512967
 20
192.1454797682652895
 30
0.0
  0
POINT
  5
59B
  8
DEFPOINTS
 62
     0
 10
133.3343757868512114
 20
192.1454797682652895
 30
0.0
  0
ENDBLK
  5
51C
  8
0
  0
BLOCK
  8
0
  2
*D37
 70
     1
 10
0.0
 20
0.0
 30
0.0
  3
*D37
  1

  0
LINE
  5
59C
  8
SLD-0
 62
     0
 10
144.2718757868512967
 20
137.0354797682653043
 30
0.0
 11
125.3343757868511972
 21
137.0354797682653043
 31
0.0
  0
LINE
  5
59D
  8
SLD-0
 62
     0
 10
201.3218757868513933
 20
106.9854797682654066
 30
0.0
 11
125.3343757868511972
 21
106.9854797682654066
 31
0.0
  0
LINE
  5
59E
  8
SLD-0
 62
     0
 10
125.3343757868511972
 20
133.0354797682653043
 30
0.0
 11
125.3343757868511972
 21
110.9854797682654066
 31
0.0
  0
SOLID
  5
59F
  8
SLD-0
 62
     0
 10
124.6677091201845968
 20
133.0354797682653043
 30
0.0
 11
126.001042453517897
 21
133.0354797682653043
 31
0.0
 12
125.3343757868511972
 22
137.0354797682653043
 32
0.0
 13
125.3343757868511972
 23
137.0354797682653043
 33
0.0
  0
SOLID
  5
5A0
  8
SLD-0
 62
     0
 10
124.6677091201845968
 20
110.9854797682654066
 30
0.0
 11
126.001042453517897
 21
110.9854797682654066
 31
0.0
 12
125.3343757868511972
 22
106.9854797682654066
 32
0.0
 13
125.3343757868511972
 23
106.9854797682654066
 33
0.0
  0
INSERT
  5
5A1
  8
0
  2
*U77
 10
0.0
 20
0.0
 30
0.0
  0
POINT
  5
5A2
  8
DEFPOINTS
 62
     0
 10
144.3343757868512967
 20
137.0354797682653043
 30
0.0
  0
POINT
  5
5A3
  8
DEFPOINTS
 62
     0
 10
201.3843757868513933
 20
106.9854797682654066
 30
0.0
  0
POINT
  5
5A4
  8
DEFPOINTS
 62
     0
 10
125.3343757868511972
 20
106.9854797682654066
 30
0.0
  0
ENDBLK
  5
528
  8
0
  0
BLOCK
  8
0
  2
*D38
 70
     1
 10
0.0
 20
0.0
 30
0.0
  3
*D38
  1

  0
LINE
  5
5A5
  8
SLD-0
 62
     0
 10
141.3343757868512114
 20
192.2079797682652043
 30
0.0
 11
141.3343757868512114
 21
200.1454797682652895
 31
0.0
  0
LINE
  5
5A6
  8
SLD-0
 62
     0
 10
151.3343757868512114
 20
148.0872048799379002
 30
0.0
 11
151.3343757868512114
 21
200.1454797682652895
 31
0.0
  0
LINE
  5
5A7
  8
SLD-0
 62
     0
 10
145.3343757868512114
 20
200.1454797682652895
 30
0.0
 11
147.3343757868512114
 21
200.1454797682652895
 31
0.0
  0
SOLID
  5
5A8
  8
SLD-0
 62
     0
 10
145.3343757868512114
 20
200.8121464349318899
 30
0.0
 11
145.3343757868512114
 21
199.4788131015986039
 31
0.0
 12
141.3343757868512114
 22
200.1454797682652895
 32
0.0
 13
141.3343757868512114
 23
200.1454797682652895
 33
0.0
  0
SOLID
  5
5A9
  8
SLD-0
 62
     0
 10
147.3343757868512114
 20
200.8121464349318899
 30
0.0
 11
147.3343757868512114
 21
199.4788131015986039
 31
0.0
 12
151.3343757868512114
 22
200.1454797682652895
 32
0.0
 13
151.3343757868512114
 23
200.1454797682652895
 33
0.0
  0
INSERT
  5
5AA
  8
0
  2
*U78
 10
0.0
 20
0.0
 30
0.0
  0
POINT
  5
5AB
  8
DEFPOINTS
 62
     0
 10
141.3343757868512114
 20
192.1454797682652043
 30
0.0
  0
POINT
  5
5AC
  8
DEFPOINTS
 62
     0
 10
151.3343757868512114
 20
148.0247048799379002
 30
0.0
  0
POINT
  5
5AD
  8
DEFPOINTS
 62
     0
 10
151.3343757868512114
 20
200.1454797682652895
 30
0.0
  0
ENDBLK
  5
534
  8
0
  0
BLOCK
  8
0
  2
*D39
 70
     1
 10
0.0
 20
0.0
 30
0.0
  3
*D39
  1

  0
LINE
  5
5AE
  8
SLD-0
 62
     0
 10
191.3843757868511943
 20
99.9229797682654208
 30
0.0
 11
191.3843757868511943
 21
88.9854547682654555
 31
0.0
  0
LINE
  5
5AF
  8
SLD-0
 62
     0
 10
201.384375786851308
 20
106.9229797682654066
 30
0.0
 11
201.384375786851308
 21
88.9854547682654555
 31
0.0
  0
LINE
  5
5B0
  8
SLD-0
 62
     0
 10
195.3843757868511943
 20
88.9854547682654555
 30
0.0
 11
197.384375786851308
 21
88.9854547682654555
 31
0.0
  0
SOLID
  5
5B1
  8
SLD-0
 62
     0
 10
195.3843757868511943
 20
89.6521214349321411
 30
0.0
 11
195.3843757868511943
 21
88.3187881015987983
 31
0.0
 12
191.3843757868511943
 22
88.9854547682654555
 32
0.0
 13
191.3843757868511943
 23
88.9854547682654555
 33
0.0
  0
SOLID
  5
5B2
  8
SLD-0
 62
     0
 10
197.384375786851308
 20
89.6521214349321411
 30
0.0
 11
197.384375786851308
 21
88.3187881015987983
 31
0.0
 12
201.384375786851308
 22
88.9854547682654555
 32
0.0
 13
201.384375786851308
 23
88.9854547682654555
 33
0.0
  0
INSERT
  5
5B3
  8
0
  2
*U79
 10
0.0
 20
0.0
 30
0.0
  0
POINT
  5
5B4
  8
DEFPOINTS
 62
     0
 10
191.3843757868511943
 20
99.9854797682654066
 30
0.0
  0
POINT
  5
5B5
  8
DEFPOINTS
 62
     0
 10
201.384375786851308
 20
106.9854797682654066
 30
0.0
  0
POINT
  5
5B6
  8
DEFPOINTS
 62
     0
 10
201.384375786851308
 20
88.9854547682654555
 30
0.0
  0
ENDBLK
  5
540
  8
0
  0
BLOCK
  8
0
  2
*D40
 70
     1
 10
0.0
 20
0.0
 30
0.0
  3
*D40
  1

  0
LINE
  5
5B7
  8
SLD-0
 62
     0
 10
206.8926836207012911
 20
132.1281275944413096
 30
0.0
 11
195.1134374094582995
 21
129.7764407243278129
 31
0.0
  0
INSERT
  5
5B8
  8
0
  2
*U80
 10
0.0
 20
0.0
 30
0.0
  0
SOLID
  5
5B9
  8
SLD-0
 62
     0
 10
194.9829154591695897
 20
130.4302055634994986
 30
0.0
 11
195.2439593597470093
 21
129.1226758851560135
 31
0.0
 12
191.1908483744277021
 22
128.9933090225956107
 32
0.0
 13
191.1908483744277021
 23
128.9933090225956107
 33
0.0
  0
LINE
  5
5BA
  8
SLD-0
 62
     0
 10
181.2943757868511909
 20
127.0354797682652048
 30
0.0
 11
181.4743757868511977
 21
127.0354797682652048
 31
0.0
  0
LINE
  5
5BB
  8
SLD-0
 62
     0
 10
181.3843757868511943
 20
126.9454797682652014
 30
0.0
 11
181.3843757868511943
 21
127.125479768265194
 31
0.0
  0
POINT
  5
5BC
  8
DEFPOINTS
 62
     0
 10
191.1908483744277021
 20
128.9933090225956107
 30
0.0
  0
POINT
  5
5BD
  8
DEFPOINTS
 62
     0
 10
181.3843757868511943
 20
127.0354797682652048
 30
0.0
  0
ENDBLK
  5
54C
  8
0
  0
BLOCK
  8
0
  2
*D41
 70
     1
 10
0.0
 20
0.0
 30
0.0
  3
*D41
  1

  0
LINE
  5
5BE
  8
SLD-0
 62
     0
 10
228.4656206730871872
 20
85.0254868954889247
 30
0.0
 11
223.3443686596276052
 21
85.0254868954889105
 31
0.0
  0
LINE
  5
5BF
  8
SLD-0
 62
     0
 10
223.3443686596276052
 20
85.0254868954889105
 30
0.0
 11
210.3292765688611041
 21
98.0405789862555253
 31
0.0
  0
INSERT
  5
5C0
  8
0
  2
*U81
 10
0.0
 20
0.0
 30
0.0
  0
LINE
  5
5C1
  8
SLD-0
 62
     0
 10
195.2679021295876112
 20
113.101953425529004
 30
0.0
 11
207.5008494441148912
 21
100.8690061110016956
 31
0.0
  0
SOLID
  5
5C2
  8
SLD-0
 62
     0
 10
210.8006810896521017
 20
98.5119835070465655
 30
0.0
 11
209.8578720480699928
 21
97.5691744654645134
 31
0.0
 12
207.5008494441148912
 22
100.8690061110016956
 32
0.0
 13
207.5008494441148912
 23
100.8690061110016956
 33
0.0
  0
POINT
  5
5C3
  8
DEFPOINTS
 62
     0
 10
207.5008494441148912
 20
100.8690061110016956
 30
0.0
  0
POINT
  5
5C4
  8
DEFPOINTS
 62
     0
 10
195.2679021295876112
 20
113.101953425529004
 30
0.0
  0
ENDBLK
  5
556
  8
0
  0
BLOCK
  8
0
  2
*D42
 70
     1
 10
0.0
 20
0.0
 30
0.0
  3
*D42
  1

  0
LINE
  5
5C5
  8
SLD-0
 62
     0
 10
135.9945462813269046
 20
125.509951801065597
 30
0.0
 11
140.8489572435491084
 21
133.9649066834562916
 31
0.0
  0
INSERT
  5
5C6
  8
0
  2
*U82
 10
0.0
 20
0.0
 30
0.0
  0
SOLID
  5
5C7
  8
SLD-0
 62
     0
 10
140.2708074259483055
 20
134.2968513066280138
 30
0.0
 11
141.4271070611499965
 21
133.6329620602847115
 31
0.0
 12
142.8406249825789018
 22
137.433805589061393
 32
0.0
 13
142.8406249825789018
 23
137.433805589061393
 33
0.0
  0
LINE
  5
5C8
  8
SLD-0
 62
     0
 10
144.244375786851208
 20
140.0354797682651906
 30
0.0
 11
144.4243757868511864
 21
140.0354797682651906
 31
0.0
  0
LINE
  5
5C9
  8
SLD-0
 62
     0
 10
144.3343757868512114
 20
139.9454797682651872
 30
0.0
 11
144.3343757868512114
 21
140.125479768265194
 31
0.0
  0
POINT
  5
5CA
  8
DEFPOINTS
 62
     0
 10
142.8406249825789018
 20
137.433805589061393
 30
0.0
  0
POINT
  5
5CB
  8
DEFPOINTS
 62
     0
 10
144.3343757868512114
 20
140.0354797682651906
 30
0.0
  0
ENDBLK
  5
560
  8
0
  0
BLOCK
  8
0
  2
A$C0DBF1F7C
 70
     0
 10
0.0
 20
0.0
 30
0.0
  3
A$C0DBF1F7C
  1

  0
LINE
  5
5CD
  8
0
  6
CONTINUOUS
 62
     7
 10
14.7909869662034303
 20
1.3037303590664631
 30
0.0
 11
0.0
 21
1.8201648327409139
 31
0.0
  0
LINE
  5
5CE
  8
0
  6
CONTINUOUS
 62
     7
 10
0.0
 20
1.8201648327409139
 30
0.0
 11
0.3489422119421874
 21
11.8140749450405398
 31
0.0
  0
LINE
  5
5CF
  8
0
  6
CONTINUOUS
 62
     7
 10
98.7366307082328944
 20
102.5961984736119064
 30
0.0
 11
97.7771492517505862
 21
103.625105476182398
 31
0.0
  0
LINE
  5
5D0
  8
0
  6
CONTINUOUS
 62
     7
 10
98.255090455752736
 20
88.8046025186384469
 30
0.0
 11
98.7366307082328944
 21
102.5961984736119064
 31
0.0
  0
LINE
  5
5D1
  8
0
  6
CONTINUOUS
 62
     7
 10
14.7909869662034303
 20
1.3037303590664631
 30
0.0
 11
15.1399291781456196
 21
11.2976404713660905
 31
0.0
  0
ARC
  5
5D2
  8
0
  6
CONTINUOUS
 62
     7
 10
95.4509908405854759
 20
8.4935408561985621
 30
0.0
 40
95.1599999999999966
 50
88.5992818794243391
 51
178.0003024485756953
  0
ARC
  5
5D3
  8
0
  6
CONTINUOUS
 62
     7
 10
95.4509908405854759
 20
8.4935408561985621
 30
0.0
 40
80.3600000000000136
 50
88.0003024485740042
 51
178.0003024485756953
  0
ARC
  5
5D4
  8
0
  6
CONTINUOUS
 62
     7
 10
95.4509908405854759
 20
8.4935408561985621
 30
0.0
 40
77.3599999999999852
 50
88.0003024485740042
 51
178.0003024485756953
  0
LINE
  5
5D5
  8
0
  6
CONTINUOUS
 62
     7
 10
17.789159999893279
 20
1.1990476954838121
 30
0.0
 11
18.13810221183547
 21
11.19295780778344
 31
0.0
  0
LINE
  5
5D6
  8
0
  6
CONTINUOUS
 62
     7
 10
98.1504077921700713
 20
85.8064294849484952
 30
0.0
 11
98.255090455752736
 21
88.8046025186384469
 31
0.0
  0
LINE
  5
5D7
  8
0
  6
CONTINUOUS
 62
     7
 10
17.789159999893279
 20
1.1990476954838121
 30
0.0
 11
14.7909869662034303
 21
1.3037303590664631
 31
0.0
  0
CIRCLE
  5
5D8
  8
0
  6
CONTINUOUS
 62
     7
 10
87.2035364990564545
 20
58.8620031802004391
 30
0.0
 40
8.6499999999999773
  0
CIRCLE
  5
5D9
  8
0
  6
CONTINUOUS
 62
     7
 10
44.4428480438371025
 20
10.2745148668268804
 30
0.0
 40
8.6500000000000057
  0
ARC
  5
5DA
  8
0
  6
CONTINUOUS
 62
     7
 10
66.4678623000114044
 20
39.5738120905452888
 30
0.0
 40
9.9999999999999716
 50
88.0003024485740042
 51
178.0003024485756953
  0
LINE
  5
5DB
  8
0
  6
CONTINUOUS
 62
     7
 10
56.4739521877118023
 20
39.9227543024874834
 30
0.0
 11
55.1811212924659529
 21
2.895317336417349
 31
0.0
  0
ARC
  5
5DC
  8
0
  6
CONTINUOUS
 62
     7
 10
52.1829482587760296
 20
3.0
 30
0.0
 40
3.0000000000000142
 50
268.0003024485740184
 51
358.0003024485757237
  0
LINE
  5
5DD
  8
0
  6
CONTINUOUS
 62
     7
 10
24.8848361796260598
 20
0.9512987250048468
 30
0.0
 11
25.2337783915682508
 21
10.9452088373044791
 31
0.0
  0
ARC
  5
5DE
  8
0
  6
CONTINUOUS
 62
     7
 10
95.4509908405854759
 20
8.4935408561985621
 30
0.0
 40
70.2599999999999909
 50
88.0003024485740042
 51
178.0003024485756953
  0
ARC
  5
5DF
  8
0
  6
CONTINUOUS
 62
     7
 10
93.9550140293066249
 20
51.6220065532311025
 30
0.0
 40
3.0
 50
268.0003024485740184
 51
358.0003024485757237
  0
LINE
  5
5E0
  8
0
  6
CONTINUOUS
 62
     7
 10
93.8503313657239744
 20
48.6238335195412219
 30
0.0
 11
66.8168045119536487
 21
49.5677222028448625
 31
0.0
  0
LINE
  5
5E1
  8
0
  6
CONTINUOUS
 62
     7
 10
97.7316771378394833
 20
73.8137373501889442
 30
0.0
 11
97.902658821691162
 21
78.7107533052157891
 31
0.0
  0
LINE
  5
5E2
  8
0
  6
CONTINUOUS
 62
     7
 10
96.9531870629964772
 20
51.5173238896485088
 30
0.0
 11
97.7316771378394833
 21
73.8137373501889442
 31
0.0
  0
LINE
  5
5E3
  8
0
  6
CONTINUOUS
 62
     7
 10
52.0782655951933933
 20
0.0018269663101194
 30
0.0
 11
24.8848361796260598
 21
0.9512987250048468
 31
0.0
  0
CIRCLE
  5
5E4
  8
0
  6
CONTINUOUS
 62
     7
 10
87.2035364990564545
 20
58.8620031802004391
 30
0.0
 40
4.5
  0
CIRCLE
  5
5E5
  8
0
  6
CONTINUOUS
 62
     7
 10
44.4428480438371025
 20
10.2745148668268804
 30
0.0
 40
4.5
  0
ARC
  5
5E6
  8
0
  6
CONTINUOUS
 62
     7
 10
95.4509908405854759
 20
8.4935408561985621
 30
0.0
 40
75.460000000000008
 50
88.0003024485740042
 51
178.0003024485756953
  0
LINE
  5
5E7
  8
0
  6
CONTINUOUS
 62
     7
 10
19.6880029212301793
 20
1.1327486752147991
 30
0.0
 11
20.0369451331723702
 21
11.1266587875144296
 31
0.0
  0
LINE
  5
5E8
  8
0
  6
CONTINUOUS
 62
     7
 10
98.0841087719010432
 20
83.9075865636115878
 30
0.0
 11
98.1504077921700713
 21
85.8064294849484952
 31
0.0
  0
LINE
  5
5E9
  8
0
  6
CONTINUOUS
 62
     7
 10
19.6880029212301793
 20
1.1327486752147991
 30
0.0
 11
17.789159999893279
 21
1.1990476954838121
 31
0.0
  0
LINE
  5
5EA
  8
0
  6
CONTINUOUS
 62
     7
 10
97.902658821691162
 20
78.7107533052157891
 30
0.0
 11
98.0841087719010432
 21
83.9075865636115878
 31
0.0
  0
LINE
  5
5EB
  8
0
  6
CONTINUOUS
 62
     7
 10
24.8848361796260598
 20
0.9512987250048468
 30
0.0
 11
19.6880029212301793
 21
1.1327486752147991
 31
0.0
  0
ENDBLK
  5
5EE
  8
0
  0
BLOCK
  8
0
  2
*U44
 70
     1
 10
0.0
 20
0.0
 30
0.0
  3
*U44
  1

  0
TEXT
  5
644
  8
SLD-0
 10
257.4377209113163758
 20
111.589726509432694
 30
0.0
 40
3.1749999999999989
  1
105,15
 50
359.9999999999996021
 41
0.913
  7
SLDTEXTSTYLE1
  0
ENDBLK
  5
646
  8
0
  0
BLOCK
  8
0
  2
*U45
 70
     1
 10
0.0
 20
0.0
 30
0.0
  3
*U45
  1

  0
TEXT
  5
648
  8
SLD-0
 10
187.0830182681451959
 20
168.8950169137401929
 30
0.0
 40
3.1749999999999989
  1
95,16
 50
90.0
 41
0.913
  7
SLDTEXTSTYLE1
  0
ENDBLK
  5
64A
  8
0
  0
BLOCK
  8
0
  2
*U46
 70
     1
 10
0.0
 20
0.0
 30
0.0
  3
*U46
  1

  0
TEXT
  5
64C
  8
SLD-0
 10
203.0830182681453948
 20
194.5092190005078976
 30
0.0
 40
3.1749999999999989
  1
44,12
 50
90.0000000000003979
 41
0.913
  7
SLDTEXTSTYLE1
  0
ENDBLK
  5
64E
  8
0
  0
BLOCK
  8
0
  2
*U47
 70
     1
 10
0.0
 20
0.0
 30
0.0
  3
*U47
  1

  0
TEXT
  5
650
  8
SLD-0
 10
203.0830182681453095
 20
148.5416159376923133
 30
0.0
 40
3.1749999999999989
  1
10,99
 50
90.0000000000003979
 41
0.913
  7
SLDTEXTSTYLE1
  0
ENDBLK
  5
652
  8
0
  0
BLOCK
  8
0
  2
*U48
 70
     1
 10
0.0
 20
0.0
 30
0.0
  3
*U48
  1

  0
TEXT
  5
654
  8
SLD-0
 10
195.0830182681451959
 20
146.3951941401168995
 30
0.0
 40
3.1749999999999989
  1
30,05
 50
90.0000000000003979
 41
0.913
  7
SLDTEXTSTYLE1
  0
ENDBLK
  5
656
  8
0
  0
BLOCK
  8
0
  2
*U49
 70
     1
 10
0.0
 20
0.0
 30
0.0
  3
*U49
  1

  0
TEXT
  5
658
  8
SLD-0
 10
309.1191023612325921
 20
119.589726509432694
 30
0.0
 40
3.1749999999999989
  1
10
 41
0.913
  7
SLDTEXTSTYLE1
  0
ENDBLK
  5
65A
  8
0
  0
BLOCK
  8
0
  2
*U50
 70
     1
 10
0.0
 20
0.0
 30
0.0
  3
*U50
  1

  0
TEXT
  5
65C
  8
SLD-0
 10
281.6340838581054982
 20
119.589726509432694
 30
0.0
 40
3.1749999999999989
  1
40,05
 41
0.913
  7
SLDTEXTSTYLE1
  0
ENDBLK
  5
65E
  8
0
  0
BLOCK
  8
0
  2
*U51
 70
     1
 10
0.0
 20
0.0
 30
0.0
  3
*U51
  1

  0
TEXT
  5
660
  8
SLD-0
 10
259.0691023612325807
 20
119.589726509432694
 30
0.0
 40
3.1749999999999989
  1
10
 41
0.913
  7
SLDTEXTSTYLE1
  0
ENDBLK
  5
662
  8
0
  0
BLOCK
  8
0
  2
*U52
 70
     1
 10
0.0
 20
0.0
 30
0.0
  3
*U52
  1

  0
TEXT
  5
664
  8
SLD-0
 10
222.5707777304560011
 20
205.3047293705523941
 30
0.0
 40
3.1749999999999989
  1
R95,16
 50
317.488955854538176
 41
0.913
  7
SLDTEXTSTYLE1
  0
ENDBLK
  5
666
  8
0
  0
BLOCK
  8
0
  2
*U53
 70
     1
 10
0.0
 20
0.0
 30
0.0
  3
*U53
  1

  0
TEXT
  5
668
  8
SLD-0
 10
255.3599908322007934
 20
157.6148163462935088
 30
0.0
 40
3.1749999999999989
  1
R10
 50
0.0000000000007888
 41
0.913
  7
SLDTEXTSTYLE1
  0
ENDBLK
  5
66A
  8
0
  0
BLOCK
  8
0
  2
*U54
 70
     1
 10
0.0
 20
0.0
 30
0.0
  3
*U54
  1

  0
TEXT
  5
66C
  8
SLD-0
 10
325.3717795796612222
 20
193.4112671788882096
 30
0.0
 40
3.1749999999999989
  1
2 x
 41
0.913
  7
SLDTEXTSTYLE1
  0
ENDBLK
  5
66E
  8
0
  0
BLOCK
  8
0
  2
*U55
 70
     1
 10
0.0
 20
0.0
 30
0.0
  3
*U55
  1

  0
TEXT
  5
670
  8
SLD-0
 10
331.9877536860972214
 20
193.3551488920084864
 30
0.0
 40
3.1749999999999989
  1

 41
0.913
  7
SLDTEXTSTYLE1
  0
ENDBLK
  5
672
  8
0
  0
BLOCK
  8
0
  2
*U56
 70
     1
 10
0.0
 20
0.0
 30
0.0
  3
*U56
  1

  0
TEXT
  5
674
  8
SLD-0
 10
337.0048906051761719
 20
193.4112671788882096
 30
0.0
 40
3.1749999999999989
  1
 9 PASSANTE
 41
0.913
  7
SLDTEXTSTYLE1
  0
ENDBLK
  5
676
  8
0
  0
BLOCK
  8
0
  2
*U57
 70
     1
 10
0.0
 20
0.0
 30
0.0
  3
*U57
  1

  0
TEXT
  5
678
  8
SLD-0
 10
333.8474777420727833
 20
188.3104268937341885
 30
0.0
 40
3.1749999999999989
  1

 41
0.913
  7
SLDTEXTSTYLE1
  0
ENDBLK
  5
67A
  8
0
  0
BLOCK
  8
0
  2
*U58
 70
     1
 10
0.0
 20
0.0
 30
0.0
  3
*U58
  1

  0
TEXT
  5
67C
  8
SLD-0
 10
338.864614195490617
 20
188.3665451806139117
 30
0.0
 40
3.1749999999999989
  1
 17,30 X 90
 41
0.913
  7
SLDTEXTSTYLE1
  0
ENDBLK
  5
67E
  8
0
  0
BLOCK
  8
0
  2
*U59
 70
     1
 10
0.0
 20
0.0
 30
0.0
  3
*U59
  1

  0
TEXT
  5
680
  8
SLD-0
 62
     0
 10
74.2846290102295796
 20
1.9135409585316101
 30
0.0
 40
3.1749999999999989
  1
105.15
 41
0.913
  7
SLDTEXTSTYLE1
  0
ENDBLK
  5
682
  8
0
  0
BLOCK
  8
0
  2
*U60
 70
     1
 10
0.0
 20
0.0
 30
0.0
  3
*U60
  1

  0
TEXT
  5
684
  8
SLD-0
 62
     0
 10
3.1420249820570669
 20
59.5382059398368568
 30
0.0
 40
3.1749999999999989
  1
95.16
 50
90.0
 41
0.913
  7
SLDTEXTSTYLE1
  0
ENDBLK
  5
686
  8
0
  0
BLOCK
  8
0
  2
*U61
 70
     1
 10
0.0
 20
0.0
 30
0.0
  3
*U61
  1

  0
TEXT
  5
688
  8
SLD-0
 62
     0
 10
19.1614505429000914
 20
85.0903336469308584
 30
0.0
 40
3.1749999999999989
  1
44.12
 50
90.0
 41
0.913
  7
SLDTEXTSTYLE1
  0
ENDBLK
  5
68A
  8
0
  0
BLOCK
  8
0
  2
*U62
 70
     1
 10
0.0
 20
0.0
 30
0.0
  3
*U62
  1

  0
TEXT
  5
68C
  8
SLD-0
 62
     0
 10
19.1420249820571016
 20
39.4114257149786269
 30
0.0
 40
3.1749999999999989
  1
10.99
 50
90.0
 41
0.913
  7
SLDTEXTSTYLE1
  0
ENDBLK
  5
68E
  8
0
  0
BLOCK
  8
0
  2
*U63
 70
     1
 10
0.0
 20
0.0
 30
0.0
  3
*U63
  1

  0
TEXT
  5
690
  8
SLD-0
 62
     0
 10
11.1420249820570696
 20
37.0107945530251428
 30
0.0
 40
3.1749999999999989
  1
30.05
 50
90.0
 41
0.913
  7
SLDTEXTSTYLE1
  0
ENDBLK
  5
692
  8
0
  0
BLOCK
  8
0
  2
*U64
 70
     1
 10
0.0
 20
0.0
 30
0.0
  3
*U64
  1

  0
TEXT
  5
694
  8
SLD-0
 62
     0
 10
125.7520234955739937
 20
9.9135409585315841
 30
0.0
 40
3.1749999999999989
  1
10
 41
0.913
  7
SLDTEXTSTYLE1
  0
ENDBLK
  5
696
  8
0
  0
BLOCK
  8
0
  2
*U65
 70
     1
 10
0.0
 20
0.0
 30
0.0
  3
*U65
  1

  0
TEXT
  5
698
  8
SLD-0
 62
     0
 10
98.1908416974774383
 20
9.9135409585315557
 30
0.0
 40
3.1749999999999989
  1
40.05
 41
0.913
  7
SLDTEXTSTYLE1
  0
ENDBLK
  5
69A
  8
0
  0
BLOCK
  8
0
  2
*U66
 70
     1
 10
0.0
 20
0.0
 30
0.0
  3
*U66
  1

  0
TEXT
  5
69C
  8
SLD-0
 62
     0
 10
75.7020234955740534
 20
9.9135409585315557
 30
0.0
 40
3.1749999999999989
  1
10
 41
0.913
  7
SLDTEXTSTYLE1
  0
ENDBLK
  5
69E
  8
0
  0
BLOCK
  8
0
  2
*U67
 70
     1
 10
0.0
 20
0.0
 30
0.0
  3
*U67
  1

  0
TEXT
  5
6A0
  8
SLD-0
 62
     0
 10
38.1049854935977308
 20
96.254215170801217
 30
0.0
 40
3.1749999999999989
  1
R95.16
 50
317.4889558545385739
 41
0.913
  7
SLDTEXTSTYLE1
  0
ENDBLK
  5
6A2
  8
0
  0
BLOCK
  8
0
  2
*U68
 70
     1
 10
0.0
 20
0.0
 30
0.0
  3
*U68
  1

  0
TEXT
  5
6A4
  8
SLD-0
 62
     0
 10
67.5739053021681428
 20
47.9635659585315679
 30
0.0
 40
3.1749999999999989
  1
R10
 41
0.913
  7
SLDTEXTSTYLE1
  0
ENDBLK
  5
6A6
  8
0
  0
BLOCK
  8
0
  2
*U69
 70
     1
 10
0.0
 20
0.0
 30
0.0
  3
*U69
  1

  0
TEXT
  5
6A9
  8
SLD-0
 62
     0
 10
153.4875867616086111
 20
84.0590208416738704
 30
0.0
 40
3.1749999999999989
  1
2 x 17.3 PASSANTE
 41
0.913
  7
SLDTEXTSTYLE1
  0
TEXT
  5
6AA
  8
SLD-0
 62
     0
 10
153.3278206209868131
 20
78.6313752491064548
 30
0.0
 40
3.1749999999999989
  1
w
 41
0.913
  7
MtXpl_GDT
  0
TEXT
  5
6AC
  8
SLD-0
 62
     0
 10
159.8072112583060971
 20
78.6313752491064548
 30
0.0
 40
3.1749999999999989
  1
 17.30 X 90
 41
0.913
  7
SLDTEXTSTYLE1
  0
ENDBLK
  5
6AE
  8
0
  0
BLOCK
  8
0
  2
*U70
 70
     1
 10
0.0
 20
0.0
 30
0.0
  3
*U70
  1

  0
TEXT
  5
6DA
  8
SLD-0
 10
94.8940226916531344
 20
181.3669549329939059
 30
0.0
 40
3.1749999999999989
  1
R3
 50
60.1377190600569023
 41
0.913
  7
SLDTEXTSTYLE1
  0
ENDBLK
  5
6DC
  8
0
  0
BLOCK
  8
0
  2
*U71
 70
     1
 10
0.0
 20
0.0
 30
0.0
  3
*U71
  1

  0
TEXT
  5
6DE
  8
SLD-0
 62
     0
 10
219.9011515939018864
 20
175.5191452918861046
 30
0.0
 40
3.1749999999999989
  1
R95.16
 50
48.3741217202611224
 41
0.913
  7
SLDTEXTSTYLE1
  0
ENDBLK
  5
6E0
  8
0
  0
BLOCK
  8
0
  2
*U72
 70
     1
 10
0.0
 20
0.0
 30
0.0
  3
*U72
  1

  0
TEXT
  5
6E2
  8
SLD-0
 62
     0
 10
187.5634388564920982
 20
218.8217169429013893
 30
0.0
 40
3.1749999999999989
  1
105.15
 41
0.913
  7
SLDTEXTSTYLE1
  0
ENDBLK
  5
6E4
  8
0
  0
BLOCK
  8
0
  2
*U73
 70
     1
 10
0.0
 20
0.0
 30
0.0
  3
*U73
  1

  0
TEXT
  5
6E6
  8
SLD-0
 62
     0
 10
116.4208348283195988
 20
139.5236607081019997
 30
0.0
 40
3.1749999999999989
  1
95.16
 50
90.0
 41
0.913
  7
SLDTEXTSTYLE1
  0
ENDBLK
  5
6E8
  8
0
  0
BLOCK
  8
0
  2
*U74
 70
     1
 10
0.0
 20
0.0
 30
0.0
  3
*U74
  1

  0
TEXT
  5
6EA
  8
SLD-0
 62
     0
 10
161.334306956123811
 20
209.0590207267968879
 30
0.0
 40
3.1749999999999989
  1
50.05
 41
0.913
  7
SLDTEXTSTYLE1
  0
ENDBLK
  5
6EC
  8
0
  0
BLOCK
  8
0
  2
*U75
 70
     1
 10
0.0
 20
0.0
 30
0.0
  3
*U75
  1

  0
TEXT
  5
6EE
  8
SLD-0
 62
     0
 10
124.4607651478301023
 20
159.9368719079660934
 30
0.0
 40
3.1749999999999989
  1
55.11
 50
90.0
 41
0.913
  7
SLDTEXTSTYLE1
  0
ENDBLK
  5
6F0
  8
0
  0
BLOCK
  8
0
  2
*U76
 70
     1
 10
0.0
 20
0.0
 30
0.0
  3
*U76
  1

  0
TEXT
  5
6F2
  8
SLD-0
 62
     0
 10
132.4402603891626029
 20
165.0757884151960866
 30
0.0
 40
3.1749999999999989
  1
44.12
 50
90.0
 41
0.913
  7
SLDTEXTSTYLE1
  0
ENDBLK
  5
6F4
  8
0
  0
BLOCK
  8
0
  2
*U77
 70
     1
 10
0.0
 20
0.0
 30
0.0
  3
*U77
  1

  0
TEXT
  5
6F6
  8
SLD-0
 62
     0
 10
124.4208348283196983
 20
116.9962493212905059
 30
0.0
 40
3.1749999999999989
  1
30.05
 50
90.0
 41
0.913
  7
SLDTEXTSTYLE1
  0
ENDBLK
  5
6F8
  8
0
  0
BLOCK
  8
0
  2
*U78
 70
     1
 10
0.0
 20
0.0
 30
0.0
  3
*U78
  1

  0
TEXT
  5
6FA
  8
SLD-0
 62
     0
 10
143.876033290250291
 20
201.0590207267968879
 30
0.0
 40
3.1749999999999989
  1
10
 41
0.913
  7
SLDTEXTSTYLE1
  0
ENDBLK
  5
6FC
  8
0
  0
BLOCK
  8
0
  2
*U79
 70
     1
 10
0.0
 20
0.0
 30
0.0
  3
*U79
  1

  0
TEXT
  5
6FE
  8
SLD-0
 62
     0
 10
193.9260332902503023
 20
89.8989957267970681
 30
0.0
 40
3.1749999999999989
  1
10
 41
0.913
  7
SLDTEXTSTYLE1
  0
ENDBLK
  5
700
  8
0
  0
BLOCK
  8
0
  2
*U80
 70
     1
 10
0.0
 20
0.0
 30
0.0
  3
*U80
  1

  0
TEXT
  5
702
  8
SLD-0
 62
     0
 10
199.2741860200092958
 20
131.5386895636158897
 30
0.0
 40
3.1749999999999989
  1
R10
 50
11.2904635389937198
 41
0.913
  7
SLDTEXTSTYLE1
  0
ENDBLK
  5
704
  8
0
  0
BLOCK
  8
0
  2
*U81
 70
     1
 10
0.0
 20
0.0
 30
0.0
  3
*U81
  1

  0
TEXT
  5
706
  8
SLD-0
 62
     0
 10
229.1391631441954075
 20
86.2629670677073648
 30
0.0
 40
3.1749999999999989
  1
2 x 17.3 PASSANTE
 41
0.913
  7
SLDTEXTSTYLE1
  0
TEXT
  5
707
  8
SLD-0
 62
     0
 10
228.9793970035734958
 20
80.8353214751399634
 30
0.0
 40
3.1749999999999989
  1
w
 41
0.913
  7
MtXpl_GDT
  0
TEXT
  5
708
  8
SLD-0
 62
     0
 10
235.4587876408928082
 20
80.8353214751399634
 30
0.0
 40
3.1749999999999989
  1
 17.30 X 90
 41
0.913
  7
SLDTEXTSTYLE1
  0
ENDBLK
  5
70A
  8
0
  0
BLOCK
  8
0
  2
*U82
 70
     1
 10
0.0
 20
0.0
 30
0.0
  3
*U82
  1

  0
TEXT
  5
70C
  8
SLD-0
 62
     0
 10
135.4140376367346903
 20
126.333602252423205
 30
0.0
 40
3.1749999999999989
  1
R3
 50
60.137719060056682
 41
0.913
  7
SLDTEXTSTYLE1
  0
ENDBLK
  5
70E
  8
0
  0
ENDSEC
  0
SECTION
  2
ENTITIES
  0
ARC
  5
354
  8
0
  6
CONTINUOUS
 62
     7
 10
123.2103659921748999
 20
17.0000250000000186
 30
0.0
 40
80.3599999999999852
 50
90.0
 51
180.0000000000007958
  0
LINE
  5
359
  8
0
  6
CONTINUOUS
 62
     7
 10
133.2103659921748999
 20
97.3600250000000358
 30
0.0
 11
123.2103659921748999
 21
97.3600250000000358
 31
0.0
  0
CIRCLE
  5
366
  8
0
  6
CONTINUOUS
 62
     7
 10
123.2103659921748999
 20
68.0392501116727146
 30
0.0
 40
8.6499999999999773
  0
CIRCLE
  5
367
  8
0
  6
CONTINUOUS
 62
     7
 10
73.1603659921749454
 20
27.0000250000000115
 30
0.0
 40
8.6500000000000341
  0
CIRCLE
  5
36B
  8
0
  6
CONTINUOUS
 62
     7
 10
73.1603659921749454
 20
27.0000250000000115
 30
0.0
 40
4.5
  0
CIRCLE
  5
36C
  8
0
  6
CONTINUOUS
 62
     7
 10
123.2103659921748999
 20
68.0392501116727146
 30
0.0
 40
4.5
  0
POLYLINE
  5
46D
  8
0
 66
     1
 10
0.0
 20
0.0
 30
0.0
 70
     1
  0
VERTEX
  5
6B2
  8
0
 10
140.9009891854493048
 20
94.5183168544835866
 30
0.0
  0
VERTEX
  5
6B3
  8
0
 10
133.2103659921748999
 20
94.3600250000000216
 30
0.0
  0
VERTEX
  5
6B4
  8
0
 10
123.2103659921748999
 20
94.3600250000000216
 30
0.0
 42
0.414213562373099
  0
VERTEX
  5
6B5
  8
0
 10
45.8503659921749716
 20
17.0000249999999902
 30
0.0
  0
VERTEX
  5
6B6
  8
0
 10
45.1605581819858273
 20
12.0454577376021899
 30
0.0
  0
VERTEX
  5
6B7
  8
0
 10
90.1815927878487855
 20
12.0454577376021899
 30
0.0
  0
VERTEX
  5
6B8
  8
0
 10
140.5700892191580067
 20
53.5376357169297918
 30
0.0
  0
SEQEND
  5
6B9
  8
0
  0
POLYLINE
  5
475
  8
0
  6
CONTINUOUS
 62
     7
 66
     1
 10
0.0
 20
0.0
 30
0.0
 70
     1
  0
VERTEX
  5
6BA
  8
0
  6
CONTINUOUS
 62
     7
 10
133.2103659921748999
 20
87.2600249999999846
 30
0.0
  0
VERTEX
  5
6BB
  8
0
  6
CONTINUOUS
 62
     7
 10
139.6461994499877051
 20
86.8271928546973868
 30
0.0
  0
VERTEX
  5
6BC
  8
0
  6
CONTINUOUS
 62
     7
 10
139.673125743585814
 20
92.3704915417620356
 30
0.0
  0
VERTEX
  5
6BD
  8
0
  6
CONTINUOUS
 62
     7
 10
133.2103659921748999
 20
92.4600250000000159
 30
0.0
  0
VERTEX
  5
6BE
  8
0
  6
CONTINUOUS
 62
     7
 10
123.2103659921748999
 20
92.4600250000000159
 30
0.0
 42
0.414213562373099
  0
VERTEX
  5
6BF
  8
0
  6
CONTINUOUS
 62
     7
 10
47.7503659921749488
 20
17.0000249999989883
 30
0.0
  0
VERTEX
  5
6C0
  8
0
  6
CONTINUOUS
 62
     7
 10
46.7999646167827379
 20
9.8007986412285391
 30
0.0
  0
VERTEX
  5
6C1
  8
0
  6
CONTINUOUS
 62
     7
 10
53.6036629876343724
 20
9.5814473750624511
 30
0.0
  0
VERTEX
  5
6C2
  8
0
  6
CONTINUOUS
 62
     7
 10
52.9503659921749588
 20
17.0000249999990594
 30
0.0
 42
-0.414213562373099
  0
VERTEX
  5
6C3
  8
0
  6
CONTINUOUS
 62
     7
 10
123.2103659921748999
 20
87.2600250000000131
 30
0.0
  0
SEQEND
  5
6C4
  8
0
  6
CONTINUOUS
 62
     7
  0
LINE
  5
476
  8
0
 10
42.8503659921749716
 20
17.0000249999999902
 30
0.0
 11
42.4177714679117273
 21
5.7829829879301542
 31
0.0
  0
LINE
  5
477
  8
0
 10
133.2103659921748999
 20
97.3600250000000358
 30
0.0
 11
143.825956321905295
 21
97.2873471366192462
 31
0.0
  0
POLYLINE
  5
478
  8
0
  6
CONTINUOUS
 62
     7
 66
     1
 10
0.0
 20
0.0
 30
0.0
 70
     1
  0
VERTEX
  5
6C5
  8
0
  6
CONTINUOUS
 62
     7
 10
133.2103659921748999
 20
87.2600249999999846
 30
0.0
  0
VERTEX
  5
6C6
  8
0
  6
CONTINUOUS
 62
     7
 10
133.2103659921748999
 20
60.0500250000000193
 30
0.0
 42
-0.4142135623730951
  0
VERTEX
  5
6C7
  8
0
  6
CONTINUOUS
 62
     7
 10
130.2103659921748999
 20
57.0500250000000193
 30
0.0
  0
VERTEX
  5
6C8
  8
0
  6
CONTINUOUS
 62
     7
 10
93.1603659921750022
 20
57.0500250000000193
 30
0.0
 42
0.4142135623730951
  0
VERTEX
  5
6C9
  8
0
  6
CONTINUOUS
 62
     7
 10
83.1603659921750022
 20
47.0500250000000122
 30
0.0
  0
VERTEX
  5
6CA
  8
0
  6
CONTINUOUS
 62
     7
 10
83.1603659921750165
 20
20.0000250000000115
 30
0.0
 42
-0.4142135623730951
  0
VERTEX
  5
6CB
  8
0
  6
CONTINUOUS
 62
     7
 10
80.1603659921750022
 20
17.0000249999999902
 30
0.0
  0
VERTEX
  5
6CC
  8
0
  6
CONTINUOUS
 62
     7
 10
57.8503659921749502
 20
17.0000249999999902
 30
0.0
  0
VERTEX
  5
6CD
  8
0
  6
CONTINUOUS
 62
     7
 10
52.9503659921749588
 20
17.0000249999999902
 30
0.0
  0
VERTEX
  5
6CE
  8
0
  6
CONTINUOUS
 62
     7
 10
47.7503659921749488
 20
17.0000249999999618
 30
0.0
  0
VERTEX
  5
6CF
  8
0
  6
CONTINUOUS
 62
     7
 10
45.8503659921749716
 20
17.0000249999999902
 30
0.0
  0
VERTEX
  5
6D0
  8
0
  6
CONTINUOUS
 62
     7
 10
42.8503659921749716
 20
17.0000249999999902
 30
0.0
  0
VERTEX
  5
6D1
  8
0
  6
CONTINUOUS
 62
     7
 10
29.0503659921749886
 20
17.0000249999999902
 30
0.0
  0
VERTEX
  5
6D2
  8
0
  6
CONTINUOUS
 62
     7
 10
28.0555659405886786
 20
17.9948250515863002
 30
0.0
 42
-0.4111549130771917
  0
VERTEX
  5
6D3
  8
0
  6
CONTINUOUS
 62
     7
 10
123.2103659921748999
 20
112.1600250000000045
 30
0.0
  0
VERTEX
  5
6D4
  8
0
  6
CONTINUOUS
 62
     7
 10
133.2103659921748999
 20
112.1600250000000045
 30
0.0
  0
VERTEX
  5
6D5
  8
0
  6
CONTINUOUS
 62
     7
 10
133.2103659921748999
 20
97.3600250000000358
 30
0.0
  0
VERTEX
  5
6D6
  8
0
  6
CONTINUOUS
 62
     7
 10
133.2103659921748999
 20
94.3600250000000216
 30
0.0
  0
VERTEX
  5
6D7
  8
0
  6
CONTINUOUS
 62
     7
 10
133.2103659921748999
 20
92.4600250000000159
 30
0.0
  0
SEQEND
  5
6D8
  8
0
  6
CONTINUOUS
 62
     7
  0
ENDSEC
  0
EOF
