  0
SECTION
  2
HEADER
  9
$ACADVER
  1
AC1009
  9
$INSBASE
 10
0.0
 20
0.0
 30
0.0
  9
$EXTMIN
 10
-0.0892634140850532
 20
-0.0000000000001524
 30
0.0
  9
$EXTMAX
 10
905.2494702131510849
 20
224.7912184874703883
 30
0.0
  9
$LIMMIN
 10
0.0
 20
0.0
  9
$LIMMAX
 10
420.0
 20
297.0
  9
$ORTHOMODE
 70
     0
  9
$REGENMODE
 70
     1
  9
$FILLMODE
 70
     1
  9
$QTEXTMODE
 70
     0
  9
$MIRRTEXT
 70
     0
  9
$DRAGMODE
 70
     2
  9
$LTSCALE
 40
1.0
  9
$OSMODE
 70
   103
  9
$ATTMODE
 70
     1
  9
$TEXTSIZE
 40
2.5
  9
$TRACEWID
 40
1.0
  9
$TEXTSTYLE
  7
STANDARD
  9
$CLAYER
  8
0
  9
$CELTYPE
  6
BYLAYER
  9
$CECOLOR
 62
   256
  9
$DIMSCALE
 40
1.0
  9
$DIMASZ
 40
2.5
  9
$DIMEXO
 40
0.625
  9
$DIMDLI
 40
3.75
  9
$DIMRND
 40
0.0
  9
$DIMDLE
 40
0.0
  9
$DIMEXE
 40
1.25
  9
$DIMTP
 40
0.0
  9
$DIMTM
 40
0.0
  9
$DIMTXT
 40
2.5
  9
$DIMCEN
 40
2.5
  9
$DIMTSZ
 40
0.0
  9
$DIMTOL
 70
     0
  9
$DIMLIM
 70
     0
  9
$DIMTIH
 70
     0
  9
$DIMTOH
 70
     0
  9
$DIMSE1
 70
     0
  9
$DIMSE2
 70
     0
  9
$DIMTAD
 70
     1
  9
$DIMZIN
 70
     8
  9
$DIMBLK
  1

  9
$DIMASO
 70
     1
  9
$DIMSHO
 70
     1
  9
$DIMPOST
  1

  9
$DIMAPOST
  1

  9
$DIMALT
 70
     0
  9
$DIMALTD
 70
     3
  9
$DIMALTF
 40
0.03937007874016
  9
$DIMLFAC
 40
1.0
  9
$DIMTOFL
 70
     1
  9
$DIMTVP
 40
0.0
  9
$DIMTIX
 70
     0
  9
$DIMSOXD
 70
     0
  9
$DIMSAH
 70
     0
  9
$DIMBLK1
  1

  9
$DIMBLK2
  1

  9
$DIMSTYLE
  2
ISO-25
  9
$DIMCLRD
 70
     0
  9
$DIMCLRE
 70
     0
  9
$DIMCLRT
 70
     0
  9
$DIMTFAC
 40
1.0
  9
$DIMGAP
 40
0.625
  9
$LUNITS
 70
     2
  9
$LUPREC
 70
     4
  9
$SKETCHINC
 40
1.0
  9
$FILLETRAD
 40
0.0
  9
$AUNITS
 70
     0
  9
$AUPREC
 70
     0
  9
$MENU
  1
.
  9
$ELEVATION
 40
0.0
  9
$PELEVATION
 40
0.0
  9
$THICKNESS
 40
0.0
  9
$LIMCHECK
 70
     0
  9
$BLIPMODE
 70
     0
  9
$CHAMFERA
 40
0.0
  9
$CHAMFERB
 40
0.0
  9
$SKPOLY
 70
     0
  9
$TDCREATE
 40
2460825.2370717590674758
  9
$TDUPDATE
 40
2460826.6811574068851769
  9
$TDINDWG
 40
0.013125
  9
$TDUSRTIMER
 40
0.013125
  9
$USRTIMER
 70
     1
  9
$ANGBASE
 50
0.0
  9
$ANGDIR
 70
     0
  9
$PDMODE
 70
     0
  9
$PDSIZE
 40
0.0
  9
$PLINEWID
 40
0.0
  9
$COORDS
 70
     1
  9
$SPLFRAME
 70
     0
  9
$SPLINETYPE
 70
     6
  9
$SPLINESEGS
 70
     8
  9
$ATTDIA
 70
     1
  9
$ATTREQ
 70
     1
  9
$HANDLING
 70
     1
  9
$HANDSEED
  5
7A9
  9
$SURFTAB1
 70
     6
  9
$SURFTAB2
 70
     6
  9
$SURFTYPE
 70
     6
  9
$SURFU
 70
     6
  9
$SURFV
 70
     6
  9
$UCSNAME
  2

  9
$UCSORG
 10
0.0
 20
0.0
 30
0.0
  9
$UCSXDIR
 10
1.0
 20
0.0
 30
0.0
  9
$UCSYDIR
 10
0.0
 20
1.0
 30
0.0
  9
$PUCSNAME
  2

  9
$PUCSORG
 10
0.0
 20
0.0
 30
0.0
  9
$PUCSXDIR
 10
1.0
 20
0.0
 30
0.0
  9
$PUCSYDIR
 10
0.0
 20
1.0
 30
0.0
  9
$USERI1
 70
     0
  9
$USERI2
 70
     0
  9
$USERI3
 70
     0
  9
$USERI4
 70
     0
  9
$USERI5
 70
     0
  9
$USERR1
 40
0.0
  9
$USERR2
 40
0.0
  9
$USERR3
 40
0.0
  9
$USERR4
 40
0.0
  9
$USERR5
 40
0.0
  9
$WORLDVIEW
 70
     1
  9
$SHADEDGE
 70
     3
  9
$SHADEDIF
 70
    70
  9
$TILEMODE
 70
     1
  9
$MAXACTVP
 70
    64
  9
$PLIMCHECK
 70
     0
  9
$PEXTMIN
 10
0.0
 20
0.0
 30
0.0
  9
$PEXTMAX
 10
0.0
 20
0.0
 30
0.0
  9
$PLIMMIN
 10
0.0
 20
0.0
  9
$PLIMMAX
 10
12.0
 20
9.0
  9
$UNITMODE
 70
     0
  9
$VISRETAIN
 70
     1
  9
$PLINEGEN
 70
     0
  9
$PSLTSCALE
 70
     1
  0
ENDSEC
  0
SECTION
  2
TABLES
  0
TABLE
  2
VPORT
 70
     1
  0
VPORT
  2
*ACTIVE
 70
     0
 10
0.0
 20
0.0
 11
1.0
 21
1.0
 12
822.0804809063117773
 22
137.998161447846087
 13
0.0
 23
0.0
 14
10.0
 24
10.0
 15
10.0
 25
10.0
 16
0.0
 26
0.0
 36
1.0
 17
0.0
 27
0.0
 37
0.0
 40
206.3170209975579041
 41
2.057173678532902
 42
50.0
 43
0.0
 44
0.0
 50
0.0
 51
0.0
 71
     0
 72
  1000
 73
     1
 74
     3
 75
     0
 76
     1
 77
     0
 78
     0
  0
ENDTAB
  0
TABLE
  2
LTYPE
 70
     4
  0
LTYPE
  2
CONTINUOUS
 70
     0
  3
Solid line
 72
    65
 73
     0
 40
0.0
  0
LTYPE
  2
CHAIN
 70
     0
  3
Chain ____ _ ____ _ ____ _ ____ _ ____ _ ____
 72
    65
 73
     4
 40
0.3543
 49
0.2362
 49
-0.0295
 49
0.0591
 49
-0.0295
  0
LTYPE
  2
DASHED
 70
     0
  3
Dashed __ __ __ __ __ __ __ __ __ __ __ __ __ _
 72
    65
 73
     2
 40
0.2067
 49
0.1654
 49
-0.0413
  0
ENDTAB
  0
TABLE
  2
LAYER
 70
     7
  0
LAYER
  2
0
 70
     0
 62
     7
  6
CONTINUOUS
  0
LAYER
  2
TMG_-_COTA
 70
     0
 62
     1
  6
CONTINUOUS
  0
LAYER
  2
TMG_-_MARCA_DE_CENTRO
 70
     0
 62
     5
  6
CONTINUOUS
  0
LAYER
  2
TMG_-_OCULTA
 70
     0
 62
     7
  6
DASHED
  0
LAYER
  2
TMG_-_SECÇÃO
 70
     0
 62
     7
  6
CHAIN
  0
LAYER
  2
TMG_-_VISÍVEL
 70
     0
 62
     7
  6
CONTINUOUS
  0
LAYER
  2
DEFPOINTS
 70
     0
 62
     7
  6
CONTINUOUS
  0
ENDTAB
  0
TABLE
  2
STYLE
 70
     5
  0
STYLE
  2
STANDARD
 70
     0
 40
0.0
 41
1.0
 50
0.0
 71
     0
 42
2.5
  3
txt
  4

  0
STYLE
  2
ANNOTATIVE
 70
     0
 40
0.0
 41
1.0
 50
0.0
 71
     0
 42
2.5
  3
txt
  4

  0
STYLE
  2
TMG_-_COTA
 70
     0
 40
0.0
 41
1.0
 50
0.0
 71
     0
 42
0.2
  3
txt
  4

  0
STYLE
  2
MTXPL_TECHNIC
 70
     0
 40
0.0
 41
1.0
 50
0.0
 71
     0
 42
2.5
  3
txt
  4

  0
STYLE
  2
MTXPL_AIGDT
 70
     0
 40
0.0
 41
1.0
 50
0.0
 71
     0
 42
2.5
  3
txt
  4

  0
ENDTAB
  0
TABLE
  2
VIEW
 70
     0
  0
ENDTAB
  0
TABLE
  2
UCS
 70
     0
  0
ENDTAB
  0
TABLE
  2
APPID
 70
    11
  0
APPID
  2
ACAD
 70
     0
  0
APPID
  2
ACADANNOTATIVE
 70
     0
  0
APPID
  2
ACAD_PSEXT
 70
     0
  0
APPID
  2
ACADANNOPO
 70
     0
  0
APPID
  2
ACAD_DSTYLE_DIMJAG
 70
     0
  0
APPID
  2
ACAD_DSTYLE_DIMTALN
 70
     0
  0
APPID
  2
ACAD_MLEADERVER
 70
     0
  0
APPID
  2
ACAD_NAV_VCDISPLAY
 70
     0
  0
APPID
  2
ACAD_DSTYLE_DIMRADIAL_EXTENSION
 70
     0
  0
APPID
  2
ACAD_DSTYLE_DIMANGULAR_EXT
 70
     0
  0
APPID
  2
ACAD_EXEMPT_FROM_CAD_STANDARDS
 70
     0
  0
ENDTAB
  0
TABLE
  2
DIMSTYLE
 70
     6
  0
DIMSTYLE
  2
STANDARD
 70
     0
  3

  4

  5

  6

  7

 40
1.0
 41
0.18
 42
0.0625
 43
0.38
 44
0.18
 45
0.0
 46
0.0
 47
0.0
 48
0.0
140
0.18
141
0.09
142
0.0
143
25.3999999999999986
144
1.0
145
0.0
146
1.0
147
0.09
 71
     0
 72
     0
 73
     1
 74
     1
 75
     0
 76
     0
 77
     0
 78
     0
170
     0
171
     2
172
     0
173
     0
174
     0
175
     0
176
     0
177
     0
178
     0
  0
DIMSTYLE
  2
ANNOTATIVE
 70
     0
  3

  4

  5

  6

  7

 40
0.0
 41
2.5
 42
0.625
 43
3.75
 44
1.25
 45
0.0
 46
0.0
 47
0.0
 48
0.0
140
2.5
141
2.5
142
0.0
143
0.03937007874016
144
1.0
145
0.0
146
1.0
147
0.625
 71
     0
 72
     0
 73
     0
 74
     0
 75
     0
 76
     0
 77
     1
 78
     8
170
     0
171
     3
172
     1
173
     0
174
     0
175
     0
176
     0
177
     0
178
     0
  0
DIMSTYLE
  2
ISO-25
 70
     0
  3

  4

  5

  6

  7

 40
1.0
 41
2.5
 42
0.625
 43
3.75
 44
1.25
 45
0.0
 46
0.0
 47
0.0
 48
0.0
140
2.5
141
2.5
142
0.0
143
0.03937007874016
144
1.0
145
0.0
146
1.0
147
0.625
 71
     0
 72
     0
 73
     0
 74
     0
 75
     0
 76
     0
 77
     1
 78
     8
170
     0
171
     3
172
     1
173
     0
174
     0
175
     0
176
     0
177
     0
178
     0
  0
DIMSTYLE
  2
TMG_-_COTA
 70
     0
  3

  4

  5

  6

  7

 40
2.5
 41
2.5
 42
1.0
 43
5.9999999999999991
 44
1.0
 45
0.00000001
 46
10.0
 47
0.0
 48
0.0
140
3.4000000953674312
141
0.09
142
0.0
143
1.0
144
1.0
145
0.0
146
0.4705882072448732
147
0.8
 71
     0
 72
     0
 73
     0
 74
     0
 75
     0
 76
     0
 77
     0
 78
     8
170
     0
171
     3
172
     1
173
     0
174
     0
175
     0
176
   256
177
   256
178
   256
  0
DIMSTYLE
  2
TMG_-_COTA$7
 70
     0
  3

  4

  5

  6

  7

 40
2.5
 41
2.5
 42
1.0
 43
5.9999999999999991
 44
1.0
 45
0.00000001
 46
10.0
 47
0.0
 48
0.0
140
3.4000000953674312
141
0.09
142
0.0
143
1.0
144
1.0
145
0.0
146
0.4705882072448732
147
0.8
 71
     0
 72
     0
 73
     0
 74
     0
 75
     0
 76
     0
 77
     0
 78
     8
170
     0
171
     3
172
     1
173
     0
174
     0
175
     0
176
   256
177
   256
178
   256
  0
ENDTAB
  0
ENDSEC
  0
SECTION
  2
BLOCKS
  0
BLOCK
  8
0
  2
$MODEL_SPACE
 70
     0
 10
0.0
 20
0.0
 30
0.0
  3
$MODEL_SPACE
  1

  0
ENDBLK
  5
657
  8
0
  0
BLOCK
 67
     1
  8
0
  2
$PAPER_SPACE
 70
     0
 10
0.0
 20
0.0
 30
0.0
  3
$PAPER_SPACE
  1

  0
ENDBLK
  5
653
 67
     1
  8
0
  0
BLOCK
  8
0
  2
OPEN-1
 70
     0
 10
0.0
 20
0.0
 30
0.0
  3
OPEN-1
  1

  0
LINE
  5
297
  8
0
 62
     0
 10
-1.0
 20
0.0
 30
0.0
 11
0.0
 21
0.0
 31
0.0
  0
LINE
  5
298
  8
0
 62
     0
 10
-1.0
 20
-0.25
 30
0.0
 11
0.0
 21
0.0
 31
0.0
  0
LINE
  5
299
  8
0
 62
     0
 10
0.0
 20
0.0
 30
0.0
 11
-1.0
 21
0.25
 31
0.0
  0
ENDBLK
  5
29A
  8
0
  0
BLOCK
  8
0
  2
_OPEN
 70
     0
 10
0.0
 20
0.0
 30
0.0
  3
_OPEN
  1

  0
LINE
  5
29D
  8
0
  6
BYBLOCK
 62
     0
 10
-1.0
 20
0.1666666666666666
 30
0.0
 11
0.0
 21
0.0
 31
0.0
  0
LINE
  5
29E
  8
0
  6
BYBLOCK
 62
     0
 10
-1.0
 20
-0.1666666666666666
 30
0.0
 11
0.0
 21
0.0
 31
0.0
  0
LINE
  5
29F
  8
0
  6
BYBLOCK
 62
     0
 10
0.0
 20
0.0
 30
0.0
 11
-1.0
 21
0.0
 31
0.0
  0
ENDBLK
  5
2A0
  8
0
  0
BLOCK
  8
0
  2
_CLOSED
 70
     0
 10
0.0
 20
0.0
 30
0.0
  3
_CLOSED
  1

  0
LINE
  5
2A3
  8
0
  6
BYBLOCK
 62
     0
 10
-1.0
 20
0.1666666666666666
 30
0.0
 11
0.0
 21
0.0
 31
0.0
  0
LINE
  5
2A4
  8
0
  6
BYBLOCK
 62
     0
 10
0.0
 20
0.0
 30
0.0
 11
-1.0
 21
-0.1666666666666666
 31
0.0
  0
LINE
  5
2A5
  8
0
  6
BYBLOCK
 62
     0
 10
-1.0
 20
0.1666666666666666
 30
0.0
 11
-1.0
 21
-0.1666666666666666
 31
0.0
  0
LINE
  5
2A6
  8
0
  6
BYBLOCK
 62
     0
 10
0.0
 20
0.0
 30
0.0
 11
-1.0
 21
0.0
 31
0.0
  0
ENDBLK
  5
2A7
  8
0
  0
BLOCK
  8
0
  2
SEÇÃOTRANS2D0
 70
     0
 10
0.0
 20
0.0
 30
0.0
  3
SEÇÃOTRANS2D0
  1

  0
LINE
  5
2AA
  8
TMG_-_SECÇÃO
  6
CHAIN
 10
281.4816930686303067
 20
230.4985600999546875
 30
0.0
 11
281.4816930686303067
 21
203.9202376012291893
 31
0.0
  0
LINE
  5
2AB
  8
TMG_-_SECÇÃO
  6
CONTINUOUS
 10
281.4816930686303067
 20
230.4985600999546875
 30
0.0
 11
281.4816930686303067
 21
227.9359426001367979
 31
0.0
  0
LINE
  5
2AC
  8
TMG_-_SECÇÃO
  6
CONTINUOUS
 10
281.4816930686303067
 20
206.4828551010471926
 30
0.0
 11
281.4816930686303067
 21
203.9202376012291893
 31
0.0
  0
LINE
  5
2AD
  8
TMG_-_SECÇÃO
  6
CONTINUOUS
 10
278.4816930686304204
 20
229.2172513500458138
 30
0.0
 11
281.4816930686303067
 21
229.2172513500458138
 31
0.0
  0
LINE
  5
2AE
  8
TMG_-_SECÇÃO
  6
CONTINUOUS
 10
278.4816930686304204
 20
228.4672513500458138
 30
0.0
 11
281.4816930686303067
 21
229.2172513500458138
 31
0.0
  0
LINE
  5
2AF
  8
TMG_-_SECÇÃO
  6
CONTINUOUS
 10
281.4816930686303067
 20
229.2172513500458138
 30
0.0
 11
278.4816930686304204
 21
229.9672513500458138
 31
0.0
  0
LINE
  5
2B0
  8
TMG_-_SECÇÃO
  6
CONTINUOUS
 10
273.8730301037861068
 20
229.2172513500458138
 30
0.0
 11
278.4816930686304204
 21
229.2172513500458138
 31
0.0
  0
LINE
  5
2B1
  8
TMG_-_SECÇÃO
  6
CONTINUOUS
 10
278.4816930686304204
 20
205.2015463511382052
 30
0.0
 11
281.4816930686303067
 21
205.2015463511382052
 31
0.0
  0
LINE
  5
2B2
  8
TMG_-_SECÇÃO
  6
CONTINUOUS
 10
278.4816930686304204
 20
204.4515463511382052
 30
0.0
 11
281.4816930686303067
 21
205.2015463511382052
 31
0.0
  0
LINE
  5
2B3
  8
TMG_-_SECÇÃO
  6
CONTINUOUS
 10
281.4816930686303067
 20
205.2015463511382052
 30
0.0
 11
278.4816930686304204
 21
205.9515463511382052
 31
0.0
  0
LINE
  5
2B4
  8
TMG_-_SECÇÃO
  6
CONTINUOUS
 10
273.8730301037861068
 20
205.2015463511382052
 30
0.0
 11
278.4816930686304204
 21
205.2015463511382052
 31
0.0
  0
INSERT
  5
2B5
  8
0
  2
*U6
 10
0.0
 20
0.0
 30
0.0
  0
INSERT
  5
2B6
  8
0
  2
*U7
 10
0.0
 20
0.0
 30
0.0
  0
ENDBLK
  5
2B7
  8
0
  0
BLOCK
  8
0
  2
*U6
 70
     1
 10
0.0
 20
0.0
 30
0.0
  3
*U6
  1

  0
TEXT
  5
533
  8
TMG_-_SECÇÃO
 10
267.2786626951644848
 20
227.5308708977217123
 30
0.0
 40
3.400000035762786
  1
A
  7
MTXPL_TECHNIC
  0
ENDBLK
  5
536
  8
0
  0
BLOCK
  8
0
  2
*U7
 70
     1
 10
0.0
 20
0.0
 30
0.0
  3
*U7
  1

  0
TEXT
  5
538
  8
TMG_-_SECÇÃO
 10
267.2786626951644848
 20
203.5151658988143026
 30
0.0
 40
3.400000035762786
  1
A
  7
MTXPL_TECHNIC
  0
ENDBLK
  5
53A
  8
0
  0
BLOCK
  8
0
  2
*D8
 70
     1
 10
0.0
 20
0.0
 30
0.0
  3
*D8
  1

  0
LINE
  5
2BA
  8
TMG_-_COTA
 10
120.3708993382437029
 20
560.9672100158188641
 30
0.0
 11
120.3708993382437029
 21
593.4672100158189778
 31
0.0
  0
INSERT
  5
2BB
  8
0
  2
*U9
 10
0.0
 20
0.0
 30
0.0
  0
POINT
  5
2BC
  8
DEFPOINTS
 62
     0
 10
120.3708993382437029
 20
558.4672100158187504
 30
0.0
  0
POINT
  5
2BD
  8
DEFPOINTS
 62
     0
 10
120.3708993382437029
 20
593.4672100158189778
 30
0.0
  0
POINT
  5
2BE
  8
DEFPOINTS
 62
     0
 10
120.3708993382436034
 20
568.4672100158182957
 30
0.0
  0
ENDBLK
  5
2BF
  8
0
  0
BLOCK
  8
0
  2
*U9
 70
     1
 10
0.0
 20
0.0
 30
0.0
  3
*U9
  1

  0
TEXT
  5
53C
  8
TMG_-_COTA
 10
124.5463380518529988
 20
594.746449807067961
 30
0.0
 40
8.5000002384185791
  1
0
 50
90.0
  7
MTXPL_TECHNIC
  0
ENDBLK
  5
53E
  8
0
  0
BLOCK
  8
0
  2
*D10
 70
     1
 10
0.0
 20
0.0
 30
0.0
  3
*D10
  1

  0
LINE
  5
2C2
  8
TMG_-_COTA
 10
1010.3708993382520021
 20
560.9672100158190915
 30
0.0
 11
1010.3708993382520021
 21
593.4672100158190915
 31
0.0
  0
INSERT
  5
2C3
  8
0
  2
*U11
 10
0.0
 20
0.0
 30
0.0
  0
POINT
  5
2C4
  8
DEFPOINTS
 62
     0
 10
1010.3708993382520021
 20
558.4672100158192052
 30
0.0
  0
POINT
  5
2C5
  8
DEFPOINTS
 62
     0
 10
1010.3708993382520021
 20
593.4672100158190915
 30
0.0
  0
POINT
  5
2C6
  8
DEFPOINTS
 62
     0
 10
120.3708993382436034
 20
568.4672100158182957
 30
0.0
  0
ENDBLK
  5
2C7
  8
0
  0
BLOCK
  8
0
  2
*U11
 70
     1
 10
0.0
 20
0.0
 30
0.0
  3
*U11
  1

  0
TEXT
  5
540
  8
TMG_-_COTA
 10
1014.5463380518599479
 20
594.7713037339054836
 30
0.0
 40
8.5000002384185791
  1
890
 50
90.0
  7
MTXPL_TECHNIC
  0
ENDBLK
  5
542
  8
0
  0
BLOCK
  8
0
  2
*D12
 70
     1
 10
0.0
 20
0.0
 30
0.0
  3
*D12
  1

  0
LINE
  5
2CA
  8
TMG_-_COTA
 10
150.3708993382437882
 20
555.9672100158187504
 30
0.0
 11
150.3708993382437882
 21
593.4672100158190915
 31
0.0
  0
INSERT
  5
2CB
  8
0
  2
*U13
 10
0.0
 20
0.0
 30
0.0
  0
POINT
  5
2CC
  8
DEFPOINTS
 62
     0
 10
150.3708993382437882
 20
553.4672100158187504
 30
0.0
  0
POINT
  5
2CD
  8
DEFPOINTS
 62
     0
 10
150.3708993382437882
 20
593.4672100158190915
 30
0.0
  0
POINT
  5
2CE
  8
DEFPOINTS
 62
     0
 10
120.3708993382436034
 20
568.4672100158182957
 30
0.0
  0
ENDBLK
  5
2CF
  8
0
  0
BLOCK
  8
0
  2
*U13
 70
     1
 10
0.0
 20
0.0
 30
0.0
  3
*U13
  1

  0
TEXT
  5
544
  8
TMG_-_COTA
 10
154.4282824929861135
 20
594.9079995827836456
 30
0.0
 40
8.5000002384185791
  1
30
 50
90.0
  7
MTXPL_TECHNIC
  0
ENDBLK
  5
546
  8
0
  0
BLOCK
  8
0
  2
*D14
 70
     1
 10
0.0
 20
0.0
 30
0.0
  3
*D14
  1

  0
LINE
  5
2D2
  8
TMG_-_COTA
 10
427.0375660049140834
 20
555.9672100158189778
 30
0.0
 11
427.0375660049140834
 21
593.4672100158190915
 31
0.0
  0
INSERT
  5
2D3
  8
0
  2
*U15
 10
0.0
 20
0.0
 30
0.0
  0
POINT
  5
2D4
  8
DEFPOINTS
 62
     0
 10
427.0375660049140834
 20
553.4672100158187504
 30
0.0
  0
POINT
  5
2D5
  8
DEFPOINTS
 62
     0
 10
427.0375660049140834
 20
593.4672100158190915
 30
0.0
  0
POINT
  5
2D6
  8
DEFPOINTS
 62
     0
 10
120.3708993382436034
 20
568.4672100158182957
 30
0.0
  0
ENDBLK
  5
2D7
  8
0
  0
BLOCK
  8
0
  2
*U15
 70
     1
 10
0.0
 20
0.0
 30
0.0
  3
*U15
  1

  0
TEXT
  5
548
  8
TMG_-_COTA
 10
430.5481655185884051
 20
594.9079997364758583
 30
0.0
 40
8.5000002384185791
  1
306,7
 50
90.0
  7
MTXPL_TECHNIC
  0
ENDBLK
  5
54A
  8
0
  0
BLOCK
  8
0
  2
*D16
 70
     1
 10
0.0
 20
0.0
 30
0.0
  3
*D16
  1

  0
LINE
  5
2DA
  8
TMG_-_COTA
 10
703.7042326715811669
 20
555.9672100158190915
 30
0.0
 11
703.7042326715812806
 21
593.4672100158190915
 31
0.0
  0
INSERT
  5
2DB
  8
0
  2
*U17
 10
0.0
 20
0.0
 30
0.0
  0
POINT
  5
2DC
  8
DEFPOINTS
 62
     0
 10
703.7042326715811669
 20
553.4672100158188641
 30
0.0
  0
POINT
  5
2DD
  8
DEFPOINTS
 62
     0
 10
703.7042326715812806
 20
593.4672100158190915
 30
0.0
  0
POINT
  5
2DE
  8
DEFPOINTS
 62
     0
 10
120.3708993382436034
 20
568.4672100158182957
 30
0.0
  0
ENDBLK
  5
2DF
  8
0
  0
BLOCK
  8
0
  2
*U17
 70
     1
 10
0.0
 20
0.0
 30
0.0
  3
*U17
  1

  0
TEXT
  5
54C
  8
TMG_-_COTA
 10
707.2148321852555455
 20
594.82101142698275
 30
0.0
 40
8.5000002384185791
  1
583,3
 50
90.0
  7
MTXPL_TECHNIC
  0
ENDBLK
  5
54E
  8
0
  0
BLOCK
  8
0
  2
*D18
 70
     1
 10
0.0
 20
0.0
 30
0.0
  3
*D18
  1

  0
LINE
  5
2E2
  8
TMG_-_COTA
 10
980.3708993382524568
 20
555.9672100158190915
 30
0.0
 11
980.3708993382524568
 21
593.4672100158190915
 31
0.0
  0
INSERT
  5
2E3
  8
0
  2
*U19
 10
0.0
 20
0.0
 30
0.0
  0
POINT
  5
2E4
  8
DEFPOINTS
 62
     0
 10
980.3708993382524568
 20
553.4672100158188641
 30
0.0
  0
POINT
  5
2E5
  8
DEFPOINTS
 62
     0
 10
980.3708993382524568
 20
593.4672100158190915
 30
0.0
  0
POINT
  5
2E6
  8
DEFPOINTS
 62
     0
 10
120.3708993382436034
 20
568.4672100158182957
 30
0.0
  0
ENDBLK
  5
2E7
  8
0
  0
BLOCK
  8
0
  2
*U19
 70
     1
 10
0.0
 20
0.0
 30
0.0
  3
*U19
  1

  0
TEXT
  5
550
  8
TMG_-_COTA
 10
984.5463380518616532
 20
594.7713037339054836
 30
0.0
 40
8.5000002384185791
  1
860
 50
90.0
  7
MTXPL_TECHNIC
  0
ENDBLK
  5
552
  8
0
  0
BLOCK
  8
0
  2
*D20
 70
     1
 10
0.0
 20
0.0
 30
0.0
  3
*D20
  1

  0
LINE
  5
2EA
  8
TMG_-_COTA
 10
244.0215482851249078
 20
545.3926484896919646
 30
0.0
 11
217.3468312070999104
 21
545.3926484896919646
 31
0.0
  0
LINE
  5
2EB
  8
TMG_-_COTA
 10
217.3468312070999104
 20
545.3926484896919646
 30
0.0
 11
204.4438121497404097
 21
552.8422100158154535
 31
0.0
  0
INSERT
  5
2EC
  8
0
  2
*U21
 10
0.0
 20
0.0
 30
0.0
  0
INSERT
  5
2ED
  8
TMG_-_COTA
  2
_OPEN
 10
199.0311533760873033
 20
555.9672100158148851
 30
0.0
 41
6.25
 42
6.25
 43
6.25
 50
150.0000000000059117
  0
POINT
  5
2EE
  8
DEFPOINTS
 62
     0
 10
199.0311533760873033
 20
555.9672100158148851
 30
0.0
  0
POINT
  5
2EF
  8
DEFPOINTS
 62
     0
 10
190.3708993382423955
 20
560.9672100158140893
 30
0.0
  0
ENDBLK
  5
2F0
  8
0
  0
BLOCK
  8
0
  2
*U21
 70
     1
 10
0.0
 20
0.0
 30
0.0
  3
*U21
  1

  0
TEXT
  5
554
  8
TMG_-_COTA
 10
226.8972786539218873
 20
547.5417713035230918
 30
0.0
 40
8.5000002384185791
  1
R10
  7
MTXPL_TECHNIC
  0
ENDBLK
  5
556
  8
0
  0
BLOCK
  8
0
  2
*D22
 70
     1
 10
0.0
 20
0.0
 30
0.0
  3
*D22
  1

  0
LINE
  5
2F3
  8
TMG_-_COTA
 10
208.6316474631562983
 20
647.3573095457727504
 30
0.0
 11
178.8067625988545046
 21
647.3573095457728641
 31
0.0
  0
LINE
  5
2F4
  8
TMG_-_COTA
 10
178.8067625988545046
 20
647.3573095457728641
 30
0.0
 11
165.6093836138765027
 21
574.2205343040529897
 31
0.0
  0
INSERT
  5
2F5
  8
0
  2
*U23
 10
0.0
 20
0.0
 30
0.0
  0
INSERT
  5
2F6
  8
TMG_-_COTA
  2
_OPEN
 10
164.4995089322584931
 20
568.0698694464051641
 30
0.0
 41
6.25
 42
6.25
 43
6.25
 50
259.7711696981930913
  0
POINT
  5
2F7
  8
DEFPOINTS
 62
     0
 10
164.4995089322584931
 20
568.0698694464051641
 30
0.0
  0
POINT
  5
2F8
  8
DEFPOINTS
 62
     0
 10
160.0600102057869947
 20
543.4672100158140893
 30
0.0
  0
ENDBLK
  5
2F9
  8
0
  0
BLOCK
  8
0
  2
*U23
 70
     1
 10
0.0
 20
0.0
 30
0.0
  3
*U23
  1

  0
TEXT
  5
558
  8
TMG_-_COTA
 10
188.5000677795509887
 20
649.5561399642148217
 30
0.0
 40
8.5000002384185791
  1
R25
  7
MTXPL_TECHNIC
  0
ENDBLK
  5
55A
  8
0
  0
BLOCK
  8
0
  2
*D24
 70
     1
 10
0.0
 20
0.0
 30
0.0
  3
*D24
  1

  0
LINE
  5
2FC
  8
TMG_-_COTA
 10
973.6961822601978156
 20
623.2065871526318688
 30
0.0
 11
1000.3708993382490462
 21
623.2065871526318688
 31
0.0
  0
LINE
  5
2FD
  8
TMG_-_COTA
 10
1000.3708993382490462
 20
623.2065871526318688
 30
0.0
 11
1000.3708993382490462
 21
574.7172100158190915
 31
0.0
  0
INSERT
  5
2FE
  8
0
  2
*U25
 10
0.0
 20
0.0
 30
0.0
  0
INSERT
  5
2FF
  8
TMG_-_COTA
  2
_OPEN
 10
1000.3708993382490462
 20
568.4672100158190915
 30
0.0
 41
6.25
 42
6.25
 43
6.25
 50
270.0
  0
POINT
  5
300
  8
DEFPOINTS
 62
     0
 10
1000.3708993382490462
 20
568.4672100158190915
 30
0.0
  0
POINT
  5
301
  8
DEFPOINTS
 62
     0
 10
1000.3708993382520021
 20
558.4672100158192052
 30
0.0
  0
ENDBLK
  5
302
  8
0
  0
BLOCK
  8
0
  2
*U25
 70
     1
 10
0.0
 20
0.0
 30
0.0
  3
*U25
  1

  0
TEXT
  5
55C
  8
TMG_-_COTA
 10
973.0127028538950071
 20
625.3557099664625412
 30
0.0
 40
8.5000002384185791
  1
R10
  7
MTXPL_TECHNIC
  0
ENDBLK
  5
55E
  8
0
  0
BLOCK
  8
0
  2
*D26
 70
     1
 10
0.0
 20
0.0
 30
0.0
  3
*D26
  1

  0
LINE
  5
305
  8
TMG_-_COTA
 10
190.3708993382437029
 20
563.4672100158189778
 30
0.0
 11
190.3708993382437029
 21
593.4672100158190915
 31
0.0
  0
INSERT
  5
306
  8
0
  2
*U27
 10
0.0
 20
0.0
 30
0.0
  0
POINT
  5
307
  8
DEFPOINTS
 62
     0
 10
190.3708993382437029
 20
560.9672100158188641
 30
0.0
  0
POINT
  5
308
  8
DEFPOINTS
 62
     0
 10
190.3708993382437029
 20
593.4672100158190915
 30
0.0
  0
POINT
  5
309
  8
DEFPOINTS
 62
     0
 10
120.3708993382436034
 20
568.4672100158182957
 30
0.0
  0
ENDBLK
  5
30A
  8
0
  0
BLOCK
  8
0
  2
*U27
 70
     1
 10
0.0
 20
0.0
 30
0.0
  3
*U27
  1

  0
TEXT
  5
560
  8
TMG_-_COTA
 10
194.546338051853013
 20
594.78373057005183
 30
0.0
 40
8.5000002384185791
  1
70
 50
90.0
  7
MTXPL_TECHNIC
  0
ENDBLK
  5
562
  8
0
  0
BLOCK
  8
0
  2
*D28
 70
     1
 10
0.0
 20
0.0
 30
0.0
  3
*D28
  1

  0
LINE
  5
30D
  8
TMG_-_COTA
 10
465.3708993382473977
 20
563.4672100158189778
 30
0.0
 11
465.3708993382473977
 21
593.4672100158190915
 31
0.0
  0
INSERT
  5
30E
  8
0
  2
*U29
 10
0.0
 20
0.0
 30
0.0
  0
POINT
  5
30F
  8
DEFPOINTS
 62
     0
 10
465.3708993382473977
 20
560.9672100158188641
 30
0.0
  0
POINT
  5
310
  8
DEFPOINTS
 62
     0
 10
465.3708993382473977
 20
593.4672100158190915
 30
0.0
  0
POINT
  5
311
  8
DEFPOINTS
 62
     0
 10
120.3708993382436034
 20
568.4672100158182957
 30
0.0
  0
ENDBLK
  5
312
  8
0
  0
BLOCK
  8
0
  2
*U29
 70
     1
 10
0.0
 20
0.0
 30
0.0
  3
*U29
  1

  0
TEXT
  5
564
  8
TMG_-_COTA
 10
469.428282492989581
 20
594.9079996468038871
 30
0.0
 40
8.5000002384185791
  1
345
 50
90.0
  7
MTXPL_TECHNIC
  0
ENDBLK
  5
566
  8
0
  0
BLOCK
  8
0
  2
*D30
 70
     1
 10
0.0
 20
0.0
 30
0.0
  3
*D30
  1

  0
LINE
  5
315
  8
TMG_-_COTA
 10
665.3708993382477956
 20
563.4672100158189778
 30
0.0
 11
665.3708993382477956
 21
593.4672100158190915
 31
0.0
  0
INSERT
  5
316
  8
0
  2
*U31
 10
0.0
 20
0.0
 30
0.0
  0
POINT
  5
317
  8
DEFPOINTS
 62
     0
 10
665.3708993382477956
 20
560.9672100158188641
 30
0.0
  0
POINT
  5
318
  8
DEFPOINTS
 62
     0
 10
665.3708993382477956
 20
593.4672100158190915
 30
0.0
  0
POINT
  5
319
  8
DEFPOINTS
 62
     0
 10
120.3708993382436034
 20
568.4672100158182957
 30
0.0
  0
ENDBLK
  5
31A
  8
0
  0
BLOCK
  8
0
  2
*U31
 70
     1
 10
0.0
 20
0.0
 30
0.0
  3
*U31
  1

  0
TEXT
  5
568
  8
TMG_-_COTA
 10
669.5214842499900669
 20
594.8210113395027747
 30
0.0
 40
8.5000002384185791
  1
545
 50
90.0
  7
MTXPL_TECHNIC
  0
ENDBLK
  5
56A
  8
0
  0
BLOCK
  8
0
  2
*D32
 70
     1
 10
0.0
 20
0.0
 30
0.0
  3
*D32
  1

  0
LINE
  5
31D
  8
TMG_-_COTA
 10
940.3708993382521157
 20
563.4672100158192052
 30
0.0
 11
940.3708993382521157
 21
593.4672100158190915
 31
0.0
  0
INSERT
  5
31E
  8
0
  2
*U33
 10
0.0
 20
0.0
 30
0.0
  0
POINT
  5
31F
  8
DEFPOINTS
 62
     0
 10
940.3708993382521157
 20
560.9672100158188641
 30
0.0
  0
POINT
  5
320
  8
DEFPOINTS
 62
     0
 10
940.3708993382521157
 20
593.4672100158190915
 30
0.0
  0
POINT
  5
321
  8
DEFPOINTS
 62
     0
 10
120.3708993382436034
 20
568.4672100158182957
 30
0.0
  0
ENDBLK
  5
322
  8
0
  0
BLOCK
  8
0
  2
*U33
 70
     1
 10
0.0
 20
0.0
 30
0.0
  3
*U33
  1

  0
TEXT
  5
56C
  8
TMG_-_COTA
 10
944.5463380518615395
 20
594.7713037277669628
 30
0.0
 40
8.5000002384185791
  1
820
 50
90.0
  7
MTXPL_TECHNIC
  0
ENDBLK
  5
56E
  8
0
  0
BLOCK
  8
0
  2
*D34
 70
     1
 10
0.0
 20
0.0
 30
0.0
  3
*D34
  1

  0
LINE
  5
325
  8
TMG_-_COTA
 10
130.3708993382437029
 20
540.9712504587972717
 30
0.0
 11
130.3708993382437029
 21
568.2315543188478841
 31
0.0
  0
LINE
  5
326
  8
TMG_-_COTA
 10
130.3708993382437029
 20
568.2315543188478841
 30
0.0
 11
135.0840134881838139
 21
580.7315543188478841
 31
0.0
  0
LINE
  5
327
  8
TMG_-_COTA
 10
135.0840134881838139
 20
580.7315543188478841
 30
0.0
 11
135.0840134881838139
 21
593.2315543188478841
 31
0.0
  0
INSERT
  5
328
  8
0
  2
*U35
 10
0.0
 20
0.0
 30
0.0
  0
POINT
  5
329
  8
DEFPOINTS
 62
     0
 10
130.3708993382437029
 20
538.471250458797158
 30
0.0
  0
POINT
  5
32A
  8
DEFPOINTS
 62
     0
 10
135.0840134881838139
 20
593.2315543188478841
 30
0.0
  0
POINT
  5
32B
  8
DEFPOINTS
 62
     0
 10
120.3708993382436034
 20
568.4672100158182957
 30
0.0
  0
ENDBLK
  5
32C
  8
0
  0
BLOCK
  8
0
  2
*U35
 70
     1
 10
0.0
 20
0.0
 30
0.0
  3
*U35
  1

  0
TEXT
  5
570
  8
TMG_-_COTA
 10
139.2594522017930103
 20
593.8521683877060013
 30
0.0
 40
8.5000002384185791
  1
10
 50
90.0
  7
MTXPL_TECHNIC
  0
ENDBLK
  5
572
  8
0
  0
BLOCK
  8
0
  2
*D36
 70
     1
 10
0.0
 20
0.0
 30
0.0
  3
*D36
  1

  0
LINE
  5
32F
  8
TMG_-_COTA
 10
973.6961822601855374
 20
433.2649217116547788
 30
0.0
 11
1000.3708993382490462
 21
433.2649217116547788
 31
0.0
  0
LINE
  5
330
  8
TMG_-_COTA
 10
1000.3708993382490462
 20
433.2649217116547788
 30
0.0
 11
1000.3708993382490462
 21
522.2212504587977264
 31
0.0
  0
INSERT
  5
331
  8
0
  2
*U37
 10
0.0
 20
0.0
 30
0.0
  0
INSERT
  5
332
  8
TMG_-_COTA
  2
_OPEN
 10
1000.3708993382490462
 20
528.4712504587977264
 30
0.0
 41
6.25
 42
6.25
 43
6.25
 50
90.0
  0
ARC
  5
333
  8
TMG_-_COTA
 10
1000.3708993382520021
 20
538.4712504587977264
 30
0.0
 40
10.0
 50
255.6760551217124089
 51
276.0000000000001137
  0
POINT
  5
334
  8
DEFPOINTS
 62
     0
 10
1000.3708993382490462
 20
528.4712504587977264
 30
0.0
  0
POINT
  5
335
  8
DEFPOINTS
 62
     0
 10
1000.3708993382520021
 20
538.4712504587977264
 30
0.0
  0
ENDBLK
  5
336
  8
0
  0
BLOCK
  8
0
  2
*U37
 70
     1
 10
0.0
 20
0.0
 30
0.0
  3
*U37
  1

  0
TEXT
  5
574
  8
TMG_-_COTA
 10
973.0127028538829563
 20
435.4140445254856786
 30
0.0
 40
8.5000002384185791
  1
R10
  7
MTXPL_TECHNIC
  0
ENDBLK
  5
576
  8
0
  0
BLOCK
  8
0
  2
*D38
 70
     1
 10
0.0
 20
0.0
 30
0.0
  3
*D38
  1

  0
LINE
  5
339
  8
TMG_-_COTA
 10
976.8551964987328802
 20
525.9445676994761243
 30
0.0
 11
934.4293266093741295
 21
521.4854290892758399
 31
0.0
  0
ARC
  5
33A
  8
TMG_-_COTA
 10
981.8278059755743925
 20
526.4672100158143166
 30
0.0
 40
45.1595634414348766
 50
164.1280559201022129
 51
172.0640279600511064
  0
ARC
  5
33B
  8
TMG_-_COTA
 10
981.8278059755743925
 20
526.4672100158143166
 30
0.0
 40
45.1595634414348766
 50
193.9359720399465061
 51
201.8719440798955134
  0
ARC
  5
33C
  8
TMG_-_COTA
 10
981.8278059755743925
 20
526.4672100158143166
 30
0.0
 40
45.1595634414348766
 50
180.0
 51
185.9999999999976978
  0
INSERT
  5
33D
  8
TMG_-_COTA
  2
_OPEN
 10
936.6682425341392673
 20
526.4672100158143166
 30
0.0
 41
6.25
 42
6.25
 43
6.25
 50
266.0320139800256243
  0
INSERT
  5
33E
  8
TMG_-_COTA
  2
_OPEN
 10
936.9156313477943741
 20
521.7467502474446519
 30
0.0
 41
6.25
 42
6.25
 43
6.25
 50
99.9679860199720878
  0
INSERT
  5
33F
  8
0
  2
*U39
 10
0.0
 20
0.0
 30
0.0
  0
POINT
  5
340
  8
DEFPOINTS
 62
     0
 10
981.8278059755743925
 20
526.4672100158143166
 30
0.0
  0
POINT
  5
341
  8
DEFPOINTS
 62
     0
 10
148.9139927009100859
 20
526.4672100158143166
 30
0.0
  0
POINT
  5
342
  8
DEFPOINTS
 62
     0
 10
979.3415012371536932
 20
526.2058888576451636
 30
0.0
  0
POINT
  5
343
  8
DEFPOINTS
 62
     0
 10
936.6957525200175496
 20
524.8911639804041442
 30
0.0
  0
ENDBLK
  5
344
  8
0
  0
BLOCK
  8
0
  2
*U39
 70
     1
 10
0.0
 20
0.0
 30
0.0
  3
*U39
  1

  0
TEXT
  5
578
  8
TMG_-_COTA
 10
936.8525337267533359
 20
505.2428764450962149
 30
0.0
 40
8.5000002384185791
  1
6°
 50
302.5053384377408747
  7
MTXPL_TECHNIC
  0
ENDBLK
  5
57A
  8
0
  0
BLOCK
  8
0
  2
*D40
 70
     1
 10
0.0
 20
0.0
 30
0.0
  3
*D40
  1

  0
LINE
  5
480
  8
TMG_-_COTA
 10
6.2500000000012852
 20
127.7022883041640995
 30
0.0
 11
6.2500000000012861
 21
160.2022883041641137
 31
0.0
  0
INSERT
  5
481
  8
0
  2
*U41
 10
0.0
 20
0.0
 30
0.0
  0
POINT
  5
482
  8
DEFPOINTS
 62
     0
 10
6.2500000000012861
 20
125.2022883041640995
 30
0.0
  0
POINT
  5
483
  8
DEFPOINTS
 62
     0
 10
6.2500000000012861
 20
160.2022883041641137
 30
0.0
  0
POINT
  5
484
  8
DEFPOINTS
 62
     0
 10
6.250000000001128
 20
135.2022883041636874
 30
0.0
  0
ENDBLK
  5
3F5
  8
0
  0
BLOCK
  8
0
  2
*U41
 70
     1
 10
0.0
 20
0.0
 30
0.0
  3
*U41
  1

  0
TEXT
  5
5AB
  8
TMG_-_COTA
 10
10.4254387136104505
 20
161.4815280500293113
 30
0.0
 40
8.5000002384185791
  1
0
 50
90.0
  7
MTXPL_TECHNIC
  0
ENDBLK
  5
5AD
  8
0
  0
BLOCK
  8
0
  2
*D42
 70
     1
 10
0.0
 20
0.0
 30
0.0
  3
*D42
  1

  0
LINE
  5
485
  8
TMG_-_COTA
 10
896.2500000000108002
 20
127.7022883041644974
 30
0.0
 11
896.2500000000108002
 21
160.2022883041643126
 31
0.0
  0
INSERT
  5
486
  8
0
  2
*U43
 10
0.0
 20
0.0
 30
0.0
  0
POINT
  5
487
  8
DEFPOINTS
 62
     0
 10
896.2500000000108002
 20
125.2022883041644974
 30
0.0
  0
POINT
  5
488
  8
DEFPOINTS
 62
     0
 10
896.2500000000108002
 20
160.2022883041643126
 30
0.0
  0
POINT
  5
489
  8
DEFPOINTS
 62
     0
 10
6.250000000001128
 20
135.2022883041636874
 30
0.0
  0
ENDBLK
  5
3FD
  8
0
  0
BLOCK
  8
0
  2
*U43
 70
     1
 10
0.0
 20
0.0
 30
0.0
  3
*U43
  1

  0
TEXT
  5
5AF
  8
TMG_-_COTA
 10
900.4254387136196556
 20
161.5063818518958101
 30
0.0
 40
8.5000002384185791
  1
890
 50
90.0
  7
MTXPL_TECHNIC
  0
ENDBLK
  5
5B1
  8
0
  0
BLOCK
  8
0
  2
*D44
 70
     1
 10
0.0
 20
0.0
 30
0.0
  3
*D44
  1

  0
LINE
  5
48A
  8
TMG_-_COTA
 10
36.2500000000013713
 20
122.7022883041640995
 30
0.0
 11
36.2500000000013713
 21
160.2022883041643126
 31
0.0
  0
INSERT
  5
48B
  8
0
  2
*U45
 10
0.0
 20
0.0
 30
0.0
  0
POINT
  5
48C
  8
DEFPOINTS
 62
     0
 10
36.2500000000013713
 20
120.2022883041640995
 30
0.0
  0
POINT
  5
48D
  8
DEFPOINTS
 62
     0
 10
36.2500000000013713
 20
160.2022883041643126
 30
0.0
  0
POINT
  5
48E
  8
DEFPOINTS
 62
     0
 10
6.250000000001128
 20
135.2022883041636874
 30
0.0
  0
ENDBLK
  5
405
  8
0
  0
BLOCK
  8
0
  2
*U45
 70
     1
 10
0.0
 20
0.0
 30
0.0
  3
*U45
  1

  0
TEXT
  5
5B3
  8
TMG_-_COTA
 10
40.3073831547435972
 20
161.6430777621631023
 30
0.0
 40
8.5000002384185791
  1
30
 50
90.0
  7
MTXPL_TECHNIC
  0
ENDBLK
  5
5B5
  8
0
  0
BLOCK
  8
0
  2
*D46
 70
     1
 10
0.0
 20
0.0
 30
0.0
  3
*D46
  1

  0
LINE
  5
48F
  8
TMG_-_COTA
 10
312.9166666666719152
 20
122.702288304164199
 30
0.0
 11
312.9166666666719152
 21
160.2022883041643126
 31
0.0
  0
INSERT
  5
490
  8
0
  2
*U47
 10
0.0
 20
0.0
 30
0.0
  0
POINT
  5
491
  8
DEFPOINTS
 62
     0
 10
312.9166666666719152
 20
120.202288304164199
 30
0.0
  0
POINT
  5
492
  8
DEFPOINTS
 62
     0
 10
312.9166666666719152
 20
160.2022883041643126
 30
0.0
  0
POINT
  5
493
  8
DEFPOINTS
 62
     0
 10
6.250000000001128
 20
135.2022883041636874
 30
0.0
  0
ENDBLK
  5
40D
  8
0
  0
BLOCK
  8
0
  2
*U47
 70
     1
 10
0.0
 20
0.0
 30
0.0
  3
*U47
  1

  0
TEXT
  5
5B7
  8
TMG_-_COTA
 10
316.4272661803461801
 20
161.6430777621629034
 30
0.0
 40
8.5000002384185791
  1
306,7
 50
90.0
  7
MTXPL_TECHNIC
  0
ENDBLK
  5
5B9
  8
0
  0
BLOCK
  8
0
  2
*D48
 70
     1
 10
0.0
 20
0.0
 30
0.0
  3
*D48
  1

  0
LINE
  5
494
  8
TMG_-_COTA
 10
589.5833333333390556
 20
122.7022883041642984
 30
0.0
 11
589.5833333333390556
 21
160.2022883041643126
 31
0.0
  0
INSERT
  5
495
  8
0
  2
*U49
 10
0.0
 20
0.0
 30
0.0
  0
POINT
  5
496
  8
DEFPOINTS
 62
     0
 10
589.5833333333390556
 20
120.2022883041642984
 30
0.0
  0
POINT
  5
497
  8
DEFPOINTS
 62
     0
 10
589.5833333333390556
 20
160.2022883041643126
 30
0.0
  0
POINT
  5
498
  8
DEFPOINTS
 62
     0
 10
6.250000000001128
 20
135.2022883041636874
 30
0.0
  0
ENDBLK
  5
415
  8
0
  0
BLOCK
  8
0
  2
*U49
 70
     1
 10
0.0
 20
0.0
 30
0.0
  3
*U49
  1

  0
TEXT
  5
5BB
  8
TMG_-_COTA
 10
593.0939328470135479
 20
161.5560894556294045
 30
0.0
 40
8.5000002384185791
  1
583,3
 50
90.0
  7
MTXPL_TECHNIC
  0
ENDBLK
  5
5BD
  8
0
  0
BLOCK
  8
0
  2
*D50
 70
     1
 10
0.0
 20
0.0
 30
0.0
  3
*D50
  1

  0
LINE
  5
499
  8
TMG_-_COTA
 10
866.2500000000108002
 20
122.7022883041642984
 30
0.0
 11
866.2500000000108002
 21
160.2022883041643126
 31
0.0
  0
INSERT
  5
49A
  8
0
  2
*U51
 10
0.0
 20
0.0
 30
0.0
  0
POINT
  5
49B
  8
DEFPOINTS
 62
     0
 10
866.2500000000108002
 20
120.2022883041642984
 30
0.0
  0
POINT
  5
49C
  8
DEFPOINTS
 62
     0
 10
866.2500000000108002
 20
160.2022883041643126
 30
0.0
  0
POINT
  5
49D
  8
DEFPOINTS
 62
     0
 10
6.250000000001128
 20
135.2022883041636874
 30
0.0
  0
ENDBLK
  5
41D
  8
0
  0
BLOCK
  8
0
  2
*U51
 70
     1
 10
0.0
 20
0.0
 30
0.0
  3
*U51
  1

  0
TEXT
  5
5BF
  8
TMG_-_COTA
 10
870.4254387136193145
 20
161.5063818518958101
 30
0.0
 40
8.5000002384185791
  1
860
 50
90.0
  7
MTXPL_TECHNIC
  0
ENDBLK
  5
5C1
  8
0
  0
BLOCK
  8
0
  2
*D52
 70
     1
 10
0.0
 20
0.0
 30
0.0
  3
*D52
  1

  0
LINE
  5
49E
  8
TMG_-_COTA
 10
129.9006488018501955
 20
112.1277267780369016
 30
0.0
 11
103.2259318688575007
 21
112.1277267780369016
 31
0.0
  0
LINE
  5
49F
  8
TMG_-_COTA
 10
103.2259318688575007
 20
112.1277267780369016
 30
0.0
 11
90.3229128114979147
 21
119.5772883041606036
 31
0.0
  0
INSERT
  5
4A0
  8
0
  2
*U53
 10
0.0
 20
0.0
 30
0.0
  0
INSERT
  5
4A1
  8
TMG_-_COTA
  2
_OPEN
 10
84.9102540378448936
 20
122.7022883041600068
 30
0.0
 41
6.25
 42
6.25
 43
6.25
 50
150.0000000000059117
  0
POINT
  5
4A2
  8
DEFPOINTS
 62
     0
 10
84.9102540378448936
 20
122.7022883041600068
 30
0.0
  0
POINT
  5
4A3
  8
DEFPOINTS
 62
     0
 10
76.25
 20
127.7022883041590973
 30
0.0
  0
ENDBLK
  5
425
  8
0
  0
BLOCK
  8
0
  2
*U53
 70
     1
 10
0.0
 20
0.0
 30
0.0
  3
*U53
  1

  0
TEXT
  5
5C3
  8
TMG_-_COTA
 10
112.7763793156794065
 20
114.2768495892373011
 30
0.0
 40
8.5000002384185791
  1
R10
  7
MTXPL_TECHNIC
  0
ENDBLK
  5
5C5
  8
0
  0
BLOCK
  8
0
  2
*D54
 70
     1
 10
0.0
 20
0.0
 30
0.0
  3
*D54
  1

  0
LINE
  5
4A4
  8
TMG_-_COTA
 10
94.5107479533525634
 20
214.0923878341181137
 30
0.0
 11
64.6858632606120239
 21
214.0923878341181137
 31
0.0
  0
LINE
  5
4A5
  8
TMG_-_COTA
 10
64.6858632606120239
 20
214.0923878341181137
 30
0.0
 11
51.4884842756340504
 21
140.9556125923982108
 31
0.0
  0
INSERT
  5
4A6
  8
0
  2
*U55
 10
0.0
 20
0.0
 30
0.0
  0
INSERT
  5
4A7
  8
TMG_-_COTA
  2
_OPEN
 10
50.3786095940161616
 20
134.8049477347504137
 30
0.0
 41
6.25
 42
6.25
 43
6.25
 50
259.7711696981930913
  0
POINT
  5
4A8
  8
DEFPOINTS
 62
     0
 10
50.3786095940161616
 20
134.8049477347504137
 30
0.0
  0
POINT
  5
4A9
  8
DEFPOINTS
 62
     0
 10
45.9391108675445921
 20
110.2022883041591967
 30
0.0
  0
ENDBLK
  5
42E
  8
0
  0
BLOCK
  8
0
  2
*U55
 70
     1
 10
0.0
 20
0.0
 30
0.0
  3
*U55
  1

  0
TEXT
  5
5C7
  8
TMG_-_COTA
 10
74.3791684413085363
 20
216.2912182490518944
 30
0.0
 40
8.5000002384185791
  1
R25
  7
MTXPL_TECHNIC
  0
ENDBLK
  5
5C9
  8
0
  0
BLOCK
  8
0
  2
*D56
 70
     1
 10
0.0
 20
0.0
 30
0.0
  3
*D56
  1

  0
LINE
  5
4AA
  8
TMG_-_COTA
 10
859.5752830669875948
 20
189.9416654409768057
 30
0.0
 11
886.2500000000077307
 21
189.9416654409768057
 31
0.0
  0
LINE
  5
4AB
  8
TMG_-_COTA
 10
886.2500000000077307
 20
189.9416654409768057
 30
0.0
 11
886.2500000000077307
 21
141.4522883041643979
 31
0.0
  0
INSERT
  5
4AC
  8
0
  2
*U57
 10
0.0
 20
0.0
 30
0.0
  0
INSERT
  5
4AD
  8
TMG_-_COTA
  2
_OPEN
 10
886.2500000000077307
 20
135.2022883041643979
 30
0.0
 41
6.25
 42
6.25
 43
6.25
 50
270.0
  0
POINT
  5
4AE
  8
DEFPOINTS
 62
     0
 10
886.2500000000077307
 20
135.2022883041643979
 30
0.0
  0
POINT
  5
4AF
  8
DEFPOINTS
 62
     0
 10
886.2500000000109139
 20
125.2022883041644974
 30
0.0
  0
ENDBLK
  5
437
  8
0
  0
BLOCK
  8
0
  2
*U57
 70
     1
 10
0.0
 20
0.0
 30
0.0
  3
*U57
  1

  0
TEXT
  5
5CB
  8
TMG_-_COTA
 10
858.8918035156525548
 20
192.0907882521769068
 30
0.0
 40
8.5000002384185791
  1
R10
  7
MTXPL_TECHNIC
  0
ENDBLK
  5
5CD
  8
0
  0
BLOCK
  8
0
  2
*D58
 70
     1
 10
0.0
 20
0.0
 30
0.0
  3
*D58
  1

  0
LINE
  5
4B0
  8
TMG_-_COTA
 10
76.2500000000014211
 20
130.202288304164199
 30
0.0
 11
76.2500000000014211
 21
160.2022883041643126
 31
0.0
  0
INSERT
  5
4B1
  8
0
  2
*U59
 10
0.0
 20
0.0
 30
0.0
  0
POINT
  5
4B2
  8
DEFPOINTS
 62
     0
 10
76.2500000000014211
 20
127.702288304164199
 30
0.0
  0
POINT
  5
4B3
  8
DEFPOINTS
 62
     0
 10
76.2500000000014211
 20
160.2022883041643126
 30
0.0
  0
POINT
  5
4B4
  8
DEFPOINTS
 62
     0
 10
6.250000000001128
 20
135.2022883041636874
 30
0.0
  0
ENDBLK
  5
440
  8
0
  0
BLOCK
  8
0
  2
*U59
 70
     1
 10
0.0
 20
0.0
 30
0.0
  3
*U59
  1

  0
TEXT
  5
5CF
  8
TMG_-_COTA
 10
80.425438713610589
 20
161.5188087528293011
 30
0.0
 40
8.5000002384185791
  1
70
 50
90.0
  7
MTXPL_TECHNIC
  0
ENDBLK
  5
5D1
  8
0
  0
BLOCK
  8
0
  2
*D60
 70
     1
 10
0.0
 20
0.0
 30
0.0
  3
*D60
  1

  0
LINE
  5
4B5
  8
TMG_-_COTA
 10
351.2500000000051159
 20
130.202288304164199
 30
0.0
 11
351.2500000000051728
 21
160.2022883041643126
 31
0.0
  0
INSERT
  5
4B6
  8
0
  2
*U61
 10
0.0
 20
0.0
 30
0.0
  0
POINT
  5
4B7
  8
DEFPOINTS
 62
     0
 10
351.2500000000051728
 20
127.702288304164199
 30
0.0
  0
POINT
  5
4B8
  8
DEFPOINTS
 62
     0
 10
351.2500000000051728
 20
160.2022883041643126
 30
0.0
  0
POINT
  5
4B9
  8
DEFPOINTS
 62
     0
 10
6.250000000001128
 20
135.2022883041636874
 30
0.0
  0
ENDBLK
  5
448
  8
0
  0
BLOCK
  8
0
  2
*U61
 70
     1
 10
0.0
 20
0.0
 30
0.0
  3
*U61
  1

  0
TEXT
  5
5D3
  8
TMG_-_COTA
 10
355.3073831547472992
 20
161.6430777621629034
 30
0.0
 40
8.5000002384185791
  1
345
 50
90.0
  7
MTXPL_TECHNIC
  0
ENDBLK
  5
5D5
  8
0
  0
BLOCK
  8
0
  2
*D62
 70
     1
 10
0.0
 20
0.0
 30
0.0
  3
*D62
  1

  0
LINE
  5
4BA
  8
TMG_-_COTA
 10
551.2500000000056843
 20
130.202288304164199
 30
0.0
 11
551.2500000000056843
 21
160.2022883041643126
 31
0.0
  0
INSERT
  5
4BB
  8
0
  2
*U63
 10
0.0
 20
0.0
 30
0.0
  0
POINT
  5
4BC
  8
DEFPOINTS
 62
     0
 10
551.2500000000056843
 20
127.702288304164199
 30
0.0
  0
POINT
  5
4BD
  8
DEFPOINTS
 62
     0
 10
551.2500000000056843
 20
160.2022883041643126
 30
0.0
  0
POINT
  5
4BE
  8
DEFPOINTS
 62
     0
 10
6.250000000001128
 20
135.2022883041636874
 30
0.0
  0
ENDBLK
  5
450
  8
0
  0
BLOCK
  8
0
  2
*U63
 70
     1
 10
0.0
 20
0.0
 30
0.0
  3
*U63
  1

  0
TEXT
  5
5D7
  8
TMG_-_COTA
 10
555.4005849117479556
 20
161.5560894556294045
 30
0.0
 40
8.5000002384185791
  1
545
 50
90.0
  7
MTXPL_TECHNIC
  0
ENDBLK
  5
5D9
  8
0
  0
BLOCK
  8
0
  2
*D64
 70
     1
 10
0.0
 20
0.0
 30
0.0
  3
*D64
  1

  0
LINE
  5
4BF
  8
TMG_-_COTA
 10
826.2500000000103455
 20
130.2022883041643126
 30
0.0
 11
826.2500000000103455
 21
160.2022883041643126
 31
0.0
  0
INSERT
  5
4C0
  8
0
  2
*U65
 10
0.0
 20
0.0
 30
0.0
  0
POINT
  5
4C1
  8
DEFPOINTS
 62
     0
 10
826.2500000000103455
 20
127.7022883041642984
 30
0.0
  0
POINT
  5
4C2
  8
DEFPOINTS
 62
     0
 10
826.2500000000103455
 20
160.2022883041643126
 30
0.0
  0
POINT
  5
4C3
  8
DEFPOINTS
 62
     0
 10
6.250000000001128
 20
135.2022883041636874
 30
0.0
  0
ENDBLK
  5
458
  8
0
  0
BLOCK
  8
0
  2
*U65
 70
     1
 10
0.0
 20
0.0
 30
0.0
  3
*U65
  1

  0
TEXT
  5
5DB
  8
TMG_-_COTA
 10
830.4254387136193145
 20
161.5063818518958101
 30
0.0
 40
8.5000002384185791
  1
820
 50
90.0
  7
MTXPL_TECHNIC
  0
ENDBLK
  5
5DD
  8
0
  0
BLOCK
  8
0
  2
*D66
 70
     1
 10
0.0
 20
0.0
 30
0.0
  3
*D66
  1

  0
LINE
  5
4C4
  8
TMG_-_COTA
 10
16.2500000000012612
 20
107.7063287471426065
 30
0.0
 11
16.2500000000012612
 21
134.9666326071931053
 31
0.0
  0
LINE
  5
4C5
  8
TMG_-_COTA
 10
16.2500000000012612
 20
134.9666326071931053
 30
0.0
 11
20.9631141499414113
 21
147.4666326071931053
 31
0.0
  0
LINE
  5
4C6
  8
TMG_-_COTA
 10
20.9631141499414113
 20
147.4666326071931053
 30
0.0
 11
20.9631141499414007
 21
159.9666326071931053
 31
0.0
  0
INSERT
  5
4C7
  8
0
  2
*U67
 10
0.0
 20
0.0
 30
0.0
  0
POINT
  5
4C8
  8
DEFPOINTS
 62
     0
 10
16.2500000000012612
 20
105.2063287471426065
 30
0.0
  0
POINT
  5
4C9
  8
DEFPOINTS
 62
     0
 10
20.9631141499414007
 20
159.9666326071931053
 30
0.0
  0
POINT
  5
4CA
  8
DEFPOINTS
 62
     0
 10
6.250000000001128
 20
135.2022883041636874
 30
0.0
  0
ENDBLK
  5
460
  8
0
  0
BLOCK
  8
0
  2
*U67
 70
     1
 10
0.0
 20
0.0
 30
0.0
  3
*U67
  1

  0
TEXT
  5
5DF
  8
TMG_-_COTA
 10
25.1385528635505615
 20
160.5872466035901027
 30
0.0
 40
8.5000002384185791
  1
10
 50
90.0
  7
MTXPL_TECHNIC
  0
ENDBLK
  5
5E1
  8
0
  0
BLOCK
  8
0
  2
*D68
 70
     1
 10
0.0
 20
0.0
 30
0.0
  3
*D68
  1

  0
LINE
  5
4CB
  8
TMG_-_COTA
 10
859.5752830669752029
 20
-0.0000000000001524
 30
0.0
 11
886.2500000000077307
 21
-0.0000000000001468
 31
0.0
  0
LINE
  5
4CC
  8
TMG_-_COTA
 10
886.2500000000077307
 20
-0.0000000000001468
 30
0.0
 11
886.2500000000077307
 21
88.9563287471429192
 31
0.0
  0
INSERT
  5
4CD
  8
0
  2
*U69
 10
0.0
 20
0.0
 30
0.0
  0
INSERT
  5
4CE
  8
TMG_-_COTA
  2
_OPEN
 10
886.2500000000077307
 20
95.2063287471429049
 30
0.0
 41
6.25
 42
6.25
 43
6.25
 50
90.0
  0
ARC
  5
4CF
  8
TMG_-_COTA
 10
886.2500000000109139
 20
105.2063287471430044
 30
0.0
 40
10.0000000000000409
 50
255.6760551217126078
 51
276.0000000000001137
  0
POINT
  5
4D0
  8
DEFPOINTS
 62
     0
 10
886.2500000000077307
 20
95.2063287471429049
 30
0.0
  0
POINT
  5
4D1
  8
DEFPOINTS
 62
     0
 10
886.2500000000109139
 20
105.2063287471430044
 30
0.0
  0
ENDBLK
  5
46A
  8
0
  0
BLOCK
  8
0
  2
*U69
 70
     1
 10
0.0
 20
0.0
 30
0.0
  3
*U69
  1

  0
TEXT
  5
5E3
  8
TMG_-_COTA
 10
858.8918035156400492
 20
2.149122811199927
 30
0.0
 40
8.5000002384185791
  1
R10
  7
MTXPL_TECHNIC
  0
ENDBLK
  5
5E5
  8
0
  0
BLOCK
  8
0
  2
*D70
 70
     1
 10
0.0
 20
0.0
 30
0.0
  3
*D70
  1

  0
LINE
  5
59F
  8
TMG_-_COTA
 10
862.7342971604900868
 20
92.6796459878213454
 30
0.0
 11
820.3084272711317908
 21
88.2205073776208621
 31
0.0
  0
ARC
  5
5A0
  8
TMG_-_COTA
 10
867.7069066373315991
 20
93.2022883041593531
 30
0.0
 40
45.1595634414342086
 50
164.1280559201019003
 51
172.0640279600509928
  0
ARC
  5
5A1
  8
TMG_-_COTA
 10
867.7069066373315991
 20
93.2022883041593531
 30
0.0
 40
45.1595634414342086
 50
193.9359720399467051
 51
201.8719440798957123
  0
ARC
  5
5A2
  8
TMG_-_COTA
 10
867.7069066373315991
 20
93.2022883041593531
 30
0.0
 40
45.1595634414342086
 50
180.0
 51
185.9999999999976978
  0
INSERT
  5
5A3
  8
TMG_-_COTA
  2
_OPEN
 10
822.5473431958973833
 20
93.2022883041593531
 30
0.0
 41
6.25
 42
6.25
 43
6.25
 50
266.0320139800253969
  0
INSERT
  5
5A4
  8
TMG_-_COTA
  2
_OPEN
 10
822.7947320095524901
 20
88.4818285357898731
 30
0.0
 41
6.25
 42
6.25
 43
6.25
 50
99.9679860199722015
  0
TEXT
  5
5E6
  8
TMG_-_COTA
 10
816.2689999999998918
 20
56.2134
 30
0.0
 40
8.5
  1
6?
  7
TMG_-_COTA
  0
POINT
  5
5A6
  8
DEFPOINTS
 62
     0
 10
867.7069066373315991
 20
93.2022883041593531
 30
0.0
  0
POINT
  5
5A7
  8
DEFPOINTS
 62
     0
 10
34.7930933626676619
 20
93.2022883041592252
 30
0.0
  0
POINT
  5
5A8
  8
DEFPOINTS
 62
     0
 10
865.2206018989107861
 20
92.9409671459903848
 30
0.0
  0
POINT
  5
5A9
  8
DEFPOINTS
 62
     0
 10
822.5748531817753246
 20
91.6262422687492517
 30
0.0
  0
ENDBLK
  5
474
  8
0
  0
BLOCK
  8
0
  2
*U71
 70
     1
 10
0.0
 20
0.0
 30
0.0
  3
*U71
  1

  0
TEXT
  5
57D
  8
TMG_-_COTA
 10
333.6667319306050103
 20
65.2163426206667936
 30
0.0
 40
8.5
  1
n
  7
MTXPL_AIGDT
  0
TEXT
  5
57F
  8
TMG_-_COTA
 10
343.4568107742318261
 20
65.2163426206667936
 30
0.0
 40
8.5
  1
6,6 PASSANTE
  7
MTXPL_TECHNIC
  0
TEXT
  5
580
  8
TMG_-_COTA
 10
333.5671370992428137
 20
50.3413414509256398
 30
0.0
 40
8.5
  1
DIN 74 - 
  7
MTXPL_TECHNIC
  0
TEXT
  5
581
  8
TMG_-_COTA
 10
386.3938914852075754
 20
50.3413414509256398
 30
0.0
 40
8.5
  1
n
  7
MTXPL_AIGDT
  0
TEXT
  5
582
  8
TMG_-_COTA
 10
396.1839703288345049
 20
50.3413414509256398
 30
0.0
 40
8.5
  1
14,5 X 90° (x4)
  7
MTXPL_TECHNIC
  0
ENDBLK
  5
584
  8
0
  0
BLOCK
  8
0
  2
*U72
 70
     1
 10
0.0
 20
0.0
 30
0.0
  3
*U72
  1

  0
INSERT
  5
586
  8
TMG_-_COTA
  2
OPEN-1
 10
313.77076951550589
 20
117.014733077405495
 30
0.0
 41
6.25
 42
6.25
 43
6.25
 50
104.4523843191099957
  0
POLYLINE
  5
587
  8
TMG_-_COTA
 66
     1
 10
0.0
 20
0.0
 30
0.0
  0
VERTEX
  5
734
  8
TMG_-_COTA
 10
315.3306153792219106
 20
110.9625119246840939
 30
0.0
  0
VERTEX
  5
735
  8
TMG_-_COTA
 10
326.0254704325761281
 20
69.4663426653702913
 30
0.0
  0
VERTEX
  5
736
  8
TMG_-_COTA
 10
332.2754704325761281
 20
69.4663426653702913
 30
0.0
  0
SEQEND
  5
737
  8
TMG_-_COTA
  0
ENDBLK
  5
58D
  8
0
  0
BLOCK
  8
0
  2
*U73
 70
     1
 10
0.0
 20
0.0
 30
0.0
  3
*U73
  1

  0
TEXT
  5
58F
  8
TMG_-_COTA
 10
333.6667319306050103
 20
65.2163426206667936
 30
0.0
 40
8.5
  1
n
  7
MTXPL_AIGDT
  0
TEXT
  5
590
  8
TMG_-_COTA
 10
343.4568107742318261
 20
65.2163426206667936
 30
0.0
 40
8.5
  1
6,6 PASSANTE
  7
MTXPL_TECHNIC
  0
TEXT
  5
591
  8
TMG_-_COTA
 10
333.5671370992428137
 20
50.3413414509256398
 30
0.0
 40
8.5
  1
DIN 74 - 
  7
MTXPL_TECHNIC
  0
TEXT
  5
592
  8
TMG_-_COTA
 10
386.3938914852075754
 20
50.3413414509256398
 30
0.0
 40
8.5
  1
n
  7
MTXPL_AIGDT
  0
TEXT
  5
593
  8
TMG_-_COTA
 10
396.1839703288345049
 20
50.3413414509256398
 30
0.0
 40
8.5
  1
14,5 X 90° (x4)
  7
MTXPL_TECHNIC
  0
ENDBLK
  5
595
  8
0
  0
BLOCK
  8
0
  2
*U74
 70
     1
 10
0.0
 20
0.0
 30
0.0
  3
*U74
  1

  0
INSERT
  5
597
  8
TMG_-_COTA
  2
OPEN-1
 10
313.77076951550589
 20
117.014733077405495
 30
0.0
 41
6.25
 42
6.25
 43
6.25
 50
104.4523843191099957
  0
POLYLINE
  5
598
  8
TMG_-_COTA
 66
     1
 10
0.0
 20
0.0
 30
0.0
  0
VERTEX
  5
738
  8
TMG_-_COTA
 10
315.3306153792219106
 20
110.9625119246840939
 30
0.0
  0
VERTEX
  5
739
  8
TMG_-_COTA
 10
326.0254704325761281
 20
69.4663426653702913
 30
0.0
  0
VERTEX
  5
73A
  8
TMG_-_COTA
 10
332.2754704325761281
 20
69.4663426653702913
 30
0.0
  0
SEQEND
  5
73B
  8
TMG_-_COTA
  0
ENDBLK
  5
59E
  8
0
  0
ENDSEC
  0
SECTION
  2
ENTITIES
  0
CIRCLE
  5
3B2
  8
TMG_-_OCULTA
 10
312.9166666666667993
 20
120.2022883041591967
 30
0.0
 40
7.25
  0
CIRCLE
  5
3B3
  8
TMG_-_OCULTA
 10
866.2500000000001137
 20
120.2022883041592962
 30
0.0
 40
7.25
  0
CIRCLE
  5
3B4
  8
TMG_-_OCULTA
 10
589.5833333333332575
 20
120.2022883041592962
 30
0.0
 40
7.25
  0
CIRCLE
  5
3B5
  8
TMG_-_OCULTA
 10
36.2500000000000284
 20
120.2022883041590973
 30
0.0
 40
7.25
  0
CIRCLE
  5
3B6
  8
TMG_-_VISÍVEL
 10
36.2500000000000284
 20
120.2022883041590973
 30
0.0
 40
3.2999999999999989
  0
CIRCLE
  5
3B7
  8
TMG_-_VISÍVEL
 10
589.5833333333332575
 20
120.2022883041592962
 30
0.0
 40
3.2999999999999989
  0
CIRCLE
  5
3B8
  8
TMG_-_VISÍVEL
 10
866.2500000000001137
 20
120.2022883041592962
 30
0.0
 40
3.2999999999999989
  0
CIRCLE
  5
3B9
  8
TMG_-_VISÍVEL
 10
312.9166666666667993
 20
120.2022883041591967
 30
0.0
 40
3.2999999999999989
  0
POLYLINE
  5
723
  8
0
 66
     1
 10
0.0
 20
0.0
 30
0.0
 70
     1
  0
VERTEX
  5
77F
  8
0
 10
0.0076061725994805
 20
84.2752602095972634
 30
0.0
  0
VERTEX
  5
780
  8
0
 10
-0.0892634140850532
 20
110.9141983488631951
 30
0.0
  0
VERTEX
  5
781
  8
0
 10
3.2844497952942211
 20
110.8545192560671069
 30
0.0
  0
VERTEX
  5
782
  8
0
 10
6.25
 20
105.2063287471376043
 30
0.0
 42
0.3838640350354151
  0
VERTEX
  5
783
  8
0
 10
15.2047153673234998
 20
95.2611097934548638
 30
0.0
  0
VERTEX
  5
784
  8
0
 10
34.7930933626676619
 20
93.2022883041592252
 30
0.0
  0
VERTEX
  5
785
  8
0
 10
867.7069066373315991
 20
93.2022883041593531
 30
0.0
  0
VERTEX
  5
786
  8
0
 10
887.2952846326763847
 20
95.2611097934551765
 30
0.0
 42
0.3838640350354156
  0
VERTEX
  5
787
  8
0
 10
896.2500000000002274
 20
105.2063287471379027
 30
0.0
  0
VERTEX
  5
788
  8
0
 10
899.8904163706947656
 20
114.4092987206518046
 30
0.0
  0
VERTEX
  5
789
  8
0
 10
904.8755811215047515
 20
115.2812199135858009
 30
0.0
  0
VERTEX
  5
78A
  8
0
 10
905.2494702131510849
 20
84.8885418369948184
 30
0.0
  0
VERTEX
  5
78B
  8
0
 10
893.75
 20
85.2022883041593531
 30
0.0
  0
VERTEX
  5
78C
  8
0
 10
8.7500000000001688
 20
85.2022883041592252
 30
0.0
  0
SEQEND
  5
78D
  8
0
  0
POLYLINE
  5
725
  8
TMG_-_VISÍVEL
 66
     1
 10
0.0
 20
0.0
 30
0.0
 70
     1
  0
VERTEX
  5
78E
  8
TMG_-_VISÍVEL
 10
381.5608891324553724
 20
135.2022883041591967
 30
0.0
  0
VERTEX
  5
78F
  8
TMG_-_VISÍVEL
 10
520.939110867544855
 20
135.2022883041591967
 30
0.0
 42
-0.267949192431122
  0
VERTEX
  5
790
  8
TMG_-_VISÍVEL
 10
542.5897459621555754
 20
122.7022883041591967
 30
0.0
 42
0.577350269189625
  0
VERTEX
  5
791
  8
TMG_-_VISÍVEL
 10
559.9102540378444246
 20
122.7022883041592962
 30
0.0
 42
-0.267949192431122
  0
VERTEX
  5
792
  8
TMG_-_VISÍVEL
 10
581.5608891324552587
 20
135.2022883041591967
 30
0.0
  0
VERTEX
  5
793
  8
TMG_-_VISÍVEL
 10
795.9391108675446276
 20
135.2022883041593104
 30
0.0
 42
-0.267949192431122
  0
VERTEX
  5
794
  8
TMG_-_VISÍVEL
 10
817.5897459621556891
 20
122.7022883041592962
 30
0.0
 42
0.577350269189627
  0
VERTEX
  5
795
  8
TMG_-_VISÍVEL
 10
834.910254037844652
 20
122.7022883041592962
 30
0.0
 42
-0.267949192431122
  0
VERTEX
  5
796
  8
TMG_-_VISÍVEL
 10
856.5608891324553724
 20
135.2022883041593104
 30
0.0
  0
VERTEX
  5
797
  8
TMG_-_VISÍVEL
 10
886.25
 20
135.2022883041593104
 30
0.0
 42
-0.4142135623730951
  0
VERTEX
  5
798
  8
TMG_-_VISÍVEL
 10
896.25
 20
125.2022883041592962
 30
0.0
  0
VERTEX
  5
799
  8
TMG_-_VISÍVEL
 10
896.2500000000002274
 20
105.2063287471379027
 30
0.0
  0
VERTEX
  5
79A
  8
TMG_-_VISÍVEL
 10
896.2500000000002274
 20
87.7022883041593531
 30
0.0
 42
-0.4142135623730951
  0
VERTEX
  5
79B
  8
TMG_-_VISÍVEL
 10
893.75
 20
85.2022883041593531
 30
0.0
  0
VERTEX
  5
79C
  8
TMG_-_VISÍVEL
 10
8.7500000000002451
 20
85.2022883041592252
 30
0.0
 42
-0.4142135623730951
  0
VERTEX
  5
79D
  8
TMG_-_VISÍVEL
 10
6.2500000000000853
 20
87.7022883041592252
 30
0.0
  0
VERTEX
  5
79E
  8
TMG_-_VISÍVEL
 10
6.2500000000000409
 20
105.2063287471375048
 30
0.0
  0
VERTEX
  5
79F
  8
TMG_-_VISÍVEL
 10
6.2500000000000409
 20
125.2022883041590973
 30
0.0
 42
-0.4142135623730951
  0
VERTEX
  5
7A0
  8
TMG_-_VISÍVEL
 10
16.25
 20
135.2022883041591115
 30
0.0
  0
VERTEX
  5
7A1
  8
TMG_-_VISÍVEL
 10
45.9391108675445921
 20
135.2022883041591967
 30
0.0
 42
-0.267949192431122
  0
VERTEX
  5
7A2
  8
TMG_-_VISÍVEL
 10
67.5897459621555328
 20
122.7022883041592962
 30
0.0
 42
0.577350269189625
  0
VERTEX
  5
7A3
  8
TMG_-_VISÍVEL
 10
84.9102540378444246
 20
122.7022883041590973
 30
0.0
 42
-0.267949192431122
  0
VERTEX
  5
7A4
  8
TMG_-_VISÍVEL
 10
106.5608891324554008
 20
135.2022883041591967
 30
0.0
  0
VERTEX
  5
7A5
  8
TMG_-_VISÍVEL
 10
320.9391108675446844
 20
135.2022883041591967
 30
0.0
 42
-0.267949192431122
  0
VERTEX
  5
7A6
  8
TMG_-_VISÍVEL
 10
342.5897459621555754
 20
122.7022883041592962
 30
0.0
 42
0.577350269189625
  0
VERTEX
  5
7A7
  8
TMG_-_VISÍVEL
 10
359.9102540378444246
 20
122.7022883041591967
 30
0.0
 42
-0.267949192431122
  0
SEQEND
  5
7A8
  8
TMG_-_VISÍVEL
  0
ENDSEC
  0
EOF
