  0
SECTION
  2
HEADER
  9
$ACADVER
  1
AC1009
  9
$INSBASE
 10
0.0
 20
0.0
 30
0.0
  9
$EXTMIN
 10
2896.5387385577660098
 20
1978.2245469685360604
 30
0.0
  9
$EXTMAX
 10
4696.5387385577651003
 20
2485.724546968535833
 30
0.0
  9
$LIMMIN
 10
0.0
 20
0.0
  9
$LIMMAX
 10
420.0
 20
297.0
  9
$ORTHOMODE
 70
     1
  9
$REGENMODE
 70
     1
  9
$FILLMODE
 70
     1
  9
$QTEXTMODE
 70
     0
  9
$MIRRTEXT
 70
     0
  9
$DRAGMODE
 70
     2
  9
$LTSCALE
 40
1.0
  9
$OSMODE
 70
   951
  9
$ATTMODE
 70
     1
  9
$TEXTSIZE
 40
2.5
  9
$TRACEWID
 40
1.0
  9
$TEXTSTYLE
  7
STANDARD
  9
$CLAYER
  8
0
  9
$CELTYPE
  6
BYLAYER
  9
$CECOLOR
 62
   256
  9
$DIMSCALE
 40
1.0
  9
$DIMASZ
 40
2.5
  9
$DIMEXO
 40
0.625
  9
$DIMDLI
 40
3.75
  9
$DIMRND
 40
0.0
  9
$DIMDLE
 40
0.0
  9
$DIMEXE
 40
1.25
  9
$DIMTP
 40
0.0
  9
$DIMTM
 40
0.0
  9
$DIMTXT
 40
2.5
  9
$DIMCEN
 40
2.5
  9
$DIMTSZ
 40
0.0
  9
$DIMTOL
 70
     0
  9
$DIMLIM
 70
     0
  9
$DIMTIH
 70
     0
  9
$DIMTOH
 70
     0
  9
$DIMSE1
 70
     0
  9
$DIMSE2
 70
     0
  9
$DIMTAD
 70
     1
  9
$DIMZIN
 70
     8
  9
$DIMBLK
  1

  9
$DIMASO
 70
     1
  9
$DIMSHO
 70
     1
  9
$DIMPOST
  1

  9
$DIMAPOST
  1

  9
$DIMALT
 70
     0
  9
$DIMALTD
 70
     3
  9
$DIMALTF
 40
0.03937007874016
  9
$DIMLFAC
 40
1.0
  9
$DIMTOFL
 70
     1
  9
$DIMTVP
 40
0.0
  9
$DIMTIX
 70
     0
  9
$DIMSOXD
 70
     0
  9
$DIMSAH
 70
     0
  9
$DIMBLK1
  1

  9
$DIMBLK2
  1

  9
$DIMSTYLE
  2
ISO-25
  9
$DIMCLRD
 70
     0
  9
$DIMCLRE
 70
     0
  9
$DIMCLRT
 70
     0
  9
$DIMTFAC
 40
1.0
  9
$DIMGAP
 40
0.625
  9
$LUNITS
 70
     2
  9
$LUPREC
 70
     4
  9
$SKETCHINC
 40
1.0
  9
$FILLETRAD
 40
0.0
  9
$AUNITS
 70
     0
  9
$AUPREC
 70
     0
  9
$MENU
  1
.
  9
$ELEVATION
 40
0.0
  9
$PELEVATION
 40
0.0
  9
$THICKNESS
 40
0.0
  9
$LIMCHECK
 70
     0
  9
$BLIPMODE
 70
     0
  9
$CHAMFERA
 40
0.0
  9
$CHAMFERB
 40
0.0
  9
$SKPOLY
 70
     0
  9
$TDCREATE
 40
2459906.4103009258396924
  9
$TDUPDATE
 40
2459906.4330671299248934
  9
$TDINDWG
 40
0.0227777778
  9
$TDUSRTIMER
 40
0.0227777778
  9
$USRTIMER
 70
     1
  9
$ANGBASE
 50
0.0
  9
$ANGDIR
 70
     0
  9
$PDMODE
 70
     0
  9
$PDSIZE
 40
0.0
  9
$PLINEWID
 40
0.0
  9
$COORDS
 70
     1
  9
$SPLFRAME
 70
     0
  9
$SPLINETYPE
 70
     6
  9
$SPLINESEGS
 70
     8
  9
$ATTDIA
 70
     1
  9
$ATTREQ
 70
     1
  9
$HANDLING
 70
     1
  9
$HANDSEED
  5
539
  9
$SURFTAB1
 70
     6
  9
$SURFTAB2
 70
     6
  9
$SURFTYPE
 70
     6
  9
$SURFU
 70
     6
  9
$SURFV
 70
     6
  9
$UCSNAME
  2

  9
$UCSORG
 10
0.0
 20
0.0
 30
0.0
  9
$UCSXDIR
 10
1.0
 20
0.0
 30
0.0
  9
$UCSYDIR
 10
0.0
 20
1.0
 30
0.0
  9
$PUCSNAME
  2

  9
$PUCSORG
 10
0.0
 20
0.0
 30
0.0
  9
$PUCSXDIR
 10
1.0
 20
0.0
 30
0.0
  9
$PUCSYDIR
 10
0.0
 20
1.0
 30
0.0
  9
$USERI1
 70
     0
  9
$USERI2
 70
     0
  9
$USERI3
 70
     0
  9
$USERI4
 70
     0
  9
$USERI5
 70
     0
  9
$USERR1
 40
0.0
  9
$USERR2
 40
0.0
  9
$USERR3
 40
0.0
  9
$USERR4
 40
0.0
  9
$USERR5
 40
0.0
  9
$WORLDVIEW
 70
     1
  9
$SHADEDGE
 70
     3
  9
$SHADEDIF
 70
    70
  9
$TILEMODE
 70
     1
  9
$MAXACTVP
 70
    64
  9
$PLIMCHECK
 70
     0
  9
$PEXTMIN
 10
0.0
 20
0.0
 30
0.0
  9
$PEXTMAX
 10
0.0
 20
0.0
 30
0.0
  9
$PLIMMIN
 10
0.0
 20
0.0
  9
$PLIMMAX
 10
12.0
 20
9.0
  9
$UNITMODE
 70
     0
  9
$VISRETAIN
 70
     1
  9
$PLINEGEN
 70
     0
  9
$PSLTSCALE
 70
     1
  0
ENDSEC
  0
SECTION
  2
TABLES
  0
TABLE
  2
VPORT
 70
     1
  0
VPORT
  2
*ACTIVE
 70
     0
 10
0.0
 20
0.0
 11
1.0
 21
1.0
 12
4266.2703512286034311
 22
2179.6302542807698046
 13
0.0
 23
0.0
 14
10.0
 24
10.0
 15
10.0
 25
10.0
 16
0.0
 26
0.0
 36
1.0
 17
0.0
 27
0.0
 37
0.0
 40
1713.9569543030509067
 41
2.3047158403869399
 42
50.0
 43
0.0
 44
0.0
 50
0.0
 51
0.0
 71
     0
 72
  1000
 73
     1
 74
     3
 75
     0
 76
     0
 77
     0
 78
     0
  0
ENDTAB
  0
TABLE
  2
LTYPE
 70
     2
  0
LTYPE
  2
CONTINUOUS
 70
     0
  3
Solid line
 72
    65
 73
     0
 40
0.0
  0
ENDTAB
  0
TABLE
  2
LAYER
 70
     1
  0
LAYER
  2
0
 70
     0
 62
     7
  6
CONTINUOUS
  0
ENDTAB
  0
TABLE
  2
STYLE
 70
     2
  0
STYLE
  2
STANDARD
 70
     0
 40
0.0
 41
1.0
 50
0.0
 71
     0
 42
2.5
  3
txt
  4

  0
STYLE
  2
ANNOTATIVE
 70
     0
 40
0.0
 41
1.0
 50
0.0
 71
     0
 42
2.5
  3
txt
  4

  0
ENDTAB
  0
TABLE
  2
VIEW
 70
     0
  0
ENDTAB
  0
TABLE
  2
UCS
 70
     0
  0
ENDTAB
  0
TABLE
  2
APPID
 70
     9
  0
APPID
  2
ACAD
 70
     0
  0
APPID
  2
ACAD_PSEXT
 70
     0
  0
APPID
  2
ACADANNOPO
 70
     0
  0
APPID
  2
ACADANNOTATIVE
 70
     0
  0
APPID
  2
ACAD_DSTYLE_DIMJAG
 70
     0
  0
APPID
  2
ACAD_DSTYLE_DIMTALN
 70
     0
  0
APPID
  2
ACAD_MLEADERVER
 70
     0
  0
APPID
  2
ACAD_NAV_VCDISPLAY
 70
     0
  0
APPID
  2
ACAD_EXEMPT_FROM_CAD_STANDARDS
 70
     0
  0
ENDTAB
  0
TABLE
  2
DIMSTYLE
 70
     4
  0
DIMSTYLE
  2
STANDARD
 70
     0
  3

  4

  5

  6

  7

 40
1.0
 41
0.18
 42
0.0625
 43
0.38
 44
0.18
 45
0.0
 46
0.0
 47
0.0
 48
0.0
140
0.18
141
0.09
142
0.0
143
25.3999999999999986
144
1.0
145
0.0
146
1.0
147
0.09
 71
     0
 72
     0
 73
     1
 74
     1
 75
     0
 76
     0
 77
     0
 78
     0
170
     0
171
     2
172
     0
173
     0
174
     0
175
     0
176
     0
177
     0
178
     0
  0
DIMSTYLE
  2
ANNOTATIVE
 70
     0
  3

  4

  5

  6

  7

 40
0.0
 41
2.5
 42
0.625
 43
3.75
 44
1.25
 45
0.0
 46
0.0
 47
0.0
 48
0.0
140
2.5
141
2.5
142
0.0
143
0.03937007874016
144
1.0
145
0.0
146
1.0
147
0.625
 71
     0
 72
     0
 73
     0
 74
     0
 75
     0
 76
     0
 77
     1
 78
     8
170
     0
171
     3
172
     1
173
     0
174
     0
175
     0
176
     0
177
     0
178
     0
  0
DIMSTYLE
  2
ISO-25
 70
     0
  3

  4

  5

  6

  7

 40
1.0
 41
2.5
 42
0.625
 43
3.75
 44
1.25
 45
0.0
 46
0.0
 47
0.0
 48
0.0
140
2.5
141
2.5
142
0.0
143
0.03937007874016
144
1.0
145
0.0
146
1.0
147
0.625
 71
     0
 72
     0
 73
     0
 74
     0
 75
     0
 76
     0
 77
     1
 78
     8
170
     0
171
     3
172
     1
173
     0
174
     0
175
     0
176
     0
177
     0
178
     0
  0
ENDTAB
  0
ENDSEC
  0
SECTION
  2
BLOCKS
  0
BLOCK
  8
0
  2
$MODEL_SPACE
 70
     0
 10
0.0
 20
0.0
 30
0.0
  3
$MODEL_SPACE
  1

  0
ENDBLK
  5
21
  8
0
  0
BLOCK
 67
     1
  8
0
  2
$PAPER_SPACE
 70
     0
 10
0.0
 20
0.0
 30
0.0
  3
$PAPER_SPACE
  1

  0
ENDBLK
  5
D5
 67
     1
  8
0
  0
ENDSEC
  0
SECTION
  2
ENTITIES
  0
POLYLINE
  5
29C
  8
0
 66
     1
 10
0.0
 20
0.0
 30
0.0
 70
     1
  0
VERTEX
  5
46C
  8
0
 10
2896.5387385577660098
 20
1980.7245469685360604
 30
0.0
  0
VERTEX
  5
46D
  8
0
 10
4696.5387385577651003
 20
1980.7245469685360604
 30
0.0
  0
VERTEX
  5
46E
  8
0
 10
4696.5387385577651003
 20
2485.724546968535833
 30
0.0
  0
VERTEX
  5
46F
  8
0
 10
2896.5387385577660098
 20
2485.724546968535833
 30
0.0
  0
SEQEND
  5
470
  8
0
  0
CIRCLE
  5
2B5
  8
0
  6
CONTINUOUS
 62
     7
 10
3676.9162750018399493
 20
2336.9904387449419119
 30
0.0
 40
6.0
  0
CIRCLE
  5
2B6
  8
0
  6
CONTINUOUS
 62
     7
 10
3716.9162750018399493
 20
2336.9904387449419119
 30
0.0
 40
6.0
  0
CIRCLE
  5
2B7
  8
0
  6
CONTINUOUS
 62
     7
 10
4600.916275001838585
 20
2336.9904387449419119
 30
0.0
 40
6.0
  0
CIRCLE
  5
2B8
  8
0
  6
CONTINUOUS
 62
     7
 10
4640.916275001838585
 20
2336.9904387449419119
 30
0.0
 40
6.0
  0
POLYLINE
  5
2B9
  8
0
  6
CONTINUOUS
 62
     7
 66
     1
 10
0.0
 20
0.0
 30
0.0
 70
     1
  0
VERTEX
  5
4D5
  8
0
  6
CONTINUOUS
 62
     7
 10
4567.916275001840404
 20
2371.1404387449429123
 30
0.0
 42
0.4142135623730951
  0
VERTEX
  5
4D6
  8
0
  6
CONTINUOUS
 62
     7
 10
4572.416275001838585
 20
2366.6404387449420028
 30
0.0
  0
VERTEX
  5
4D7
  8
0
  6
CONTINUOUS
 62
     7
 10
4661.416275001838585
 20
2366.6404387449420028
 30
0.0
 42
-0.4142135623730951
  0
VERTEX
  5
4D8
  8
0
  6
CONTINUOUS
 62
     7
 10
4665.916275001840404
 20
2362.1404387449420028
 30
0.0
  0
VERTEX
  5
4D9
  8
0
  6
CONTINUOUS
 62
     7
 10
4665.916275001840404
 20
2317.1404387449420028
 30
0.0
 42
-0.4142135623730951
  0
VERTEX
  5
4DA
  8
0
  6
CONTINUOUS
 62
     7
 10
4661.416275001838585
 20
2312.6404387449429123
 30
0.0
  0
VERTEX
  5
4DB
  8
0
  6
CONTINUOUS
 62
     7
 10
3656.4162750018399493
 20
2312.6404387449429123
 30
0.0
 42
-0.4142135623730951
  0
VERTEX
  5
4DC
  8
0
  6
CONTINUOUS
 62
     7
 10
3651.9162750018399493
 20
2317.1404387449420028
 30
0.0
  0
VERTEX
  5
4DD
  8
0
  6
CONTINUOUS
 62
     7
 10
3651.9162750018399493
 20
2362.1404387449420028
 30
0.0
 42
-0.4142135623730951
  0
VERTEX
  5
4DE
  8
0
  6
CONTINUOUS
 62
     7
 10
3656.4162750018399493
 20
2366.6404387449420028
 30
0.0
  0
VERTEX
  5
4DF
  8
0
  6
CONTINUOUS
 62
     7
 10
3745.4162750018399493
 20
2366.6404387449420028
 30
0.0
 42
0.4142135623730951
  0
VERTEX
  5
4E0
  8
0
  6
CONTINUOUS
 62
     7
 10
3749.9162750018399493
 20
2371.1404387449429123
 30
0.0
  0
VERTEX
  5
4E1
  8
0
  6
CONTINUOUS
 62
     7
 10
3749.9162750018399493
 20
2372.1404387449420028
 30
0.0
 42
-0.4142135623730951
  0
VERTEX
  5
4E2
  8
0
  6
CONTINUOUS
 62
     7
 10
3754.4162750018399493
 20
2376.6404387449420028
 30
0.0
  0
VERTEX
  5
4E3
  8
0
  6
CONTINUOUS
 62
     7
 10
4120.416275001838585
 20
2376.6404387449420028
 30
0.0
 42
-0.4142135623730951
  0
VERTEX
  5
4E4
  8
0
  6
CONTINUOUS
 62
     7
 10
4124.916275001838585
 20
2372.1404387449420028
 30
0.0
  0
VERTEX
  5
4E5
  8
0
  6
CONTINUOUS
 62
     7
 10
4124.916275001838585
 20
2348.1404387449429123
 30
0.0
 42
0.4142135623730951
  0
VERTEX
  5
4E6
  8
0
  6
CONTINUOUS
 62
     7
 10
4129.416275001838585
 20
2343.6404387449429123
 30
0.0
  0
VERTEX
  5
4E7
  8
0
  6
CONTINUOUS
 62
     7
 10
4188.416275001840404
 20
2343.6404387449429123
 30
0.0
 42
0.4142135623730951
  0
VERTEX
  5
4E8
  8
0
  6
CONTINUOUS
 62
     7
 10
4192.916275001840404
 20
2348.1404387449429123
 30
0.0
  0
VERTEX
  5
4E9
  8
0
  6
CONTINUOUS
 62
     7
 10
4192.916275001840404
 20
2372.1404387449420028
 30
0.0
 42
-0.4142135623730951
  0
VERTEX
  5
4EA
  8
0
  6
CONTINUOUS
 62
     7
 10
4197.416275001838585
 20
2376.6404387449420028
 30
0.0
  0
VERTEX
  5
4EB
  8
0
  6
CONTINUOUS
 62
     7
 10
4563.416275001840404
 20
2376.6404387449420028
 30
0.0
 42
-0.4142135623730951
  0
VERTEX
  5
4EC
  8
0
  6
CONTINUOUS
 62
     7
 10
4567.916275001840404
 20
2372.1404387449420028
 30
0.0
  0
SEQEND
  5
4ED
  8
0
  6
CONTINUOUS
 62
     7
  0
CIRCLE
  5
2BA
  8
0
  6
CONTINUOUS
 62
     7
 10
3673.3388161718908123
 20
2238.0550972924561393
 30
0.0
 40
6.0
  0
CIRCLE
  5
2BB
  8
0
  6
CONTINUOUS
 62
     7
 10
3713.3388161718908123
 20
2238.0550972924561393
 30
0.0
 40
6.0
  0
CIRCLE
  5
2BC
  8
0
  6
CONTINUOUS
 62
     7
 10
4597.3388161718903575
 20
2238.0550972924561393
 30
0.0
 40
6.0
  0
CIRCLE
  5
2BD
  8
0
  6
CONTINUOUS
 62
     7
 10
4637.3388161718903575
 20
2238.0550972924561393
 30
0.0
 40
6.0
  0
POLYLINE
  5
2BE
  8
0
  6
CONTINUOUS
 62
     7
 66
     1
 10
0.0
 20
0.0
 30
0.0
 70
     1
  0
VERTEX
  5
4EE
  8
0
  6
CONTINUOUS
 62
     7
 10
4564.3388161718903575
 20
2272.2050972924557755
 30
0.0
 42
0.4142135623730951
  0
VERTEX
  5
4EF
  8
0
  6
CONTINUOUS
 62
     7
 10
4568.8388161718903575
 20
2267.7050972924557755
 30
0.0
  0
VERTEX
  5
4F0
  8
0
  6
CONTINUOUS
 62
     7
 10
4657.8388161718903575
 20
2267.7050972924557755
 30
0.0
 42
-0.4142135623730951
  0
VERTEX
  5
4F1
  8
0
  6
CONTINUOUS
 62
     7
 10
4662.338816171891267
 20
2263.2050972924557755
 30
0.0
  0
VERTEX
  5
4F2
  8
0
  6
CONTINUOUS
 62
     7
 10
4662.338816171891267
 20
2218.2050972924557755
 30
0.0
 42
-0.4142135623730951
  0
VERTEX
  5
4F3
  8
0
  6
CONTINUOUS
 62
     7
 10
4657.8388161718903575
 20
2213.7050972924557755
 30
0.0
  0
VERTEX
  5
4F4
  8
0
  6
CONTINUOUS
 62
     7
 10
3652.8388161718899028
 20
2213.7050972924557755
 30
0.0
 42
-0.4142135623730951
  0
VERTEX
  5
4F5
  8
0
  6
CONTINUOUS
 62
     7
 10
3648.3388161718908123
 20
2218.2050972924557755
 30
0.0
  0
VERTEX
  5
4F6
  8
0
  6
CONTINUOUS
 62
     7
 10
3648.3388161718908123
 20
2263.2050972924557755
 30
0.0
 42
-0.4142135623730951
  0
VERTEX
  5
4F7
  8
0
  6
CONTINUOUS
 62
     7
 10
3652.8388161718899028
 20
2267.7050972924557755
 30
0.0
  0
VERTEX
  5
4F8
  8
0
  6
CONTINUOUS
 62
     7
 10
3741.8388161718899028
 20
2267.7050972924557755
 30
0.0
 42
0.4142135623730951
  0
VERTEX
  5
4F9
  8
0
  6
CONTINUOUS
 62
     7
 10
3746.3388161718908123
 20
2272.2050972924557755
 30
0.0
  0
VERTEX
  5
4FA
  8
0
  6
CONTINUOUS
 62
     7
 10
3746.3388161718908123
 20
2273.2050972924557755
 30
0.0
 42
-0.4142135623730951
  0
VERTEX
  5
4FB
  8
0
  6
CONTINUOUS
 62
     7
 10
3750.8388161718908123
 20
2277.7050972924557755
 30
0.0
  0
VERTEX
  5
4FC
  8
0
  6
CONTINUOUS
 62
     7
 10
4116.8388161718903575
 20
2277.7050972924557755
 30
0.0
 42
-0.4142135623730951
  0
VERTEX
  5
4FD
  8
0
  6
CONTINUOUS
 62
     7
 10
4121.3388161718903575
 20
2273.2050972924557755
 30
0.0
  0
VERTEX
  5
4FE
  8
0
  6
CONTINUOUS
 62
     7
 10
4121.3388161718903575
 20
2249.2050972924557755
 30
0.0
 42
0.4142135623730951
  0
VERTEX
  5
4FF
  8
0
  6
CONTINUOUS
 62
     7
 10
4125.8388161718903575
 20
2244.7050972924557755
 30
0.0
  0
VERTEX
  5
500
  8
0
  6
CONTINUOUS
 62
     7
 10
4184.8388161718903575
 20
2244.7050972924557755
 30
0.0
 42
0.4142135623730951
  0
VERTEX
  5
501
  8
0
  6
CONTINUOUS
 62
     7
 10
4189.3388161718903575
 20
2249.2050972924557755
 30
0.0
  0
VERTEX
  5
502
  8
0
  6
CONTINUOUS
 62
     7
 10
4189.3388161718903575
 20
2273.2050972924557755
 30
0.0
 42
-0.4142135623730951
  0
VERTEX
  5
503
  8
0
  6
CONTINUOUS
 62
     7
 10
4193.8388161718903575
 20
2277.7050972924557755
 30
0.0
  0
VERTEX
  5
504
  8
0
  6
CONTINUOUS
 62
     7
 10
4559.8388161718903575
 20
2277.7050972924557755
 30
0.0
 42
-0.4142135623730951
  0
VERTEX
  5
505
  8
0
  6
CONTINUOUS
 62
     7
 10
4564.3388161718903575
 20
2273.2050972924557755
 30
0.0
  0
SEQEND
  5
506
  8
0
  6
CONTINUOUS
 62
     7
  0
CIRCLE
  5
2BF
  8
0
  6
CONTINUOUS
 62
     7
 10
3673.3388161718908123
 20
2139.0550972924561393
 30
0.0
 40
6.0
  0
CIRCLE
  5
2C0
  8
0
  6
CONTINUOUS
 62
     7
 10
3713.3388161718908123
 20
2139.0550972924561393
 30
0.0
 40
6.0
  0
CIRCLE
  5
2C1
  8
0
  6
CONTINUOUS
 62
     7
 10
4597.3388161718903575
 20
2139.0550972924561393
 30
0.0
 40
6.0
  0
CIRCLE
  5
2C2
  8
0
  6
CONTINUOUS
 62
     7
 10
4637.3388161718903575
 20
2139.0550972924561393
 30
0.0
 40
6.0
  0
POLYLINE
  5
2C3
  8
0
  6
CONTINUOUS
 62
     7
 66
     1
 10
0.0
 20
0.0
 30
0.0
 70
     1
  0
VERTEX
  5
507
  8
0
  6
CONTINUOUS
 62
     7
 10
4564.3388161718903575
 20
2173.2050972924557755
 30
0.0
 42
0.4142135623730951
  0
VERTEX
  5
508
  8
0
  6
CONTINUOUS
 62
     7
 10
4568.8388161718903575
 20
2168.7050972924557755
 30
0.0
  0
VERTEX
  5
509
  8
0
  6
CONTINUOUS
 62
     7
 10
4657.8388161718903575
 20
2168.7050972924557755
 30
0.0
 42
-0.4142135623730951
  0
VERTEX
  5
50A
  8
0
  6
CONTINUOUS
 62
     7
 10
4662.338816171891267
 20
2164.2050972924557755
 30
0.0
  0
VERTEX
  5
50B
  8
0
  6
CONTINUOUS
 62
     7
 10
4662.338816171891267
 20
2119.2050972924557755
 30
0.0
 42
-0.4142135623730951
  0
VERTEX
  5
50C
  8
0
  6
CONTINUOUS
 62
     7
 10
4657.8388161718903575
 20
2114.7050972924571397
 30
0.0
  0
VERTEX
  5
50D
  8
0
  6
CONTINUOUS
 62
     7
 10
3652.8388161718899028
 20
2114.7050972924571397
 30
0.0
 42
-0.4142135623730951
  0
VERTEX
  5
50E
  8
0
  6
CONTINUOUS
 62
     7
 10
3648.3388161718908123
 20
2119.2050972924557755
 30
0.0
  0
VERTEX
  5
50F
  8
0
  6
CONTINUOUS
 62
     7
 10
3648.3388161718908123
 20
2164.2050972924557755
 30
0.0
 42
-0.4142135623730951
  0
VERTEX
  5
510
  8
0
  6
CONTINUOUS
 62
     7
 10
3652.8388161718899028
 20
2168.7050972924557755
 30
0.0
  0
VERTEX
  5
511
  8
0
  6
CONTINUOUS
 62
     7
 10
3741.8388161718899028
 20
2168.7050972924557755
 30
0.0
 42
0.4142135623730951
  0
VERTEX
  5
512
  8
0
  6
CONTINUOUS
 62
     7
 10
3746.3388161718908123
 20
2173.2050972924557755
 30
0.0
  0
VERTEX
  5
513
  8
0
  6
CONTINUOUS
 62
     7
 10
3746.3388161718908123
 20
2174.2050972924557755
 30
0.0
 42
-0.4142135623730951
  0
VERTEX
  5
514
  8
0
  6
CONTINUOUS
 62
     7
 10
3750.8388161718908123
 20
2178.7050972924557755
 30
0.0
  0
VERTEX
  5
515
  8
0
  6
CONTINUOUS
 62
     7
 10
4116.8388161718903575
 20
2178.7050972924557755
 30
0.0
 42
-0.4142135623730951
  0
VERTEX
  5
516
  8
0
  6
CONTINUOUS
 62
     7
 10
4121.3388161718903575
 20
2174.2050972924557755
 30
0.0
  0
VERTEX
  5
517
  8
0
  6
CONTINUOUS
 62
     7
 10
4121.3388161718903575
 20
2150.2050972924557755
 30
0.0
 42
0.4142135623730951
  0
VERTEX
  5
518
  8
0
  6
CONTINUOUS
 62
     7
 10
4125.8388161718903575
 20
2145.7050972924557755
 30
0.0
  0
VERTEX
  5
519
  8
0
  6
CONTINUOUS
 62
     7
 10
4184.8388161718903575
 20
2145.7050972924557755
 30
0.0
 42
0.4142135623730951
  0
VERTEX
  5
51A
  8
0
  6
CONTINUOUS
 62
     7
 10
4189.3388161718903575
 20
2150.2050972924557755
 30
0.0
  0
VERTEX
  5
51B
  8
0
  6
CONTINUOUS
 62
     7
 10
4189.3388161718903575
 20
2174.2050972924557755
 30
0.0
 42
-0.4142135623730951
  0
VERTEX
  5
51C
  8
0
  6
CONTINUOUS
 62
     7
 10
4193.8388161718903575
 20
2178.7050972924557755
 30
0.0
  0
VERTEX
  5
51D
  8
0
  6
CONTINUOUS
 62
     7
 10
4559.8388161718903575
 20
2178.7050972924557755
 30
0.0
 42
-0.4142135623730951
  0
VERTEX
  5
51E
  8
0
  6
CONTINUOUS
 62
     7
 10
4564.3388161718903575
 20
2174.2050972924557755
 30
0.0
  0
SEQEND
  5
51F
  8
0
  6
CONTINUOUS
 62
     7
  0
CIRCLE
  5
2C4
  8
0
  6
CONTINUOUS
 62
     7
 10
3673.3388161718908123
 20
2040.0550972924559119
 30
0.0
 40
6.0
  0
CIRCLE
  5
2C5
  8
0
  6
CONTINUOUS
 62
     7
 10
3713.3388161718908123
 20
2040.0550972924559119
 30
0.0
 40
6.0
  0
CIRCLE
  5
2C6
  8
0
  6
CONTINUOUS
 62
     7
 10
4597.3388161718903575
 20
2040.0550972924559119
 30
0.0
 40
6.0
  0
CIRCLE
  5
2C7
  8
0
  6
CONTINUOUS
 62
     7
 10
4637.3388161718903575
 20
2040.0550972924559119
 30
0.0
 40
6.0
  0
POLYLINE
  5
2C8
  8
0
  6
CONTINUOUS
 62
     7
 66
     1
 10
0.0
 20
0.0
 30
0.0
 70
     1
  0
VERTEX
  5
520
  8
0
  6
CONTINUOUS
 62
     7
 10
4564.3388161718903575
 20
2074.2050972924557755
 30
0.0
 42
0.4142135623730951
  0
VERTEX
  5
521
  8
0
  6
CONTINUOUS
 62
     7
 10
4568.8388161718903575
 20
2069.7050972924557755
 30
0.0
  0
VERTEX
  5
522
  8
0
  6
CONTINUOUS
 62
     7
 10
4657.8388161718903575
 20
2069.7050972924557755
 30
0.0
 42
-0.4142135623730951
  0
VERTEX
  5
523
  8
0
  6
CONTINUOUS
 62
     7
 10
4662.338816171891267
 20
2065.2050972924557755
 30
0.0
  0
VERTEX
  5
524
  8
0
  6
CONTINUOUS
 62
     7
 10
4662.338816171891267
 20
2020.2050972924569123
 30
0.0
 42
-0.4142135623730951
  0
VERTEX
  5
525
  8
0
  6
CONTINUOUS
 62
     7
 10
4657.8388161718903575
 20
2015.7050972924560028
 30
0.0
  0
VERTEX
  5
526
  8
0
  6
CONTINUOUS
 62
     7
 10
3652.8388161718899028
 20
2015.7050972924560028
 30
0.0
 42
-0.4142135623730951
  0
VERTEX
  5
527
  8
0
  6
CONTINUOUS
 62
     7
 10
3648.3388161718908123
 20
2020.2050972924569123
 30
0.0
  0
VERTEX
  5
528
  8
0
  6
CONTINUOUS
 62
     7
 10
3648.3388161718908123
 20
2065.2050972924557755
 30
0.0
 42
-0.4142135623730951
  0
VERTEX
  5
529
  8
0
  6
CONTINUOUS
 62
     7
 10
3652.8388161718899028
 20
2069.7050972924557755
 30
0.0
  0
VERTEX
  5
52A
  8
0
  6
CONTINUOUS
 62
     7
 10
3741.8388161718899028
 20
2069.7050972924557755
 30
0.0
 42
0.4142135623730951
  0
VERTEX
  5
52B
  8
0
  6
CONTINUOUS
 62
     7
 10
3746.3388161718908123
 20
2074.2050972924557755
 30
0.0
  0
VERTEX
  5
52C
  8
0
  6
CONTINUOUS
 62
     7
 10
3746.3388161718908123
 20
2075.2050972924557755
 30
0.0
 42
-0.4142135623730951
  0
VERTEX
  5
52D
  8
0
  6
CONTINUOUS
 62
     7
 10
3750.8388161718908123
 20
2079.7050972924557755
 30
0.0
  0
VERTEX
  5
52E
  8
0
  6
CONTINUOUS
 62
     7
 10
4116.8388161718903575
 20
2079.7050972924557755
 30
0.0
 42
-0.4142135623730951
  0
VERTEX
  5
52F
  8
0
  6
CONTINUOUS
 62
     7
 10
4121.3388161718903575
 20
2075.2050972924557755
 30
0.0
  0
VERTEX
  5
530
  8
0
  6
CONTINUOUS
 62
     7
 10
4121.3388161718903575
 20
2051.2050972924557755
 30
0.0
 42
0.4142135623730951
  0
VERTEX
  5
531
  8
0
  6
CONTINUOUS
 62
     7
 10
4125.8388161718903575
 20
2046.7050972924560028
 30
0.0
  0
VERTEX
  5
532
  8
0
  6
CONTINUOUS
 62
     7
 10
4184.8388161718903575
 20
2046.7050972924560028
 30
0.0
 42
0.4142135623730951
  0
VERTEX
  5
533
  8
0
  6
CONTINUOUS
 62
     7
 10
4189.3388161718903575
 20
2051.2050972924557755
 30
0.0
  0
VERTEX
  5
534
  8
0
  6
CONTINUOUS
 62
     7
 10
4189.3388161718903575
 20
2075.2050972924557755
 30
0.0
 42
-0.4142135623730951
  0
VERTEX
  5
535
  8
0
  6
CONTINUOUS
 62
     7
 10
4193.8388161718903575
 20
2079.7050972924557755
 30
0.0
  0
VERTEX
  5
536
  8
0
  6
CONTINUOUS
 62
     7
 10
4559.8388161718903575
 20
2079.7050972924557755
 30
0.0
 42
-0.4142135623730951
  0
VERTEX
  5
537
  8
0
  6
CONTINUOUS
 62
     7
 10
4564.3388161718903575
 20
2075.2050972924557755
 30
0.0
  0
SEQEND
  5
538
  8
0
  6
CONTINUOUS
 62
     7
  0
CIRCLE
  5
3F0
  8
0
 10
3615.4320250974860755
 20
2340.6893896053979915
 30
0.0
 40
2.5
  0
CIRCLE
  5
3F1
  8
0
 10
3615.4320250974860755
 20
2237.5308979623519008
 30
0.0
 40
2.5
  0
CIRCLE
  5
3F2
  8
0
 10
3615.4320250974860755
 20
2140.6298470586762051
 30
0.0
 40
2.5
  0
CIRCLE
  5
3F3
  8
0
 10
3615.4320250974860755
 20
2040.5517060496779322
 30
0.0
 40
2.5
  0
CIRCLE
  5
3F4
  8
0
 10
3676.4727412478418955
 20
1995.278260999458098
 30
0.0
 40
2.5
  0
CIRCLE
  5
3F5
  8
0
 10
3832.6980374815148025
 20
1995.278260999458098
 30
0.0
 40
2.5
  0
CIRCLE
  5
3F7
  8
0
 10
3975.6035395074509324
 20
1995.278260999458098
 30
0.0
 40
2.5
  0
CIRCLE
  5
3F8
  8
0
 10
4177.4960604867656002
 20
1995.278260999458098
 30
0.0
 40
2.5
  0
CIRCLE
  5
3FA
  8
0
 10
4379.3933376035956826
 20
1995.278260999458098
 30
0.0
 40
2.5
  0
CIRCLE
  5
3FB
  8
0
 10
4614.2593846777454019
 20
1995.278260999458098
 30
0.0
 40
2.5
  0
CIRCLE
  5
3FC
  8
0
 10
4679.519525370291376
 20
2340.6893896053979915
 30
0.0
 40
2.5
  0
CIRCLE
  5
3FD
  8
0
 10
4679.519525370291376
 20
2237.5308979623519008
 30
0.0
 40
2.5
  0
CIRCLE
  5
3FE
  8
0
 10
4679.519525370291376
 20
2140.6298470586762051
 30
0.0
 40
2.5
  0
CIRCLE
  5
3FF
  8
0
 10
4679.519525370291376
 20
2040.5517060496779322
 30
0.0
 40
2.5
  0
CIRCLE
  5
400
  8
0
 10
4156.5688765074655748
 20
2362.3600856401890269
 30
0.0
 40
2.5
  0
CIRCLE
  5
401
  8
0
 10
4156.5688765074655748
 20
2259.2015939971429361
 30
0.0
 40
2.5
  0
CIRCLE
  5
402
  8
0
 10
4156.5688765074655748
 20
2162.3005430934667856
 30
0.0
 40
2.5
  0
CIRCLE
  5
403
  8
0
 10
4156.5688765074655748
 20
2062.222402084469195
 30
0.0
 40
2.5
  0
CIRCLE
  5
404
  8
0
 10
3676.4727412478418955
 20
2397.9365663743237747
 30
0.0
 40
2.5
  0
CIRCLE
  5
405
  8
0
 10
3832.6980374815148025
 20
2397.9365663743237747
 30
0.0
 40
2.5
  0
CIRCLE
  5
406
  8
0
 10
3975.6035395074509324
 20
2397.9365663743237747
 30
0.0
 40
2.5
  0
CIRCLE
  5
407
  8
0
 10
4177.4960604867656002
 20
2397.9365663743237747
 30
0.0
 40
2.5
  0
CIRCLE
  5
408
  8
0
 10
4379.3933376035956826
 20
2397.9365663743237747
 30
0.0
 40
2.5
  0
CIRCLE
  5
409
  8
0
 10
4614.2593846777454019
 20
2397.9365663743237747
 30
0.0
 40
2.5
  0
CIRCLE
  5
40A
  8
0
 10
3676.4727412478418955
 20
2295.0204926934989089
 30
0.0
 40
2.5
  0
CIRCLE
  5
40B
  8
0
 10
3832.6980374815148025
 20
2295.0204926934989089
 30
0.0
 40
2.5
  0
CIRCLE
  5
40C
  8
0
 10
3975.6035395074509324
 20
2295.0204926934989089
 30
0.0
 40
2.5
  0
CIRCLE
  5
40D
  8
0
 10
4177.4960604867656002
 20
2295.0204926934989089
 30
0.0
 40
2.5
  0
CIRCLE
  5
40E
  8
0
 10
4379.3933376035956826
 20
2295.0204926934989089
 30
0.0
 40
2.5
  0
CIRCLE
  5
40F
  8
0
 10
4614.2593846777454019
 20
2295.0204926934989089
 30
0.0
 40
2.5
  0
CIRCLE
  5
410
  8
0
 10
3676.4727412478418955
 20
2196.1032641546162267
 30
0.0
 40
2.5
  0
CIRCLE
  5
411
  8
0
 10
3832.6980374815148025
 20
2196.1032641546162267
 30
0.0
 40
2.5
  0
CIRCLE
  5
412
  8
0
 10
3975.6035395074509324
 20
2196.1032641546162267
 30
0.0
 40
2.5
  0
CIRCLE
  5
413
  8
0
 10
4177.4960604867656002
 20
2196.1032641546162267
 30
0.0
 40
2.5
  0
CIRCLE
  5
414
  8
0
 10
4379.3933376035956826
 20
2196.1032641546162267
 30
0.0
 40
2.5
  0
CIRCLE
  5
415
  8
0
 10
4614.2593846777454019
 20
2196.1032641546162267
 30
0.0
 40
2.5
  0
CIRCLE
  5
416
  8
0
 10
3676.4727412478418955
 20
2097.5663691047770953
 30
0.0
 40
2.5
  0
CIRCLE
  5
417
  8
0
 10
3832.6980374815148025
 20
2097.5663691047770953
 30
0.0
 40
2.5
  0
CIRCLE
  5
418
  8
0
 10
3975.6035395074509324
 20
2097.5663691047770953
 30
0.0
 40
2.5
  0
CIRCLE
  5
419
  8
0
 10
4177.4960604867656002
 20
2097.5663691047770953
 30
0.0
 40
2.5
  0
CIRCLE
  5
41A
  8
0
 10
4379.3933376035956826
 20
2097.5663691047770953
 30
0.0
 40
2.5
  0
CIRCLE
  5
41B
  8
0
 10
4614.2593846777454019
 20
2097.5663691047770953
 30
0.0
 40
2.5
  0
ENDSEC
  0
EOF
