  0
SECTION
  2
HEADER
  9
$ACADVER
  1
AC1009
  9
$INSBASE
 10
0.0
 20
0.0
 30
0.0
  9
$EXTMIN
 10
1391.5599478590629587
 20
1163.5099655924109356
 30
0.0
  9
$EXTMAX
 10
2616.5599478590629587
 20
1943.5099655924109356
 30
0.0
  9
$LIMMIN
 10
0.0
 20
0.0
  9
$LIMMAX
 10
420.0
 20
297.0
  9
$ORTHOMODE
 70
     0
  9
$REGENMODE
 70
     1
  9
$FILLMODE
 70
     1
  9
$QTEXTMODE
 70
     0
  9
$MIRRTEXT
 70
     0
  9
$DRAGMODE
 70
     2
  9
$LTSCALE
 40
1.0
  9
$OSMODE
 70
   293
  9
$ATTMODE
 70
     1
  9
$TEXTSIZE
 40
2.5
  9
$TRACEWID
 40
1.0
  9
$TEXTSTYLE
  7
STANDARD
  9
$CLAYER
  8
0
  9
$CELTYPE
  6
BYLAYER
  9
$CECOLOR
 62
   256
  9
$DIMSCALE
 40
1.0
  9
$DIMASZ
 40
2.5
  9
$DIMEXO
 40
0.625
  9
$DIMDLI
 40
3.75
  9
$DIMRND
 40
0.0
  9
$DIMDLE
 40
0.0
  9
$DIMEXE
 40
1.25
  9
$DIMTP
 40
0.0
  9
$DIMTM
 40
0.0
  9
$DIMTXT
 40
2.5
  9
$DIMCEN
 40
2.5
  9
$DIMTSZ
 40
0.0
  9
$DIMTOL
 70
     0
  9
$DIMLIM
 70
     0
  9
$DIMTIH
 70
     0
  9
$DIMTOH
 70
     0
  9
$DIMSE1
 70
     0
  9
$DIMSE2
 70
     0
  9
$DIMTAD
 70
     1
  9
$DIMZIN
 70
     8
  9
$DIMBLK
  1

  9
$DIMASO
 70
     1
  9
$DIMSHO
 70
     1
  9
$DIMPOST
  1

  9
$DIMAPOST
  1

  9
$DIMALT
 70
     0
  9
$DIMALTD
 70
     3
  9
$DIMALTF
 40
0.03937007874016
  9
$DIMLFAC
 40
1.0
  9
$DIMTOFL
 70
     1
  9
$DIMTVP
 40
0.0
  9
$DIMTIX
 70
     0
  9
$DIMSOXD
 70
     0
  9
$DIMSAH
 70
     0
  9
$DIMBLK1
  1

  9
$DIMBLK2
  1

  9
$DIMSTYLE
  2
ISO-25
  9
$DIMCLRD
 70
     0
  9
$DIMCLRE
 70
     0
  9
$DIMCLRT
 70
     0
  9
$DIMTFAC
 40
1.0
  9
$DIMGAP
 40
0.625
  9
$LUNITS
 70
     2
  9
$LUPREC
 70
     4
  9
$SKETCHINC
 40
1.0
  9
$FILLETRAD
 40
0.0
  9
$AUNITS
 70
     0
  9
$AUPREC
 70
     0
  9
$MENU
  1
.
  9
$ELEVATION
 40
0.0
  9
$PELEVATION
 40
0.0
  9
$THICKNESS
 40
0.0
  9
$LIMCHECK
 70
     0
  9
$BLIPMODE
 70
     0
  9
$CHAMFERA
 40
0.0
  9
$CHAMFERB
 40
0.0
  9
$SKPOLY
 70
     0
  9
$TDCREATE
 40
2460154.4676620368845761
  9
$TDUPDATE
 40
2460154.642280091997236
  9
$TDINDWG
 40
0.0402199074
  9
$TDUSRTIMER
 40
0.0402199074
  9
$USRTIMER
 70
     1
  9
$ANGBASE
 50
0.0
  9
$ANGDIR
 70
     0
  9
$PDMODE
 70
     0
  9
$PDSIZE
 40
0.0
  9
$PLINEWID
 40
0.0
  9
$COORDS
 70
     1
  9
$SPLFRAME
 70
     0
  9
$SPLINETYPE
 70
     6
  9
$SPLINESEGS
 70
     8
  9
$ATTDIA
 70
     1
  9
$ATTREQ
 70
     1
  9
$HANDLING
 70
     1
  9
$HANDSEED
  5
74D
  9
$SURFTAB1
 70
     6
  9
$SURFTAB2
 70
     6
  9
$SURFTYPE
 70
     6
  9
$SURFU
 70
     6
  9
$SURFV
 70
     6
  9
$UCSNAME
  2

  9
$UCSORG
 10
0.0
 20
0.0
 30
0.0
  9
$UCSXDIR
 10
1.0
 20
0.0
 30
0.0
  9
$UCSYDIR
 10
0.0
 20
1.0
 30
0.0
  9
$PUCSNAME
  2

  9
$PUCSORG
 10
0.0
 20
0.0
 30
0.0
  9
$PUCSXDIR
 10
1.0
 20
0.0
 30
0.0
  9
$PUCSYDIR
 10
0.0
 20
1.0
 30
0.0
  9
$USERI1
 70
     0
  9
$USERI2
 70
     0
  9
$USERI3
 70
     0
  9
$USERI4
 70
     0
  9
$USERI5
 70
     0
  9
$USERR1
 40
0.0
  9
$USERR2
 40
0.0
  9
$USERR3
 40
0.0
  9
$USERR4
 40
0.0
  9
$USERR5
 40
0.0
  9
$WORLDVIEW
 70
     1
  9
$SHADEDGE
 70
     3
  9
$SHADEDIF
 70
    70
  9
$TILEMODE
 70
     1
  9
$MAXACTVP
 70
    64
  9
$PLIMCHECK
 70
     0
  9
$PEXTMIN
 10
0.0
 20
0.0
 30
0.0
  9
$PEXTMAX
 10
0.0
 20
0.0
 30
0.0
  9
$PLIMMIN
 10
0.0
 20
0.0
  9
$PLIMMAX
 10
12.0
 20
9.0
  9
$UNITMODE
 70
     0
  9
$VISRETAIN
 70
     1
  9
$PLINEGEN
 70
     0
  9
$PSLTSCALE
 70
     1
  0
ENDSEC
  0
SECTION
  2
TABLES
  0
TABLE
  2
VPORT
 70
     1
  0
VPORT
  2
*ACTIVE
 70
     0
 10
0.0
 20
0.0
 11
1.0
 21
1.0
 12
1531.3106335120189669
 22
1804.3502738351010066
 13
0.0
 23
0.0
 14
10.0
 24
10.0
 15
10.0
 25
10.0
 16
0.0
 26
0.0
 36
1.0
 17
0.0
 27
0.0
 37
0.0
 40
309.1235141277210801
 41
2.7910014513788091
 42
50.0
 43
0.0
 44
0.0
 50
0.0
 51
0.0
 71
     0
 72
  1000
 73
     1
 74
     3
 75
     0
 76
     1
 77
     0
 78
     0
  0
ENDTAB
  0
TABLE
  2
LTYPE
 70
     3
  0
LTYPE
  2
CONTINUOUS
 70
     0
  3
Solid line
 72
    65
 73
     0
 40
0.0
  0
ENDTAB
  0
TABLE
  2
LAYER
 70
     1
  0
LAYER
  2
0
 70
     0
 62
     7
  6
CONTINUOUS
  0
ENDTAB
  0
TABLE
  2
STYLE
 70
     2
  0
STYLE
  2
STANDARD
 70
     0
 40
0.0
 41
1.0
 50
0.0
 71
     0
 42
2.5
  3
txt
  4

  0
STYLE
  2
ANNOTATIVE
 70
     0
 40
0.0
 41
1.0
 50
0.0
 71
     0
 42
2.5
  3
txt
  4

  0
ENDTAB
  0
TABLE
  2
VIEW
 70
     0
  0
ENDTAB
  0
TABLE
  2
UCS
 70
     0
  0
ENDTAB
  0
TABLE
  2
APPID
 70
    10
  0
APPID
  2
ACAD
 70
     0
  0
APPID
  2
ACADANNOTATIVE
 70
     0
  0
APPID
  2
ACAD_PSEXT
 70
     0
  0
APPID
  2
ACADANNOPO
 70
     0
  0
APPID
  2
ACAD_DSTYLE_DIMJAG
 70
     0
  0
APPID
  2
ACAD_DSTYLE_DIMTALN
 70
     0
  0
APPID
  2
ACAD_MLEADERVER
 70
     0
  0
APPID
  2
ACAD_NAV_VCDISPLAY
 70
     0
  0
APPID
  2
ACAD_EXEMPT_FROM_CAD_STANDARDS
 70
     0
  0
APPID
  2
ACAD_DSTYLE_DIMRADIAL_EXTENSION
 70
     0
  0
ENDTAB
  0
TABLE
  2
DIMSTYLE
 70
     5
  0
DIMSTYLE
  2
STANDARD
 70
     0
  3

  4

  5

  6

  7

 40
1.0
 41
0.18
 42
0.0625
 43
0.38
 44
0.18
 45
0.0
 46
0.0
 47
0.0
 48
0.0
140
0.18
141
0.09
142
0.0
143
25.3999999999999986
144
1.0
145
0.0
146
1.0
147
0.09
 71
     0
 72
     0
 73
     1
 74
     1
 75
     0
 76
     0
 77
     0
 78
     0
170
     0
171
     2
172
     0
173
     0
174
     0
175
     0
176
     0
177
     0
178
     0
  0
DIMSTYLE
  2
ANNOTATIVE
 70
     0
  3

  4

  5

  6

  7

 40
0.0
 41
2.5
 42
0.625
 43
3.75
 44
1.25
 45
0.0
 46
0.0
 47
0.0
 48
0.0
140
2.5
141
2.5
142
0.0
143
0.03937007874016
144
1.0
145
0.0
146
1.0
147
0.625
 71
     0
 72
     0
 73
     0
 74
     0
 75
     0
 76
     0
 77
     1
 78
     8
170
     0
171
     3
172
     1
173
     0
174
     0
175
     0
176
     0
177
     0
178
     0
  0
DIMSTYLE
  2
ISO-25
 70
     0
  3

  4

  5

  6

  7

 40
1.0
 41
2.5
 42
0.625
 43
3.75
 44
1.25
 45
0.0
 46
0.0
 47
0.0
 48
0.0
140
2.5
141
2.5
142
0.0
143
0.03937007874016
144
1.0
145
0.0
146
1.0
147
0.625
 71
     0
 72
     0
 73
     0
 74
     0
 75
     0
 76
     0
 77
     1
 78
     8
170
     0
171
     3
172
     1
173
     0
174
     0
175
     0
176
     0
177
     0
178
     0
  0
ENDTAB
  0
ENDSEC
  0
SECTION
  2
BLOCKS
  0
BLOCK
  8
0
  2
$MODEL_SPACE
 70
     0
 10
0.0
 20
0.0
 30
0.0
  3
$MODEL_SPACE
  1

  0
ENDBLK
  5
3FA
  8
0
  0
BLOCK
 67
     1
  8
0
  2
$PAPER_SPACE
 70
     0
 10
0.0
 20
0.0
 30
0.0
  3
$PAPER_SPACE
  1

  0
ENDBLK
  5
3F6
 67
     1
  8
0
  0
ENDSEC
  0
SECTION
  2
ENTITIES
  0
POLYLINE
  5
29C
  8
0
 66
     1
 10
0.0
 20
0.0
 30
0.0
 70
     1
  0
VERTEX
  5
677
  8
0
 10
1391.5599478590629587
 20
1163.5099655924109356
 30
0.0
  0
VERTEX
  5
678
  8
0
 10
1841.5599478590629587
 20
1163.5099655924109356
 30
0.0
  0
VERTEX
  5
679
  8
0
 10
1841.5599478590629587
 20
1943.5099655924109356
 30
0.0
  0
VERTEX
  5
67A
  8
0
 10
1391.5599478590629587
 20
1943.5099655924109356
 30
0.0
  0
SEQEND
  5
67B
  8
0
  0
CIRCLE
  5
2B8
  8
0
 10
1811.5599478590629587
 20
1673.5099655924109356
 30
0.0
 40
2.0
  0
CIRCLE
  5
2B9
  8
0
 10
1811.5599478590629587
 20
1553.5099655924109356
 30
0.0
 40
2.0
  0
CIRCLE
  5
2BA
  8
0
 10
1811.5599478590629587
 20
1433.5099655924109356
 30
0.0
 40
2.0
  0
CIRCLE
  5
2BB
  8
0
 10
1811.5599478590629587
 20
1313.5099655924109356
 30
0.0
 40
2.0
  0
CIRCLE
  5
2BC
  8
0
 10
1811.5599478590629587
 20
1193.5099655924109356
 30
0.0
 40
2.0
  0
CIRCLE
  5
2BE
  8
0
 10
1616.5599478590629587
 20
1193.5099655924109356
 30
0.0
 40
2.0
  0
POLYLINE
  5
41C
  8
0
 66
     1
 10
0.0
 20
0.0
 30
0.0
 70
     1
  0
VERTEX
  5
6BE
  8
0
 10
1576.5599478590629587
 20
1238.5099655924109356
 30
0.0
  0
VERTEX
  5
6BF
  8
0
 10
1656.5599478590629587
 20
1238.5099655924109356
 30
0.0
  0
VERTEX
  5
6C0
  8
0
 10
1696.5599478590620492
 20
1223.5099655924109356
 30
0.0
  0
VERTEX
  5
6C1
  8
0
 10
1781.5599478590629587
 20
1223.5099655924109356
 30
0.0
  0
VERTEX
  5
6C2
  8
0
 10
1781.5599478590629587
 20
1283.5099655924109356
 30
0.0
  0
VERTEX
  5
6C3
  8
0
 10
1696.5599478590620492
 20
1283.5099655924109356
 30
0.0
  0
VERTEX
  5
6C4
  8
0
 10
1656.5599478590629587
 20
1268.5099655924109356
 30
0.0
  0
VERTEX
  5
6C5
  8
0
 10
1576.5599478590629587
 20
1268.5099655924109356
 30
0.0
  0
VERTEX
  5
6C6
  8
0
 10
1536.5599478590620492
 20
1283.5099655924109356
 30
0.0
  0
VERTEX
  5
6C7
  8
0
 10
1451.5599478590629587
 20
1283.5099655924109356
 30
0.0
  0
VERTEX
  5
6C8
  8
0
 10
1451.5599478590629587
 20
1223.5099655924109356
 30
0.0
  0
VERTEX
  5
6C9
  8
0
 10
1536.5599478590620492
 20
1223.5099655924109356
 30
0.0
  0
SEQEND
  5
6CA
  8
0
  0
POLYLINE
  5
436
  8
0
 66
     1
 10
0.0
 20
0.0
 30
0.0
 70
     1
  0
VERTEX
  5
6D8
  8
0
 10
1576.5599478590629587
 20
1358.5099655924109356
 30
0.0
  0
VERTEX
  5
6D9
  8
0
 10
1656.5599478590629587
 20
1358.5099655924109356
 30
0.0
  0
VERTEX
  5
6DA
  8
0
 10
1696.5599478590620492
 20
1343.5099655924109356
 30
0.0
  0
VERTEX
  5
6DB
  8
0
 10
1781.5599478590629587
 20
1343.5099655924109356
 30
0.0
  0
VERTEX
  5
6DC
  8
0
 10
1781.5599478590629587
 20
1403.5099655924109356
 30
0.0
  0
VERTEX
  5
6DD
  8
0
 10
1696.5599478590620492
 20
1403.5099655924109356
 30
0.0
  0
VERTEX
  5
6DE
  8
0
 10
1656.5599478590629587
 20
1388.5099655924109356
 30
0.0
  0
VERTEX
  5
6DF
  8
0
 10
1576.5599478590629587
 20
1388.5099655924109356
 30
0.0
  0
VERTEX
  5
6E0
  8
0
 10
1536.5599478590620492
 20
1403.5099655924109356
 30
0.0
  0
VERTEX
  5
6E1
  8
0
 10
1451.5599478590629587
 20
1403.5099655924109356
 30
0.0
  0
VERTEX
  5
6E2
  8
0
 10
1451.5599478590629587
 20
1343.5099655924109356
 30
0.0
  0
VERTEX
  5
6E3
  8
0
 10
1536.5599478590620492
 20
1343.5099655924109356
 30
0.0
  0
SEQEND
  5
6E4
  8
0
  0
POLYLINE
  5
43E
  8
0
 66
     1
 10
0.0
 20
0.0
 30
0.0
 70
     1
  0
VERTEX
  5
6F2
  8
0
 10
1576.5599478590629587
 20
1478.5099655924109356
 30
0.0
  0
VERTEX
  5
6F3
  8
0
 10
1656.5599478590629587
 20
1478.5099655924109356
 30
0.0
  0
VERTEX
  5
6F4
  8
0
 10
1696.5599478590620492
 20
1463.5099655924109356
 30
0.0
  0
VERTEX
  5
6F5
  8
0
 10
1781.5599478590629587
 20
1463.5099655924109356
 30
0.0
  0
VERTEX
  5
6F6
  8
0
 10
1781.5599478590629587
 20
1523.5099655924109356
 30
0.0
  0
VERTEX
  5
6F7
  8
0
 10
1696.5599478590620492
 20
1523.5099655924109356
 30
0.0
  0
VERTEX
  5
6F8
  8
0
 10
1656.5599478590629587
 20
1508.5099655924109356
 30
0.0
  0
VERTEX
  5
6F9
  8
0
 10
1576.5599478590629587
 20
1508.5099655924109356
 30
0.0
  0
VERTEX
  5
6FA
  8
0
 10
1536.5599478590620492
 20
1523.5099655924109356
 30
0.0
  0
VERTEX
  5
6FB
  8
0
 10
1451.5599478590629587
 20
1523.5099655924109356
 30
0.0
  0
VERTEX
  5
6FC
  8
0
 10
1451.5599478590629587
 20
1463.5099655924109356
 30
0.0
  0
VERTEX
  5
6FD
  8
0
 10
1536.5599478590620492
 20
1463.5099655924109356
 30
0.0
  0
SEQEND
  5
6FE
  8
0
  0
POLYLINE
  5
446
  8
0
 66
     1
 10
0.0
 20
0.0
 30
0.0
 70
     1
  0
VERTEX
  5
70C
  8
0
 10
1576.5599478590629587
 20
1598.5099655924109356
 30
0.0
  0
VERTEX
  5
70D
  8
0
 10
1656.5599478590629587
 20
1598.5099655924109356
 30
0.0
  0
VERTEX
  5
70E
  8
0
 10
1696.5599478590620492
 20
1583.5099655924109356
 30
0.0
  0
VERTEX
  5
70F
  8
0
 10
1781.5599478590629587
 20
1583.5099655924109356
 30
0.0
  0
VERTEX
  5
710
  8
0
 10
1781.5599478590629587
 20
1643.5099655924109356
 30
0.0
  0
VERTEX
  5
711
  8
0
 10
1696.5599478590620492
 20
1643.5099655924109356
 30
0.0
  0
VERTEX
  5
712
  8
0
 10
1656.5599478590629587
 20
1628.5099655924109356
 30
0.0
  0
VERTEX
  5
713
  8
0
 10
1576.5599478590629587
 20
1628.5099655924109356
 30
0.0
  0
VERTEX
  5
714
  8
0
 10
1536.5599478590620492
 20
1643.5099655924109356
 30
0.0
  0
VERTEX
  5
715
  8
0
 10
1451.5599478590629587
 20
1643.5099655924109356
 30
0.0
  0
VERTEX
  5
716
  8
0
 10
1451.5599478590629587
 20
1583.5099655924109356
 30
0.0
  0
VERTEX
  5
717
  8
0
 10
1536.5599478590620492
 20
1583.5099655924109356
 30
0.0
  0
SEQEND
  5
718
  8
0
  0
POLYLINE
  5
44E
  8
0
 66
     1
 10
0.0
 20
0.0
 30
0.0
 70
     1
  0
VERTEX
  5
726
  8
0
 10
1576.5599478590629587
 20
1718.5099655924109356
 30
0.0
  0
VERTEX
  5
727
  8
0
 10
1656.5599478590629587
 20
1718.5099655924109356
 30
0.0
  0
VERTEX
  5
728
  8
0
 10
1696.5599478590620492
 20
1703.5099655924109356
 30
0.0
  0
VERTEX
  5
729
  8
0
 10
1781.5599478590629587
 20
1703.5099655924109356
 30
0.0
  0
VERTEX
  5
72A
  8
0
 10
1781.5599478590629587
 20
1763.5099655924109356
 30
0.0
  0
VERTEX
  5
72B
  8
0
 10
1696.5599478590620492
 20
1763.5099655924109356
 30
0.0
  0
VERTEX
  5
72C
  8
0
 10
1656.5599478590629587
 20
1748.5099655924109356
 30
0.0
  0
VERTEX
  5
72D
  8
0
 10
1576.5599478590629587
 20
1748.5099655924109356
 30
0.0
  0
VERTEX
  5
72E
  8
0
 10
1536.5599478590620492
 20
1763.5099655924109356
 30
0.0
  0
VERTEX
  5
72F
  8
0
 10
1451.5599478590629587
 20
1763.5099655924109356
 30
0.0
  0
VERTEX
  5
730
  8
0
 10
1451.5599478590629587
 20
1703.5099655924109356
 30
0.0
  0
VERTEX
  5
731
  8
0
 10
1536.5599478590620492
 20
1703.5099655924109356
 30
0.0
  0
SEQEND
  5
732
  8
0
  0
POLYLINE
  5
456
  8
0
 66
     1
 10
0.0
 20
0.0
 30
0.0
 70
     1
  0
VERTEX
  5
740
  8
0
 10
1576.5599478590629587
 20
1838.5099655924109356
 30
0.0
  0
VERTEX
  5
741
  8
0
 10
1656.5599478590629587
 20
1838.5099655924109356
 30
0.0
  0
VERTEX
  5
742
  8
0
 10
1696.5599478590620492
 20
1823.5099655924109356
 30
0.0
  0
VERTEX
  5
743
  8
0
 10
1781.5599478590629587
 20
1823.5099655924109356
 30
0.0
  0
VERTEX
  5
744
  8
0
 10
1781.5599478590629587
 20
1883.5099655924109356
 30
0.0
  0
VERTEX
  5
745
  8
0
 10
1696.5599478590620492
 20
1883.5099655924109356
 30
0.0
  0
VERTEX
  5
746
  8
0
 10
1656.5599478590629587
 20
1868.5099655924109356
 30
0.0
  0
VERTEX
  5
747
  8
0
 10
1576.5599478590629587
 20
1868.5099655924109356
 30
0.0
  0
VERTEX
  5
748
  8
0
 10
1536.5599478590620492
 20
1883.5099655924109356
 30
0.0
  0
VERTEX
  5
749
  8
0
 10
1451.5599478590629587
 20
1883.5099655924109356
 30
0.0
  0
VERTEX
  5
74A
  8
0
 10
1451.5599478590629587
 20
1823.5099655924109356
 30
0.0
  0
VERTEX
  5
74B
  8
0
 10
1536.5599478590620492
 20
1823.5099655924109356
 30
0.0
  0
SEQEND
  5
74C
  8
0
  0
CIRCLE
  5
58E
  8
0
 10
1811.5599478590629587
 20
1793.5099655924109356
 30
0.0
 40
2.0
  0
CIRCLE
  5
590
  8
0
 10
1811.5599478590629587
 20
1913.5099655924100261
 30
0.0
 40
2.0
  0
CIRCLE
  5
591
  8
0
 10
1616.5599478590629587
 20
1913.5099655924100261
 30
0.0
 40
2.0
  0
CIRCLE
  5
592
  8
0
 10
1421.5599478590629587
 20
1913.5099655924100261
 30
0.0
 40
2.0
  0
CIRCLE
  5
593
  8
0
 10
1421.5599478590629587
 20
1793.5099655924109356
 30
0.0
 40
2.0
  0
CIRCLE
  5
594
  8
0
 10
1421.5599478590629587
 20
1193.5099655924109356
 30
0.0
 40
2.0
  0
CIRCLE
  5
595
  8
0
 10
1421.5599478590629587
 20
1313.5099655924109356
 30
0.0
 40
2.0
  0
CIRCLE
  5
596
  8
0
 10
1421.5599478590629587
 20
1433.5099655924109356
 30
0.0
 40
2.0
  0
CIRCLE
  5
597
  8
0
 10
1421.5599478590629587
 20
1553.5099655924109356
 30
0.0
 40
2.0
  0
CIRCLE
  5
598
  8
0
 10
1421.5599478590629587
 20
1673.5099655924109356
 30
0.0
 40
2.0
  0
ENDSEC
  0
EOF
