**ABCDEFGHIJKLMNOPQRSTUVWXYZabcdefghijklmnopqrstuvwxyz**************************
**PARASOLID !"#$%&'()*+,-./:;<=>?@[\]^_`{|}~0123456789**************************
**PART1;
MC=RH-15;
MC_MODEL=unknown;
MC_ID=unknown;
OS=Windows NT;
OS_RELEASE=6.2;
FRU=Unigraphics Solutions;
APPL=SolidEdge;
SITE=Huntsville, AL;
USER=julio.gracietti
FORMAT=text;
GUISE=transmit;
KEY=P:\DESENHOS ROUTER\RAZZ\PR 75X70X200 UH\PR 75X75X200 UH;
FILE=P:\DESENHOS ROUTER\RAZZ\PR 75X70X200 UH\PR 75X75X200 UH.x_t;
DATE=seg, abr 22 24;
**PART2;
SCH=SCH_3000167_30000;
USFLD_SIZE=0;
**PART3;
**END_OF_HEADER*****************************************************************
T51 : TRANSMIT FILE created by modeller version 300016723 SCH_3000167_30000_1300
6205 0 12 33 CCCCCCI4 mesh1006 0 I8 polyline1008 0 CCCCCCCDI5 owner1040 0 CCCCCC
I13 boundary_mesh1006 0 I17 boundary_polyline1008 0 CCCA16 index_map_offset0 0 1
 dA9 index_map82 0 A17 node_id_index_map82 0 A20 schema_embedding_map82 0 A5 chi
ld12 0 A14 lowest_node_id0 0 1 dZ1 247 2 3 0 0 0 0 0 0 1e3 1e-8 0 0 0 1 0 1 1 4
 5 6 7 0 0 8 9 10 0 0 0 0 0 0 81 255 3 2 218 11 1 12 0 0 0 13 14 15 70 11 CI9 li
st_type0 0 1 uI10 notransmit0 0 1 lCCCDCCDI12 finger_index0 0 1 dI12 finger_bloc
k1012 0 CZ3 0 4 T1 0 0 9 20 1 16 16 13 255 4 3 0 1 0 17 0 0 18 0 50 255 5 77 0 1
9 20 0 0 +-.1 .035 -.075 -1 0 0 0 0 1 30 255 6 139 0 9 21 0 0 --.0575 .035 0 0 -
1 0 29 255 7 122 0 10 22 0 .0575 -.035 0 19 8 CCCCCCCA5 owner12 0 Z8 1 0 1 18 0
 23 V0 16 255 9 137 0 ?24 0 25 6 0 0 1 18 255 10 119 0 26 0 27 7 ?1 17 255 26 0
 28 29 30 10 31 32 0 33 -18 27 17 0 34 10 35 36 ?1 17 34 0 37 38 39 27 40 41 0 4
2 -18 35 11 0 43 27 44 45 ?1 29 36 20 0 27 45 46 -.1 .035 -.075 29 45 14 0 35 47
 36 .1 .035 -.075 29 46 61 0 48 36 49 -.1 -.035 0 18 48 52 0 50 51 52 46 ?1 29 4
9 60 0 51 46 53 .1 -.035 0 18 51 51 0 54 55 48 49 ?1 29 53 59 0 55 49 22 .1 .035
 0 18 55 50 0 56 57 51 53 ?1 29 22 58 0 57 53 7 -.1 .035 0 18 57 49 0 58 59 55 2
2 ?1 17 58 0 60 61 24 57 62 63 0 40 +18 59 2 0 64 44 57 65 ?1 17 64 0 66 67 68 5
9 50 69 0 70 -18 44 5 0 71 35 59 47 ?1 29 65 4 0 59 72 47 -.1 -.035 -.075 29 72
 213 0 52 73 65 -.0575 .035 0 29 47 8 0 44 65 45 .1 -.035 -.075 18 52 170 0 74 4
8 75 72 ?1 29 73 214 0 75 76 72 .0575 .035 0 18 75 169 0 29 52 77 73 ?1 29 76 21
5 0 77 0 73 -.0575 -.035 0 18 77 168 0 30 75 0 76 ?1 17 30 0 28 26 74 77 24 9 0
 31 -15 255 28 193 0 26 78 0 17 74 0 28 30 29 52 79 80 0 24 +17 24 0 60 58 81 52
 30 9 0 62 +17 31 0 66 68 82 77 26 32 0 81 +15 66 70 0 82 83 0 17 68 0 66 64 31
 48 81 84 0 61 -17 82 0 66 31 85 10 54 86 0 0 -16 32 161 87 ?31 80 0 88 0 0 1 17
 81 0 60 24 61 77 68 84 0 0 +15 60 132 0 81 17 0 17 61 0 60 81 58 48 39 89 0 0 +
16 84 43 90 ?81 91 86 92 86 86 1 81 1 90 45 93 84 0 0 94 95 96 16 91 40 94 ?97 6
3 84 98 0 0 1 16 86 120 99 ?54 84 89 92 84 84 1 30 92 57 0 84 100 98 0 +-.1 -.03
5 0 1 0 0 30 100 24 0 101 102 92 0 +-.1 .035 -.075 0 -1 0 30 98 56 0 91 92 103 0
 +.1 -.035 0 0 1 0 30 103 55 0 104 98 105 0 +.1 .035 0 -1 0 0 16 104 37 106 ?107
 101 63 103 63 63 1 30 105 54 0 89 103 108 0 +-.1 .035 0 0 -1 0 16 89 46 95 ?61
 86 80 105 0 0 1 30 108 78 0 41 105 109 0 +-.1 .035 -.075 0 0 1 16 41 62 0 ?40 1
10 111 108 0 0 1 30 109 79 0 110 108 112 0 +.1 .035 -.075 0 0 1 16 110 63 0 ?56
 113 41 109 0 0 1 30 112 80 0 113 109 114 0 +.1 -.035 -.075 0 0 1 16 113 64 0 ?8
5 69 110 112 0 0 1 30 114 81 0 69 112 21 0 +-.1 -.035 -.075 0 0 1 16 69 65 0 ?50
 25 113 114 0 0 1 30 21 133 0 25 114 6 0 +.0575 .035 0 0 -1 0 16 25 131 0 ?33 9
 69 21 0 0 1 17 33 0 115 54 107 10 29 25 0 82 +15 115 36 0 107 116 0 17 54 0 115
 97 33 51 82 86 0 85 +17 107 0 115 33 97 75 117 104 0 0 +17 29 0 28 74 26 75 33
 25 0 79 -17 79 0 118 117 62 75 74 80 0 107 -15 118 66 0 62 119 0 17 117 0 118 4
3 79 55 107 104 0 97 -17 62 0 118 79 40 52 58 63 0 0 -16 80 166 0 ?74 89 32 120
 0 0 1 31 255 120 212 0 80 0 88 0 +0 .035 0 0 1 0 1 0 0 .0575 31 88 211 0 32 120
 121 0 +0 -.035 0 0 1 0 1 0 0 .0575 30 121 7 0 122 88 123 0 +-.1 -.035 -.075 1 0
 0 16 122 6 0 ?67 124 101 121 0 0 1 30 123 13 0 124 121 102 0 +.1 -.035 -.075 0
 1 0 16 124 12 0 ?125 111 122 123 0 0 1 30 102 19 0 111 123 100 0 +.1 .035 -.075
 -1 0 0 16 111 18 0 ?42 41 124 102 0 0 1 17 42 0 118 40 43 27 126 111 0 127 +17
 40 0 118 62 42 57 34 41 0 39 +17 43 0 118 42 117 35 56 110 0 125 -17 126 0 128
 129 127 35 42 111 0 0 -17 127 0 128 126 70 27 38 101 0 0 -15 128 25 0 127 130 0
 17 70 0 128 127 129 59 67 122 0 38 -17 38 0 37 50 34 59 127 101 0 0 +16 101 23
 0 ?38 122 104 100 0 0 1 15 37 72 0 39 19 0 17 50 0 37 39 38 48 64 69 0 68 +17 3
9 0 37 34 50 57 61 89 0 0 -14 255 19 73 131 ?83 116 37 4 5 +0 0 83 116 23 81 2 1
31 232 132 19 133 0 134 135 136 137 14 83 71 135 ?138 19 66 4 20 +0 0 138 19 23
 14 116 35 134 ?19 17 115 4 139 +17 17 19 17 23 13 23 82 0 0 0 0 0 0 8 17 14 17
 140 140 ?116 0 60 4 139 +116 116 116 0 23 81 2 140 226 132 17 141 0 0 134 142 1
43 50 139 53 0 17 144 145 0 +0 0 0 0 0 1 1 0 0 50 144 29 0 130 146 139 0 +0 0 -.
075 0 0 1 1 0 0 50 145 74 0 119 139 147 0 +.1 .035 -.075 0 1 0 0 0 1 14 119 67 1
48 ?130 138 118 4 145 +0 0 130 138 23 50 147 75 0 138 145 20 0 +.1 -.035 -.075 1
 0 0 0 0 -1 14 138 69 149 ?119 83 150 4 147 +0 0 119 83 23 50 20 76 0 83 147 5 0
 +-.1 -.035 -.075 0 -1 0 0 0 -1 81 2 149 238 132 138 151 0 135 148 152 153 15 15
0 68 0 154 138 0 17 154 0 150 71 56 51 97 91 0 0 -17 71 0 150 125 154 44 85 113
 0 67 -17 56 0 150 154 125 55 43 110 0 117 +17 97 0 115 107 54 55 154 91 0 0 +17
 125 0 150 56 71 35 129 124 0 126 +17 129 0 128 70 126 44 125 124 0 0 -17 85 0 6
6 82 67 51 71 113 0 154 +17 67 0 66 85 64 44 70 122 0 129 +80 255 2 132 155 156
 8014 0 0 0 0 3 5 0 0 0 FFFFTFFFFFFFFF2 1 81 1 151 237 157 138 158 149 159 160 1
61 81 2 135 235 132 83 159 0 131 149 162 163 81 2 148 241 132 119 160 0 149 164
 165 166 83 255 1 152 0 82 255 1 153 0 81 1 160 240 157 119 167 148 151 168 169
 81 2 164 244 132 130 168 0 148 170 171 172 83 1 165 0 82 1 166 0 14 130 26 164
 ?78 119 128 4 144 -0 0 78 119 23 81 1 168 243 157 130 173 164 160 174 175 81 2
 170 247 132 78 174 0 164 0 176 177 83 1 171 0 82 1 172 0 14 78 188 170 ?0 130 2
8 4 146 +0 0 0 130 23 81 1 174 246 157 78 178 170 168 0 179 83 1 176 0 82 1 177
 0 80 1 157 132 180 8015 0 0 0 0 3 5 0 0 0 FFFFTFFFFFFFFF2 81 1 178 245 181 78 1
82 174 173 0 183 83 1 179 0 80 1 181 0 184 8001 0 0 0 0 3 5 0 0 0 FFFFTFTFFFFFFF
2 81 1 182 223 185 78 186 178 187 0 0 81 1 173 242 181 130 188 168 167 178 189 8
3 3 183 .505882382392883 .529411792755127 .549019634723663 81 1 188 112 185 130
 190 173 191 192 0 81 1 167 239 181 119 187 160 158 173 193 83 3 189 .5058823823
92883 .529411792755127 .549019634723663 81 1 187 222 185 119 194 167 195 182 0 8
1 1 158 236 181 138 191 151 196 167 197 83 3 193 .505882382392883 .5294117927551
27 .549019634723663 81 1 191 110 185 138 198 158 199 188 0 81 1 196 233 181 83 1
95 159 200 158 201 83 3 197 .505882382392883 .529411792755127 .549019634723663 8
1 1 195 221 185 83 202 196 203 187 0 81 1 159 234 157 83 196 135 133 151 204 81
 1 200 230 181 19 199 133 205 196 206 83 3 201 .505882382392883 .529411792755127
 .549019634723663 81 1 199 108 185 19 207 200 0 191 0 81 1 133 231 157 19 200 13
1 208 159 209 81 1 205 227 181 116 203 208 210 200 211 83 3 206 .505882382392883
 .529411792755127 .549019634723663 81 1 203 220 185 116 212 205 192 195 0 81 1 2
08 228 157 116 205 134 141 133 213 81 1 210 224 181 17 192 141 0 205 214 83 3 21
1 .505882382392883 .529411792755127 .549019634723663 81 1 192 219 185 17 215 210
 188 203 0 81 1 141 225 157 17 210 140 0 208 216 83 3 214 .505882382392883 .5294
11792755127 .549019634723663 83 1 216 0 80 1 185 93 217 9000 1 1 1 1 1 1 1 1 0 F
FFFTFTTFFFFFF1 81 3 215 142 218 17 219 192 212 220 221 222 0 80 3 218 223 224 90
00 0 0 0 0 3 6 0 0 0 FFFFTFTTFFFFFF1 1 3 81 1 219 141 225 17 0 215 226 186 227 8
1 3 212 136 218 116 226 203 228 215 229 230 0 81 3 220 192 218 78 0 186 215 0 23
1 232 0 82 1 221 0 82 1 222 1 81 1 186 189 225 78 220 182 219 0 233 82 1 231 0 8
2 1 232 8 80 1 225 234 235 9000 0 0 0 0 3 6 0 0 0 FFFFTFFFFFFFFF1 82 1 233 1115
 79 255 23 235 SolidEdge/MNKR_ATTR_CID81 1 226 135 225 116 0 212 207 219 236 81
 3 228 103 218 19 0 207 237 212 238 239 0 82 1 229 0 82 1 230 1 81 1 207 106 225
 19 228 199 202 226 240 81 3 237 99 218 83 0 202 241 228 242 243 0 82 1 238 0 82
 1 239 5 81 1 202 102 225 83 237 195 198 207 244 81 3 241 95 218 138 0 198 245 2
37 246 247 0 82 1 242 0 82 1 243 4 81 1 198 98 225 138 241 191 194 202 248 81 3
 245 91 218 119 0 194 249 241 250 251 0 82 1 246 0 82 1 247 3 81 1 194 94 225 11
9 245 187 190 198 252 81 3 249 84 218 130 0 190 0 245 253 254 0 82 1 250 0 82 1
 251 2 81 1 190 87 225 130 249 188 0 194 255 82 1 253 0 82 1 254 0 82 1 255 1059
 82 1 252 1059 82 1 248 1059 82 1 244 1059 82 1 240 1059 82 1 236 1059 82 1 227
 1059 79 27 224 MONIKER/MONIKER_DATA_ATTRIB79 17 217 SolidEdge/Display81 2 134 2
29 132 116 208 0 140 131 256 257 83 1 213 0 83 1 256 0 82 1 257 0 83 1 209 0 83
 1 204 0 79 15 184 SDL/TYSA_COLOUR79 21 180 SDL/TYSA_TRANSLUCENCY51 255 146 206
 0 78 0 144 0 -0 .035 0 0 -1 0 .0575 0 0 -1 83 1 175 0 83 1 169 0 83 1 162 0 82
 1 163 0 83 1 161 0 79 21 156 SDL/TYSA_REFLECTIVITY83 1 142 0 82 1 143 0 83 1 13
6 0 82 1 137 0 16 63 128 258 ?58 104 91 103 104 104 1 81 1 258 129 93 63 0 0 99
 87 259 80 1 93 260 261 9000 0 0 0 0 3 6 0 0 0 FFFFTFTTFFFFFF1 81 1 99 121 93 86
 0 0 95 258 262 81 1 87 163 93 32 0 0 258 0 263 82 1 259 17 82 1 263 17 81 1 95
 48 93 89 0 0 90 99 264 82 1 262 17 82 1 264 17 79 27 261 SolidEdge/MNKR_ATTR_TY
PE_EX81 1 106 39 93 104 0 0 0 94 265 81 1 94 42 93 91 0 0 106 90 266 82 1 265 17
 82 1 266 17 82 1 96 17 19 18 83 0 1 0 8 4 S0 74 4 CI16 index_map_offset0 0 1 dC
CZ20 16 9 0 0 87 220 186 182 12 2 178 174 170 0 0 0 0 0 0 0 0 0 0 0 81 2 12 114
 267 1 0 2 0 0 268 269 80 2 267 11 270 9000 2 2 2 2 3 6 0 0 0 FFTFFFFFFFFFFF2 3
 83 2 268 1 2 84 255 21 269 SE 110.0.0.107 Type8679 22 270 MONIKER/BODY_ID_ATTRI
B80 3 11 271 272 9000 0 0 0 0 3 6 0 0 0 FFTFFFFFFFFFFF3 3 1 84 38 13 {4bf14986-d
ce3-4ffb-b491-e6fdc0016d59}84 2 14 SE82 1 15 0 79 25 272 MONIKER/GUID_TABLE_ATTR
IB1 0 
