  0
SECTION
  2
HEADER
  9
$ACADVER
  1
AC1009
  9
$INSBASE
 10
0.0
 20
0.0
 30
0.0
  9
$EXTMIN
 10
-5.7923284144471827
 20
0.0
 30
0.0
  9
$EXTMAX
 10
306.2611657245482775
 20
279.1559189100358935
 30
0.0
  9
$LIMMIN
 10
0.0
 20
0.0
  9
$LIMMAX
 10
420.0
 20
297.0
  9
$ORTHOMODE
 70
     0
  9
$REGENMODE
 70
     1
  9
$FILLMODE
 70
     1
  9
$QTEXTMODE
 70
     0
  9
$MIRRTEXT
 70
     0
  9
$DRAGMODE
 70
     2
  9
$LTSCALE
 40
1.0
  9
$OSMODE
 70
  3447
  9
$ATTMODE
 70
     1
  9
$TEXTSIZE
 40
2.5
  9
$TRACEWID
 40
1.0
  9
$TEXTSTYLE
  7
STANDARD
  9
$CLAYER
  8
0
  9
$CELTYPE
  6
BYLAYER
  9
$CECOLOR
 62
   256
  9
$DIMSCALE
 40
1.0
  9
$DIMASZ
 40
2.5
  9
$DIMEXO
 40
0.625
  9
$DIMDLI
 40
3.75
  9
$DIMRND
 40
0.0
  9
$DIMDLE
 40
0.0
  9
$DIMEXE
 40
1.25
  9
$DIMTP
 40
0.0
  9
$DIMTM
 40
0.0
  9
$DIMTXT
 40
2.5
  9
$DIMCEN
 40
2.5
  9
$DIMTSZ
 40
0.0
  9
$DIMTOL
 70
     0
  9
$DIMLIM
 70
     0
  9
$DIMTIH
 70
     0
  9
$DIMTOH
 70
     0
  9
$DIMSE1
 70
     0
  9
$DIMSE2
 70
     0
  9
$DIMTAD
 70
     1
  9
$DIMZIN
 70
     8
  9
$DIMBLK
  1

  9
$DIMASO
 70
     1
  9
$DIMSHO
 70
     1
  9
$DIMPOST
  1

  9
$DIMAPOST
  1

  9
$DIMALT
 70
     0
  9
$DIMALTD
 70
     3
  9
$DIMALTF
 40
0.03937007874016
  9
$DIMLFAC
 40
1.0
  9
$DIMTOFL
 70
     1
  9
$DIMTVP
 40
0.0
  9
$DIMTIX
 70
     0
  9
$DIMSOXD
 70
     0
  9
$DIMSAH
 70
     0
  9
$DIMBLK1
  1

  9
$DIMBLK2
  1

  9
$DIMSTYLE
  2
ISO-25
  9
$DIMCLRD
 70
     0
  9
$DIMCLRE
 70
     0
  9
$DIMCLRT
 70
     0
  9
$DIMTFAC
 40
1.0
  9
$DIMGAP
 40
0.625
  9
$LUNITS
 70
     2
  9
$LUPREC
 70
     4
  9
$SKETCHINC
 40
1.0
  9
$FILLETRAD
 40
0.0
  9
$AUNITS
 70
     0
  9
$AUPREC
 70
     0
  9
$MENU
  1
.
  9
$ELEVATION
 40
0.0
  9
$PELEVATION
 40
0.0
  9
$THICKNESS
 40
0.0
  9
$LIMCHECK
 70
     0
  9
$BLIPMODE
 70
     0
  9
$CHAMFERA
 40
0.0
  9
$CHAMFERB
 40
0.0
  9
$SKPOLY
 70
     0
  9
$TDCREATE
 40
2460451.4093981487676501
  9
$TDUPDATE
 40
2460451.4264930561184883
  9
$TDINDWG
 40
0.0170949074
  9
$TDUSRTIMER
 40
0.0170949074
  9
$USRTIMER
 70
     1
  9
$ANGBASE
 50
0.0
  9
$ANGDIR
 70
     0
  9
$PDMODE
 70
     0
  9
$PDSIZE
 40
0.0
  9
$PLINEWID
 40
0.0
  9
$COORDS
 70
     1
  9
$SPLFRAME
 70
     0
  9
$SPLINETYPE
 70
     6
  9
$SPLINESEGS
 70
     8
  9
$ATTDIA
 70
     1
  9
$ATTREQ
 70
     1
  9
$HANDLING
 70
     1
  9
$HANDSEED
  5
807
  9
$SURFTAB1
 70
     6
  9
$SURFTAB2
 70
     6
  9
$SURFTYPE
 70
     6
  9
$SURFU
 70
     6
  9
$SURFV
 70
     6
  9
$UCSNAME
  2

  9
$UCSORG
 10
0.0
 20
0.0
 30
0.0
  9
$UCSXDIR
 10
1.0
 20
0.0
 30
0.0
  9
$UCSYDIR
 10
0.0
 20
1.0
 30
0.0
  9
$PUCSNAME
  2

  9
$PUCSORG
 10
0.0
 20
0.0
 30
0.0
  9
$PUCSXDIR
 10
1.0
 20
0.0
 30
0.0
  9
$PUCSYDIR
 10
0.0
 20
1.0
 30
0.0
  9
$USERI1
 70
     0
  9
$USERI2
 70
     0
  9
$USERI3
 70
     0
  9
$USERI4
 70
     0
  9
$USERI5
 70
     0
  9
$USERR1
 40
0.0
  9
$USERR2
 40
0.0
  9
$USERR3
 40
0.0
  9
$USERR4
 40
0.0
  9
$USERR5
 40
0.0
  9
$WORLDVIEW
 70
     1
  9
$SHADEDGE
 70
     3
  9
$SHADEDIF
 70
    70
  9
$TILEMODE
 70
     1
  9
$MAXACTVP
 70
    64
  9
$PLIMCHECK
 70
     0
  9
$PEXTMIN
 10
0.0
 20
0.0
 30
0.0
  9
$PEXTMAX
 10
0.0
 20
0.0
 30
0.0
  9
$PLIMMIN
 10
0.0
 20
0.0
  9
$PLIMMAX
 10
12.0
 20
9.0
  9
$UNITMODE
 70
     0
  9
$VISRETAIN
 70
     1
  9
$PLINEGEN
 70
     0
  9
$PSLTSCALE
 70
     1
  0
ENDSEC
  0
SECTION
  2
TABLES
  0
TABLE
  2
VPORT
 70
     1
  0
VPORT
  2
*ACTIVE
 70
     0
 10
0.0
 20
0.0
 11
1.0
 21
1.0
 12
33.0656311734168185
 22
32.1436941131332787
 13
0.0
 23
0.0
 14
10.0
 24
10.0
 15
10.0
 25
10.0
 16
0.0
 26
0.0
 36
1.0
 17
0.0
 27
0.0
 37
0.0
 40
191.9269442691110896
 41
2.0480256136606192
 42
50.0
 43
0.0
 44
0.0
 50
0.0
 51
0.0
 71
     0
 72
  1000
 73
     1
 74
     3
 75
     0
 76
     1
 77
     0
 78
     0
  0
ENDTAB
  0
TABLE
  2
LTYPE
 70
     3
  0
LTYPE
  2
CONTINUOUS
 70
     0
  3
Solid line
 72
    65
 73
     0
 40
0.0
  0
LTYPE
  2
CHAIN
 70
     0
  3
Chain ____ _ ____ _ ____ _ ____ _ ____ _ ____
 72
    65
 73
     4
 40
0.7087
 49
0.4724000000000001
 49
-0.0591
 49
0.1181
 49
-0.0591
  0
ENDTAB
  0
TABLE
  2
LAYER
 70
     7
  0
LAYER
  2
0
 70
     0
 62
     7
  6
CONTINUOUS
  0
LAYER
  2
CENTER_MARK__ISO_
 70
     0
 62
     7
  6
CONTINUOUS
  0
LAYER
  2
CENTERLINE__ISO_
 70
     0
 62
     7
  6
CONTINUOUS
  0
LAYER
  2
DIMENSION__ISO_
 70
     0
 62
     7
  6
CONTINUOUS
  0
LAYER
  2
SYMBOL__ISO_
 70
     0
 62
     7
  6
CONTINUOUS
  0
LAYER
  2
VISIBLE__ISO_
 70
     0
 62
     7
  6
CONTINUOUS
  0
LAYER
  2
DEFPOINTS
 70
     0
 62
     7
  6
CONTINUOUS
  0
ENDTAB
  0
TABLE
  2
STYLE
 70
     5
  0
STYLE
  2
STANDARD
 70
     0
 40
0.0
 41
1.0
 50
0.0
 71
     0
 42
2.5
  3
txt
  4

  0
STYLE
  2
ANNOTATIVE
 70
     0
 40
0.0
 41
1.0
 50
0.0
 71
     0
 42
2.5
  3
txt
  4

  0
STYLE
  2
NOTE_TEXT__ANSI_
 70
     0
 40
0.0
 41
1.0
 50
0.0
 71
     0
 42
0.2
  3
txt
  4

  0
STYLE
  2
MtXpl_Tahoma
 70
     0
 40
0.0
 41
1.0
 50
0.0
 71
     0
 42
2.5
  3
txt
  4

  0
STYLE
  2
MtXpl_AIGDT
 70
     0
 40
0.0
 41
1.0
 50
0.0
 71
     0
 42
2.5
  3
txt
  4

  0
ENDTAB
  0
TABLE
  2
VIEW
 70
     0
  0
ENDTAB
  0
TABLE
  2
UCS
 70
     0
  0
ENDTAB
  0
TABLE
  2
APPID
 70
    11
  0
APPID
  2
ACAD
 70
     0
  0
APPID
  2
ACAD_PSEXT
 70
     0
  0
APPID
  2
ACADANNOPO
 70
     0
  0
APPID
  2
ACADANNOTATIVE
 70
     0
  0
APPID
  2
ACAD_DSTYLE_DIMJAG
 70
     0
  0
APPID
  2
ACAD_DSTYLE_DIMTALN
 70
     0
  0
APPID
  2
ACAD_MLEADERVER
 70
     0
  0
APPID
  2
ACAD_NAV_VCDISPLAY
 70
     0
  0
APPID
  2
ACAD_DSTYLE_DIMRADIAL_EXTENSION
 70
     0
  0
APPID
  2
ACAD_DSTYLE_DIMANGULAR_EXT
 70
     0
  0
APPID
  2
ACAD_EXEMPT_FROM_CAD_STANDARDS
 70
     0
  0
ENDTAB
  0
TABLE
  2
DIMSTYLE
 70
     7
  0
DIMSTYLE
  2
STANDARD
 70
     0
  3

  4

  5

  6

  7

 40
1.0
 41
0.18
 42
0.0625
 43
0.38
 44
0.18
 45
0.0
 46
0.0
 47
0.0
 48
0.0
140
0.18
141
0.09
142
0.0
143
25.3999999999999986
144
1.0
145
0.0
146
1.0
147
0.09
 71
     0
 72
     0
 73
     1
 74
     1
 75
     0
 76
     0
 77
     0
 78
     0
170
     0
171
     2
172
     0
173
     0
174
     0
175
     0
176
     0
177
     0
178
     0
  0
DIMSTYLE
  2
ANNOTATIVE
 70
     0
  3

  4

  5

  6

  7

 40
0.0
 41
2.5
 42
0.625
 43
3.75
 44
1.25
 45
0.0
 46
0.0
 47
0.0
 48
0.0
140
2.5
141
2.5
142
0.0
143
0.03937007874016
144
1.0
145
0.0
146
1.0
147
0.625
 71
     0
 72
     0
 73
     0
 74
     0
 75
     0
 76
     0
 77
     1
 78
     8
170
     0
171
     3
172
     1
173
     0
174
     0
175
     0
176
     0
177
     0
178
     0
  0
DIMSTYLE
  2
ISO-25
 70
     0
  3

  4

  5

  6

  7

 40
1.0
 41
2.5
 42
0.625
 43
3.75
 44
1.25
 45
0.0
 46
0.0
 47
0.0
 48
0.0
140
2.5
141
2.5
142
0.0
143
0.03937007874016
144
1.0
145
0.0
146
1.0
147
0.625
 71
     0
 72
     0
 73
     0
 74
     0
 75
     0
 76
     0
 77
     1
 78
     8
170
     0
171
     3
172
     1
173
     0
174
     0
175
     0
176
     0
177
     0
178
     0
  0
DIMSTYLE
  2
INTRALOX_HOLE_CALLOUT__MET
 70
     0
  3

  4

  5

  6

  7

 40
1.6666666666666661
 41
2.5
 42
1.587499999999999
 43
5.9999999999999991
 44
3.174999999999998
 45
0.00000001
 46
10.0
 47
0.0
 48
0.0
140
2.539999961853026
141
0.09
142
0.0
143
0.03937
144
1.0
145
0.0
146
1.2000000476837149
147
0.8
 71
     0
 72
     0
 73
     1
 74
     1
 75
     0
 76
     0
 77
     0
 78
     8
170
     1
171
     3
172
     1
173
     0
174
     0
175
     0
176
   256
177
   256
178
   256
  0
DIMSTYLE
  2
INTRALOX_X_X__X_XX__MM-INC
 70
     0
  3

  4

  5

  6

  7

 40
1.6666666666666661
 41
2.5
 42
1.587499999999999
 43
5.9999999999999991
 44
3.174999999999998
 45
0.00000001
 46
10.0
 47
0.0
 48
0.0
140
2.539999961853026
141
0.09
142
0.0
143
0.03937
144
1.0
145
0.0
146
1.2000000476837149
147
0.8
 71
     0
 72
     0
 73
     1
 74
     1
 75
     0
 76
     0
 77
     0
 78
     0
170
     1
171
     2
172
     1
173
     0
174
     0
175
     0
176
   256
177
   256
178
   256
  0
DIMSTYLE
  2
INTRALOX_X_XX__X_XXX__MM-I
 70
     0
  3

  4

  5

  6

  7

 40
1.6666666666666661
 41
2.5
 42
1.587499999999999
 43
5.9999999999999991
 44
3.174999999999998
 45
0.00000001
 46
17.7800000000000011
 47
0.0
 48
0.0
140
2.539999961853026
141
0.09
142
0.0
143
0.03937
144
1.0
145
0.0
146
1.2000000476837149
147
0.8
 71
     0
 72
     0
 73
     1
 74
     1
 75
     0
 76
     0
 77
     0
 78
     8
170
     1
171
     3
172
     1
173
     0
174
     0
175
     0
176
   256
177
   256
178
   256
  0
ENDTAB
  0
ENDSEC
  0
SECTION
  2
BLOCKS
  0
BLOCK
  8
0
  2
$MODEL_SPACE
 70
     0
 10
0.0
 20
0.0
 30
0.0
  3
$MODEL_SPACE
  1

  0
ENDBLK
  5
21
  8
0
  0
BLOCK
 67
     1
  8
0
  2
$PAPER_SPACE
 70
     0
 10
0.0
 20
0.0
 30
0.0
  3
$PAPER_SPACE
  1

  0
ENDBLK
  5
D5
 67
     1
  8
0
  0
BLOCK
  8
0
  2
_CLOSED
 70
     0
 10
0.0
 20
0.0
 30
0.0
  3
_CLOSED
  1

  0
LINE
  5
297
  8
0
  6
BYBLOCK
 62
     0
 10
-1.0
 20
0.1666666666666666
 30
0.0
 11
0.0
 21
0.0
 31
0.0
  0
LINE
  5
298
  8
0
  6
BYBLOCK
 62
     0
 10
0.0
 20
0.0
 30
0.0
 11
-1.0
 21
-0.1666666666666666
 31
0.0
  0
LINE
  5
299
  8
0
  6
BYBLOCK
 62
     0
 10
-1.0
 20
0.1666666666666666
 30
0.0
 11
-1.0
 21
-0.1666666666666666
 31
0.0
  0
LINE
  5
29A
  8
0
  6
BYBLOCK
 62
     0
 10
0.0
 20
0.0
 30
0.0
 11
-1.0
 21
0.0
 31
0.0
  0
ENDBLK
  5
29B
  8
0
  0
BLOCK
  8
0
  2
*D2
 70
     1
 10
0.0
 20
0.0
 30
0.0
  3
*D2
  1

  0
LINE
  5
29E
  8
DIMENSION__ISO_
 10
132.9906891315914947
 20
211.9412218339253968
 30
0.0
 11
132.9906891315914947
 21
346.1880482720413283
 31
0.0
  0
LINE
  5
29F
  8
DIMENSION__ISO_
 10
336.1906891315916823
 20
290.4435593170837819
 30
0.0
 11
336.1906891315916823
 21
346.1880482720413852
 31
0.0
  0
LINE
  5
2A0
  8
DIMENSION__ISO_
 10
137.157355798258294
 20
340.8963816053746996
 30
0.0
 11
216.0326080151151018
 21
340.8963816053746996
 31
0.0
  0
LINE
  5
2A1
  8
DIMENSION__ISO_
 10
332.0240224649249967
 20
340.8963816053746996
 30
0.0
 11
253.1487702480681037
 21
340.8963816053746996
 31
0.0
  0
SOLID
  5
2A2
  8
DIMENSION__ISO_
 10
137.157355798258294
 20
341.5908260498192135
 30
0.0
 11
137.157355798258294
 21
340.2019371609302993
 31
0.0
 12
132.9906891315914947
 22
340.8963816053746996
 32
0.0
 13
132.9906891315914947
 23
340.8963816053746996
 33
0.0
  0
SOLID
  5
2A3
  8
DIMENSION__ISO_
 10
332.0240224649249967
 20
341.5908260498192135
 30
0.0
 11
332.0240224649249967
 21
340.2019371609302993
 31
0.0
 12
336.1906891315916823
 22
340.8963816053746996
 32
0.0
 13
336.1906891315916823
 23
340.8963816053746996
 33
0.0
  0
INSERT
  5
2A4
  8
0
  2
*U31
 10
0.0
 20
0.0
 30
0.0
  0
POINT
  5
2A5
  8
DEFPOINTS
 62
     0
 10
132.9906891315914947
 20
209.2953885005919972
 30
0.0
  0
POINT
  5
2A6
  8
DEFPOINTS
 62
     0
 10
336.1906891315916823
 20
287.7977259837505244
 30
0.0
  0
POINT
  5
2A7
  8
DEFPOINTS
 62
     0
 10
336.1906891315916823
 20
340.8963816053746996
 30
0.0
  0
ENDBLK
  5
2A8
  8
0
  0
BLOCK
  8
0
  2
*D3
 70
     1
 10
0.0
 20
0.0
 30
0.0
  3
*D3
  1

  0
LINE
  5
2AB
  8
DIMENSION__ISO_
 10
172.2948557982583111
 20
294.147725983750604
 30
0.0
 11
103.3158498701158976
 21
294.147725983750604
 31
0.0
  0
LINE
  5
2AC
  8
DIMENSION__ISO_
 10
192.6281891315915971
 20
266.9597259837506158
 30
0.0
 11
103.3158498701158976
 21
266.9597259837506158
 31
0.0
  0
LINE
  5
2AD
  8
DIMENSION__ISO_
 10
108.6075165367825974
 20
289.9810593170839184
 30
0.0
 11
108.6075165367825974
 21
284.6562108134577898
 31
0.0
  0
LINE
  5
2AE
  8
DIMENSION__ISO_
 10
108.6075165367825974
 20
271.1263926504173014
 30
0.0
 11
108.6075165367825974
 21
276.4512411540433163
 31
0.0
  0
SOLID
  5
2AF
  8
DIMENSION__ISO_
 10
107.9130720923380977
 20
289.9810593170839184
 30
0.0
 11
109.3019609812269977
 21
289.9810593170839184
 31
0.0
 12
108.6075165367825974
 22
294.147725983750604
 32
0.0
 13
108.6075165367825974
 23
294.147725983750604
 33
0.0
  0
SOLID
  5
2B0
  8
DIMENSION__ISO_
 10
107.9130720923381972
 20
271.1263926504173014
 30
0.0
 11
109.3019609812269977
 21
271.1263926504173014
 31
0.0
 12
108.6075165367825974
 22
266.9597259837506158
 32
0.0
 13
108.6075165367825974
 23
266.9597259837506158
 33
0.0
  0
INSERT
  5
2B1
  8
0
  2
*U32
 10
0.0
 20
0.0
 30
0.0
  0
POINT
  5
2B2
  8
DEFPOINTS
 62
     0
 10
174.9406891315917107
 20
294.147725983750604
 30
0.0
  0
POINT
  5
2B3
  8
DEFPOINTS
 62
     0
 10
195.2740224649249967
 20
266.9597259837506158
 30
0.0
  0
POINT
  5
2B4
  8
DEFPOINTS
 62
     0
 10
108.6075165367825974
 20
266.9597259837506158
 30
0.0
  0
ENDBLK
  5
2B5
  8
0
  0
BLOCK
  8
0
  2
*D4
 70
     1
 10
0.0
 20
0.0
 30
0.0
  3
*D4
  1

  0
LINE
  5
2B8
  8
DIMENSION__ISO_
 10
298.0906891315917164
 20
252.8972259837503884
 30
0.0
 11
298.0906891315917164
 21
67.0321293620055201
 31
0.0
  0
LINE
  5
2B9
  8
DIMENSION__ISO_
 10
206.6906891315915971
 20
252.8972259837503884
 30
0.0
 11
206.6906891315915971
 21
67.0321293620055201
 31
0.0
  0
LINE
  5
2BA
  8
DIMENSION__ISO_
 10
293.924022464924974
 20
72.3237960286721915
 30
0.0
 11
269.4191978609540001
 21
72.3237960286721915
 31
0.0
  0
LINE
  5
2BB
  8
DIMENSION__ISO_
 10
210.8573557982583111
 20
72.3237960286721915
 30
0.0
 11
235.3621804022293134
 21
72.3237960286721915
 31
0.0
  0
SOLID
  5
2BC
  8
DIMENSION__ISO_
 10
293.924022464924974
 20
73.0182404731166201
 30
0.0
 11
293.924022464924974
 21
71.6293515842277344
 31
0.0
 12
298.0906891315917164
 22
72.3237960286721915
 32
0.0
 13
298.0906891315917164
 23
72.3237960286721915
 33
0.0
  0
SOLID
  5
2BD
  8
DIMENSION__ISO_
 10
210.8573557982583111
 20
73.0182404731166201
 30
0.0
 11
210.8573557982583111
 21
71.6293515842277344
 31
0.0
 12
206.6906891315915971
 22
72.3237960286721915
 32
0.0
 13
206.6906891315915971
 23
72.3237960286721915
 33
0.0
  0
INSERT
  5
2BE
  8
0
  2
*U33
 10
0.0
 20
0.0
 30
0.0
  0
POINT
  5
2BF
  8
DEFPOINTS
 62
     0
 10
298.0906891315917164
 20
255.5430593170837881
 30
0.0
  0
POINT
  5
2C0
  8
DEFPOINTS
 62
     0
 10
206.6906891315915971
 20
255.5430593170837881
 30
0.0
  0
POINT
  5
2C1
  8
DEFPOINTS
 62
     0
 10
206.6906891315915971
 20
72.3237960286721915
 30
0.0
  0
ENDBLK
  5
2C2
  8
0
  0
BLOCK
  8
0
  2
*D5
 70
     1
 10
0.0
 20
0.0
 30
0.0
  3
*D5
  1

  0
LINE
  5
2C5
  8
DIMENSION__ISO_
 10
336.1906891315916823
 20
290.4435593170837819
 30
0.0
 11
336.1906891315916823
 21
331.3661678407385125
 31
0.0
  0
LINE
  5
2C6
  8
DIMENSION__ISO_
 10
168.5906891315916027
 20
290.4435593170837251
 30
0.0
 11
168.5906891315916027
 21
331.3661678407385125
 31
0.0
  0
LINE
  5
2C7
  8
DIMENSION__ISO_
 10
332.0240224649249967
 20
326.0745011740718269
 30
0.0
 11
270.782450574004713
 21
326.0745011740718269
 31
0.0
  0
LINE
  5
2C8
  8
DIMENSION__ISO_
 10
172.7573557982582884
 20
326.0745011740718269
 30
0.0
 11
233.9989276891786858
 21
326.0745011740718269
 31
0.0
  0
SOLID
  5
2C9
  8
DIMENSION__ISO_
 10
332.0240224649249967
 20
326.768945618516284
 30
0.0
 11
332.0240224649249967
 21
325.3800567296274266
 31
0.0
 12
336.1906891315916823
 22
326.0745011740718269
 32
0.0
 13
336.1906891315916823
 23
326.0745011740718269
 33
0.0
  0
SOLID
  5
2CA
  8
DIMENSION__ISO_
 10
172.7573557982582884
 20
326.768945618516284
 30
0.0
 11
172.7573557982582884
 21
325.3800567296274266
 31
0.0
 12
168.5906891315916027
 22
326.0745011740718269
 32
0.0
 13
168.5906891315916027
 23
326.0745011740718269
 33
0.0
  0
INSERT
  5
2CB
  8
0
  2
*U34
 10
0.0
 20
0.0
 30
0.0
  0
POINT
  5
2CC
  8
DEFPOINTS
 62
     0
 10
336.1906891315916823
 20
287.7977259837505244
 30
0.0
  0
POINT
  5
2CD
  8
DEFPOINTS
 62
     0
 10
168.5906891315916027
 20
287.797725983750297
 30
0.0
  0
POINT
  5
2CE
  8
DEFPOINTS
 62
     0
 10
168.5906891315916027
 20
326.0745011740718269
 30
0.0
  0
ENDBLK
  5
2CF
  8
0
  0
BLOCK
  8
0
  2
*D6
 70
     1
 10
0.0
 20
0.0
 30
0.0
  3
*D6
  1

  0
LINE
  5
2D2
  8
DIMENSION__ISO_
 10
332.4865224649252013
 20
294.147725983750604
 30
0.0
 11
386.8281801772267841
 21
294.147725983750604
 31
0.0
  0
LINE
  5
2D3
  8
DIMENSION__ISO_
 10
304.9031891315916027
 20
82.0477259837505102
 30
0.0
 11
386.8281801772268977
 21
82.0477259837505102
 31
0.0
  0
LINE
  5
2D4
  8
DIMENSION__ISO_
 10
381.5365135105599848
 20
289.9810593170839184
 30
0.0
 11
381.5365135105599848
 21
192.2002108134578862
 31
0.0
  0
LINE
  5
2D5
  8
DIMENSION__ISO_
 10
381.5365135105602121
 20
86.2143926504171958
 30
0.0
 11
381.5365135105599848
 21
183.995241154043299
 31
0.0
  0
SOLID
  5
2D6
  8
DIMENSION__ISO_
 10
380.8420690661155845
 20
289.9810593170839184
 30
0.0
 11
382.2309579550044987
 21
289.9810593170839184
 31
0.0
 12
381.5365135105599848
 22
294.147725983750604
 32
0.0
 13
381.5365135105599848
 23
294.147725983750604
 33
0.0
  0
SOLID
  5
2D7
  8
DIMENSION__ISO_
 10
380.8420690661155845
 20
86.2143926504171958
 30
0.0
 11
382.2309579550044987
 21
86.2143926504171958
 31
0.0
 12
381.5365135105602121
 22
82.0477259837505102
 32
0.0
 13
381.5365135105602121
 23
82.0477259837505102
 33
0.0
  0
INSERT
  5
2D8
  8
0
  2
*U35
 10
0.0
 20
0.0
 30
0.0
  0
POINT
  5
2D9
  8
DEFPOINTS
 62
     0
 10
329.8406891315917733
 20
294.147725983750604
 30
0.0
  0
POINT
  5
2DA
  8
DEFPOINTS
 62
     0
 10
302.257355798258402
 20
82.0477259837505102
 30
0.0
  0
POINT
  5
2DB
  8
DEFPOINTS
 62
     0
 10
381.5365135105602121
 20
82.0477259837505102
 30
0.0
  0
ENDBLK
  5
2DC
  8
0
  0
BLOCK
  8
0
  2
*D7
 70
     1
 10
0.0
 20
0.0
 30
0.0
  3
*D7
  1

  0
LINE
  5
2DF
  8
DIMENSION__ISO_
 10
336.1906891315916823
 20
290.4435593170837819
 30
0.0
 11
336.1906891315916823
 21
316.1187429302653982
 31
0.0
  0
LINE
  5
2E0
  8
DIMENSION__ISO_
 10
298.0906891315917164
 20
265.6442259837505162
 30
0.0
 11
298.0906891315917164
 21
316.1187429302653982
 31
0.0
  0
LINE
  5
2E1
  8
DIMENSION__ISO_
 10
302.257355798258402
 20
310.8270762635985989
 30
0.0
 11
332.0240224649249967
 21
310.8270762635985989
 31
0.0
  0
LINE
  5
2E2
  8
DIMENSION__ISO_
 10
336.1906891315916823
 20
310.8270762635985989
 30
0.0
 11
347.2360259873677819
 21
310.8270762635985989
 31
0.0
  0
SOLID
  5
2E3
  8
DIMENSION__ISO_
 10
302.257355798258402
 20
311.5215207080432265
 30
0.0
 11
302.257355798258402
 21
310.1326318191543123
 31
0.0
 12
298.0906891315917164
 22
310.8270762635985989
 32
0.0
 13
298.0906891315917164
 23
310.8270762635985989
 33
0.0
  0
SOLID
  5
2E4
  8
DIMENSION__ISO_
 10
332.0240224649249967
 20
311.5215207080432265
 30
0.0
 11
332.0240224649249967
 21
310.1326318191543123
 31
0.0
 12
336.1906891315916823
 22
310.8270762635985989
 32
0.0
 13
336.1906891315916823
 23
310.8270762635985989
 33
0.0
  0
INSERT
  5
2E5
  8
0
  2
*U36
 10
0.0
 20
0.0
 30
0.0
  0
POINT
  5
2E6
  8
DEFPOINTS
 62
     0
 10
336.1906891315916823
 20
287.7977259837505244
 30
0.0
  0
POINT
  5
2E7
  8
DEFPOINTS
 62
     0
 10
298.0906891315917164
 20
262.9983926504170881
 30
0.0
  0
POINT
  5
2E8
  8
DEFPOINTS
 62
     0
 10
298.0906891315917164
 20
310.8270762635985989
 30
0.0
  0
ENDBLK
  5
2E9
  8
0
  0
BLOCK
  8
0
  2
*D8
 70
     1
 10
0.0
 20
0.0
 30
0.0
  3
*D8
  1

  0
LINE
  5
2EC
  8
DIMENSION__ISO_
 10
298.0906891315917164
 20
82.047725983750496
 30
0.0
 11
273.9131059287951757
 21
215.6996227336310028
 31
0.0
  0
LINE
  5
2ED
  8
DIMENSION__ISO_
 10
267.3630012054765075
 20
251.9081185472506945
 30
0.0
 11
272.4288296750270888
 21
223.9045923930455899
 31
0.0
  0
INSERT
  5
2EE
  8
0
  2
*U37
 10
0.0
 20
0.0
 30
0.0
  0
SOLID
  5
2EF
  8
DIMENSION__ISO_
 10
268.0463543987452795
 20
252.0317369102438931
 30
0.0
 11
266.6796480122076787
 21
251.7845001842574959
 31
0.0
 12
266.6212910275174863
 22
256.0082377068633832
 32
0.0
 13
266.6212910275174863
 23
256.0082377068633832
 33
0.0
  0
POINT
  5
2F0
  8
DEFPOINTS
 62
     0
 10
266.6212910275174863
 20
256.0082377068633832
 30
0.0
  0
POINT
  5
2F1
  8
DEFPOINTS
 62
     0
 10
298.0906891315917164
 20
82.047725983750496
 30
0.0
  0
ENDBLK
  5
2F2
  8
0
  0
BLOCK
  8
0
  2
*D9
 70
     1
 10
0.0
 20
0.0
 30
0.0
  3
*D9
  1

  0
LINE
  5
2F5
  8
DIMENSION__ISO_
 10
298.0906891315917164
 20
82.047725983750496
 30
0.0
 11
250.0200614514282051
 21
159.7055591482244949
 31
0.0
  0
LINE
  5
2F6
  8
DIMENSION__ISO_
 10
197.6117259946589968
 20
244.3709352362724871
 30
0.0
 11
244.941139911222507
 21
167.9105288076389968
 31
0.0
  0
INSERT
  5
2F7
  8
0
  2
*U38
 10
0.0
 20
0.0
 30
0.0
  0
SOLID
  5
2F8
  8
DIMENSION__ISO_
 10
198.202199025985891
 20
244.7364413042047886
 30
0.0
 11
197.0212529633319889
 21
244.0054291683401004
 31
0.0
 12
195.4186895870647902
 22
247.9137734242339093
 32
0.0
 13
195.4186895870647902
 23
247.9137734242339093
 33
0.0
  0
POINT
  5
2F9
  8
DEFPOINTS
 62
     0
 10
195.4186895870647902
 20
247.9137734242339093
 30
0.0
  0
POINT
  5
2FA
  8
DEFPOINTS
 62
     0
 10
298.0906891315917164
 20
82.047725983750496
 30
0.0
  0
ENDBLK
  5
2FB
  8
0
  0
BLOCK
  8
0
  2
*D10
 70
     1
 10
0.0
 20
0.0
 30
0.0
  3
*D10
  1

  0
LINE
  5
2FE
  8
DIMENSION__ISO_
 10
298.0906891315917164
 20
82.0477259837504533
 30
0.0
 11
247.4797598740908029
 21
138.9276350522326027
 31
0.0
  0
LINE
  5
2FF
  8
DIMENSION__ISO_
 10
161.3957352126192006
 20
235.674554479083497
 30
0.0
 11
240.179095266969199
 21
147.1326047116471045
 31
0.0
  0
INSERT
  5
300
  8
0
  2
*U39
 10
0.0
 20
0.0
 30
0.0
  0
SOLID
  5
301
  8
DIMENSION__ISO_
 10
161.9145383688208142
 20
236.1361781044917052
 30
0.0
 11
160.8769320564177008
 21
235.2129308536752035
 31
0.0
 12
158.6259934601696955
 22
238.7873734162928088
 32
0.0
 13
158.6259934601696955
 23
238.7873734162928088
 33
0.0
  0
POINT
  5
302
  8
DEFPOINTS
 62
     0
 10
158.6259934601696955
 20
238.7873734162928088
 30
0.0
  0
POINT
  5
303
  8
DEFPOINTS
 62
     0
 10
298.0906891315917164
 20
82.0477259837504533
 30
0.0
  0
ENDBLK
  5
304
  8
0
  0
BLOCK
  8
0
  2
*D11
 70
     1
 10
0.0
 20
0.0
 30
0.0
  3
*D11
  1

  0
LINE
  5
307
  8
DIMENSION__ISO_
 10
351.758819865596422
 20
225.6048070065872082
 30
0.0
 11
358.6112209852033743
 21
225.6048070065872082
 31
0.0
  0
LINE
  5
308
  8
DIMENSION__ISO_
 10
358.6112209852033743
 20
225.6048070065872082
 30
0.0
 11
336.3176818447379901
 21
254.1230143418596015
 31
0.0
  0
INSERT
  5
309
  8
0
  2
*U40
 10
0.0
 20
0.0
 30
0.0
  0
SOLID
  5
30A
  8
DIMENSION__ISO_
 10
336.8647935552592116
 20
254.5507079969802078
 30
0.0
 11
335.7705701342168823
 21
253.6953206867391089
 31
0.0
 12
333.7515199140144091
 22
257.405684604986277
 32
0.0
 13
333.7515199140144091
 23
257.405684604986277
 33
0.0
  0
POINT
  5
30B
  8
DEFPOINTS
 62
     0
 10
333.7515199140144091
 20
257.405684604986277
 30
0.0
  0
POINT
  5
30C
  8
DEFPOINTS
 62
     0
 10
329.8406891315917164
 20
262.4084740859913722
 30
0.0
  0
ENDBLK
  5
30D
  8
0
  0
BLOCK
  8
0
  2
*D12
 70
     1
 10
0.0
 20
0.0
 30
0.0
  3
*D12
  1

  0
LINE
  5
310
  8
DIMENSION__ISO_
 10
298.0906891315930238
 20
82.0477259837509365
 30
0.0
 11
257.9984235441719989
 21
187.2594710095696939
 31
0.0
  0
LINE
  5
311
  8
DIMENSION__ISO_
 10
233.7299324431926095
 20
250.9458269804009092
 30
0.0
 11
254.8718161236672017
 21
195.4644406689841958
 31
0.0
  0
INSERT
  5
312
  8
0
  2
*U41
 10
0.0
 20
0.0
 30
0.0
  0
SOLID
  5
313
  8
DIMENSION__ISO_
 10
234.3788584527954129
 20
251.1931084404432113
 30
0.0
 11
233.0810064335896925
 21
250.6985455203586071
 31
0.0
 12
232.2462436829387116
 22
254.8393830380180987
 32
0.0
 13
232.2462436829387116
 23
254.8393830380180987
 33
0.0
  0
POINT
  5
314
  8
DEFPOINTS
 62
     0
 10
232.2462436829387116
 20
254.8393830380180987
 30
0.0
  0
POINT
  5
315
  8
DEFPOINTS
 62
     0
 10
298.0906891315930238
 20
82.0477259837509365
 30
0.0
  0
ENDBLK
  5
316
  8
0
  0
BLOCK
  8
0
  2
*D13
 70
     1
 10
0.0
 20
0.0
 30
0.0
  3
*D13
  1

  0
LINE
  5
319
  8
DIMENSION__ISO_
 10
161.136244282167695
 20
219.002170833174489
 30
0.0
 11
266.7363959424782252
 21
113.402019172863902
 31
0.0
  0
ARC
  5
31A
  8
DIMENSION__ISO_
 10
298.0906891315916027
 20
82.0477259837504249
 30
0.0
 40
49.6333333333333329
 50
94.8113345668669041
 51
108.7928185200645004
  0
ARC
  5
31B
  8
DIMENSION__ISO_
 10
298.0906891315916027
 20
82.0477259837504249
 30
0.0
 40
49.6333333333333329
 50
123.4424043225343013
 51
130.1886654331329964
  0
SOLID
  5
31C
  8
DIMENSION__ISO_
 10
293.89854567425391
 20
132.199998071303412
 30
0.0
 11
293.9568435624713061
 21
130.8123332335603948
 31
0.0
 12
298.0906891315917164
 22
131.6810593170837933
 32
0.0
 13
298.0906891315917164
 23
131.6810593170837933
 33
0.0
  0
SOLID
  5
31D
  8
DIMENSION__ISO_
 10
266.5319748976552887
 20
119.4525806862927055
 30
0.0
 11
265.5919705129604722
 21
120.4750307351623064
 31
0.0
 12
262.9946225586992909
 22
117.1437925566426941
 32
0.0
 13
262.9946225586992909
 23
117.1437925566426941
 33
0.0
  0
INSERT
  5
31E
  8
0
  2
*U42
 10
0.0
 20
0.0
 30
0.0
  0
POINT
  5
31F
  8
DEFPOINTS
 62
     0
 10
298.0906891315917164
 20
82.0477259837504249
 30
0.0
  0
POINT
  5
320
  8
DEFPOINTS
 62
     0
 10
298.0906891315917164
 20
262.9983926504170881
 30
0.0
  0
POINT
  5
321
  8
DEFPOINTS
 62
     0
 10
159.2653575902783132
 20
220.873057525063814
 30
0.0
  0
POINT
  5
322
  8
DEFPOINTS
 62
     0
 10
285.2446371930032001
 20
129.9898444952312104
 30
0.0
  0
ENDBLK
  5
323
  8
0
  0
BLOCK
  8
0
  2
*D14
 70
     1
 10
0.0
 20
0.0
 30
0.0
  3
*D14
  1

  0
LINE
  5
326
  8
DIMENSION__ISO_
 10
192.6281891315915971
 20
266.9597259837506158
 30
0.0
 11
103.3158498701158976
 21
266.9597259837506158
 31
0.0
  0
LINE
  5
327
  8
DIMENSION__ISO_
 10
133.2281891315917051
 20
212.8002551065175112
 30
0.0
 11
103.3158498701158976
 21
212.8002551065175112
 31
0.0
  0
LINE
  5
328
  8
DIMENSION__ISO_
 10
108.6075165367825974
 20
262.7930593170838733
 30
0.0
 11
108.6075165367825974
 21
243.9824753748413002
 31
0.0
  0
LINE
  5
329
  8
DIMENSION__ISO_
 10
108.6075165367825974
 20
216.9669217731841115
 30
0.0
 11
108.6075165367825974
 21
235.7775057154267131
 31
0.0
  0
SOLID
  5
32A
  8
DIMENSION__ISO_
 10
107.9130720923381972
 20
262.7930593170838733
 30
0.0
 11
109.3019609812269977
 21
262.7930593170838733
 31
0.0
 12
108.6075165367825974
 22
266.9597259837506158
 32
0.0
 13
108.6075165367825974
 23
266.9597259837506158
 33
0.0
  0
SOLID
  5
32B
  8
DIMENSION__ISO_
 10
107.9130720923381972
 20
216.9669217731841115
 30
0.0
 11
109.3019609812269977
 21
216.9669217731841115
 31
0.0
 12
108.6075165367825974
 22
212.8002551065175112
 32
0.0
 13
108.6075165367825974
 23
212.8002551065175112
 33
0.0
  0
INSERT
  5
32C
  8
0
  2
*U43
 10
0.0
 20
0.0
 30
0.0
  0
POINT
  5
32D
  8
DEFPOINTS
 62
     0
 10
195.2740224649251104
 20
266.9597259837506158
 30
0.0
  0
POINT
  5
32E
  8
DEFPOINTS
 62
     0
 10
135.8740224649251047
 20
212.8002551065175112
 30
0.0
  0
POINT
  5
32F
  8
DEFPOINTS
 62
     0
 10
108.6075165367825974
 20
212.8002551065175112
 30
0.0
  0
ENDBLK
  5
330
  8
0
  0
BLOCK
  8
0
  2
*D16
 70
     1
 10
0.0
 20
0.0
 30
0.0
  3
*D16
  1

  0
LINE
  5
446
  8
DIMENSION__ISO_
 10
40.0186434924561709
 20
144.9090924719197915
 30
0.0
 11
40.018643492456178
 21
279.1559189100357798
 31
0.0
  0
LINE
  5
447
  8
DIMENSION__ISO_
 10
243.2186434924562946
 20
223.4114299550782903
 30
0.0
 11
243.2186434924562946
 21
279.1559189100357798
 31
0.0
  0
LINE
  5
448
  8
DIMENSION__ISO_
 10
44.1853101591228494
 20
273.8642522433690942
 30
0.0
 11
123.0605622646896933
 21
273.8642522433690942
 31
0.0
  0
LINE
  5
449
  8
DIMENSION__ISO_
 10
239.0519768257896089
 20
273.8642522433690942
 30
0.0
 11
160.1767247202226088
 21
273.8642522433690942
 31
0.0
  0
SOLID
  5
44A
  8
DIMENSION__ISO_
 10
44.1853101591228494
 20
274.5586966878136082
 30
0.0
 11
44.1853101591228494
 21
273.169807798924694
 31
0.0
 12
40.018643492456178
 22
273.8642522433690942
 32
0.0
 13
40.018643492456178
 23
273.8642522433690942
 33
0.0
  0
SOLID
  5
44B
  8
DIMENSION__ISO_
 10
239.0519768257896089
 20
274.5586966878136082
 30
0.0
 11
239.0519768257896089
 21
273.169807798924694
 31
0.0
 12
243.2186434924562946
 22
273.8642522433690942
 32
0.0
 13
243.2186434924562946
 23
273.8642522433690942
 33
0.0
  0
INSERT
  5
44C
  8
0
  2
*U46
 10
0.0
 20
0.0
 30
0.0
  0
POINT
  5
44D
  8
DEFPOINTS
 62
     0
 10
40.0186434924561709
 20
142.2632591385865055
 30
0.0
  0
POINT
  5
44E
  8
DEFPOINTS
 62
     0
 10
243.2186434924562946
 20
220.7655966217448906
 30
0.0
  0
POINT
  5
44F
  8
DEFPOINTS
 62
     0
 10
243.2186434924562946
 20
273.8642522433690942
 30
0.0
  0
ENDBLK
  5
3B3
  8
0
  0
BLOCK
  8
0
  2
*D17
 70
     1
 10
0.0
 20
0.0
 30
0.0
  3
*D17
  1

  0
LINE
  5
450
  8
DIMENSION__ISO_
 10
79.3228101591228949
 20
227.1155966217451123
 30
0.0
 11
10.3438042309804601
 21
227.1155966217451123
 31
0.0
  0
LINE
  5
451
  8
DIMENSION__ISO_
 10
99.6561434924562093
 20
199.9275966217450957
 30
0.0
 11
10.3438042309804601
 21
199.9275966217450105
 31
0.0
  0
LINE
  5
452
  8
DIMENSION__ISO_
 10
15.6354708976471208
 20
222.9489299550783983
 30
0.0
 11
15.6354708976471208
 21
217.6240814693439063
 31
0.0
  0
LINE
  5
453
  8
DIMENSION__ISO_
 10
15.6354708976471208
 20
204.0942632884116961
 30
0.0
 11
15.6354708976471208
 21
209.4191117741461028
 31
0.0
  0
SOLID
  5
454
  8
DIMENSION__ISO_
 10
14.9410264532026797
 20
222.9489299550783983
 30
0.0
 11
16.3299153420915601
 21
222.9489299550783983
 31
0.0
 12
15.6354708976471208
 22
227.1155966217451123
 32
0.0
 13
15.6354708976471208
 23
227.1155966217451123
 33
0.0
  0
SOLID
  5
455
  8
DIMENSION__ISO_
 10
14.9410264532026797
 20
204.0942632884116961
 30
0.0
 11
16.3299153420915708
 21
204.0942632884116961
 31
0.0
 12
15.6354708976471208
 22
199.9275966217450105
 32
0.0
 13
15.6354708976471208
 23
199.9275966217450105
 33
0.0
  0
INSERT
  5
456
  8
0
  2
*U47
 10
0.0
 20
0.0
 30
0.0
  0
POINT
  5
457
  8
DEFPOINTS
 62
     0
 10
81.9686434924562235
 20
227.1155966217451123
 30
0.0
  0
POINT
  5
458
  8
DEFPOINTS
 62
     0
 10
102.3019768257894953
 20
199.9275966217450957
 30
0.0
  0
POINT
  5
459
  8
DEFPOINTS
 62
     0
 10
15.6354708976471208
 20
199.9275966217450105
 30
0.0
  0
ENDBLK
  5
3C0
  8
0
  0
BLOCK
  8
0
  2
*D18
 70
     1
 10
0.0
 20
0.0
 30
0.0
  3
*D18
  1

  0
LINE
  5
45A
  8
DIMENSION__ISO_
 10
205.1186434924561866
 20
185.8650966217448968
 30
0.0
 11
205.1186434924561866
 21
0.0
 31
0.0
  0
LINE
  5
45B
  8
DIMENSION__ISO_
 10
113.7186434924561951
 20
185.8650966217448968
 30
0.0
 11
113.7186434924560956
 21
0.0
 31
0.0
  0
LINE
  5
45C
  8
DIMENSION__ISO_
 10
200.9519768257895862
 20
5.2916666666666714
 30
0.0
 11
176.4471523232259074
 21
5.2916666666666714
 31
0.0
  0
LINE
  5
45D
  8
DIMENSION__ISO_
 10
117.8853101591227954
 20
5.2916666666666714
 30
0.0
 11
142.3901346616864885
 21
5.2916666666666714
 31
0.0
  0
SOLID
  5
45E
  8
DIMENSION__ISO_
 10
200.9519768257895862
 20
5.986111111111116
 30
0.0
 11
200.9519768257895862
 21
4.5972222222222259
 31
0.0
 12
205.1186434924561866
 22
5.2916666666666714
 32
0.0
 13
205.1186434924561866
 23
5.2916666666666714
 33
0.0
  0
SOLID
  5
45F
  8
DIMENSION__ISO_
 10
117.8853101591227954
 20
5.986111111111116
 30
0.0
 11
117.8853101591227954
 21
4.5972222222222259
 31
0.0
 12
113.7186434924560956
 22
5.2916666666666714
 32
0.0
 13
113.7186434924560956
 23
5.2916666666666714
 33
0.0
  0
INSERT
  5
460
  8
0
  2
*U48
 10
0.0
 20
0.0
 30
0.0
  0
POINT
  5
461
  8
DEFPOINTS
 62
     0
 10
205.1186434924561866
 20
188.5109299550782964
 30
0.0
  0
POINT
  5
462
  8
DEFPOINTS
 62
     0
 10
113.7186434924561951
 20
188.5109299550782964
 30
0.0
  0
POINT
  5
463
  8
DEFPOINTS
 62
     0
 10
113.7186434924560956
 20
5.2916666666666714
 30
0.0
  0
ENDBLK
  5
3CD
  8
0
  0
BLOCK
  8
0
  2
*D19
 70
     1
 10
0.0
 20
0.0
 30
0.0
  3
*D19
  1

  0
LINE
  5
464
  8
DIMENSION__ISO_
 10
243.2186434924562946
 20
223.4114299550782903
 30
0.0
 11
243.2186434924562946
 21
264.3340384787330208
 31
0.0
  0
LINE
  5
465
  8
DIMENSION__ISO_
 10
75.6186434924561723
 20
223.411429955078205
 30
0.0
 11
75.6186434924561723
 21
264.3340384787330208
 31
0.0
  0
LINE
  5
466
  8
DIMENSION__ISO_
 10
239.0519768257896089
 20
259.0423718120662784
 30
0.0
 11
177.8104050450845932
 21
259.0423718120662784
 31
0.0
  0
LINE
  5
467
  8
DIMENSION__ISO_
 10
79.7853101591228437
 20
259.0423718120662784
 30
0.0
 11
141.0268819398278879
 21
259.0423718120662784
 31
0.0
  0
SOLID
  5
468
  8
DIMENSION__ISO_
 10
239.0519768257896089
 20
259.7368162565107923
 30
0.0
 11
239.0519768257896089
 21
258.3479273676218781
 31
0.0
 12
243.2186434924562946
 22
259.0423718120662784
 32
0.0
 13
243.2186434924562946
 23
259.0423718120662784
 33
0.0
  0
SOLID
  5
469
  8
DIMENSION__ISO_
 10
79.7853101591228437
 20
259.7368162565107923
 30
0.0
 11
79.7853101591228437
 21
258.3479273676218781
 31
0.0
 12
75.6186434924561723
 22
259.0423718120662784
 32
0.0
 13
75.6186434924561723
 23
259.0423718120662784
 33
0.0
  0
INSERT
  5
46A
  8
0
  2
*U49
 10
0.0
 20
0.0
 30
0.0
  0
POINT
  5
46B
  8
DEFPOINTS
 62
     0
 10
243.2186434924562946
 20
220.7655966217448906
 30
0.0
  0
POINT
  5
46C
  8
DEFPOINTS
 62
     0
 10
75.6186434924561723
 20
220.7655966217448054
 30
0.0
  0
POINT
  5
46D
  8
DEFPOINTS
 62
     0
 10
75.6186434924561723
 20
259.0423718120662784
 30
0.0
  0
ENDBLK
  5
3DA
  8
0
  0
BLOCK
  8
0
  2
*D20
 70
     1
 10
0.0
 20
0.0
 30
0.0
  3
*D20
  1

  0
LINE
  5
46E
  8
DIMENSION__ISO_
 10
239.5144768257896999
 20
227.1155966217451123
 30
0.0
 11
293.8561345380912826
 21
227.1155966217451123
 31
0.0
  0
LINE
  5
46F
  8
DIMENSION__ISO_
 10
211.9311434924564139
 20
15.0155966217449706
 30
0.0
 11
293.8561345380913963
 21
15.0155966217449794
 31
0.0
  0
LINE
  5
470
  8
DIMENSION__ISO_
 10
288.564467871424597
 20
222.9489299550783983
 30
0.0
 11
288.5644678714247107
 21
125.1680814693439032
 31
0.0
  0
LINE
  5
471
  8
DIMENSION__ISO_
 10
288.5644678714247107
 20
19.1822632884116402
 30
0.0
 11
288.5644678714247107
 21
116.9631117741460997
 31
0.0
  0
SOLID
  5
472
  8
DIMENSION__ISO_
 10
287.8700234269801967
 20
222.9489299550783983
 30
0.0
 11
289.2589123158689972
 21
222.9489299550783983
 31
0.0
 12
288.564467871424597
 22
227.1155966217451123
 32
0.0
 13
288.564467871424597
 23
227.1155966217451123
 33
0.0
  0
SOLID
  5
473
  8
DIMENSION__ISO_
 10
287.8700234269801967
 20
19.1822632884116402
 30
0.0
 11
289.2589123158691109
 21
19.1822632884116402
 31
0.0
 12
288.5644678714247107
 22
15.0155966217449794
 32
0.0
 13
288.5644678714247107
 23
15.0155966217449794
 33
0.0
  0
INSERT
  5
474
  8
0
  2
*U50
 10
0.0
 20
0.0
 30
0.0
  0
POINT
  5
475
  8
DEFPOINTS
 62
     0
 10
236.8686434924564139
 20
227.1155966217451123
 30
0.0
  0
POINT
  5
476
  8
DEFPOINTS
 62
     0
 10
209.2853101591230995
 20
15.0155966217449706
 30
0.0
  0
POINT
  5
477
  8
DEFPOINTS
 62
     0
 10
288.5644678714247107
 20
15.0155966217449794
 30
0.0
  0
ENDBLK
  5
3E7
  8
0
  0
BLOCK
  8
0
  2
*D21
 70
     1
 10
0.0
 20
0.0
 30
0.0
  3
*D21
  1

  0
LINE
  5
478
  8
DIMENSION__ISO_
 10
243.2186434924562946
 20
223.4114299550782903
 30
0.0
 11
243.2186434924562946
 21
249.0866135682597928
 31
0.0
  0
LINE
  5
479
  8
DIMENSION__ISO_
 10
205.1186434924561866
 20
198.6120966217449109
 30
0.0
 11
205.1186434924561866
 21
249.0866135682597928
 31
0.0
  0
LINE
  5
47A
  8
DIMENSION__ISO_
 10
209.2853101591229006
 20
243.7949469015931925
 30
0.0
 11
239.0519768257896089
 21
243.7949469015931925
 31
0.0
  0
LINE
  5
47B
  8
DIMENSION__ISO_
 10
243.2186434924562946
 20
243.7949469015931925
 30
0.0
 11
254.2639802471007044
 21
243.7949469015931925
 31
0.0
  0
SOLID
  5
47C
  8
DIMENSION__ISO_
 10
209.2853101591229006
 20
244.4893913460375927
 30
0.0
 11
209.2853101591229006
 21
243.100502457148707
 31
0.0
 12
205.1186434924561866
 22
243.7949469015931925
 32
0.0
 13
205.1186434924561866
 23
243.7949469015931925
 33
0.0
  0
SOLID
  5
47D
  8
DIMENSION__ISO_
 10
239.0519768257896089
 20
244.4893913460375927
 30
0.0
 11
239.0519768257896089
 21
243.100502457148707
 31
0.0
 12
243.2186434924562946
 22
243.7949469015931925
 32
0.0
 13
243.2186434924562946
 23
243.7949469015931925
 33
0.0
  0
INSERT
  5
47E
  8
0
  2
*U51
 10
0.0
 20
0.0
 30
0.0
  0
POINT
  5
47F
  8
DEFPOINTS
 62
     0
 10
243.2186434924562946
 20
220.7655966217448906
 30
0.0
  0
POINT
  5
480
  8
DEFPOINTS
 62
     0
 10
205.1186434924561866
 20
195.9662632884115965
 30
0.0
  0
POINT
  5
481
  8
DEFPOINTS
 62
     0
 10
205.1186434924561866
 20
243.7949469015931925
 30
0.0
  0
ENDBLK
  5
3F4
  8
0
  0
BLOCK
  8
0
  2
*D22
 70
     1
 10
0.0
 20
0.0
 30
0.0
  3
*D22
  1

  0
LINE
  5
482
  8
DIMENSION__ISO_
 10
205.1186434924561866
 20
15.0155966217449492
 30
0.0
 11
180.9410602928963954
 21
148.6674933537339029
 31
0.0
  0
LINE
  5
483
  8
DIMENSION__ISO_
 10
174.3909555663410913
 20
184.8759891852452029
 30
0.0
 11
179.4567840326550936
 21
156.8724630489317065
 31
0.0
  0
INSERT
  5
484
  8
0
  2
*U52
 10
0.0
 20
0.0
 30
0.0
  0
SOLID
  5
485
  8
DIMENSION__ISO_
 10
175.0743087596098917
 20
184.9996075482384015
 30
0.0
 11
173.7076023730722909
 21
184.7523708222520042
 31
0.0
 12
173.6492453883820986
 22
188.9761083448578916
 32
0.0
 13
173.6492453883820986
 23
188.9761083448578916
 33
0.0
  0
POINT
  5
486
  8
DEFPOINTS
 62
     0
 10
173.6492453883820986
 20
188.9761083448578916
 30
0.0
  0
POINT
  5
487
  8
DEFPOINTS
 62
     0
 10
205.1186434924561866
 20
15.0155966217449492
 30
0.0
  0
ENDBLK
  5
401
  8
0
  0
BLOCK
  8
0
  2
*D23
 70
     1
 10
0.0
 20
0.0
 30
0.0
  3
*D23
  1

  0
LINE
  5
488
  8
DIMENSION__ISO_
 10
205.1186434924561866
 20
15.0155966217449492
 30
0.0
 11
157.0480158233677912
 21
92.6734297683272672
 31
0.0
  0
LINE
  5
489
  8
DIMENSION__ISO_
 10
104.6396803555234953
 20
177.3388058742669955
 30
0.0
 11
151.9690942610120032
 21
100.8783994635249996
 31
0.0
  0
INSERT
  5
48A
  8
0
  2
*U53
 10
0.0
 20
0.0
 30
0.0
  0
SOLID
  5
48B
  8
DIMENSION__ISO_
 10
105.2301533868504038
 20
177.7043119421992969
 30
0.0
 11
104.0492073241966011
 21
176.9732998063346088
 31
0.0
 12
102.4466439479294024
 22
180.8816440622283892
 32
0.0
 13
102.4466439479294024
 23
180.8816440622283892
 33
0.0
  0
POINT
  5
48C
  8
DEFPOINTS
 62
     0
 10
102.4466439479294024
 20
180.8816440622283892
 30
0.0
  0
POINT
  5
48D
  8
DEFPOINTS
 62
     0
 10
205.1186434924561866
 20
15.0155966217449492
 30
0.0
  0
ENDBLK
  5
40A
  8
0
  0
BLOCK
  8
0
  2
*D24
 70
     1
 10
0.0
 20
0.0
 30
0.0
  3
*D24
  1

  0
LINE
  5
48E
  8
DIMENSION__ISO_
 10
205.1186434924561866
 20
15.0155966217449492
 30
0.0
 11
154.5077142508752104
 21
71.8955056723354318
 31
0.0
  0
LINE
  5
48F
  8
DIMENSION__ISO_
 10
68.4236895734838413
 20
168.6424251170780053
 30
0.0
 11
147.2070496119139875
 21
80.1004753675332211
 31
0.0
  0
INSERT
  5
490
  8
0
  2
*U54
 10
0.0
 20
0.0
 30
0.0
  0
SOLID
  5
491
  8
DIMENSION__ISO_
 10
68.942492729685398
 20
169.1040487424862988
 30
0.0
 11
67.9048864172822846
 21
168.1808014916697118
 31
0.0
 12
65.6539478210342793
 22
171.7552440542872887
 32
0.0
 13
65.6539478210342793
 23
171.7552440542872887
 33
0.0
  0
POINT
  5
492
  8
DEFPOINTS
 62
     0
 10
65.6539478210342793
 20
171.7552440542872887
 30
0.0
  0
POINT
  5
493
  8
DEFPOINTS
 62
     0
 10
205.1186434924561866
 20
15.0155966217449492
 30
0.0
  0
ENDBLK
  5
413
  8
0
  0
BLOCK
  8
0
  2
*D25
 70
     1
 10
0.0
 20
0.0
 30
0.0
  3
*D25
  1

  0
LINE
  5
494
  8
DIMENSION__ISO_
 10
258.7867743669071956
 20
158.5726776445816029
 30
0.0
 11
265.639175346067816
 21
158.5726776445816029
 31
0.0
  0
LINE
  5
495
  8
DIMENSION__ISO_
 10
265.639175346067816
 20
158.5726776445816029
 30
0.0
 11
243.3456362056024034
 21
187.0908849798539961
 31
0.0
  0
INSERT
  5
496
  8
0
  2
*U55
 10
0.0
 20
0.0
 30
0.0
  0
SOLID
  5
497
  8
DIMENSION__ISO_
 10
243.8927479161235112
 20
187.5185786349746024
 30
0.0
 11
242.7985244950812955
 21
186.6631913247333898
 31
0.0
 12
240.7794742748789076
 22
190.3735552429807001
 32
0.0
 13
240.7794742748789076
 23
190.3735552429807001
 33
0.0
  0
POINT
  5
498
  8
DEFPOINTS
 62
     0
 10
240.7794742748789076
 20
190.3735552429807001
 30
0.0
  0
POINT
  5
499
  8
DEFPOINTS
 62
     0
 10
236.8686434924561866
 20
195.3763447239857953
 30
0.0
  0
ENDBLK
  5
41C
  8
0
  0
BLOCK
  8
0
  2
*D26
 70
     1
 10
0.0
 20
0.0
 30
0.0
  3
*D26
  1

  0
LINE
  5
49A
  8
DIMENSION__ISO_
 10
205.1186434924576076
 20
15.0155966217454004
 30
0.0
 11
165.0263779118542971
 21
120.2273416296724946
 31
0.0
  0
LINE
  5
49B
  8
DIMENSION__ISO_
 10
140.7578868040569944
 20
183.9136976183953038
 30
0.0
 11
161.8997704777139006
 21
128.4323113248703123
 31
0.0
  0
INSERT
  5
49C
  8
0
  2
*U56
 10
0.0
 20
0.0
 30
0.0
  0
SOLID
  5
49D
  8
DIMENSION__ISO_
 10
141.4068128136599114
 20
184.1609790784376912
 30
0.0
 11
140.108960794454191
 21
183.6664161583530017
 31
0.0
 12
139.2741980438032101
 22
187.8072536760124933
 32
0.0
 13
139.2741980438032101
 23
187.8072536760124933
 33
0.0
  0
POINT
  5
49E
  8
DEFPOINTS
 62
     0
 10
139.2741980438032101
 20
187.8072536760124933
 30
0.0
  0
POINT
  5
49F
  8
DEFPOINTS
 62
     0
 10
205.1186434924576076
 20
15.0155966217454004
 30
0.0
  0
ENDBLK
  5
425
  8
0
  0
BLOCK
  8
0
  2
*D27
 70
     1
 10
0.0
 20
0.0
 30
0.0
  3
*D27
  1

  0
LINE
  5
4A0
  8
DIMENSION__ISO_
 10
68.1641986430323215
 20
151.970041471168912
 30
0.0
 11
173.764350303342809
 21
46.3698898108584814
 31
0.0
  0
ARC
  5
4A1
  8
DIMENSION__ISO_
 10
205.1186434924561866
 20
15.0155966217449297
 30
0.0
 40
49.6333333333333186
 50
94.8113345668669325
 51
108.7928185200645999
  0
ARC
  5
4A2
  8
DIMENSION__ISO_
 10
205.1186434924561866
 20
15.0155966217449297
 30
0.0
 40
49.6333333333333186
 50
123.4424043225344008
 51
130.1886654331331101
  0
SOLID
  5
4A3
  8
DIMENSION__ISO_
 10
200.9265000351184938
 20
65.1678687092978919
 30
0.0
 11
200.9847979233358899
 21
63.7802038715548605
 31
0.0
 12
205.1186434924561866
 22
64.648929955078259
 32
0.0
 13
205.1186434924561866
 23
64.648929955078259
 33
0.0
  0
SOLID
  5
4A4
  8
DIMENSION__ISO_
 10
173.5599292585199862
 20
52.4204513242872281
 30
0.0
 11
172.6199248738251129
 21
53.4429013731567721
 31
0.0
 12
170.0225769195639032
 22
50.1116631946372166
 32
0.0
 13
170.0225769195639032
 23
50.1116631946372166
 33
0.0
  0
INSERT
  5
4A5
  8
0
  2
*U57
 10
0.0
 20
0.0
 30
0.0
  0
POINT
  5
4A6
  8
DEFPOINTS
 62
     0
 10
205.1186434924561866
 20
15.0155966217449297
 30
0.0
  0
POINT
  5
4A7
  8
DEFPOINTS
 62
     0
 10
205.1186434924561866
 20
195.9662632884115965
 30
0.0
  0
POINT
  5
4A8
  8
DEFPOINTS
 62
     0
 10
66.2933119511429254
 20
153.8409281630582086
 30
0.0
  0
POINT
  5
4A9
  8
DEFPOINTS
 62
     0
 10
192.2725915538678123
 20
62.957715133225669
 30
0.0
  0
ENDBLK
  5
42E
  8
0
  0
BLOCK
  8
0
  2
*D28
 70
     1
 10
0.0
 20
0.0
 30
0.0
  3
*D28
  1

  0
LINE
  5
4AA
  8
DIMENSION__ISO_
 10
99.6561434924562093
 20
199.9275966217450957
 30
0.0
 11
10.3438042309804601
 21
199.9275966217450105
 31
0.0
  0
LINE
  5
4AB
  8
DIMENSION__ISO_
 10
40.2561434924562676
 20
145.7681257445119059
 30
0.0
 11
10.3438042309804796
 21
145.7681257445119059
 31
0.0
  0
LINE
  5
4AC
  8
DIMENSION__ISO_
 10
15.6354708976471297
 20
195.7609299550784101
 30
0.0
 11
15.6354708976471297
 21
176.9503460307273031
 31
0.0
  0
LINE
  5
4AD
  8
DIMENSION__ISO_
 10
15.6354708976471404
 20
149.9347924111785915
 30
0.0
 11
15.6354708976471297
 21
168.7453763355294996
 31
0.0
  0
SOLID
  5
4AE
  8
DIMENSION__ISO_
 10
14.9410264532026904
 20
195.7609299550784101
 30
0.0
 11
16.3299153420915708
 21
195.7609299550784101
 31
0.0
 12
15.6354708976471297
 22
199.9275966217450105
 32
0.0
 13
15.6354708976471297
 23
199.9275966217450105
 33
0.0
  0
SOLID
  5
4AF
  8
DIMENSION__ISO_
 10
14.9410264532026904
 20
149.9347924111785915
 30
0.0
 11
16.3299153420915815
 21
149.9347924111785915
 31
0.0
 12
15.6354708976471404
 22
145.7681257445119059
 32
0.0
 13
15.6354708976471404
 23
145.7681257445119059
 33
0.0
  0
INSERT
  5
4B0
  8
0
  2
*U58
 10
0.0
 20
0.0
 30
0.0
  0
POINT
  5
4B1
  8
DEFPOINTS
 62
     0
 10
102.3019768257894953
 20
199.9275966217450957
 30
0.0
  0
POINT
  5
4B2
  8
DEFPOINTS
 62
     0
 10
42.9019768257896033
 20
145.7681257445119059
 30
0.0
  0
POINT
  5
4B3
  8
DEFPOINTS
 62
     0
 10
15.6354708976471404
 20
145.7681257445119059
 30
0.0
  0
ENDBLK
  5
43B
  8
0
  0
BLOCK
  8
0
  2
*U31
 70
     1
 10
0.0
 20
0.0
 30
0.0
  3
*U31
  1

  0
TEXT
  5
74B
  8
DIMENSION__ISO_
 10
217.056046569131297
 20
339.336956941102585
 30
0.0
 40
4.2333332697550441
  1
203.2 [8.000]
  7
MtXpl_Tahoma
  0
ENDBLK
  5
74D
  8
0
  0
BLOCK
  8
0
  2
*U32
 70
     1
 10
0.0
 20
0.0
 30
0.0
  3
*U32
  1

  0
TEXT
  5
74F
  8
DIMENSION__ISO_
 10
92.6621508598182118
 20
278.9943013194783248
 30
0.0
 40
4.2333332697550441
  1
27.2 [1.070]
  7
MtXpl_Tahoma
  0
ENDBLK
  5
751
  8
0
  0
BLOCK
  8
0
  2
*U33
 70
     1
 10
0.0
 20
0.0
 30
0.0
  3
*U33
  1

  0
TEXT
  5
753
  8
DIMENSION__ISO_
 10
236.5050279537805125
 20
70.7643713644000059
 30
0.0
 40
4.2333332697550441
  1
91.4 [3.598]
  7
MtXpl_Tahoma
  0
ENDBLK
  5
755
  8
0
  0
BLOCK
  8
0
  2
*U34
 70
     1
 10
0.0
 20
0.0
 30
0.0
  3
*U34
  1

  0
TEXT
  5
757
  8
DIMENSION__ISO_
 10
234.6897268929185998
 20
324.5150765097997123
 30
0.0
 40
4.2333332697550441
  1
167.6 [6.598]
  7
MtXpl_Tahoma
  0
ENDBLK
  5
759
  8
0
  0
BLOCK
  8
0
  2
*U35
 70
     1
 10
0.0
 20
0.0
 30
0.0
  3
*U35
  1

  0
TEXT
  5
75B
  8
DIMENSION__ISO_
 10
364.001870948099679
 20
186.5383013194783075
 30
0.0
 40
4.2333332697550441
  1
212.1 [8.350]
  7
MtXpl_Tahoma
  0
ENDBLK
  5
75D
  8
0
  0
BLOCK
  8
0
  2
*U36
 70
     1
 10
0.0
 20
0.0
 30
0.0
  3
*U36
  1

  0
TEXT
  5
75F
  8
DIMENSION__ISO_
 10
348.2935813978226065
 20
309.2676515993264843
 30
0.0
 40
4.2333332697550441
  1
38.1 [1.500]
  7
MtXpl_Tahoma
  0
ENDBLK
  5
761
  8
0
  0
BLOCK
  8
0
  2
*U37
 70
     1
 10
0.0
 20
0.0
 30
0.0
  3
*U37
  1

  0
TEXT
  5
763
  8
DIMENSION__ISO_
 10
253.5523539380199907
 20
218.2426828990660113
 30
0.0
 40
4.2333332697550441
  1
R176.8 [R6.96]
  7
MtXpl_Tahoma
  0
ENDBLK
  5
765
  8
0
  0
BLOCK
  8
0
  2
*U38
 70
     1
 10
0.0
 20
0.0
 30
0.0
  3
*U38
  1

  0
TEXT
  5
767
  8
DIMENSION__ISO_
 10
227.8619868174340013
 20
162.2486193136595034
 30
0.0
 40
4.2333332697550441
  1
R195.1 [R7.68]
  7
MtXpl_Tahoma
  0
ENDBLK
  5
769
  8
0
  0
BLOCK
  8
0
  2
*U39
 70
     1
 10
0.0
 20
0.0
 30
0.0
  3
*U39
  1

  0
TEXT
  5
76B
  8
DIMENSION__ISO_
 10
224.2108137066387883
 20
141.4706952176676964
 30
0.0
 40
4.2333332697550441
  1
R209.8 [R8.26]
  7
MtXpl_Tahoma
  0
ENDBLK
  5
76D
  8
0
  0
BLOCK
  8
0
  2
*U40
 70
     1
 10
0.0
 20
0.0
 30
0.0
  3
*U40
  1

  0
TEXT
  5
76F
  8
DIMENSION__ISO_
 10
306.5282249595622943
 20
224.0699279090578955
 30
0.0
 40
4.1666999999999987
  1
R6.4 [R0.25] TYP
  7
MtXpl_Tahoma
  0
ENDBLK
  5
771
  8
0
  0
BLOCK
  8
0
  2
*U41
 70
     1
 10
0.0
 20
0.0
 30
0.0
  3
*U41
  1

  0
TEXT
  5
773
  8
DIMENSION__ISO_
 10
236.8165059700268955
 20
189.8025311750047877
 30
0.0
 40
4.2333332697550441
  1
R184.9 [R7.28]
  7
MtXpl_Tahoma
  0
ENDBLK
  5
775
  8
0
  0
BLOCK
  8
0
  2
*U42
 70
     1
 10
0.0
 20
0.0
 30
0.0
  3
*U42
  1

  0
TEXT
  5
777
  8
DIMENSION__ISO_
 10
271.9574462422376087
 20
124.6274919561679013
 30
0.0
 40
4.2333332697550432
  1
45°
  7
MtXpl_Tahoma
  0
ENDBLK
  5
779
  8
0
  0
BLOCK
  8
0
  2
*U43
 70
     1
 10
0.0
 20
0.0
 30
0.0
  3
*U43
  1

  0
TEXT
  5
77B
  8
DIMENSION__ISO_
 10
92.6408278244063439
 20
238.3205658808618068
 30
0.0
 40
4.2333332697550441
  1
54.2 [2.132]
  7
MtXpl_Tahoma
  0
ENDBLK
  5
77D
  8
0
  0
BLOCK
  8
0
  2
*U44
 70
     1
 10
0.0
 20
0.0
 30
0.0
  3
*U44
  1

  0
TEXT
  5
780
  8
SYMBOL__ISO_
 10
145.8350420011566086
 20
242.8699972655728061
 30
0.0
 40
4.233333468437193
  1
3X  
  7
MtXpl_Tahoma
  0
TEXT
  5
781
  8
SYMBOL__ISO_
 10
156.033139483550201
 20
242.8699972655728061
 30
0.0
 40
4.233299999999999
  1
n
  7
MtXpl_AIGDT
  0
TEXT
  5
782
  8
SYMBOL__ISO_
 10
160.9089442798708944
 20
242.8699972655728061
 30
0.0
 40
4.233299999999999
  1
6.6 THRU
  7
MtXpl_Tahoma
  0
TEXT
  5
783
  8
SYMBOL__ISO_
 10
145.8076466781083127
 20
235.4616631911549973
 30
0.0
 40
4.233299999999999
  1
n
  7
MtXpl_AIGDT
  0
TEXT
  5
784
  8
SYMBOL__ISO_
 10
150.6834514744288924
 20
235.4616631911549973
 30
0.0
 40
4.233299999999999
  1
14.5 C'SINK X 90°
  7
MtXpl_Tahoma
  0
ENDBLK
  5
786
  8
0
  0
BLOCK
  8
0
  2
*U45
 70
     1
 10
0.0
 20
0.0
 30
0.0
  3
*U45
  1

  0
SOLID
  5
788
  8
SYMBOL__ISO_
 10
120.0375812746005977
 20
209.4466698734057957
 30
0.0
 11
117.2944012348336003
 21
206.2344545215100027
 31
0.0
 12
118.8475016988631978
 22
210.1627166240386089
 32
0.0
 13
118.8475016988631978
 23
210.1627166240386089
 33
0.0
  0
POLYLINE
  5
789
  8
SYMBOL__ISO_
 66
     1
 10
0.0
 20
0.0
 30
0.0
  0
VERTEX
  5
78A
  8
SYMBOL__ISO_
 10
119.4425414867318977
 20
209.8046932487220886
 30
0.0
  0
VERTEX
  5
78B
  8
SYMBOL__ISO_
 10
140.6108199369782028
 20
244.9866639997914035
 30
0.0
  0
VERTEX
  5
78C
  8
SYMBOL__ISO_
 10
144.7774866036448032
 20
244.9866639997914035
 30
0.0
  0
SEQEND
  5
78D
  8
SYMBOL__ISO_
  0
ENDBLK
  5
78F
  8
0
  0
BLOCK
  8
0
  2
*U46
 70
     1
 10
0.0
 20
0.0
 30
0.0
  3
*U46
  1

  0
TEXT
  5
791
  8
DIMENSION__ISO_
 10
124.0840008187059027
 20
272.3048275969886163
 30
0.0
 40
4.2333332697550432
  1
203.2 [8.000]
  7
MtXpl_Tahoma
  0
ENDBLK
  5
793
  8
0
  0
BLOCK
  8
0
  2
*U47
 70
     1
 10
0.0
 20
0.0
 30
0.0
  3
*U47
  1

  0
TEXT
  5
795
  8
DIMENSION__ISO_
 10
-0.3098948803388227
 20
211.9621719753644129
 30
0.0
 40
4.2333332697550432
  1
27.2 [1.070]
  7
MtXpl_Tahoma
  0
ENDBLK
  5
797
  8
0
  0
BLOCK
  8
0
  2
*U48
 70
     1
 10
0.0
 20
0.0
 30
0.0
  3
*U48
  1

  0
TEXT
  5
799
  8
DIMENSION__ISO_
 10
143.5329822132378013
 20
3.7322420202861188
 30
0.0
 40
4.2333332697550432
  1
91.4 [3.598]
  7
MtXpl_Tahoma
  0
ENDBLK
  5
79B
  8
0
  0
BLOCK
  8
0
  2
*U49
 70
     1
 10
0.0
 20
0.0
 30
0.0
  3
*U49
  1

  0
TEXT
  5
79D
  8
DIMENSION__ISO_
 10
141.7176811435678019
 20
257.4829471656858004
 30
0.0
 40
4.2333332697550432
  1
167.6 [6.598]
  7
MtXpl_Tahoma
  0
ENDBLK
  5
79F
  8
0
  0
BLOCK
  8
0
  2
*U50
 70
     1
 10
0.0
 20
0.0
 30
0.0
  3
*U50
  1

  0
TEXT
  5
7A1
  8
DIMENSION__ISO_
 10
271.0298251976743131
 20
119.5061719753642961
 30
0.0
 40
4.2333332697550432
  1
212.1 [8.350]
  7
MtXpl_Tahoma
  0
ENDBLK
  5
7A3
  8
0
  0
BLOCK
  8
0
  2
*U51
 70
     1
 10
0.0
 20
0.0
 30
0.0
  3
*U51
  1

  0
TEXT
  5
7A5
  8
DIMENSION__ISO_
 10
255.3215356575553869
 20
242.2355222552126008
 30
0.0
 40
4.2333332697550432
  1
38.1 [1.500]
  7
MtXpl_Tahoma
  0
ENDBLK
  5
7A7
  8
0
  0
BLOCK
  8
0
  2
*U52
 70
     1
 10
0.0
 20
0.0
 30
0.0
  3
*U52
  1

  0
TEXT
  5
7A9
  8
DIMENSION__ISO_
 10
160.580308174901603
 20
151.2105535549522131
 30
0.0
 40
4.2333332697550432
  1
R176.8 [R6.96]
  7
MtXpl_Tahoma
  0
ENDBLK
  5
7AB
  8
0
  0
BLOCK
  8
0
  2
*U53
 70
     1
 10
0.0
 20
0.0
 30
0.0
  3
*U53
  1

  0
TEXT
  5
7AD
  8
DIMENSION__ISO_
 10
134.8899410543153863
 20
95.2164899695456057
 30
0.0
 40
4.2333332697550432
  1
R195.1 [R7.68]
  7
MtXpl_Tahoma
  0
ENDBLK
  5
7AF
  8
0
  0
BLOCK
  8
0
  2
*U54
 70
     1
 10
0.0
 20
0.0
 30
0.0
  3
*U54
  1

  0
TEXT
  5
7B1
  8
DIMENSION__ISO_
 10
131.2387679435202017
 20
74.4385658735537987
 30
0.0
 40
4.2333332697550432
  1
R209.8 [R8.26]
  7
MtXpl_Tahoma
  0
ENDBLK
  5
7B3
  8
0
  0
BLOCK
  8
0
  2
*U55
 70
     1
 10
0.0
 20
0.0
 30
0.0
  3
*U55
  1

  0
TEXT
  5
7B5
  8
DIMENSION__ISO_
 10
213.556179179980802
 20
157.0377985646622108
 30
0.0
 40
4.1666999999999987
  1
R6.4 [R0.25] TYP
  7
MtXpl_Tahoma
  0
ENDBLK
  5
7B7
  8
0
  0
BLOCK
  8
0
  2
*U56
 70
     1
 10
0.0
 20
0.0
 30
0.0
  3
*U56
  1

  0
TEXT
  5
7B9
  8
DIMENSION__ISO_
 10
143.8444602069085079
 20
122.7704018308908047
 30
0.0
 40
4.2333332697550432
  1
R184.9 [R7.28]
  7
MtXpl_Tahoma
  0
ENDBLK
  5
7BB
  8
0
  0
BLOCK
  8
0
  2
*U57
 70
     1
 10
0.0
 20
0.0
 30
0.0
  3
*U57
  1

  0
TEXT
  5
7BD
  8
DIMENSION__ISO_
 10
178.9854006031023061
 20
57.5953625941624878
 30
0.0
 40
4.2333332697550432
  1
45°
  7
MtXpl_Tahoma
  0
ENDBLK
  5
7BF
  8
0
  0
BLOCK
  8
0
  2
*U58
 70
     1
 10
0.0
 20
0.0
 30
0.0
  3
*U58
  1

  0
TEXT
  5
7C1
  8
DIMENSION__ISO_
 10
-0.3312179156129417
 20
171.2884365367478097
 30
0.0
 40
4.2333332697550432
  1
54.2 [2.132]
  7
MtXpl_Tahoma
  0
ENDBLK
  5
7C3
  8
0
  0
ENDSEC
  0
SECTION
  2
ENTITIES
  0
CIRCLE
  5
4D5
  8
VISIBLE__ISO_
 10
16.9307867332349886
 20
45.7980962840487322
 30
0.0
 40
3.2999999999999989
  0
ARC
  5
4D6
  8
VISIBLE__ISO_
 10
171.6807867332350952
 20
-84.9544328387181764
 30
0.0
 40
176.7839999999999918
 50
80.0161653205989154
 51
80.6980196085493588
  0
CIRCLE
  5
4D7
  8
VISIBLE__ISO_
 10
80.2807867332350185
 20
99.9575671612818439
 30
0.0
 40
3.2999999999999989
  0
CIRCLE
  5
4D8
  8
VISIBLE__ISO_
 10
171.6807867332350952
 20
99.9575671612818439
 30
0.0
 40
3.2999999999999989
  0
CIRCLE
  5
4D9
  8
VISIBLE__ISO_
 10
40.9282576104681226
 20
45.7980962840487322
 30
0.0
 40
3.2999999999999989
  0
POLYLINE
  5
4DA
  8
VISIBLE__ISO_
 66
     1
 10
0.0
 20
0.0
 30
0.0
  0
VERTEX
  5
7E6
  8
VISIBLE__ISO_
 10
7.981462952089994
 20
46.2715166133466411
 30
0.0
  0
VERTEX
  5
7E7
  8
VISIBLE__ISO_
 10
-5.7923284144471827
 20
46.2715166133466411
 30
0.0
  0
VERTEX
  5
7E8
  8
VISIBLE__ISO_
 10
-1.9243932882000081
 20
4.378628570604632
 30
0.0
  0
VERTEX
  5
7E9
  8
VISIBLE__ISO_
 10
6.5807867332351293
 20
17.0966856460883605
 30
0.0
  0
VERTEX
  5
7EA
  8
VISIBLE__ISO_
 10
6.5807867332351293
 20
17.0966856460883605
 30
0.0
 42
-0.1438109255953796
  0
VERTEX
  5
7EB
  8
VISIBLE__ISO_
 10
7.5892658718623451
 20
20.5304379504223995
 30
0.0
 42
-0.2947363474104848
  0
VERTEX
  5
7EC
  8
VISIBLE__ISO_
 10
200.2557867332351123
 20
108.013322392563893
 30
0.0
 42
-0.0090760744684372
  0
VERTEX
  5
7ED
  8
VISIBLE__ISO_
 10
207.240786733235808
 20
106.8490384124558972
 30
0.0
  0
VERTEX
  5
7EE
  8
VISIBLE__ISO_
 10
216.5803899254686939
 20
105.117493684149693
 30
0.0
  0
VERTEX
  5
7EF
  8
VISIBLE__ISO_
 10
216.5803899254686939
 20
127.1455671612818037
 30
0.0
  0
VERTEX
  5
7F0
  8
VISIBLE__ISO_
 10
203.4307867332350952
 20
127.1455671612819032
 30
0.0
  0
VERTEX
  5
7F1
  8
VISIBLE__ISO_
 10
48.5307867332350114
 20
127.1455671612819032
 30
0.0
 42
0.4142135623730951
  0
VERTEX
  5
7F2
  8
VISIBLE__ISO_
 10
42.1807867332349886
 20
120.7955671612816957
 30
0.0
  0
VERTEX
  5
7F3
  8
VISIBLE__ISO_
 10
42.1807867332349886
 20
83.1744737062301454
 30
0.0
 42
-0.2265585805004941
  0
VERTEX
  5
7F4
  8
VISIBLE__ISO_
 10
39.8216798002162307
 20
78.2353166396932238
 30
0.0
 42
0.0539267377208542
  0
VERTEX
  5
7F5
  8
VISIBLE__ISO_
 10
7.9760426633220334
 20
46.2647547254648472
 30
0.0
  0
SEQEND
  5
7F6
  8
VISIBLE__ISO_
  0
POLYLINE
  5
4DB
  8
0
 66
     1
 10
0.0
 20
0.0
 30
0.0
  0
VERTEX
  5
7F7
  8
0
 10
202.3298852075764103
 20
89.1524751767599071
 30
0.0
 42
0.4662217892366812
  0
VERTEX
  5
7F8
  8
0
 10
209.7807867332350895
 20
95.4063152635227567
 30
0.0
  0
VERTEX
  5
7F9
  8
0
 10
209.7807867332350895
 20
120.7955671612817952
 30
0.0
 42
0.2360679774997904
  0
VERTEX
  5
7FA
  8
0
 10
207.2407867332350122
 20
125.8755671612817935
 30
0.0
 42
0.1622776601683699
  0
VERTEX
  5
7FB
  8
0
 10
203.4307867332350099
 20
127.1455671612818037
 30
0.0
  0
VERTEX
  5
7FC
  8
0
 10
48.5307867332350114
 20
127.1455671612819032
 30
0.0
 42
0.4142135623730935
  0
VERTEX
  5
7FD
  8
0
 10
42.1807867332349886
 20
120.7955671612816957
 30
0.0
  0
VERTEX
  5
7FE
  8
0
 10
42.1807867332349886
 20
83.1744737062293211
 30
0.0
 42
-0.2265585805004241
  0
VERTEX
  5
7FF
  8
0
 10
39.821679800215577
 20
78.2353166396927975
 30
0.0
 42
0.0539267377208494
  0
VERTEX
  5
800
  8
0
 10
7.9760426633217492
 20
46.2647547254647122
 30
0.0
 42
0.1705481595295356
  0
VERTEX
  5
801
  8
0
 10
6.5807867332350289
 20
42.293229678123339
 30
0.0
  0
VERTEX
  5
802
  8
0
 10
6.5807867332350014
 20
17.0966856460883605
 30
0.0
  0
VERTEX
  5
803
  8
0
 10
6.5807867332350014
 20
6.3500000000000218
 30
0.0
 42
0.7679844613883261
  0
VERTEX
  5
804
  8
0
 10
18.4352943615290386
 20
3.1841042705021181
 30
0.0
 42
-0.312407529572508
  0
VERTEX
  5
805
  8
0
 10
200.2557867332340891
 20
89.5048805584175966
 30
0.0
  0
SEQEND
  5
806
  8
0
  0
ENDSEC
  0
EOF
