**ABCDEFGHIJKLMNOPQRSTUVWXYZabcdefghijklmnopqrstuvwxyz**************************
**PARASOLID !"#$%&'()*+,-./:;<=>?@[\]^_`{|}~0123456789**************************
**PART1;
MC=AMD64;
MC_MODEL=Intel64 Family 6 Model 183 Stepping 1, GenuineIntel;
MC_ID=unknown;
OS=Windows_NT;
OS_RELEASE=unknown;
FRU=Parasolid Version 34.1, build 254,  2-10-2023;
APPL=SOLIDWORKS 2023-2023281;
SITE=;
USER=unknown;
FORMAT=text;
GUISE=transmit;
KEY=110323.04 APOIO DE CORRENTE MENOR JD;
FILE=110323.04 APOIO DE CORRENTE MENOR JD.x_t;
DATE=Wed Apr 24 10:34:13 2024;
**PART2;
SCH=SCH_3401254_34101;
USFLD_SIZE=0;
**PART3;
**END_OF_HEADER*****************************************************************
T51 : TRANSMIT FILE created by modeller version 340125423 SCH_3401254_34101_1300
6231 0 12 36 CCCI7 lattice222 0 CCCI4 mesh1006 0 I8 polyline1008 0 CCCCCCCDI5 ow
ner1040 0 CCCI16 boundary_lattice222 0 CCCI13 boundary_mesh1006 0 I17 boundary_p
olyline1008 0 CCCA16 index_map_offset0 0 1 dA9 index_map82 0 A17 node_id_index_m
ap82 0 A20 schema_embedding_map82 0 A5 child12 0 A14 lowest_node_id0 0 1 dA16 me
sh_offset_data206 0 Z1 2468 2 3 0 0 0 0 0 0 0 1e3 1e-8 0 4 0 1 0 1 1 5 0 6 7 8 0
 0 9 10 11 0 0 0 0 0 0 0 81 255 2 2 2414 12 1 13 0 0 0 0 14 70 11 CI9 list_type0
 0 1 uI10 notransmit0 0 1 lCCCDCCDI12 finger_index0 0 1 dI12 finger_block1012 0
 CZ3 0 4 T1 0 0 12 20 1 15 15 13 255 5 174 0 1 0 16 0 0 17 0 50 255 6 2154 18 19
 20 0 0 -.024 -.027 .178 -.707106781186547 .707106781186548 0 0 0 -1 30 255 7 20
47 0 10 21 0 0 +.024 -.027 .178 0 0 -1 29 255 8 2024 0 11 22 0 .024 -.027 -.108
 19 9 CCCCCCI5 frame230 0 CA5 owner12 0 Z9 52 0 1 17 0 23 0 V0 16 255 10 2045 0
 ?24 0 25 7 0 0 1 18 255 11 2022 0 26 0 27 8 ?1 17 255 26 0 28 29 30 11 31 32 0
 33 +18 27 2007 0 34 11 35 22 ?1 17 34 0 36 37 38 27 39 40 0 24 -18 35 1988 0 41
 27 42 43 ?1 29 22 2009 0 27 43 8 .024 -.027 -.2 29 43 1990 0 35 44 22 -.021 -.0
3 -.2 29 44 1987 0 42 45 43 .021 -.03 -.2 18 42 1985 0 39 35 46 44 ?1 29 45 1984
 0 46 47 44 -.021 -.03 -.108 18 46 1982 0 48 42 49 45 ?1 29 47 1981 0 49 50 45 .
021 -.03 -.108 18 49 1979 0 51 46 52 47 ?1 29 50 1966 0 52 53 47 .024 -.027 .2 1
8 52 1964 0 54 49 55 50 ?1 29 53 1947 0 55 56 50 -.024 -.027 -.108 18 55 1945 0
 57 52 58 53 ?1 29 56 1944 0 58 59 53 -.024 -.027 -.2 18 58 1942 0 60 55 61 56 ?
1 29 59 1941 0 61 62 56 -.024 -.027 .2 18 61 1939 0 63 58 64 59 ?1 29 62 1926 0
 64 65 59 -.024 -.027 -.1 18 64 1924 0 66 61 67 62 ?1 29 65 1923 0 67 68 62 .024
 -.027 -.1 18 67 1921 0 69 64 70 65 ?1 29 68 1904 0 70 71 65 .021 -.03 .2 18 70
 1902 0 72 67 73 68 ?1 29 71 1901 0 73 74 68 -.021 -.03 .2 18 73 1899 0 75 70 76
 71 ?1 29 74 1898 0 76 77 71 .021 -.03 -.1 18 76 1896 0 78 73 79 74 ?1 29 77 189
5 0 79 80 74 -.021 -.03 -.1 18 79 1893 0 81 76 82 77 ?1 29 80 1454 0 82 83 77 .0
19 -.00272378936410881 .2 18 82 1452 0 84 79 85 80 ?1 29 83 1448 0 85 86 80 -.02
4 -.00272378936410881 .2 18 85 1446 0 87 82 88 83 ?1 29 86 1431 0 88 89 83 -.019
 -.00272378936410881 -.2 18 88 1429 0 90 85 91 86 ?1 29 89 1425 0 91 92 86 .024
 -.002723789364108805 -.2 18 91 1423 0 93 88 94 89 ?1 29 92 1062 0 94 95 89 -.01
9 -.00881634903542328 .2 18 94 1060 0 96 91 97 92 ?1 29 95 1058 0 97 98 92 .019
 -.00881634903542328 .2 18 97 1056 0 99 94 100 95 ?1 29 98 1039 0 100 101 95 -.0
19 0 -.15 18 100 1037 0 102 97 103 98 ?1 29 101 1036 0 103 104 98 -.019 0 .15 18
 103 1034 0 105 100 106 101 ?1 29 104 1033 0 106 107 101 .019 0 -.15 18 106 1031
 0 108 103 109 104 ?1 29 107 1030 0 109 110 104 .019 0 .15 18 109 1028 0 111 106
 112 107 ?1 29 110 1020 0 112 113 107 .019 -.00881634903542328 -.2 18 112 1018 0
 114 109 115 110 ?1 29 113 1016 0 115 116 110 -.019 -.00881634903542328 -.2 18 1
15 1014 0 117 112 118 113 ?1 29 116 976 0 118 119 113 -.024 -.024 -.1 18 118 901
 0 120 115 121 116 ?1 29 119 978 0 121 122 116 -.024 -.024 -.108 18 121 903 0 12
3 118 124 119 ?1 29 122 980 0 124 125 119 .024 -.024 -.1 18 124 899 0 126 121 12
7 122 ?1 29 125 981 0 127 128 122 .024 -.024 -.108 18 127 900 0 129 124 130 125
 ?1 29 128 1805 0 130 131 125 -.024 .006 .1505249319811545 18 130 1626 0 132 127
 133 128 ?1 29 131 1806 0 133 134 128 -.019 .006 .1505249319811545 18 133 1616 0
 135 130 136 131 ?1 29 134 1807 0 136 137 131 -.019 -.002723789364108815 .2 18 1
36 1617 0 138 133 139 134 ?1 29 137 1809 0 139 140 134 .019 .006 .15052493198115
45 18 139 1628 0 141 136 142 137 ?1 29 140 1811 0 142 143 137 .024 .006 .1505249
319811545 18 142 1618 0 144 139 145 140 ?1 29 143 1812 0 145 146 140 .024 -.0027
2378936410881 .2 18 145 1630 0 147 142 148 143 ?1 29 146 1816 0 148 149 143 .019
 .006 -.1505249319811545 18 148 1706 0 150 145 151 146 ?1 29 149 1817 0 151 152
 146 .019 -.002723789364108805 -.2 18 151 1707 0 153 148 154 149 ?1 29 152 1818
 0 154 155 149 -.024 .006 -.1505249319811545 18 154 1709 0 156 151 157 152 ?1 29
 155 1819 0 157 158 152 -.019 .006 -.1505249319811545 18 157 1721 0 159 154 160
 155 ?1 29 158 1820 0 160 161 155 -.024 -.00272378936410881 -.2 18 160 1710 0 16
2 157 163 158 ?1 29 161 1823 0 163 0 158 .024 .006 -.1505249319811545 18 163 171
9 0 164 160 0 161 ?1 17 164 0 165 93 150 163 166 167 0 168 -15 255 165 1726 0 93
 169 0 17 93 0 165 153 164 91 168 170 0 171 +17 150 0 165 164 153 148 172 173 0
 166 -17 166 0 174 175 176 148 164 167 0 177 +16 167 1667 0 ?166 178 173 179 0 0
 1 17 168 0 180 181 182 163 93 170 0 176 -15 180 152 0 33 183 0 17 181 0 180 184
 168 142 176 185 0 0 -17 182 0 180 168 24 91 186 187 0 0 -16 170 1672 0 ?93 188
 189 190 0 0 1 17 176 0 174 166 191 163 181 185 0 0 +15 174 150 0 175 192 0 17 1
91 0 174 176 175 142 141 193 0 181 +16 185 1527 0 ?176 194 195 196 0 0 1 16 194
 806 0 ?33 197 185 198 0 0 1 16 195 1507 0 ?177 185 199 200 0 0 1 30 196 171 0 1
85 200 198 0 +.024 .006 .178 0 0 -1 30 200 170 0 195 201 196 0 +.019 .006 .178 0
 0 -1 30 198 808 0 194 196 202 0 +.024 .006 -.108 963735264431559e-31 -1 0 30 20
2 1021 0 197 198 203 0 +.019 -.00881634903542328 -.2 1 0 0 16 197 1019 0 ?204 20
5 194 202 0 0 1 30 203 1042 0 205 202 206 0 +.019 0 .15 1 0 0 16 205 1040 0 ?111
 207 197 203 0 0 1 30 206 1050 0 207 203 208 0 +-.019 0 -.15 -1 0 0 16 207 1048
 0 ?102 209 205 206 0 0 1 30 208 1063 0 209 206 210 0 +-.019 -.00881634903542328
 .2 -1 0 0 16 209 1061 0 ?211 212 207 208 0 0 1 30 210 1330 0 212 208 213 0 +.01
9 .0560913035054085 .1681095898088895 0 .173648177666927 .984807753012209 16 212
 1070 0 ?108 214 209 210 0 0 1 30 213 1331 0 214 210 215 0 +-.019 .0560913035054
085 .1681095898088895 0 -.173648177666927 -.984807753012209 16 214 1077 0 ?216 2
17 212 213 0 0 1 30 215 1332 0 217 213 218 0 +-.019 -.00478828200655947 .1771556
966910025 0 .173648177666927 -.984807753012209 16 217 1084 0 ?105 219 214 215 0
 0 1 30 218 1333 0 219 215 220 0 +.019 -.00478828200655947 .1771556966910025 0 -
.173648177666927 .984807753012209 16 219 1091 0 ?221 222 217 218 0 0 1 30 220 14
34 0 222 218 223 0 +262501186307527e-33 -.00272378936410881 -.2 -1 -963735264431
559e-31 0 16 222 1432 0 ?224 225 219 220 225 225 1 30 223 1457 0 226 220 227 0 +
2625011863075275e-34 -.00272378936410881 .2 1 963735264431559e-31 0 16 226 1455
 0 ?228 229 225 223 229 229 1 30 227 1907 0 230 223 231 0 +.021 -.03 .178 0 0 1
 16 230 1905 0 ?72 232 229 227 0 0 1 30 231 1915 0 232 227 233 0 +-.021 -.03 .17
8 0 0 -1 16 232 1913 0 ?234 235 230 231 0 0 1 30 233 1929 0 235 231 236 0 -.024
 -.027 -.1 .707106781186548 .707106781186547 2975734994483195e-31 16 235 1927 0
 ?78 237 232 233 0 0 1 30 236 1935 0 237 233 238 0 --.021 -.03 -.1 .707106781186
549 -.707106781186546 -2975734994483195e-31 16 237 1933 0 ?66 239 235 236 0 0 1
 30 238 1950 0 239 236 240 0 +-.024 -.027 .178 0 0 1 16 239 1948 0 ?57 241 237 2
38 0 0 1 30 240 1958 0 241 238 242 0 +-.024 -.027 .178 0 0 1 16 241 1956 0 ?63 2
43 239 240 0 0 1 30 242 1969 0 243 240 244 0 -.0255 -.0255 .2 -.707106781186548
 -.707106781186547 0 16 243 1967 0 ?54 245 241 242 0 0 1 30 244 1975 0 245 242 2
46 0 --.0255 -.0255 .2 -.707106781186549 .707106781186546 0 16 245 1973 0 ?75 24
7 243 244 0 0 1 30 246 1993 0 247 244 248 0 +.021 -.03 .178 0 0 1 16 247 1991 0
 ?51 249 245 246 0 0 1 30 248 2001 0 249 246 250 0 +-.021 -.03 .178 0 0 -1 16 24
9 1999 0 ?251 40 247 248 0 0 1 30 250 2012 0 40 248 252 0 -.0255 -.0255 -.2 .707
106781186548 .707106781186547 0 16 40 2010 0 ?39 253 249 250 0 0 1 30 252 2018 0
 253 250 254 0 --.0255 -.0255 -.2 .707106781186549 -.707106781186546 0 16 253 20
16 0 ?60 32 40 252 0 0 1 30 254 2027 0 32 252 255 0 -.024 -.027 -.108 -.70710678
1186548 -.707106781186547 0 16 32 2025 0 ?26 256 253 254 0 0 1 30 255 2033 0 256
 254 21 0 --.021 -.03 -.108 -.707106781186549 .707106781186546 0 16 256 2031 0 ?
48 25 32 255 0 0 1 30 21 2039 0 25 255 7 0 +.024 -.027 .178 0 0 -1 16 25 2037 0
 ?257 10 256 21 0 0 1 17 257 0 180 258 259 67 260 25 0 261 +17 258 0 180 262 257
 124 261 263 0 0 -17 259 0 180 257 184 52 147 264 0 260 -17 260 0 265 266 69 52
 257 25 0 0 -17 261 0 267 78 126 67 258 263 0 0 +15 267 917 0 268 269 0 17 78 0
 267 268 261 76 69 235 0 270 +17 126 0 267 261 120 124 271 272 0 273 +16 263 855
 0 ?261 274 275 276 0 0 1 16 274 862 0 ?273 277 263 278 0 0 1 16 275 1578 0 ?279
 263 280 281 0 0 1 30 276 969 0 263 281 278 0 +.024 -.024 -.1 0 -1 -420832478722
6365e-31 30 281 1770 0 275 282 276 0 +-.019 .006 .1505249319811545 1 0 546561428
409527e-30 30 278 966 0 274 276 283 0 +.024 -.024 -.1 0 0 1 30 283 965 0 272 278
 284 0 +-.065 -.024 -.1 1 913012355777267e-31 0 16 272 868 0 ?126 285 277 283 0
 0 1 30 284 964 0 277 283 286 0 +-.065 -.024 -.108 1 913012355777267e-31 0 16 27
7 871 0 ?129 272 274 284 0 0 1 30 286 961 0 285 284 287 0 +.024 -.03 -.108 -1 0
 0 16 285 1980 0 ?288 289 272 286 0 0 1 30 287 960 0 289 286 290 0 +-.024 .006 -
.108 963735264431559e-31 1 0 16 289 1946 0 ?123 291 285 287 0 0 1 30 290 959 0 2
91 287 292 0 +-.024 -.024 .178 0 0 1 16 291 867 0 ?293 294 289 290 0 0 1 30 292
 958 0 294 290 295 0 +.024 -.03 -.1 1 0 -384225252786141e-46 16 294 1894 0 ?270
 296 291 292 0 0 1 30 295 957 0 296 292 297 0 +-.024 .00600000000000012 -.1 -963
735264431559e-31 -1 -4208324787226365e-31 16 296 865 0 ?298 299 294 295 0 0 1 30
 297 727 0 299 295 300 0 +.024 -.03 -.2 -1 0 0 16 299 1986 0 ?301 302 296 297 0
 0 1 30 300 726 0 302 297 303 0 +-.024 -.03 -.2 963735264431559e-31 1 0 16 302 1
943 0 ?162 304 299 300 0 0 1 30 303 724 0 304 300 305 0 +-.019 .006 -.2 0 -1 0 1
6 304 1430 0 ?117 306 302 303 0 0 1 30 305 722 0 306 303 307 0 +.019 0 -.2 0 1 0
 16 306 629 0 ?308 187 304 305 0 0 1 30 307 720 0 187 305 309 0 +.024 .006 -.2 9
63735264431559e-31 -1 0 16 187 1424 0 ?186 310 306 307 0 0 1 30 309 506 0 310 30
7 311 0 +-.024 .006 .2 -963735264431559e-31 -1 0 16 310 1447 0 ?312 313 187 309
 0 0 1 30 311 505 0 313 309 314 0 +-.024 -.03 .2 1 0 0 16 313 1900 0 ?315 264 31
0 311 0 0 1 30 314 504 0 264 311 316 0 +.024 -.03 .2 -963735264431559e-31 1 0 16
 264 1965 0 ?147 317 313 314 0 0 1 30 316 502 0 317 314 318 0 +.019 .006 .2 0 -1
 0 16 317 1453 0 ?99 319 264 316 0 0 1 30 318 500 0 319 316 320 0 +-.019 0 .2 0
 1 0 16 319 415 0 ?321 322 317 318 0 0 1 31 255 320 335 0 323 318 324 0 +.024 -.
015 .148 1 123908819712629e-30 0 -123908819712629e-30 1 0 .008 16 323 278 0 ?325
 326 322 320 0 0 1 31 324 333 0 322 320 327 0 +.024 -.015 -.148 1 12390881971262
9e-30 0 -123908819712629e-30 1 0 .008 16 322 302 0 ?328 323 319 324 0 0 1 31 327
 332 0 326 324 329 0 +-.024 -.015 -.148 1 -963735264431559e-31 0 963735264431559
e-31 1 0 .008 16 326 298 0 ?330 331 323 327 0 0 1 31 329 331 0 331 327 332 0 +-.
024 -.015 .148 1 -963735264431559e-31 0 963735264431559e-31 1 0 .008 16 331 274
 0 ?333 334 326 329 0 0 1 30 332 166 0 334 329 335 0 +-.024 .006 .178 0 0 -1 16
 334 1473 0 ?336 337 331 332 0 0 1 30 335 167 0 337 332 338 0 +-.019 .006 .178 0
 0 -1 16 337 1467 0 ?339 340 334 335 0 0 1 30 338 168 0 340 335 201 0 +-.019 0 .
178 0 0 -1 16 340 1035 0 ?341 199 337 338 0 0 1 30 201 169 0 199 338 200 0 +.019
 0 .178 0 0 -1 16 199 1029 0 ?342 195 340 201 0 0 1 17 342 0 343 102 111 106 344
 199 0 345 +15 343 146 0 342 346 0 17 102 0 343 347 342 100 345 207 0 341 +17 11
1 0 343 342 347 109 348 205 0 344 +17 344 0 349 221 108 109 342 199 0 350 -17 34
5 0 351 352 353 106 102 207 0 0 -15 351 1356 0 353 354 0 17 352 0 351 355 345 11
2 108 212 0 204 -17 353 0 351 345 355 100 216 214 0 0 -17 355 0 351 353 352 115
 204 197 0 0 -17 216 0 356 357 341 115 353 214 0 355 +15 356 144 0 358 359 0 17
 357 0 356 360 216 88 117 304 0 0 -17 341 0 356 216 105 100 347 340 0 353 +17 10
5 0 356 341 96 103 361 217 0 347 +17 347 0 343 111 102 103 341 340 0 348 -17 348
 0 362 361 350 103 111 205 0 0 -15 362 1378 0 350 363 0 17 361 0 362 364 348 94
 105 217 0 211 -17 350 0 362 348 364 109 221 219 0 0 -17 364 0 362 350 361 97 21
1 209 0 0 -17 221 0 349 365 344 97 350 219 0 364 +15 349 148 0 365 366 0 17 365
 0 349 367 221 82 99 317 0 0 -17 367 0 349 177 365 139 84 178 0 175 +17 99 0 368
 211 369 97 365 317 0 221 +15 368 1462 0 312 370 0 17 211 0 368 321 99 94 364 20
9 0 0 +17 369 0 368 99 147 82 228 226 0 365 -17 147 0 368 369 54 145 259 264 0 2
28 +17 228 0 371 144 84 145 369 226 0 184 +15 371 1640 0 84 372 0 17 144 0 371 1
41 228 142 184 188 0 191 +17 84 0 371 228 141 82 367 178 0 369 -17 184 0 180 259
 181 145 144 188 0 0 -16 188 1583 0 ?144 373 170 374 0 0 1 16 373 1669 0 ?360 37
5 188 376 0 0 1 30 374 1797 0 188 377 190 0 +.024 -.00290750251735002 .201041889
0660015 0 .173648177666927 -.984807753012209 31 377 2245 0 189 378 374 0 +-.024
 -.015 0 1 -963735264431559e-31 0 963735264431559e-31 1 0 .008 30 190 1788 0 170
 374 376 0 +.024 -.00290750251735002 -.2010418890660015 0 -.173648177666927 -.98
4807753012209 30 376 1781 0 373 190 379 0 +-.019 .0620001500234817 .167067700742
888 0 .173648177666927 .984807753012209 30 379 1780 0 375 376 380 0 +-.024 .0621
81072161124 .168093761172865 -1673508724218945e-32 -.173648177666927 -.984807753
012209 16 375 1671 0 ?381 382 373 379 0 0 1 30 380 1779 0 382 379 383 0 +-.019 .
006 -.1505249319811545 -1 0 546561428409527e-30 16 382 1670 0 ?384 173 375 380 0
 0 1 30 383 1778 0 173 380 179 0 +.019 .0620001500234817 .167067700742888 0 -.17
3648177666927 -.984807753012209 16 173 1668 0 ?172 167 382 383 0 0 1 30 179 1777
 0 167 383 385 0 +.019 .006 -.1505249319811545 -1 0 546561428409527e-30 30 385 1
774 0 178 179 386 0 +.019 .001120564511513786 .1781975857570045 0 .1736481776669
27 -.984807753012209 16 178 1580 0 ?367 193 167 385 0 0 1 30 386 1773 0 193 385
 387 0 +.019 .006 .1505249319811545 1 0 546561428409527e-30 16 193 1581 0 ?191 3
88 178 386 0 0 1 30 387 1772 0 388 386 282 0 +-.019 .001120564511513782 .1781975
857570045 0 -.173648177666927 .984807753012209 16 388 1579 0 ?389 280 193 387 0
 0 1 30 282 1771 0 280 387 281 0 +-.024 .00130148664915605 .1771715253270275 167
3508724218945e-32 .173648177666927 -.984807753012209 16 280 1577 0 ?390 275 388
 282 0 0 1 17 390 0 391 336 392 130 87 280 0 393 +15 391 156 0 298 394 0 17 336
 0 391 381 390 154 393 334 0 0 +17 392 0 391 390 63 85 312 310 0 0 -17 87 0 395
 138 132 85 390 280 0 396 -17 393 0 397 279 384 130 336 334 0 0 -15 397 142 0 39
3 398 0 17 279 0 397 339 393 133 132 275 0 358 +17 384 0 397 393 339 154 159 382
 0 336 +17 339 0 397 384 279 157 358 337 0 0 +17 159 0 399 90 156 157 384 382 0
 360 -15 399 1730 0 90 400 0 17 90 0 399 224 159 88 360 373 0 401 -17 156 0 399
 159 224 154 381 375 0 384 -17 360 0 356 358 357 157 90 373 0 339 +17 358 0 356
 389 360 133 339 337 0 0 -17 389 0 356 96 358 136 135 388 0 321 +17 96 0 356 105
 389 94 321 319 0 361 -17 135 0 395 132 138 133 389 388 0 279 -17 321 0 368 396
 211 136 96 319 0 0 +17 396 0 368 312 321 85 138 229 0 392 -17 312 0 368 75 396
 61 392 310 0 402 +17 138 0 395 135 87 136 396 229 0 389 +16 229 1461 0 ?138 230
 226 223 226 226 1 15 395 1636 0 87 403 0 14 255 403 1633 404 ?405 372 395 5 406
 -372 372 405 372 23 81 1 404 2416 407 403 408 0 0 409 410 14 405 2076 409 ?411
 403 412 5 413 +0 0 411 403 23 14 372 1637 414 ?403 169 371 5 406 -403 403 403 1
69 23 50 406 1766 0 403 415 416 0 +-.084 -.002907502517350035 .2010418890660015
 949093960263471e-31 -.984807753012209 -.173648177666927 0 .173648177666927 -.98
4807753012209 13 23 53 0 0 0 0 0 0 9 16 14 16 829 417 ?394 0 418 5 419 -420 420
 394 0 23 81 1 417 2422 407 16 421 0 414 422 423 14 394 157 422 ?420 16 424 5 42
5 -0 0 420 16 23 15 418 828 0 426 16 0 50 419 164 0 420 427 425 0 +.024 -.03 .17
8 0 1 0 0 0 1 14 420 155 428 ?183 394 429 5 419 -16 16 183 394 23 81 1 428 2426
 407 420 430 0 422 431 432 14 183 153 431 ?192 420 433 5 427 -0 0 192 420 23 15
 429 154 0 288 420 0 17 288 0 429 251 51 46 30 285 0 434 +17 251 0 429 435 288 3
5 434 249 0 301 +17 51 0 429 288 435 49 38 247 0 30 +17 30 0 28 26 48 49 288 285
 0 31 -17 434 0 436 437 41 46 251 249 0 0 -15 436 2099 0 437 411 0 17 437 0 436
 438 434 55 48 256 0 0 -17 41 0 436 434 438 35 60 253 0 251 -17 438 0 436 41 437
 58 57 239 0 0 -17 60 0 439 162 301 58 41 253 0 440 +15 439 1439 0 301 441 0 17
 162 0 439 401 60 160 440 302 0 224 +17 301 0 439 60 39 35 435 299 0 0 +17 440 0
 391 57 381 58 162 302 0 438 -17 57 0 391 123 440 55 438 239 0 442 +17 381 0 391
 440 336 160 156 375 0 0 +17 123 0 391 293 57 121 442 289 0 443 +17 442 0 28 48
 444 55 123 289 0 437 -15 28 925 0 442 445 0 17 48 0 28 30 442 46 437 256 0 288
 +17 444 0 28 442 29 121 129 277 0 0 -17 29 0 28 444 26 127 33 194 0 262 -17 129
 0 446 273 443 127 444 277 0 29 +15 446 921 0 129 447 0 17 273 0 446 271 129 124
 262 274 0 258 +17 443 0 446 129 271 121 293 291 0 444 -17 271 0 446 443 273 118
 126 272 0 293 -17 293 0 391 298 123 118 443 291 0 0 +17 298 0 391 63 293 64 120
 296 0 448 +17 63 0 391 392 298 61 448 241 0 312 +17 120 0 267 126 66 118 298 29
6 0 271 -17 448 0 412 81 402 64 63 241 0 0 -15 412 2077 0 402 405 0 17 81 0 412
 449 448 79 66 237 0 234 -17 402 0 412 448 449 61 75 245 0 0 -17 449 0 412 402 8
1 73 234 232 0 0 -17 75 0 368 315 312 73 402 245 0 426 +17 315 0 368 54 75 70 42
6 313 0 266 +17 426 0 418 234 72 73 315 313 0 449 -17 234 0 418 270 426 79 449 2
32 0 268 +17 72 0 418 426 270 70 450 230 0 315 +17 270 0 418 72 234 76 268 294 0
 450 +17 450 0 265 69 266 76 72 230 0 0 -15 265 2143 0 266 19 0 17 69 0 265 260
 450 67 78 235 0 257 -17 266 0 265 450 260 70 54 243 0 0 -17 54 0 368 147 315 52
 266 243 0 259 +14 19 2142 451 ?452 453 265 5 6 +0 0 452 453 23 81 1 451 2430 40
7 19 454 0 431 455 456 14 452 2224 455 ?0 19 457 5 415 -0 0 0 19 23 14 453 2120
 458 ?19 411 36 5 20 +0 0 19 411 23 81 1 458 2434 407 453 459 0 455 460 461 14 4
11 2098 460 ?453 405 436 5 462 +0 0 453 405 23 15 36 2121 0 31 453 0 50 20 2132
 463 453 462 6 0 -.024 -.027 .178 -.707106781186547 .707106781186548 0 0 0 -1 81
 2 463 2133 464 20 0 0 465 18 466 467 50 462 2110 465 411 413 20 0 --.021 -.03 .
178 .707106781186546 .707106781186549 0 0 0 -1 81 2 465 2111 464 462 0 0 468 463
 469 470 50 413 2088 468 405 471 462 0 --.021 -.03 .178 .707106781186546 .707106
781186549 0 0 0 -1 81 2 468 2089 464 413 0 0 472 465 473 474 50 471 1389 472 363
 475 413 0 +0 -.00881634903542328 .2 0 .984807753012209 .173648177666927 1 0 0 8
1 2 472 1390 464 471 0 0 476 468 477 478 14 363 1377 479 ?400 354 362 5 471 +0 0
 400 354 23 50 475 1367 476 354 425 471 0 +0 -.00881634903542328 -.2 0 .98480775
3012209 -.173648177666927 -1 0 0 81 2 476 1368 464 475 0 0 0 472 480 481 14 354
 1355 482 ?363 445 351 5 475 +0 0 363 445 23 50 425 165 0 394 419 475 0 +-.024 .
006 .178 1 -963735264431559e-31 0 963735264431559e-31 1 0 81 1 482 2440 407 354
 483 0 479 484 485 14 445 922 484 ?354 447 28 5 486 -0 0 354 447 23 81 1 484 244
2 407 445 487 0 482 488 489 14 447 918 488 ?445 269 446 5 490 -0 0 445 269 23 50
 486 952 0 445 490 491 0 +-.065 -.024 -.108 0 0 -1 -1 0 0 50 490 953 0 447 416 4
86 0 +-.065 -.024 -.1 -913012355777267e-31 1 0 -1 -913012355777267e-31 0 50 491
 950 0 269 486 492 0 +-.065 -.024 -.1 384225252786141e-46 -4208324787226365e-31
 1 0 -1 -4208324787226365e-31 14 269 914 493 ?447 441 267 5 491 -0 0 447 441 23
 50 492 703 0 441 491 494 0 +0 0 -.2 0 0 -1 -1 0 0 14 441 686 495 ?269 370 439 5
 492 +0 0 269 370 23 50 494 483 0 370 492 496 0 +0 0 .2 0 0 1 1 0 0 14 370 466 4
97 ?441 498 368 5 494 +0 0 441 498 23 51 255 496 328 0 498 494 499 0 +-.631 -.01
5 .148 1 123908819712629e-30 0 .008 -123908819712629e-30 1 0 14 498 281 500 ?370
 501 502 5 496 -0 0 370 501 23 51 499 325 0 501 496 503 0 +-.631 -.015 -.148 1 1
23908819712629e-30 0 .008 -123908819712629e-30 1 0 14 501 305 504 ?498 398 505 5
 499 -0 0 498 398 23 50 503 158 0 398 499 506 0 +-.019 .006 .178 0 -1 0 0 0 -1 1
4 398 143 507 ?501 359 397 5 503 -0 0 501 359 23 50 506 159 0 359 503 508 0 +-.0
19 0 .178 -1 0 0 0 0 1 14 359 145 509 ?398 346 356 5 506 -0 0 398 346 23 50 508
 160 0 346 506 510 0 +-.019 0 .178 0 -1 0 0 0 -1 14 346 147 511 ?359 366 343 5 5
08 -0 0 359 366 23 50 510 161 0 366 508 512 0 +.019 0 .178 1 0 0 0 0 -1 14 366 1
49 513 ?346 192 349 5 510 -0 0 346 192 23 50 512 162 0 192 510 427 0 +.019 .006
 .178 0 -1 0 0 0 -1 14 192 151 514 ?366 183 174 5 512 -0 0 366 183 23 50 427 163
 0 183 512 419 0 +.024 .006 .178 -1 -963735264431559e-31 0 963735264431559e-31 -
1 0 81 1 514 2464 407 192 515 0 513 516 517 80 7 CCCCCDI12 legal_owners0 16 1 lC
Z1 407 518 519 9000 1 1 1 1 1 1 1 1 0 FFFFTFTFFFFFFFFF1 81 3 515 2463 520 192 52
1 514 522 523 524 0 0 81 1 513 2462 407 366 522 0 511 514 525 81 1 516 2466 407
 400 523 0 514 526 527 82 255 1 517 -1797259075 14 400 1727 516 ?169 363 399 5 4
16 -169 169 169 363 23 81 3 523 2465 520 400 528 516 515 529 530 0 0 81 1 526 24
68 407 169 529 0 516 0 531 82 1 527 1896743101 14 169 1723 526 ?372 400 165 5 41
6 -400 400 372 400 23 81 3 529 2467 520 169 532 526 523 0 533 0 0 82 1 531 18979
88285 80 3 520 534 535 9000 0 0 0 0 3 5 0 0 0 FFFFTFFFFFFFFFFF1 1 1 81 1 532 230
6 536 169 0 529 528 537 538 82 6 533 0 1834553470 31102538 0 0 0 80 1 536 0 539
 8001 0 0 0 0 3 5 0 0 0 FFFFTFTFFFFFFFFF2 81 1 528 2305 536 400 0 523 540 532 54
1 81 1 537 2307 536 372 0 542 532 543 544 83 255 3 538 .219607843137255 .6862745
09803922 0 81 3 542 2419 520 372 537 414 545 421 546 0 0 81 1 543 2308 536 403 0
 408 537 547 548 83 3 544 .219607843137255 .686274509803922 0 81 3 408 2415 520
 403 543 404 0 545 549 0 0 81 1 547 2309 536 405 0 545 543 550 551 83 3 548 .219
607843137255 .686274509803922 0 81 3 545 2417 520 405 547 409 408 542 552 0 0 81
 1 550 2310 536 411 0 553 547 554 555 83 3 551 .219607843137255 .686274509803922
 0 81 3 553 2435 520 411 550 460 459 556 557 0 0 81 1 554 2311 536 453 0 459 550
 558 559 83 3 555 .219607843137255 .686274509803922 0 81 3 459 2433 520 453 554
 458 560 553 561 0 0 81 1 558 2312 536 19 0 454 554 562 563 83 3 559 .2196078431
37255 .686274509803922 0 81 3 454 2429 520 19 558 451 564 560 565 0 0 81 1 562 2
313 536 452 0 560 558 0 566 83 3 563 .219607843137255 .686274509803922 0 81 3 56
0 2431 520 452 562 455 454 459 567 0 0 83 3 566 .219607843137255 .68627450980392
2 0 81 1 455 2432 407 452 560 0 451 458 568 82 6 567 0 25675248 31102540 0 0 0 8
2 1 568 -591593266 81 3 564 2427 520 183 569 431 430 454 570 0 0 82 6 565 0 -662
393806 31102538 0 0 0 81 1 569 2290 536 183 0 564 571 521 572 81 1 431 2428 407
 183 564 0 428 451 573 81 3 430 2425 520 420 571 428 574 564 575 0 0 82 6 570 0
 25675248 31102540 0 0 0 81 1 571 2289 536 420 0 430 576 569 577 81 3 574 2423 5
20 394 576 422 421 430 578 0 0 82 6 575 0 -662393806 31102538 0 0 0 81 1 576 228
8 536 394 0 574 579 571 580 81 1 422 2424 407 394 574 0 417 428 581 81 3 421 242
1 520 16 579 417 542 574 582 0 0 82 6 578 0 25675248 31102540 0 0 0 81 1 579 228
7 536 16 0 421 0 576 583 82 6 582 0 -662393806 31102538 0 0 0 83 3 583 .21960784
3137255 .686274509803922 0 82 1 581 -1799683890 83 3 580 .219607843137255 .68627
4509803922 0 83 3 577 .219607843137255 .686274509803922 0 82 1 573 -1797127986 8
1 1 521 2291 536 192 0 515 569 584 585 83 3 572 .219607843137255 .68627450980392
2 0 81 1 584 2292 536 366 0 522 521 586 587 83 3 585 .219607843137255 .686274509
803922 0 81 3 522 2461 520 366 584 513 588 515 589 0 0 81 1 586 2293 536 346 0 5
88 584 590 591 83 3 587 .219607843137255 .686274509803922 0 81 3 588 2459 520 34
6 586 511 592 522 593 0 0 81 1 590 2294 536 359 0 592 586 594 595 83 3 591 .2196
07843137255 .686274509803922 0 81 3 592 2457 520 359 590 509 596 588 597 0 0 81
 1 594 2295 536 398 0 596 590 598 599 83 3 595 .219607843137255 .686274509803922
 0 81 3 596 2455 520 398 594 507 600 592 601 0 0 81 1 598 2296 536 501 0 600 594
 602 603 83 3 599 .219607843137255 .686274509803922 0 81 3 600 2453 520 501 598
 504 604 596 605 0 0 81 1 602 2297 536 498 0 604 598 606 607 83 3 603 .219607843
137255 .686274509803922 0 81 3 604 2451 520 498 602 500 608 600 609 0 0 81 1 606
 2298 536 370 0 608 602 610 611 83 3 607 .219607843137255 .686274509803922 0 81
 3 608 2449 520 370 606 497 612 604 613 0 0 81 1 610 2299 536 441 0 612 606 614
 615 83 3 611 .219607843137255 .686274509803922 0 81 3 612 2447 520 441 610 495
 616 608 617 0 0 81 1 614 2300 536 269 0 616 610 618 619 83 3 615 .2196078431372
55 .686274509803922 0 81 3 616 2445 520 269 614 493 620 612 621 0 0 81 1 618 230
1 536 447 0 620 614 622 623 83 3 619 .219607843137255 .686274509803922 0 81 3 62
0 2443 520 447 618 488 487 616 624 0 0 81 1 622 2302 536 445 0 487 618 625 626 8
3 3 623 .219607843137255 .686274509803922 0 81 3 487 2441 520 445 622 484 483 62
0 627 0 0 81 1 625 2303 536 354 0 483 622 540 628 83 3 626 .219607843137255 .686
274509803922 0 81 3 483 2439 520 354 625 482 556 487 629 0 0 81 1 540 2304 536 3
63 0 556 625 528 630 83 3 628 .219607843137255 .686274509803922 0 81 3 556 2437
 520 363 540 479 553 483 631 0 0 83 3 630 .219607843137255 .686274509803922 0 81
 1 479 2438 407 363 556 0 460 482 632 82 6 631 0 1834487169 31102538 0 0 0 81 1
 460 2436 407 411 553 0 458 479 633 82 1 632 1793654971 82 1 633 -1917452097 82
 6 629 0 1834487169 31102538 0 0 0 82 6 627 0 -662393806 31102538 0 0 0 81 1 488
 2444 407 447 620 0 484 493 634 82 6 624 0 1834476803 31102538 0 0 0 81 1 493 24
46 407 269 616 0 488 495 635 82 1 634 1780940986 81 1 495 2448 407 441 612 0 493
 497 636 82 1 635 1782317247 81 1 497 2450 407 370 608 0 495 500 637 82 1 636 17
28905407 81 1 500 2452 407 498 604 0 497 504 638 82 1 637 1666121919 81 1 504 24
54 407 501 600 0 500 507 639 82 1 638 1622343860 81 1 507 2456 407 398 596 0 504
 509 640 82 1 639 1621754036 81 1 509 2458 407 359 592 0 507 511 641 82 1 640 -1
797783363 81 1 511 2460 407 346 588 0 509 513 642 82 1 641 -1797652291 82 1 642
 -1797521221 82 6 621 0 -662393806 31102538 0 0 0 82 6 617 0 -662393806 31102538
 0 0 0 82 6 613 0 -662393806 31102538 0 0 0 82 6 609 0 1834310143 31102538 0 0 0
 82 6 605 0 1834310143 31102538 0 0 0 82 6 601 0 1834553470 31102538 0 0 0 82 6
 597 0 1834553470 31102538 0 0 0 82 6 593 0 1834487169 31102538 0 0 0 82 6 589 0
 1834553470 31102538 0 0 0 82 6 561 0 -662393806 31102538 0 0 0 82 6 557 0 -6623
93806 31102538 0 0 0 81 1 409 2418 407 405 545 0 404 414 643 82 6 552 0 -6623938
06 31102538 0 0 0 81 1 414 2420 407 372 542 0 409 417 644 82 1 643 -1919549249 8
2 1 644 1904345277 82 6 549 0 1834553470 31102538 0 0 0 82 6 546 0 1834553470 31
102538 0 0 0 83 3 541 .219607843137255 .686274509803922 0 79 255 15 539 SDL/TYSA
_COLOUR79 18 535 DOWNSTREAM_FACE_ID50 416 1763 0 169 406 490 0 +-.084 -.00290750
251735003 -.2010418890660015 949093960263471e-31 -.984807753012209 .173648177666
927 0 -.173648177666927 -.984807753012209 82 6 530 0 1834553470 31102538 0 0 0 8
2 1 525 -1797390147 82 6 524 0 1834553470 31102538 0 0 0 79 14 519 SWEntUnchange
d15 505 308 0 328 501 645 17 328 0 505 328 328 0 646 322 0 0 +15 645 309 0 647 5
01 0 17 647 0 645 647 647 0 330 326 0 0 -17 330 0 648 330 330 0 647 326 0 0 +15
 648 262 0 330 394 391 17 646 0 649 646 646 0 328 322 0 0 -15 649 248 0 646 183
 180 15 502 284 0 325 498 650 17 325 0 502 325 325 0 651 323 0 0 +15 650 285 0 6
52 498 0 17 652 0 650 652 652 0 333 331 0 0 -17 333 0 653 333 333 0 652 331 0 0
 +15 653 268 0 333 394 648 17 651 0 654 651 651 0 325 323 0 0 -15 654 255 0 651
 183 649 82 1 489 1780089023 82 1 485 1791557819 80 2 464 655 656 8044 0 0 0 0 3
 5 0 0 0 FFFFTFFFTTFFFFFF3 2 84 255 6 480 BACAAB83 4 481 0 .0507713305942884 .05
00000000000011 .00881634903542328 79 17 656 SDL/TYSA_BLEND_ID84 6 477 BACAAB83 4
 478 0 .0507713305942883 .0500000000000011 .00881634903542328 84 6 473 BAAAAB83
 3 474 0 .00424264068711929 .003 84 6 469 BAAAAB83 3 470 0 .00424264068711929 .0
03 81 2 18 2155 464 6 0 0 463 0 657 658 84 6 466 BAAAAB83 3 467 0 .0042426406871
1921 .002999999999999945 84 6 657 BAAAAB83 3 658 0 .00424264068711921 .002999999
999999945 17 31 0 36 38 37 49 26 32 0 0 -17 38 0 36 34 31 42 51 247 0 0 -17 37 0
 36 31 34 11 24 10 0 0 -17 24 0 180 182 33 27 37 10 0 186 +17 33 0 180 24 262 11
 29 194 0 37 +17 186 0 439 39 171 27 182 187 0 0 +17 39 0 439 301 186 42 34 40 0
 435 +17 171 0 439 186 308 91 153 225 0 182 -17 308 0 439 171 204 151 114 306 0
 0 +17 153 0 165 150 93 151 171 225 0 172 +16 225 1438 0 ?153 226 222 220 222 22
2 1 17 172 0 349 114 177 151 150 173 0 308 +17 114 0 349 108 172 112 308 306 0 3
52 -17 177 0 349 172 367 148 175 195 0 0 +17 175 0 174 191 166 139 177 195 0 0 -
17 108 0 349 344 114 106 352 212 0 342 +17 204 0 439 308 117 112 355 197 0 0 +17
 117 0 439 204 401 115 357 304 0 216 +17 401 0 439 117 162 88 224 222 0 357 -17
 224 0 399 156 90 160 401 222 0 381 +17 435 0 429 51 251 42 301 299 0 38 -17 262
 0 180 33 258 127 273 274 0 0 -82 1 461 -1915354945 15 457 2227 0 659 452 660 51
 415 2242 0 452 0 406 0 +-.065 -.015 0 1 963735264431559e-31 0 .008 -96373526443
1559e-31 1 0 17 659 0 457 659 659 0 661 662 0 0 +15 660 2228 0 663 452 0 17 663
 0 660 663 663 0 664 189 0 0 -17 664 0 424 664 664 0 663 189 0 0 +16 189 2217 0
 ?664 170 662 377 0 0 1 16 662 2221 0 ?659 189 0 378 0 0 1 31 378 2246 0 662 0 3
77 0 +.024 -.015 0 1 963735264431559e-31 0 -963735264431559e-31 1 0 .008 15 424
 2209 0 664 394 653 17 661 0 433 661 661 0 659 662 0 0 -15 433 2200 0 661 183 65
4 82 1 456 -1913257793 17 268 0 267 66 78 79 270 294 0 0 -17 66 0 267 120 268 64
 81 237 0 298 +82 1 432 -1799552833 82 1 423 1783431359 82 1 410 1906180285 17 1
32 0 395 87 135 130 279 275 0 390 -17 141 0 371 84 144 139 191 193 0 367 -19 17
 175 0 1 0 9 5 0 S0 74 4 CI16 index_map_offset0 0 1 dCCZ20 15 12 0 0 529 526 665
 666 667 18 668 669 670 13 562 2 0 0 0 0 0 0 0 0 81 2 665 769 671 1 0 666 0 0 0
 672 81 2 666 781 673 1 665 667 0 0 0 674 81 2 667 782 675 1 666 668 0 0 676 0 8
1 2 668 2186 677 1 667 669 0 0 0 0 81 1 669 2257 678 1 668 670 0 0 679 81 2 670
 2258 680 1 669 13 0 0 681 0 81 2 13 2286 682 1 670 2 0 0 0 683 80 2 682 684 685
 9000 0 0 0 0 3 5 0 0 0 FFTFFFFFFFFFFFFF9 1 82 1 683 1 79 24 685 BODY_IN_LIGHTWE
IGHT_PERM80 2 680 686 687 8004 0 0 0 0 3 5 0 0 0 FFTFFFFFFFFFFFFF2 3 83 1 681 95
2 79 16 687 SDL/TYSA_DENSITY80 1 678 688 689 9000 1 1 1 1 1 1 1 1 0 FFTFFFFFFFFF
FFFF1 82 1 679 1348540 79 10 689 BODY_MATCH80 2 677 690 691 9000 0 0 0 0 3 5 0 0
 0 FFTFFFFFFFFFFFFF9 1 79 16 691 BODY_RECIPE_200180 2 675 692 693 9000 0 0 0 0 3
 5 0 0 0 FFTFTTTFFTFFFFFF10 10 98 255 15 676 67 111 114 116 101 45 101 120 116 1
14 117 115 227 111 52 79 23 693 SWIMPLICITBODYNAME_ID_U80 2 673 694 695 9000 0 0
 0 0 3 5 0 0 0 FFTFFFFFFFFFFFFF9 1 82 1 674 172 79 30 695 LAST_BODY_MODIFYING_FE
ATURE_ID80 2 671 696 697 9000 0 0 0 0 3 5 0 0 0 FFTFFFFFFFFFFTFF9 1 82 1 672 178
 79 19 697 ENT_TIME_STAMP_200180 2 12 698 699 9000 0 0 0 0 3 5 0 0 0 FFTFFFFFFFF
FFFFF9 1 82 1 14 107 79 12 699 ATOM_ID_20011 0 
