**ABCDEFGHIJKLMNOPQRSTUVWXYZabcdefghijklmnopqrstuvwxyz**************************
**PARASOLID !"#$%&'()*+,-./:;<=>?@[\]^_`{|}~0123456789**************************
**PART1;
MC=AMD64;
MC_MODEL=Intel64 Family 6 Model 183 Stepping 1, GenuineIntel;
MC_ID=unknown;
OS=Windows_NT;
OS_RELEASE=unknown;
FRU=Parasolid Version 34.1, build 254,  2-10-2023;
APPL=SOLIDWORKS 2023-2023281;
SITE=;
USER=unknown;
FORMAT=text;
GUISE=transmit;
KEY=110323.03 APOIO DE CORRENTE MAIOR JD;
FILE=110323.03 APOIO DE CORRENTE MAIOR JD.x_t;
DATE=Wed Apr 24 10:42:16 2024;
**PART2;
SCH=SCH_3401254_34101;
USFLD_SIZE=0;
**PART3;
**END_OF_HEADER*****************************************************************
T51 : TRANSMIT FILE created by modeller version 340125423 SCH_3401254_34101_1300
6231 0 12 36 CCCI7 lattice222 0 CCCI4 mesh1006 0 I8 polyline1008 0 CCCCCCCDI5 ow
ner1040 0 CCCI16 boundary_lattice222 0 CCCI13 boundary_mesh1006 0 I17 boundary_p
olyline1008 0 CCCA16 index_map_offset0 0 1 dA9 index_map82 0 A17 node_id_index_m
ap82 0 A20 schema_embedding_map82 0 A5 child12 0 A14 lowest_node_id0 0 1 dA16 me
sh_offset_data206 0 Z1 2064 2 3 0 0 0 0 0 0 0 1e3 1e-8 0 4 0 1 0 1 1 5 0 6 7 8 0
 0 9 10 11 0 0 0 0 0 0 0 81 255 2 2 2022 12 1 13 0 0 0 0 14 70 11 CI9 list_type0
 0 1 uI10 notransmit0 0 1 lCCCDCCDI12 finger_index0 0 1 dI12 finger_block1012 0
 CZ3 0 4 T1 0 0 12 20 1 15 15 13 255 5 174 0 1 0 16 0 0 17 0 50 255 6 1835 18 19
 20 0 0 -.024 -.027 .3275 -.707106781186548 .707106781186548 0 0 0 -1 30 255 7 1
782 0 10 21 0 0 +.024 -.027 .3275 0 0 -1 29 255 8 1767 0 11 22 0 .024 -.027 .352
5 19 9 CCCCCCI5 frame230 0 CA5 owner12 0 Z9 52 0 1 17 0 23 0 V0 16 255 10 1780 0
 ?24 0 25 7 0 0 1 18 255 11 1765 0 26 0 27 8 ?1 17 255 26 0 28 29 30 11 31 32 0
 33 +18 27 1754 0 34 11 35 22 ?1 17 34 0 36 37 38 27 39 40 0 41 +18 35 1739 0 42
 27 43 44 ?1 29 22 1756 0 27 44 8 -.024 -.027 .3525 29 44 1741 0 35 45 22 -.024
 -.027 -.3525 29 45 1738 0 43 46 44 .024 -.027 -.3525 18 43 1736 0 47 35 48 45 ?
1 29 46 1719 0 48 49 45 .021 -.03 .3525 18 48 1717 0 50 43 51 46 ?1 29 49 1716 0
 51 52 46 -.021 -.03 .3525 18 51 1714 0 53 48 54 49 ?1 29 52 1713 0 54 55 49 -.0
21 -.03 -.3525 18 54 1711 0 56 51 57 52 ?1 29 55 1710 0 57 58 52 .021 -.03 -.352
5 18 57 1708 0 59 54 60 55 ?1 29 58 1283 0 60 61 55 .019 -.002723789364108775 .3
525 18 60 1281 0 62 57 63 58 ?1 29 61 1277 0 63 64 58 -.024 -.002723789364108775
 .3525 18 63 1275 0 65 60 66 61 ?1 29 64 1260 0 66 67 61 -.019 -.002723789364108
775 -.3525 18 66 1258 0 68 63 69 64 ?1 29 67 1254 0 69 70 64 .024 -.002723789364
108775 -.3525 18 69 1252 0 71 66 72 67 ?1 29 70 894 0 72 73 67 -.019 -.008816349
03542324 .3525 18 72 892 0 74 69 75 70 ?1 29 73 890 0 75 76 70 .019 -.0088163490
3542324 .3525 18 75 888 0 77 72 78 73 ?1 29 76 871 0 78 79 73 -.019 0 -.3025 18
 78 869 0 80 75 81 76 ?1 29 79 868 0 81 82 76 -.019 0 .3025 18 81 866 0 83 78 84
 79 ?1 29 82 865 0 84 85 79 .019 0 -.3025 18 84 863 0 86 81 87 82 ?1 29 85 862 0
 87 88 82 .019 0 .3025 18 87 860 0 89 84 90 85 ?1 29 88 852 0 90 91 85 .019 -.00
881634903542324 -.3525 18 90 850 0 92 87 93 88 ?1 29 91 848 0 93 94 88 -.019 -.0
0881634903542324 -.3525 18 93 846 0 95 90 96 91 ?1 29 94 1633 0 96 97 91 .019 .0
06 .303024931981155 18 96 1456 0 98 93 99 94 ?1 29 97 1634 0 99 100 94 -.019 .00
6 .303024931981155 18 99 1450 0 101 96 102 97 ?1 29 100 1636 0 102 103 97 -.019
 -.00272378936410878 .3525 18 102 1455 0 104 99 105 100 ?1 29 103 1639 0 105 106
 100 .019 -.002723789364108775 -.3525 18 105 1543 0 107 102 108 103 ?1 29 106 16
41 0 108 109 103 .019 .006 -.303024931981155 18 108 1537 0 110 105 111 106 ?1 29
 109 1642 0 111 112 106 -.019 .006 -.303024931981155 18 111 1542 0 113 108 114 1
09 ?1 29 112 1643 0 115 116 109 -.024 .006 -.303024931981155 18 115 1541 0 117 1
18 119 112 ?1 29 116 1644 0 119 120 112 -.024 -.00272378936410878 -.3525 18 119
 1536 0 121 115 0 116 ?1 29 120 1646 0 118 122 116 .024 .006 -.303024931981155 1
8 118 1538 0 123 124 115 120 ?1 29 122 1650 0 125 126 120 .024 .006 .30302493198
1155 18 125 1452 0 127 114 124 122 ?1 29 126 1651 0 124 128 122 .024 -.002723789
364108775 .3525 18 124 1446 0 29 125 118 126 ?1 29 128 1653 0 114 0 126 -.024 .0
06 .303024931981155 18 114 1451 0 129 111 125 128 ?1 17 129 0 130 65 101 114 131
 132 0 133 -15 255 130 1480 0 129 134 0 17 65 0 130 104 129 63 133 135 0 136 -17
 101 0 130 129 104 99 137 138 0 131 -17 131 0 139 140 141 99 129 132 0 142 +16 1
32 1428 0 ?131 143 144 145 144 144 1 17 133 0 36 146 37 114 65 135 0 141 +15 36
 156 0 38 16 0 17 146 0 36 147 133 115 141 148 0 0 +17 37 0 36 133 34 63 41 149
 0 0 -16 135 1430 0 ?133 150 151 152 0 0 1 17 141 0 139 131 153 114 146 148 0 0
 -15 139 142 0 141 154 0 17 153 0 139 141 140 115 113 155 0 146 -16 148 1302 0 ?
146 156 157 158 0 0 1 16 156 1296 0 ?140 159 148 160 0 0 1 16 157 287 0 ?161 148
 162 163 0 0 1 30 158 166 0 148 163 160 0 +-.024 .006 .3275 0 0 -1 31 255 163 37
3 0 157 164 158 0 +-.024 -.015 -.2975 1 -963735264431559e-31 0 963735264431559e-
31 1 0 .008 30 160 167 0 156 158 165 0 +-.019 .006 .3275 0 0 -1 30 165 168 0 159
 160 166 0 +-.019 0 .3275 0 0 -1 16 159 867 0 ?167 168 156 165 0 0 1 30 166 169
 0 168 165 169 0 +.019 0 .3275 0 0 -1 16 168 861 0 ?170 171 159 166 0 0 1 30 169
 170 0 171 166 172 0 +.019 .006 .3275 0 0 -1 16 171 1338 0 ?173 174 168 169 0 0
 1 30 172 171 0 174 169 175 0 +.024 .006 .3275 0 0 -1 16 174 1358 0 ?176 177 171
 172 0 0 1 30 175 853 0 177 172 178 0 +.019 -.00881634903542324 -.3525 1 0 0 16
 177 851 0 ?179 180 174 175 0 0 1 30 178 874 0 180 175 181 0 +.019 0 .3025 1 0 0
 16 180 872 0 ?89 182 177 178 0 0 1 30 181 882 0 182 178 183 0 +-.019 0 -.3025 -
1 0 0 16 182 880 0 ?80 184 180 181 0 0 1 30 183 895 0 184 181 185 0 +-.019 -.008
81634903542324 .3525 -1 0 0 16 184 893 0 ?186 187 182 183 0 0 1 30 185 1162 0 18
7 183 188 0 +.019 .1077363451475836 .308503175547562 0 .1736481776669275 .984807
753012209 16 187 902 0 ?86 189 184 185 0 0 1 30 188 1163 0 189 185 190 0 +-.019
 .1077363451475836 .308503175547562 0 -.1736481776669275 -.984807753012209 16 18
9 909 0 ?191 192 187 188 0 0 1 30 190 1164 0 192 188 193 0 +-.019 -.004275251791
570925 .326746157759824 0 .1736481776669275 -.984807753012209 16 192 916 0 ?83 1
94 189 190 0 0 1 30 193 1165 0 194 190 195 0 +.019 -.004275251791570925 .3267461
57759824 0 -.1736481776669275 .984807753012209 16 194 923 0 ?196 197 192 193 0 0
 1 30 195 1263 0 197 193 198 0 +262501186307524e-33 -.002723789364108775 -.3525
 -1 -963735264431559e-31 0 16 197 1267 0 ?107 199 194 195 0 0 1 30 198 1286 0 19
9 195 200 0 +262501186307524e-33 -.002723789364108775 .3525 1 963735264431559e-3
1 0 16 199 1284 0 ?201 202 197 198 0 0 1 30 200 1722 0 202 198 203 0 +.021 -.03
 .3275 0 0 1 16 202 1720 0 ?50 204 199 200 0 0 1 30 203 1730 0 204 200 205 0 +-.
021 -.03 .3275 0 0 -1 16 204 1728 0 ?206 207 202 203 0 0 1 30 205 1744 0 207 203
 208 0 -.0255 -.0255 -.3525 .707106781186548 .707106781186548 0 16 207 1742 0 ?5
9 209 204 205 0 0 1 30 208 1750 0 209 205 210 0 --.0255 -.0255 -.3525 .707106781
186548 -.707106781186547 0 16 209 1748 0 ?42 40 207 208 0 0 1 30 210 1759 0 40 2
08 211 0 +-.024 -.027 .3275 0 0 1 16 40 1757 0 ?34 32 209 210 0 0 1 30 211 1770
 0 32 210 21 0 -.0255 -.0255 .3525 -.707106781186548 -.707106781186548 0 16 32 1
768 0 ?26 25 40 211 0 0 1 30 21 1776 0 25 211 7 0 --.0255 -.0255 .3525 -.7071067
81186548 .707106781186547 0 16 25 1774 0 ?53 10 32 21 0 0 1 17 53 0 28 30 41 51
 212 25 0 213 +15 28 1291 0 41 214 0 17 30 0 28 26 53 48 213 215 0 31 +17 41 0 2
8 53 136 27 37 149 0 212 +17 212 0 216 39 217 27 53 25 0 0 -17 213 0 218 206 50
 51 30 215 0 217 -15 218 154 0 213 219 0 17 206 0 218 220 213 54 217 204 0 221 +
17 50 0 218 213 220 48 222 202 0 30 +16 215 1715 0 ?30 223 149 224 0 0 1 17 217
 0 216 212 56 51 206 204 0 0 -15 216 1802 0 212 225 0 17 56 0 216 217 39 54 42 2
09 0 206 -17 39 0 216 56 212 35 34 40 0 0 -17 42 0 226 121 221 35 56 209 0 38 +1
5 226 1268 0 221 227 0 17 121 0 226 228 42 119 38 229 0 230 +17 221 0 226 42 59
 54 220 231 0 0 +17 38 0 36 34 147 35 121 229 0 39 -17 147 0 36 38 146 119 117 2
32 0 0 +16 229 1740 0 ?121 233 231 234 0 0 1 16 233 1259 0 ?95 235 229 236 0 0 1
 16 231 1709 0 ?221 229 237 238 0 0 1 30 234 777 0 229 238 236 0 +-.024 -.03 -.3
525 963735264431559e-31 1 0 30 238 778 0 231 239 234 0 +.024 -.03 -.3525 -1 0 0
 30 236 775 0 233 234 240 0 +-.019 .006 -.3525 0 -1 0 30 240 773 0 235 236 241 0
 +.019 0 -.3525 0 1 0 16 235 680 0 ?242 243 233 240 0 0 1 30 241 771 0 243 240 2
44 0 +.024 .006 -.3525 963735264431559e-31 -1 0 16 243 1253 0 ?245 149 235 241 0
 0 1 30 244 557 0 149 241 224 0 +-.024 .006 .3525 -963735264431559e-31 -1 0 16 1
49 1276 0 ?41 215 243 244 0 0 1 30 224 556 0 215 244 246 0 +-.024 -.03 .3525 1 0
 0 30 246 555 0 223 224 247 0 +.024 -.03 .3525 -963735264431559e-31 1 0 16 223 1
766 0 ?29 248 215 246 0 0 1 30 247 553 0 248 246 249 0 +.019 .006 .3525 0 -1 0 1
6 248 1282 0 ?77 250 223 247 0 0 1 30 249 551 0 250 247 251 0 +-.019 0 .3525 0 1
 0 16 250 466 0 ?252 253 248 249 0 0 1 31 251 380 0 254 249 255 0 +.024 -.015 .2
975 1 123908819712629e-30 0 -123908819712629e-30 1 0 .008 16 254 315 0 ?256 257
 253 251 0 0 1 31 255 378 0 253 251 258 0 +.024 -.015 -.2975 1 123908819712629e-
30 0 -123908819712629e-30 1 0 .008 16 253 291 0 ?259 254 250 255 0 0 1 31 258 37
6 0 257 255 260 0 +.024 -.015 .0015 1 123908819712629e-30 0 -123908819712629e-30
 1 0 .008 16 257 339 0 ?261 262 254 258 0 0 1 31 260 375 0 262 258 164 0 +-.024
 -.015 .0015 1 -963735264431559e-31 0 963735264431559e-31 1 0 .008 16 262 335 0
 ?263 162 257 260 0 0 1 31 164 374 0 162 260 163 0 +-.024 -.015 .2975 1 -9637352
64431559e-31 0 963735264431559e-31 1 0 .008 16 162 311 0 ?264 157 262 164 0 0 1
 17 264 0 265 264 264 0 266 162 0 0 +15 265 275 0 264 16 267 17 266 0 268 266 26
6 0 264 162 0 0 -15 268 322 0 266 269 0 14 255 269 318 270 ?271 272 273 5 274 -0
 0 271 272 23 81 1 270 2024 275 269 276 0 0 277 278 14 271 294 277 ?214 269 279
 5 280 -0 0 214 269 23 14 272 342 281 ?269 154 282 5 283 -0 0 269 154 23 15 273
 321 0 256 269 268 51 255 274 370 0 269 284 280 0 +-.631 -.015 .2975 1 123908819
712629e-30 0 .008 -123908819712629e-30 1 0 13 23 53 0 0 0 0 0 0 9 16 14 16 157 2
85 ?219 0 286 5 287 -0 0 219 0 23 81 1 285 2030 275 16 288 0 281 289 290 14 219
 155 289 ?291 16 218 5 292 -0 0 291 16 23 15 286 281 0 161 16 265 50 287 165 0 1
6 292 293 0 +-.024 .006 .3275 1 -963735264431559e-31 0 963735264431559e-31 1 0 5
0 292 164 0 219 294 287 0 +.024 -.03 .3275 0 1 0 0 0 1 50 293 1199 295 296 287 2
97 0 +0 -.00881634903542324 -.3525 0 .984807753012209 -.1736481776669275 -1 0 0
 81 2 295 1200 298 293 0 0 0 299 300 301 14 296 1187 302 ?303 227 304 5 293 +0 0
 303 227 23 50 297 1221 299 303 293 20 0 +0 -.00881634903542324 .3525 0 .9848077
53012209 .1736481776669275 1 0 0 81 2 299 1222 298 297 0 0 295 305 306 307 14 30
3 1209 308 ?309 296 310 5 297 +0 0 309 296 23 50 20 1813 305 225 297 6 0 --.021
 -.03 .3275 .707106781186547 .707106781186548 0 0 0 -1 81 2 305 1814 298 20 0 0
 299 18 311 312 14 225 1801 313 ?19 134 216 5 20 +0 0 19 134 23 81 1 313 2038 27
5 225 314 0 308 315 316 14 19 1823 315 ?0 225 317 5 6 +0 0 0 225 23 14 134 1477
 318 ?225 319 130 5 320 -319 319 225 319 23 81 1 318 2042 275 134 321 0 315 322
 323 14 319 1473 322 ?134 324 325 5 320 -134 134 134 324 23 50 320 1597 0 319 0
 326 0 +-.024 -.00272378936410878 .3525 949093960263471e-31 -.984807753012208 -.
1736481776669275 0 .1736481776669275 -.984807753012209 50 326 1594 0 324 320 327
 0 +-.024 -.00272378936410878 -.3525 949093960263471e-31 -.984807753012208 .1736
481776669275 0 -.1736481776669275 -.984807753012209 14 324 1561 328 ?319 309 329
 5 326 -309 309 319 309 23 50 327 754 0 227 326 284 0 +0 0 -.3525 0 0 -1 -1 0 0
 14 227 737 330 ?296 214 226 5 327 +0 0 296 214 23 50 284 534 0 214 327 274 0 +0
 0 .3525 0 0 1 1 0 0 14 214 517 331 ?227 271 28 5 284 +0 0 227 271 23 81 1 331 2
050 275 214 332 0 330 333 334 80 7 CCCCCDI12 legal_owners0 16 1 lCZ1 275 335 336
 9000 1 1 1 1 1 1 1 1 0 FFFFTFTFFFFFFFFF1 81 3 332 2049 337 214 338 331 339 340
 341 0 0 81 1 330 2048 275 227 339 0 328 331 342 81 1 333 2052 275 309 340 0 331
 343 344 82 255 1 334 -1326186337 14 309 1565 333 ?324 303 345 5 326 -324 324 32
4 303 23 81 3 340 2051 337 309 346 333 332 347 348 0 0 81 1 343 2054 275 291 347
 0 333 349 350 82 1 344 -1146158947 14 291 153 343 ?351 219 352 5 294 -0 0 351 2
19 23 81 3 347 2053 337 291 353 343 340 354 355 0 0 81 1 349 2056 275 351 354 0
 343 356 357 82 1 350 973144223 14 351 151 349 ?358 291 359 5 360 -0 0 358 291 2
3 81 3 354 2055 337 351 361 349 347 362 363 0 0 81 1 356 2058 275 358 362 0 349
 364 365 82 1 357 972947613 14 358 149 356 ?366 351 367 5 368 -0 0 366 351 23 81
 3 362 2057 337 358 369 356 354 370 371 0 0 81 1 364 2060 275 366 370 0 356 372
 373 82 1 365 973078685 14 366 147 364 ?374 358 375 5 376 -0 0 374 358 23 81 3 3
70 2059 337 366 377 364 362 378 379 0 0 81 1 372 2062 275 374 378 0 364 380 381
 82 1 373 975110299 14 374 145 372 ?154 366 382 5 383 -0 0 154 366 23 81 3 378 2
061 337 374 384 372 370 385 386 0 0 81 1 380 2064 275 154 385 0 372 0 387 82 1 3
81 974979229 14 154 143 380 ?272 374 139 5 388 -0 0 272 374 23 81 3 385 2063 337
 154 389 380 378 0 390 0 0 82 1 387 974848157 80 3 337 391 392 9000 0 0 0 0 3 5
 0 0 0 FFFFTFFFFFFFFFFF1 1 1 81 1 389 1928 393 154 0 385 384 394 395 82 6 390 0
 2134464194 31102538 0 0 0 80 1 393 0 396 8001 0 0 0 0 3 5 0 0 0 FFFFTFTFFFFFFFF
F2 81 1 384 1927 393 374 0 378 377 389 397 81 1 394 1929 393 272 0 398 389 399 4
00 83 255 3 395 .219607843137255 .686274509803922 0 81 3 398 2027 337 272 394 28
1 401 288 402 0 0 81 1 399 1930 393 269 0 276 394 403 404 83 3 400 .219607843137
255 .686274509803922 0 81 3 276 2023 337 269 399 270 0 401 405 0 0 81 1 403 1931
 393 271 0 401 399 338 406 83 3 404 .219607843137255 .686274509803922 0 81 3 401
 2025 337 271 403 277 276 398 407 0 0 81 1 338 1932 393 214 0 332 403 408 409 83
 3 406 .219607843137255 .686274509803922 0 81 1 408 1933 393 227 0 339 338 410 4
11 83 3 409 .219607843137255 .686274509803922 0 81 3 339 2047 337 227 408 330 41
2 332 413 0 0 81 1 410 1934 393 296 0 414 408 415 416 83 3 411 .219607843137255
 .686274509803922 0 81 3 414 2033 337 296 410 302 417 418 419 0 0 81 1 415 1935
 393 303 0 418 410 346 420 83 3 416 .219607843137255 .686274509803922 0 81 3 418
 2035 337 303 415 308 414 314 421 0 0 81 1 346 1936 393 309 0 340 415 422 423 83
 3 420 .219607843137255 .686274509803922 0 81 1 422 1937 393 324 0 412 346 424 4
25 83 3 423 .219607843137255 .686274509803922 0 81 3 412 2045 337 324 422 328 42
6 339 427 0 0 81 1 424 1938 393 319 0 426 422 428 429 83 3 425 .219607843137255
 .686274509803922 0 81 3 426 2043 337 319 424 322 321 412 430 0 0 81 1 428 1939
 393 134 0 321 424 431 432 83 3 429 .219607843137255 .686274509803922 0 81 3 321
 2041 337 134 428 318 433 426 434 0 0 81 1 431 1940 393 225 0 314 428 435 436 83
 3 432 .219607843137255 .686274509803922 0 81 3 314 2037 337 225 431 313 418 433
 437 0 0 81 1 435 1941 393 19 0 433 431 0 438 83 3 436 .219607843137255 .6862745
09803922 0 81 3 433 2039 337 19 435 315 314 321 439 0 0 83 3 438 .21960784313725
5 .686274509803922 0 81 1 315 2040 275 19 433 0 313 318 440 82 6 439 0 -92584014
8 31102538 0 0 0 82 1 440 517800095 82 6 437 0 -925840148 31102538 0 0 0 82 6 43
4 0 2134464194 31102538 0 0 0 81 1 322 2044 275 319 426 0 318 328 441 82 6 430 0
 2134464194 31102538 0 0 0 81 1 328 2046 275 324 412 0 322 330 442 82 1 441 -113
9277667 82 1 442 -1145634659 82 6 427 0 2134464194 31102538 0 0 0 81 1 308 2036
 275 303 418 0 302 313 443 82 6 421 0 2134412013 31102538 0 0 0 81 1 302 2034 27
5 296 414 0 289 308 444 82 1 443 -1236533093 81 1 289 2032 275 219 417 0 285 302
 445 82 1 444 -1238630245 81 3 417 2031 337 219 446 289 288 414 447 0 0 82 1 445
 973471903 81 1 446 1922 393 219 0 417 448 353 449 81 3 288 2029 337 16 448 285
 398 417 450 0 0 82 6 447 0 -925840148 31102538 0 0 0 81 1 448 1921 393 16 0 288
 0 446 451 82 6 450 0 -925840148 31102538 0 0 0 83 3 451 .219607843137255 .68627
4509803922 0 81 1 353 1923 393 291 0 347 446 361 452 83 3 449 .219607843137255 .
686274509803922 0 81 1 361 1924 393 351 0 354 353 369 453 83 3 452 .219607843137
255 .686274509803922 0 81 1 369 1925 393 358 0 362 361 377 454 83 3 453 .2196078
43137255 .686274509803922 0 81 1 377 1926 393 366 0 370 369 384 455 83 3 454 .21
9607843137255 .686274509803922 0 83 3 455 .219607843137255 .686274509803922 0 82
 6 419 0 2134412013 31102538 0 0 0 82 6 413 0 -925840148 31102538 0 0 0 81 1 277
 2026 275 271 401 0 270 281 456 82 6 407 0 2134260416 31102538 0 0 0 81 1 281 20
28 275 272 398 0 277 285 457 82 1 456 -1370947434 82 1 457 -1372127082 82 6 405
 0 2134260416 31102538 0 0 0 82 6 402 0 2134260416 31102538 0 0 0 83 3 397 .2196
07843137255 .686274509803922 0 79 255 15 396 SDL/TYSA_COLOUR79 18 392 DOWNSTREAM
_FACE_ID50 388 158 0 154 283 383 0 +-.019 .006 .3275 0 -1 0 0 0 -1 51 283 364 0
 272 280 388 0 +-.631 -.015 .0015 1 123908819712629e-30 0 .008 -123908819712629e
-30 1 0 50 383 159 0 374 388 376 0 +-.019 0 .3275 -1 0 0 0 0 1 50 376 160 0 366
 383 368 0 +-.019 0 .3275 0 -1 0 0 0 -1 50 368 161 0 358 376 360 0 +.019 0 .3275
 1 0 0 0 0 -1 50 360 162 0 351 368 294 0 +.019 .006 .3275 0 -1 0 0 0 -1 50 294 1
63 0 291 360 292 0 +.024 .006 .3275 -1 -963735264431559e-31 0 963735264431559e-3
1 -1 0 51 280 367 0 271 274 283 0 +-.631 -.015 -.2975 1 123908819712629e-30 0 .0
08 -123908819712629e-30 1 0 82 6 386 0 2134464194 31102538 0 0 0 15 382 144 0 14
2 374 0 17 142 0 382 137 458 99 140 156 0 0 -17 137 0 382 74 142 102 101 138 0 2
52 +17 458 0 382 142 459 111 68 143 0 140 +17 140 0 139 153 131 111 142 156 0 0
 +17 459 0 382 458 191 66 95 233 0 0 -17 68 0 345 230 113 66 458 143 0 228 -16 1
43 1517 0 ?458 460 132 461 0 0 1 16 460 1514 0 ?462 138 143 463 0 0 1 30 461 161
2 0 143 464 463 0 +-.019 .113645191665657 .3074612864815605 0 .1736481776669275
 .984807753012209 30 464 1614 0 232 465 461 0 +-.024 -.00272378936410878 -.3525
 0 -.1736481776669275 -.984807753012209 30 463 1611 0 460 461 466 0 +.019 .11364
5191665657 .3074612864815605 0 -.1736481776669275 -.984807753012209 30 466 1608
 0 138 463 239 0 +-.019 .001633594726502325 .3277880468258255 0 -.17364817766692
75 .984807753012209 16 138 1429 0 ?137 237 460 466 0 0 1 30 239 1607 0 237 466 2
38 0 +.019 .001633594726502325 .3277880468258255 0 .1736481776669275 -.984807753
012209 16 237 1426 0 ?467 231 138 239 0 0 1 17 467 0 367 173 468 96 62 237 0 469
 +15 367 148 0 468 358 0 17 173 0 367 462 467 108 469 171 0 0 +17 468 0 367 467
 196 60 77 248 0 0 -17 62 0 325 201 98 60 467 237 0 470 -17 469 0 359 471 472 96
 173 171 0 0 -15 359 150 0 469 351 0 17 471 0 359 176 469 125 98 144 0 473 +17 4
72 0 359 469 176 108 123 474 0 173 -17 176 0 359 472 471 118 473 174 0 0 +17 123
 0 329 71 110 118 472 474 0 475 +16 474 1508 0 ?123 155 476 477 155 155 1 16 155
 1509 0 ?113 232 474 477 474 474 1 16 476 1516 0 ?228 474 0 478 0 0 1 30 477 162
1 0 155 479 478 0 +-.024 .006 -.303024931981155 1 963735264431559e-31 0 30 479 1
622 0 150 145 477 0 +-.024 -.00272378936410878 .3525 1 963735264431559e-31 0 30
 478 1620 0 476 477 465 0 +-.024 -.00272378936410878 -.3525 1 963735264431559e-3
1 0 30 465 1617 0 480 478 464 0 +.024 -.002723789364108775 -.3525 0 -.1736481776
669275 -.984807753012209 16 480 1527 0 ?71 151 232 465 0 0 1 17 71 0 329 107 123
 69 475 480 0 481 +16 151 1439 0 ?127 135 480 482 0 0 1 16 232 1518 0 ?147 480 1
55 464 0 0 1 17 127 0 325 98 201 125 483 151 0 471 +30 482 1626 0 151 152 145 0
 +.024 -.002723789364108775 .3525 0 .1736481776669275 -.984807753012209 30 152 1
629 0 135 0 482 0 +-.024 -.00272378936410878 .3525 0 .1736481776669275 -.9848077
53012209 30 145 1623 0 132 482 479 0 +-.024 .006 .303024931981155 1 963735264431
559e-31 0 15 325 1476 0 201 319 0 17 98 0 325 62 127 96 471 144 0 467 -17 201 0
 325 127 62 124 470 199 0 483 +17 483 0 484 33 473 124 127 151 0 0 -15 484 152 0
 33 291 0 17 33 0 484 24 483 11 29 223 0 485 -17 473 0 484 483 475 125 176 174 0
 0 -17 475 0 484 473 486 118 71 480 0 176 -17 486 0 484 475 24 69 245 243 0 0 -1
7 24 0 484 486 33 43 485 10 0 245 +17 245 0 226 59 481 43 486 243 0 0 +17 59 0 2
26 221 245 57 47 207 0 220 +17 481 0 226 245 242 69 107 197 0 486 -17 242 0 226
 481 179 105 92 235 0 0 +17 107 0 329 110 71 105 481 197 0 462 +15 329 1564 0 12
3 324 0 17 110 0 329 123 107 108 462 460 0 472 -17 462 0 367 92 173 105 110 460
 0 242 +17 92 0 367 86 462 90 242 235 0 487 -17 86 0 367 488 92 84 487 187 0 170
 +17 487 0 304 489 490 90 86 187 0 179 -15 304 1188 0 491 296 0 17 489 0 304 491
 487 93 179 177 0 0 -17 490 0 304 487 491 84 80 182 0 0 -17 179 0 226 242 95 90
 489 177 0 0 +17 95 0 226 179 228 93 459 233 0 191 +17 228 0 226 95 121 66 230 4
76 0 459 +17 191 0 382 459 167 93 491 189 0 489 +17 167 0 382 191 83 78 492 159
 0 491 +17 491 0 304 490 489 78 191 189 0 0 -17 83 0 382 167 74 81 493 192 0 492
 +17 492 0 375 89 80 81 167 159 0 494 -15 375 146 0 170 366 0 17 89 0 375 170 49
2 87 494 180 0 488 +17 80 0 375 492 170 78 490 182 0 167 +17 494 0 310 493 495 8
1 89 180 0 0 -15 310 1210 0 495 303 0 17 493 0 310 496 494 72 83 192 0 186 -17 4
95 0 310 494 496 87 196 194 0 0 -17 496 0 310 495 493 75 186 184 0 0 -17 196 0 3
67 468 488 75 495 194 0 496 +17 488 0 367 196 86 87 170 168 0 495 -17 170 0 375
 80 89 84 488 168 0 490 +17 186 0 28 252 77 72 496 184 0 0 +17 252 0 28 136 186
 102 74 250 0 0 +17 77 0 28 186 470 75 468 248 0 196 +17 470 0 28 77 29 60 201 1
99 0 468 -17 29 0 28 470 26 124 33 223 0 201 +17 136 0 28 41 252 63 104 150 0 37
 -17 74 0 382 83 137 72 252 250 0 493 -17 104 0 130 101 65 102 136 150 0 137 +16
 150 1414 0 ?104 144 135 479 0 0 1 16 144 1427 0 ?471 132 150 145 132 132 1 17 2
30 0 345 117 68 119 228 476 0 147 -15 345 1568 0 230 309 0 17 117 0 345 113 230
 115 147 232 0 153 -17 113 0 345 68 117 111 153 155 0 458 +17 47 0 317 485 222 4
3 59 207 0 24 -17 220 0 218 50 206 57 221 231 0 222 -17 222 0 317 47 31 57 50 20
2 0 0 -15 317 1824 0 31 19 0 17 31 0 317 222 485 48 26 32 0 0 -17 485 0 317 31 4
7 11 24 10 0 0 -82 6 379 0 2134412013 31102538 0 0 0 82 6 371 0 2134464194 31102
538 0 0 0 82 6 363 0 2134464194 31102538 0 0 0 82 6 355 0 -925840148 31102538 0
 0 0 15 352 262 0 497 291 498 17 497 0 352 497 497 0 259 253 0 0 -15 498 255 0 4
99 291 500 17 499 0 498 499 499 0 256 254 0 0 -15 500 248 0 501 291 484 17 501 0
 500 501 501 0 261 257 0 0 -17 261 0 282 261 261 0 501 257 0 0 +15 282 345 0 261
 272 502 15 502 346 0 503 272 0 17 503 0 502 503 503 0 263 262 0 0 -17 263 0 267
 263 263 0 503 262 0 0 +15 267 269 0 263 16 36 17 256 0 273 256 256 0 499 254 0
 0 +17 259 0 279 259 259 0 497 253 0 0 +15 279 297 0 259 271 504 15 504 298 0 50
5 271 0 17 505 0 504 505 505 0 161 157 0 0 -17 161 0 286 161 161 0 505 157 0 0 +
82 6 348 0 2134464194 31102538 0 0 0 82 1 342 -1263402849 82 6 341 0 -925840148
 31102538 0 0 0 79 14 336 SWEntUnchanged82 1 323 -1139801955 82 1 316 515702943
 80 2 298 506 507 8044 0 0 0 0 3 5 0 0 0 FFFFTFFFTTFFFFFF3 2 81 2 18 1836 298 6
 0 0 305 0 508 509 84 255 6 311 BAAAAB83 3 312 0 .004242640687119295 .003 84 6 5
08 BAAAAB83 3 509 0 .00424264068711913 .00299999999999989 79 17 507 SDL/TYSA_BLE
ND_ID84 6 306 BACAAB83 4 307 0 .0507713305942881 .0500000000000008 .008816349035
42324 84 6 300 BACAAB83 4 301 0 .0507713305942881 .0500000000000008 .00881634903
542324 82 1 290 973340831 82 1 278 -1371537258 19 17 175 0 1 0 9 5 0 S0 74 4 CI1
6 index_map_offset0 0 1 dCCZ20 15 12 0 0 385 380 510 511 512 18 513 514 515 13 4
35 2 0 0 0 0 0 0 0 0 81 2 510 820 516 1 0 511 0 0 0 517 81 2 511 832 518 1 510 5
12 0 0 0 519 81 2 512 833 520 1 511 513 0 0 521 0 81 2 513 1705 522 1 512 514 0
 0 0 0 81 1 514 1855 523 1 513 515 0 0 524 81 2 515 1856 525 1 514 13 0 0 526 0
 81 2 13 1878 527 1 515 2 0 0 0 528 80 2 527 529 530 9000 0 0 0 0 3 5 0 0 0 FFTF
FFFFFFFFFFFF9 1 82 1 528 1 79 24 530 BODY_IN_LIGHTWEIGHT_PERM80 2 525 531 532 80
04 0 0 0 0 3 5 0 0 0 FFTFFFFFFFFFFFFF2 3 83 1 526 952 79 16 532 SDL/TYSA_DENSITY
80 1 523 533 534 9000 1 1 1 1 1 1 1 1 0 FFTFFFFFFFFFFFFF1 82 1 524 1128756 79 10
 534 BODY_MATCH80 2 522 535 536 9000 0 0 0 0 3 5 0 0 0 FFTFFFFFFFFFFFFF9 1 79 16
 536 BODY_RECIPE_200180 2 520 537 538 9000 0 0 0 0 3 5 0 0 0 FFTFTTTFFTFFFFFF10
 10 98 255 8 521 67 104 97 110 102 114 111 50 79 23 538 SWIMPLICITBODYNAME_ID_U8
0 2 518 539 540 9000 0 0 0 0 3 5 0 0 0 FFTFFFFFFFFFFFFF9 1 82 1 519 152 79 30 54
0 LAST_BODY_MODIFYING_FEATURE_ID80 2 516 541 542 9000 0 0 0 0 3 5 0 0 0 FFTFFFFF
FFFFFTFF9 1 82 1 517 149 79 19 542 ENT_TIME_STAMP_200180 2 12 543 544 9000 0 0 0
 0 3 5 0 0 0 FFTFFFFFFFFFFFFF9 1 82 1 14 105 79 12 544 ATOM_ID_20011 0 
