  0
SECTION
  2
HEADER
  9
$ACADVER
  1
AC1009
  9
$INSBASE
 10
0.0
 20
0.0
 30
0.0
  9
$EXTMIN
 10
11.5664846955071408
 20
19.650860339918431
 30
0.0
  9
$EXTMAX
 10
375.8222287066300282
 20
359.2255227753586837
 30
0.0
  9
$LIMMIN
 10
0.0
 20
0.0
  9
$LIMMAX
 10
420.0
 20
297.0
  9
$ORTHOMODE
 70
     0
  9
$REGENMODE
 70
     1
  9
$FILLMODE
 70
     1
  9
$QTEXTMODE
 70
     0
  9
$MIRRTEXT
 70
     0
  9
$DRAGMODE
 70
     2
  9
$LTSCALE
 40
1.0
  9
$OSMODE
 70
   353
  9
$ATTMODE
 70
     1
  9
$TEXTSIZE
 40
2.5
  9
$TRACEWID
 40
1.0
  9
$TEXTSTYLE
  7
STANDARD
  9
$CLAYER
  8
0
  9
$CELTYPE
  6
BYLAYER
  9
$CECOLOR
 62
   256
  9
$DIMSCALE
 40
1.0
  9
$DIMASZ
 40
2.5
  9
$DIMEXO
 40
0.625
  9
$DIMDLI
 40
3.75
  9
$DIMRND
 40
0.0
  9
$DIMDLE
 40
0.0
  9
$DIMEXE
 40
1.25
  9
$DIMTP
 40
0.0
  9
$DIMTM
 40
0.0
  9
$DIMTXT
 40
2.5
  9
$DIMCEN
 40
2.5
  9
$DIMTSZ
 40
0.0
  9
$DIMTOL
 70
     0
  9
$DIMLIM
 70
     0
  9
$DIMTIH
 70
     0
  9
$DIMTOH
 70
     0
  9
$DIMSE1
 70
     0
  9
$DIMSE2
 70
     0
  9
$DIMTAD
 70
     1
  9
$DIMZIN
 70
     8
  9
$DIMBLK
  1

  9
$DIMASO
 70
     1
  9
$DIMSHO
 70
     1
  9
$DIMPOST
  1

  9
$DIMAPOST
  1

  9
$DIMALT
 70
     0
  9
$DIMALTD
 70
     3
  9
$DIMALTF
 40
0.03937007874016
  9
$DIMLFAC
 40
1.0
  9
$DIMTOFL
 70
     1
  9
$DIMTVP
 40
0.0
  9
$DIMTIX
 70
     0
  9
$DIMSOXD
 70
     0
  9
$DIMSAH
 70
     0
  9
$DIMBLK1
  1

  9
$DIMBLK2
  1

  9
$DIMSTYLE
  2
ISO-25
  9
$DIMCLRD
 70
     0
  9
$DIMCLRE
 70
     0
  9
$DIMCLRT
 70
     0
  9
$DIMTFAC
 40
1.0
  9
$DIMGAP
 40
0.625
  9
$LUNITS
 70
     2
  9
$LUPREC
 70
     4
  9
$SKETCHINC
 40
1.0
  9
$FILLETRAD
 40
0.0
  9
$AUNITS
 70
     0
  9
$AUPREC
 70
     0
  9
$MENU
  1
.
  9
$ELEVATION
 40
0.0
  9
$PELEVATION
 40
0.0
  9
$THICKNESS
 40
0.0
  9
$LIMCHECK
 70
     0
  9
$BLIPMODE
 70
     0
  9
$CHAMFERA
 40
0.0
  9
$CHAMFERB
 40
0.0
  9
$SKPOLY
 70
     0
  9
$TDCREATE
 40
2460248.6621990739367902
  9
$TDUPDATE
 40
2460249.4249074067920446
  9
$TDINDWG
 40
0.0089699074
  9
$TDUSRTIMER
 40
0.0089699074
  9
$USRTIMER
 70
     1
  9
$ANGBASE
 50
0.0
  9
$ANGDIR
 70
     0
  9
$PDMODE
 70
     0
  9
$PDSIZE
 40
0.0
  9
$PLINEWID
 40
0.0
  9
$COORDS
 70
     1
  9
$SPLFRAME
 70
     0
  9
$SPLINETYPE
 70
     6
  9
$SPLINESEGS
 70
     8
  9
$ATTDIA
 70
     1
  9
$ATTREQ
 70
     1
  9
$HANDLING
 70
     1
  9
$HANDSEED
  5
855
  9
$SURFTAB1
 70
     6
  9
$SURFTAB2
 70
     6
  9
$SURFTYPE
 70
     6
  9
$SURFU
 70
     6
  9
$SURFV
 70
     6
  9
$UCSNAME
  2

  9
$UCSORG
 10
0.0
 20
0.0
 30
0.0
  9
$UCSXDIR
 10
1.0
 20
0.0
 30
0.0
  9
$UCSYDIR
 10
0.0
 20
1.0
 30
0.0
  9
$PUCSNAME
  2

  9
$PUCSORG
 10
0.0
 20
0.0
 30
0.0
  9
$PUCSXDIR
 10
1.0
 20
0.0
 30
0.0
  9
$PUCSYDIR
 10
0.0
 20
1.0
 30
0.0
  9
$USERI1
 70
     0
  9
$USERI2
 70
     0
  9
$USERI3
 70
     0
  9
$USERI4
 70
     0
  9
$USERI5
 70
     0
  9
$USERR1
 40
0.0
  9
$USERR2
 40
0.0
  9
$USERR3
 40
0.0
  9
$USERR4
 40
0.0
  9
$USERR5
 40
0.0
  9
$WORLDVIEW
 70
     1
  9
$SHADEDGE
 70
     3
  9
$SHADEDIF
 70
    70
  9
$TILEMODE
 70
     1
  9
$MAXACTVP
 70
    64
  9
$PLIMCHECK
 70
     0
  9
$PEXTMIN
 10
0.0
 20
0.0
 30
0.0
  9
$PEXTMAX
 10
0.0
 20
0.0
 30
0.0
  9
$PLIMMIN
 10
0.0
 20
0.0
  9
$PLIMMAX
 10
12.0
 20
9.0
  9
$UNITMODE
 70
     0
  9
$VISRETAIN
 70
     1
  9
$PLINEGEN
 70
     0
  9
$PSLTSCALE
 70
     1
  0
ENDSEC
  0
SECTION
  2
TABLES
  0
TABLE
  2
VPORT
 70
     1
  0
VPORT
  2
*ACTIVE
 70
     0
 10
0.0
 20
0.0
 11
1.0
 21
1.0
 12
132.8062544939585052
 22
138.3279873860720102
 13
0.0
 23
0.0
 14
10.0
 24
10.0
 15
10.0
 25
10.0
 16
0.0
 26
0.0
 36
1.0
 17
0.0
 27
0.0
 37
0.0
 40
687.2189534007966358
 41
2.2103448275862059
 42
50.0
 43
0.0
 44
0.0
 50
0.0
 51
0.0
 71
     0
 72
  1000
 73
     1
 74
     3
 75
     0
 76
     1
 77
     0
 78
     0
  0
ENDTAB
  0
TABLE
  2
LTYPE
 70
     2
  0
LTYPE
  2
CONTINUOUS
 70
     0
  3
Solid line
 72
    65
 73
     0
 40
0.0
  0
ENDTAB
  0
TABLE
  2
LAYER
 70
     3
  0
LAYER
  2
0
 70
     0
 62
     7
  6
CONTINUOUS
  0
LAYER
  2
CONTORNO
 70
     0
 62
     7
  6
CONTINUOUS
  0
LAYER
  2
DEFPOINTS
 70
     0
 62
     7
  6
CONTINUOUS
  0
ENDTAB
  0
TABLE
  2
STYLE
 70
     3
  0
STYLE
  2
STANDARD
 70
     0
 40
0.0
 41
1.0
 50
0.0
 71
     0
 42
2.5
  3
txt
  4

  0
STYLE
  2
ANNOTATIVE
 70
     0
 40
0.0
 41
1.0
 50
0.0
 71
     0
 42
2.5
  3
txt
  4

  0
STYLE
  2
SLDTEXTSTYLE1
 70
     0
 40
0.0
 41
0.75
 50
0.0
 71
     0
 42
8.466666666666665
  3
TXT
  4

  0
ENDTAB
  0
TABLE
  2
VIEW
 70
     0
  0
ENDTAB
  0
TABLE
  2
UCS
 70
     0
  0
ENDTAB
  0
TABLE
  2
APPID
 70
     9
  0
APPID
  2
ACAD
 70
     0
  0
APPID
  2
ACADANNOTATIVE
 70
     0
  0
APPID
  2
ACAD_PSEXT
 70
     0
  0
APPID
  2
ACADANNOPO
 70
     0
  0
APPID
  2
ACAD_DSTYLE_DIMJAG
 70
     0
  0
APPID
  2
ACAD_DSTYLE_DIMTALN
 70
     0
  0
APPID
  2
ACAD_MLEADERVER
 70
     0
  0
APPID
  2
ACAD_NAV_VCDISPLAY
 70
     0
  0
APPID
  2
ACAD_EXEMPT_FROM_CAD_STANDARDS
 70
     0
  0
ENDTAB
  0
TABLE
  2
DIMSTYLE
 70
     8
  0
DIMSTYLE
  2
STANDARD
 70
     0
  3

  4

  5

  6

  7

 40
1.0
 41
0.18
 42
0.0625
 43
0.38
 44
0.18
 45
0.0
 46
0.0
 47
0.0
 48
0.0
140
0.18
141
0.09
142
0.0
143
25.3999999999999986
144
1.0
145
0.0
146
1.0
147
0.09
 71
     0
 72
     0
 73
     1
 74
     1
 75
     0
 76
     0
 77
     0
 78
     0
170
     0
171
     2
172
     0
173
     0
174
     0
175
     0
176
     0
177
     0
178
     0
  0
DIMSTYLE
  2
ANNOTATIVE
 70
     0
  3

  4

  5

  6

  7

 40
0.0
 41
2.5
 42
0.625
 43
3.75
 44
1.25
 45
0.0
 46
0.0
 47
0.0
 48
0.0
140
2.5
141
2.5
142
0.0
143
0.03937007874016
144
1.0
145
0.0
146
1.0
147
0.625
 71
     0
 72
     0
 73
     0
 74
     0
 75
     0
 76
     0
 77
     1
 78
     8
170
     0
171
     3
172
     1
173
     0
174
     0
175
     0
176
     0
177
     0
178
     0
  0
DIMSTYLE
  2
ISO-25
 70
     0
  3

  4

  5

  6

  7

 40
1.0
 41
2.5
 42
0.625
 43
3.75
 44
1.25
 45
0.0
 46
0.0
 47
0.0
 48
0.0
140
2.5
141
2.5
142
0.0
143
0.03937007874016
144
1.0
145
0.0
146
1.0
147
0.625
 71
     0
 72
     0
 73
     0
 74
     0
 75
     0
 76
     0
 77
     1
 78
     8
170
     0
171
     3
172
     1
173
     0
174
     0
175
     0
176
     0
177
     0
178
     0
  0
DIMSTYLE
  2
SLDDIMSTYLE0
 70
     0
  3

  4

  5

  6

  7

 40
1.0
 41
6.6039999999999992
 42
0.0625
 43
0.38
 44
0.0
 45
0.000000001
 46
0.0
 47
0.0
 48
0.0
140
6.3499999999999979
141
0.09
142
0.0
143
25.3999999999999986
144
1.0
145
0.0
146
1.0
147
1.587499999999999
 71
     0
 72
     0
 73
     0
 74
     0
 75
     0
 76
     0
 77
     1
 78
    12
170
     0
171
     2
172
     1
173
     1
174
     0
175
     0
176
     0
177
     0
178
     0
  0
DIMSTYLE
  2
SLDDIMSTYLE1
 70
     0
  3

  4

  5

  6

  7

 40
1.0
 41
6.6039999999999992
 42
0.0625
 43
0.38
 44
0.0
 45
0.000000001
 46
0.0
 47
0.0
 48
0.0
140
6.3499999999999979
141
0.09
142
0.0
143
25.3999999999999986
144
1.0
145
0.0
146
1.0
147
1.587499999999999
 71
     0
 72
     0
 73
     0
 74
     0
 75
     0
 76
     0
 77
     1
 78
    12
170
     0
171
     2
172
     0
173
     1
174
     0
175
     0
176
     0
177
     0
178
     0
  0
DIMSTYLE
  2
SLDDIMSTYLE2
 70
     0
  3

  4

  5

  6

  7

 40
1.0
 41
6.6039999999999992
 42
0.0625
 43
0.38
 44
0.0
 45
0.000000001
 46
0.0
 47
0.0
 48
0.0
140
6.3499999999999979
141
0.0
142
0.0
143
25.3999999999999986
144
1.0
145
0.0
146
1.0
147
1.587499999999999
 71
     0
 72
     0
 73
     0
 74
     0
 75
     0
 76
     0
 77
     1
 78
    12
170
     0
171
     2
172
     0
173
     1
174
     0
175
     0
176
     0
177
     0
178
     0
  0
DIMSTYLE
  2
SLDDIMSTYLE3
 70
     0
  3

  4

  5

  6

  7

 40
1.0
 41
6.6039999999999992
 42
0.0625
 43
0.38
 44
0.0
 45
0.000000001
 46
0.0
 47
0.0
 48
0.0
140
6.3499999999999979
141
0.0
142
0.0
143
25.3999999999999986
144
1.0
145
0.0
146
1.0
147
1.587499999999999
 71
     0
 72
     0
 73
     0
 74
     0
 75
     0
 76
     0
 77
     1
 78
    12
170
     0
171
     2
172
     0
173
     1
174
     0
175
     0
176
     0
177
     0
178
     0
  0
ENDTAB
  0
ENDSEC
  0
SECTION
  2
BLOCKS
  0
BLOCK
  8
0
  2
$MODEL_SPACE
 70
     0
 10
0.0
 20
0.0
 30
0.0
  3
$MODEL_SPACE
  1

  0
ENDBLK
  5
6B1
  8
0
  0
BLOCK
 67
     1
  8
0
  2
$PAPER_SPACE
 70
     0
 10
0.0
 20
0.0
 30
0.0
  3
$PAPER_SPACE
  1

  0
ENDBLK
  5
6AD
 67
     1
  8
0
  0
BLOCK
  8
0
  2
_D
 70
     0
 10
0.0
 20
0.0
 30
0.0
  3
_D
  1

  0
SOLID
  5
297
  8
CONTORNO
 10
437.7310857018953811
 20
355.56042543594981
 30
0.0
 11
438.7470857018956281
 21
362.1644254359496813
 31
0.0
 12
436.7150857018954184
 22
362.1644254359496813
 32
0.0
 13
436.7150857018954184
 23
362.1644254359496813
 33
0.0
  0
SOLID
  5
298
  8
CONTORNO
 10
437.7310857018953243
 20
336.5604254359496963
 30
0.0
 11
436.7150857018951911
 21
329.9564254359497113
 31
0.0
 12
438.7470857018951733
 22
329.9564254359497113
 32
0.0
 13
438.7470857018951733
 23
329.9564254359497113
 33
0.0
  0
LINE
  5
299
  8
CONTORNO
 10
323.8496150671139162
 20
355.5604254359510037
 30
0.0
 11
439.7310857018953811
 21
355.56042543594981
 31
0.0
  0
LINE
  5
29A
  8
CONTORNO
 10
323.8496150671136888
 20
336.5604254359510037
 30
0.0
 11
439.7310857018952106
 21
336.5604254359496963
 31
0.0
  0
LINE
  5
29B
  8
CONTORNO
 10
437.7310857018953811
 20
355.56042543594981
 30
0.0
 11
437.7310857018956085
 21
368.2604254359496849
 31
0.0
  0
LINE
  5
29C
  8
CONTORNO
 10
437.7310857018953811
 20
355.56042543594981
 30
0.0
 11
437.7310857018953243
 21
336.5604254359496963
 31
0.0
  0
LINE
  5
29D
  8
CONTORNO
 10
437.7310857018953243
 20
336.5604254359496963
 30
0.0
 11
437.7310857018950969
 21
323.8604254359497077
 31
0.0
  0
INSERT
  5
29E
  8
0
  2
*U3
 10
0.0
 20
0.0
 30
0.0
  0
ENDBLK
  5
29F
  8
0
  0
BLOCK
  8
0
  2
*U3
 70
     1
 10
0.0
 20
0.0
 30
0.0
  3
*U3
  1

  0
TEXT
  5
5B2
  8
CONTORNO
 10
435.8955064856659192
 20
341.538770297934775
 30
0.0
 40
6.3499999999999979
  1
19
 50
89.9999999999998153
 41
0.75
  7
SLDTEXTSTYLE1
  0
ENDBLK
  5
5B4
  8
0
  0
BLOCK
  8
0
  2
_D_1
 70
     0
 10
0.0
 20
0.0
 30
0.0
  3
_D_1
  1

  0
SOLID
  5
2A2
  8
CONTORNO
 10
437.7310857018953243
 20
355.5604254359506058
 30
0.0
 11
436.7150857018951911
 21
348.9564254359506208
 31
0.0
 12
438.7470857018951733
 22
348.9564254359506208
 32
0.0
 13
438.7470857018951733
 23
348.9564254359506208
 33
0.0
  0
SOLID
  5
2A3
  8
CONTORNO
 10
437.7310857018953243
 20
374.5604254359506058
 30
0.0
 11
438.7470857018951733
 21
381.1644254359505908
 31
0.0
 12
436.7150857018951911
 22
381.1644254359505908
 32
0.0
 13
436.7150857018951911
 23
381.1644254359505908
 33
0.0
  0
LINE
  5
2A4
  8
CONTORNO
 10
323.8496150671139162
 20
355.5604254359510037
 30
0.0
 11
439.7310857018950969
 21
355.5604254359506058
 31
0.0
  0
LINE
  5
2A5
  8
CONTORNO
 10
323.8496150671139731
 20
374.5604254359510037
 30
0.0
 11
439.7310857018952106
 21
374.5604254359506058
 31
0.0
  0
LINE
  5
2A6
  8
CONTORNO
 10
437.7310857018953243
 20
355.5604254359506058
 30
0.0
 11
437.7310857018950969
 21
342.8604254359506172
 31
0.0
  0
LINE
  5
2A7
  8
CONTORNO
 10
437.7310857018953243
 20
355.5604254359506058
 30
0.0
 11
437.7310857018953243
 21
374.5604254359506058
 31
0.0
  0
LINE
  5
2A8
  8
CONTORNO
 10
437.7310857018953243
 20
374.5604254359506058
 30
0.0
 11
437.7310857018953811
 21
387.2604254359505944
 31
0.0
  0
INSERT
  5
2A9
  8
0
  2
*U5
 10
0.0
 20
0.0
 30
0.0
  0
ENDBLK
  5
2AA
  8
0
  0
BLOCK
  8
0
  2
*U5
 70
     1
 10
0.0
 20
0.0
 30
0.0
  3
*U5
  1

  0
TEXT
  5
5B6
  8
CONTORNO
 10
435.8955064856655781
 20
362.8873049658294008
 30
0.0
 40
6.3499999999999979
  1
19
 50
89.999999999999801
 41
0.75
  7
SLDTEXTSTYLE1
  0
ENDBLK
  5
5B8
  8
0
  0
BLOCK
  8
0
  2
_D_2
 70
     0
 10
0.0
 20
0.0
 30
0.0
  3
_D_2
  1

  0
SOLID
  5
2AD
  8
CONTORNO
 10
455.1645828855681088
 20
355.5604254359495826
 30
0.0
 11
456.1805828855681852
 21
362.1644254359495108
 31
0.0
 12
454.1485828855680893
 22
362.1644254359495108
 32
0.0
 13
454.1485828855680893
 23
362.1644254359495108
 33
0.0
  0
SOLID
  5
2AE
  8
CONTORNO
 10
455.1645828855686773
 20
405.5604254359495258
 30
0.0
 11
454.1485828855686009
 21
398.9564254359497113
 31
0.0
 12
456.1805828855685263
 22
398.9564254359497113
 32
0.0
 13
456.1805828855685263
 23
398.9564254359497113
 33
0.0
  0
LINE
  5
2AF
  8
CONTORNO
 10
323.8496150671139162
 20
355.5604254359510037
 30
0.0
 11
457.1645828855681088
 21
355.5604254359495826
 31
0.0
  0
LINE
  5
2B0
  8
CONTORNO
 10
455.1645828855681088
 20
355.5604254359495826
 30
0.0
 11
455.1645828855686773
 21
405.5604254359495258
 31
0.0
  0
INSERT
  5
2B1
  8
0
  2
*U7
 10
0.0
 20
0.0
 30
0.0
  0
ENDBLK
  5
2B2
  8
0
  0
BLOCK
  8
0
  2
*U7
 70
     1
 10
0.0
 20
0.0
 30
0.0
  3
*U7
  1

  0
TEXT
  5
5BA
  8
CONTORNO
 10
453.3290036693392153
 20
377.1783467720508156
 30
0.0
 40
6.3499999999999979
  1
50
 50
89.9999999999993889
 41
0.75
  7
SLDTEXTSTYLE1
  0
ENDBLK
  5
5BC
  8
0
  0
BLOCK
  8
0
  2
_D_3
 70
     0
 10
0.0
 20
0.0
 30
0.0
  3
_D_3
  1

  0
SOLID
  5
2B5
  8
CONTORNO
 10
500.2311859052691148
 20
355.5604254359510037
 30
0.0
 11
501.2471859052689069
 21
362.164425435950875
 31
0.0
 12
499.2151859052689815
 22
362.164425435950875
 32
0.0
 13
499.2151859052689815
 23
362.164425435950875
 33
0.0
  0
SOLID
  5
2B6
  8
CONTORNO
 10
500.2311859052691148
 20
430.5604254359507763
 30
0.0
 11
499.2151859052689815
 21
423.9564254359510187
 31
0.0
 12
501.2471859052689069
 22
423.9564254359510187
 32
0.0
 13
501.2471859052689069
 23
423.9564254359510187
 33
0.0
  0
LINE
  5
2B7
  8
CONTORNO
 10
323.8496150671139162
 20
355.5604254359510037
 30
0.0
 11
502.2311859052691148
 21
355.5604254359510037
 31
0.0
  0
LINE
  5
2B8
  8
CONTORNO
 10
407.6996150671138253
 20
430.5604254359507763
 30
0.0
 11
502.2311859052691148
 21
430.5604254359507763
 31
0.0
  0
LINE
  5
2B9
  8
CONTORNO
 10
500.2311859052691148
 20
355.5604254359510037
 30
0.0
 11
500.2311859052691148
 21
430.5604254359507763
 31
0.0
  0
INSERT
  5
2BA
  8
0
  2
*U9
 10
0.0
 20
0.0
 30
0.0
  0
ENDBLK
  5
2BB
  8
0
  0
BLOCK
  8
0
  2
*U9
 70
     1
 10
0.0
 20
0.0
 30
0.0
  3
*U9
  1

  0
TEXT
  5
5BE
  8
CONTORNO
 10
498.3956066890398802
 20
386.3390432119408047
 30
0.0
 40
6.3499999999999979
  1
75
 50
90.0
 41
0.75
  7
SLDTEXTSTYLE1
  0
ENDBLK
  5
5C0
  8
0
  0
BLOCK
  8
0
  2
_D_4
 70
     0
 10
0.0
 20
0.0
 30
0.0
  3
_D_4
  1

  0
SOLID
  5
2BE
  8
CONTORNO
 10
546.9093522729832557
 20
355.5604254359510037
 30
0.0
 11
547.9253522729832184
 21
362.164425435950875
 31
0.0
 12
545.8933522729831793
 22
362.164425435950875
 32
0.0
 13
545.8933522729831793
 23
362.164425435950875
 33
0.0
  0
SOLID
  5
2BF
  8
CONTORNO
 10
546.9093522729832557
 20
455.5604254359510037
 30
0.0
 11
545.8933522729831793
 21
448.9564254359510187
 31
0.0
 12
547.9253522729832184
 22
448.9564254359510187
 32
0.0
 13
547.9253522729832184
 23
448.9564254359510187
 33
0.0
  0
LINE
  5
2C0
  8
CONTORNO
 10
323.8496150671139162
 20
355.5604254359510037
 30
0.0
 11
548.9093522729833694
 21
355.5604254359510037
 31
0.0
  0
LINE
  5
2C1
  8
CONTORNO
 10
468.0716660856734279
 20
455.5604254359510037
 30
0.0
 11
548.9093522729833694
 21
455.5604254359510037
 31
0.0
  0
LINE
  5
2C2
  8
CONTORNO
 10
546.9093522729832557
 20
355.5604254359510037
 30
0.0
 11
546.9093522729832557
 21
455.5604254359510037
 31
0.0
  0
INSERT
  5
2C3
  8
0
  2
*U11
 10
0.0
 20
0.0
 30
0.0
  0
ENDBLK
  5
2C4
  8
0
  0
BLOCK
  8
0
  2
*U11
 70
     1
 10
0.0
 20
0.0
 30
0.0
  3
*U11
  1

  0
TEXT
  5
5C2
  8
CONTORNO
 10
545.0737730567537938
 20
399.7782021162785213
 30
0.0
 40
6.3499999999999979
  1
100
 50
90.0
 41
0.75
  7
SLDTEXTSTYLE1
  0
ENDBLK
  5
5C4
  8
0
  0
BLOCK
  8
0
  2
_D_5
 70
     0
 10
0.0
 20
0.0
 30
0.0
  3
_D_5
  1

  0
SOLID
  5
2C7
  8
CONTORNO
 10
321.8496150671139162
 20
236.2481835656845135
 30
0.0
 11
315.2456150671138744
 21
237.2641835656845046
 31
0.0
 12
315.2456150671138744
 22
235.2321835656844939
 32
0.0
 13
315.2456150671138744
 23
235.2321835656844939
 33
0.0
  0
SOLID
  5
2C8
  8
CONTORNO
 10
340.8496150671139162
 20
236.2481835656845135
 30
0.0
 11
347.4536150671140149
 21
235.2321835656844939
 31
0.0
 12
347.4536150671140149
 22
237.2641835656845046
 32
0.0
 13
347.4536150671140149
 23
237.2641835656845046
 33
0.0
  0
LINE
  5
2C9
  8
CONTORNO
 10
321.8496150671139162
 20
353.5604254359510037
 30
0.0
 11
321.8496150671139162
 21
234.2481835656843998
 31
0.0
  0
LINE
  5
2CA
  8
CONTORNO
 10
340.8496150671139162
 20
353.5604254359510037
 30
0.0
 11
340.8496150671139162
 21
234.2481835656843998
 31
0.0
  0
LINE
  5
2CB
  8
CONTORNO
 10
321.8496150671139162
 20
236.2481835656845135
 30
0.0
 11
309.1496150671139276
 21
236.2481835656845135
 31
0.0
  0
LINE
  5
2CC
  8
CONTORNO
 10
321.8496150671139162
 20
236.2481835656845135
 30
0.0
 11
340.8496150671139162
 21
236.2481835656845135
 31
0.0
  0
LINE
  5
2CD
  8
CONTORNO
 10
340.8496150671139162
 20
236.2481835656845135
 30
0.0
 11
353.5496150671139048
 21
236.2481835656845135
 31
0.0
  0
INSERT
  5
2CE
  8
0
  2
*U13
 10
0.0
 20
0.0
 30
0.0
  0
ENDBLK
  5
2CF
  8
0
  0
BLOCK
  8
0
  2
*U13
 70
     1
 10
0.0
 20
0.0
 30
0.0
  3
*U13
  1

  0
TEXT
  5
5C6
  8
CONTORNO
 10
326.0097466272147813
 20
238.0837627819138049
 30
0.0
 40
6.3499999999999979
  1
19
 41
0.75
  7
SLDTEXTSTYLE1
  0
ENDBLK
  5
5C8
  8
0
  0
BLOCK
  8
0
  2
_D_6
 70
     0
 10
0.0
 20
0.0
 30
0.0
  3
_D_6
  1

  0
SOLID
  5
2D2
  8
CONTORNO
 10
321.8496150671139731
 20
217.6107741636656101
 30
0.0
 11
328.4536150671140149
 21
216.5947741636655905
 31
0.0
 12
328.4536150671140149
 22
218.6267741636656012
 32
0.0
 13
328.4536150671140149
 23
218.6267741636656012
 33
0.0
  0
SOLID
  5
2D3
  8
CONTORNO
 10
371.8496150671139731
 20
217.6107741636656101
 30
0.0
 11
365.2456150671139881
 21
218.6267741636656012
 31
0.0
 12
365.2456150671139881
 22
216.5947741636655905
 32
0.0
 13
365.2456150671139881
 23
216.5947741636655905
 33
0.0
  0
LINE
  5
2D4
  8
CONTORNO
 10
321.8496150671139162
 20
353.5604254359510037
 30
0.0
 11
321.8496150671139731
 21
215.6107741636656101
 31
0.0
  0
LINE
  5
2D5
  8
CONTORNO
 10
321.8496150671139731
 20
217.6107741636656101
 30
0.0
 11
371.8496150671139731
 21
217.6107741636656101
 31
0.0
  0
INSERT
  5
2D6
  8
0
  2
*U15
 10
0.0
 20
0.0
 30
0.0
  0
ENDBLK
  5
2D7
  8
0
  0
BLOCK
  8
0
  2
*U15
 70
     1
 10
0.0
 20
0.0
 30
0.0
  3
*U15
  1

  0
TEXT
  5
5CA
  8
CONTORNO
 10
339.765929757276183
 20
219.4463533798951005
 30
0.0
 40
6.3499999999999979
  1
50
 50
0.0000000000000135
 41
0.75
  7
SLDTEXTSTYLE1
  0
ENDBLK
  5
5CC
  8
0
  0
BLOCK
  8
0
  2
_D_7
 70
     0
 10
0.0
 20
0.0
 30
0.0
  3
_D_7
  1

  0
SOLID
  5
2DA
  8
CONTORNO
 10
321.8496150671139162
 20
177.6734683021967101
 30
0.0
 11
328.4536150671140149
 21
176.6574683021966905
 31
0.0
 12
328.4536150671140149
 22
178.6894683021967012
 32
0.0
 13
328.4536150671140149
 23
178.6894683021967012
 33
0.0
  0
SOLID
  5
2DB
  8
CONTORNO
 10
396.8496150671139162
 20
177.6734683021967101
 30
0.0
 11
390.2456150671139881
 21
178.6894683021967012
 31
0.0
 12
390.2456150671139881
 22
176.6574683021966905
 32
0.0
 13
390.2456150671139881
 23
176.6574683021966905
 33
0.0
  0
LINE
  5
2DC
  8
CONTORNO
 10
321.8496150671139162
 20
353.5604254359510037
 30
0.0
 11
321.8496150671139162
 21
175.6734683021967101
 31
0.0
  0
LINE
  5
2DD
  8
CONTORNO
 10
396.8496150671139162
 20
269.710425435950981
 30
0.0
 11
396.8496150671139162
 21
175.6734683021967101
 31
0.0
  0
LINE
  5
2DE
  8
CONTORNO
 10
321.8496150671139162
 20
177.6734683021967101
 30
0.0
 11
396.8496150671139162
 21
177.6734683021967101
 31
0.0
  0
INSERT
  5
2DF
  8
0
  2
*U17
 10
0.0
 20
0.0
 30
0.0
  0
ENDBLK
  5
2E0
  8
0
  0
BLOCK
  8
0
  2
*U17
 70
     1
 10
0.0
 20
0.0
 30
0.0
  3
*U17
  1

  0
TEXT
  5
5CE
  8
CONTORNO
 10
351.7471215157170832
 20
179.5090475184260868
 30
0.0
 40
6.3499999999999979
  1
75
 41
0.75
  7
SLDTEXTSTYLE1
  0
ENDBLK
  5
5D0
  8
0
  0
BLOCK
  8
0
  2
_D_8
 70
     0
 10
0.0
 20
0.0
 30
0.0
  3
_D_8
  1

  0
SOLID
  5
2E3
  8
CONTORNO
 10
321.8496150671119267
 20
159.9235545859872047
 30
0.0
 11
328.4536150671119117
 21
158.9075545859872136
 31
0.0
 12
328.4536150671119117
 22
160.9395545859871106
 32
0.0
 13
328.4536150671119117
 23
160.9395545859871106
 33
0.0
  0
SOLID
  5
2E4
  8
CONTORNO
 10
421.849615067111813
 20
159.92355458598621
 30
0.0
 11
415.245615067111828
 21
160.9395545859862011
 31
0.0
 12
415.245615067111828
 22
158.9075545859861904
 32
0.0
 13
415.245615067111828
 23
158.9075545859861904
 33
0.0
  0
LINE
  5
2E5
  8
CONTORNO
 10
321.8496150671139162
 20
353.5604254359510037
 30
0.0
 11
321.8496150671119267
 21
157.9235545859872047
 31
0.0
  0
LINE
  5
2E6
  8
CONTORNO
 10
421.8496150671123246
 20
209.3383744173902983
 30
0.0
 11
421.849615067111813
 21
157.92355458598621
 31
0.0
  0
LINE
  5
2E7
  8
CONTORNO
 10
321.8496150671119267
 20
159.9235545859872047
 30
0.0
 11
421.849615067111813
 21
159.92355458598621
 31
0.0
  0
INSERT
  5
2E8
  8
0
  2
*U19
 10
0.0
 20
0.0
 30
0.0
  0
ENDBLK
  5
2E9
  8
0
  0
BLOCK
  8
0
  2
*U19
 70
     1
 10
0.0
 20
0.0
 30
0.0
  3
*U19
  1

  0
TEXT
  5
5D2
  8
CONTORNO
 10
357.8323583021211789
 20
161.759133802216212
 30
0.0
 40
6.3499999999999979
  1
100
 50
0.0000000000001895
 41
0.75
  7
SLDTEXTSTYLE1
  0
ENDBLK
  5
5D4
  8
0
  0
BLOCK
  8
0
  2
_D_9
 70
     0
 10
0.0
 20
0.0
 30
0.0
  3
_D_9
  1

  0
SOLID
  5
2EC
  8
CONTORNO
 10
237.7715674473332115
 20
514.7172094837752638
 30
0.0
 11
235.585188925730705
 21
521.0310689184060493
 31
0.0
 12
233.7884856747018887
 22
520.0819211808318414
 32
0.0
 13
233.7884856747018887
 23
520.0819211808318414
 33
0.0
  0
LINE
  5
2ED
  8
CONTORNO
 10
237.7715674473332115
 20
514.7172094837752638
 30
0.0
 11
217.85737948658101
 21
552.4140661839965105
 31
0.0
  0
INSERT
  5
2EE
  8
0
  2
*U21
 10
0.0
 20
0.0
 30
0.0
  0
INSERT
  5
2EF
  8
0
  2
*U22
 10
0.0
 20
0.0
 30
0.0
  0
ENDBLK
  5
2F0
  8
0
  0
BLOCK
  8
0
  2
*U21
 70
     1
 10
0.0
 20
0.0
 30
0.0
  3
*U21
  1

  0
TEXT
  5
5D6
  8
CONTORNO
 10
219.4791306419859893
 20
553.2707916555957581
 30
0.0
 40
6.3499999999999979
  1
\U+2205
 50
297.8462324655341718
 41
0.75
  7
SLDTEXTSTYLE1
  0
ENDBLK
  5
5D8
  8
0
  0
BLOCK
  8
0
  2
*U22
 70
     1
 10
0.0
 20
0.0
 30
0.0
  3
*U22
  1

  0
TEXT
  5
5DA
  8
CONTORNO
 10
223.9562738954992938
 20
544.7957171013796369
 30
0.0
 40
6.3499999999999979
  1
360
 50
297.8462324655341718
 41
0.75
  7
SLDTEXTSTYLE1
  0
ENDBLK
  5
5DC
  8
0
  0
BLOCK
  8
0
  2
_D_10
 70
     0
 10
0.0
 20
0.0
 30
0.0
  3
_D_10
  1

  0
SOLID
  5
2F3
  8
CONTORNO
 10
321.8496150671139162
 20
236.2481835656845135
 30
0.0
 11
328.4536150671140149
 21
235.2321835656844939
 31
0.0
 12
328.4536150671140149
 22
237.2641835656845046
 32
0.0
 13
328.4536150671140149
 23
237.2641835656845046
 33
0.0
  0
SOLID
  5
2F4
  8
CONTORNO
 10
302.8496150671139162
 20
236.2481835656845135
 30
0.0
 11
296.2456150671138744
 21
237.2641835656845046
 31
0.0
 12
296.2456150671138744
 22
235.2321835656844939
 32
0.0
 13
296.2456150671138744
 23
235.2321835656844939
 33
0.0
  0
LINE
  5
2F5
  8
CONTORNO
 10
321.8496150671139162
 20
353.5604254359510037
 30
0.0
 11
321.8496150671139162
 21
234.2481835656843998
 31
0.0
  0
LINE
  5
2F6
  8
CONTORNO
 10
302.8496150671139162
 20
353.5604254359510037
 30
0.0
 11
302.8496150671139162
 21
234.2481835656843998
 31
0.0
  0
LINE
  5
2F7
  8
CONTORNO
 10
321.8496150671139162
 20
236.2481835656845135
 30
0.0
 11
334.5496150671139048
 21
236.2481835656845135
 31
0.0
  0
LINE
  5
2F8
  8
CONTORNO
 10
321.8496150671139162
 20
236.2481835656845135
 30
0.0
 11
302.8496150671139162
 21
236.2481835656845135
 31
0.0
  0
LINE
  5
2F9
  8
CONTORNO
 10
302.8496150671139162
 20
236.2481835656845135
 30
0.0
 11
290.1496150671139276
 21
236.2481835656845135
 31
0.0
  0
INSERT
  5
2FA
  8
0
  2
*U24
 10
0.0
 20
0.0
 30
0.0
  0
ENDBLK
  5
2FB
  8
0
  0
BLOCK
  8
0
  2
*U24
 70
     1
 10
0.0
 20
0.0
 30
0.0
  3
*U24
  1

  0
TEXT
  5
5DE
  8
CONTORNO
 10
305.5008105348513254
 20
238.0837627819138049
 30
0.0
 40
6.3499999999999979
  1
19
 50
359.9999999999996021
 41
0.75
  7
SLDTEXTSTYLE1
  0
ENDBLK
  5
5E0
  8
0
  0
BLOCK
  8
0
  2
_D_11
 70
     0
 10
0.0
 20
0.0
 30
0.0
  3
_D_11
  1

  0
SOLID
  5
2FE
  8
CONTORNO
 10
321.8496150671139162
 20
177.6734683021967101
 30
0.0
 11
315.2456150671138744
 21
178.6894683021967012
 31
0.0
 12
315.2456150671138744
 22
176.6574683021968042
 32
0.0
 13
315.2456150671138744
 23
176.6574683021968042
 33
0.0
  0
SOLID
  5
2FF
  8
CONTORNO
 10
246.8496150671138878
 20
177.6734683021967101
 30
0.0
 11
253.4536150671139012
 21
176.6574683021968042
 31
0.0
 12
253.4536150671139012
 22
178.6894683021967012
 32
0.0
 13
253.4536150671139012
 23
178.6894683021967012
 33
0.0
  0
LINE
  5
300
  8
CONTORNO
 10
321.8496150671139162
 20
353.5604254359510037
 30
0.0
 11
321.8496150671139162
 21
175.6734683021967101
 31
0.0
  0
LINE
  5
301
  8
CONTORNO
 10
246.8496150671138878
 20
269.710425435950981
 30
0.0
 11
246.8496150671138878
 21
175.6734683021967101
 31
0.0
  0
LINE
  5
302
  8
CONTORNO
 10
321.8496150671139162
 20
177.6734683021967101
 30
0.0
 11
246.8496150671138878
 21
177.6734683021967101
 31
0.0
  0
INSERT
  5
303
  8
0
  2
*U26
 10
0.0
 20
0.0
 30
0.0
  0
ENDBLK
  5
304
  8
0
  0
BLOCK
  8
0
  2
*U26
 70
     1
 10
0.0
 20
0.0
 30
0.0
  3
*U26
  1

  0
TEXT
  5
5E2
  8
CONTORNO
 10
280.0410954589520998
 20
179.5090475184260868
 30
0.0
 40
6.3499999999999979
  1
75
 50
359.9999999999996021
 41
0.75
  7
SLDTEXTSTYLE1
  0
ENDBLK
  5
5E4
  8
0
  0
BLOCK
  8
0
  2
_D_12
 70
     0
 10
0.0
 20
0.0
 30
0.0
  3
_D_12
  1

  0
SOLID
  5
307
  8
CONTORNO
 10
321.8496150671131772
 20
159.9235545859880006
 30
0.0
 11
315.2456150671131923
 21
160.9395545859879917
 31
0.0
 12
315.2456150671131923
 22
158.9075545859880947
 32
0.0
 13
315.2456150671131923
 23
158.9075545859880947
 33
0.0
  0
SOLID
  5
308
  8
CONTORNO
 10
221.8496150671132057
 20
159.9235545859883985
 30
0.0
 11
228.4536150671131907
 21
158.9075545859884073
 31
0.0
 12
228.4536150671131907
 22
160.9395545859883896
 32
0.0
 13
228.4536150671131907
 23
160.9395545859883896
 33
0.0
  0
LINE
  5
309
  8
CONTORNO
 10
321.8496150671139162
 20
353.5604254359510037
 30
0.0
 11
321.8496150671131772
 21
157.9235545859880006
 31
0.0
  0
LINE
  5
30A
  8
CONTORNO
 10
221.8496150671136888
 20
303.5604254359512879
 30
0.0
 11
221.8496150671132057
 21
157.9235545859883985
 31
0.0
  0
LINE
  5
30B
  8
CONTORNO
 10
321.8496150671131772
 20
159.9235545859880006
 30
0.0
 11
221.8496150671132057
 21
159.9235545859883985
 31
0.0
  0
INSERT
  5
30C
  8
0
  2
*U28
 10
0.0
 20
0.0
 30
0.0
  0
ENDBLK
  5
30D
  8
0
  0
BLOCK
  8
0
  2
*U28
 70
     1
 10
0.0
 20
0.0
 30
0.0
  3
*U28
  1

  0
TEXT
  5
5E6
  8
CONTORNO
 10
265.9708472019452188
 20
161.7591338022176046
 30
0.0
 40
6.3499999999999979
  1
100
 50
359.9999999999993747
 41
0.75
  7
SLDTEXTSTYLE1
  0
ENDBLK
  5
5E8
  8
0
  0
BLOCK
  8
0
  2
_D_13
 70
     0
 10
0.0
 20
0.0
 30
0.0
  3
_D_13
  1

  0
SOLID
  5
310
  8
CONTORNO
 10
155.7188100493794138
 20
302.6314932478168771
 30
0.0
 11
151.7674973561090894
 21
308.0196469204583991
 31
0.0
 12
150.3306563767380055
 22
306.582805941087372
 32
0.0
 13
150.3306563767380055
 23
306.582805941087372
 33
0.0
  0
LINE
  5
311
  8
CONTORNO
 10
155.7188100493794138
 20
302.6314932478168771
 30
0.0
 11
134.9124455033445997
 21
323.4378577938516059
 31
0.0
  0
INSERT
  5
312
  8
0
  2
*U30
 10
0.0
 20
0.0
 30
0.0
  0
ENDBLK
  5
313
  8
0
  0
BLOCK
  8
0
  2
*U30
 70
     1
 10
0.0
 20
0.0
 30
0.0
  3
*U30
  1

  0
TEXT
  5
5EA
  8
CONTORNO
 10
136.1683044355266077
 20
324.6937167260335855
 30
0.0
 40
6.3499999999999979
  1
R10
 50
314.9999999999998863
 41
0.75
  7
SLDTEXTSTYLE1
  0
ENDBLK
  5
5EC
  8
0
  0
BLOCK
  8
0
  2
_D_15
 70
     0
 10
0.0
 20
0.0
 30
0.0
  3
_D_15
  1

  0
SOLID
  5
316
  8
CONTORNO
 10
321.8496150671139162
 20
530.2541214057506522
 30
0.0
 11
315.2456150671138744
 21
531.2701214057507286
 31
0.0
 12
315.2456150671138744
 22
529.2381214057508032
 32
0.0
 13
315.2456150671138744
 23
529.2381214057508032
 33
0.0
  0
SOLID
  5
317
  8
CONTORNO
 10
271.8496150671139162
 20
530.2541214057506522
 30
0.0
 11
278.4536150671137875
 21
529.2381214057508032
 31
0.0
 12
278.4536150671137875
 22
531.2701214057507286
 32
0.0
 13
278.4536150671137875
 23
531.2701214057507286
 33
0.0
  0
LINE
  5
318
  8
CONTORNO
 10
321.8496150671139162
 20
357.5604254359510037
 30
0.0
 11
321.8496150671139162
 21
532.2541214057506522
 31
0.0
  0
LINE
  5
319
  8
CONTORNO
 10
271.8496150671139162
 20
516.6201626418195474
 30
0.0
 11
271.8496150671139162
 21
532.2541214057506522
 31
0.0
  0
LINE
  5
31A
  8
CONTORNO
 10
321.8496150671139162
 20
530.2541214057506522
 30
0.0
 11
271.8496150671139162
 21
530.2541214057506522
 31
0.0
  0
INSERT
  5
31B
  8
0
  2
*U32
 10
0.0
 20
0.0
 30
0.0
  0
ENDBLK
  5
31C
  8
0
  0
BLOCK
  8
0
  2
*U32
 70
     1
 10
0.0
 20
0.0
 30
0.0
  3
*U32
  1

  0
TEXT
  5
5EE
  8
CONTORNO
 10
293.3577680024732786
 20
532.0897006219801142
 30
0.0
 40
6.3499999999999979
  1
50
 50
0.0000000000004071
 41
0.75
  7
SLDTEXTSTYLE1
  0
ENDBLK
  5
5F0
  8
0
  0
BLOCK
  8
0
  2
_D_16
 70
     0
 10
0.0
 20
0.0
 30
0.0
  3
_D_16
  1

  0
SOLID
  5
31F
  8
CONTORNO
 10
500.2311859052691148
 20
355.5604254359510037
 30
0.0
 11
499.2151859052689815
 21
348.9564254359510187
 31
0.0
 12
501.2471859052689069
 22
348.9564254359510187
 32
0.0
 13
501.2471859052689069
 23
348.9564254359510187
 33
0.0
  0
SOLID
  5
320
  8
CONTORNO
 10
500.2311859052691148
 20
280.5604254359510037
 30
0.0
 11
501.2471859052689069
 21
287.164425435950875
 31
0.0
 12
499.2151859052689815
 22
287.164425435950875
 32
0.0
 13
499.2151859052689815
 23
287.164425435950875
 33
0.0
  0
LINE
  5
321
  8
CONTORNO
 10
323.8496150671139162
 20
355.5604254359510037
 30
0.0
 11
502.2311859052691148
 21
355.5604254359510037
 31
0.0
  0
LINE
  5
322
  8
CONTORNO
 10
407.6996150671138253
 20
280.5604254359510037
 30
0.0
 11
502.2311859052691148
 21
280.5604254359510037
 31
0.0
  0
LINE
  5
323
  8
CONTORNO
 10
500.2311859052691148
 20
355.5604254359510037
 30
0.0
 11
500.2311859052691148
 21
280.5604254359510037
 31
0.0
  0
INSERT
  5
324
  8
0
  2
*U34
 10
0.0
 20
0.0
 30
0.0
  0
ENDBLK
  5
325
  8
0
  0
BLOCK
  8
0
  2
*U34
 70
     1
 10
0.0
 20
0.0
 30
0.0
  3
*U34
  1

  0
TEXT
  5
5F2
  8
CONTORNO
 10
498.3956066890398802
 20
320.7719656835720912
 30
0.0
 40
6.3499999999999979
  1
75
 50
90.0000000000003837
 41
0.75
  7
SLDTEXTSTYLE1
  0
ENDBLK
  5
5F4
  8
0
  0
BLOCK
  8
0
  2
_D_17
 70
     0
 10
0.0
 20
0.0
 30
0.0
  3
_D_17
  1

  0
SOLID
  5
328
  8
CONTORNO
 10
546.9093522729832557
 20
355.5604254359510037
 30
0.0
 11
545.8933522729830656
 21
348.9564254359510187
 31
0.0
 12
547.9253522729829911
 22
348.9564254359510187
 32
0.0
 13
547.9253522729829911
 23
348.9564254359510187
 33
0.0
  0
SOLID
  5
329
  8
CONTORNO
 10
546.9093522729832557
 20
255.56042543595089
 30
0.0
 11
547.9253522729829911
 21
262.164425435950875
 31
0.0
 12
545.8933522729830656
 22
262.164425435950875
 32
0.0
 13
545.8933522729830656
 23
262.164425435950875
 33
0.0
  0
LINE
  5
32A
  8
CONTORNO
 10
323.8496150671139162
 20
355.5604254359510037
 30
0.0
 11
548.9093522729832557
 21
355.5604254359510037
 31
0.0
  0
LINE
  5
32B
  8
CONTORNO
 10
373.8496150671139162
 20
255.56042543595089
 30
0.0
 11
548.9093522729832557
 21
255.56042543595089
 31
0.0
  0
LINE
  5
32C
  8
CONTORNO
 10
546.9093522729832557
 20
355.5604254359510037
 30
0.0
 11
546.9093522729832557
 21
255.56042543595089
 31
0.0
  0
INSERT
  5
32D
  8
0
  2
*U36
 10
0.0
 20
0.0
 30
0.0
  0
ENDBLK
  5
32E
  8
0
  0
BLOCK
  8
0
  2
*U36
 70
     1
 10
0.0
 20
0.0
 30
0.0
  3
*U36
  1

  0
TEXT
  5
5F6
  8
CONTORNO
 10
545.0737730567539074
 20
300.3774145496713004
 30
0.0
 40
6.3499999999999979
  1
100
 50
90.0000000000003837
 41
0.75
  7
SLDTEXTSTYLE1
  0
ENDBLK
  5
5F8
  8
0
  0
BLOCK
  8
0
  2
SW_CENTERMARKSYMBOL_0
 70
     0
 10
0.0
 20
0.0
 30
0.0
  3
SW_CENTERMARKSYMBOL_0
  1

  0
ARC
  5
331
  8
CONTORNO
 62
     0
 10
-0.0000000000000555
 20
-19.0000000000000213
 30
0.0
 40
19.0000000000000213
 50
89.9999999999998437
 51
97.5389183569842544
  0
ARC
  5
332
  8
CONTORNO
 62
     0
 10
-0.0000000000000555
 20
-19.0000000000000213
 30
0.0
 40
19.0000000000000213
 50
82.461081643015234
 51
89.9999999999998437
  0
ARC
  5
333
  8
CONTORNO
 62
     0
 10
-0.0000000000000555
 20
-19.0000000000000213
 30
0.0
 40
19.0000000000000284
 50
180.0
 51
187.538918356985306
  0
ARC
  5
334
  8
CONTORNO
 62
     0
 10
-0.0000000000000555
 20
-19.0000000000000213
 30
0.0
 40
19.0000000000000284
 50
172.4610816430154046
 51
180.0
  0
ARC
  5
335
  8
CONTORNO
 62
     0
 10
-0.0000000000000555
 20
-19.0000000000000213
 30
0.0
 40
19.0000000000000213
 50
0.000000000000458
 51
7.5389183569840759
  0
ARC
  5
336
  8
CONTORNO
 62
     0
 10
-0.0000000000000555
 20
-19.0000000000000213
 30
0.0
 40
19.0000000000000213
 50
352.4610816430159161
 51
0.000000000000458
  0
ARC
  5
337
  8
CONTORNO
 62
     0
 10
-0.0000000000000555
 20
-19.0000000000000213
 30
0.0
 40
19.0000000000000213
 50
270.0000000000002842
 51
277.5389183569847091
  0
ARC
  5
338
  8
CONTORNO
 62
     0
 10
-0.0000000000000555
 20
-19.0000000000000213
 30
0.0
 40
19.0000000000000213
 50
262.4610816430156888
 51
270.0000000000002842
  0
ARC
  5
339
  8
CONTORNO
 62
     0
 10
-0.0000000000000555
 20
-19.0000000000000213
 30
0.0
 40
19.0000000000000107
 50
105.077836713968793
 51
164.9221632860310081
  0
ARC
  5
33A
  8
CONTORNO
 62
     0
 10
-0.0000000000000555
 20
-19.0000000000000213
 30
0.0
 40
19.0000000000000107
 50
195.0778367139697025
 51
254.9221632860310933
  0
ARC
  5
33B
  8
CONTORNO
 62
     0
 10
-0.0000000000000555
 20
-19.0000000000000213
 30
0.0
 40
19.0000000000000107
 50
285.0778367139691909
 51
344.9221632860313775
  0
ARC
  5
33C
  8
CONTORNO
 62
     0
 10
-0.0000000000000555
 20
-19.0000000000000213
 30
0.0
 40
19.0000000000000284
 50
15.0778367139686296
 51
74.9221632860308375
  0
LINE
  5
33D
  8
CONTORNO
 62
     0
 10
0.0
 20
0.0
 30
0.0
 11
0.0
 21
2.5000000000000022
 31
0.0
  0
LINE
  5
33E
  8
CONTORNO
 62
     0
 10
0.0
 20
0.0
 30
0.0
 11
0.0
 21
-2.5000000000000022
 31
0.0
  0
LINE
  5
33F
  8
CONTORNO
 62
     0
 10
0.0000000000000555
 20
5.0000000000000044
 30
0.0
 11
0.0000000000000555
 21
7.999999999999952
 31
0.0
  0
LINE
  5
340
  8
CONTORNO
 62
     0
 10
0.0
 20
-5.0000000000000044
 30
0.0
 11
0.0
 21
-8.0000000000000071
 31
0.0
  0
LINE
  5
341
  8
CONTORNO
 62
     0
 10
-0.0000000000000555
 20
-19.0000000000000213
 30
0.0
 11
-0.0000000000000555
 21
-16.5000000000000107
 31
0.0
  0
LINE
  5
342
  8
CONTORNO
 62
     0
 10
-0.0000000000000555
 20
-19.0000000000000213
 30
0.0
 11
-2.500000000000056
 21
-19.0000000000000213
 31
0.0
  0
LINE
  5
343
  8
CONTORNO
 62
     0
 10
-0.0000000000000555
 20
-19.0000000000000213
 30
0.0
 11
-0.0000000000000555
 21
-21.5000000000000213
 31
0.0
  0
LINE
  5
344
  8
CONTORNO
 62
     0
 10
-0.0000000000000555
 20
-19.0000000000000213
 30
0.0
 11
2.4999999999999449
 21
-19.0000000000000213
 31
0.0
  0
LINE
  5
345
  8
CONTORNO
 62
     0
 10
-0.0000000000000555
 20
-14.0000000000000107
 30
0.0
 11
-0.0000000000000555
 21
2.5000000000000022
 31
0.0
  0
LINE
  5
346
  8
CONTORNO
 62
     0
 10
-5.0000000000000604
 20
-19.0000000000000213
 30
0.0
 11
-21.5000000000000711
 21
-19.0000000000000213
 31
0.0
  0
LINE
  5
347
  8
CONTORNO
 62
     0
 10
-0.0000000000000555
 20
-24.0000000000000213
 30
0.0
 11
-0.0000000000000555
 21
-40.5000000000000284
 31
0.0
  0
LINE
  5
348
  8
CONTORNO
 62
     0
 10
4.9999999999999467
 20
-19.0000000000000213
 30
0.0
 11
21.4999999999999609
 21
-19.0000000000000213
 31
0.0
  0
LINE
  5
349
  8
CONTORNO
 62
     0
 10
-19.0000000000000711
 20
-19.0000000000000213
 30
0.0
 11
-21.5000000000000711
 21
-19.0000000000000213
 31
0.0
  0
LINE
  5
34A
  8
CONTORNO
 62
     0
 10
-19.0000000000000711
 20
-19.0000000000000213
 30
0.0
 11
-16.5000000000000711
 21
-19.0000000000000213
 31
0.0
  0
LINE
  5
34B
  8
CONTORNO
 62
     0
 10
-24.0000000000000817
 20
-19.0000000000000213
 30
0.0
 11
-27.0000000000000284
 21
-19.0000000000000213
 31
0.0
  0
LINE
  5
34C
  8
CONTORNO
 62
     0
 10
-14.0000000000000693
 20
-19.0000000000000213
 30
0.0
 11
-11.0000000000000604
 21
-19.0000000000000213
 31
0.0
  0
LINE
  5
34D
  8
CONTORNO
 62
     0
 10
18.9999999999999609
 20
-19.0000000000001208
 30
0.0
 11
21.4999999999999609
 21
-19.0000000000001812
 31
0.0
  0
LINE
  5
34E
  8
CONTORNO
 62
     0
 10
18.9999999999999609
 20
-19.0000000000001208
 30
0.0
 11
16.4999999999999609
 21
-19.0000000000001208
 31
0.0
  0
LINE
  5
34F
  8
CONTORNO
 62
     0
 10
23.9999999999999609
 20
-19.0000000000001812
 30
0.0
 11
26.9999999999999183
 21
-19.0000000000001812
 31
0.0
  0
LINE
  5
350
  8
CONTORNO
 62
     0
 10
13.9999999999999591
 20
-19.0000000000001208
 30
0.0
 11
10.9999999999999503
 21
-19.0000000000000711
 31
0.0
  0
LINE
  5
351
  8
CONTORNO
 62
     0
 10
-0.0000000000002776
 20
-38.0000000000000426
 30
0.0
 11
-0.0000000000002776
 21
-40.5000000000000284
 31
0.0
  0
LINE
  5
352
  8
CONTORNO
 62
     0
 10
-0.0000000000002776
 20
-38.0000000000000426
 30
0.0
 11
-0.000000000000222
 21
-35.5000000000000284
 31
0.0
  0
LINE
  5
353
  8
CONTORNO
 62
     0
 10
-0.0000000000003331
 20
-43.0000000000000284
 30
0.0
 11
-0.0000000000003331
 21
-45.9999999999999574
 31
0.0
  0
LINE
  5
354
  8
CONTORNO
 62
     0
 10
-0.000000000000222
 20
-33.0000000000000284
 30
0.0
 11
-0.0000000000001665
 21
-30.0000000000000284
 31
0.0
  0
ENDBLK
  5
355
  8
0
  0
BLOCK
  8
0
  2
SW_CENTERMARKSYMBOL_1
 70
     0
 10
0.0
 20
0.0
 30
0.0
  3
SW_CENTERMARKSYMBOL_1
  1

  0
LINE
  5
358
  8
CONTORNO
 62
     0
 10
0.0
 20
0.0
 30
0.0
 11
0.0
 21
2.500000000000056
 31
0.0
  0
LINE
  5
359
  8
CONTORNO
 62
     0
 10
0.0
 20
0.0
 30
0.0
 11
-2.5000000000000022
 21
0.0
 31
0.0
  0
LINE
  5
35A
  8
CONTORNO
 62
     0
 10
0.0
 20
0.0
 30
0.0
 11
0.0
 21
-2.4999999999999449
 31
0.0
  0
LINE
  5
35B
  8
CONTORNO
 62
     0
 10
0.0
 20
0.0
 30
0.0
 11
2.5000000000000022
 21
0.0
 31
0.0
  0
LINE
  5
35C
  8
CONTORNO
 62
     0
 10
0.0
 20
5.0000000000000044
 30
0.0
 11
0.0
 21
8.8500000000000245
 31
0.0
  0
LINE
  5
35D
  8
CONTORNO
 62
     0
 10
-5.0000000000000044
 20
0.0
 30
0.0
 11
-8.8499999999999961
 21
0.0
 31
0.0
  0
LINE
  5
35E
  8
CONTORNO
 62
     0
 10
0.0
 20
-5.0000000000000044
 30
0.0
 11
0.0
 21
-8.8499999999999694
 31
0.0
  0
LINE
  5
35F
  8
CONTORNO
 62
     0
 10
5.0000000000000044
 20
0.0
 30
0.0
 11
8.8500000000000245
 21
0.0
 31
0.0
  0
ENDBLK
  5
360
  8
0
  0
BLOCK
  8
0
  2
SW_CENTERMARKSYMBOL_2
 70
     0
 10
0.0
 20
0.0
 30
0.0
  3
SW_CENTERMARKSYMBOL_2
  1

  0
LINE
  5
363
  8
CONTORNO
 62
     0
 10
0.0
 20
0.0
 30
0.0
 11
0.0
 21
2.500000000000056
 31
0.0
  0
LINE
  5
364
  8
CONTORNO
 62
     0
 10
0.0
 20
0.0
 30
0.0
 11
-2.5000000000000022
 21
0.0
 31
0.0
  0
LINE
  5
365
  8
CONTORNO
 62
     0
 10
0.0
 20
0.0
 30
0.0
 11
0.0
 21
-2.4999999999999449
 31
0.0
  0
LINE
  5
366
  8
CONTORNO
 62
     0
 10
0.0
 20
0.0
 30
0.0
 11
2.5000000000000022
 21
0.0
 31
0.0
  0
LINE
  5
367
  8
CONTORNO
 62
     0
 10
0.0
 20
5.0000000000000044
 30
0.0
 11
0.0
 21
8.8500000000000245
 31
0.0
  0
LINE
  5
368
  8
CONTORNO
 62
     0
 10
-5.0000000000000044
 20
0.0
 30
0.0
 11
-8.8500000000000245
 21
0.0
 31
0.0
  0
LINE
  5
369
  8
CONTORNO
 62
     0
 10
0.0
 20
-5.0000000000000044
 30
0.0
 11
0.0
 21
-8.8499999999999694
 31
0.0
  0
LINE
  5
36A
  8
CONTORNO
 62
     0
 10
5.0000000000000044
 20
0.0
 30
0.0
 11
8.8500000000000245
 21
0.0
 31
0.0
  0
ENDBLK
  5
36B
  8
0
  0
BLOCK
  8
0
  2
SW_CENTERMARKSYMBOL_3
 70
     0
 10
0.0
 20
0.0
 30
0.0
  3
SW_CENTERMARKSYMBOL_3
  1

  0
LINE
  5
36E
  8
CONTORNO
 62
     0
 10
0.0
 20
0.0
 30
0.0
 11
0.0
 21
2.5000000000000022
 31
0.0
  0
LINE
  5
36F
  8
CONTORNO
 62
     0
 10
0.0
 20
0.0
 30
0.0
 11
-2.5000000000000022
 21
0.0
 31
0.0
  0
LINE
  5
370
  8
CONTORNO
 62
     0
 10
0.0
 20
0.0
 30
0.0
 11
0.0
 21
-2.5000000000000022
 31
0.0
  0
LINE
  5
371
  8
CONTORNO
 62
     0
 10
0.0
 20
0.0
 30
0.0
 11
2.5000000000000022
 21
0.0
 31
0.0
  0
LINE
  5
372
  8
CONTORNO
 62
     0
 10
0.0
 20
5.0000000000000044
 30
0.0
 11
0.0
 21
8.8500000000000245
 31
0.0
  0
LINE
  5
373
  8
CONTORNO
 62
     0
 10
-5.0000000000000044
 20
0.0
 30
0.0
 11
-8.8500000000000245
 21
0.0
 31
0.0
  0
LINE
  5
374
  8
CONTORNO
 62
     0
 10
0.0
 20
-5.0000000000000044
 30
0.0
 11
0.0
 21
-8.8500000000000245
 31
0.0
  0
LINE
  5
375
  8
CONTORNO
 62
     0
 10
5.0000000000000044
 20
0.0
 30
0.0
 11
8.8500000000000245
 21
0.0
 31
0.0
  0
ENDBLK
  5
376
  8
0
  0
BLOCK
  8
0
  2
SW_CENTERMARKSYMBOL_4
 70
     0
 10
0.0
 20
0.0
 30
0.0
  3
SW_CENTERMARKSYMBOL_4
  1

  0
LINE
  5
379
  8
CONTORNO
 62
     0
 10
0.0
 20
0.0
 30
0.0
 11
0.0
 21
2.5000000000000022
 31
0.0
  0
LINE
  5
37A
  8
CONTORNO
 62
     0
 10
0.0
 20
0.0
 30
0.0
 11
-2.5000000000000022
 21
0.0
 31
0.0
  0
LINE
  5
37B
  8
CONTORNO
 62
     0
 10
0.0
 20
0.0
 30
0.0
 11
0.0
 21
-2.5000000000000022
 31
0.0
  0
LINE
  5
37C
  8
CONTORNO
 62
     0
 10
0.0
 20
0.0
 30
0.0
 11
2.5000000000000022
 21
0.0
 31
0.0
  0
LINE
  5
37D
  8
CONTORNO
 62
     0
 10
0.0
 20
5.0000000000000044
 30
0.0
 11
0.0
 21
8.8500000000000245
 31
0.0
  0
LINE
  5
37E
  8
CONTORNO
 62
     0
 10
-5.0000000000000044
 20
0.0
 30
0.0
 11
-8.8499999999999961
 21
0.0
 31
0.0
  0
LINE
  5
37F
  8
CONTORNO
 62
     0
 10
0.0
 20
-5.0000000000000044
 30
0.0
 11
0.0
 21
-8.8500000000000245
 31
0.0
  0
LINE
  5
380
  8
CONTORNO
 62
     0
 10
5.0000000000000044
 20
0.0
 30
0.0
 11
8.8500000000000245
 21
0.0
 31
0.0
  0
ENDBLK
  5
381
  8
0
  0
BLOCK
  8
0
  2
*D42
 70
     1
 10
0.0
 20
0.0
 30
0.0
  3
*D42
  1

  0
LINE
  5
4CC
  8
CONTORNO
 62
     0
 10
446.4483828855118759
 20
399.1620183154000188
 30
0.0
 11
446.4483828855118759
 21
221.3375611816456967
 31
0.0
  0
LINE
  5
4CD
  8
CONTORNO
 62
     0
 10
371.448382885511819
 20
315.3120183153998823
 30
0.0
 11
371.448382885511819
 21
221.3375611816456967
 31
0.0
  0
LINE
  5
4CE
  8
CONTORNO
 62
     0
 10
439.8443828855118909
 20
221.3375611816456967
 30
0.0
 11
378.052382885511804
 21
221.3375611816456967
 31
0.0
  0
SOLID
  5
4CF
  8
CONTORNO
 62
     0
 10
439.8443828855118909
 20
222.4382278483122946
 30
0.0
 11
439.8443828855118909
 21
220.2368945149790136
 31
0.0
 12
446.4483828855118759
 22
221.3375611816456967
 32
0.0
 13
446.4483828855118759
 23
221.3375611816456967
 33
0.0
  0
SOLID
  5
4D0
  8
CONTORNO
 62
     0
 10
378.052382885511804
 20
222.4382278483122946
 30
0.0
 11
378.052382885511804
 21
220.2368945149790136
 31
0.0
 12
371.448382885511819
 22
221.3375611816456967
 32
0.0
 13
371.448382885511819
 23
221.3375611816456967
 33
0.0
  0
INSERT
  5
4D1
  8
0
  2
*U43
 10
0.0
 20
0.0
 30
0.0
  0
POINT
  5
4D2
  8
DEFPOINTS
 62
     0
 10
446.4483828855118759
 20
399.2245183154000188
 30
0.0
  0
POINT
  5
4D3
  8
DEFPOINTS
 62
     0
 10
371.448382885511819
 20
315.3745183153998823
 30
0.0
  0
POINT
  5
4D4
  8
DEFPOINTS
 62
     0
 10
371.448382885511819
 20
221.3375611816456967
 30
0.0
  0
ENDBLK
  5
40A
  8
0
  0
BLOCK
  8
0
  2
*U43
 70
     1
 10
0.0
 20
0.0
 30
0.0
  3
*U43
  1

  0
TEXT
  5
5FE
  8
CONTORNO
 62
     0
 10
405.3630577349406963
 20
222.9250611816457024
 30
0.0
 40
6.3499999999999979
  1
75
 41
0.75
  7
SLDTEXTSTYLE1
  0
ENDBLK
  5
600
  8
0
  0
BLOCK
  8
0
  2
*D44
 70
     1
 10
0.0
 20
0.0
 30
0.0
  3
*D44
  1

  0
LINE
  5
4D5
  8
CONTORNO
 62
     0
 10
446.4483828855118759
 20
399.1620183154000188
 30
0.0
 11
446.4483828855118759
 21
203.5876474654371862
 31
0.0
  0
LINE
  5
4D6
  8
CONTORNO
 62
     0
 10
346.4483828855117054
 20
349.1620183154001893
 30
0.0
 11
346.4483828855117054
 21
203.5876474654371862
 31
0.0
  0
LINE
  5
4D7
  8
CONTORNO
 62
     0
 10
439.8443828855118909
 20
203.5876474654371862
 30
0.0
 11
353.0523828855116903
 21
203.5876474654371862
 31
0.0
  0
SOLID
  5
4D8
  8
CONTORNO
 62
     0
 10
439.8443828855118909
 20
204.6883141321038124
 30
0.0
 11
439.8443828855118909
 21
202.486980798770503
 31
0.0
 12
446.4483828855118759
 22
203.5876474654371862
 32
0.0
 13
446.4483828855118759
 23
203.5876474654371862
 33
0.0
  0
SOLID
  5
4D9
  8
CONTORNO
 62
     0
 10
353.0523828855116903
 20
204.6883141321038124
 30
0.0
 11
353.0523828855116903
 21
202.486980798770503
 31
0.0
 12
346.4483828855117054
 22
203.5876474654371862
 32
0.0
 13
346.4483828855117054
 23
203.5876474654371862
 33
0.0
  0
INSERT
  5
4DA
  8
0
  2
*U45
 10
0.0
 20
0.0
 30
0.0
  0
POINT
  5
4DB
  8
DEFPOINTS
 62
     0
 10
446.4483828855118759
 20
399.2245183154000188
 30
0.0
  0
POINT
  5
4DC
  8
DEFPOINTS
 62
     0
 10
346.4483828855117054
 20
349.224518315400303
 30
0.0
  0
POINT
  5
4DD
  8
DEFPOINTS
 62
     0
 10
346.4483828855117054
 20
203.5876474654371862
 30
0.0
  0
ENDBLK
  5
416
  8
0
  0
BLOCK
  8
0
  2
*U45
 70
     1
 10
0.0
 20
0.0
 30
0.0
  3
*U45
  1

  0
TEXT
  5
602
  8
CONTORNO
 62
     0
 10
392.8450317067291166
 20
205.1751474654371918
 30
0.0
 40
6.3499999999999979
  1
100
 41
0.75
  7
SLDTEXTSTYLE1
  0
ENDBLK
  5
604
  8
0
  0
BLOCK
  8
0
  2
*D46
 70
     1
 10
0.0
 20
0.0
 30
0.0
  3
*D46
  1

  0
LINE
  5
4DE
  8
CONTORNO
 62
     0
 10
259.6034321232954767
 20
367.0097318717477037
 30
0.0
 11
275.6478446848213935
 21
350.965319310221787
 31
0.0
  0
INSERT
  5
4DF
  8
0
  2
*U47
 10
0.0
 20
0.0
 30
0.0
  0
SOLID
  5
4E0
  8
CONTORNO
 62
     0
 10
276.4261335486473854
 20
351.7436081740477221
 30
0.0
 11
274.8695558209955152
 21
350.1870304463956813
 31
0.0
 12
280.3175778677775156
 22
346.2955861272657785
 32
0.0
 13
280.3175778677775156
 23
346.2955861272657785
 33
0.0
  0
POINT
  5
4E1
  8
DEFPOINTS
 62
     0
 10
280.3175778677775156
 20
346.2955861272657785
 30
0.0
  0
POINT
  5
4E2
  8
DEFPOINTS
 62
     0
 10
287.3886456796428774
 20
339.224518315400303
 30
0.0
  0
ENDBLK
  5
422
  8
0
  0
BLOCK
  8
0
  2
*U47
 70
     1
 10
0.0
 20
0.0
 30
0.0
  3
*U47
  1

  0
TEXT
  5
606
  8
CONTORNO
 62
     0
 10
261.848496153562678
 20
367.0097318717477037
 30
0.0
 40
6.3499999999999979
  1
R10
 50
315.0000000000002842
 41
0.75
  7
SLDTEXTSTYLE1
  0
ENDBLK
  5
608
  8
0
  0
BLOCK
  8
0
  2
*D48
 70
     1
 10
0.0
 20
0.0
 30
0.0
  3
*D48
  1

  0
LINE
  5
4E3
  8
CONTORNO
 62
     0
 10
446.4483828855118759
 20
399.2870183154000188
 30
0.0
 11
446.4483828855118759
 21
573.9182142851996105
 31
0.0
  0
LINE
  5
4E4
  8
CONTORNO
 62
     0
 10
396.448382885511819
 20
558.3467555212686193
 30
0.0
 11
396.448382885511819
 21
573.9182142851996105
 31
0.0
  0
LINE
  5
4E5
  8
CONTORNO
 62
     0
 10
439.8443828855118909
 20
573.9182142851996105
 30
0.0
 11
403.052382885511804
 21
573.9182142851996105
 31
0.0
  0
SOLID
  5
4E6
  8
CONTORNO
 62
     0
 10
439.8443828855118909
 20
575.018880951866322
 30
0.0
 11
439.8443828855118909
 21
572.8175476185330126
 31
0.0
 12
446.4483828855118759
 22
573.9182142851996105
 32
0.0
 13
446.4483828855118759
 23
573.9182142851996105
 33
0.0
  0
SOLID
  5
4E7
  8
CONTORNO
 62
     0
 10
403.052382885511804
 20
575.018880951866322
 30
0.0
 11
403.052382885511804
 21
572.8175476185330126
 31
0.0
 12
396.448382885511819
 22
573.9182142851996105
 32
0.0
 13
396.448382885511819
 23
573.9182142851996105
 33
0.0
  0
INSERT
  5
4E8
  8
0
  2
*U49
 10
0.0
 20
0.0
 30
0.0
  0
POINT
  5
4E9
  8
DEFPOINTS
 62
     0
 10
446.4483828855118759
 20
399.2245183154000188
 30
0.0
  0
POINT
  5
4EA
  8
DEFPOINTS
 62
     0
 10
396.448382885511819
 20
558.2842555212685056
 30
0.0
  0
POINT
  5
4EB
  8
DEFPOINTS
 62
     0
 10
396.448382885511819
 20
573.9182142851996105
 30
0.0
  0
ENDBLK
  5
42A
  8
0
  0
BLOCK
  8
0
  2
*U49
 70
     1
 10
0.0
 20
0.0
 30
0.0
  3
*U49
  1

  0
TEXT
  5
60A
  8
CONTORNO
 62
     0
 10
419.0766052784617273
 20
575.505714285199474
 30
0.0
 40
6.3499999999999979
  1
50
 41
0.75
  7
SLDTEXTSTYLE1
  0
ENDBLK
  5
60C
  8
0
  0
BLOCK
  8
0
  2
*D50
 70
     1
 10
0.0
 20
0.0
 30
0.0
  3
*D50
  1

  0
LINE
  5
4EC
  8
CONTORNO
 62
     0
 10
446.5108828855121033
 20
399.2245183154000756
 30
0.0
 11
624.8299537236670176
 21
399.2245183154000756
 31
0.0
  0
LINE
  5
4ED
  8
CONTORNO
 62
     0
 10
530.3608828855120692
 20
324.2245183154000188
 30
0.0
 11
624.8299537236670176
 21
324.2245183154000188
 31
0.0
  0
LINE
  5
4EE
  8
CONTORNO
 62
     0
 10
624.8299537236670176
 20
392.6205183154002043
 30
0.0
 11
624.8299537236670176
 21
330.8285183154000038
 31
0.0
  0
SOLID
  5
4EF
  8
CONTORNO
 62
     0
 10
623.7292870570004197
 20
392.6205183154002043
 30
0.0
 11
625.9306203903336154
 21
392.6205183154002043
 31
0.0
 12
624.8299537236670176
 22
399.2245183154000756
 32
0.0
 13
624.8299537236670176
 23
399.2245183154000756
 33
0.0
  0
SOLID
  5
4F0
  8
CONTORNO
 62
     0
 10
623.7292870570004197
 20
330.8285183154000038
 30
0.0
 11
625.9306203903336154
 21
330.8285183154000038
 31
0.0
 12
624.8299537236670176
 22
324.2245183154000188
 32
0.0
 13
624.8299537236670176
 23
324.2245183154000188
 33
0.0
  0
INSERT
  5
4F1
  8
0
  2
*U51
 10
0.0
 20
0.0
 30
0.0
  0
POINT
  5
4F2
  8
DEFPOINTS
 62
     0
 10
446.4483828855119896
 20
399.2245183154000756
 30
0.0
  0
POINT
  5
4F3
  8
DEFPOINTS
 62
     0
 10
530.2983828855119555
 20
324.2245183154000188
 30
0.0
  0
POINT
  5
4F4
  8
DEFPOINTS
 62
     0
 10
624.8299537236670176
 20
324.2245183154000188
 30
0.0
  0
ENDBLK
  5
436
  8
0
  0
BLOCK
  8
0
  2
*U51
 70
     1
 10
0.0
 20
0.0
 30
0.0
  3
*U51
  1

  0
TEXT
  5
60E
  8
CONTORNO
 62
     0
 10
623.242453723667154
 20
365.1592530206116862
 30
0.0
 40
6.3499999999999979
  1
75
 50
90.0
 41
0.75
  7
SLDTEXTSTYLE1
  0
ENDBLK
  5
610
  8
0
  0
BLOCK
  8
0
  2
*D52
 70
     1
 10
0.0
 20
0.0
 30
0.0
  3
*D52
  1

  0
LINE
  5
4F5
  8
CONTORNO
 62
     0
 10
446.5108828855121033
 20
399.2245183154000756
 30
0.0
 11
671.5081200913812154
 21
399.2245183154001893
 31
0.0
  0
LINE
  5
4F6
  8
CONTORNO
 62
     0
 10
496.5108828855121033
 20
299.2245183154000188
 30
0.0
 11
671.5081200913812154
 21
299.2245183154000188
 31
0.0
  0
LINE
  5
4F7
  8
CONTORNO
 62
     0
 10
671.5081200913812154
 20
392.6205183154002043
 30
0.0
 11
671.5081200913812154
 21
305.8285183154000038
 31
0.0
  0
SOLID
  5
4F8
  8
CONTORNO
 62
     0
 10
670.4074534247145039
 20
392.6205183154002043
 30
0.0
 11
672.6087867580479269
 21
392.6205183154002043
 31
0.0
 12
671.5081200913812154
 22
399.2245183154001893
 32
0.0
 13
671.5081200913812154
 23
399.2245183154001893
 33
0.0
  0
SOLID
  5
4F9
  8
CONTORNO
 62
     0
 10
670.4074534247145039
 20
305.8285183154000038
 30
0.0
 11
672.6087867580479269
 21
305.8285183154000038
 31
0.0
 12
671.5081200913812154
 22
299.2245183154000188
 32
0.0
 13
671.5081200913812154
 23
299.2245183154000188
 33
0.0
  0
INSERT
  5
4FA
  8
0
  2
*U53
 10
0.0
 20
0.0
 30
0.0
  0
POINT
  5
4FB
  8
DEFPOINTS
 62
     0
 10
446.4483828855119896
 20
399.2245183154000756
 30
0.0
  0
POINT
  5
4FC
  8
DEFPOINTS
 62
     0
 10
496.4483828855119896
 20
299.2245183154000188
 30
0.0
  0
POINT
  5
4FD
  8
DEFPOINTS
 62
     0
 10
671.5081200913812154
 20
299.2245183154000188
 30
0.0
  0
ENDBLK
  5
442
  8
0
  0
BLOCK
  8
0
  2
*U53
 70
     1
 10
0.0
 20
0.0
 30
0.0
  3
*U53
  1

  0
TEXT
  5
612
  8
CONTORNO
 62
     0
 10
669.9206200913813518
 20
346.3169241155060831
 30
0.0
 40
6.3499999999999979
  1
100
 50
90.0
 41
0.75
  7
SLDTEXTSTYLE1
  0
ENDBLK
  5
614
  8
0
  0
BLOCK
  8
0
  2
*D54
 70
     1
 10
0.0
 20
0.0
 30
0.0
  3
*D54
  1

  0
LINE
  5
4FE
  8
CONTORNO
 62
     0
 10
446.5108828855121033
 20
399.2245183154000756
 30
0.0
 11
562.3298535202932271
 21
399.2245183154000756
 31
0.0
  0
LINE
  5
4FF
  8
CONTORNO
 62
     0
 10
446.5108828855117054
 20
380.2245183153999051
 30
0.0
 11
562.3298535202932271
 21
380.2245183153999051
 31
0.0
  0
LINE
  5
500
  8
CONTORNO
 62
     0
 10
562.3298535202932271
 20
392.6205183154002043
 30
0.0
 11
562.3298535202932271
 21
386.8285183154000038
 31
0.0
  0
SOLID
  5
501
  8
CONTORNO
 62
     0
 10
561.2291868536265156
 20
392.6205183154002043
 30
0.0
 11
563.4305201869599387
 21
392.6205183154002043
 31
0.0
 12
562.3298535202932271
 22
399.2245183154000756
 32
0.0
 13
562.3298535202932271
 23
399.2245183154000756
 33
0.0
  0
SOLID
  5
502
  8
CONTORNO
 62
     0
 10
561.2291868536265156
 20
386.8285183154000038
 30
0.0
 11
563.4305201869599387
 21
386.8285183154000038
 31
0.0
 12
562.3298535202932271
 22
380.2245183153999051
 32
0.0
 13
562.3298535202932271
 23
380.2245183153999051
 33
0.0
  0
INSERT
  5
503
  8
0
  2
*U55
 10
0.0
 20
0.0
 30
0.0
  0
POINT
  5
504
  8
DEFPOINTS
 62
     0
 10
446.4483828855119896
 20
399.2245183154000756
 30
0.0
  0
POINT
  5
505
  8
DEFPOINTS
 62
     0
 10
446.4483828855118759
 20
380.2245183153999051
 30
0.0
  0
POINT
  5
506
  8
DEFPOINTS
 62
     0
 10
562.3298535202932271
 20
380.2245183153999051
 30
0.0
  0
ENDBLK
  5
44E
  8
0
  0
BLOCK
  8
0
  2
*U55
 70
     1
 10
0.0
 20
0.0
 30
0.0
  3
*U55
  1

  0
TEXT
  5
616
  8
CONTORNO
 62
     0
 10
560.7423535202932499
 20
386.7198076349743019
 30
0.0
 40
6.3499999999999979
  1
19
 50
90.0
 41
0.75
  7
SLDTEXTSTYLE1
  0
ENDBLK
  5
618
  8
0
  0
BLOCK
  8
0
  2
*D56
 70
     1
 10
0.0
 20
0.0
 30
0.0
  3
*D56
  1

  0
LINE
  5
507
  8
CONTORNO
 62
     0
 10
446.5108828855121033
 20
399.2245183154000756
 30
0.0
 11
562.3298535202932271
 21
399.2245183154000756
 31
0.0
  0
LINE
  5
508
  8
CONTORNO
 62
     0
 10
446.5108828855121033
 20
418.2245183154000188
 30
0.0
 11
562.3298535202932271
 21
418.2245183154000188
 31
0.0
  0
LINE
  5
509
  8
CONTORNO
 62
     0
 10
562.3298535202932271
 20
405.8285183154000038
 30
0.0
 11
562.3298535202932271
 21
411.6205183154000906
 31
0.0
  0
SOLID
  5
50A
  8
CONTORNO
 62
     0
 10
561.2291868536266293
 20
405.8285183154000038
 30
0.0
 11
563.4305201869600523
 21
405.8285183154000038
 31
0.0
 12
562.3298535202932271
 22
399.2245183154000756
 32
0.0
 13
562.3298535202932271
 23
399.2245183154000756
 33
0.0
  0
SOLID
  5
50B
  8
CONTORNO
 62
     0
 10
561.2291868536266293
 20
411.6205183154000906
 30
0.0
 11
563.4305201869600523
 21
411.6205183154000906
 31
0.0
 12
562.3298535202932271
 22
418.2245183154000188
 32
0.0
 13
562.3298535202932271
 23
418.2245183154000188
 33
0.0
  0
INSERT
  5
50C
  8
0
  2
*U57
 10
0.0
 20
0.0
 30
0.0
  0
POINT
  5
50D
  8
DEFPOINTS
 62
     0
 10
446.4483828855119896
 20
399.2245183154000756
 30
0.0
  0
POINT
  5
50E
  8
DEFPOINTS
 62
     0
 10
446.4483828855119896
 20
418.2245183154000188
 30
0.0
  0
POINT
  5
50F
  8
DEFPOINTS
 62
     0
 10
562.3298535202932271
 20
418.2245183154000188
 30
0.0
  0
ENDBLK
  5
45A
  8
0
  0
BLOCK
  8
0
  2
*U57
 70
     1
 10
0.0
 20
0.0
 30
0.0
  3
*U57
  1

  0
TEXT
  5
61A
  8
CONTORNO
 62
     0
 10
560.7423535202932499
 20
408.0683423028689276
 30
0.0
 40
6.3499999999999979
  1
19
 50
90.0
 41
0.75
  7
SLDTEXTSTYLE1
  0
ENDBLK
  5
61C
  8
0
  0
BLOCK
  8
0
  2
*D58
 70
     1
 10
0.0
 20
0.0
 30
0.0
  3
*D58
  1

  0
LINE
  5
510
  8
CONTORNO
 62
     0
 10
446.5108828855121033
 20
399.2245183154000756
 30
0.0
 11
579.7633507039664664
 21
399.2245183154000756
 31
0.0
  0
LINE
  5
511
  8
CONTORNO
 62
     0
 10
605.445620091380988
 20
449.2245183153984271
 30
0.0
 11
579.7633507039664664
 21
449.2245183153984271
 31
0.0
  0
LINE
  5
512
  8
CONTORNO
 62
     0
 10
579.7633507039664664
 20
405.8285183154000038
 30
0.0
 11
579.7633507039664664
 21
442.6205183153983853
 31
0.0
  0
SOLID
  5
513
  8
CONTORNO
 62
     0
 10
578.6626840372998686
 20
405.8285183154000038
 30
0.0
 11
580.8640173706334053
 21
405.8285183154000038
 31
0.0
 12
579.7633507039664664
 22
399.2245183154000756
 32
0.0
 13
579.7633507039664664
 23
399.2245183154000756
 33
0.0
  0
SOLID
  5
514
  8
CONTORNO
 62
     0
 10
578.6626840372998686
 20
442.6205183153983853
 30
0.0
 11
580.8640173706334053
 21
442.6205183153983853
 31
0.0
 12
579.7633507039664664
 22
449.2245183153984271
 32
0.0
 13
579.7633507039664664
 23
449.2245183153984271
 33
0.0
  0
INSERT
  5
515
  8
0
  2
*U59
 10
0.0
 20
0.0
 30
0.0
  0
POINT
  5
516
  8
DEFPOINTS
 62
     0
 10
446.4483828855119896
 20
399.2245183154000756
 30
0.0
  0
POINT
  5
517
  8
DEFPOINTS
 62
     0
 10
605.5081200913812154
 20
449.2245183153984271
 30
0.0
  0
POINT
  5
518
  8
DEFPOINTS
 62
     0
 10
579.7633507039664664
 20
449.2245183153984271
 30
0.0
  0
ENDBLK
  5
466
  8
0
  0
BLOCK
  8
0
  2
*U59
 70
     1
 10
0.0
 20
0.0
 30
0.0
  3
*U59
  1

  0
TEXT
  5
61E
  8
CONTORNO
 62
     0
 10
578.1758507039667165
 20
421.9625091090903197
 30
0.0
 40
6.3499999999999979
  1
50
 50
90.0
 41
0.75
  7
SLDTEXTSTYLE1
  0
ENDBLK
  5
620
  8
0
  0
BLOCK
  8
0
  2
*D60
 70
     1
 10
0.0
 20
0.0
 30
0.0
  3
*D60
  1

  0
LINE
  5
519
  8
CONTORNO
 62
     0
 10
446.5108828855121033
 20
399.2245183154000756
 30
0.0
 11
624.8299537236670176
 21
399.2245183154000756
 31
0.0
  0
LINE
  5
51A
  8
CONTORNO
 62
     0
 10
530.3608828855120692
 20
474.2245183154000188
 30
0.0
 11
624.8299537236670176
 21
474.2245183154000188
 31
0.0
  0
LINE
  5
51B
  8
CONTORNO
 62
     0
 10
624.8299537236670176
 20
405.8285183154000038
 30
0.0
 11
624.8299537236670176
 21
467.6205183153999769
 31
0.0
  0
SOLID
  5
51C
  8
CONTORNO
 62
     0
 10
623.7292870570004197
 20
405.8285183154000038
 30
0.0
 11
625.9306203903336154
 21
405.8285183154000038
 31
0.0
 12
624.8299537236670176
 22
399.2245183154000756
 32
0.0
 13
624.8299537236670176
 23
399.2245183154000756
 33
0.0
  0
SOLID
  5
51D
  8
CONTORNO
 62
     0
 10
623.7292870570004197
 20
467.6205183153999769
 30
0.0
 11
625.9306203903336154
 21
467.6205183153999769
 31
0.0
 12
624.8299537236670176
 22
474.2245183154000188
 32
0.0
 13
624.8299537236670176
 23
474.2245183154000188
 33
0.0
  0
INSERT
  5
51E
  8
0
  2
*U61
 10
0.0
 20
0.0
 30
0.0
  0
POINT
  5
51F
  8
DEFPOINTS
 62
     0
 10
446.4483828855119896
 20
399.2245183154000756
 30
0.0
  0
POINT
  5
520
  8
DEFPOINTS
 62
     0
 10
530.2983828855119555
 20
474.2245183154000188
 30
0.0
  0
POINT
  5
521
  8
DEFPOINTS
 62
     0
 10
624.8299537236670176
 20
474.2245183154000188
 30
0.0
  0
ENDBLK
  5
472
  8
0
  0
BLOCK
  8
0
  2
*U61
 70
     1
 10
0.0
 20
0.0
 30
0.0
  3
*U61
  1

  0
TEXT
  5
622
  8
CONTORNO
 62
     0
 10
623.242453723667154
 20
430.7263305489801724
 30
0.0
 40
6.3499999999999979
  1
75
 50
90.0
 41
0.75
  7
SLDTEXTSTYLE1
  0
ENDBLK
  5
624
  8
0
  0
BLOCK
  8
0
  2
*D62
 70
     1
 10
0.0
 20
0.0
 30
0.0
  3
*D62
  1

  0
LINE
  5
522
  8
CONTORNO
 62
     0
 10
446.5108828855121033
 20
399.2245183154000756
 30
0.0
 11
671.5081200913812154
 21
399.2245183154001893
 31
0.0
  0
LINE
  5
523
  8
CONTORNO
 62
     0
 10
590.7329339040715013
 20
499.2245183154000188
 30
0.0
 11
671.5081200913812154
 21
499.2245183154000188
 31
0.0
  0
LINE
  5
524
  8
CONTORNO
 62
     0
 10
671.5081200913812154
 20
405.8285183154000038
 30
0.0
 11
671.5081200913812154
 21
492.6205183154002043
 31
0.0
  0
SOLID
  5
525
  8
CONTORNO
 62
     0
 10
670.4074534247145039
 20
405.8285183154000038
 30
0.0
 11
672.6087867580478132
 21
405.8285183154000038
 31
0.0
 12
671.5081200913812154
 22
399.2245183154001893
 32
0.0
 13
671.5081200913812154
 23
399.2245183154001893
 33
0.0
  0
SOLID
  5
526
  8
CONTORNO
 62
     0
 10
670.4074534247145039
 20
492.6205183154002043
 30
0.0
 11
672.6087867580478132
 21
492.6205183154002043
 31
0.0
 12
671.5081200913812154
 22
499.2245183154000188
 32
0.0
 13
671.5081200913812154
 23
499.2245183154000188
 33
0.0
  0
INSERT
  5
527
  8
0
  2
*U63
 10
0.0
 20
0.0
 30
0.0
  0
POINT
  5
528
  8
DEFPOINTS
 62
     0
 10
446.4483828855119896
 20
399.2245183154000756
 30
0.0
  0
POINT
  5
529
  8
DEFPOINTS
 62
     0
 10
590.6704339040715013
 20
499.2245183154000188
 30
0.0
  0
POINT
  5
52A
  8
DEFPOINTS
 62
     0
 10
671.5081200913812154
 20
499.2245183154000188
 30
0.0
  0
ENDBLK
  5
47E
  8
0
  0
BLOCK
  8
0
  2
*U63
 70
     1
 10
0.0
 20
0.0
 30
0.0
  3
*U63
  1

  0
TEXT
  5
626
  8
CONTORNO
 62
     0
 10
669.9206200913812381
 20
445.7177116821131904
 30
0.0
 40
6.3499999999999979
  1
100
 50
90.0
 41
0.75
  7
SLDTEXTSTYLE1
  0
ENDBLK
  5
628
  8
0
  0
BLOCK
  8
0
  2
*D64
 70
     1
 10
0.0
 20
0.0
 30
0.0
  3
*D64
  1

  0
LINE
  5
52B
  8
CONTORNO
 62
     0
 10
446.4483828855118759
 20
399.1620183154000188
 30
0.0
 11
446.4483828855118759
 21
279.9122764451333865
 31
0.0
  0
LINE
  5
52C
  8
CONTORNO
 62
     0
 10
465.4483828855117054
 20
399.1620183154000188
 30
0.0
 11
465.4483828855117054
 21
279.9122764451333865
 31
0.0
  0
LINE
  5
52D
  8
CONTORNO
 62
     0
 10
453.052382885511804
 20
279.9122764451333865
 30
0.0
 11
458.8443828855117204
 21
279.9122764451333865
 31
0.0
  0
SOLID
  5
52E
  8
CONTORNO
 62
     0
 10
453.052382885511804
 20
281.012943111800098
 30
0.0
 11
453.052382885511804
 21
278.8116097784667886
 31
0.0
 12
446.4483828855118759
 22
279.9122764451333865
 32
0.0
 13
446.4483828855118759
 23
279.9122764451333865
 33
0.0
  0
SOLID
  5
52F
  8
CONTORNO
 62
     0
 10
458.8443828855117204
 20
281.012943111800098
 30
0.0
 11
458.8443828855117204
 21
278.8116097784667886
 31
0.0
 12
465.4483828855117054
 22
279.9122764451333865
 32
0.0
 13
465.4483828855117054
 23
279.9122764451333865
 33
0.0
  0
INSERT
  5
530
  8
0
  2
*U65
 10
0.0
 20
0.0
 30
0.0
  0
POINT
  5
531
  8
DEFPOINTS
 62
     0
 10
446.4483828855118759
 20
399.2245183154000188
 30
0.0
  0
POINT
  5
532
  8
DEFPOINTS
 62
     0
 10
465.4483828855117054
 20
399.2245183154000188
 30
0.0
  0
POINT
  5
533
  8
DEFPOINTS
 62
     0
 10
465.4483828855117054
 20
279.9122764451333865
 30
0.0
  0
ENDBLK
  5
48A
  8
0
  0
BLOCK
  8
0
  2
*U65
 70
     1
 10
0.0
 20
0.0
 30
0.0
  3
*U65
  1

  0
TEXT
  5
62A
  8
CONTORNO
 62
     0
 10
452.1254589032031959
 20
281.4997764451334206
 30
0.0
 40
6.3499999999999979
  1
19
 41
0.75
  7
SLDTEXTSTYLE1
  0
ENDBLK
  5
62C
  8
0
  0
BLOCK
  8
0
  2
*D66
 70
     1
 10
0.0
 20
0.0
 30
0.0
  3
*D66
  1

  0
LINE
  5
534
  8
CONTORNO
 62
     0
 10
446.4483828855118759
 20
399.1620183154000188
 30
0.0
 11
446.4483828855118759
 21
261.2748670431146252
 31
0.0
  0
LINE
  5
535
  8
CONTORNO
 62
     0
 10
496.4483828855119896
 20
240.2272811095311909
 30
0.0
 11
496.4483828855119896
 21
261.2748670431146252
 31
0.0
  0
LINE
  5
536
  8
CONTORNO
 62
     0
 10
453.052382885511804
 20
261.2748670431146252
 30
0.0
 11
489.8443828855118909
 21
261.2748670431146252
 31
0.0
  0
SOLID
  5
537
  8
CONTORNO
 62
     0
 10
453.052382885511804
 20
262.3755337097811093
 30
0.0
 11
453.052382885511804
 21
260.1742003764480273
 31
0.0
 12
446.4483828855118759
 22
261.2748670431146252
 32
0.0
 13
446.4483828855118759
 23
261.2748670431146252
 33
0.0
  0
SOLID
  5
538
  8
CONTORNO
 62
     0
 10
489.8443828855118909
 20
262.3755337097811093
 30
0.0
 11
489.8443828855118909
 21
260.1742003764480273
 31
0.0
 12
496.4483828855119896
 22
261.2748670431146252
 32
0.0
 13
496.4483828855119896
 23
261.2748670431146252
 33
0.0
  0
INSERT
  5
539
  8
0
  2
*U67
 10
0.0
 20
0.0
 30
0.0
  0
POINT
  5
53A
  8
DEFPOINTS
 62
     0
 10
446.4483828855118759
 20
399.2245183154000188
 30
0.0
  0
POINT
  5
53B
  8
DEFPOINTS
 62
     0
 10
496.4483828855119896
 20
240.1647811095311909
 30
0.0
  0
POINT
  5
53C
  8
DEFPOINTS
 62
     0
 10
496.4483828855119896
 20
261.2748670431146252
 30
0.0
  0
ENDBLK
  5
496
  8
0
  0
BLOCK
  8
0
  2
*U67
 70
     1
 10
0.0
 20
0.0
 30
0.0
  3
*U67
  1

  0
TEXT
  5
62E
  8
CONTORNO
 62
     0
 10
465.4847670332646885
 20
262.8623670431144888
 30
0.0
 40
6.3499999999999979
  1
50
 41
0.75
  7
SLDTEXTSTYLE1
  0
ENDBLK
  5
630
  8
0
  0
BLOCK
  8
0
  2
*D68
 70
     1
 10
0.0
 20
0.0
 30
0.0
  3
*D68
  1

  0
LINE
  5
53D
  8
CONTORNO
 62
     0
 10
446.4483828855118759
 20
399.1620183154000188
 30
0.0
 11
446.4483828855118759
 21
221.3375611816456967
 31
0.0
  0
LINE
  5
53E
  8
CONTORNO
 62
     0
 10
521.448382885511819
 20
315.3120183153998823
 30
0.0
 11
521.448382885511819
 21
221.3375611816456967
 31
0.0
  0
LINE
  5
53F
  8
CONTORNO
 62
     0
 10
453.052382885511804
 20
221.3375611816456967
 30
0.0
 11
514.8443828855117772
 21
221.3375611816456967
 31
0.0
  0
SOLID
  5
540
  8
CONTORNO
 62
     0
 10
453.052382885511804
 20
222.4382278483122946
 30
0.0
 11
453.052382885511804
 21
220.2368945149790136
 31
0.0
 12
446.4483828855118759
 22
221.3375611816456967
 32
0.0
 13
446.4483828855118759
 23
221.3375611816456967
 33
0.0
  0
SOLID
  5
541
  8
CONTORNO
 62
     0
 10
514.8443828855117772
 20
222.4382278483122946
 30
0.0
 11
514.8443828855117772
 21
220.2368945149790136
 31
0.0
 12
521.448382885511819
 22
221.3375611816456967
 32
0.0
 13
521.448382885511819
 23
221.3375611816456967
 33
0.0
  0
INSERT
  5
542
  8
0
  2
*U69
 10
0.0
 20
0.0
 30
0.0
  0
POINT
  5
543
  8
DEFPOINTS
 62
     0
 10
446.4483828855118759
 20
399.2245183154000188
 30
0.0
  0
POINT
  5
544
  8
DEFPOINTS
 62
     0
 10
521.448382885511819
 20
315.3745183153998823
 30
0.0
  0
POINT
  5
545
  8
DEFPOINTS
 62
     0
 10
521.448382885511819
 20
221.3375611816456967
 30
0.0
  0
ENDBLK
  5
4A2
  8
0
  0
BLOCK
  8
0
  2
*U69
 70
     1
 10
0.0
 20
0.0
 30
0.0
  3
*U69
  1

  0
TEXT
  5
632
  8
CONTORNO
 62
     0
 10
477.0690837917052818
 20
222.9250611816457024
 30
0.0
 40
6.3499999999999979
  1
75
 41
0.75
  7
SLDTEXTSTYLE1
  0
ENDBLK
  5
634
  8
0
  0
BLOCK
  8
0
  2
*D70
 70
     1
 10
0.0
 20
0.0
 30
0.0
  3
*D70
  1

  0
LINE
  5
546
  8
CONTORNO
 62
     0
 10
446.4483828855118759
 20
399.1620183154000188
 30
0.0
 11
446.4483828855118759
 21
203.5876474654371862
 31
0.0
  0
LINE
  5
547
  8
CONTORNO
 62
     0
 10
546.4483828855103411
 20
254.9399672968393133
 30
0.0
 11
546.4483828855103411
 21
203.5876474654371862
 31
0.0
  0
LINE
  5
548
  8
CONTORNO
 62
     0
 10
453.052382885511804
 20
203.5876474654371862
 30
0.0
 11
539.8443828855102993
 21
203.5876474654371862
 31
0.0
  0
SOLID
  5
549
  8
CONTORNO
 62
     0
 10
453.052382885511804
 20
204.6883141321038977
 30
0.0
 11
453.052382885511804
 21
202.486980798770503
 31
0.0
 12
446.4483828855118759
 22
203.5876474654371862
 32
0.0
 13
446.4483828855118759
 23
203.5876474654371862
 33
0.0
  0
SOLID
  5
54A
  8
CONTORNO
 62
     0
 10
539.8443828855102993
 20
204.6883141321038977
 30
0.0
 11
539.8443828855102993
 21
202.486980798770503
 31
0.0
 12
546.4483828855103411
 22
203.5876474654371862
 32
0.0
 13
546.4483828855103411
 23
203.5876474654371862
 33
0.0
  0
INSERT
  5
54B
  8
0
  2
*U71
 10
0.0
 20
0.0
 30
0.0
  0
POINT
  5
54C
  8
DEFPOINTS
 62
     0
 10
446.4483828855118759
 20
399.2245183154000188
 30
0.0
  0
POINT
  5
54D
  8
DEFPOINTS
 62
     0
 10
546.4483828855103411
 20
255.0024672968393133
 30
0.0
  0
POINT
  5
54E
  8
DEFPOINTS
 62
     0
 10
546.4483828855103411
 20
203.5876474654371862
 30
0.0
  0
ENDBLK
  5
4AE
  8
0
  0
BLOCK
  8
0
  2
*U71
 70
     1
 10
0.0
 20
0.0
 30
0.0
  3
*U71
  1

  0
TEXT
  5
636
  8
CONTORNO
 62
     0
 10
484.706542806904281
 20
205.1751474654371918
 30
0.0
 40
6.3499999999999979
  1
100
 41
0.75
  7
SLDTEXTSTYLE1
  0
ENDBLK
  5
638
  8
0
  0
BLOCK
  8
0
  2
*D72
 70
     1
 10
0.0
 20
0.0
 30
0.0
  3
*D72
  1

  0
LINE
  5
54F
  8
CONTORNO
 62
     0
 10
343.3194419482978219
 20
594.4439726972523204
 30
0.0
 11
359.2856051186142849
 21
564.2205879290678467
 31
0.0
  0
INSERT
  5
550
  8
0
  2
*U73
 10
0.0
 20
0.0
 30
0.0
  0
SOLID
  5
551
  8
CONTORNO
 62
     0
 10
360.2588193795882034
 20
564.734709620253966
 30
0.0
 11
358.3123908576404233
 21
563.7064662378815001
 31
0.0
 12
362.3703352657311143
 22
558.3813023632244494
 32
0.0
 13
362.3703352657311143
 23
558.3813023632244494
 33
0.0
  0
POINT
  5
552
  8
DEFPOINTS
 62
     0
 10
362.3703352657311143
 20
558.3813023632244494
 30
0.0
  0
POINT
  5
553
  8
DEFPOINTS
 62
     0
 10
530.5264305052927511
 20
240.0677342675751049
 30
0.0
  0
ENDBLK
  5
4BA
  8
0
  0
BLOCK
  8
0
  2
*U73
 70
     1
 10
0.0
 20
0.0
 30
0.0
  3
*U73
  1

  0
TEXT
  5
63A
  8
CONTORNO
 62
     0
 10
345.4646380331441264
 20
593.7818199523660496
 30
0.0
 40
6.3499999999999979
  1
\U+2205360
 50
297.8462324655346833
 41
0.75
  7
SLDTEXTSTYLE1
  0
ENDBLK
  5
63C
  8
0
  0
BLOCK
  8
0
  2
*D74
 70
     1
 10
0.0
 20
0.0
 30
0.0
  3
*D74
  1

  0
LINE
  5
554
  8
CONTORNO
 62
     0
 10
446.4483828855118759
 20
399.1620183154000188
 30
0.0
 11
446.4483828855118759
 21
279.9122764451333865
 31
0.0
  0
LINE
  5
555
  8
CONTORNO
 62
     0
 10
427.4483828855117054
 20
399.1620183154000188
 30
0.0
 11
427.4483828855117054
 21
279.9122764451333865
 31
0.0
  0
LINE
  5
556
  8
CONTORNO
 62
     0
 10
439.8443828855118909
 20
279.9122764451333865
 30
0.0
 11
434.052382885511804
 21
279.9122764451333865
 31
0.0
  0
SOLID
  5
557
  8
CONTORNO
 62
     0
 10
439.8443828855118909
 20
281.012943111800098
 30
0.0
 11
439.8443828855118909
 21
278.8116097784667886
 31
0.0
 12
446.4483828855118759
 22
279.9122764451333865
 32
0.0
 13
446.4483828855118759
 23
279.9122764451333865
 33
0.0
  0
SOLID
  5
558
  8
CONTORNO
 62
     0
 10
434.052382885511804
 20
281.012943111800098
 30
0.0
 11
434.052382885511804
 21
278.8116097784667886
 31
0.0
 12
427.4483828855117054
 22
279.9122764451333865
 32
0.0
 13
427.4483828855117054
 23
279.9122764451333865
 33
0.0
  0
INSERT
  5
559
  8
0
  2
*U75
 10
0.0
 20
0.0
 30
0.0
  0
POINT
  5
55A
  8
DEFPOINTS
 62
     0
 10
446.4483828855118759
 20
399.2245183154000188
 30
0.0
  0
POINT
  5
55B
  8
DEFPOINTS
 62
     0
 10
427.4483828855117054
 20
399.2245183154000188
 30
0.0
  0
POINT
  5
55C
  8
DEFPOINTS
 62
     0
 10
427.4483828855117054
 20
279.9122764451333865
 30
0.0
  0
ENDBLK
  5
4C2
  8
0
  0
BLOCK
  8
0
  2
*U75
 70
     1
 10
0.0
 20
0.0
 30
0.0
  3
*U75
  1

  0
TEXT
  5
63E
  8
CONTORNO
 62
     0
 10
431.6165228108400242
 20
281.4997764451334206
 30
0.0
 40
6.3499999999999979
  1
19
 41
0.75
  7
SLDTEXTSTYLE1
  0
ENDBLK
  5
640
  8
0
  0
BLOCK
  8
0
  2
*U76
 70
     1
 10
0.0
 20
0.0
 30
0.0
  3
*U76
  1

  0
TEXT
  5
5FA
  8
0
 62
     7
 10
394.1920856159799769
 20
141.3452041832981081
 30
0.0
 40
5.2916666666666652
  1
B
 41
0.75
  7
SLDTEXTSTYLE1
  0
ENDBLK
  5
5FC
  8
0
  0
ENDSEC
  0
SECTION
  2
ENTITIES
  0
ARC
  5
79A
  8
0
  6
CONTINUOUS
 62
     7
 10
121.2280064552040955
 20
34.5227055643551566
 30
0.0
 40
10.0
 50
229.3542922356471081
 51
340.0216087291610165
  0
LINE
  5
79B
  8
0
  6
CONTINUOUS
 62
     7
 10
130.6262219013763968
 20
31.106048363621511
 30
0.0
 11
150.8049095411637097
 21
86.6116618091296431
 31
0.0
  0
LINE
  5
79C
  8
0
  6
CONTINUOUS
 62
     7
 10
150.8049095411637097
 20
86.6116618091296431
 30
0.0
 11
333.3389775281556808
 21
20.2526448937460195
 31
0.0
  0
ARC
  5
79D
  8
0
  6
CONTINUOUS
 62
     7
 10
336.755634728889504
 20
29.6508603399184594
 30
0.0
 40
10.0000000000000302
 50
250.0216087291609028
 51
308.0558899783654851
  0
ARC
  5
79E
  8
0
  6
CONTINUOUS
 62
     7
 10
360.9503834821937858
 20
52.7759779430263123
 30
0.0
 40
10.0
 50
319.3542922356469944
 51
70.0216087291609171
  0
LINE
  5
79F
  8
0
  6
CONTINUOUS
 62
     7
 10
364.3670406829276089
 20
62.1741933891988481
 30
0.0
 11
308.8614272374193774
 21
82.3528810289861042
 31
0.0
  0
LINE
  5
7A0
  8
0
  6
CONTINUOUS
 62
     7
 10
308.8614272374193774
 20
82.3528810289861042
 30
0.0
 11
375.2204441528025995
 21
264.886949015978189
 31
0.0
  0
ARC
  5
7A1
  8
0
  6
CONTINUOUS
 62
     7
 10
365.8222287066300282
 20
268.3036062167117279
 30
0.0
 40
10.0000000000000693
 50
340.0216087291610165
 51
38.055889978364398
  0
ARC
  5
7A2
  8
0
  6
CONTINUOUS
 62
     7
 10
342.6971111035226158
 20
292.4983549700153844
 30
0.0
 40
9.9999999999999432
 50
49.3542922356471223
 51
160.0216087291609028
  0
LINE
  5
7A3
  8
0
  6
CONTINUOUS
 62
     7
 10
333.2988956573502719
 20
295.9150121707490939
 30
0.0
 11
313.1202080175627884
 21
240.4093987252412035
 31
0.0
  0
LINE
  5
7A4
  8
0
  6
CONTINUOUS
 62
     7
 10
313.1202080175627884
 20
240.4093987252412035
 30
0.0
 11
130.5861400305709026
 21
306.7684156406248235
 31
0.0
  0
ARC
  5
7A5
  8
0
  6
CONTINUOUS
 62
     7
 10
127.1694828298371931
 20
297.370200194452309
 30
0.0
 40
10.0000000000000409
 50
70.0216087291609171
 51
128.0558899783653999
  0
ARC
  5
7A6
  8
0
  6
CONTINUOUS
 62
     7
 10
102.9747340765320018
 20
274.2450825913430776
 30
0.0
 40
10.0000000000000107
 50
139.3542922356502913
 51
250.0216087291609028
  0
LINE
  5
7A7
  8
0
  6
CONTINUOUS
 62
     7
 10
155.0636903213068933
 20
244.6681795053841029
 30
0.0
 11
88.7046734059250639
 21
62.1341115183914212
 31
0.0
  0
ARC
  5
7A8
  8
0
  6
CONTINUOUS
 62
     7
 10
98.1028888520974363
 20
58.7174543176578396
 30
0.0
 40
10.0
 50
160.0216087291609028
 51
218.0558899783644051
  0
CIRCLE
  5
7A9
  8
0
  6
CONTINUOUS
 62
     7
 10
249.8191681270911886
 20
157.0188815857912061
 30
0.0
 40
5.5
  0
CIRCLE
  5
7AA
  8
0
  6
CONTINUOUS
 62
     7
 10
238.4542074607574023
 20
181.3671396149129862
 30
0.0
 40
5.5
  0
CIRCLE
  5
7AB
  8
0
  6
CONTINUOUS
 62
     7
 10
214.1059494316357927
 20
170.0021789485793988
 30
0.0
 40
5.5
  0
CIRCLE
  5
7AC
  8
0
  6
CONTINUOUS
 62
     7
 10
225.4709100979694938
 20
145.653920919457704
 30
0.0
 40
5.5
  0
CIRCLE
  5
7AD
  8
0
  6
CONTINUOUS
 62
     7
 10
276.8242456201538744
 20
67.3989854153890349
 30
0.0
 40
6.349999999999965
  0
CIRCLE
  5
7AE
  8
0
  6
CONTINUOUS
 62
     7
 10
135.8510139275670952
 20
118.648843426395004
 30
0.0
 40
6.349999999999965
  0
CIRCLE
  5
7AF
  8
0
  6
CONTINUOUS
 62
     7
 10
187.1008719385731069
 20
259.6220751189816838
 30
0.0
 40
6.349999999999965
  0
CIRCLE
  5
7B0
  8
0
  6
CONTINUOUS
 62
     7
 10
328.0741036311598009
 20
208.3722171079757004
 30
0.0
 40
6.349999999999965
  0
ARC
  5
7B1
  8
0
  6
CONTINUOUS
 62
     7
 10
231.9625587793632917
 20
163.510530267185402
 30
0.0
 40
180.0
 50
308.0558899783654851
 51
319.3542922356469944
  0
ARC
  5
7B2
  8
0
  6
CONTINUOUS
 62
     7
 10
231.9625587793632917
 20
163.510530267185402
 30
0.0
 40
180.0
 50
218.0558899783644051
 51
229.3542922356471081
  0
ARC
  5
7B3
  8
0
  6
CONTINUOUS
 62
     7
 10
231.9625587793632917
 20
163.510530267185402
 30
0.0
 40
180.0
 50
128.0558899783653999
 51
139.3542922356502913
  0
ARC
  5
7B4
  8
0
  6
CONTINUOUS
 62
     7
 10
231.9625587793632917
 20
163.510530267185402
 30
0.0
 40
180.0
 50
38.055889978364398
 51
49.3542922356471223
  0
LINE
  5
7B5
  8
0
  6
CONTINUOUS
 62
     7
 10
99.558076875798605
 20
264.8468671451709042
 30
0.0
 11
155.0636903213068933
 21
244.6681795053841029
 31
0.0
  0
CIRCLE
  5
7B6
  8
0
  6
CONTINUOUS
 62
     7
 10
249.8191681270911886
 20
157.0188815857912061
 30
0.0
 40
3.2499999999999432
  0
CIRCLE
  5
7B7
  8
0
  6
CONTINUOUS
 62
     7
 10
225.4709100979694938
 20
145.653920919457704
 30
0.0
 40
3.25
  0
CIRCLE
  5
7B8
  8
0
  6
CONTINUOUS
 62
     7
 10
214.1059494316357927
 20
170.0021789485793988
 30
0.0
 40
3.2499999999999432
  0
CIRCLE
  5
7B9
  8
0
  6
CONTINUOUS
 62
     7
 10
238.4542074607574023
 20
181.3671396149129862
 30
0.0
 40
3.25
  0
CIRCLE
  5
7BA
  8
0
  6
CONTINUOUS
 62
     7
 10
276.8242456201538744
 20
67.3989854153890349
 30
0.0
 40
3.4999999999999432
  0
CIRCLE
  5
7BB
  8
0
  6
CONTINUOUS
 62
     7
 10
135.8510139275670952
 20
118.648843426395004
 30
0.0
 40
3.4999999999999432
  0
CIRCLE
  5
7BC
  8
0
  6
CONTINUOUS
 62
     7
 10
187.1008719385731069
 20
259.6220751189816838
 30
0.0
 40
3.5
  0
CIRCLE
  5
7BD
  8
0
  6
CONTINUOUS
 62
     7
 10
328.0741036311598009
 20
208.3722171079757004
 30
0.0
 40
3.5
  0
CIRCLE
  5
7BE
  8
0
 10
231.9625587793634054
 20
163.510530267185402
 30
0.0
 40
25.0
  0
ENDSEC
  0
EOF
