  0
SECTION
  2
HEADER
  9
$ACADVER
  1
AC1009
  9
$INSBASE
 10
0.0
 20
0.0
 30
0.0
  9
$EXTMIN
 10
721.0600520824375508
 20
891.4977199566523041
 30
0.0
  9
$EXTMAX
 10
1075.3216774804859597
 20
1093.5281486455401136
 30
0.0
  9
$LIMMIN
 10
0.0
 20
0.0
  9
$LIMMAX
 10
420.0
 20
297.0
  9
$ORTHOMODE
 70
     1
  9
$REGENMODE
 70
     1
  9
$FILLMODE
 70
     1
  9
$QTEXTMODE
 70
     0
  9
$MIRRTEXT
 70
     0
  9
$DRAGMODE
 70
     2
  9
$LTSCALE
 40
1.0
  9
$OSMODE
 70
   293
  9
$ATTMODE
 70
     1
  9
$TEXTSIZE
 40
2.5
  9
$TRACEWID
 40
1.0
  9
$TEXTSTYLE
  7
STANDARD
  9
$CLAYER
  8
0
  9
$CELTYPE
  6
BYLAYER
  9
$CECOLOR
 62
   256
  9
$DIMSCALE
 40
1.0
  9
$DIMASZ
 40
2.5
  9
$DIMEXO
 40
0.625
  9
$DIMDLI
 40
3.75
  9
$DIMRND
 40
0.0
  9
$DIMDLE
 40
0.0
  9
$DIMEXE
 40
1.25
  9
$DIMTP
 40
0.0
  9
$DIMTM
 40
0.0
  9
$DIMTXT
 40
2.5
  9
$DIMCEN
 40
2.5
  9
$DIMTSZ
 40
0.0
  9
$DIMTOL
 70
     0
  9
$DIMLIM
 70
     0
  9
$DIMTIH
 70
     0
  9
$DIMTOH
 70
     0
  9
$DIMSE1
 70
     0
  9
$DIMSE2
 70
     0
  9
$DIMTAD
 70
     1
  9
$DIMZIN
 70
     8
  9
$DIMBLK
  1

  9
$DIMASO
 70
     1
  9
$DIMSHO
 70
     1
  9
$DIMPOST
  1

  9
$DIMAPOST
  1

  9
$DIMALT
 70
     0
  9
$DIMALTD
 70
     3
  9
$DIMALTF
 40
0.03937007874016
  9
$DIMLFAC
 40
1.0
  9
$DIMTOFL
 70
     1
  9
$DIMTVP
 40
0.0
  9
$DIMTIX
 70
     0
  9
$DIMSOXD
 70
     0
  9
$DIMSAH
 70
     0
  9
$DIMBLK1
  1

  9
$DIMBLK2
  1

  9
$DIMSTYLE
  2
ISO-25
  9
$DIMCLRD
 70
     0
  9
$DIMCLRE
 70
     0
  9
$DIMCLRT
 70
     0
  9
$DIMTFAC
 40
1.0
  9
$DIMGAP
 40
0.625
  9
$LUNITS
 70
     2
  9
$LUPREC
 70
     4
  9
$SKETCHINC
 40
1.0
  9
$FILLETRAD
 40
0.0
  9
$AUNITS
 70
     0
  9
$AUPREC
 70
     0
  9
$MENU
  1
.
  9
$ELEVATION
 40
0.0
  9
$PELEVATION
 40
0.0
  9
$THICKNESS
 40
0.0
  9
$LIMCHECK
 70
     0
  9
$BLIPMODE
 70
     0
  9
$CHAMFERA
 40
0.0
  9
$CHAMFERB
 40
0.0
  9
$SKPOLY
 70
     0
  9
$TDCREATE
 40
2460143.6323842601850629
  9
$TDUPDATE
 40
2460158.6765856491401792
  9
$TDINDWG
 40
0.7539814815
  9
$TDUSRTIMER
 40
0.7539814815
  9
$USRTIMER
 70
     1
  9
$ANGBASE
 50
0.0
  9
$ANGDIR
 70
     0
  9
$PDMODE
 70
     0
  9
$PDSIZE
 40
0.0
  9
$PLINEWID
 40
0.0
  9
$COORDS
 70
     1
  9
$SPLFRAME
 70
     0
  9
$SPLINETYPE
 70
     6
  9
$SPLINESEGS
 70
     8
  9
$ATTDIA
 70
     1
  9
$ATTREQ
 70
     1
  9
$HANDLING
 70
     1
  9
$HANDSEED
  5
713
  9
$SURFTAB1
 70
     6
  9
$SURFTAB2
 70
     6
  9
$SURFTYPE
 70
     6
  9
$SURFU
 70
     6
  9
$SURFV
 70
     6
  9
$UCSNAME
  2

  9
$UCSORG
 10
0.0
 20
0.0
 30
0.0
  9
$UCSXDIR
 10
1.0
 20
0.0
 30
0.0
  9
$UCSYDIR
 10
0.0
 20
1.0
 30
0.0
  9
$PUCSNAME
  2

  9
$PUCSORG
 10
0.0
 20
0.0
 30
0.0
  9
$PUCSXDIR
 10
1.0
 20
0.0
 30
0.0
  9
$PUCSYDIR
 10
0.0
 20
1.0
 30
0.0
  9
$USERI1
 70
     0
  9
$USERI2
 70
     0
  9
$USERI3
 70
     0
  9
$USERI4
 70
     0
  9
$USERI5
 70
     0
  9
$USERR1
 40
0.0
  9
$USERR2
 40
0.0
  9
$USERR3
 40
0.0
  9
$USERR4
 40
0.0
  9
$USERR5
 40
0.0
  9
$WORLDVIEW
 70
     1
  9
$SHADEDGE
 70
     3
  9
$SHADEDIF
 70
    70
  9
$TILEMODE
 70
     1
  9
$MAXACTVP
 70
    64
  9
$PLIMCHECK
 70
     0
  9
$PEXTMIN
 10
0.0
 20
0.0
 30
0.0
  9
$PEXTMAX
 10
0.0
 20
0.0
 30
0.0
  9
$PLIMMIN
 10
0.0
 20
0.0
  9
$PLIMMAX
 10
12.0
 20
9.0
  9
$UNITMODE
 70
     0
  9
$VISRETAIN
 70
     1
  9
$PLINEGEN
 70
     0
  9
$PSLTSCALE
 70
     1
  0
ENDSEC
  0
SECTION
  2
TABLES
  0
TABLE
  2
VPORT
 70
     1
  0
VPORT
  2
*ACTIVE
 70
     0
 10
0.0
 20
0.0
 11
1.0
 21
1.0
 12
1042.0886454964779659
 22
971.5196621205163865
 13
0.0
 23
0.0
 14
10.0
 24
10.0
 15
10.0
 25
10.0
 16
0.0
 26
0.0
 36
1.0
 17
0.0
 27
0.0
 37
0.0
 40
503.2685744674698753
 41
2.7910014513788091
 42
50.0
 43
0.0
 44
0.0
 50
0.0
 51
0.0
 71
     0
 72
  1000
 73
     1
 74
     3
 75
     0
 76
     1
 77
     0
 78
     0
  0
ENDTAB
  0
TABLE
  2
LTYPE
 70
     1
  0
LTYPE
  2
CONTINUOUS
 70
     0
  3
Solid line
 72
    65
 73
     0
 40
0.0
  0
ENDTAB
  0
TABLE
  2
LAYER
 70
     1
  0
LAYER
  2
0
 70
     0
 62
     7
  6
CONTINUOUS
  0
ENDTAB
  0
TABLE
  2
STYLE
 70
     2
  0
STYLE
  2
STANDARD
 70
     0
 40
0.0
 41
1.0
 50
0.0
 71
     0
 42
2.5
  3
txt
  4

  0
STYLE
  2
ANNOTATIVE
 70
     0
 40
0.0
 41
1.0
 50
0.0
 71
     0
 42
2.5
  3
txt
  4

  0
ENDTAB
  0
TABLE
  2
VIEW
 70
     1
  0
ENDTAB
  0
TABLE
  2
UCS
 70
     0
  0
ENDTAB
  0
TABLE
  2
APPID
 70
     9
  0
APPID
  2
ACAD
 70
     0
  0
APPID
  2
ACAD_PSEXT
 70
     0
  0
APPID
  2
ACADANNOPO
 70
     0
  0
APPID
  2
ACADANNOTATIVE
 70
     0
  0
APPID
  2
ACAD_DSTYLE_DIMJAG
 70
     0
  0
APPID
  2
ACAD_DSTYLE_DIMTALN
 70
     0
  0
APPID
  2
ACAD_MLEADERVER
 70
     0
  0
APPID
  2
ACAD_NAV_VCDISPLAY
 70
     0
  0
APPID
  2
ACAD_EXEMPT_FROM_CAD_STANDARDS
 70
     0
  0
ENDTAB
  0
TABLE
  2
DIMSTYLE
 70
     3
  0
DIMSTYLE
  2
STANDARD
 70
     0
  3

  4

  5

  6

  7

 40
1.0
 41
0.18
 42
0.0625
 43
0.38
 44
0.18
 45
0.0
 46
0.0
 47
0.0
 48
0.0
140
0.18
141
0.09
142
0.0
143
25.3999999999999986
144
1.0
145
0.0
146
1.0
147
0.09
 71
     0
 72
     0
 73
     1
 74
     1
 75
     0
 76
     0
 77
     0
 78
     0
170
     0
171
     2
172
     0
173
     0
174
     0
175
     0
176
     0
177
     0
178
     0
  0
DIMSTYLE
  2
ANNOTATIVE
 70
     0
  3

  4

  5

  6

  7

 40
0.0
 41
2.5
 42
0.625
 43
3.75
 44
1.25
 45
0.0
 46
0.0
 47
0.0
 48
0.0
140
2.5
141
2.5
142
0.0
143
0.03937007874016
144
1.0
145
0.0
146
1.0
147
0.625
 71
     0
 72
     0
 73
     0
 74
     0
 75
     0
 76
     0
 77
     1
 78
     8
170
     0
171
     3
172
     1
173
     0
174
     0
175
     0
176
     0
177
     0
178
     0
  0
DIMSTYLE
  2
ISO-25
 70
     0
  3

  4

  5

  6

  7

 40
1.0
 41
2.5
 42
0.625
 43
3.75
 44
1.25
 45
0.0
 46
0.0
 47
0.0
 48
0.0
140
2.5
141
2.5
142
0.0
143
0.03937007874016
144
1.0
145
0.0
146
1.0
147
0.625
 71
     0
 72
     0
 73
     0
 74
     0
 75
     0
 76
     0
 77
     1
 78
     8
170
     0
171
     3
172
     1
173
     0
174
     0
175
     0
176
     0
177
     0
178
     0
  0
ENDTAB
  0
ENDSEC
  0
SECTION
  2
BLOCKS
  0
BLOCK
  8
0
  2
$MODEL_SPACE
 70
     0
 10
0.0
 20
0.0
 30
0.0
  3
$MODEL_SPACE
  1

  0
ENDBLK
  5
21
  8
0
  0
BLOCK
 67
     1
  8
0
  2
$PAPER_SPACE
 70
     0
 10
0.0
 20
0.0
 30
0.0
  3
$PAPER_SPACE
  1

  0
ENDBLK
  5
D5
 67
     1
  8
0
  0
ENDSEC
  0
SECTION
  2
ENTITIES
  0
POLYLINE
  5
29C
  8
0
 66
     1
 10
0.0
 20
0.0
 30
0.0
 70
     1
  0
VERTEX
  5
6D8
  8
0
 10
755.0766233623053267
 20
920.2830945273601628
 30
0.0
  0
VERTEX
  5
6D9
  8
0
 10
902.0766233623050994
 20
920.2830945273600491
 30
0.0
  0
VERTEX
  5
6DA
  8
0
 10
902.0766233623053267
 20
1090.2830945273599355
 30
0.0
  0
VERTEX
  5
6DB
  8
0
 10
755.0766233623053267
 20
1090.2830945273599355
 30
0.0
  0
SEQEND
  5
6DC
  8
0
  0
CIRCLE
  5
29F
  8
0
 10
828.5766233623053267
 20
1005.2830945273600491
 30
0.0
 40
4.5999999999999988
  0
CIRCLE
  5
2A0
  8
0
 10
828.5766233623053267
 20
1005.2830945273600491
 30
0.0
 40
10.0500000000000007
  0
POLYLINE
  5
2A2
  8
0
 66
     1
 10
0.0
 20
0.0
 30
0.0
 70
     1
  0
VERTEX
  5
6DD
  8
0
 10
806.076623362305213
 20
920.2830945273601628
 30
0.0
  0
VERTEX
  5
6DE
  8
0
 10
851.0766233623050994
 20
920.2830945273601628
 30
0.0
  0
VERTEX
  5
6DF
  8
0
 10
851.0766233623053267
 20
1090.2830945273599355
 30
0.0
  0
VERTEX
  5
6E0
  8
0
 10
806.076623362305213
 20
1090.2830945273599355
 30
0.0
  0
SEQEND
  5
6E1
  8
0
  0
POLYLINE
  5
2A3
  8
0
 66
     1
 10
0.0
 20
0.0
 30
0.0
 70
     1
  0
VERTEX
  5
6E2
  8
0
 10
755.0766233623053267
 20
920.2830945273601628
 30
0.0
  0
VERTEX
  5
6E3
  8
0
 10
770.0766233623053267
 20
920.2830945273601628
 30
0.0
  0
VERTEX
  5
6E4
  8
0
 10
770.0766233623053267
 20
940.2830945273600491
 30
0.0
  0
VERTEX
  5
6E5
  8
0
 10
755.0766233623053267
 20
940.2830945273600491
 30
0.0
  0
SEQEND
  5
6E6
  8
0
  0
POLYLINE
  5
2A4
  8
0
 66
     1
 10
0.0
 20
0.0
 30
0.0
 70
     1
  0
VERTEX
  5
6E7
  8
0
 10
902.0766233623050994
 20
920.2830945273600491
 30
0.0
  0
VERTEX
  5
6E8
  8
0
 10
887.0766233623053267
 20
920.2830945273601628
 30
0.0
  0
VERTEX
  5
6E9
  8
0
 10
887.0766233623053267
 20
940.2830945273600491
 30
0.0
  0
VERTEX
  5
6EA
  8
0
 10
902.0766233623050994
 20
940.2830945273600491
 30
0.0
  0
SEQEND
  5
6EB
  8
0
  0
POLYLINE
  5
2A7
  8
0
 66
     1
 10
0.0
 20
0.0
 30
0.0
 70
     1
  0
VERTEX
  5
6EC
  8
0
 10
785.0766233623053267
 20
1090.2830945273599355
 30
0.0
  0
VERTEX
  5
6ED
  8
0
 10
800.0766233623053267
 20
1090.2830945273599355
 30
0.0
  0
VERTEX
  5
6EE
  8
0
 10
800.0766233623053267
 20
1070.2830945273599355
 30
0.0
  0
VERTEX
  5
6EF
  8
0
 10
785.0766233623053267
 20
1070.2830945273599355
 30
0.0
  0
SEQEND
  5
6F0
  8
0
  0
POLYLINE
  5
2A8
  8
0
 66
     1
 10
0.0
 20
0.0
 30
0.0
 70
     1
  0
VERTEX
  5
6F1
  8
0
 10
872.076623362305213
 20
1090.2830945273599355
 30
0.0
  0
VERTEX
  5
6F2
  8
0
 10
857.0766233623054404
 20
1090.2830945273599355
 30
0.0
  0
VERTEX
  5
6F3
  8
0
 10
857.0766233623054404
 20
1070.2830945273599355
 30
0.0
  0
VERTEX
  5
6F4
  8
0
 10
872.076623362305213
 20
1070.2830945273599355
 30
0.0
  0
SEQEND
  5
6F5
  8
0
  0
CIRCLE
  5
2B0
  8
0
 10
872.076623362305213
 20
1062.7830945273599355
 30
0.0
 40
5.5499999999999989
  0
CIRCLE
  5
2B1
  8
0
 10
785.0766233623053267
 20
1062.7830945273599355
 30
0.0
 40
5.5499999999999989
  0
CIRCLE
  5
2B2
  8
0
 10
872.076623362305213
 20
947.7830945273601628
 30
0.0
 40
5.5499999999999989
  0
CIRCLE
  5
2B3
  8
0
 10
785.0766233623053267
 20
947.7830945273601628
 30
0.0
 40
5.5499999999999989
  0
POLYLINE
  5
335
  8
0
 66
     1
 10
0.0
 20
0.0
 30
0.0
 70
     1
  0
VERTEX
  5
6F6
  8
0
 10
752.0185027632251149
 20
1093.2161880012929487
 30
0.0
  0
VERTEX
  5
6F7
  8
0
 10
785.0766233623053267
 20
1093.2161880012929487
 30
0.0
  0
VERTEX
  5
6F8
  8
0
 10
785.0766233623053267
 20
1090.2830945273599355
 30
0.0
  0
VERTEX
  5
6F9
  8
0
 10
785.0766233623053267
 20
1070.2830945273599355
 30
0.0
  0
VERTEX
  5
6FA
  8
0
 10
800.0766233623053267
 20
1070.2830945273599355
 30
0.0
  0
VERTEX
  5
6FB
  8
0
 10
800.0766233623053267
 20
1093.5281486455401136
 30
0.0
  0
VERTEX
  5
6FC
  8
0
 10
806.076623362305213
 20
1093.5281486455401136
 30
0.0
  0
VERTEX
  5
6FD
  8
0
 10
806.076623362305213
 20
917.4138051756501682
 30
0.0
  0
VERTEX
  5
6FE
  8
0
 10
770.0766233623053267
 20
917.4138051756501682
 30
0.0
  0
VERTEX
  5
6FF
  8
0
 10
770.0766233623053267
 20
940.2830945273600491
 30
0.0
  0
VERTEX
  5
700
  8
0
 10
752.0185027632251149
 20
940.2830945273600491
 30
0.0
  0
SEQEND
  5
701
  8
0
  0
POLYLINE
  5
341
  8
0
 66
     1
 10
0.0
 20
0.0
 30
0.0
 70
     1
  0
VERTEX
  5
702
  8
0
 10
851.0766233623053267
 20
1093.2899129101460858
 30
0.0
  0
VERTEX
  5
703
  8
0
 10
851.0766233623053267
 20
1090.2830945273599355
 30
0.0
  0
VERTEX
  5
704
  8
0
 10
851.0766233623050994
 20
917.2878231973776337
 30
0.0
  0
VERTEX
  5
705
  8
0
 10
887.076623362304872
 20
917.287823197377179
 30
0.0
  0
VERTEX
  5
706
  8
0
 10
887.0766233623053267
 20
940.2830945273600491
 30
0.0
  0
VERTEX
  5
707
  8
0
 10
905.1254389418480741
 20
940.2830945273600491
 30
0.0
  0
VERTEX
  5
708
  8
0
 10
905.1254389418480741
 20
1093.2899129101460858
 30
0.0
  0
VERTEX
  5
709
  8
0
 10
872.076623362305213
 20
1093.2899129101460858
 30
0.0
  0
VERTEX
  5
70A
  8
0
 10
872.076623362305213
 20
1070.2830945273599355
 30
0.0
  0
VERTEX
  5
70B
  8
0
 10
857.0766233623054404
 20
1070.2830945273599355
 30
0.0
  0
VERTEX
  5
70C
  8
0
 10
857.0766233623054404
 20
1093.2899129101460858
 30
0.0
  0
SEQEND
  5
70D
  8
0
  0
POLYLINE
  5
3C8
  8
0
 66
     1
 10
0.0
 20
0.0
 30
0.0
 70
     1
  0
VERTEX
  5
70E
  8
0
 10
755.0766233623053267
 20
920.2830945273601628
 30
0.0
  0
VERTEX
  5
70F
  8
0
 10
902.0766233623050994
 20
920.2830945273600491
 30
0.0
  0
VERTEX
  5
710
  8
0
 10
902.0766233623053267
 20
1090.2830945273599355
 30
0.0
  0
VERTEX
  5
711
  8
0
 10
755.0766233623053267
 20
1090.2830945273599355
 30
0.0
  0
SEQEND
  5
712
  8
0
  0
ENDSEC
  0
EOF
