  0
SECTION
  2
HEADER
  9
$ACADVER
  1
AC1009
  9
$INSBASE
 10
0.0
 20
0.0
 30
0.0
  9
$EXTMIN
 10
659.7025173434841463
 20
424.521709401903081
 30
0.0
  9
$EXTMAX
 10
1235.1038568154749555
 20
833.3453934131323422
 30
0.0
  9
$LIMMIN
 10
0.0
 20
0.0
  9
$LIMMAX
 10
420.0
 20
297.0
  9
$ORTHOMODE
 70
     0
  9
$REGENMODE
 70
     1
  9
$FILLMODE
 70
     1
  9
$QTEXTMODE
 70
     0
  9
$MIRRTEXT
 70
     0
  9
$DRAGMODE
 70
     2
  9
$LTSCALE
 40
1.0
  9
$OSMODE
 70
   353
  9
$ATTMODE
 70
     1
  9
$TEXTSIZE
 40
2.5
  9
$TRACEWID
 40
1.0
  9
$TEXTSTYLE
  7
STANDARD
  9
$CLAYER
  8
0
  9
$CELTYPE
  6
BYLAYER
  9
$CECOLOR
 62
   256
  9
$DIMSCALE
 40
1.0
  9
$DIMASZ
 40
2.5
  9
$DIMEXO
 40
0.625
  9
$DIMDLI
 40
3.75
  9
$DIMRND
 40
0.0
  9
$DIMDLE
 40
0.0
  9
$DIMEXE
 40
1.25
  9
$DIMTP
 40
0.0
  9
$DIMTM
 40
0.0
  9
$DIMTXT
 40
2.5
  9
$DIMCEN
 40
2.5
  9
$DIMTSZ
 40
0.0
  9
$DIMTOL
 70
     0
  9
$DIMLIM
 70
     0
  9
$DIMTIH
 70
     0
  9
$DIMTOH
 70
     0
  9
$DIMSE1
 70
     0
  9
$DIMSE2
 70
     0
  9
$DIMTAD
 70
     1
  9
$DIMZIN
 70
     8
  9
$DIMBLK
  1

  9
$DIMASO
 70
     1
  9
$DIMSHO
 70
     1
  9
$DIMPOST
  1

  9
$DIMAPOST
  1

  9
$DIMALT
 70
     0
  9
$DIMALTD
 70
     3
  9
$DIMALTF
 40
0.03937007874016
  9
$DIMLFAC
 40
1.0
  9
$DIMTOFL
 70
     1
  9
$DIMTVP
 40
0.0
  9
$DIMTIX
 70
     0
  9
$DIMSOXD
 70
     0
  9
$DIMSAH
 70
     0
  9
$DIMBLK1
  1

  9
$DIMBLK2
  1

  9
$DIMSTYLE
  2
ISO-25
  9
$DIMCLRD
 70
     0
  9
$DIMCLRE
 70
     0
  9
$DIMCLRT
 70
     0
  9
$DIMTFAC
 40
1.0
  9
$DIMGAP
 40
0.625
  9
$LUNITS
 70
     2
  9
$LUPREC
 70
     4
  9
$SKETCHINC
 40
1.0
  9
$FILLETRAD
 40
0.0
  9
$AUNITS
 70
     0
  9
$AUPREC
 70
     0
  9
$MENU
  1
.
  9
$ELEVATION
 40
0.0
  9
$PELEVATION
 40
0.0
  9
$THICKNESS
 40
0.0
  9
$LIMCHECK
 70
     0
  9
$BLIPMODE
 70
     0
  9
$CHAMFERA
 40
0.0
  9
$CHAMFERB
 40
0.0
  9
$SKPOLY
 70
     0
  9
$TDCREATE
 40
2460248.6589004630222917
  9
$TDUPDATE
 40
2460249.561539351940155
  9
$TDINDWG
 40
0.1466782407
  9
$TDUSRTIMER
 40
0.1466782407
  9
$USRTIMER
 70
     1
  9
$ANGBASE
 50
0.0
  9
$ANGDIR
 70
     0
  9
$PDMODE
 70
     0
  9
$PDSIZE
 40
0.0
  9
$PLINEWID
 40
0.0
  9
$COORDS
 70
     1
  9
$SPLFRAME
 70
     0
  9
$SPLINETYPE
 70
     6
  9
$SPLINESEGS
 70
     8
  9
$ATTDIA
 70
     1
  9
$ATTREQ
 70
     1
  9
$HANDLING
 70
     1
  9
$HANDSEED
  5
722
  9
$SURFTAB1
 70
     6
  9
$SURFTAB2
 70
     6
  9
$SURFTYPE
 70
     6
  9
$SURFU
 70
     6
  9
$SURFV
 70
     6
  9
$UCSNAME
  2

  9
$UCSORG
 10
0.0
 20
0.0
 30
0.0
  9
$UCSXDIR
 10
1.0
 20
0.0
 30
0.0
  9
$UCSYDIR
 10
0.0
 20
1.0
 30
0.0
  9
$PUCSNAME
  2

  9
$PUCSORG
 10
0.0
 20
0.0
 30
0.0
  9
$PUCSXDIR
 10
1.0
 20
0.0
 30
0.0
  9
$PUCSYDIR
 10
0.0
 20
1.0
 30
0.0
  9
$USERI1
 70
     0
  9
$USERI2
 70
     0
  9
$USERI3
 70
     0
  9
$USERI4
 70
     0
  9
$USERI5
 70
     0
  9
$USERR1
 40
0.0
  9
$USERR2
 40
0.0
  9
$USERR3
 40
0.0
  9
$USERR4
 40
0.0
  9
$USERR5
 40
0.0
  9
$WORLDVIEW
 70
     1
  9
$SHADEDGE
 70
     3
  9
$SHADEDIF
 70
    70
  9
$TILEMODE
 70
     1
  9
$MAXACTVP
 70
    64
  9
$PLIMCHECK
 70
     0
  9
$PEXTMIN
 10
0.0
 20
0.0
 30
0.0
  9
$PEXTMAX
 10
0.0
 20
0.0
 30
0.0
  9
$PLIMMIN
 10
0.0
 20
0.0
  9
$PLIMMAX
 10
12.0
 20
9.0
  9
$UNITMODE
 70
     0
  9
$VISRETAIN
 70
     1
  9
$PLINEGEN
 70
     0
  9
$PSLTSCALE
 70
     1
  0
ENDSEC
  0
SECTION
  2
TABLES
  0
TABLE
  2
VPORT
 70
     1
  0
VPORT
  2
*ACTIVE
 70
     0
 10
0.0
 20
0.0
 11
1.0
 21
1.0
 12
594.5971410031213509
 22
771.0975568809150218
 13
0.0
 23
0.0
 14
10.0
 24
10.0
 15
10.0
 25
10.0
 16
0.0
 26
0.0
 36
1.0
 17
0.0
 27
0.0
 37
0.0
 40
1060.7538608378679328
 41
2.2252042007001158
 42
50.0
 43
0.0
 44
0.0
 50
0.0
 51
0.0
 71
     0
 72
  1000
 73
     1
 74
     3
 75
     0
 76
     1
 77
     0
 78
     0
  0
ENDTAB
  0
TABLE
  2
LTYPE
 70
     4
  0
LTYPE
  2
CONTINUOUS
 70
     0
  3
Solid line
 72
    65
 73
     0
 40
0.0
  0
LTYPE
  2
CENTER
 70
     0
  3
Center ____ _ ____ _ ____ _ ____ _ ____ _ ____
 72
    65
 73
     4
 40
10.1600000000000001
 49
6.3499999999999979
 49
-1.27
 49
1.27
 49
-1.27
  0
ENDTAB
  0
TABLE
  2
LAYER
 70
     3
  0
LAYER
  2
0
 70
     0
 62
     7
  6
CONTINUOUS
  0
LAYER
  2
CONTORNO
 70
     0
 62
     7
  6
CONTINUOUS
  0
LAYER
  2
DEFPOINTS
 70
     0
 62
     7
  6
CONTINUOUS
  0
ENDTAB
  0
TABLE
  2
STYLE
 70
     4
  0
STYLE
  2
STANDARD
 70
     0
 40
0.0
 41
1.0
 50
0.0
 71
     0
 42
2.5
  3
txt
  4

  0
STYLE
  2
ANNOTATIVE
 70
     0
 40
0.0
 41
1.0
 50
0.0
 71
     0
 42
2.5
  3
txt
  4

  0
STYLE
  2
SLDTEXTSTYLE1
 70
     0
 40
0.0
 41
0.75
 50
0.0
 71
     0
 42
8.466666666666665
  3
TXT
  4

  0
STYLE
  2
MTXPL_GDT
 70
     0
 40
0.0
 41
1.0
 50
0.0
 71
     0
 42
2.5
  3
txt
  4

  0
ENDTAB
  0
TABLE
  2
VIEW
 70
     0
  0
ENDTAB
  0
TABLE
  2
UCS
 70
     0
  0
ENDTAB
  0
TABLE
  2
APPID
 70
    10
  0
APPID
  2
ACAD
 70
     0
  0
APPID
  2
ACADANNOTATIVE
 70
     0
  0
APPID
  2
ACAD_PSEXT
 70
     0
  0
APPID
  2
ACADANNOPO
 70
     0
  0
APPID
  2
ACAD_DSTYLE_DIMJAG
 70
     0
  0
APPID
  2
ACAD_DSTYLE_DIMTALN
 70
     0
  0
APPID
  2
ACAD_MLEADERVER
 70
     0
  0
APPID
  2
ACAD_NAV_VCDISPLAY
 70
     0
  0
APPID
  2
ACAD_EXEMPT_FROM_CAD_STANDARDS
 70
     0
  0
APPID
  2
ACAD_DSTYLE_DIMRADIAL_EXTENSION
 70
     0
  0
ENDTAB
  0
TABLE
  2
DIMSTYLE
 70
     9
  0
DIMSTYLE
  2
STANDARD
 70
     0
  3

  4

  5

  6

  7

 40
1.0
 41
0.18
 42
0.0625
 43
0.38
 44
0.18
 45
0.0
 46
0.0
 47
0.0
 48
0.0
140
0.18
141
0.09
142
0.0
143
25.3999999999999986
144
1.0
145
0.0
146
1.0
147
0.09
 71
     0
 72
     0
 73
     1
 74
     1
 75
     0
 76
     0
 77
     0
 78
     0
170
     0
171
     2
172
     0
173
     0
174
     0
175
     0
176
     0
177
     0
178
     0
  0
DIMSTYLE
  2
ANNOTATIVE
 70
     0
  3

  4

  5

  6

  7

 40
0.0
 41
2.5
 42
0.625
 43
3.75
 44
1.25
 45
0.0
 46
0.0
 47
0.0
 48
0.0
140
2.5
141
2.5
142
0.0
143
0.03937007874016
144
1.0
145
0.0
146
1.0
147
0.625
 71
     0
 72
     0
 73
     0
 74
     0
 75
     0
 76
     0
 77
     1
 78
     8
170
     0
171
     3
172
     1
173
     0
174
     0
175
     0
176
     0
177
     0
178
     0
  0
DIMSTYLE
  2
ISO-25
 70
     0
  3

  4

  5

  6

  7

 40
1.0
 41
2.5
 42
0.625
 43
3.75
 44
1.25
 45
0.0
 46
0.0
 47
0.0
 48
0.0
140
2.5
141
2.5
142
0.0
143
0.03937007874016
144
1.0
145
0.0
146
1.0
147
0.625
 71
     0
 72
     0
 73
     0
 74
     0
 75
     0
 76
     0
 77
     1
 78
     8
170
     0
171
     3
172
     1
173
     0
174
     0
175
     0
176
     0
177
     0
178
     0
  0
DIMSTYLE
  2
SLDDIMSTYLE0
 70
     0
  3

  4

  5

  6

  7

 40
1.0
 41
6.6039999999999992
 42
0.0625
 43
0.38
 44
0.0
 45
0.000000001
 46
0.0
 47
0.0
 48
0.0
140
6.3499999999999979
141
0.09
142
0.0
143
25.3999999999999986
144
1.0
145
0.0
146
1.0
147
1.587499999999999
 71
     0
 72
     0
 73
     0
 74
     0
 75
     0
 76
     0
 77
     1
 78
    12
170
     0
171
     2
172
     0
173
     1
174
     0
175
     0
176
     0
177
     0
178
     0
  0
DIMSTYLE
  2
SLDDIMSTYLE1
 70
     0
  3

  4

  5

  6

  7

 40
1.0
 41
6.6039999999999992
 42
0.0625
 43
0.38
 44
0.0
 45
0.000000001
 46
0.0
 47
0.0
 48
0.0
140
6.3499999999999979
141
0.0
142
0.0
143
25.3999999999999986
144
1.0
145
0.0
146
1.0
147
1.587499999999999
 71
     0
 72
     0
 73
     0
 74
     0
 75
     0
 76
     0
 77
     1
 78
    12
170
     0
171
     2
172
     0
173
     1
174
     0
175
     0
176
     0
177
     0
178
     0
  0
DIMSTYLE
  2
SLDDIMSTYLE2
 70
     0
  3

  4

  5

  6

  7

 40
1.0
 41
6.6039999999999992
 42
0.0625
 43
0.38
 44
0.0
 45
0.000000001
 46
0.0
 47
0.0
 48
0.0
140
6.3499999999999979
141
0.0
142
0.0
143
25.3999999999999986
144
1.0
145
0.0
146
1.0
147
1.587499999999999
 71
     0
 72
     0
 73
     1
 74
     1
 75
     0
 76
     0
 77
     0
 78
    12
170
     0
171
     2
172
     0
173
     1
174
     0
175
     0
176
     0
177
     0
178
     0
  0
DIMSTYLE
  2
SLDDIMSTYLE3
 70
     0
  3

  4

  5

  6

  7

 40
1.0
 41
6.6039999999999992
 42
0.0625
 43
0.38
 44
0.0
 45
0.000000001
 46
0.0
 47
0.0
 48
0.0
140
6.3499999999999979
141
0.0
142
0.0
143
25.3999999999999986
144
1.0
145
0.0
146
1.0
147
1.587499999999999
 71
     0
 72
     0
 73
     0
 74
     0
 75
     0
 76
     0
 77
     1
 78
    12
170
     0
171
     2
172
     0
173
     1
174
     0
175
     0
176
     0
177
     0
178
     0
  0
ENDTAB
  0
ENDSEC
  0
SECTION
  2
BLOCKS
  0
BLOCK
  8
0
  2
$MODEL_SPACE
 70
     0
 10
0.0
 20
0.0
 30
0.0
  3
$MODEL_SPACE
  1

  0
ENDBLK
  5
61A
  8
0
  0
BLOCK
 67
     1
  8
0
  2
$PAPER_SPACE
 70
     0
 10
0.0
 20
0.0
 30
0.0
  3
$PAPER_SPACE
  1

  0
ENDBLK
  5
616
 67
     1
  8
0
  0
BLOCK
  8
0
  2
_D
 70
     0
 10
0.0
 20
0.0
 30
0.0
  3
_D
  1

  0
SOLID
  5
297
  8
CONTORNO
 10
322.9483460921084088
 20
210.3112349415958136
 30
0.0
 11
316.3443460921083101
 21
211.3272349415958047
 31
0.0
 12
316.3443460921083101
 22
209.295234941595794
 32
0.0
 13
316.3443460921083101
 23
209.295234941595794
 33
0.0
  0
SOLID
  5
298
  8
CONTORNO
 10
272.9483460921084088
 20
210.3112349415958136
 30
0.0
 11
279.5523460921085075
 21
209.295234941595794
 31
0.0
 12
279.5523460921085075
 22
211.3272349415958047
 32
0.0
 13
279.5523460921085075
 23
211.3272349415958047
 33
0.0
  0
LINE
  5
299
  8
CONTORNO
 10
322.9483460921084088
 20
338.7232424661572168
 30
0.0
 11
322.9483460921084088
 21
208.3112349415958136
 31
0.0
  0
LINE
  5
29A
  8
CONTORNO
 10
322.9483460921084088
 20
210.3112349415958136
 30
0.0
 11
272.9483460921084088
 21
210.3112349415958136
 31
0.0
  0
INSERT
  5
29B
  8
0
  2
*U3
 10
0.0
 20
0.0
 30
0.0
  0
ENDBLK
  5
29C
  8
0
  0
BLOCK
  8
0
  2
*U3
 70
     1
 10
0.0
 20
0.0
 30
0.0
  3
*U3
  1

  0
TEXT
  5
51E
  8
CONTORNO
 10
290.7293358236723861
 20
212.146814157825105
 30
0.0
 40
6.3499999999999979
  1
50
 50
359.9999999999996021
 41
0.75
  7
SLDTEXTSTYLE1
  0
ENDBLK
  5
520
  8
0
  0
BLOCK
  8
0
  2
_D_1
 70
     0
 10
0.0
 20
0.0
 30
0.0
  3
_D_1
  1

  0
SOLID
  5
29F
  8
CONTORNO
 10
322.9483460921084088
 20
156.2178643238314066
 30
0.0
 11
329.5523460921083938
 21
155.2018643238313871
 31
0.0
 12
329.5523460921083938
 22
157.2338643238313978
 32
0.0
 13
329.5523460921083938
 23
157.2338643238313978
 33
0.0
  0
SOLID
  5
2A0
  8
CONTORNO
 10
397.9483460921085225
 20
156.2178643238314066
 30
0.0
 11
391.3443460921084807
 21
157.2338643238313978
 31
0.0
 12
391.3443460921084807
 22
155.2018643238313871
 32
0.0
 13
391.3443460921084807
 23
155.2018643238313871
 33
0.0
  0
LINE
  5
2A1
  8
CONTORNO
 10
322.9483460921084088
 20
338.7232424661572168
 30
0.0
 11
322.9483460921084088
 21
154.2178643238314066
 31
0.0
  0
LINE
  5
2A2
  8
CONTORNO
 10
397.9483460921085225
 20
263.7232424661572168
 30
0.0
 11
397.9483460921085225
 21
154.2178643238314066
 31
0.0
  0
LINE
  5
2A3
  8
CONTORNO
 10
322.9483460921084088
 20
156.2178643238314066
 30
0.0
 11
397.9483460921085225
 21
156.2178643238314066
 31
0.0
  0
INSERT
  5
2A4
  8
0
  2
*U5
 10
0.0
 20
0.0
 30
0.0
  0
ENDBLK
  5
2A5
  8
0
  0
BLOCK
  8
0
  2
*U5
 70
     1
 10
0.0
 20
0.0
 30
0.0
  3
*U5
  1

  0
TEXT
  5
522
  8
CONTORNO
 10
356.2544983748251184
 20
158.0534435400608118
 30
0.0
 40
6.3499999999999979
  1
75
 41
0.75
  7
SLDTEXTSTYLE1
  0
ENDBLK
  5
524
  8
0
  0
BLOCK
  8
0
  2
_D_2
 70
     0
 10
0.0
 20
0.0
 30
0.0
  3
_D_2
  1

  0
SOLID
  5
2A8
  8
CONTORNO
 10
322.9483460921084088
 20
156.2178643238314066
 30
0.0
 11
316.3443460921083101
 21
157.2338643238313978
 31
0.0
 12
316.3443460921083101
 22
155.2018643238313871
 32
0.0
 13
316.3443460921083101
 23
155.2018643238313871
 33
0.0
  0
SOLID
  5
2A9
  8
CONTORNO
 10
247.9483460921084088
 20
156.2178643238314066
 30
0.0
 11
254.5523460921085075
 21
155.2018643238313871
 31
0.0
 12
254.5523460921085075
 22
157.2338643238313978
 32
0.0
 13
254.5523460921085075
 23
157.2338643238313978
 33
0.0
  0
LINE
  5
2AA
  8
CONTORNO
 10
322.9483460921084088
 20
338.7232424661572168
 30
0.0
 11
322.9483460921084088
 21
154.2178643238314066
 31
0.0
  0
LINE
  5
2AB
  8
CONTORNO
 10
247.9483460921084088
 20
254.873242466157194
 30
0.0
 11
247.9483460921084088
 21
154.2178643238314066
 31
0.0
  0
LINE
  5
2AC
  8
CONTORNO
 10
322.9483460921084088
 20
156.2178643238314066
 30
0.0
 11
247.9483460921084088
 21
156.2178643238314066
 31
0.0
  0
INSERT
  5
2AD
  8
0
  2
*U7
 10
0.0
 20
0.0
 30
0.0
  0
ENDBLK
  5
2AE
  8
0
  0
BLOCK
  8
0
  2
*U7
 70
     1
 10
0.0
 20
0.0
 30
0.0
  3
*U7
  1

  0
TEXT
  5
526
  8
CONTORNO
 10
277.5418817253275279
 20
158.053443540060897
 30
0.0
 40
6.3499999999999979
  1
75
 50
359.9999999999996021
 41
0.75
  7
SLDTEXTSTYLE1
  0
ENDBLK
  5
528
  8
0
  0
BLOCK
  8
0
  2
_D_3
 70
     0
 10
0.0
 20
0.0
 30
0.0
  3
_D_3
  1

  0
SOLID
  5
2B1
  8
CONTORNO
 10
322.9483460921092046
 20
115.6635052602883036
 30
0.0
 11
329.5523460921091896
 21
114.6475052602882982
 31
0.0
 12
329.5523460921091896
 22
116.6795052602881952
 32
0.0
 13
329.5523460921091896
 23
116.6795052602881952
 33
0.0
  0
SOLID
  5
2B2
  8
CONTORNO
 10
422.9483460921092046
 20
115.6635052602887015
 30
0.0
 11
416.3443460921092196
 21
116.6795052602885931
 31
0.0
 12
416.3443460921092196
 22
114.6475052602885967
 32
0.0
 13
416.3443460921092196
 23
114.6475052602885967
 33
0.0
  0
LINE
  5
2B3
  8
CONTORNO
 10
322.9483460921084088
 20
338.7232424661572168
 30
0.0
 11
322.9483460921092046
 21
113.6635052602883036
 31
0.0
  0
LINE
  5
2B4
  8
CONTORNO
 10
422.9483460921085225
 20
288.723242466157501
 30
0.0
 11
422.9483460921092046
 21
113.663505260288602
 31
0.0
  0
LINE
  5
2B5
  8
CONTORNO
 10
322.9483460921092046
 20
115.6635052602883036
 30
0.0
 11
422.9483460921092046
 21
115.6635052602887015
 31
0.0
  0
INSERT
  5
2B6
  8
0
  2
*U9
 10
0.0
 20
0.0
 30
0.0
  0
ENDBLK
  5
2B7
  8
0
  0
BLOCK
  8
0
  2
*U9
 70
     1
 10
0.0
 20
0.0
 30
0.0
  3
*U9
  1

  0
TEXT
  5
52A
  8
CONTORNO
 10
361.8724252300697799
 20
117.499084476517794
 30
0.0
 40
6.3499999999999979
  1
100
 50
0.0000000000002006
 41
0.75
  7
SLDTEXTSTYLE1
  0
ENDBLK
  5
52C
  8
0
  0
BLOCK
  8
0
  2
_D_4
 70
     0
 10
0.0
 20
0.0
 30
0.0
  3
_D_4
  1

  0
SOLID
  5
2BA
  8
CONTORNO
 10
322.9483460921107962
 20
115.6635052602889004
 30
0.0
 11
316.3443460921106976
 21
116.6795052602888063
 31
0.0
 12
316.3443460921106976
 22
114.6475052602887956
 32
0.0
 13
316.3443460921106976
 23
114.6475052602887956
 33
0.0
  0
SOLID
  5
2BB
  8
CONTORNO
 10
222.9483460921107962
 20
115.6635052602879057
 30
0.0
 11
229.5523460921108096
 21
114.6475052602879003
 31
0.0
 12
229.5523460921108096
 22
116.6795052602879963
 32
0.0
 13
229.5523460921108096
 23
116.6795052602879963
 33
0.0
  0
LINE
  5
2BC
  8
CONTORNO
 10
322.9483460921084088
 20
338.7232424661572168
 30
0.0
 11
322.9483460921107962
 21
113.6635052602889004
 31
0.0
  0
LINE
  5
2BD
  8
CONTORNO
 10
222.9483460921100004
 20
194.5011914475965114
 30
0.0
 11
222.9483460921107962
 21
113.6635052602879057
 31
0.0
  0
LINE
  5
2BE
  8
CONTORNO
 10
322.9483460921107962
 20
115.6635052602889004
 30
0.0
 11
222.9483460921107962
 21
115.6635052602879057
 31
0.0
  0
INSERT
  5
2BF
  8
0
  2
*U11
 10
0.0
 20
0.0
 30
0.0
  0
ENDBLK
  5
2C0
  8
0
  0
BLOCK
  8
0
  2
*U11
 70
     1
 10
0.0
 20
0.0
 30
0.0
  3
*U11
  1

  0
TEXT
  5
52E
  8
CONTORNO
 10
267.0002616796335246
 20
117.499084476517794
 30
0.0
 40
6.3499999999999979
  1
100
 50
0.0000000000009923
 41
0.75
  7
SLDTEXTSTYLE1
  0
ENDBLK
  5
530
  8
0
  0
BLOCK
  8
0
  2
_D_5
 70
     0
 10
0.0
 20
0.0
 30
0.0
  3
_D_5
  1

  0
SOLID
  5
2C3
  8
CONTORNO
 10
162.0155765400621988
 20
421.3498118109330903
 30
0.0
 11
156.5662242307986958
 21
425.2162871321431794
 31
0.0
 12
155.6560398479732044
 22
423.3995349780888091
 32
0.0
 13
155.6560398479732044
 23
423.3995349780888091
 33
0.0
  0
LINE
  5
2C4
  8
CONTORNO
 10
162.0155765400621988
 20
421.3498118109330903
 30
0.0
 11
123.8942304024000975
 21
440.4484289939949804
 31
0.0
  0
INSERT
  5
2C5
  8
0
  2
*U13
 10
0.0
 20
0.0
 30
0.0
  0
INSERT
  5
2C6
  8
0
  2
*U14
 10
0.0
 20
0.0
 30
0.0
  0
ENDBLK
  5
2C7
  8
0
  0
BLOCK
  8
0
  2
*U13
 70
     1
 10
0.0
 20
0.0
 30
0.0
  3
*U13
  1

  0
TEXT
  5
532
  8
CONTORNO
 10
124.7157865613931023
 20
442.0882768640428822
 30
0.0
 40
6.3499999999999979
  1
\U+2205
 50
333.3893434676772927
 41
0.75
  7
SLDTEXTSTYLE1
  0
ENDBLK
  5
534
  8
0
  0
BLOCK
  8
0
  2
*U14
 70
     1
 10
0.0
 20
0.0
 30
0.0
  3
*U14
  1

  0
TEXT
  5
536
  8
CONTORNO
 10
133.285432073709103
 20
437.7949243039511771
 30
0.0
 40
6.3499999999999979
  1
360
 50
333.3893434676772927
 41
0.75
  7
SLDTEXTSTYLE1
  0
ENDBLK
  5
538
  8
0
  0
BLOCK
  8
0
  2
_D_6
 70
     0
 10
0.0
 20
0.0
 30
0.0
  3
_D_6
  1

  0
SOLID
  5
2CA
  8
CONTORNO
 10
502.5584151143376062
 20
340.7232424661577284
 30
0.0
 11
501.5424151143377003
 21
334.1192424661576865
 31
0.0
 12
503.5744151143376826
 22
334.1192424661576865
 32
0.0
 13
503.5744151143376826
 23
334.1192424661576865
 33
0.0
  0
SOLID
  5
2CB
  8
CONTORNO
 10
502.5584151143377767
 20
290.7232424661577284
 30
0.0
 11
503.5744151143377962
 21
297.3272424661577134
 31
0.0
 12
501.5424151143379277
 22
297.3272424661577134
 32
0.0
 13
501.5424151143379277
 23
297.3272424661577134
 33
0.0
  0
LINE
  5
2CC
  8
CONTORNO
 10
324.9483460921084088
 20
340.7232424661572168
 30
0.0
 11
504.5584151143376062
 21
340.7232424661577284
 31
0.0
  0
LINE
  5
2CD
  8
CONTORNO
 10
484.0080832979771799
 20
290.7232424661577284
 30
0.0
 11
504.5584151143378904
 21
290.7232424661577284
 31
0.0
  0
LINE
  5
2CE
  8
CONTORNO
 10
502.5584151143376062
 20
340.7232424661577284
 30
0.0
 11
502.5584151143377767
 21
290.7232424661577284
 31
0.0
  0
INSERT
  5
2CF
  8
0
  2
*U16
 10
0.0
 20
0.0
 30
0.0
  0
ENDBLK
  5
2D0
  8
0
  0
BLOCK
  8
0
  2
*U16
 70
     1
 10
0.0
 20
0.0
 30
0.0
  3
*U16
  1

  0
TEXT
  5
53A
  8
CONTORNO
 10
500.7228358981084853
 20
313.1706449645168959
 30
0.0
 40
6.3499999999999979
  1
50
 50
90.0000000000006253
 41
0.75
  7
SLDTEXTSTYLE1
  0
ENDBLK
  5
53C
  8
0
  0
BLOCK
  8
0
  2
_D_7
 70
     0
 10
0.0
 20
0.0
 30
0.0
  3
_D_7
  1

  0
SOLID
  5
2D3
  8
CONTORNO
 10
518.8832462096125937
 20
340.7232424661572168
 30
0.0
 11
517.867246209612631
 21
334.1192424661571749
 31
0.0
 12
519.8992462096125564
 22
334.1192424661571749
 32
0.0
 13
519.8992462096125564
 23
334.1192424661571749
 33
0.0
  0
SOLID
  5
2D4
  8
CONTORNO
 10
518.8832462096125937
 20
265.7232424661572168
 30
0.0
 11
519.8992462096125564
 21
272.3272424661570881
 31
0.0
 12
517.867246209612631
 22
272.3272424661570881
 32
0.0
 13
517.867246209612631
 23
272.3272424661570881
 33
0.0
  0
LINE
  5
2D5
  8
CONTORNO
 10
324.9483460921084088
 20
340.7232424661572168
 30
0.0
 11
520.88324620961248
 21
340.7232424661572168
 31
0.0
  0
LINE
  5
2D6
  8
CONTORNO
 10
399.9483460921084088
 20
265.7232424661572168
 30
0.0
 11
520.88324620961248
 21
265.7232424661572168
 31
0.0
  0
LINE
  5
2D7
  8
CONTORNO
 10
518.8832462096125937
 20
340.7232424661572168
 30
0.0
 11
518.8832462096125937
 21
265.7232424661572168
 31
0.0
  0
INSERT
  5
2D8
  8
0
  2
*U18
 10
0.0
 20
0.0
 30
0.0
  0
ENDBLK
  5
2D9
  8
0
  0
BLOCK
  8
0
  2
*U18
 70
     1
 10
0.0
 20
0.0
 30
0.0
  3
*U18
  1

  0
TEXT
  5
53E
  8
CONTORNO
 10
517.0476669933830181
 20
301.7432631978247741
 30
0.0
 40
6.3499999999999979
  1
75
 50
90.0000000000003837
 41
0.75
  7
SLDTEXTSTYLE1
  0
ENDBLK
  5
540
  8
0
  0
BLOCK
  8
0
  2
_D_8
 70
     0
 10
0.0
 20
0.0
 30
0.0
  3
_D_8
  1

  0
SOLID
  5
2DC
  8
CONTORNO
 10
518.8832462096125937
 20
340.7232424661572168
 30
0.0
 11
519.8992462096125564
 21
347.3272424661569744
 31
0.0
 12
517.867246209612631
 22
347.3272424661569744
 32
0.0
 13
517.867246209612631
 23
347.3272424661569744
 33
0.0
  0
SOLID
  5
2DD
  8
CONTORNO
 10
518.8832462096125937
 20
415.7232424661571031
 30
0.0
 11
517.867246209612631
 21
409.1192424661571749
 31
0.0
 12
519.8992462096125564
 22
409.1192424661571749
 32
0.0
 13
519.8992462096125564
 23
409.1192424661571749
 33
0.0
  0
LINE
  5
2DE
  8
CONTORNO
 10
324.9483460921084088
 20
340.7232424661572168
 30
0.0
 11
520.88324620961248
 21
340.7232424661572168
 31
0.0
  0
LINE
  5
2DF
  8
CONTORNO
 10
399.9483460921084088
 20
415.7232424661571031
 30
0.0
 11
520.88324620961248
 21
415.7232424661571031
 31
0.0
  0
LINE
  5
2E0
  8
CONTORNO
 10
518.8832462096125937
 20
340.7232424661572168
 30
0.0
 11
518.8832462096125937
 21
415.7232424661571031
 31
0.0
  0
INSERT
  5
2E1
  8
0
  2
*U20
 10
0.0
 20
0.0
 30
0.0
  0
ENDBLK
  5
2E2
  8
0
  0
BLOCK
  8
0
  2
*U20
 70
     1
 10
0.0
 20
0.0
 30
0.0
  3
*U20
  1

  0
TEXT
  5
542
  8
CONTORNO
 10
517.0476669933832454
 20
378.4699693456158798
 30
0.0
 40
6.3499999999999979
  1
75
 50
90.0
 41
0.75
  7
SLDTEXTSTYLE1
  0
ENDBLK
  5
544
  8
0
  0
BLOCK
  8
0
  2
_D_9
 70
     0
 10
0.0
 20
0.0
 30
0.0
  3
_D_9
  1

  0
SOLID
  5
2E5
  8
CONTORNO
 10
538.7088629247430163
 20
340.7232424661572168
 30
0.0
 11
539.7248629247427516
 21
347.3272424661569744
 31
0.0
 12
537.6928629247430536
 22
347.3272424661569744
 32
0.0
 13
537.6928629247430536
 23
347.3272424661569744
 33
0.0
  0
SOLID
  5
2E6
  8
CONTORNO
 10
538.7088629247430163
 20
440.7232424661571031
 30
0.0
 11
537.6928629247430536
 21
434.1192424661571749
 31
0.0
 12
539.7248629247427516
 22
434.1192424661571749
 32
0.0
 13
539.7248629247427516
 23
434.1192424661571749
 33
0.0
  0
LINE
  5
2E7
  8
CONTORNO
 10
324.9483460921084088
 20
340.7232424661572168
 30
0.0
 11
540.7088629247430163
 21
340.7232424661572168
 31
0.0
  0
LINE
  5
2E8
  8
CONTORNO
 10
374.9483460921084088
 20
440.7232424661571031
 30
0.0
 11
540.7088629247430163
 21
440.7232424661571031
 31
0.0
  0
LINE
  5
2E9
  8
CONTORNO
 10
538.7088629247430163
 20
340.7232424661572168
 30
0.0
 11
538.7088629247430163
 21
440.7232424661571031
 31
0.0
  0
INSERT
  5
2EA
  8
0
  2
*U22
 10
0.0
 20
0.0
 30
0.0
  0
ENDBLK
  5
2EB
  8
0
  0
BLOCK
  8
0
  2
*U22
 70
     1
 10
0.0
 20
0.0
 30
0.0
  3
*U22
  1

  0
TEXT
  5
546
  8
CONTORNO
 10
536.8732837085135543
 20
384.7929886353276174
 30
0.0
 40
6.3499999999999979
  1
100
 50
90.0
 41
0.75
  7
SLDTEXTSTYLE1
  0
ENDBLK
  5
548
  8
0
  0
BLOCK
  8
0
  2
_D_10
 70
     0
 10
0.0
 20
0.0
 30
0.0
  3
_D_10
  1

  0
SOLID
  5
2EE
  8
CONTORNO
 10
538.7088629247426752
 20
340.7232424661572168
 30
0.0
 11
537.6928629247428262
 21
334.1192424661571749
 31
0.0
 12
539.7248629247427516
 22
334.1192424661571749
 32
0.0
 13
539.7248629247427516
 23
334.1192424661571749
 33
0.0
  0
SOLID
  5
2EF
  8
CONTORNO
 10
538.7088629247426752
 20
240.7232424661571031
 30
0.0
 11
539.7248629247427516
 21
247.3272424661570881
 31
0.0
 12
537.6928629247428262
 22
247.3272424661570881
 32
0.0
 13
537.6928629247428262
 23
247.3272424661570881
 33
0.0
  0
LINE
  5
2F0
  8
CONTORNO
 10
324.9483460921084088
 20
340.7232424661572168
 30
0.0
 11
540.7088629247429026
 21
340.7232424661572168
 31
0.0
  0
LINE
  5
2F1
  8
CONTORNO
 10
469.1703971106679205
 20
240.7232424661571031
 30
0.0
 11
540.7088629247429026
 21
240.7232424661571031
 31
0.0
  0
LINE
  5
2F2
  8
CONTORNO
 10
538.7088629247426752
 20
340.7232424661572168
 30
0.0
 11
538.7088629247426752
 21
240.7232424661571031
 31
0.0
  0
INSERT
  5
2F3
  8
0
  2
*U24
 10
0.0
 20
0.0
 30
0.0
  0
ENDBLK
  5
2F4
  8
0
  0
BLOCK
  8
0
  2
*U24
 70
     1
 10
0.0
 20
0.0
 30
0.0
  3
*U24
  1

  0
TEXT
  5
54A
  8
CONTORNO
 10
536.8732837085135543
 20
286.9385797193604049
 30
0.0
 40
6.3499999999999979
  1
100
 50
90.0000000000003837
 41
0.75
  7
SLDTEXTSTYLE1
  0
ENDBLK
  5
54C
  8
0
  0
BLOCK
  8
0
  2
_D_11
 70
     0
 10
0.0
 20
0.0
 30
0.0
  3
_D_11
  1

  0
SOLID
  5
2F7
  8
CONTORNO
 10
242.1085894688704911
 20
263.2293012917608053
 30
0.0
 11
235.6362119927997014
 21
261.5699635301069179
 31
0.0
 12
236.4342731686064951
 22
259.7012414106707183
 32
0.0
 13
236.4342731686064951
 23
259.7012414106707183
 33
0.0
  0
LINE
  5
2F8
  8
CONTORNO
 10
242.1085894688704911
 20
263.2293012917608053
 30
0.0
 11
198.5266113579226044
 21
244.6170719327465122
 31
0.0
  0
LINE
  5
2F9
  8
CONTORNO
 10
198.5266113579226044
 20
244.6170719327465122
 30
0.0
 11
133.734270465369292
 21
244.6170719327465122
 31
0.0
  0
INSERT
  5
2FA
  8
0
  2
*U26
 10
0.0
 20
0.0
 30
0.0
  0
INSERT
  5
2FB
  8
0
  2
*U27
 10
0.0
 20
0.0
 30
0.0
  0
INSERT
  5
2FC
  8
CONTORNO
  2
SW_SYMBOL_HOLE_SPOT
 10
133.734270465369292
 20
245.4976374076738921
 30
0.0
 41
0.00405556640625
 42
0.00405556640625
 43
0.00405556640625
  0
INSERT
  5
2FD
  8
0
  2
*U29
 10
0.0
 20
0.0
 30
0.0
  0
INSERT
  5
2FE
  8
0
  2
*U30
 10
0.0
 20
0.0
 30
0.0
  0
INSERT
  5
2FF
  8
CONTORNO
  2
SW_SYMBOL_HOLE_DEPTH
 10
176.8872248947573098
 20
245.4976374076738921
 30
0.0
 41
0.00405556640625
 42
0.00405556640625
 43
0.00405556640625
  0
INSERT
  5
300
  8
0
  2
*U32
 10
0.0
 20
0.0
 30
0.0
  0
ENDBLK
  5
301
  8
0
  0
BLOCK
  8
0
  2
*U26
 70
     1
 10
0.0
 20
0.0
 30
0.0
  3
*U26
  1

  0
TEXT
  5
54E
  8
CONTORNO
 10
136.0320295214606006
 20
256.5420951455243994
 30
0.0
 40
6.3499999999999979
  1
\U+2205
 41
0.75
  7
SLDTEXTSTYLE1
  0
ENDBLK
  5
550
  8
0
  0
BLOCK
  8
0
  2
*U27
 70
     1
 10
0.0
 20
0.0
 30
0.0
  3
*U27
  1

  0
TEXT
  5
552
  8
CONTORNO
 10
145.6170021563721093
 20
256.5420951455243994
 30
0.0
 40
6.3499999999999979
  1
7 PASSANTE
 41
0.75
  7
SLDTEXTSTYLE1
  0
ENDBLK
  5
554
  8
0
  0
BLOCK
  8
0
  2
SW_SYMBOL_HOLE_SPOT
 70
     0
 10
0.0
 20
0.0
 30
0.0
  3
SW_SYMBOL_HOLE_SPOT
  1

  0
LINE
  5
304
  8
CONTORNO
 62
     0
 10
0.0
 20
1750.0
 30
0.0
 11
0.0
 21
150.0
 31
0.0
  0
LINE
  5
305
  8
CONTORNO
 62
     0
 10
0.0
 20
150.0
 30
0.0
 11
3200.0
 21
150.0
 31
0.0
  0
LINE
  5
306
  8
CONTORNO
 62
     0
 10
3200.0
 20
150.0
 30
0.0
 11
3200.0
 21
1750.0
 31
0.0
  0
ENDBLK
  5
307
  8
0
  0
BLOCK
  8
0
  2
*U29
 70
     1
 10
0.0
 20
0.0
 30
0.0
  3
*U29
  1

  0
TEXT
  5
556
  8
CONTORNO
 10
150.8863265633536059
 20
246.4526511489758889
 30
0.0
 40
6.3499999999999979
  1
\U+2205
 41
0.75
  7
SLDTEXTSTYLE1
  0
ENDBLK
  5
558
  8
0
  0
BLOCK
  8
0
  2
*U30
 70
     1
 10
0.0
 20
0.0
 30
0.0
  3
*U30
  1

  0
TEXT
  5
55A
  8
CONTORNO
 10
160.4712991982650863
 20
246.4526511489758889
 30
0.0
 40
6.3499999999999979
  1
12,7
 41
0.75
  7
SLDTEXTSTYLE1
  0
ENDBLK
  5
55C
  8
0
  0
BLOCK
  8
0
  2
SW_SYMBOL_HOLE_DEPTH
 70
     0
 10
0.0
 20
0.0
 30
0.0
  3
SW_SYMBOL_HOLE_DEPTH
  1

  0
LINE
  5
30A
  8
CONTORNO
 62
     0
 10
0.0
 20
1750.0
 30
0.0
 11
1600.0
 21
1750.0
 31
0.0
  0
LINE
  5
30B
  8
CONTORNO
 62
     0
 10
800.0
 20
1750.0
 30
0.0
 11
800.0
 21
150.0
 31
0.0
  0
LINE
  5
30C
  8
CONTORNO
 62
     0
 10
200.0
 20
1110.0
 30
0.0
 11
800.0
 21
150.0
 31
0.0
  0
LINE
  5
30D
  8
CONTORNO
 62
     0
 10
1400.0
 20
1110.0
 30
0.0
 11
800.0
 21
150.0
 31
0.0
  0
ENDBLK
  5
30E
  8
0
  0
BLOCK
  8
0
  2
*U32
 70
     1
 10
0.0
 20
0.0
 30
0.0
  3
*U32
  1

  0
TEXT
  5
55E
  8
CONTORNO
 10
185.9677243053866107
 20
246.4526511489758889
 30
0.0
 40
6.3499999999999979
  1
10
 41
0.75
  7
SLDTEXTSTYLE1
  0
ENDBLK
  5
560
  8
0
  0
BLOCK
  8
0
  2
_D_12
 70
     0
 10
0.0
 20
0.0
 30
0.0
  3
_D_12
  1

  0
SOLID
  5
311
  8
CONTORNO
 10
155.8700201249066879
 20
394.7481078001723063
 30
0.0
 11
149.9674704248589023
 21
391.6168174849083812
 31
0.0
 12
151.181617788986614
 22
389.9874402486057079
 32
0.0
 13
151.181617788986614
 23
389.9874402486057079
 33
0.0
  0
LINE
  5
312
  8
CONTORNO
 10
155.8700201249066879
 20
394.7481078001723063
 30
0.0
 11
132.4460363852371074
 21
377.2934831244123188
 31
0.0
  0
INSERT
  5
313
  8
0
  2
*U34
 10
0.0
 20
0.0
 30
0.0
  0
ENDBLK
  5
314
  8
0
  0
BLOCK
  8
0
  2
*U34
 70
     1
 10
0.0
 20
0.0
 30
0.0
  3
*U34
  1

  0
TEXT
  5
562
  8
CONTORNO
 10
131.3852764344630089
 20
378.7170155291585161
 30
0.0
 40
6.3499999999999979
  1
R10
 50
36.6920196102336931
 41
0.75
  7
SLDTEXTSTYLE1
  0
ENDBLK
  5
564
  8
0
  0
BLOCK
  8
0
  2
SW_CENTERMARKSYMBOL_0
 70
     0
 10
0.0
 20
0.0
 30
0.0
  3
SW_CENTERMARKSYMBOL_0
  1

  0
LINE
  5
317
  8
CONTORNO
 62
     0
 10
0.0
 20
0.0
 30
0.0
 11
0.0
 21
2.5000000000000022
 31
0.0
  0
LINE
  5
318
  8
CONTORNO
 62
     0
 10
0.0
 20
0.0
 30
0.0
 11
-2.5000000000000022
 21
0.0
 31
0.0
  0
LINE
  5
319
  8
CONTORNO
 62
     0
 10
0.0
 20
0.0
 30
0.0
 11
0.0
 21
-2.5000000000000022
 31
0.0
  0
LINE
  5
31A
  8
CONTORNO
 62
     0
 10
0.0
 20
0.0
 30
0.0
 11
2.5000000000000022
 21
0.0
 31
0.0
  0
LINE
  5
31B
  8
CONTORNO
 62
     0
 10
0.0
 20
5.0000000000000044
 30
0.0
 11
0.0
 21
7.5000000000000062
 31
0.0
  0
LINE
  5
31C
  8
CONTORNO
 62
     0
 10
-5.0000000000000044
 20
0.0
 30
0.0
 11
-7.5000000000000062
 21
0.0
 31
0.0
  0
LINE
  5
31D
  8
CONTORNO
 62
     0
 10
0.0
 20
-5.0000000000000044
 30
0.0
 11
0.0
 21
-7.5000000000000062
 31
0.0
  0
LINE
  5
31E
  8
CONTORNO
 62
     0
 10
5.0000000000000044
 20
0.0
 30
0.0
 11
7.5000000000000062
 21
0.0
 31
0.0
  0
ENDBLK
  5
31F
  8
0
  0
BLOCK
  8
0
  2
SW_CENTERMARKSYMBOL_1
 70
     0
 10
0.0
 20
0.0
 30
0.0
  3
SW_CENTERMARKSYMBOL_1
  1

  0
LINE
  5
322
  8
CONTORNO
 62
     0
 10
0.0
 20
0.0
 30
0.0
 11
0.0
 21
2.5000000000000022
 31
0.0
  0
LINE
  5
323
  8
CONTORNO
 62
     0
 10
0.0
 20
0.0
 30
0.0
 11
-2.5000000000000022
 21
0.0
 31
0.0
  0
LINE
  5
324
  8
CONTORNO
 62
     0
 10
0.0
 20
0.0
 30
0.0
 11
0.0
 21
-2.5000000000000022
 31
0.0
  0
LINE
  5
325
  8
CONTORNO
 62
     0
 10
0.0
 20
0.0
 30
0.0
 11
2.5000000000000022
 21
0.0
 31
0.0
  0
LINE
  5
326
  8
CONTORNO
 62
     0
 10
0.0
 20
5.0000000000000044
 30
0.0
 11
0.0
 21
8.8500000000000245
 31
0.0
  0
LINE
  5
327
  8
CONTORNO
 62
     0
 10
-5.0000000000000044
 20
0.0
 30
0.0
 11
-8.8500000000000245
 21
0.0
 31
0.0
  0
LINE
  5
328
  8
CONTORNO
 62
     0
 10
0.0
 20
-5.0000000000000044
 30
0.0
 11
0.0
 21
-8.8499999999999694
 31
0.0
  0
LINE
  5
329
  8
CONTORNO
 62
     0
 10
5.0000000000000044
 20
0.0
 30
0.0
 11
8.8500000000000245
 21
0.0
 31
0.0
  0
ENDBLK
  5
32A
  8
0
  0
BLOCK
  8
0
  2
SW_CENTERMARKSYMBOL_2
 70
     0
 10
0.0
 20
0.0
 30
0.0
  3
SW_CENTERMARKSYMBOL_2
  1

  0
LINE
  5
32D
  8
CONTORNO
 62
     0
 10
0.0
 20
0.0
 30
0.0
 11
0.0
 21
2.5000000000000022
 31
0.0
  0
LINE
  5
32E
  8
CONTORNO
 62
     0
 10
0.0
 20
0.0
 30
0.0
 11
-2.5000000000000022
 21
0.0
 31
0.0
  0
LINE
  5
32F
  8
CONTORNO
 62
     0
 10
0.0
 20
0.0
 30
0.0
 11
0.0
 21
-2.5000000000000022
 31
0.0
  0
LINE
  5
330
  8
CONTORNO
 62
     0
 10
0.0
 20
0.0
 30
0.0
 11
2.5000000000000022
 21
0.0
 31
0.0
  0
LINE
  5
331
  8
CONTORNO
 62
     0
 10
0.0
 20
5.0000000000000044
 30
0.0
 11
0.0
 21
8.8500000000000245
 31
0.0
  0
LINE
  5
332
  8
CONTORNO
 62
     0
 10
-5.0000000000000044
 20
0.0
 30
0.0
 11
-8.8500000000000245
 21
0.0
 31
0.0
  0
LINE
  5
333
  8
CONTORNO
 62
     0
 10
0.0
 20
-5.0000000000000044
 30
0.0
 11
0.0
 21
-8.8499999999999694
 31
0.0
  0
LINE
  5
334
  8
CONTORNO
 62
     0
 10
5.0000000000000044
 20
0.0
 30
0.0
 11
8.8499999999999694
 21
0.0
 31
0.0
  0
ENDBLK
  5
335
  8
0
  0
BLOCK
  8
0
  2
SW_CENTERMARKSYMBOL_3
 70
     0
 10
0.0
 20
0.0
 30
0.0
  3
SW_CENTERMARKSYMBOL_3
  1

  0
LINE
  5
338
  8
CONTORNO
 62
     0
 10
0.0
 20
0.0
 30
0.0
 11
0.0
 21
2.5000000000000022
 31
0.0
  0
LINE
  5
339
  8
CONTORNO
 62
     0
 10
0.0
 20
0.0
 30
0.0
 11
-2.5000000000000022
 21
0.0
 31
0.0
  0
LINE
  5
33A
  8
CONTORNO
 62
     0
 10
0.0
 20
0.0
 30
0.0
 11
0.0
 21
-2.5000000000000022
 31
0.0
  0
LINE
  5
33B
  8
CONTORNO
 62
     0
 10
0.0
 20
0.0
 30
0.0
 11
2.5000000000000302
 21
0.0
 31
0.0
  0
LINE
  5
33C
  8
CONTORNO
 62
     0
 10
0.0
 20
5.0000000000000044
 30
0.0
 11
0.0
 21
8.8499999999999694
 31
0.0
  0
LINE
  5
33D
  8
CONTORNO
 62
     0
 10
-5.0000000000000044
 20
0.0
 30
0.0
 11
-8.8499999999999961
 21
0.0
 31
0.0
  0
LINE
  5
33E
  8
CONTORNO
 62
     0
 10
0.0
 20
-5.0000000000000044
 30
0.0
 11
0.0
 21
-8.8500000000000245
 31
0.0
  0
LINE
  5
33F
  8
CONTORNO
 62
     0
 10
4.999999999999976
 20
0.0
 30
0.0
 11
8.8499999999999961
 21
0.0
 31
0.0
  0
ENDBLK
  5
340
  8
0
  0
BLOCK
  8
0
  2
SW_CENTERMARKSYMBOL_4
 70
     0
 10
0.0
 20
0.0
 30
0.0
  3
SW_CENTERMARKSYMBOL_4
  1

  0
LINE
  5
343
  8
CONTORNO
 62
     0
 10
0.0
 20
0.0
 30
0.0
 11
0.0
 21
2.5000000000000022
 31
0.0
  0
LINE
  5
344
  8
CONTORNO
 62
     0
 10
0.0
 20
0.0
 30
0.0
 11
-2.5000000000000022
 21
0.0
 31
0.0
  0
LINE
  5
345
  8
CONTORNO
 62
     0
 10
0.0
 20
0.0
 30
0.0
 11
0.0
 21
-2.5000000000000022
 31
0.0
  0
LINE
  5
346
  8
CONTORNO
 62
     0
 10
0.0
 20
0.0
 30
0.0
 11
2.5000000000000022
 21
0.0
 31
0.0
  0
LINE
  5
347
  8
CONTORNO
 62
     0
 10
0.0
 20
5.0000000000000044
 30
0.0
 11
0.0
 21
8.8499999999999694
 31
0.0
  0
LINE
  5
348
  8
CONTORNO
 62
     0
 10
-5.0000000000000044
 20
0.0
 30
0.0
 11
-8.8500000000000245
 21
0.0
 31
0.0
  0
LINE
  5
349
  8
CONTORNO
 62
     0
 10
0.0
 20
-5.0000000000000044
 30
0.0
 11
0.0
 21
-8.8500000000000245
 31
0.0
  0
LINE
  5
34A
  8
CONTORNO
 62
     0
 10
5.0000000000000044
 20
0.0
 30
0.0
 11
8.8500000000000245
 21
0.0
 31
0.0
  0
ENDBLK
  5
34B
  8
0
  0
BLOCK
  8
0
  2
*D40
 70
     1
 10
0.0
 20
0.0
 30
0.0
  3
*D40
  1

  0
LINE
  5
457
  8
CONTORNO
 62
     0
 10
828.7622545493533153
 20
593.5189466077717952
 30
0.0
 11
828.7622545493533153
 21
463.1694390832104773
 31
0.0
  0
LINE
  5
458
  8
CONTORNO
 62
     0
 10
778.7622545493535426
 20
434.584209401903081
 30
0.0
 11
778.7622545493535426
 21
463.1694390832104773
 31
0.0
  0
LINE
  5
459
  8
CONTORNO
 62
     0
 10
822.1582545493531597
 20
463.1694390832104773
 30
0.0
 11
785.3662545493536982
 21
463.1694390832104773
 31
0.0
  0
SOLID
  5
45A
  8
CONTORNO
 62
     0
 10
822.1582545493531597
 20
464.2701057498769046
 30
0.0
 11
822.1582545493531597
 21
462.0687724165438226
 31
0.0
 12
828.7622545493533153
 22
463.1694390832104773
 32
0.0
 13
828.7622545493533153
 23
463.1694390832104773
 33
0.0
  0
SOLID
  5
45B
  8
CONTORNO
 62
     0
 10
785.3662545493536982
 20
464.2701057498769046
 30
0.0
 11
785.3662545493536982
 21
462.0687724165438226
 31
0.0
 12
778.7622545493535426
 22
463.1694390832104773
 32
0.0
 13
778.7622545493535426
 23
463.1694390832104773
 33
0.0
  0
INSERT
  5
45C
  8
0
  2
*U41
 10
0.0
 20
0.0
 30
0.0
  0
POINT
  5
45D
  8
DEFPOINTS
 62
     0
 10
828.7622545493533153
 20
593.5814466077719089
 30
0.0
  0
POINT
  5
45E
  8
DEFPOINTS
 62
     0
 10
778.7622545493535426
 20
434.5217094019031947
 30
0.0
  0
POINT
  5
45F
  8
DEFPOINTS
 62
     0
 10
778.7622545493535426
 20
463.1694390832104773
 30
0.0
  0
ENDBLK
  5
3C7
  8
0
  0
BLOCK
  8
0
  2
*U41
 70
     1
 10
0.0
 20
0.0
 30
0.0
  3
*U41
  1

  0
TEXT
  5
56E
  8
CONTORNO
 62
     0
 10
797.6633137385082364
 20
464.7569390832106251
 30
0.0
 40
6.3499999999999979
  1
50
 41
0.75
  7
SLDTEXTSTYLE1
  0
ENDBLK
  5
570
  8
0
  0
BLOCK
  8
0
  2
*D42
 70
     1
 10
0.0
 20
0.0
 30
0.0
  3
*D42
  1

  0
LINE
  5
460
  8
CONTORNO
 62
     0
 10
828.7622545493533153
 20
593.5189466077717952
 30
0.0
 11
828.7622545493533153
 21
409.0760684654459851
 31
0.0
  0
LINE
  5
461
  8
CONTORNO
 62
     0
 10
903.7622545493535426
 20
518.5189466077717952
 30
0.0
 11
903.7622545493535426
 21
409.0760684654459851
 31
0.0
  0
LINE
  5
462
  8
CONTORNO
 62
     0
 10
835.3662545493535845
 20
409.0760684654459851
 30
0.0
 11
897.1582545493536145
 21
409.0760684654459851
 31
0.0
  0
SOLID
  5
463
  8
CONTORNO
 62
     0
 10
835.3662545493535845
 20
410.1767351321128103
 30
0.0
 11
835.3662545493535845
 21
407.9754017987792736
 31
0.0
 12
828.7622545493533153
 22
409.0760684654459851
 32
0.0
 13
828.7622545493533153
 23
409.0760684654459851
 33
0.0
  0
SOLID
  5
464
  8
CONTORNO
 62
     0
 10
897.1582545493536145
 20
410.1767351321128103
 30
0.0
 11
897.1582545493536145
 21
407.9754017987792736
 31
0.0
 12
903.7622545493535426
 22
409.0760684654459851
 32
0.0
 13
903.7622545493535426
 23
409.0760684654459851
 33
0.0
  0
INSERT
  5
465
  8
0
  2
*U43
 10
0.0
 20
0.0
 30
0.0
  0
POINT
  5
466
  8
DEFPOINTS
 62
     0
 10
828.7622545493533153
 20
593.5814466077719089
 30
0.0
  0
POINT
  5
467
  8
DEFPOINTS
 62
     0
 10
903.7622545493535426
 20
518.5814466077719089
 30
0.0
  0
POINT
  5
468
  8
DEFPOINTS
 62
     0
 10
903.7622545493535426
 20
409.0760684654459851
 30
0.0
  0
ENDBLK
  5
3D3
  8
0
  0
BLOCK
  8
0
  2
*U43
 70
     1
 10
0.0
 20
0.0
 30
0.0
  3
*U43
  1

  0
TEXT
  5
572
  8
CONTORNO
 62
     0
 10
862.7916012896606617
 20
410.6635684654460192
 30
0.0
 40
6.3499999999999979
  1
75
 41
0.75
  7
SLDTEXTSTYLE1
  0
ENDBLK
  5
574
  8
0
  0
BLOCK
  8
0
  2
*D44
 70
     1
 10
0.0
 20
0.0
 30
0.0
  3
*D44
  1

  0
LINE
  5
469
  8
CONTORNO
 62
     0
 10
828.7622545493533153
 20
593.5189466077717952
 30
0.0
 11
828.7622545493533153
 21
409.0760684654459851
 31
0.0
  0
LINE
  5
46A
  8
CONTORNO
 62
     0
 10
753.762254549353429
 20
509.6689466077717725
 30
0.0
 11
753.762254549353429
 21
409.0760684654459851
 31
0.0
  0
LINE
  5
46B
  8
CONTORNO
 62
     0
 10
822.1582545493531597
 20
409.0760684654459851
 30
0.0
 11
760.3662545493533571
 21
409.0760684654459851
 31
0.0
  0
SOLID
  5
46C
  8
CONTORNO
 62
     0
 10
822.1582545493531597
 20
410.1767351321128103
 30
0.0
 11
822.1582545493531597
 21
407.9754017987792736
 31
0.0
 12
828.7622545493533153
 22
409.0760684654459851
 32
0.0
 13
828.7622545493533153
 23
409.0760684654459851
 33
0.0
  0
SOLID
  5
46D
  8
CONTORNO
 62
     0
 10
760.3662545493533571
 20
410.1767351321128103
 30
0.0
 11
760.3662545493533571
 21
407.9754017987792736
 31
0.0
 12
753.762254549353429
 22
409.0760684654459851
 32
0.0
 13
753.762254549353429
 23
409.0760684654459851
 33
0.0
  0
INSERT
  5
46E
  8
0
  2
*U45
 10
0.0
 20
0.0
 30
0.0
  0
POINT
  5
46F
  8
DEFPOINTS
 62
     0
 10
828.7622545493533153
 20
593.5814466077719089
 30
0.0
  0
POINT
  5
470
  8
DEFPOINTS
 62
     0
 10
753.762254549353429
 20
509.7314466077717157
 30
0.0
  0
POINT
  5
471
  8
DEFPOINTS
 62
     0
 10
753.762254549353429
 20
409.0760684654459851
 30
0.0
  0
ENDBLK
  5
3DF
  8
0
  0
BLOCK
  8
0
  2
*U45
 70
     1
 10
0.0
 20
0.0
 30
0.0
  3
*U45
  1

  0
TEXT
  5
576
  8
CONTORNO
 62
     0
 10
784.0789846401632985
 20
410.6635684654460192
 30
0.0
 40
6.3499999999999979
  1
75
 41
0.75
  7
SLDTEXTSTYLE1
  0
ENDBLK
  5
578
  8
0
  0
BLOCK
  8
0
  2
*D46
 70
     1
 10
0.0
 20
0.0
 30
0.0
  3
*D46
  1

  0
LINE
  5
472
  8
CONTORNO
 62
     0
 10
828.7622545493533153
 20
593.5189466077717952
 30
0.0
 11
828.7622545493533153
 21
368.5217094019031947
 31
0.0
  0
LINE
  5
473
  8
CONTORNO
 62
     0
 10
928.7622545493536563
 20
543.51894660777225
 30
0.0
 11
928.7622545493536563
 21
368.5217094019031947
 31
0.0
  0
LINE
  5
474
  8
CONTORNO
 62
     0
 10
835.3662545493535845
 20
368.5217094019031947
 30
0.0
 11
922.1582545493538419
 21
368.5217094019031947
 31
0.0
  0
SOLID
  5
475
  8
CONTORNO
 62
     0
 10
835.3662545493535845
 20
369.6223760685699062
 30
0.0
 11
835.3662545493535845
 21
367.4210427352364832
 31
0.0
 12
828.7622545493533153
 22
368.5217094019031947
 32
0.0
 13
828.7622545493533153
 23
368.5217094019031947
 33
0.0
  0
SOLID
  5
476
  8
CONTORNO
 62
     0
 10
922.1582545493538419
 20
369.6223760685699062
 30
0.0
 11
922.1582545493538419
 21
367.4210427352364832
 31
0.0
 12
928.7622545493536563
 22
368.5217094019031947
 32
0.0
 13
928.7622545493536563
 23
368.5217094019031947
 33
0.0
  0
INSERT
  5
477
  8
0
  2
*U47
 10
0.0
 20
0.0
 30
0.0
  0
POINT
  5
478
  8
DEFPOINTS
 62
     0
 10
828.7622545493533153
 20
593.5814466077719089
 30
0.0
  0
POINT
  5
479
  8
DEFPOINTS
 62
     0
 10
928.7622545493536563
 20
543.58144660777225
 30
0.0
  0
POINT
  5
47A
  8
DEFPOINTS
 62
     0
 10
928.7622545493536563
 20
368.5217094019031947
 30
0.0
  0
ENDBLK
  5
3EB
  8
0
  0
BLOCK
  8
0
  2
*U47
 70
     1
 10
0.0
 20
0.0
 30
0.0
  3
*U47
  1

  0
TEXT
  5
57A
  8
CONTORNO
 62
     0
 10
869.9617503737008519
 20
370.109209401903172
 30
0.0
 40
6.3499999999999979
  1
100
 41
0.75
  7
SLDTEXTSTYLE1
  0
ENDBLK
  5
57C
  8
0
  0
BLOCK
  8
0
  2
*D48
 70
     1
 10
0.0
 20
0.0
 30
0.0
  3
*D48
  1

  0
LINE
  5
47B
  8
CONTORNO
 62
     0
 10
828.7622545493533153
 20
593.5189466077717952
 30
0.0
 11
828.7622545493533153
 21
368.521709401903081
 31
0.0
  0
LINE
  5
47C
  8
CONTORNO
 62
     0
 10
728.7622545493550206
 20
449.2968955892112035
 30
0.0
 11
728.7622545493550206
 21
368.521709401903081
 31
0.0
  0
LINE
  5
47D
  8
CONTORNO
 62
     0
 10
822.1582545493531597
 20
368.521709401903081
 30
0.0
 11
735.3662545493549487
 21
368.521709401903081
 31
0.0
  0
SOLID
  5
47E
  8
CONTORNO
 62
     0
 10
822.1582545493531597
 20
369.6223760685696789
 30
0.0
 11
822.1582545493531597
 21
367.4210427352364832
 31
0.0
 12
828.7622545493533153
 22
368.521709401903081
 32
0.0
 13
828.7622545493533153
 23
368.521709401903081
 33
0.0
  0
SOLID
  5
47F
  8
CONTORNO
 62
     0
 10
735.3662545493549487
 20
369.6223760685696789
 30
0.0
 11
735.3662545493549487
 21
367.4210427352364832
 31
0.0
 12
728.7622545493550206
 22
368.521709401903081
 32
0.0
 13
728.7622545493550206
 23
368.521709401903081
 33
0.0
  0
INSERT
  5
480
  8
0
  2
*U49
 10
0.0
 20
0.0
 30
0.0
  0
POINT
  5
481
  8
DEFPOINTS
 62
     0
 10
828.7622545493533153
 20
593.5814466077719089
 30
0.0
  0
POINT
  5
482
  8
DEFPOINTS
 62
     0
 10
728.7622545493550206
 20
449.3593955892110898
 30
0.0
  0
POINT
  5
483
  8
DEFPOINTS
 62
     0
 10
728.7622545493550206
 20
368.521709401903081
 30
0.0
  0
ENDBLK
  5
3F7
  8
0
  0
BLOCK
  8
0
  2
*U49
 70
     1
 10
0.0
 20
0.0
 30
0.0
  3
*U49
  1

  0
TEXT
  5
57E
  8
CONTORNO
 62
     0
 10
775.0895868232641988
 20
370.1092094019031151
 30
0.0
 40
6.3499999999999979
  1
100
 41
0.75
  7
SLDTEXTSTYLE1
  0
ENDBLK
  5
580
  8
0
  0
BLOCK
  8
0
  2
*D50
 70
     1
 10
0.0
 20
0.0
 30
0.0
  3
*D50
  1

  0
LINE
  5
484
  8
CONTORNO
 62
     0
 10
631.3605771825132251
 20
692.4787692182884484
 30
0.0
 11
661.9250404966310271
 21
677.1661151967307433
 31
0.0
  0
INSERT
  5
485
  8
0
  2
*U51
 10
0.0
 20
0.0
 30
0.0
  0
SOLID
  5
486
  8
CONTORNO
 62
     0
 10
662.4180570373282535
 20
678.1501892801767326
 30
0.0
 11
661.4320239559336869
 21
676.1820411132846402
 31
0.0
 12
667.8294849973070768
 22
674.2080159525478393
 32
0.0
 13
667.8294849973070768
 23
674.2080159525478393
 33
0.0
  0
POINT
  5
487
  8
DEFPOINTS
 62
     0
 10
667.8294849973070768
 20
674.2080159525478393
 30
0.0
  0
POINT
  5
488
  8
DEFPOINTS
 62
     0
 10
989.6950241013997811
 20
512.9548772629957512
 30
0.0
  0
ENDBLK
  5
403
  8
0
  0
BLOCK
  8
0
  2
*U51
 70
     1
 10
0.0
 20
0.0
 30
0.0
  3
*U51
  1

  0
TEXT
  5
582
  8
CONTORNO
 62
     0
 10
633.4909963519506846
 20
693.1870252895610065
 30
0.0
 40
6.3499999999999979
  1
\U+2205360
 50
333.3893434676776906
 41
0.75
  7
SLDTEXTSTYLE1
  0
ENDBLK
  5
584
  8
0
  0
BLOCK
  8
0
  2
*D52
 70
     1
 10
0.0
 20
0.0
 30
0.0
  3
*D52
  1

  0
LINE
  5
489
  8
CONTORNO
 62
     0
 10
828.8247545493542248
 20
593.5814466077720226
 30
0.0
 11
1008.3723235715830242
 21
593.5814466077720226
 31
0.0
  0
LINE
  5
48A
  8
CONTORNO
 62
     0
 10
987.8844917552228253
 20
543.5814466077725911
 30
0.0
 11
1008.3723235715830242
 21
543.5814466077725911
 31
0.0
  0
LINE
  5
48B
  8
CONTORNO
 62
     0
 10
1008.3723235715830242
 20
586.9774466077719808
 30
0.0
 11
1008.3723235715830242
 21
550.1854466077726329
 31
0.0
  0
SOLID
  5
48C
  8
CONTORNO
 62
     0
 10
1007.2716569049159716
 20
586.9774466077719808
 30
0.0
 11
1009.4729902382490536
 21
586.9774466077719808
 31
0.0
 12
1008.3723235715830242
 22
593.5814466077720226
 32
0.0
 13
1008.3723235715830242
 23
593.5814466077720226
 33
0.0
  0
SOLID
  5
48D
  8
CONTORNO
 62
     0
 10
1007.2716569049159716
 20
550.1854466077726329
 30
0.0
 11
1009.4729902382490536
 21
550.1854466077726329
 31
0.0
 12
1008.3723235715830242
 22
543.5814466077725911
 32
0.0
 13
1008.3723235715830242
 23
543.5814466077725911
 33
0.0
  0
INSERT
  5
48E
  8
0
  2
*U53
 10
0.0
 20
0.0
 30
0.0
  0
POINT
  5
48F
  8
DEFPOINTS
 62
     0
 10
828.7622545493539974
 20
593.5814466077720226
 30
0.0
  0
POINT
  5
490
  8
DEFPOINTS
 62
     0
 10
987.8219917552227116
 20
543.5814466077725911
 30
0.0
  0
POINT
  5
491
  8
DEFPOINTS
 62
     0
 10
1008.3723235715830242
 20
543.5814466077725911
 30
0.0
  0
ENDBLK
  5
40B
  8
0
  0
BLOCK
  8
0
  2
*U53
 70
     1
 10
0.0
 20
0.0
 30
0.0
  3
*U53
  1

  0
TEXT
  5
586
  8
CONTORNO
 62
     0
 10
1006.7848235715830469
 20
567.1489185637223045
 30
0.0
 40
6.3499999999999979
  1
50
 50
90.0
 41
0.75
  7
SLDTEXTSTYLE1
  0
ENDBLK
  5
588
  8
0
  0
BLOCK
  8
0
  2
*D54
 70
     1
 10
0.0
 20
0.0
 30
0.0
  3
*D54
  1

  0
LINE
  5
492
  8
CONTORNO
 62
     0
 10
828.8247545493542248
 20
593.5814466077720226
 30
0.0
 11
1024.6971546668580686
 21
593.5814466077720226
 31
0.0
  0
LINE
  5
493
  8
CONTORNO
 62
     0
 10
903.8247545493543385
 20
518.5814466077720226
 30
0.0
 11
1024.6971546668580686
 21
518.5814466077720226
 31
0.0
  0
LINE
  5
494
  8
CONTORNO
 62
     0
 10
1024.6971546668580686
 20
586.9774466077719808
 30
0.0
 11
1024.6971546668580686
 21
525.1854466077720645
 31
0.0
  0
SOLID
  5
495
  8
CONTORNO
 62
     0
 10
1023.596488000191016
 20
586.9774466077719808
 30
0.0
 11
1025.797821333524098
 21
586.9774466077719808
 31
0.0
 12
1024.6971546668580686
 22
593.5814466077720226
 32
0.0
 13
1024.6971546668580686
 23
593.5814466077720226
 33
0.0
  0
SOLID
  5
496
  8
CONTORNO
 62
     0
 10
1023.596488000191016
 20
525.1854466077720645
 30
0.0
 11
1025.797821333524098
 21
525.1854466077720645
 31
0.0
 12
1024.6971546668580686
 22
518.5814466077720226
 32
0.0
 13
1024.6971546668580686
 23
518.5814466077720226
 33
0.0
  0
INSERT
  5
497
  8
0
  2
*U55
 10
0.0
 20
0.0
 30
0.0
  0
POINT
  5
498
  8
DEFPOINTS
 62
     0
 10
828.7622545493539974
 20
593.5814466077720226
 30
0.0
  0
POINT
  5
499
  8
DEFPOINTS
 62
     0
 10
903.7622545493539974
 20
518.5814466077720226
 30
0.0
  0
POINT
  5
49A
  8
DEFPOINTS
 62
     0
 10
1024.6971546668580686
 20
518.5814466077720226
 30
0.0
  0
ENDBLK
  5
417
  8
0
  0
BLOCK
  8
0
  2
*U55
 70
     1
 10
0.0
 20
0.0
 30
0.0
  3
*U55
  1

  0
TEXT
  5
58A
  8
CONTORNO
 62
     0
 10
1023.1096546668579776
 20
555.3246617970301031
 30
0.0
 40
6.3499999999999979
  1
75
 50
90.0
 41
0.75
  7
SLDTEXTSTYLE1
  0
ENDBLK
  5
58C
  8
0
  0
BLOCK
  8
0
  2
*D56
 70
     1
 10
0.0
 20
0.0
 30
0.0
  3
*D56
  1

  0
LINE
  5
49B
  8
CONTORNO
 62
     0
 10
828.8247545493542248
 20
593.5814466077720226
 30
0.0
 11
1024.6971546668580686
 21
593.5814466077720226
 31
0.0
  0
LINE
  5
49C
  8
CONTORNO
 62
     0
 10
903.8247545493543385
 20
668.5814466077720226
 30
0.0
 11
1024.6971546668580686
 21
668.5814466077720226
 31
0.0
  0
LINE
  5
49D
  8
CONTORNO
 62
     0
 10
1024.6971546668580686
 20
600.1854466077720645
 30
0.0
 11
1024.6971546668580686
 21
661.9774466077719808
 31
0.0
  0
SOLID
  5
49E
  8
CONTORNO
 62
     0
 10
1023.596488000191016
 20
600.1854466077720645
 30
0.0
 11
1025.797821333524098
 21
600.1854466077720645
 31
0.0
 12
1024.6971546668580686
 22
593.5814466077720226
 32
0.0
 13
1024.6971546668580686
 23
593.5814466077720226
 33
0.0
  0
SOLID
  5
49F
  8
CONTORNO
 62
     0
 10
1023.596488000191016
 20
661.9774466077719808
 30
0.0
 11
1025.797821333524098
 21
661.9774466077719808
 31
0.0
 12
1024.6971546668580686
 22
668.5814466077720226
 32
0.0
 13
1024.6971546668580686
 23
668.5814466077720226
 33
0.0
  0
INSERT
  5
4A0
  8
0
  2
*U57
 10
0.0
 20
0.0
 30
0.0
  0
POINT
  5
4A1
  8
DEFPOINTS
 62
     0
 10
828.7622545493539974
 20
593.5814466077720226
 30
0.0
  0
POINT
  5
4A2
  8
DEFPOINTS
 62
     0
 10
903.7622545493539974
 20
668.5814466077720226
 30
0.0
  0
POINT
  5
4A3
  8
DEFPOINTS
 62
     0
 10
1024.6971546668580686
 20
668.5814466077720226
 30
0.0
  0
ENDBLK
  5
423
  8
0
  0
BLOCK
  8
0
  2
*U57
 70
     1
 10
0.0
 20
0.0
 30
0.0
  3
*U57
  1

  0
TEXT
  5
58E
  8
CONTORNO
 62
     0
 10
1023.1096546668579776
 20
632.0513679448212088
 30
0.0
 40
6.3499999999999979
  1
75
 50
90.0
 41
0.75
  7
SLDTEXTSTYLE1
  0
ENDBLK
  5
590
  8
0
  0
BLOCK
  8
0
  2
*D58
 70
     1
 10
0.0
 20
0.0
 30
0.0
  3
*D58
  1

  0
LINE
  5
4A4
  8
CONTORNO
 62
     0
 10
828.8247545493542248
 20
593.5814466077720226
 30
0.0
 11
1044.5227713819879227
 21
593.5814466077720226
 31
0.0
  0
LINE
  5
4A5
  8
CONTORNO
 62
     0
 10
878.8247545493543385
 20
693.5814466077720226
 30
0.0
 11
1044.5227713819879227
 21
693.5814466077720226
 31
0.0
  0
LINE
  5
4A6
  8
CONTORNO
 62
     0
 10
1044.5227713819879227
 20
600.1854466077720645
 30
0.0
 11
1044.5227713819879227
 21
686.9774466077719808
 31
0.0
  0
SOLID
  5
4A7
  8
CONTORNO
 62
     0
 10
1043.4221047153209838
 20
600.1854466077720645
 30
0.0
 11
1045.623438048655089
 21
600.1854466077720645
 31
0.0
 12
1044.5227713819879227
 22
593.5814466077720226
 32
0.0
 13
1044.5227713819879227
 23
593.5814466077720226
 33
0.0
  0
SOLID
  5
4A8
  8
CONTORNO
 62
     0
 10
1043.4221047153209838
 20
686.9774466077719808
 30
0.0
 11
1045.623438048655089
 21
686.9774466077719808
 31
0.0
 12
1044.5227713819879227
 22
693.5814466077720226
 32
0.0
 13
1044.5227713819879227
 23
693.5814466077720226
 33
0.0
  0
INSERT
  5
4A9
  8
0
  2
*U59
 10
0.0
 20
0.0
 30
0.0
  0
POINT
  5
4AA
  8
DEFPOINTS
 62
     0
 10
828.7622545493539974
 20
593.5814466077720226
 30
0.0
  0
POINT
  5
4AB
  8
DEFPOINTS
 62
     0
 10
878.7622545493539974
 20
693.5814466077720226
 30
0.0
  0
POINT
  5
4AC
  8
DEFPOINTS
 62
     0
 10
1044.5227713819879227
 20
693.5814466077720226
 30
0.0
  0
ENDBLK
  5
42F
  8
0
  0
BLOCK
  8
0
  2
*U59
 70
     1
 10
0.0
 20
0.0
 30
0.0
  3
*U59
  1

  0
TEXT
  5
592
  8
CONTORNO
 62
     0
 10
1042.9352713819880591
 20
639.9266094633281909
 30
0.0
 40
6.3499999999999979
  1
100
 50
90.0
 41
0.75
  7
SLDTEXTSTYLE1
  0
ENDBLK
  5
594
  8
0
  0
BLOCK
  8
0
  2
*D60
 70
     1
 10
0.0
 20
0.0
 30
0.0
  3
*D60
  1

  0
LINE
  5
4AD
  8
CONTORNO
 62
     0
 10
828.8247545493542248
 20
593.5814466077720226
 30
0.0
 11
1044.5227713819879227
 21
593.5814466077720226
 31
0.0
  0
LINE
  5
4AE
  8
CONTORNO
 62
     0
 10
973.0468055679135659
 20
493.5814466077720795
 30
0.0
 11
1044.5227713819879227
 21
493.5814466077720795
 31
0.0
  0
LINE
  5
4AF
  8
CONTORNO
 62
     0
 10
1044.5227713819879227
 20
586.9774466077719808
 30
0.0
 11
1044.5227713819879227
 21
500.1854466077721213
 31
0.0
  0
SOLID
  5
4B0
  8
CONTORNO
 62
     0
 10
1043.4221047153209838
 20
586.9774466077719808
 30
0.0
 11
1045.623438048655089
 21
586.9774466077719808
 31
0.0
 12
1044.5227713819879227
 22
593.5814466077720226
 32
0.0
 13
1044.5227713819879227
 23
593.5814466077720226
 33
0.0
  0
SOLID
  5
4B1
  8
CONTORNO
 62
     0
 10
1043.4221047153218933
 20
500.1854466077721213
 30
0.0
 11
1045.623438048655089
 21
500.1854466077721213
 31
0.0
 12
1044.5227713819879227
 22
493.5814466077720795
 32
0.0
 13
1044.5227713819879227
 23
493.5814466077720795
 33
0.0
  0
INSERT
  5
4B2
  8
0
  2
*U61
 10
0.0
 20
0.0
 30
0.0
  0
POINT
  5
4B3
  8
DEFPOINTS
 62
     0
 10
828.7622545493539974
 20
593.5814466077720226
 30
0.0
  0
POINT
  5
4B4
  8
DEFPOINTS
 62
     0
 10
972.9843055679135659
 20
493.5814466077720795
 30
0.0
  0
POINT
  5
4B5
  8
DEFPOINTS
 62
     0
 10
1044.5227713819879227
 20
493.5814466077720795
 30
0.0
  0
ENDBLK
  5
43B
  8
0
  0
BLOCK
  8
0
  2
*U61
 70
     1
 10
0.0
 20
0.0
 30
0.0
  3
*U61
  1

  0
TEXT
  5
596
  8
CONTORNO
 62
     0
 10
1042.9352713819880591
 20
542.0722005473609215
 30
0.0
 40
6.3499999999999979
  1
100
 50
90.0
 41
0.75
  7
SLDTEXTSTYLE1
  0
ENDBLK
  5
598
  8
0
  0
BLOCK
  8
0
  2
*D62
 70
     1
 10
0.0
 20
0.0
 30
0.0
  3
*D62
  1

  0
LINE
  5
4B6
  8
CONTORNO
 62
     0
 10
697.344349368891244
 20
507.5647200709096865
 30
0.0
 11
727.9657352005702933
 21
507.5647200709096865
 31
0.0
  0
LINE
  5
4B7
  8
CONTORNO
 62
     0
 10
727.9657352005702933
 20
507.5647200709096865
 30
0.0
 11
741.8491510379481042
 21
513.4938066120032545
 31
0.0
  0
INSERT
  5
4B8
  8
0
  2
*U63
 10
0.0
 20
0.0
 30
0.0
  0
SOLID
  5
4B9
  8
CONTORNO
 62
     0
 10
741.4168679010529104
 20
514.5060310933646406
 30
0.0
 11
742.2814341748435254
 21
512.4815821306419821
 31
0.0
 12
747.9224979261157387
 22
516.0875054333755543
 32
0.0
 13
747.9224979261157387
 23
516.0875054333755543
 33
0.0
  0
POINT
  5
4BA
  8
DEFPOINTS
 62
     0
 10
747.9224979261157387
 20
516.0875054333755543
 30
0.0
  0
POINT
  5
4BB
  8
DEFPOINTS
 62
     0
 10
759.6020111725913466
 20
521.0753877821681499
 30
0.0
  0
ENDBLK
  5
448
  8
0
  0
BLOCK
  8
0
  2
*U63
 70
     1
 10
0.0
 20
0.0
 30
0.0
  3
*U63
  1

  0
TEXT
  5
59B
  8
CONTORNO
 62
     0
 10
644.9568493688913122
 20
509.7481410082726825
 30
0.0
 40
6.3499999999999979
  1
\U+22057 PASSANTE
 41
0.75
  7
SLDTEXTSTYLE1
  0
TEXT
  5
59C
  8
CONTORNO
 62
     0
 10
644.5093871481291217
 20
499.1648076749394249
 30
0.0
 40
6.3499999999999979
  1
v
 41
0.75
  7
MTXPL_GDT
  0
TEXT
  5
59E
  8
CONTORNO
 62
     0
 10
655.1546072532539711
 20
499.1648076749394249
 30
0.0
 40
6.3499999999999979
  1
\U+220512.7
 41
0.75
  7
SLDTEXTSTYLE1
  0
TEXT
  5
59F
  8
CONTORNO
 62
     0
 10
674.2046072532539256
 20
499.1648076749394249
 30
0.0
 40
6.3499999999999979
  1
x
 41
0.75
  7
MTXPL_GDT
  0
TEXT
  5
5A0
  8
CONTORNO
 62
     0
 10
679.9152265042395129
 20
499.1648076749394249
 30
0.0
 40
6.3499999999999979
  1
10
 41
0.75
  7
SLDTEXTSTYLE1
  0
ENDBLK
  5
5A2
  8
0
  0
BLOCK
  8
0
  2
*D64
 70
     1
 10
0.0
 20
0.0
 30
0.0
  3
*D64
  1

  0
LINE
  5
4BC
  8
CONTORNO
 62
     0
 10
638.3626134607299036
 20
630.2281918528391316
 30
0.0
 11
656.388452564167892
 21
643.6603330083719356
 31
0.0
  0
INSERT
  5
4BD
  8
0
  2
*U65
 10
0.0
 20
0.0
 30
0.0
  0
SOLID
  5
4BE
  8
CONTORNO
 62
     0
 10
655.7307894085988664
 20
644.5429123447029269
 30
0.0
 11
657.0461157197371449
 21
642.7777536720415128
 31
0.0
 12
661.683928582151907
 22
647.6063119417872258
 32
0.0
 13
661.683928582151907
 23
647.6063119417872258
 33
0.0
  0
POINT
  5
4BF
  8
DEFPOINTS
 62
     0
 10
661.683928582151907
 20
647.6063119417872258
 30
0.0
  0
POINT
  5
4C0
  8
DEFPOINTS
 62
     0
 10
669.7025173434843737
 20
653.5814466077702036
 30
0.0
  0
ENDBLK
  5
451
  8
0
  0
BLOCK
  8
0
  2
*U65
 70
     1
 10
0.0
 20
0.0
 30
0.0
  3
*U65
  1

  0
TEXT
  5
5A4
  8
CONTORNO
 62
     0
 10
638.6870117983662567
 20
632.4496954469257162
 30
0.0
 40
6.3499999999999979
  1
R10
 50
36.6920196102327267
 41
0.75
  7
SLDTEXTSTYLE1
  0
ENDBLK
  5
5A6
  8
0
  0
BLOCK
  8
0
  2
*U66
 70
     1
 10
0.0
 20
0.0
 30
0.0
  3
*U66
  1

  0
TEXT
  5
566
  8
0
 62
     7
 10
250.0541156897081976
 20
435.8096168789523972
 30
0.0
 40
5.2916666666666652
  1
A
 41
0.75
  7
SLDTEXTSTYLE1
  0
ENDBLK
  5
568
  8
0
  0
BLOCK
  8
0
  2
*U67
 70
     1
 10
0.0
 20
0.0
 30
0.0
  3
*U67
  1

  0
TEXT
  5
56A
  8
0
 62
     7
 10
250.0541156897081976
 20
13.3343081598360005
 30
0.0
 40
5.2916666666666652
  1
A
 41
0.75
  7
SLDTEXTSTYLE1
  0
ENDBLK
  5
56C
  8
0
  0
ENDSEC
  0
SECTION
  2
ENTITIES
  0
LINE
  5
38E
  8
0
  6
CONTINUOUS
 62
     7
 10
719.6651304558589572
 20
737.6954093321612618
 30
0.0
 11
775.9339334136590196
 21
719.7545517015303176
 31
0.0
  0
ARC
  5
38F
  8
0
  6
CONTINUOUS
 62
     7
 10
856.0195829274945254
 20
641.7398816583454391
 30
0.0
 40
180.0
 50
130.3498153942196041
 51
141.6482176515009996
  0
ARC
  5
390
  8
0
  6
CONTINUOUS
 62
     7
 10
745.9526356006398373
 20
771.2978497890139806
 30
0.0
 40
10.0000000000000107
 50
72.3155341450153344
 51
130.3498153942196041
  0
LINE
  5
391
  8
0
  6
CONTINUOUS
 62
     7
 10
934.0342529706806545
 20
721.8255311721802627
 30
0.0
 11
748.9903832235412438
 21
780.8252885518481889
 31
0.0
  0
LINE
  5
392
  8
0
  6
CONTINUOUS
 62
     7
 10
951.9751106013120534
 20
778.0943341299797567
 30
0.0
 11
934.0342529706806545
 21
721.8255311721802627
 31
0.0
  0
ARC
  5
393
  8
0
  6
CONTINUOUS
 62
     7
 10
961.5025493641463754
 20
775.0565865070782365
 30
0.0
 40
10.0000000000000497
 50
51.6482176515005094
 51
162.3155341450137996
  0
ARC
  5
394
  8
0
  6
CONTINUOUS
 62
     7
 10
856.0195829274945254
 20
641.7398816583454391
 30
0.0
 40
180.0
 50
40.3498153942184388
 51
51.6482176515005094
  0
ARC
  5
395
  8
0
  6
CONTINUOUS
 62
     7
 10
985.577551058163067
 20
751.8068289852008093
 30
0.0
 40
10.0
 50
342.315534145013828
 51
40.3498153942184388
  0
LINE
  5
396
  8
0
  6
CONTINUOUS
 62
     7
 10
936.1052324413300312
 20
563.725211615159651
 30
0.0
 11
995.1049898209972753
 21
748.7690813622994028
 31
0.0
  0
LINE
  5
397
  8
0
  6
CONTINUOUS
 62
     7
 10
992.3740353991297525
 20
545.7843539845282521
 30
0.0
 11
936.1052324413300312
 21
563.725211615159651
 31
0.0
  0
ARC
  5
398
  8
0
  6
CONTINUOUS
 62
     7
 10
989.336287776228346
 20
536.2569152216941575
 30
0.0
 40
10.0
 50
321.6482176515009996
 51
72.3155341450153344
  0
ARC
  5
399
  8
0
  6
CONTINUOUS
 62
     7
 10
856.0195829274945254
 20
641.7398816583454391
 30
0.0
 40
180.0
 50
310.3498153942207978
 51
321.6482176515050924
  0
ARC
  5
39A
  8
0
  6
CONTINUOUS
 62
     7
 10
966.0865302543496682
 20
512.1819135276765564
 30
0.0
 40
10.0000000000000409
 50
252.315534145015306
 51
310.3498153942207978
  0
LINE
  5
39B
  8
0
  6
CONTINUOUS
 62
     7
 10
778.0049128843087374
 20
561.654232144510047
 30
0.0
 11
963.0487826314480344
 21
502.6544747648421776
 31
0.0
  0
LINE
  5
39C
  8
0
  6
CONTINUOUS
 62
     7
 10
760.0640552536773384
 20
505.3854291867106099
 30
0.0
 11
778.0049128843087374
 21
561.654232144510047
 31
0.0
  0
ARC
  5
39D
  8
0
  6
CONTINUOUS
 62
     7
 10
750.5366164908431301
 20
508.4231768096120732
 30
0.0
 40
10.0
 50
231.6482176515011986
 51
342.315534145013828
  0
ARC
  5
39E
  8
0
  6
CONTINUOUS
 62
     7
 10
856.0195829274945254
 20
641.7398816583454391
 30
0.0
 40
180.0
 50
220.3498153942184103
 51
231.6482176515011986
  0
ARC
  5
39F
  8
0
  6
CONTINUOUS
 62
     7
 10
726.4616147968272344
 20
531.672934331488932
 30
0.0
 40
10.0
 50
162.3155341450137996
 51
220.3498153942184103
  0
LINE
  5
3A0
  8
0
  6
CONTINUOUS
 62
     7
 10
775.9339334136590196
 20
719.7545517015303176
 30
0.0
 11
716.9341760339930261
 21
534.7106819543904521
 31
0.0
  0
CIRCLE
  5
3A1
  8
0
  6
CONTINUOUS
 62
     7
 10
856.0195829274945254
 20
641.7398816583454391
 30
0.0
 40
5.0
  0
CIRCLE
  5
3A2
  8
0
  6
CONTINUOUS
 62
     7
 10
904.6922664769905396
 20
547.5009837653273053
 30
0.0
 40
6.349999999999965
  0
CIRCLE
  5
3A3
  8
0
  6
CONTINUOUS
 62
     7
 10
761.7806850344768463
 20
593.0671981088496523
 30
0.0
 40
6.349999999999965
  0
CIRCLE
  5
3A4
  8
0
  6
CONTINUOUS
 62
     7
 10
807.3468993779988523
 20
735.9787795513632318
 30
0.0
 40
6.350000000000021
  0
CIRCLE
  5
3A5
  8
0
  6
CONTINUOUS
 62
     7
 10
950.2584808205127729
 20
690.4125652078409985
 30
0.0
 40
6.350000000000021
  0
ARC
  5
3A6
  8
0
  6
CONTINUOUS
 62
     7
 10
722.7028780787604774
 20
747.2228480949953564
 30
0.0
 40
10.0000000000000107
 50
141.6482176515009996
 51
252.315534145015306
  0
CIRCLE
  5
3A7
  8
0
  6
CONTINUOUS
 62
     7
 10
807.3468993779988523
 20
735.9787795513632318
 30
0.0
 40
3.5
  0
CIRCLE
  5
3A8
  8
0
  6
CONTINUOUS
 62
     7
 10
761.7806850344768463
 20
593.0671981088496523
 30
0.0
 40
3.5
  0
CIRCLE
  5
3A9
  8
0
  6
CONTINUOUS
 62
     7
 10
904.6922664769905396
 20
547.5009837653273053
 30
0.0
 40
3.5
  0
CIRCLE
  5
3AA
  8
0
  6
CONTINUOUS
 62
     7
 10
950.2584808205127729
 20
690.4125652078409985
 30
0.0
 40
3.5
  0
ENDSEC
  0
EOF
