  0
SECTION
  2
HEADER
  9
$ACADVER
  1
AC1009
  9
$INSBASE
 10
0.0
 20
0.0
 30
0.0
  9
$EXTMIN
 10
673.9206686816927458
 20
407.422691156280905
 30
0.0
  9
$EXTMAX
 10
1895.5883032425040255
 20
2213.0958821625890778
 30
0.0
  9
$LIMMIN
 10
0.0
 20
0.0
  9
$LIMMAX
 10
420.0
 20
297.0
  9
$ORTHOMODE
 70
     0
  9
$REGENMODE
 70
     1
  9
$FILLMODE
 70
     1
  9
$QTEXTMODE
 70
     0
  9
$MIRRTEXT
 70
     0
  9
$DRAGMODE
 70
     2
  9
$LTSCALE
 40
1.0
  9
$OSMODE
 70
   293
  9
$ATTMODE
 70
     1
  9
$TEXTSIZE
 40
2.5
  9
$TRACEWID
 40
1.0
  9
$TEXTSTYLE
  7
STANDARD
  9
$CLAYER
  8
0
  9
$CELTYPE
  6
BYLAYER
  9
$CECOLOR
 62
   256
  9
$DIMSCALE
 40
1.0
  9
$DIMASZ
 40
2.5
  9
$DIMEXO
 40
0.625
  9
$DIMDLI
 40
3.75
  9
$DIMRND
 40
0.0
  9
$DIMDLE
 40
0.0
  9
$DIMEXE
 40
1.25
  9
$DIMTP
 40
0.0
  9
$DIMTM
 40
0.0
  9
$DIMTXT
 40
2.5
  9
$DIMCEN
 40
2.5
  9
$DIMTSZ
 40
0.0
  9
$DIMTOL
 70
     0
  9
$DIMLIM
 70
     0
  9
$DIMTIH
 70
     0
  9
$DIMTOH
 70
     0
  9
$DIMSE1
 70
     0
  9
$DIMSE2
 70
     0
  9
$DIMTAD
 70
     1
  9
$DIMZIN
 70
     8
  9
$DIMBLK
  1

  9
$DIMASO
 70
     1
  9
$DIMSHO
 70
     1
  9
$DIMPOST
  1

  9
$DIMAPOST
  1

  9
$DIMALT
 70
     0
  9
$DIMALTD
 70
     3
  9
$DIMALTF
 40
0.03937007874016
  9
$DIMLFAC
 40
1.0
  9
$DIMTOFL
 70
     1
  9
$DIMTVP
 40
0.0
  9
$DIMTIX
 70
     0
  9
$DIMSOXD
 70
     0
  9
$DIMSAH
 70
     0
  9
$DIMBLK1
  1

  9
$DIMBLK2
  1

  9
$DIMSTYLE
  2
ISO-25
  9
$DIMCLRD
 70
     0
  9
$DIMCLRE
 70
     0
  9
$DIMCLRT
 70
     0
  9
$DIMTFAC
 40
1.0
  9
$DIMGAP
 40
0.625
  9
$LUNITS
 70
     2
  9
$LUPREC
 70
     4
  9
$SKETCHINC
 40
1.0
  9
$FILLETRAD
 40
0.0
  9
$AUNITS
 70
     0
  9
$AUPREC
 70
     0
  9
$MENU
  1
.
  9
$ELEVATION
 40
0.0
  9
$PELEVATION
 40
0.0
  9
$THICKNESS
 40
0.0
  9
$LIMCHECK
 70
     0
  9
$BLIPMODE
 70
     0
  9
$CHAMFERA
 40
0.0
  9
$CHAMFERB
 40
0.0
  9
$SKPOLY
 70
     0
  9
$TDCREATE
 40
2460145.4627893520519137
  9
$TDUPDATE
 40
2460146.4574074069969356
  9
$TDINDWG
 40
0.0693402778
  9
$TDUSRTIMER
 40
0.0693402778
  9
$USRTIMER
 70
     1
  9
$ANGBASE
 50
0.0
  9
$ANGDIR
 70
     0
  9
$PDMODE
 70
     0
  9
$PDSIZE
 40
0.0
  9
$PLINEWID
 40
0.0
  9
$COORDS
 70
     1
  9
$SPLFRAME
 70
     0
  9
$SPLINETYPE
 70
     6
  9
$SPLINESEGS
 70
     8
  9
$ATTDIA
 70
     1
  9
$ATTREQ
 70
     1
  9
$HANDLING
 70
     1
  9
$HANDSEED
  5
8A2
  9
$SURFTAB1
 70
     6
  9
$SURFTAB2
 70
     6
  9
$SURFTYPE
 70
     6
  9
$SURFU
 70
     6
  9
$SURFV
 70
     6
  9
$UCSNAME
  2

  9
$UCSORG
 10
0.0
 20
0.0
 30
0.0
  9
$UCSXDIR
 10
1.0
 20
0.0
 30
0.0
  9
$UCSYDIR
 10
0.0
 20
1.0
 30
0.0
  9
$PUCSNAME
  2

  9
$PUCSORG
 10
0.0
 20
0.0
 30
0.0
  9
$PUCSXDIR
 10
1.0
 20
0.0
 30
0.0
  9
$PUCSYDIR
 10
0.0
 20
1.0
 30
0.0
  9
$USERI1
 70
     0
  9
$USERI2
 70
     0
  9
$USERI3
 70
     0
  9
$USERI4
 70
     0
  9
$USERI5
 70
     0
  9
$USERR1
 40
0.0
  9
$USERR2
 40
0.0
  9
$USERR3
 40
0.0
  9
$USERR4
 40
0.0
  9
$USERR5
 40
0.0
  9
$WORLDVIEW
 70
     1
  9
$SHADEDGE
 70
     3
  9
$SHADEDIF
 70
    70
  9
$TILEMODE
 70
     1
  9
$MAXACTVP
 70
    64
  9
$PLIMCHECK
 70
     0
  9
$PEXTMIN
 10
0.0
 20
0.0
 30
0.0
  9
$PEXTMAX
 10
0.0
 20
0.0
 30
0.0
  9
$PLIMMIN
 10
0.0
 20
0.0
  9
$PLIMMAX
 10
12.0
 20
9.0
  9
$UNITMODE
 70
     0
  9
$VISRETAIN
 70
     1
  9
$PLINEGEN
 70
     0
  9
$PSLTSCALE
 70
     1
  0
ENDSEC
  0
SECTION
  2
TABLES
  0
TABLE
  2
VPORT
 70
     1
  0
VPORT
  2
*ACTIVE
 70
     0
 10
0.0
 20
0.0
 11
1.0
 21
1.0
 12
731.0060553655348485
 22
963.4572837953121507
 13
0.0
 23
0.0
 14
10.0
 24
10.0
 15
10.0
 25
10.0
 16
0.0
 26
0.0
 36
1.0
 17
0.0
 27
0.0
 37
0.0
 40
30.3060896665017303
 41
2.7910014513788091
 42
50.0
 43
0.0
 44
0.0
 50
0.0
 51
0.0
 71
     0
 72
  1000
 73
     1
 74
     3
 75
     0
 76
     1
 77
     0
 78
     0
  0
ENDTAB
  0
TABLE
  2
LTYPE
 70
     2
  0
LTYPE
  2
CONTINUOUS
 70
     0
  3
Solid line
 72
    65
 73
     0
 40
0.0
  0
ENDTAB
  0
TABLE
  2
LAYER
 70
     1
  0
LAYER
  2
0
 70
     0
 62
     7
  6
CONTINUOUS
  0
ENDTAB
  0
TABLE
  2
STYLE
 70
     2
  0
STYLE
  2
STANDARD
 70
     0
 40
0.0
 41
1.0
 50
0.0
 71
     0
 42
2.5
  3
txt
  4

  0
STYLE
  2
ANNOTATIVE
 70
     0
 40
0.0
 41
1.0
 50
0.0
 71
     0
 42
2.5
  3
txt
  4

  0
ENDTAB
  0
TABLE
  2
VIEW
 70
     0
  0
ENDTAB
  0
TABLE
  2
UCS
 70
     0
  0
ENDTAB
  0
TABLE
  2
APPID
 70
     9
  0
APPID
  2
ACAD
 70
     0
  0
APPID
  2
ACADANNOTATIVE
 70
     0
  0
APPID
  2
ACAD_PSEXT
 70
     0
  0
APPID
  2
ACADANNOPO
 70
     0
  0
APPID
  2
ACAD_DSTYLE_DIMJAG
 70
     0
  0
APPID
  2
ACAD_DSTYLE_DIMTALN
 70
     0
  0
APPID
  2
ACAD_MLEADERVER
 70
     0
  0
APPID
  2
ACAD_NAV_VCDISPLAY
 70
     0
  0
APPID
  2
ACAD_EXEMPT_FROM_CAD_STANDARDS
 70
     0
  0
ENDTAB
  0
TABLE
  2
DIMSTYLE
 70
     4
  0
DIMSTYLE
  2
STANDARD
 70
     0
  3

  4

  5

  6

  7

 40
1.0
 41
0.18
 42
0.0625
 43
0.38
 44
0.18
 45
0.0
 46
0.0
 47
0.0
 48
0.0
140
0.18
141
0.09
142
0.0
143
25.3999999999999986
144
1.0
145
0.0
146
1.0
147
0.09
 71
     0
 72
     0
 73
     1
 74
     1
 75
     0
 76
     0
 77
     0
 78
     0
170
     0
171
     2
172
     0
173
     0
174
     0
175
     0
176
     0
177
     0
178
     0
  0
DIMSTYLE
  2
ANNOTATIVE
 70
     0
  3

  4

  5

  6

  7

 40
0.0
 41
2.5
 42
0.625
 43
3.75
 44
1.25
 45
0.0
 46
0.0
 47
0.0
 48
0.0
140
2.5
141
2.5
142
0.0
143
0.03937007874016
144
1.0
145
0.0
146
1.0
147
0.625
 71
     0
 72
     0
 73
     0
 74
     0
 75
     0
 76
     0
 77
     1
 78
     8
170
     0
171
     3
172
     1
173
     0
174
     0
175
     0
176
     0
177
     0
178
     0
  0
DIMSTYLE
  2
ISO-25
 70
     0
  3

  4

  5

  6

  7

 40
1.0
 41
2.5
 42
0.625
 43
3.75
 44
1.25
 45
0.0
 46
0.0
 47
0.0
 48
0.0
140
2.5
141
2.5
142
0.0
143
0.03937007874016
144
1.0
145
0.0
146
1.0
147
0.625
 71
     0
 72
     0
 73
     0
 74
     0
 75
     0
 76
     0
 77
     1
 78
     8
170
     0
171
     3
172
     1
173
     0
174
     0
175
     0
176
     0
177
     0
178
     0
  0
ENDTAB
  0
ENDSEC
  0
SECTION
  2
BLOCKS
  0
BLOCK
  8
0
  2
$MODEL_SPACE
 70
     0
 10
0.0
 20
0.0
 30
0.0
  3
$MODEL_SPACE
  1

  0
ENDBLK
  5
688
  8
0
  0
BLOCK
 67
     1
  8
0
  2
$PAPER_SPACE
 70
     0
 10
0.0
 20
0.0
 30
0.0
  3
$PAPER_SPACE
  1

  0
ENDBLK
  5
684
 67
     1
  8
0
  0
BLOCK
  8
0
  2
A$CFFFDBA93
 70
     0
 10
0.0
 20
0.0
 30
0.0
  3
A$CFFFDBA93
  1

  0
LINE
  5
31F
  8
0
 10
10.0
 20
0.0
 30
0.0
 11
46.0
 21
0.0
 31
0.0
  0
LINE
  5
320
  8
0
 10
46.0
 20
0.0
 30
0.0
 11
46.0
 21
1158.0
 31
0.0
  0
LINE
  5
321
  8
0
 10
46.0
 20
1158.0
 30
0.0
 11
10.0
 21
1158.0
 31
0.0
  0
LINE
  5
322
  8
0
 10
0.0
 20
143.0
 30
0.0
 11
10.0
 21
0.0
 31
0.0
  0
LINE
  5
323
  8
0
 10
0.0
 20
1015.0
 30
0.0
 11
10.0
 21
1158.0
 31
0.0
  0
LINE
  5
324
  8
0
 10
0.0
 20
143.0
 30
0.0
 11
0.0
 21
1015.0
 31
0.0
  0
LINE
  5
325
  8
0
 10
46.0
 20
0.0
 30
0.0
 11
46.0
 21
219.0
 31
0.0
  0
LINE
  5
326
  8
0
 10
46.0
 20
0.0
 30
0.0
 11
43.5892508400061089
 21
0.0
 31
0.0
  0
LINE
  5
327
  8
0
 10
3.0
 20
219.0
 30
0.0
 11
43.5285499608760276
 21
0.3275126358419129
 31
0.0
  0
LINE
  5
328
  8
0
 10
43.5285499608760276
 20
0.3275126358419129
 30
0.0
 11
43.5892508400061089
 21
0.0
 31
0.0
  0
LINE
  5
329
  8
0
 10
46.0
 20
1158.0
 30
0.0
 11
46.0
 21
939.0
 31
0.0
  0
LINE
  5
32A
  8
0
 10
43.5892508400061089
 20
1158.0
 30
0.0
 11
46.0
 21
1158.0
 31
0.0
  0
LINE
  5
32B
  8
0
 10
3.0
 20
939.0
 30
0.0
 11
43.5892508400061089
 21
1158.0
 31
0.0
  0
LINE
  5
32C
  8
0
 10
3.0
 20
219.0
 30
0.0
 11
3.0
 21
939.0
 31
0.0
  0
ENDBLK
  5
32F
  8
0
  0
BLOCK
  8
0
  2
A$CA90736D0
 70
     0
 10
0.0
 20
0.0
 30
0.0
  3
A$CA90736D0
  1

  0
POLYLINE
  5
7F0
  8
0
 66
     1
 10
0.0
 20
0.0
 30
0.0
 70
     1
  0
VERTEX
  5
860
  8
0
 10
47.3415915031564509
 20
1164.6396147954831122
 30
0.0
  0
VERTEX
  5
861
  8
0
 10
6.1000000000000218
 20
942.1198995439480086
 30
0.0
  0
VERTEX
  5
862
  8
0
 10
6.1000000000000218
 20
222.1198995439480939
 30
0.0
  0
VERTEX
  5
863
  8
0
 10
46.7716053050182765
 20
2.6755546135926802
 30
0.0
  0
VERTEX
  5
864
  8
0
 10
47.2674900417637218
 20
0.0
 30
0.0
  0
VERTEX
  5
865
  8
0
 10
8.7143773092044512
 20
0.0
 30
0.0
  0
VERTEX
  5
866
  8
0
 10
0.0
 20
146.1198995439480939
 30
0.0
  0
VERTEX
  5
867
  8
0
 10
0.0
 20
1018.1198995439480086
 30
0.0
  0
VERTEX
  5
868
  8
0
 10
11.6000000000000192
 20
1161.1198995439478949
 30
0.0
  0
VERTEX
  5
869
  8
0
 10
11.8855153630615806
 20
1164.6396147954831122
 30
0.0
  0
SEQEND
  5
86A
  8
0
  0
POLYLINE
  5
7F1
  8
0
 66
     1
 10
0.0
 20
0.0
 30
0.0
 70
     1
  0
VERTEX
  5
86B
  8
0
 10
49.1000000000000227
 20
1161.1198995439478949
 30
0.0
  0
VERTEX
  5
86C
  8
0
 10
49.1000000000000227
 20
318.1198995439481223
 30
0.0
  0
VERTEX
  5
86D
  8
0
 10
27.1000000000000298
 20
318.1198995439481223
 30
0.0
  0
VERTEX
  5
86E
  8
0
 10
27.1000000000000298
 20
268.1198995439481223
 30
0.0
  0
VERTEX
  5
86F
  8
0
 10
49.1000000000001435
 20
268.1198995439481223
 30
0.0
  0
VERTEX
  5
870
  8
0
 10
49.1000000000000227
 20
3.1198995439481219
 30
0.0
  0
VERTEX
  5
871
  8
0
 10
13.1000000000000192
 20
3.1198995439481219
 30
0.0
  0
VERTEX
  5
872
  8
0
 10
3.1000000000000218
 20
146.1198995439480939
 30
0.0
  0
VERTEX
  5
873
  8
0
 10
3.1000000000000218
 20
1018.1198995439480086
 30
0.0
  0
VERTEX
  5
874
  8
0
 10
13.1000000000000192
 20
1161.1198995439478949
 30
0.0
  0
SEQEND
  5
875
  8
0
  0
ENDBLK
  5
7F5
  8
0
  0
ENDSEC
  0
SECTION
  2
ENTITIES
  0
POLYLINE
  5
7E9
  8
0
 66
     1
 10
0.0
 20
0.0
 30
0.0
 70
     1
  0
VERTEX
  5
84A
  8
0
 10
721.2622601848491968
 20
2134.302209513141861
 30
0.0
  0
VERTEX
  5
84B
  8
0
 10
680.0206686816926549
 20
1911.7824942616070985
 30
0.0
  0
VERTEX
  5
84C
  8
0
 10
680.0206686816926549
 20
1191.7824942616070985
 30
0.0
  0
VERTEX
  5
84D
  8
0
 10
720.6922739867110295
 20
972.3381493312515431
 30
0.0
  0
VERTEX
  5
84E
  8
0
 10
721.188158723456354
 20
969.6625947176589762
 30
0.0
  0
VERTEX
  5
84F
  8
0
 10
682.6350459908970834
 20
969.6625947176589762
 30
0.0
  0
VERTEX
  5
850
  8
0
 10
673.9206686816927458
 20
1115.7824942616070985
 30
0.0
  0
VERTEX
  5
851
  8
0
 10
673.9206686816927458
 20
1987.7824942616070985
 30
0.0
  0
VERTEX
  5
852
  8
0
 10
685.5206686816926549
 20
2130.7824942616070985
 30
0.0
  0
VERTEX
  5
853
  8
0
 10
685.8061840447543318
 20
2134.302209513141861
 30
0.0
  0
SEQEND
  5
854
  8
0
  0
POLYLINE
  5
7EA
  8
0
 66
     1
 10
0.0
 20
0.0
 30
0.0
 70
     1
  0
VERTEX
  5
855
  8
0
 10
723.0206686816926549
 20
2130.7824942616070985
 30
0.0
  0
VERTEX
  5
856
  8
0
 10
723.0206686816926549
 20
1287.7824942616070985
 30
0.0
  0
VERTEX
  5
857
  8
0
 10
701.0206686816926549
 20
1287.7824942616070985
 30
0.0
  0
VERTEX
  5
858
  8
0
 10
701.0206686816926549
 20
1237.7824942616070985
 30
0.0
  0
VERTEX
  5
859
  8
0
 10
723.0206686816927686
 20
1237.7824942616070985
 30
0.0
  0
VERTEX
  5
85A
  8
0
 10
723.0206686816926549
 20
972.7824942616069848
 30
0.0
  0
VERTEX
  5
85B
  8
0
 10
687.0206686816927686
 20
972.7824942616069848
 30
0.0
  0
VERTEX
  5
85C
  8
0
 10
677.0206686816926549
 20
1115.7824942616070985
 30
0.0
  0
VERTEX
  5
85D
  8
0
 10
677.0206686816926549
 20
1987.7824942616070985
 30
0.0
  0
VERTEX
  5
85E
  8
0
 10
687.0206686816927686
 20
2130.7824942616070985
 30
0.0
  0
SEQEND
  5
85F
  8
0
  0
POLYLINE
  5
802
  8
0
 66
     1
 10
0.0
 20
0.0
 30
0.0
 70
     1
  0
VERTEX
  5
88C
  8
0
 10
731.7790771785364541
 20
2134.302209513141861
 30
0.0
  0
VERTEX
  5
88D
  8
0
 10
773.020668681692996
 20
1911.7824942616070985
 30
0.0
  0
VERTEX
  5
88E
  8
0
 10
773.020668681692996
 20
1191.7824942616070985
 30
0.0
  0
VERTEX
  5
88F
  8
0
 10
732.3490633766747351
 20
972.3381493312515431
 30
0.0
  0
VERTEX
  5
890
  8
0
 10
731.8531786399292969
 20
969.6625947176589762
 30
0.0
  0
VERTEX
  5
891
  8
0
 10
770.4062913724884538
 20
969.6625947176589762
 30
0.0
  0
VERTEX
  5
892
  8
0
 10
779.1206686816930187
 20
1115.7824942616070985
 30
0.0
  0
VERTEX
  5
893
  8
0
 10
779.1206686816930187
 20
1987.7824942616070985
 30
0.0
  0
VERTEX
  5
894
  8
0
 10
767.5206686816928823
 20
2130.7824942616070985
 30
0.0
  0
VERTEX
  5
895
  8
0
 10
767.2351533186314327
 20
2134.302209513141861
 30
0.0
  0
SEQEND
  5
896
  8
0
  0
POLYLINE
  5
803
  8
0
 66
     1
 10
0.0
 20
0.0
 30
0.0
 70
     1
  0
VERTEX
  5
897
  8
0
 10
730.0206686816928823
 20
2130.7824942616070985
 30
0.0
  0
VERTEX
  5
898
  8
0
 10
730.0206686816928823
 20
1287.7824942616070985
 30
0.0
  0
VERTEX
  5
899
  8
0
 10
752.020668681692996
 20
1287.7824942616070985
 30
0.0
  0
VERTEX
  5
89A
  8
0
 10
752.020668681692996
 20
1237.7824942616070985
 30
0.0
  0
VERTEX
  5
89B
  8
0
 10
730.0206686816927686
 20
1237.7824942616070985
 30
0.0
  0
VERTEX
  5
89C
  8
0
 10
730.0206686816928823
 20
972.7824942616069848
 30
0.0
  0
VERTEX
  5
89D
  8
0
 10
766.020668681692996
 20
972.7824942616069848
 30
0.0
  0
VERTEX
  5
89E
  8
0
 10
776.0206686816928823
 20
1115.7824942616070985
 30
0.0
  0
VERTEX
  5
89F
  8
0
 10
776.0206686816928823
 20
1987.7824942616070985
 30
0.0
  0
VERTEX
  5
8A0
  8
0
 10
766.020668681692996
 20
2130.7824942616070985
 30
0.0
  0
SEQEND
  5
8A1
  8
0
  0
ENDSEC
  0
EOF
