  0
SECTION
  2
HEADER
  9
$ACADVER
  1
AC1009
  9
$INSBASE
 10
0.0
 20
0.0
 30
0.0
  9
$EXTMIN
 10
15.3196433157845604
 20
86.3237420101706761
 30
0.0
  9
$EXTMAX
 10
522.0363315685948464
 20
979.1122603668625288
 30
0.0
  9
$LIMMIN
 10
0.0
 20
0.0
  9
$LIMMAX
 10
420.0
 20
297.0
  9
$ORTHOMODE
 70
     1
  9
$REGENMODE
 70
     1
  9
$FILLMODE
 70
     1
  9
$QTEXTMODE
 70
     0
  9
$MIRRTEXT
 70
     0
  9
$DRAGMODE
 70
     2
  9
$LTSCALE
 40
1.0
  9
$OSMODE
 70
  3583
  9
$ATTMODE
 70
     1
  9
$TEXTSIZE
 40
2.5
  9
$TRACEWID
 40
1.0
  9
$TEXTSTYLE
  7
STANDARD
  9
$CLAYER
  8
0
  9
$CELTYPE
  6
BYLAYER
  9
$CECOLOR
 62
   256
  9
$DIMSCALE
 40
1.0
  9
$DIMASZ
 40
2.5
  9
$DIMEXO
 40
0.625
  9
$DIMDLI
 40
3.75
  9
$DIMRND
 40
0.0
  9
$DIMDLE
 40
0.0
  9
$DIMEXE
 40
1.25
  9
$DIMTP
 40
0.0
  9
$DIMTM
 40
0.0
  9
$DIMTXT
 40
2.5
  9
$DIMCEN
 40
2.5
  9
$DIMTSZ
 40
0.0
  9
$DIMTOL
 70
     0
  9
$DIMLIM
 70
     0
  9
$DIMTIH
 70
     0
  9
$DIMTOH
 70
     0
  9
$DIMSE1
 70
     0
  9
$DIMSE2
 70
     0
  9
$DIMTAD
 70
     1
  9
$DIMZIN
 70
     8
  9
$DIMBLK
  1

  9
$DIMASO
 70
     1
  9
$DIMSHO
 70
     1
  9
$DIMPOST
  1

  9
$DIMAPOST
  1

  9
$DIMALT
 70
     0
  9
$DIMALTD
 70
     3
  9
$DIMALTF
 40
0.03937007874016
  9
$DIMLFAC
 40
1.0
  9
$DIMTOFL
 70
     1
  9
$DIMTVP
 40
0.0
  9
$DIMTIX
 70
     0
  9
$DIMSOXD
 70
     0
  9
$DIMSAH
 70
     0
  9
$DIMBLK1
  1

  9
$DIMBLK2
  1

  9
$DIMSTYLE
  2
ISO-25
  9
$DIMCLRD
 70
     0
  9
$DIMCLRE
 70
     0
  9
$DIMCLRT
 70
     0
  9
$DIMTFAC
 40
1.0
  9
$DIMGAP
 40
0.625
  9
$LUNITS
 70
     2
  9
$LUPREC
 70
     4
  9
$SKETCHINC
 40
1.0
  9
$FILLETRAD
 40
0.0
  9
$AUNITS
 70
     0
  9
$AUPREC
 70
     0
  9
$MENU
  1
.
  9
$ELEVATION
 40
0.0
  9
$PELEVATION
 40
0.0
  9
$THICKNESS
 40
0.0
  9
$LIMCHECK
 70
     0
  9
$BLIPMODE
 70
     0
  9
$CHAMFERA
 40
0.0
  9
$CHAMFERB
 40
0.0
  9
$SKPOLY
 70
     0
  9
$TDCREATE
 40
2460524.6225925930775702
  9
$TDUPDATE
 40
2460535.489409722853452
  9
$TDINDWG
 40
1.1330208333
  9
$TDUSRTIMER
 40
1.1330208333
  9
$USRTIMER
 70
     1
  9
$ANGBASE
 50
0.0
  9
$ANGDIR
 70
     0
  9
$PDMODE
 70
     0
  9
$PDSIZE
 40
0.0
  9
$PLINEWID
 40
0.0
  9
$COORDS
 70
     1
  9
$SPLFRAME
 70
     0
  9
$SPLINETYPE
 70
     6
  9
$SPLINESEGS
 70
     8
  9
$ATTDIA
 70
     1
  9
$ATTREQ
 70
     1
  9
$HANDLING
 70
     1
  9
$HANDSEED
  5
1F51
  9
$SURFTAB1
 70
     6
  9
$SURFTAB2
 70
     6
  9
$SURFTYPE
 70
     6
  9
$SURFU
 70
     6
  9
$SURFV
 70
     6
  9
$UCSNAME
  2

  9
$UCSORG
 10
0.0
 20
0.0
 30
0.0
  9
$UCSXDIR
 10
1.0
 20
0.0
 30
0.0
  9
$UCSYDIR
 10
0.0
 20
1.0
 30
0.0
  9
$PUCSNAME
  2

  9
$PUCSORG
 10
0.0
 20
0.0
 30
0.0
  9
$PUCSXDIR
 10
1.0
 20
0.0
 30
0.0
  9
$PUCSYDIR
 10
0.0
 20
1.0
 30
0.0
  9
$USERI1
 70
     0
  9
$USERI2
 70
     0
  9
$USERI3
 70
     0
  9
$USERI4
 70
     0
  9
$USERI5
 70
     0
  9
$USERR1
 40
0.0
  9
$USERR2
 40
0.0
  9
$USERR3
 40
0.0
  9
$USERR4
 40
0.0
  9
$USERR5
 40
0.0
  9
$WORLDVIEW
 70
     1
  9
$SHADEDGE
 70
     3
  9
$SHADEDIF
 70
    70
  9
$TILEMODE
 70
     1
  9
$MAXACTVP
 70
    64
  9
$PLIMCHECK
 70
     0
  9
$PEXTMIN
 10
0.0
 20
0.0
 30
0.0
  9
$PEXTMAX
 10
0.0
 20
0.0
 30
0.0
  9
$PLIMMIN
 10
0.0
 20
0.0
  9
$PLIMMAX
 10
12.0
 20
9.0
  9
$UNITMODE
 70
     0
  9
$VISRETAIN
 70
     1
  9
$PLINEGEN
 70
     0
  9
$PSLTSCALE
 70
     1
  0
ENDSEC
  0
SECTION
  2
TABLES
  0
TABLE
  2
VPORT
 70
     1
  0
VPORT
  2
*ACTIVE
 70
     0
 10
0.0
 20
0.0
 11
1.0
 21
1.0
 12
148.6052152025388011
 22
903.4045763072130057
 13
0.0
 23
0.0
 14
10.0
 24
10.0
 15
10.0
 25
10.0
 16
0.0
 26
0.0
 36
1.0
 17
0.0
 27
0.0
 37
0.0
 40
143.1849774454834971
 41
2.2927120669056151
 42
50.0
 43
0.0
 44
0.0
 50
0.0
 51
0.0
 71
     0
 72
  1000
 73
     1
 74
     3
 75
     0
 76
     1
 77
     0
 78
     0
  0
ENDTAB
  0
TABLE
  2
LTYPE
 70
     2
  0
LTYPE
  2
CONTINUOUS
 70
     0
  3
Solid line
 72
    65
 73
     0
 40
0.0
  0
ENDTAB
  0
TABLE
  2
LAYER
 70
     1
  0
LAYER
  2
0
 70
     0
 62
     7
  6
CONTINUOUS
  0
ENDTAB
  0
TABLE
  2
STYLE
 70
     2
  0
STYLE
  2
STANDARD
 70
     0
 40
0.0
 41
1.0
 50
0.0
 71
     0
 42
2.5
  3
txt
  4

  0
STYLE
  2
ANNOTATIVE
 70
     0
 40
0.0
 41
1.0
 50
0.0
 71
     0
 42
2.5
  3
txt
  4

  0
ENDTAB
  0
TABLE
  2
VIEW
 70
     0
  0
ENDTAB
  0
TABLE
  2
UCS
 70
     0
  0
ENDTAB
  0
TABLE
  2
APPID
 70
     9
  0
APPID
  2
ACAD
 70
     0
  0
APPID
  2
ACADANNOTATIVE
 70
     0
  0
APPID
  2
ACAD_PSEXT
 70
     0
  0
APPID
  2
ACADANNOPO
 70
     0
  0
APPID
  2
ACAD_DSTYLE_DIMJAG
 70
     0
  0
APPID
  2
ACAD_DSTYLE_DIMTALN
 70
     0
  0
APPID
  2
ACAD_MLEADERVER
 70
     0
  0
APPID
  2
ACAD_NAV_VCDISPLAY
 70
     0
  0
APPID
  2
ACAD_EXEMPT_FROM_CAD_STANDARDS
 70
     0
  0
ENDTAB
  0
TABLE
  2
DIMSTYLE
 70
     4
  0
DIMSTYLE
  2
STANDARD
 70
     0
  3

  4

  5

  6

  7

 40
1.0
 41
0.18
 42
0.0625
 43
0.38
 44
0.18
 45
0.0
 46
0.0
 47
0.0
 48
0.0
140
0.18
141
0.09
142
0.0
143
25.3999999999999986
144
1.0
145
0.0
146
1.0
147
0.09
 71
     0
 72
     0
 73
     1
 74
     1
 75
     0
 76
     0
 77
     0
 78
     0
170
     0
171
     2
172
     0
173
     0
174
     0
175
     0
176
     0
177
     0
178
     0
  0
DIMSTYLE
  2
ANNOTATIVE
 70
     0
  3

  4

  5

  6

  7

 40
0.0
 41
2.5
 42
0.625
 43
3.75
 44
1.25
 45
0.0
 46
0.0
 47
0.0
 48
0.0
140
2.5
141
2.5
142
0.0
143
0.03937007874016
144
1.0
145
0.0
146
1.0
147
0.625
 71
     0
 72
     0
 73
     0
 74
     0
 75
     0
 76
     0
 77
     1
 78
     8
170
     0
171
     3
172
     1
173
     0
174
     0
175
     0
176
     0
177
     0
178
     0
  0
DIMSTYLE
  2
ISO-25
 70
     0
  3

  4

  5

  6

  7

 40
1.0
 41
2.5
 42
0.625
 43
3.75
 44
1.25
 45
0.0
 46
0.0
 47
0.0
 48
0.0
140
2.5
141
2.5
142
0.0
143
0.03937007874016
144
1.0
145
0.0
146
1.0
147
0.625
 71
     0
 72
     0
 73
     0
 74
     0
 75
     0
 76
     0
 77
     1
 78
     8
170
     0
171
     3
172
     1
173
     0
174
     0
175
     0
176
     0
177
     0
178
     0
  0
ENDTAB
  0
ENDSEC
  0
SECTION
  2
BLOCKS
  0
BLOCK
  8
0
  2
$MODEL_SPACE
 70
     0
 10
0.0
 20
0.0
 30
0.0
  3
$MODEL_SPACE
  1

  0
ENDBLK
  5
1BCD
  8
0
  0
BLOCK
 67
     1
  8
0
  2
$PAPER_SPACE
 70
     0
 10
0.0
 20
0.0
 30
0.0
  3
$PAPER_SPACE
  1

  0
ENDBLK
  5
1BC9
 67
     1
  8
0
  0
BLOCK
  8
0
  2
A$C39C8E285
 70
     0
 10
0.0
 20
0.0
 30
0.0
  3
A$C39C8E285
  1

  0
POLYLINE
  5
2AA
  8
0
 66
     1
 10
0.0
 20
0.0
 30
0.0
 70
     1
  0
VERTEX
  5
1E5D
  8
0
 10
0.0
 20
0.0
 30
0.0
  0
VERTEX
  5
1E5E
  8
0
 10
54.0
 20
0.0
 30
0.0
  0
VERTEX
  5
1E5F
  8
0
 10
54.0
 20
50.0
 30
0.0
  0
VERTEX
  5
1E60
  8
0
 10
0.0
 20
50.0
 30
0.0
  0
SEQEND
  5
1E61
  8
0
  0
ENDBLK
  5
2AD
  8
0
  0
BLOCK
  8
0
  2
A$C2B86CA46
 70
     0
 10
0.0
 20
0.0
 30
0.0
  3
A$C2B86CA46
  1

  0
POLYLINE
  5
624
  8
0
 66
     1
 10
0.0
 20
0.0
 30
0.0
 70
     1
  0
VERTEX
  5
1E62
  8
0
 10
0.0
 20
58.0
 30
0.0
  0
VERTEX
  5
1E63
  8
0
 10
58.0
 20
58.0
 30
0.0
  0
VERTEX
  5
1E64
  8
0
 10
58.0
 20
0.0
 30
0.0
  0
VERTEX
  5
1E65
  8
0
 10
0.0
 20
0.0
 30
0.0
  0
SEQEND
  5
1E66
  8
0
  0
ENDBLK
  5
626
  8
0
  0
BLOCK
  8
0
  2
A$CA4D29E6E
 70
     0
 10
0.0
 20
0.0
 30
0.0
  3
A$CA4D29E6E
  1

  0
CIRCLE
  5
639
  8
0
 10
3.0
 20
3.0
 30
0.0
 40
3.0
  0
ENDBLK
  5
63B
  8
0
  0
BLOCK
  8
0
  2
A$CD037A314
 70
     0
 10
0.0
 20
0.0
 30
0.0
  3
A$CD037A314
  1

  0
CIRCLE
  5
63D
  8
0
 10
3.0
 20
3.0
 30
0.0
 40
3.0
  0
ENDBLK
  5
63F
  8
0
  0
BLOCK
  8
0
  2
A$C26B13F36
 70
     0
 10
0.0
 20
0.0
 30
0.0
  3
A$C26B13F36
  1

  0
CIRCLE
  5
67F
  8
0
 10
19.5
 20
19.5
 30
0.0
 40
19.5
  0
ENDBLK
  5
683
  8
0
  0
BLOCK
  8
0
  2
A$C3E96597C
 70
     0
 10
0.0
 20
0.0
 30
0.0
  3
A$C3E96597C
  1

  0
CIRCLE
  5
686
  8
0
 10
19.5
 20
19.5
 30
0.0
 40
19.5
  0
ENDBLK
  5
68A
  8
0
  0
BLOCK
  8
0
  2
A$C0DB0E6A5
 70
     0
 10
0.0
 20
0.0
 30
0.0
  3
A$C0DB0E6A5
  1

  0
POLYLINE
  5
792
  8
0
 66
     1
 10
0.0
 20
0.0
 30
0.0
 70
     1
  0
VERTEX
  5
1E67
  8
0
 10
0.0
 20
0.0
 30
0.0
  0
VERTEX
  5
1E68
  8
0
 10
54.0
 20
0.0
 30
0.0
  0
VERTEX
  5
1E69
  8
0
 10
54.0
 20
50.0
 30
0.0
  0
VERTEX
  5
1E6A
  8
0
 10
0.0
 20
50.0
 30
0.0
  0
SEQEND
  5
1E6B
  8
0
  0
ENDBLK
  5
796
  8
0
  0
BLOCK
  8
0
  2
A$C54E503AB
 70
     0
 10
0.0
 20
0.0
 30
0.0
  3
A$C54E503AB
  1

  0
POLYLINE
  5
10BE
  8
0
 66
     1
 10
0.0
 20
0.0
 30
0.0
 70
     1
  0
VERTEX
  5
1E6C
  8
0
 10
54.0
 20
0.0
 30
0.0
  0
VERTEX
  5
1E6D
  8
0
 10
54.0
 20
50.0
 30
0.0
  0
VERTEX
  5
1E6E
  8
0
 10
0.0
 20
50.0
 30
0.0
  0
VERTEX
  5
1E6F
  8
0
 10
0.0
 20
0.0
 30
0.0
  0
SEQEND
  5
1E70
  8
0
  0
CIRCLE
  5
10BF
  8
0
 10
6.9999999999998863
 20
5.0
 30
0.0
 40
2.5
  0
CIRCLE
  5
10C0
  8
0
 10
47.0
 20
5.0
 30
0.0
 40
2.5
  0
CIRCLE
  5
10C1
  8
0
 10
47.0
 20
45.0
 30
0.0
 40
2.5
  0
CIRCLE
  5
10C2
  8
0
 10
6.9999999999998863
 20
45.0
 30
0.0
 40
2.5
  0
ENDBLK
  5
10C4
  8
0
  0
BLOCK
  8
0
  2
*U10
 70
     1
 10
0.0
 20
0.0
 30
0.0
  3
*U10
  1

  0
TEXT
  5
16D8
  8
0
 10
0.0
 20
-0.0000000000000009
 30
0.0
 40
7.0
  1
LATERAL
  0
ENDBLK
  5
16DA
  8
0
  0
BLOCK
  8
0
  2
*U11
 70
     1
 10
0.0
 20
0.0
 30
0.0
  3
*U11
  1

  0
TEXT
  5
16DC
  8
0
 10
0.0
 20
-0.0000000000000018
 30
0.0
 40
7.0
  1
PARTE DE TRÁS
  0
ENDBLK
  5
16DE
  8
0
  0
BLOCK
  8
0
  2
*U12
 70
     1
 10
0.0
 20
0.0
 30
0.0
  3
*U12
  1

  0
TEXT
  5
171B
  8
0
 10
12.8877387419534006
 20
416.5142232317875255
 30
0.0
 40
7.0
  1
LATERAIS
  0
ENDBLK
  5
171D
  8
0
  0
BLOCK
  8
0
  2
*U13
 70
     1
 10
0.0
 20
0.0
 30
0.0
  3
*U13
  1

  0
TEXT
  5
1726
  8
0
 10
62.888244285161818
 20
51.6209906092058119
 30
0.0
 40
7.0
  1
PARTE DE TRÁS
  0
ENDBLK
  5
1728
  8
0
  0
BLOCK
  8
0
  2
*U14
 70
     1
 10
0.0
 20
0.0
 30
0.0
  3
*U14
  1

  0
TEXT
  5
1774
  8
0
 10
42.2284172426798321
 20
-0.0000000000000018
 30
0.0
 40
7.0
  1
PARTE DA
  0
TEXT
  5
1775
  8
0
 10
105.9769864825521068
 20
-0.0000000000000018
 30
0.0
 40
7.0
  1
FRENTE
  0
ENDBLK
  5
1777
  8
0
  0
BLOCK
  8
0
  2
*U15
 70
     1
 10
0.0
 20
0.0
 30
0.0
  3
*U15
  1

  0
TEXT
  5
179D
  8
0
 10
455.3833549194766874
 20
539.9328792894457365
 30
0.0
 40
7.0
  1
LATERAIS
  0
ENDBLK
  5
179F
  8
0
  0
BLOCK
  8
0
  2
*U16
 70
     1
 10
0.0
 20
0.0
 30
0.0
  3
*U16
  1

  0
TEXT
  5
17A8
  8
0
 10
149.071983163844294
 20
554.2948953182316245
 30
0.0
 40
7.0
  1
PARTE DE TRÁS
  0
ENDBLK
  5
17AA
  8
0
  0
BLOCK
  8
0
  2
*U17
 70
     1
 10
0.0
 20
0.0
 30
0.0
  3
*U17
  1

  0
TEXT
  5
17F6
  8
0
 10
148.9933480617619068
 20
-0.0000000000000018
 30
0.0
 40
7.0
  1
PARTE DA
  0
TEXT
  5
17F7
  8
0
 10
212.7419173016342029
 20
-0.0000000000000018
 30
0.0
 40
7.0
  1
FRENTE
  0
ENDBLK
  5
17F9
  8
0
  0
BLOCK
  8
0
  2
*U18
 70
     1
 10
0.0
 20
0.0
 30
0.0
  3
*U18
  1

  0
TEXT
  5
181F
  8
0
 10
470.7029982352614184
 20
626.2566212996161994
 30
0.0
 40
7.0
  1
LATERAIS
  0
ENDBLK
  5
1821
  8
0
  0
BLOCK
  8
0
  2
*U19
 70
     1
 10
0.0
 20
0.0
 30
0.0
  3
*U19
  1

  0
TEXT
  5
182A
  8
0
 10
164.3916264796289113
 20
640.6186373284024285
 30
0.0
 40
7.0
  1
PARTE DE TRÁS
  0
ENDBLK
  5
182C
  8
0
  0
BLOCK
  8
0
  2
*U20
 70
     1
 10
0.0
 20
0.0
 30
0.0
  3
*U20
  1

  0
TEXT
  5
1878
  8
0
 10
164.3129913775464956
 20
86.3237420101707045
 30
0.0
 40
7.0
  1
PARTE DA
  0
ENDBLK
  5
187A
  8
0
  0
BLOCK
  8
0
  2
*U21
 70
     1
 10
0.0
 20
0.0
 30
0.0
  3
*U21
  1

  0
TEXT
  5
187C
  8
0
 10
228.0615606174187917
 20
86.3237420101707045
 30
0.0
 40
7.0
  1
FRENTE
  0
ENDBLK
  5
187E
  8
0
  0
BLOCK
  8
0
  2
*U22
 70
     1
 10
0.0
 20
0.0
 30
0.0
  3
*U22
  1

  0
TEXT
  5
1961
  8
0
 10
164.3916264796289113
 20
640.6186373284024285
 30
0.0
 40
7.0
  1
PARTE DE TRÁS
  0
ENDBLK
  5
1962
  8
0
  0
BLOCK
  8
0
  2
*U23
 70
     1
 10
0.0
 20
0.0
 30
0.0
  3
*U23
  1

  0
TEXT
  5
196B
  8
0
 10
470.7029982352614184
 20
626.2566212996161994
 30
0.0
 40
7.0
  1
LATERAIS
  0
ENDBLK
  5
196C
  8
0
  0
BLOCK
  8
0
  2
*U24
 70
     1
 10
0.0
 20
0.0
 30
0.0
  3
*U24
  1

  0
TEXT
  5
1B57
  8
0
 10
133.4849488255794938
 20
816.0410358129562383
 30
0.0
 40
7.0
  1
ENCOSTO TRASEIRO
  0
ENDBLK
  5
1B59
  8
0
  0
ENDSEC
  0
SECTION
  2
ENTITIES
  0
POLYLINE
  5
141D
  8
0
 66
     1
 10
0.0
 20
0.0
 30
0.0
 70
     1
  0
VERTEX
  5
1E71
  8
0
 10
177.3196433157845036
 20
310.7358914916878803
 30
0.0
  0
VERTEX
  5
1E72
  8
0
 10
177.3196433157845036
 20
360.7358914916879939
 30
0.0
  0
VERTEX
  5
1E73
  8
0
 10
123.3196433157845036
 20
360.7358914916879939
 30
0.0
  0
VERTEX
  5
1E74
  8
0
 10
123.3196433157845036
 20
310.7358914916878803
 30
0.0
  0
SEQEND
  5
1E75
  8
0
  0
CIRCLE
  5
141E
  8
0
 10
130.3196433157843899
 20
315.7358914916878803
 30
0.0
 40
2.5
  0
CIRCLE
  5
141F
  8
0
 10
170.3196433157845036
 20
315.7358914916878803
 30
0.0
 40
2.5
  0
CIRCLE
  5
1420
  8
0
 10
170.3196433157845036
 20
355.7358914916878803
 30
0.0
 40
2.5
  0
CIRCLE
  5
1421
  8
0
 10
130.3196433157843899
 20
355.7358914916878803
 30
0.0
 40
2.5
  0
POLYLINE
  5
1422
  8
0
 66
     1
 10
0.0
 20
0.0
 30
0.0
 70
     1
  0
VERTEX
  5
1E76
  8
0
 10
177.3196433157845036
 20
362.7358914916878803
 30
0.0
  0
VERTEX
  5
1E77
  8
0
 10
177.3196433157845036
 20
412.7358914916878803
 30
0.0
  0
VERTEX
  5
1E78
  8
0
 10
123.3196433157845036
 20
412.7358914916878803
 30
0.0
  0
VERTEX
  5
1E79
  8
0
 10
123.3196433157845036
 20
362.7358914916878803
 30
0.0
  0
SEQEND
  5
1E7A
  8
0
  0
CIRCLE
  5
1423
  8
0
 10
130.3196433157843899
 20
367.7358914916878803
 30
0.0
 40
2.5
  0
CIRCLE
  5
1424
  8
0
 10
170.3196433157845036
 20
367.7358914916878803
 30
0.0
 40
2.5
  0
CIRCLE
  5
1425
  8
0
 10
170.3196433157845036
 20
407.7358914916878234
 30
0.0
 40
2.5
  0
CIRCLE
  5
1426
  8
0
 10
130.3196433157843899
 20
407.7358914916878234
 30
0.0
 40
2.5
  0
POLYLINE
  5
1427
  8
0
 66
     1
 10
0.0
 20
0.0
 30
0.0
 70
     1
  0
VERTEX
  5
1E7B
  8
0
 10
307.3196433157846172
 20
310.7358914916878803
 30
0.0
  0
VERTEX
  5
1E7C
  8
0
 10
307.3196433157846172
 20
360.7358914916879939
 30
0.0
  0
VERTEX
  5
1E7D
  8
0
 10
253.3196433157845888
 20
360.7358914916879939
 30
0.0
  0
VERTEX
  5
1E7E
  8
0
 10
253.3196433157845888
 20
310.7358914916878803
 30
0.0
  0
SEQEND
  5
1E7F
  8
0
  0
CIRCLE
  5
1428
  8
0
 10
260.3196433157843899
 20
315.7358914916878803
 30
0.0
 40
2.5
  0
CIRCLE
  5
1429
  8
0
 10
300.3196433157846172
 20
315.7358914916878803
 30
0.0
 40
2.5
  0
CIRCLE
  5
142A
  8
0
 10
300.3196433157846172
 20
355.7358914916878803
 30
0.0
 40
2.5
  0
CIRCLE
  5
142B
  8
0
 10
260.3196433157843899
 20
355.7358914916878803
 30
0.0
 40
2.5
  0
POLYLINE
  5
142C
  8
0
 66
     1
 10
0.0
 20
0.0
 30
0.0
 70
     1
  0
VERTEX
  5
1E80
  8
0
 10
307.3196433157846172
 20
362.7358914916878803
 30
0.0
  0
VERTEX
  5
1E81
  8
0
 10
307.3196433157846172
 20
412.7358914916878803
 30
0.0
  0
VERTEX
  5
1E82
  8
0
 10
253.3196433157845888
 20
412.7358914916878803
 30
0.0
  0
VERTEX
  5
1E83
  8
0
 10
253.3196433157845888
 20
362.7358914916878803
 30
0.0
  0
SEQEND
  5
1E84
  8
0
  0
CIRCLE
  5
142D
  8
0
 10
260.3196433157843899
 20
367.7358914916878803
 30
0.0
 40
2.5
  0
CIRCLE
  5
142E
  8
0
 10
300.3196433157846172
 20
367.7358914916878803
 30
0.0
 40
2.5
  0
CIRCLE
  5
142F
  8
0
 10
300.3196433157846172
 20
407.7358914916878234
 30
0.0
 40
2.5
  0
CIRCLE
  5
1430
  8
0
 10
260.3196433157843899
 20
407.7358914916878234
 30
0.0
 40
2.5
  0
POLYLINE
  5
1431
  8
0
 66
     1
 10
0.0
 20
0.0
 30
0.0
 70
     1
  0
VERTEX
  5
1E85
  8
0
 10
180.5496100886676061
 20
351.2358914916878803
 30
0.0
  0
VERTEX
  5
1E86
  8
0
 10
215.0496100886676061
 20
351.2358914916878803
 30
0.0
  0
VERTEX
  5
1E87
  8
0
 10
215.0496100886676061
 20
300.7358914916878803
 30
0.0
  0
VERTEX
  5
1E88
  8
0
 10
197.7996100886674924
 20
300.7358914916878803
 30
0.0
  0
VERTEX
  5
1E89
  8
0
 10
180.5496100886676061
 20
300.7358914916878803
 30
0.0
  0
SEQEND
  5
1E8A
  8
0
  0
CIRCLE
  5
1432
  8
0
 10
197.7996100886674924
 20
314.4358914916879257
 30
0.0
 40
3.0
  0
POLYLINE
  5
1433
  8
0
 66
     1
 10
0.0
 20
0.0
 30
0.0
 70
     1
  0
VERTEX
  5
1E8B
  8
0
 10
15.3196433157845604
 20
290.7358914916878803
 30
0.0
  0
VERTEX
  5
1E8C
  8
0
 10
415.3196433157843899
 20
290.7358914916878803
 30
0.0
  0
VERTEX
  5
1E8D
  8
0
 10
415.3196433157843899
 20
540.7358914916876529
 30
0.0
  0
VERTEX
  5
1E8E
  8
0
 10
15.3196433157845604
 20
540.7358914916876529
 30
0.0
  0
SEQEND
  5
1E8F
  8
0
  0
CIRCLE
  5
1434
  8
0
 10
177.3196433157845036
 20
412.7358914916878803
 30
0.0
 40
3.0
  0
CIRCLE
  5
1435
  8
0
 10
123.3196433157845036
 20
412.7358914916878803
 30
0.0
 40
3.0
  0
CIRCLE
  5
1436
  8
0
 10
123.3196433157845036
 20
362.7358914916878803
 30
0.0
 40
3.0
  0
CIRCLE
  5
1437
  8
0
 10
177.3196433157845036
 20
362.7358914916878803
 30
0.0
 40
3.0
  0
CIRCLE
  5
1438
  8
0
 10
177.3196433157845036
 20
360.7358914916879939
 30
0.0
 40
3.0
  0
CIRCLE
  5
1439
  8
0
 10
123.3196433157845036
 20
360.7358914916879939
 30
0.0
 40
3.0
  0
CIRCLE
  5
143A
  8
0
 10
123.3196433157845036
 20
310.7358914916878803
 30
0.0
 40
3.0
  0
CIRCLE
  5
143B
  8
0
 10
177.3196433157845036
 20
310.7358914916878803
 30
0.0
 40
3.0
  0
CIRCLE
  5
143C
  8
0
 10
253.3196433157845888
 20
412.7358914916878803
 30
0.0
 40
3.0
  0
CIRCLE
  5
143D
  8
0
 10
307.3196433157846172
 20
412.7358914916878803
 30
0.0
 40
3.0
  0
CIRCLE
  5
143E
  8
0
 10
307.3196433157846172
 20
362.7358914916878803
 30
0.0
 40
3.0
  0
CIRCLE
  5
143F
  8
0
 10
307.3196433157846172
 20
360.7358914916879939
 30
0.0
 40
3.0
  0
CIRCLE
  5
1440
  8
0
 10
253.3196433157845888
 20
362.7358914916878803
 30
0.0
 40
3.0
  0
CIRCLE
  5
1441
  8
0
 10
253.3196433157845888
 20
360.7358914916879939
 30
0.0
 40
3.0
  0
CIRCLE
  5
1442
  8
0
 10
253.3196433157845888
 20
310.7358914916878803
 30
0.0
 40
3.0
  0
CIRCLE
  5
1443
  8
0
 10
307.3196433157846172
 20
310.7358914916878803
 30
0.0
 40
3.0
  0
CIRCLE
  5
1444
  8
0
 10
180.5496100886676061
 20
351.2358914916878803
 30
0.0
 40
3.0
  0
CIRCLE
  5
1445
  8
0
 10
215.0496100886676061
 20
351.2358914916878803
 30
0.0
 40
3.0
  0
CIRCLE
  5
1446
  8
0
 10
180.5496100886676061
 20
300.7358914916878803
 30
0.0
 40
3.0
  0
CIRCLE
  5
1447
  8
0
 10
215.0496100886676061
 20
300.7358914916878803
 30
0.0
 40
3.0
  0
POLYLINE
  5
1448
  8
0
 66
     1
 10
0.0
 20
0.0
 30
0.0
 70
     1
  0
VERTEX
  5
1E90
  8
0
 10
457.8152594933079058
 20
209.7423980678287876
 30
0.0
  0
VERTEX
  5
1E91
  8
0
 10
501.8152594933080763
 20
209.7423980678287876
 30
0.0
  0
VERTEX
  5
1E92
  8
0
 10
501.8152594933080763
 20
609.7423980678287307
 30
0.0
  0
VERTEX
  5
1E93
  8
0
 10
457.8152594933079058
 20
609.7423980678287307
 30
0.0
  0
SEQEND
  5
1E94
  8
0
  0
CIRCLE
  5
1449
  8
0
 10
477.8152594933080195
 20
224.7423980678287876
 30
0.0
 40
5.299999999999998
  0
LINE
  5
144A
  8
0
 10
457.8152594933079058
 20
609.7423980678287307
 30
0.0
 11
457.8152594933079058
 21
594.7346805184743062
 31
0.0
  0
CIRCLE
  5
144B
  8
0
 10
477.8152594933080195
 20
594.7423980678287307
 30
0.0
 40
5.299999999999998
  0
INSERT
  5
144C
  8
0
  2
*U18
 10
0.0
 20
0.0
 30
0.0
  0
CIRCLE
  5
144D
  8
0
 10
268.503382194467008
 20
608.9976467191966094
 30
0.0
 40
10.0
  0
CIRCLE
  5
144E
  8
0
 10
138.503382194467008
 20
608.9976467191966094
 30
0.0
 40
10.0
  0
POLYLINE
  5
144F
  8
0
 66
     1
 10
0.0
 20
0.0
 30
0.0
 70
     1
  0
VERTEX
  5
1E95
  8
0
 10
101.5033821944670933
 20
588.997646719196382
 30
0.0
  0
VERTEX
  5
1E96
  8
0
 10
101.5033821944670933
 20
630.997646719196382
 30
0.0
  0
VERTEX
  5
1E97
  8
0
 10
138.503382194467008
 20
630.997646719196382
 30
0.0
  0
VERTEX
  5
1E98
  8
0
 10
305.5033821944671217
 20
630.997646719196382
 30
0.0
  0
VERTEX
  5
1E99
  8
0
 10
305.5033821944671217
 20
588.997646719196382
 30
0.0
  0
VERTEX
  5
1E9A
  8
0
 10
138.503382194467008
 20
588.997646719196382
 30
0.0
  0
SEQEND
  5
1E9B
  8
0
  0
INSERT
  5
1450
  8
0
  2
*U19
 10
0.0
 20
0.0
 30
0.0
  0
CIRCLE
  5
1451
  8
0
 10
289.0845741348666138
 20
135.6110181198314137
 30
0.0
 40
10.0
  0
CIRCLE
  5
1452
  8
0
 10
159.0845741348666138
 20
135.6110181198314137
 30
0.0
 40
10.0
  0
CIRCLE
  5
1453
  8
0
 10
183.0645409077496879
 20
159.1110181198311011
 30
0.0
 40
3.0
  0
CIRCLE
  5
1454
  8
0
 10
230.0645409077496879
 20
159.1110181198311011
 30
0.0
 40
3.0
  0
CIRCLE
  5
1455
  8
0
 10
230.0645409077496879
 20
112.1110181198313995
 30
0.0
 40
3.0
  0
CIRCLE
  5
1456
  8
0
 10
183.0645409077496879
 20
112.1110181198313995
 30
0.0
 40
3.0
  0
CIRCLE
  5
1457
  8
0
 10
206.5645409077496879
 20
135.6110181198314137
 30
0.0
 40
19.5
  0
POLYLINE
  5
1458
  8
0
 66
     1
 10
0.0
 20
0.0
 30
0.0
 70
     1
  0
VERTEX
  5
1E9C
  8
0
 10
246.0371582392616858
 20
162.0420942651421967
 30
0.0
  0
VERTEX
  5
1E9D
  8
0
 10
246.0371582392616858
 20
172.0420942651421115
 30
0.0
 42
0.9999999999999998
  0
VERTEX
  5
1E9E
  8
0
 10
240.0371582392616858
 20
172.0420942651421115
 30
0.0
  0
VERTEX
  5
1E9F
  8
0
 10
240.0371582392616858
 20
162.0420942651421967
 30
0.0
 42
0.9999999999999998
  0
SEQEND
  5
1EA0
  8
0
  0
POLYLINE
  5
1459
  8
0
 66
     1
 10
0.0
 20
0.0
 30
0.0
 70
     1
  0
VERTEX
  5
1EA1
  8
0
 10
246.0371582392616858
 20
184.0420942651419125
 30
0.0
  0
VERTEX
  5
1EA2
  8
0
 10
246.0371582392616858
 20
194.0420942651423104
 30
0.0
 42
0.9999999999999998
  0
VERTEX
  5
1EA3
  8
0
 10
240.0371582392616858
 20
194.0420942651423104
 30
0.0
  0
VERTEX
  5
1EA4
  8
0
 10
240.0371582392616858
 20
184.0420942651419125
 30
0.0
 42
0.9999999999999998
  0
SEQEND
  5
1EA5
  8
0
  0
POLYLINE
  5
145A
  8
0
 66
     1
 10
0.0
 20
0.0
 30
0.0
 70
     1
  0
VERTEX
  5
1EA6
  8
0
 10
246.0371582392619132
 20
206.0420942651423104
 30
0.0
  0
VERTEX
  5
1EA7
  8
0
 10
246.0371582392619132
 20
216.0420942651423104
 30
0.0
 42
0.9999999999999998
  0
VERTEX
  5
1EA8
  8
0
 10
240.0371582392619132
 20
216.0420942651423104
 30
0.0
  0
VERTEX
  5
1EA9
  8
0
 10
240.0371582392619132
 20
206.0420942651423104
 30
0.0
 42
0.9999999999999998
  0
SEQEND
  5
1EAA
  8
0
  0
POLYLINE
  5
145B
  8
0
 66
     1
 10
0.0
 20
0.0
 30
0.0
 70
     1
  0
VERTEX
  5
1EAB
  8
0
 10
246.0371582392616858
 20
228.0420942651423104
 30
0.0
  0
VERTEX
  5
1EAC
  8
0
 10
246.0371582392616858
 20
238.0420942651419978
 30
0.0
 42
0.9999999999999998
  0
VERTEX
  5
1EAD
  8
0
 10
240.0371582392616858
 20
238.0420942651419978
 30
0.0
  0
VERTEX
  5
1EAE
  8
0
 10
240.0371582392616858
 20
228.0420942651423104
 30
0.0
 42
0.9999999999999998
  0
SEQEND
  5
1EAF
  8
0
  0
POLYLINE
  5
145C
  8
0
 66
     1
 10
0.0
 20
0.0
 30
0.0
 70
     1
  0
VERTEX
  5
1EB0
  8
0
 10
287.0371582392618279
 20
162.0420942651421967
 30
0.0
  0
VERTEX
  5
1EB1
  8
0
 10
287.0371582392618279
 20
172.0420942651421115
 30
0.0
 42
-0.9999999999999998
  0
VERTEX
  5
1EB2
  8
0
 10
293.0371582392618279
 20
172.0420942651421115
 30
0.0
  0
VERTEX
  5
1EB3
  8
0
 10
293.0371582392618279
 20
162.0420942651421967
 30
0.0
 42
-0.9999999999999998
  0
SEQEND
  5
1EB4
  8
0
  0
POLYLINE
  5
145D
  8
0
 66
     1
 10
0.0
 20
0.0
 30
0.0
 70
     1
  0
VERTEX
  5
1EB5
  8
0
 10
287.0371582392618279
 20
184.0420942651419125
 30
0.0
  0
VERTEX
  5
1EB6
  8
0
 10
287.0371582392618279
 20
194.0420942651423104
 30
0.0
 42
-0.9999999999999998
  0
VERTEX
  5
1EB7
  8
0
 10
293.0371582392618279
 20
194.0420942651423104
 30
0.0
  0
VERTEX
  5
1EB8
  8
0
 10
293.0371582392618279
 20
184.0420942651419125
 30
0.0
 42
-0.9999999999999998
  0
SEQEND
  5
1EB9
  8
0
  0
POLYLINE
  5
145E
  8
0
 66
     1
 10
0.0
 20
0.0
 30
0.0
 70
     1
  0
VERTEX
  5
1EBA
  8
0
 10
287.0371582392618279
 20
206.0420942651423104
 30
0.0
  0
VERTEX
  5
1EBB
  8
0
 10
287.0371582392618279
 20
216.0420942651423104
 30
0.0
 42
-0.9999999999999998
  0
VERTEX
  5
1EBC
  8
0
 10
293.0371582392618279
 20
216.0420942651423104
 30
0.0
  0
VERTEX
  5
1EBD
  8
0
 10
293.0371582392618279
 20
206.0420942651423104
 30
0.0
 42
-0.9999999999999998
  0
SEQEND
  5
1EBE
  8
0
  0
POLYLINE
  5
145F
  8
0
 66
     1
 10
0.0
 20
0.0
 30
0.0
 70
     1
  0
VERTEX
  5
1EBF
  8
0
 10
287.0371582392618279
 20
228.0420942651423104
 30
0.0
  0
VERTEX
  5
1EC0
  8
0
 10
287.0371582392618279
 20
238.0420942651419978
 30
0.0
 42
-0.9999999999999998
  0
VERTEX
  5
1EC1
  8
0
 10
293.0371582392618279
 20
238.0420942651419978
 30
0.0
  0
VERTEX
  5
1EC2
  8
0
 10
293.0371582392618279
 20
228.0420942651423104
 30
0.0
 42
-0.9999999999999998
  0
SEQEND
  5
1EC3
  8
0
  0
POLYLINE
  5
1460
  8
0
 66
     1
 10
0.0
 20
0.0
 30
0.0
 70
     1
  0
VERTEX
  5
1EC4
  8
0
 10
286.0371582392618279
 20
186.7060175400505102
 30
0.0
  0
VERTEX
  5
1EC5
  8
0
 10
286.0371582392618279
 20
216.7060175400505102
 30
0.0
 42
0.9999999999999998
  0
VERTEX
  5
1EC6
  8
0
 10
247.0371582392616858
 20
216.7060175400505102
 30
0.0
  0
VERTEX
  5
1EC7
  8
0
 10
247.0371582392616858
 20
186.7060175400505102
 30
0.0
 42
0.9999999999999998
  0
SEQEND
  5
1EC8
  8
0
  0
POLYLINE
  5
1461
  8
0
 66
     1
 10
0.0
 20
0.0
 30
0.0
 70
     1
  0
VERTEX
  5
1EC9
  8
0
 10
240.5371582392616858
 20
245.7060175400505102
 30
0.0
  0
VERTEX
  5
1ECA
  8
0
 10
292.5371582392618279
 20
245.7060175400505102
 30
0.0
 42
-2.414213562373094
  0
VERTEX
  5
1ECB
  8
0
 10
295.5371582392618279
 20
242.7060175400505102
 30
0.0
  0
VERTEX
  5
1ECC
  8
0
 10
295.5371582392618279
 20
215.7060175400505955
 30
0.0
  0
VERTEX
  5
1ECD
  8
0
 10
295.5371582392618279
 20
160.7060175400505955
 30
0.0
 42
-2.414213562373094
  0
VERTEX
  5
1ECE
  8
0
 10
292.5371582392618279
 20
157.7060175400505955
 30
0.0
  0
VERTEX
  5
1ECF
  8
0
 10
240.5371582392616858
 20
157.7060175400505955
 30
0.0
 42
-2.414213562373094
  0
VERTEX
  5
1ED0
  8
0
 10
237.5371582392617995
 20
160.7060175400505955
 30
0.0
  0
VERTEX
  5
1ED1
  8
0
 10
237.5371582392617995
 20
215.7060175400505955
 30
0.0
  0
VERTEX
  5
1ED2
  8
0
 10
237.5371582392617995
 20
242.7060175400505102
 30
0.0
 42
-2.414213562373094
  0
SEQEND
  5
1ED3
  8
0
  0
POLYLINE
  5
1462
  8
0
 66
     1
 10
0.0
 20
0.0
 30
0.0
 70
     1
  0
VERTEX
  5
1ED4
  8
0
 10
177.5645409077496879
 20
109.6110181198312006
 30
0.0
  0
VERTEX
  5
1ED5
  8
0
 10
177.5645409077496879
 20
161.6110181198314137
 30
0.0
 42
-2.414213562373094
  0
VERTEX
  5
1ED6
  8
0
 10
180.5645409077496879
 20
164.6110181198314137
 30
0.0
  0
VERTEX
  5
1ED7
  8
0
 10
232.5645409077496879
 20
164.6110181198314137
 30
0.0
 42
-2.414213562373094
  0
VERTEX
  5
1ED8
  8
0
 10
235.5645409077496879
 20
161.6110181198314137
 30
0.0
  0
VERTEX
  5
1ED9
  8
0
 10
235.5645409077496879
 20
109.6110181198312006
 30
0.0
 42
-2.414213562373094
  0
VERTEX
  5
1EDA
  8
0
 10
232.5645409077496879
 20
106.6110181198313995
 30
0.0
  0
VERTEX
  5
1EDB
  8
0
 10
180.5645409077496879
 20
106.6110181198313995
 30
0.0
 42
-2.414213562373094
  0
SEQEND
  5
1EDC
  8
0
  0
POLYLINE
  5
1463
  8
0
 66
     1
 10
0.0
 20
0.0
 30
0.0
 70
     1
  0
VERTEX
  5
1EDD
  8
0
 10
326.0845741348667275
 20
265.6110181198311011
 30
0.0
  0
VERTEX
  5
1EDE
  8
0
 10
326.0845741348667275
 20
103.6110181198313995
 30
0.0
  0
VERTEX
  5
1EDF
  8
0
 10
322.0845741348667275
 20
103.6110181198313995
 30
0.0
  0
VERTEX
  5
1EE0
  8
0
 10
142.0845741348666138
 20
103.6110181198313995
 30
0.0
  0
VERTEX
  5
1EE1
  8
0
 10
122.0845741348665996
 20
103.6110181198313995
 30
0.0
  0
VERTEX
  5
1EE2
  8
0
 10
122.0845741348665996
 20
182.195917892714391
 30
0.0
  0
VERTEX
  5
1EE3
  8
0
 10
212.0845741348666138
 20
265.6110181198311011
 30
0.0
  0
VERTEX
  5
1EE4
  8
0
 10
322.0845741348667275
 20
265.6110181198311011
 30
0.0
  0
SEQEND
  5
1EE5
  8
0
  0
INSERT
  5
1464
  8
0
  2
*U20
 10
0.0
 20
0.0
 30
0.0
  0
LINE
  5
1465
  8
0
 10
289.0845741348666138
 20
135.6110181198314137
 30
0.0
 11
326.0845741348667275
 21
135.6110181198314137
 31
0.0
  0
LINE
  5
1466
  8
0
 10
326.0845741348667275
 20
135.6110181198314137
 30
0.0
 11
326.0845741348667275
 21
137.6110181198314137
 31
0.0
  0
INSERT
  5
1675
  8
0
  2
*U21
 10
0.0
 20
0.0
 30
0.0
  0
POLYLINE
  5
1949
  8
0
 66
     1
 10
0.0
 20
0.0
 30
0.0
 70
     1
  0
VERTEX
  5
1EE6
  8
0
 10
52.3799283228217973
 20
714.7669547162204253
 30
0.0
  0
VERTEX
  5
1EE7
  8
0
 10
368.3799283228216837
 20
714.7669547162204253
 30
0.0
  0
VERTEX
  5
1EE8
  8
0
 10
368.3799283228216837
 20
789.7669547162204253
 30
0.0
  0
VERTEX
  5
1EE9
  8
0
 10
52.3799283228217973
 20
789.7669547162204253
 30
0.0
  0
SEQEND
  5
1EEA
  8
0
  0
CIRCLE
  5
194A
  8
0
 10
127.3799283228217973
 20
764.7669547162204253
 30
0.0
 40
5.0
  0
CIRCLE
  5
194B
  8
0
 10
197.3799283228217121
 20
764.7669547162204253
 30
0.0
 40
5.0
  0
CIRCLE
  5
194C
  8
0
 10
277.3799283228217973
 20
764.7669547162204253
 30
0.0
 40
5.0
  0
CIRCLE
  5
194D
  8
0
 10
127.3799283228217973
 20
764.7669547162204253
 30
0.0
 40
13.5
  0
CIRCLE
  5
194E
  8
0
 10
197.3799283228217121
 20
764.7669547162204253
 30
0.0
 40
13.5
  0
CIRCLE
  5
194F
  8
0
 10
277.3799283228217973
 20
764.7669547162204253
 30
0.0
 40
13.5
  0
LINE
  5
1950
  8
0
 10
343.3799283228216837
 20
714.7669547162204253
 30
0.0
 11
343.3799283228216837
 21
789.7669547162204253
 31
0.0
  0
POLYLINE
  5
1951
  8
0
 66
     1
 10
0.0
 20
0.0
 30
0.0
 70
     1
  0
VERTEX
  5
1EEB
  8
0
 10
77.3799283228217831
 20
789.7669547162204253
 30
0.0
  0
VERTEX
  5
1EEC
  8
0
 10
77.3799283228217831
 20
714.7669547162204253
 30
0.0
  0
VERTEX
  5
1EED
  8
0
 10
343.3799283228216837
 20
714.7669547162204253
 30
0.0
  0
VERTEX
  5
1EEE
  8
0
 10
343.3799283228216837
 20
789.7669547162204253
 30
0.0
  0
SEQEND
  5
1EEF
  8
0
  0
CIRCLE
  5
1952
  8
0
 10
127.3799283228217973
 20
764.7669547162204253
 30
0.0
 40
34.0
  0
CIRCLE
  5
1953
  8
0
 10
197.3799283228217121
 20
764.7669547162204253
 30
0.0
 40
34.0
  0
CIRCLE
  5
1954
  8
0
 10
277.3799283228217973
 20
764.7669547162204253
 30
0.0
 40
34.0
  0
INSERT
  5
1974
  8
0
  2
*U24
 10
0.0
 20
0.0
 30
0.0
  0
LINE
  5
1A6C
  8
0
 10
238.8799283228217121
 20
764.7669547162204253
 30
0.0
 11
238.8799283228217121
 21
773.9013426774945401
 31
0.0
  0
LINE
  5
1A6D
  8
0
 10
238.8799283228217121
 20
773.9013426774945401
 30
0.0
 11
235.8799283228217973
 21
773.9013426774945401
 31
0.0
  0
LINE
  5
1A6E
  8
0
 10
235.8799283228217973
 20
773.9013426774945401
 30
0.0
 11
235.8799283228217973
 21
673.9013426774945401
 31
0.0
  0
LINE
  5
1A6F
  8
0
 10
235.8799283228217973
 20
673.9013426774945401
 30
0.0
 11
238.8799283228217121
 21
673.9013426774945401
 31
0.0
  0
LINE
  5
1A70
  8
0
 10
238.8799283228217121
 20
673.9013426774945401
 30
0.0
 11
238.8799283228217121
 21
764.7669547162204253
 31
0.0
  0
POLYLINE
  5
1C1F
  8
0
 66
     1
 10
0.0
 20
0.0
 30
0.0
 70
     1
  0
VERTEX
  5
1F32
  8
0
 10
77.3799283228217831
 20
711.8121751320728663
 30
0.0
  0
VERTEX
  5
1F33
  8
0
 10
343.3799283228217973
 20
711.8121751320728663
 30
0.0
  0
VERTEX
  5
1F34
  8
0
 10
343.3799283228217973
 20
792.81217513207298
 30
0.0
  0
VERTEX
  5
1F35
  8
0
 10
77.3799283228217831
 20
792.81217513207298
 30
0.0
  0
SEQEND
  5
1F36
  8
0
  0
LINE
  5
1D31
  8
0
 10
150.4233655664276057
 20
789.7669547162204253
 30
0.0
 11
150.4233655664276057
 21
799.7669547162204253
 31
0.0
  0
CIRCLE
  5
1D43
  8
0
 10
162.1993550073092933
 20
781.6302184101416515
 30
0.0
 40
3.0
  0
CIRCLE
  5
1D44
  8
0
 10
316.5031108144070799
 20
781.1475833999259066
 30
0.0
 40
3.0
  0
POLYLINE
  5
1D5A
  8
0
 66
     1
 10
0.0
 20
0.0
 30
0.0
 70
     1
  0
VERTEX
  5
1F41
  8
0
 10
160.8774995164870063
 20
907.7303974452627244
 30
0.0
  0
VERTEX
  5
1F42
  8
0
 10
160.8774995164870063
 20
922.7303974452627244
 30
0.0
 42
0.9999999999999998
  0
VERTEX
  5
1F43
  8
0
 10
149.8774995164870063
 20
922.7303974452627244
 30
0.0
  0
VERTEX
  5
1F44
  8
0
 10
149.8774995164870063
 20
907.7303974452627244
 30
0.0
 42
0.9999999999999998
  0
SEQEND
  5
1F45
  8
0
  0
POLYLINE
  5
1E53
  8
0
 66
     1
 10
0.0
 20
0.0
 30
0.0
 70
     1
  0
VERTEX
  5
1F46
  8
0
 10
53.4209367600928999
 20
912.7303974452628381
 30
0.0
  0
VERTEX
  5
1F47
  8
0
 10
68.4209367600928999
 20
912.7303974452628381
 30
0.0
  0
VERTEX
  5
1F48
  8
0
 10
118.4209367600928999
 20
912.7303974452628381
 30
0.0
  0
VERTEX
  5
1F49
  8
0
 10
118.4209367600928999
 20
937.7303974452628381
 30
0.0
  0
VERTEX
  5
1F4A
  8
0
 10
198.4209367600928999
 20
937.7303974452628381
 30
0.0
  0
VERTEX
  5
1F4B
  8
0
 10
198.4209367600928999
 20
912.7303974452628381
 30
0.0
  0
VERTEX
  5
1F4C
  8
0
 10
248.4209367600928999
 20
912.7303974452628381
 30
0.0
  0
VERTEX
  5
1F4D
  8
0
 10
248.4209367600928999
 20
897.7303974452627244
 30
0.0
  0
VERTEX
  5
1F4E
  8
0
 10
68.4209367600928999
 20
897.7303974452627244
 30
0.0
  0
VERTEX
  5
1F4F
  8
0
 10
53.4209367600928999
 20
897.7303974452627244
 30
0.0
  0
SEQEND
  5
1F50
  8
0
  0
ENDSEC
  0
EOF
