  0
SECTION
  2
HEADER
  9
$ACADVER
  1
AC1009
  9
$INSBASE
 10
0.0
 20
0.0
 30
0.0
  9
$EXTMIN
 10
-0.7276215505913273
 20
0.0
 30
0.0
  9
$EXTMAX
 10
779.1173223716421035
 20
523.3050549185742284
 30
0.0
  9
$LIMMIN
 10
0.0
 20
0.0
  9
$LIMMAX
 10
420.0
 20
297.0
  9
$ORTHOMODE
 70
     0
  9
$REGENMODE
 70
     1
  9
$FILLMODE
 70
     1
  9
$QTEXTMODE
 70
     0
  9
$MIRRTEXT
 70
     0
  9
$DRAGMODE
 70
     2
  9
$LTSCALE
 40
1.0
  9
$OSMODE
 70
  3447
  9
$ATTMODE
 70
     1
  9
$TEXTSIZE
 40
2.5
  9
$TRACEWID
 40
1.0
  9
$TEXTSTYLE
  7
STANDARD
  9
$CLAYER
  8
0
  9
$CELTYPE
  6
BYLAYER
  9
$CECOLOR
 62
   256
  9
$DIMSCALE
 40
1.0
  9
$DIMASZ
 40
2.5
  9
$DIMEXO
 40
0.625
  9
$DIMDLI
 40
3.75
  9
$DIMRND
 40
0.0
  9
$DIMDLE
 40
0.0
  9
$DIMEXE
 40
1.25
  9
$DIMTP
 40
0.0
  9
$DIMTM
 40
0.0
  9
$DIMTXT
 40
2.5
  9
$DIMCEN
 40
2.5
  9
$DIMTSZ
 40
0.0
  9
$DIMTOL
 70
     0
  9
$DIMLIM
 70
     0
  9
$DIMTIH
 70
     0
  9
$DIMTOH
 70
     0
  9
$DIMSE1
 70
     0
  9
$DIMSE2
 70
     0
  9
$DIMTAD
 70
     1
  9
$DIMZIN
 70
     8
  9
$DIMBLK
  1

  9
$DIMASO
 70
     1
  9
$DIMSHO
 70
     1
  9
$DIMPOST
  1

  9
$DIMAPOST
  1

  9
$DIMALT
 70
     0
  9
$DIMALTD
 70
     3
  9
$DIMALTF
 40
0.03937007874016
  9
$DIMLFAC
 40
1.0
  9
$DIMTOFL
 70
     1
  9
$DIMTVP
 40
0.0
  9
$DIMTIX
 70
     0
  9
$DIMSOXD
 70
     0
  9
$DIMSAH
 70
     0
  9
$DIMBLK1
  1

  9
$DIMBLK2
  1

  9
$DIMSTYLE
  2
ISO-25
  9
$DIMCLRD
 70
     0
  9
$DIMCLRE
 70
     0
  9
$DIMCLRT
 70
     0
  9
$DIMTFAC
 40
1.0
  9
$DIMGAP
 40
0.625
  9
$LUNITS
 70
     2
  9
$LUPREC
 70
     4
  9
$SKETCHINC
 40
1.0
  9
$FILLETRAD
 40
0.0
  9
$AUNITS
 70
     0
  9
$AUPREC
 70
     0
  9
$MENU
  1
.
  9
$ELEVATION
 40
0.0
  9
$PELEVATION
 40
0.0
  9
$THICKNESS
 40
0.0
  9
$LIMCHECK
 70
     0
  9
$BLIPMODE
 70
     0
  9
$CHAMFERA
 40
0.0
  9
$CHAMFERB
 40
0.0
  9
$SKPOLY
 70
     0
  9
$TDCREATE
 40
2460455.5479050930589437
  9
$TDUPDATE
 40
2460455.5518981488421559
  9
$TDINDWG
 40
0.0039930556
  9
$TDUSRTIMER
 40
0.0039930556
  9
$USRTIMER
 70
     1
  9
$ANGBASE
 50
0.0
  9
$ANGDIR
 70
     0
  9
$PDMODE
 70
     0
  9
$PDSIZE
 40
0.0
  9
$PLINEWID
 40
0.0
  9
$COORDS
 70
     1
  9
$SPLFRAME
 70
     0
  9
$SPLINETYPE
 70
     6
  9
$SPLINESEGS
 70
     8
  9
$ATTDIA
 70
     1
  9
$ATTREQ
 70
     1
  9
$HANDLING
 70
     1
  9
$HANDSEED
  5
6AB
  9
$SURFTAB1
 70
     6
  9
$SURFTAB2
 70
     6
  9
$SURFTYPE
 70
     6
  9
$SURFU
 70
     6
  9
$SURFV
 70
     6
  9
$UCSNAME
  2

  9
$UCSORG
 10
0.0
 20
0.0
 30
0.0
  9
$UCSXDIR
 10
1.0
 20
0.0
 30
0.0
  9
$UCSYDIR
 10
0.0
 20
1.0
 30
0.0
  9
$PUCSNAME
  2

  9
$PUCSORG
 10
0.0
 20
0.0
 30
0.0
  9
$PUCSXDIR
 10
1.0
 20
0.0
 30
0.0
  9
$PUCSYDIR
 10
0.0
 20
1.0
 30
0.0
  9
$USERI1
 70
     0
  9
$USERI2
 70
     0
  9
$USERI3
 70
     0
  9
$USERI4
 70
     0
  9
$USERI5
 70
     0
  9
$USERR1
 40
0.0
  9
$USERR2
 40
0.0
  9
$USERR3
 40
0.0
  9
$USERR4
 40
0.0
  9
$USERR5
 40
0.0
  9
$WORLDVIEW
 70
     1
  9
$SHADEDGE
 70
     3
  9
$SHADEDIF
 70
    70
  9
$TILEMODE
 70
     1
  9
$MAXACTVP
 70
    64
  9
$PLIMCHECK
 70
     0
  9
$PEXTMIN
 10
0.0
 20
0.0
 30
0.0
  9
$PEXTMAX
 10
0.0
 20
0.0
 30
0.0
  9
$PLIMMIN
 10
0.0
 20
0.0
  9
$PLIMMAX
 10
12.0
 20
9.0
  9
$UNITMODE
 70
     0
  9
$VISRETAIN
 70
     1
  9
$PLINEGEN
 70
     0
  9
$PSLTSCALE
 70
     1
  0
ENDSEC
  0
SECTION
  2
TABLES
  0
TABLE
  2
VPORT
 70
     1
  0
VPORT
  2
*ACTIVE
 70
     0
 10
0.0
 20
0.0
 11
1.0
 21
1.0
 12
292.2865535651845903
 22
253.4075690522130913
 13
0.0
 23
0.0
 14
10.0
 24
10.0
 15
10.0
 25
10.0
 16
0.0
 26
0.0
 36
1.0
 17
0.0
 27
0.0
 37
0.0
 40
683.4767944161721971
 41
2.0480256136606192
 42
50.0
 43
0.0
 44
0.0
 50
0.0
 51
0.0
 71
     0
 72
  1000
 73
     1
 74
     3
 75
     0
 76
     1
 77
     0
 78
     0
  0
ENDTAB
  0
TABLE
  2
LTYPE
 70
     3
  0
LTYPE
  2
CONTINUOUS
 70
     0
  3
Solid line
 72
    65
 73
     0
 40
0.0
  0
LTYPE
  2
CHAIN
 70
     0
  3
Chain ____ _ ____ _ ____ _ ____ _ ____ _ ____
 72
    65
 73
     4
 40
0.7087
 49
0.4724000000000001
 49
-0.0591
 49
0.1181
 49
-0.0591
  0
ENDTAB
  0
TABLE
  2
LAYER
 70
     7
  0
LAYER
  2
0
 70
     0
 62
     7
  6
CONTINUOUS
  0
LAYER
  2
CENTER_MARK__ISO_
 70
     0
 62
     7
  6
CONTINUOUS
  0
LAYER
  2
CENTERLINE__ISO_
 70
     0
 62
     7
  6
CONTINUOUS
  0
LAYER
  2
DIMENSION__ISO_
 70
     0
 62
     7
  6
CONTINUOUS
  0
LAYER
  2
SYMBOL__ISO_
 70
     0
 62
     7
  6
CONTINUOUS
  0
LAYER
  2
VISIBLE__ISO_
 70
     0
 62
     7
  6
CONTINUOUS
  0
LAYER
  2
DEFPOINTS
 70
     0
 62
     7
  6
CONTINUOUS
  0
ENDTAB
  0
TABLE
  2
STYLE
 70
     5
  0
STYLE
  2
STANDARD
 70
     0
 40
0.0
 41
1.0
 50
0.0
 71
     0
 42
2.5
  3
txt
  4

  0
STYLE
  2
ANNOTATIVE
 70
     0
 40
0.0
 41
1.0
 50
0.0
 71
     0
 42
2.5
  3
txt
  4

  0
STYLE
  2
NOTE_TEXT__ANSI_
 70
     0
 40
0.0
 41
1.0
 50
0.0
 71
     0
 42
0.2
  3
txt
  4

  0
STYLE
  2
MtXpl_Tahoma
 70
     0
 40
0.0
 41
1.0
 50
0.0
 71
     0
 42
2.5
  3
txt
  4

  0
STYLE
  2
MtXpl_AIGDT
 70
     0
 40
0.0
 41
1.0
 50
0.0
 71
     0
 42
2.5
  3
txt
  4

  0
ENDTAB
  0
TABLE
  2
VIEW
 70
     0
  0
ENDTAB
  0
TABLE
  2
UCS
 70
     0
  0
ENDTAB
  0
TABLE
  2
APPID
 70
    10
  0
APPID
  2
ACAD
 70
     0
  0
APPID
  2
ACAD_PSEXT
 70
     0
  0
APPID
  2
ACADANNOPO
 70
     0
  0
APPID
  2
ACADANNOTATIVE
 70
     0
  0
APPID
  2
ACAD_DSTYLE_DIMJAG
 70
     0
  0
APPID
  2
ACAD_DSTYLE_DIMTALN
 70
     0
  0
APPID
  2
ACAD_MLEADERVER
 70
     0
  0
APPID
  2
ACAD_NAV_VCDISPLAY
 70
     0
  0
APPID
  2
ACAD_DSTYLE_DIMRADIAL_EXTENSION
 70
     0
  0
APPID
  2
ACAD_EXEMPT_FROM_CAD_STANDARDS
 70
     0
  0
ENDTAB
  0
TABLE
  2
DIMSTYLE
 70
     7
  0
DIMSTYLE
  2
STANDARD
 70
     0
  3

  4

  5

  6

  7

 40
1.0
 41
0.18
 42
0.0625
 43
0.38
 44
0.18
 45
0.0
 46
0.0
 47
0.0
 48
0.0
140
0.18
141
0.09
142
0.0
143
25.3999999999999986
144
1.0
145
0.0
146
1.0
147
0.09
 71
     0
 72
     0
 73
     1
 74
     1
 75
     0
 76
     0
 77
     0
 78
     0
170
     0
171
     2
172
     0
173
     0
174
     0
175
     0
176
     0
177
     0
178
     0
  0
DIMSTYLE
  2
ANNOTATIVE
 70
     0
  3

  4

  5

  6

  7

 40
0.0
 41
2.5
 42
0.625
 43
3.75
 44
1.25
 45
0.0
 46
0.0
 47
0.0
 48
0.0
140
2.5
141
2.5
142
0.0
143
0.03937007874016
144
1.0
145
0.0
146
1.0
147
0.625
 71
     0
 72
     0
 73
     0
 74
     0
 75
     0
 76
     0
 77
     1
 78
     8
170
     0
171
     3
172
     1
173
     0
174
     0
175
     0
176
     0
177
     0
178
     0
  0
DIMSTYLE
  2
ISO-25
 70
     0
  3

  4

  5

  6

  7

 40
1.0
 41
2.5
 42
0.625
 43
3.75
 44
1.25
 45
0.0
 46
0.0
 47
0.0
 48
0.0
140
2.5
141
2.5
142
0.0
143
0.03937007874016
144
1.0
145
0.0
146
1.0
147
0.625
 71
     0
 72
     0
 73
     0
 74
     0
 75
     0
 76
     0
 77
     1
 78
     8
170
     0
171
     3
172
     1
173
     0
174
     0
175
     0
176
     0
177
     0
178
     0
  0
DIMSTYLE
  2
INTRALOX_HOLE_CALLOUT__MET
 70
     0
  3
 mm
  4
 in
  5

  6

  7

 40
4.0
 41
2.5
 42
1.587499999999999
 43
5.9999999999999991
 44
3.174999999999998
 45
0.00000001
 46
10.0
 47
0.0
 48
0.0
140
2.539999961853026
141
0.09
142
0.0
143
0.0393700787401575
144
1.0
145
0.0
146
1.2000000476837149
147
0.8
 71
     0
 72
     0
 73
     1
 74
     1
 75
     0
 76
     0
 77
     0
 78
     8
170
     0
171
     2
172
     1
173
     0
174
     0
175
     0
176
   256
177
   256
178
   256
  0
DIMSTYLE
  2
INTRALOX_X_X__X_XX__MM-INC
 70
     0
  3

  4

  5

  6

  7

 40
4.0
 41
2.5
 42
1.587499999999999
 43
5.9999999999999991
 44
3.174999999999998
 45
0.00000001
 46
10.0
 47
0.0
 48
0.0
140
2.539999961853026
141
0.09
142
0.0
143
0.0393700787401575
144
1.0
145
0.0
146
1.2000000476837149
147
0.8
 71
     0
 72
     0
 73
     1
 74
     1
 75
     0
 76
     0
 77
     0
 78
     0
170
     1
171
     2
172
     1
173
     0
174
     0
175
     0
176
   256
177
   256
178
   256
  0
DIMSTYLE
  2
INTRALOX_X_XX__X_XXX__MM-I
 70
     0
  3

  4

  5

  6

  7

 40
4.0
 41
2.5
 42
1.587499999999999
 43
5.9999999999999991
 44
3.174999999999998
 45
0.00000001
 46
17.7800000000000011
 47
0.0
 48
0.0
140
2.539999961853026
141
0.09
142
0.0
143
0.0393700787401575
144
1.0
145
0.0
146
1.2000000476837149
147
0.8
 71
     0
 72
     0
 73
     1
 74
     1
 75
     0
 76
     0
 77
     0
 78
     8
170
     1
171
     3
172
     1
173
     0
174
     0
175
     0
176
   256
177
   256
178
   256
  0
ENDTAB
  0
ENDSEC
  0
SECTION
  2
BLOCKS
  0
BLOCK
  8
0
  2
$MODEL_SPACE
 70
     0
 10
0.0
 20
0.0
 30
0.0
  3
$MODEL_SPACE
  1

  0
ENDBLK
  5
21
  8
0
  0
BLOCK
 67
     1
  8
0
  2
$PAPER_SPACE
 70
     0
 10
0.0
 20
0.0
 30
0.0
  3
$PAPER_SPACE
  1

  0
ENDBLK
  5
D5
 67
     1
  8
0
  0
BLOCK
  8
0
  2
_CLOSED
 70
     0
 10
0.0
 20
0.0
 30
0.0
  3
_CLOSED
  1

  0
LINE
  5
297
  8
0
  6
BYBLOCK
 62
     0
 10
-1.0
 20
0.1666666666666666
 30
0.0
 11
0.0
 21
0.0
 31
0.0
  0
LINE
  5
298
  8
0
  6
BYBLOCK
 62
     0
 10
0.0
 20
0.0
 30
0.0
 11
-1.0
 21
-0.1666666666666666
 31
0.0
  0
LINE
  5
299
  8
0
  6
BYBLOCK
 62
     0
 10
-1.0
 20
0.1666666666666666
 30
0.0
 11
-1.0
 21
-0.1666666666666666
 31
0.0
  0
LINE
  5
29A
  8
0
  6
BYBLOCK
 62
     0
 10
0.0
 20
0.0
 30
0.0
 11
-1.0
 21
0.0
 31
0.0
  0
ENDBLK
  5
29B
  8
0
  0
BLOCK
  8
0
  2
*D2
 70
     1
 10
0.0
 20
0.0
 30
0.0
  3
*D2
  1

  0
LINE
  5
29E
  8
DIMENSION__ISO_
 10
476.7189593739773272
 20
647.3172990447177426
 30
0.0
 11
476.7189593739773272
 21
786.1685899836030558
 31
0.0
  0
LINE
  5
29F
  8
DIMENSION__ISO_
 10
460.4189593739772022
 20
738.9172990447176517
 30
0.0
 11
460.4189593739772022
 21
786.1685899836030558
 31
0.0
  0
LINE
  5
2A0
  8
DIMENSION__ISO_
 10
486.7189593739772135
 20
773.4685899836032377
 30
0.0
 11
496.7189593739773272
 21
773.4685899836032377
 31
0.0
  0
LINE
  5
2A1
  8
DIMENSION__ISO_
 10
450.4189593739773727
 20
773.4685899836032377
 30
0.0
 11
412.1590546194582885
 21
773.4685899836032377
 31
0.0
  0
LINE
  5
2A2
  8
DIMENSION__ISO_
 10
476.7189593739773272
 20
773.4685899836032377
 30
0.0
 11
460.4189593739772022
 21
773.4685899836032377
 31
0.0
  0
SOLID
  5
2A3
  8
DIMENSION__ISO_
 10
486.7189593739772135
 20
775.1352566502698664
 30
0.0
 11
486.7189593739772135
 21
771.8019233169368363
 31
0.0
 12
476.7189593739773272
 22
773.4685899836032377
 32
0.0
 13
476.7189593739773272
 23
773.4685899836032377
 33
0.0
  0
SOLID
  5
2A4
  8
DIMENSION__ISO_
 10
450.4189593739773727
 20
775.1352566502698664
 30
0.0
 11
450.4189593739773727
 21
771.8019233169368363
 31
0.0
 12
460.4189593739772022
 22
773.4685899836032377
 32
0.0
 13
460.4189593739772022
 23
773.4685899836032377
 33
0.0
  0
INSERT
  5
2A5
  8
0
  2
*U29
 10
0.0
 20
0.0
 30
0.0
  0
POINT
  5
2A6
  8
DEFPOINTS
 62
     0
 10
476.7189593739773272
 20
640.9672990447177199
 30
0.0
  0
POINT
  5
2A7
  8
DEFPOINTS
 62
     0
 10
460.4189593739772022
 20
732.5672990447174016
 30
0.0
  0
POINT
  5
2A8
  8
DEFPOINTS
 62
     0
 10
460.4189593739772022
 20
773.4685899836032377
 30
0.0
  0
ENDBLK
  5
2A9
  8
0
  0
BLOCK
  8
0
  2
*D3
 70
     1
 10
0.0
 20
0.0
 30
0.0
  3
*D3
  1

  0
LINE
  5
2AC
  8
DIMENSION__ISO_
 10
460.4189593739772022
 20
466.8172990447175721
 30
0.0
 11
460.4189593739772022
 21
369.762458797196814
 31
0.0
  0
LINE
  5
2AD
  8
DIMENSION__ISO_
 10
509.9149593739772968
 20
513.8172990447177426
 30
0.0
 11
509.9149593739772968
 21
369.762458797196814
 31
0.0
  0
LINE
  5
2AE
  8
DIMENSION__ISO_
 10
499.9149593739772968
 20
382.4624587971968026
 30
0.0
 11
470.4189593739773727
 21
382.4624587971968026
 31
0.0
  0
LINE
  5
2AF
  8
DIMENSION__ISO_
 10
460.4189593739772022
 20
382.4624587971968026
 30
0.0
 11
411.8537583346675888
 21
382.4624587971968026
 31
0.0
  0
SOLID
  5
2B0
  8
DIMENSION__ISO_
 10
499.9149593739772968
 20
384.1291254638634882
 30
0.0
 11
499.9149593739772968
 21
380.795792130530117
 31
0.0
 12
509.9149593739772968
 22
382.4624587971968026
 32
0.0
 13
509.9149593739772968
 23
382.4624587971968026
 33
0.0
  0
SOLID
  5
2B1
  8
DIMENSION__ISO_
 10
470.4189593739773727
 20
384.1291254638634882
 30
0.0
 11
470.4189593739773727
 21
380.795792130530117
 31
0.0
 12
460.4189593739772022
 22
382.4624587971968026
 32
0.0
 13
460.4189593739772022
 23
382.4624587971968026
 33
0.0
  0
INSERT
  5
2B2
  8
0
  2
*U30
 10
0.0
 20
0.0
 30
0.0
  0
POINT
  5
2B3
  8
DEFPOINTS
 62
     0
 10
460.4189593739772022
 20
473.1672990447177085
 30
0.0
  0
POINT
  5
2B4
  8
DEFPOINTS
 62
     0
 10
509.9149593739772968
 20
520.1672990447176517
 30
0.0
  0
POINT
  5
2B5
  8
DEFPOINTS
 62
     0
 10
509.9149593739772968
 20
382.4624587971968026
 30
0.0
  0
ENDBLK
  5
2B6
  8
0
  0
BLOCK
  8
0
  2
*D4
 70
     1
 10
0.0
 20
0.0
 30
0.0
  3
*D4
  1

  0
LINE
  5
2B9
  8
DIMENSION__ISO_
 10
509.9149593739772968
 20
533.8172990447177426
 30
0.0
 11
509.9149593739772968
 21
336.3472990447177722
 31
0.0
  0
LINE
  5
2BA
  8
DIMENSION__ISO_
 10
595.9229593739773918
 20
513.8172990447177426
 30
0.0
 11
595.9229593739773918
 21
336.3472990447177722
 31
0.0
  0
LINE
  5
2BB
  8
DIMENSION__ISO_
 10
585.9229593739771644
 20
349.0472990447178177
 30
0.0
 11
519.9149593739773536
 21
349.0472990447178177
 31
0.0
  0
LINE
  5
2BC
  8
DIMENSION__ISO_
 10
509.9149593739772968
 20
349.0472990447178177
 30
0.0
 11
408.6766545353070228
 21
349.0472990447178177
 31
0.0
  0
SOLID
  5
2BD
  8
DIMENSION__ISO_
 10
585.9229593739771644
 20
350.7139657113845033
 30
0.0
 11
585.9229593739771644
 21
347.3806323780510752
 31
0.0
 12
595.9229593739773918
 22
349.0472990447178177
 32
0.0
 13
595.9229593739773918
 23
349.0472990447178177
 33
0.0
  0
SOLID
  5
2BE
  8
DIMENSION__ISO_
 10
519.9149593739773536
 20
350.7139657113845033
 30
0.0
 11
519.9149593739773536
 21
347.3806323780510752
 31
0.0
 12
509.9149593739772968
 22
349.0472990447178177
 32
0.0
 13
509.9149593739772968
 23
349.0472990447178177
 33
0.0
  0
INSERT
  5
2BF
  8
0
  2
*U31
 10
0.0
 20
0.0
 30
0.0
  0
POINT
  5
2C0
  8
DEFPOINTS
 62
     0
 10
509.9149593739772968
 20
540.1672990447177654
 30
0.0
  0
POINT
  5
2C1
  8
DEFPOINTS
 62
     0
 10
595.9229593739773918
 20
520.1672990447176517
 30
0.0
  0
POINT
  5
2C2
  8
DEFPOINTS
 62
     0
 10
595.9229593739773918
 20
349.0472990447178177
 30
0.0
  0
ENDBLK
  5
2C3
  8
0
  0
BLOCK
  8
0
  2
*D5
 70
     1
 10
0.0
 20
0.0
 30
0.0
  3
*D5
  1

  0
LINE
  5
2C6
  8
DIMENSION__ISO_
 10
476.7189593739773272
 20
662.8172990447177426
 30
0.0
 11
476.7189593739773272
 21
827.0628091294661317
 31
0.0
  0
LINE
  5
2C7
  8
DIMENSION__ISO_
 10
629.1189593739773045
 20
662.8172990447177426
 30
0.0
 11
629.1189593739773045
 21
827.0628091294661317
 31
0.0
  0
LINE
  5
2C8
  8
DIMENSION__ISO_
 10
619.1189593739773045
 20
814.3628091294659725
 30
0.0
 11
486.7189593739773272
 21
814.3628091294659725
 31
0.0
  0
LINE
  5
2C9
  8
DIMENSION__ISO_
 10
476.7189593739773272
 20
814.3628091294659725
 30
0.0
 11
407.4288127543484848
 21
814.3628091294659725
 31
0.0
  0
SOLID
  5
2CA
  8
DIMENSION__ISO_
 10
619.1189593739773045
 20
816.029475796132715
 30
0.0
 11
619.1189593739773045
 21
812.6961424627992301
 31
0.0
 12
629.1189593739773045
 22
814.3628091294659725
 32
0.0
 13
629.1189593739773045
 23
814.3628091294659725
 33
0.0
  0
SOLID
  5
2CB
  8
DIMENSION__ISO_
 10
486.7189593739773272
 20
816.029475796132715
 30
0.0
 11
486.7189593739773272
 21
812.6961424627992301
 31
0.0
 12
476.7189593739773272
 22
814.3628091294659725
 32
0.0
 13
476.7189593739773272
 23
814.3628091294659725
 33
0.0
  0
INSERT
  5
2CC
  8
0
  2
*U32
 10
0.0
 20
0.0
 30
0.0
  0
POINT
  5
2CD
  8
DEFPOINTS
 62
     0
 10
476.7189593739773272
 20
656.4672990447177199
 30
0.0
  0
POINT
  5
2CE
  8
DEFPOINTS
 62
     0
 10
629.1189593739773045
 20
656.4672990447177199
 30
0.0
  0
POINT
  5
2CF
  8
DEFPOINTS
 62
     0
 10
629.1189593739773045
 20
814.3628091294659725
 30
0.0
  0
ENDBLK
  5
2D0
  8
0
  0
BLOCK
  8
0
  2
*D6
 70
     1
 10
0.0
 20
0.0
 30
0.0
  3
*D6
  1

  0
LINE
  5
2D3
  8
DIMENSION__ISO_
 10
650.8689593739776456
 20
463.1672990447178222
 30
0.0
 11
713.8545983443079876
 21
463.1672990447178222
 31
0.0
  0
LINE
  5
2D4
  8
DIMENSION__ISO_
 10
622.2729593739776419
 20
540.1672990447177654
 30
0.0
 11
713.8545983443079876
 21
540.1672990447177654
 31
0.0
  0
LINE
  5
2D5
  8
DIMENSION__ISO_
 10
701.1545983443078285
 20
473.167299044717879
 30
0.0
 11
701.1545983443078285
 21
498.1937593434739142
 31
0.0
  0
LINE
  5
2D6
  8
DIMENSION__ISO_
 10
701.1545983443078285
 20
530.1672990447179927
 30
0.0
 11
701.1545983443078285
 21
517.8856865260687528
 31
0.0
  0
SOLID
  5
2D7
  8
DIMENSION__ISO_
 10
699.4879316776413134
 20
473.167299044717879
 30
0.0
 11
702.8212650109743436
 21
473.167299044717879
 31
0.0
 12
701.1545983443078285
 22
463.1672990447178222
 32
0.0
 13
701.1545983443078285
 23
463.1672990447178222
 33
0.0
  0
SOLID
  5
2D8
  8
DIMENSION__ISO_
 10
699.4879316776413134
 20
530.1672990447179927
 30
0.0
 11
702.8212650109743436
 21
530.1672990447179927
 31
0.0
 12
701.1545983443078285
 22
540.1672990447177654
 32
0.0
 13
701.1545983443078285
 23
540.1672990447177654
 33
0.0
  0
INSERT
  5
2D9
  8
0
  2
*U33
 10
0.0
 20
0.0
 30
0.0
  0
POINT
  5
2DA
  8
DEFPOINTS
 62
     0
 10
644.5189593739777365
 20
463.1672990447178222
 30
0.0
  0
POINT
  5
2DB
  8
DEFPOINTS
 62
     0
 10
615.9229593739776192
 20
540.1672990447177654
 30
0.0
  0
POINT
  5
2DC
  8
DEFPOINTS
 62
     0
 10
701.1545983443078285
 20
540.1672990447177654
 30
0.0
  0
ENDBLK
  5
2DD
  8
0
  0
BLOCK
  8
0
  2
*D7
 70
     1
 10
0.0
 20
0.0
 30
0.0
  3
*D7
  1

  0
LINE
  5
2E0
  8
DIMENSION__ISO_
 10
650.8689593739776456
 20
463.1672990447178222
 30
0.0
 11
811.5904513421063484
 21
463.1672990447178222
 31
0.0
  0
LINE
  5
2E1
  8
DIMENSION__ISO_
 10
650.968959373977782
 20
564.7672990447179018
 30
0.0
 11
811.5904513421063484
 21
564.7672990447180155
 31
0.0
  0
LINE
  5
2E2
  8
DIMENSION__ISO_
 10
798.8904513421061893
 20
473.167299044717879
 30
0.0
 11
798.8904513421061893
 21
504.1213354534204996
 31
0.0
  0
LINE
  5
2E3
  8
DIMENSION__ISO_
 10
798.8904513421061893
 20
554.7672990447180155
 30
0.0
 11
798.8904513421061893
 21
523.8132626360154518
 31
0.0
  0
SOLID
  5
2E4
  8
DIMENSION__ISO_
 10
797.2237846754396742
 20
473.167299044717879
 30
0.0
 11
800.5571180087729317
 21
473.167299044717879
 31
0.0
 12
798.8904513421061893
 22
463.1672990447178222
 32
0.0
 13
798.8904513421061893
 23
463.1672990447178222
 33
0.0
  0
SOLID
  5
2E5
  8
DIMENSION__ISO_
 10
797.2237846754396742
 20
554.7672990447180155
 30
0.0
 11
800.5571180087729317
 21
554.7672990447180155
 31
0.0
 12
798.8904513421061893
 22
564.7672990447180155
 32
0.0
 13
798.8904513421061893
 23
564.7672990447180155
 33
0.0
  0
INSERT
  5
2E6
  8
0
  2
*U34
 10
0.0
 20
0.0
 30
0.0
  0
POINT
  5
2E7
  8
DEFPOINTS
 62
     0
 10
644.5189593739777365
 20
463.1672990447178222
 30
0.0
  0
POINT
  5
2E8
  8
DEFPOINTS
 62
     0
 10
644.6189593739776456
 20
564.7672990447179018
 30
0.0
  0
POINT
  5
2E9
  8
DEFPOINTS
 62
     0
 10
798.8904513421061893
 20
564.7672990447180155
 30
0.0
  0
ENDBLK
  5
2EA
  8
0
  0
BLOCK
  8
0
  2
*D8
 70
     1
 10
0.0
 20
0.0
 30
0.0
  3
*D8
  1

  0
LINE
  5
2ED
  8
DIMENSION__ISO_
 10
622.2729593739776419
 20
665.5672990447177426
 30
0.0
 11
713.8545983443079876
 21
665.5672990447177426
 31
0.0
  0
LINE
  5
2EE
  8
DIMENSION__ISO_
 10
622.2729593739776419
 20
540.1672990447177654
 30
0.0
 11
713.8545983443079876
 21
540.1672990447177654
 31
0.0
  0
LINE
  5
2EF
  8
DIMENSION__ISO_
 10
701.1545983443078285
 20
655.5672990447177426
 30
0.0
 11
701.1545983443078285
 21
620.0326906910330536
 31
0.0
  0
LINE
  5
2F0
  8
DIMENSION__ISO_
 10
701.1545983443078285
 20
550.1672990447179927
 30
0.0
 11
701.1545983443078285
 21
600.3407635084381582
 31
0.0
  0
SOLID
  5
2F1
  8
DIMENSION__ISO_
 10
699.4879316776413134
 20
655.5672990447177426
 30
0.0
 11
702.8212650109743436
 21
655.5672990447177426
 31
0.0
 12
701.1545983443078285
 22
665.5672990447177426
 32
0.0
 13
701.1545983443078285
 23
665.5672990447177426
 33
0.0
  0
SOLID
  5
2F2
  8
DIMENSION__ISO_
 10
699.4879316776413134
 20
550.1672990447179927
 30
0.0
 11
702.8212650109743436
 21
550.1672990447179927
 31
0.0
 12
701.1545983443078285
 22
540.1672990447177654
 32
0.0
 13
701.1545983443078285
 23
540.1672990447177654
 33
0.0
  0
INSERT
  5
2F3
  8
0
  2
*U35
 10
0.0
 20
0.0
 30
0.0
  0
POINT
  5
2F4
  8
DEFPOINTS
 62
     0
 10
615.9229593739776192
 20
665.5672990447177426
 30
0.0
  0
POINT
  5
2F5
  8
DEFPOINTS
 62
     0
 10
615.9229593739776192
 20
540.1672990447177654
 30
0.0
  0
POINT
  5
2F6
  8
DEFPOINTS
 62
     0
 10
701.1545983443078285
 20
540.1672990447177654
 30
0.0
  0
ENDBLK
  5
2F7
  8
0
  0
BLOCK
  8
0
  2
*D9
 70
     1
 10
0.0
 20
0.0
 30
0.0
  3
*D9
  1

  0
LINE
  5
2FA
  8
DIMENSION__ISO_
 10
650.968959373977782
 20
640.9672990447178336
 30
0.0
 11
812.8826116984695318
 21
640.9672990447179473
 31
0.0
  0
LINE
  5
2FB
  8
DIMENSION__ISO_
 10
650.968959373977782
 20
564.7672990447179018
 30
0.0
 11
812.8826116984695318
 21
564.7672990447180155
 31
0.0
  0
LINE
  5
2FC
  8
DIMENSION__ISO_
 10
800.1826116984696
 20
630.9672990447180609
 30
0.0
 11
800.1826116984696
 21
606.7769725932896563
 31
0.0
  0
LINE
  5
2FD
  8
DIMENSION__ISO_
 10
800.1826116984696
 20
574.7672990447179018
 30
0.0
 11
800.1826116984696
 21
587.0850454106948746
 31
0.0
  0
SOLID
  5
2FE
  8
DIMENSION__ISO_
 10
798.5159450318029712
 20
630.9672990447180609
 30
0.0
 11
801.8492783651362288
 21
630.9672990447180609
 31
0.0
 12
800.1826116984696
 22
640.9672990447179473
 32
0.0
 13
800.1826116984696
 23
640.9672990447179473
 33
0.0
  0
SOLID
  5
2FF
  8
DIMENSION__ISO_
 10
798.5159450318029712
 20
574.7672990447179018
 30
0.0
 11
801.8492783651362288
 21
574.7672990447179018
 31
0.0
 12
800.1826116984696
 22
564.7672990447180155
 32
0.0
 13
800.1826116984696
 23
564.7672990447180155
 33
0.0
  0
INSERT
  5
300
  8
0
  2
*U36
 10
0.0
 20
0.0
 30
0.0
  0
POINT
  5
301
  8
DEFPOINTS
 62
     0
 10
644.6189593739776456
 20
640.9672990447178336
 30
0.0
  0
POINT
  5
302
  8
DEFPOINTS
 62
     0
 10
644.6189593739776456
 20
564.7672990447179018
 30
0.0
  0
POINT
  5
303
  8
DEFPOINTS
 62
     0
 10
800.1826116984696
 20
564.7672990447180155
 30
0.0
  0
ENDBLK
  5
304
  8
0
  0
BLOCK
  8
0
  2
*D10
 70
     1
 10
0.0
 20
0.0
 30
0.0
  3
*D10
  1

  0
LINE
  5
307
  8
DIMENSION__ISO_
 10
650.8689593739776456
 20
463.1672990447178222
 30
0.0
 11
922.1298851118879156
 21
463.1672990447179927
 31
0.0
  0
LINE
  5
308
  8
DIMENSION__ISO_
 10
641.7689593739772818
 20
742.5672990447178563
 30
0.0
 11
922.1298851118879156
 21
742.5672990447183111
 31
0.0
  0
LINE
  5
309
  8
DIMENSION__ISO_
 10
909.4298851118879838
 20
473.167299044717879
 30
0.0
 11
909.4298851118879838
 21
593.0213354534206474
 31
0.0
  0
LINE
  5
30A
  8
DIMENSION__ISO_
 10
909.4298851118879838
 20
732.5672990447181974
 30
0.0
 11
909.4298851118879838
 21
612.7132626360154291
 31
0.0
  0
SOLID
  5
30B
  8
DIMENSION__ISO_
 10
907.7632184452212414
 20
473.167299044717879
 30
0.0
 11
911.0965517785547263
 21
473.167299044717879
 31
0.0
 12
909.4298851118879838
 22
463.1672990447179927
 32
0.0
 13
909.4298851118879838
 23
463.1672990447179927
 33
0.0
  0
SOLID
  5
30C
  8
DIMENSION__ISO_
 10
907.7632184452212414
 20
732.5672990447181974
 30
0.0
 11
911.0965517785547263
 21
732.5672990447181974
 31
0.0
 12
909.4298851118879838
 22
742.5672990447183111
 32
0.0
 13
909.4298851118879838
 23
742.5672990447183111
 33
0.0
  0
INSERT
  5
30D
  8
0
  2
*U37
 10
0.0
 20
0.0
 30
0.0
  0
POINT
  5
30E
  8
DEFPOINTS
 62
     0
 10
644.5189593739777365
 20
463.1672990447178222
 30
0.0
  0
POINT
  5
30F
  8
DEFPOINTS
 62
     0
 10
635.4189593739771453
 20
742.5672990447178563
 30
0.0
  0
POINT
  5
310
  8
DEFPOINTS
 62
     0
 10
909.4298851118879838
 20
742.5672990447183111
 30
0.0
  0
ENDBLK
  5
311
  8
0
  0
BLOCK
  8
0
  2
*D11
 70
     1
 10
0.0
 20
0.0
 30
0.0
  3
*D11
  1

  0
LINE
  5
314
  8
DIMENSION__ISO_
 10
685.3706233620083594
 20
764.2364670285576267
 30
0.0
 11
672.3030845469097585
 21
764.2364670285577404
 31
0.0
  0
LINE
  5
315
  8
DIMENSION__ISO_
 10
672.3030845469097585
 20
764.2364670285577404
 30
0.0
 11
650.593067497764082
 21
745.595976746142469
 31
0.0
  0
INSERT
  5
316
  8
0
  2
*U38
 10
0.0
 20
0.0
 30
0.0
  0
SOLID
  5
317
  8
DIMENSION__ISO_
 10
649.5073443559783755
 20
746.8604857564581607
 30
0.0
 11
651.6787906395494474
 21
744.3314677358268909
 31
0.0
 12
643.0060134358702726
 22
739.0816378954298216
 32
0.0
 13
643.0060134358702726
 23
739.0816378954298216
 33
0.0
  0
POINT
  5
318
  8
DEFPOINTS
 62
     0
 10
643.0060134358702726
 20
739.0816378954298216
 30
0.0
  0
POINT
  5
319
  8
DEFPOINTS
 62
     0
 10
635.4189593739766906
 20
732.5672990447172879
 30
0.0
  0
ENDBLK
  5
31A
  8
0
  0
BLOCK
  8
0
  2
*D12
 70
     1
 10
0.0
 20
0.0
 30
0.0
  3
*D12
  1

  0
LINE
  5
31D
  8
DIMENSION__ISO_
 10
460.4189593739772022
 20
466.8172990447175721
 30
0.0
 11
460.4189593739772022
 21
303.7577542108919033
 31
0.0
  0
LINE
  5
31E
  8
DIMENSION__ISO_
 10
645.4189593739773727
 20
466.8172990447175721
 30
0.0
 11
645.4189593739773727
 21
303.7577542108919033
 31
0.0
  0
LINE
  5
31F
  8
DIMENSION__ISO_
 10
470.4189593739773727
 20
316.4577542108918919
 30
0.0
 11
521.9735435197206925
 21
316.4577542108918919
 31
0.0
  0
LINE
  5
320
  8
DIMENSION__ISO_
 10
635.4189593739771453
 20
316.4577542108918919
 30
0.0
 11
598.3949792218706989
 21
316.4577542108918919
 31
0.0
  0
SOLID
  5
321
  8
DIMENSION__ISO_
 10
470.4189593739773727
 20
318.1244208775586912
 30
0.0
 11
470.4189593739773727
 21
314.7910875442252063
 31
0.0
 12
460.4189593739772022
 22
316.4577542108918919
 32
0.0
 13
460.4189593739772022
 23
316.4577542108918919
 33
0.0
  0
SOLID
  5
322
  8
DIMENSION__ISO_
 10
635.4189593739771453
 20
318.1244208775586912
 30
0.0
 11
635.4189593739771453
 21
314.7910875442252063
 31
0.0
 12
645.4189593739773727
 22
316.4577542108918919
 32
0.0
 13
645.4189593739773727
 23
316.4577542108918919
 33
0.0
  0
INSERT
  5
323
  8
0
  2
*U39
 10
0.0
 20
0.0
 30
0.0
  0
POINT
  5
324
  8
DEFPOINTS
 62
     0
 10
460.4189593739772022
 20
473.1672990447177085
 30
0.0
  0
POINT
  5
325
  8
DEFPOINTS
 62
     0
 10
645.4189593739773727
 20
473.1672990447177085
 30
0.0
  0
POINT
  5
326
  8
DEFPOINTS
 62
     0
 10
645.4189593739773727
 20
316.4577542108918919
 30
0.0
  0
ENDBLK
  5
327
  8
0
  0
BLOCK
  8
0
  2
*D13
 70
     1
 10
0.0
 20
0.0
 30
0.0
  3
*D13
  1

  0
LINE
  5
32A
  8
DIMENSION__ISO_
 10
791.1792962839584789
 20
381.4688850427614852
 30
0.0
 11
777.7219607398506014
 21
381.4688850427614852
 31
0.0
  0
LINE
  5
32B
  8
DIMENSION__ISO_
 10
777.7219607398506014
 20
381.4688850427614852
 30
0.0
 11
610.989914106704191
 21
527.0148515507354432
 31
0.0
  0
INSERT
  5
32C
  8
0
  2
*U40
 10
0.0
 20
0.0
 30
0.0
  0
SOLID
  5
32D
  8
DIMENSION__ISO_
 10
612.0859513978695077
 20
528.2704311117961424
 30
0.0
 11
609.8938768155391017
 21
525.7592719896749713
 31
0.0
 12
603.456436740340564
 22
533.5910752977265474
 32
0.0
 13
603.456436740340564
 23
533.5910752977265474
 33
0.0
  0
LINE
  5
32E
  8
DIMENSION__ISO_
 10
595.5629593739771508
 20
540.1672990447177654
 30
0.0
 11
596.2829593739772918
 21
540.1672990447177654
 31
0.0
  0
LINE
  5
32F
  8
DIMENSION__ISO_
 10
595.9229593739771644
 20
539.807299044717638
 30
0.0
 11
595.9229593739770507
 21
540.5272990447175516
 31
0.0
  0
POINT
  5
330
  8
DEFPOINTS
 62
     0
 10
603.456436740340564
 20
533.5910752977265474
 30
0.0
  0
POINT
  5
331
  8
DEFPOINTS
 62
     0
 10
588.3894820076136511
 20
546.7435227917087559
 30
0.0
  0
ENDBLK
  5
332
  8
0
  0
BLOCK
  8
0
  2
*D15
 70
     1
 10
0.0
 20
0.0
 30
0.0
  3
*D15
  1

  0
LINE
  5
452
  8
DIMENSION__ISO_
 10
262.3724803550903175
 20
343.5595448338257825
 30
0.0
 11
262.3724803550903175
 21
482.410835772711323
 31
0.0
  0
LINE
  5
453
  8
DIMENSION__ISO_
 10
246.0724803550903061
 20
435.1595448338255778
 30
0.0
 11
246.0724803550903061
 21
482.410835772711323
 31
0.0
  0
LINE
  5
454
  8
DIMENSION__ISO_
 10
272.3724803550902038
 20
469.7108357727112775
 30
0.0
 11
282.3724803550902038
 21
469.7108357727112775
 31
0.0
  0
LINE
  5
455
  8
DIMENSION__ISO_
 10
236.0724803550903061
 20
469.7108357727112775
 30
0.0
 11
197.8125758404439978
 21
469.7108357727112775
 31
0.0
  0
LINE
  5
456
  8
DIMENSION__ISO_
 10
262.3724803550903175
 20
469.7108357727112775
 30
0.0
 11
246.0724803550903061
 21
469.7108357727112775
 31
0.0
  0
SOLID
  5
457
  8
DIMENSION__ISO_
 10
272.3724803550902038
 20
471.37750243937802
 30
0.0
 11
272.3724803550902038
 21
468.0441691060445919
 31
0.0
 12
262.3724803550903175
 22
469.7108357727112775
 32
0.0
 13
262.3724803550903175
 23
469.7108357727112775
 33
0.0
  0
SOLID
  5
458
  8
DIMENSION__ISO_
 10
236.0724803550903061
 20
471.37750243937802
 30
0.0
 11
236.0724803550903061
 21
468.0441691060445919
 31
0.0
 12
246.0724803550903061
 22
469.7108357727112775
 32
0.0
 13
246.0724803550903061
 23
469.7108357727112775
 33
0.0
  0
INSERT
  5
459
  8
0
  2
*U43
 10
0.0
 20
0.0
 30
0.0
  0
POINT
  5
45A
  8
DEFPOINTS
 62
     0
 10
262.3724803550903175
 20
337.2095448338258166
 30
0.0
  0
POINT
  5
45B
  8
DEFPOINTS
 62
     0
 10
246.0724803550903061
 20
428.8095448338256119
 30
0.0
  0
POINT
  5
45C
  8
DEFPOINTS
 62
     0
 10
246.0724803550903061
 20
469.7108357727112775
 30
0.0
  0
ENDBLK
  5
3BD
  8
0
  0
BLOCK
  8
0
  2
*D16
 70
     1
 10
0.0
 20
0.0
 30
0.0
  3
*D16
  1

  0
LINE
  5
45D
  8
DIMENSION__ISO_
 10
246.0724803550903061
 20
163.0595448338258109
 30
0.0
 11
246.0724803550903061
 21
66.0047045863049107
 31
0.0
  0
LINE
  5
45E
  8
DIMENSION__ISO_
 10
295.5684803550904007
 20
210.0595448338258961
 30
0.0
 11
295.5684803550904007
 21
66.0047045863049107
 31
0.0
  0
LINE
  5
45F
  8
DIMENSION__ISO_
 10
285.5684803550904007
 20
78.7047045863048993
 30
0.0
 11
256.0724803550903061
 21
78.7047045863048993
 31
0.0
  0
LINE
  5
460
  8
DIMENSION__ISO_
 10
246.0724803550903061
 20
78.7047045863048993
 30
0.0
 11
197.5072795597534139
 21
78.7047045863048993
 31
0.0
  0
SOLID
  5
461
  8
DIMENSION__ISO_
 10
285.5684803550904007
 20
80.3713712529715707
 30
0.0
 11
285.5684803550904007
 21
77.0380379196382279
 31
0.0
 12
295.5684803550904007
 22
78.7047045863048993
 32
0.0
 13
295.5684803550904007
 23
78.7047045863048993
 33
0.0
  0
SOLID
  5
462
  8
DIMENSION__ISO_
 10
256.0724803550903061
 20
80.3713712529715707
 30
0.0
 11
256.0724803550903061
 21
77.0380379196382279
 31
0.0
 12
246.0724803550903061
 22
78.7047045863048993
 32
0.0
 13
246.0724803550903061
 23
78.7047045863048993
 33
0.0
  0
INSERT
  5
463
  8
0
  2
*U44
 10
0.0
 20
0.0
 30
0.0
  0
POINT
  5
464
  8
DEFPOINTS
 62
     0
 10
246.0724803550903061
 20
169.4095448338258052
 30
0.0
  0
POINT
  5
465
  8
DEFPOINTS
 62
     0
 10
295.5684803550904007
 20
216.4095448338258905
 30
0.0
  0
POINT
  5
466
  8
DEFPOINTS
 62
     0
 10
295.5684803550904007
 20
78.7047045863048993
 30
0.0
  0
ENDBLK
  5
3CB
  8
0
  0
BLOCK
  8
0
  2
*D17
 70
     1
 10
0.0
 20
0.0
 30
0.0
  3
*D17
  1

  0
LINE
  5
467
  8
DIMENSION__ISO_
 10
295.5684803550904007
 20
230.0595448338258961
 30
0.0
 11
295.5684803550904007
 21
32.5895448338258689
 31
0.0
  0
LINE
  5
468
  8
DIMENSION__ISO_
 10
381.5764803550904958
 20
210.0595448338258961
 30
0.0
 11
381.5764803550904958
 21
32.5895448338258689
 31
0.0
  0
LINE
  5
469
  8
DIMENSION__ISO_
 10
371.5764803550903821
 20
45.2895448338258575
 30
0.0
 11
305.5684803550904007
 21
45.2895448338258575
 31
0.0
  0
LINE
  5
46A
  8
DIMENSION__ISO_
 10
295.5684803550904007
 20
45.2895448338258575
 30
0.0
 11
194.3301757213324947
 21
45.2895448338258575
 31
0.0
  0
SOLID
  5
46B
  8
DIMENSION__ISO_
 10
371.5764803550903821
 20
46.9562115004925218
 30
0.0
 11
371.5764803550903821
 21
43.6228781671591932
 31
0.0
 12
381.5764803550904958
 22
45.2895448338258575
 32
0.0
 13
381.5764803550904958
 23
45.2895448338258575
 33
0.0
  0
SOLID
  5
46C
  8
DIMENSION__ISO_
 10
305.5684803550904007
 20
46.9562115004925218
 30
0.0
 11
305.5684803550904007
 21
43.6228781671591932
 31
0.0
 12
295.5684803550904007
 22
45.2895448338258575
 32
0.0
 13
295.5684803550904007
 23
45.2895448338258575
 33
0.0
  0
INSERT
  5
46D
  8
0
  2
*U45
 10
0.0
 20
0.0
 30
0.0
  0
POINT
  5
46E
  8
DEFPOINTS
 62
     0
 10
295.5684803550904007
 20
236.4095448338258905
 30
0.0
  0
POINT
  5
46F
  8
DEFPOINTS
 62
     0
 10
381.5764803550904958
 20
216.4095448338258905
 30
0.0
  0
POINT
  5
470
  8
DEFPOINTS
 62
     0
 10
381.5764803550904958
 20
45.2895448338258575
 30
0.0
  0
ENDBLK
  5
3D8
  8
0
  0
BLOCK
  8
0
  2
*D18
 70
     1
 10
0.0
 20
0.0
 30
0.0
  3
*D18
  1

  0
LINE
  5
471
  8
DIMENSION__ISO_
 10
262.3724803550903744
 20
359.0595448338257825
 30
0.0
 11
262.3724803550903744
 21
523.305054918574001
 31
0.0
  0
LINE
  5
472
  8
DIMENSION__ISO_
 10
414.7724803550902948
 20
359.0595448338257825
 30
0.0
 11
414.7724803550902948
 21
523.305054918574001
 31
0.0
  0
LINE
  5
473
  8
DIMENSION__ISO_
 10
404.7724803550902948
 20
510.6050549185741261
 30
0.0
 11
272.3724803550903744
 21
510.6050549185741261
 31
0.0
  0
LINE
  5
474
  8
DIMENSION__ISO_
 10
262.3724803550903744
 20
510.6050549185741261
 30
0.0
 11
193.0823339999784025
 21
510.6050549185741261
 31
0.0
  0
SOLID
  5
475
  8
DIMENSION__ISO_
 10
404.7724803550902948
 20
512.2717215852405843
 30
0.0
 11
404.7724803550902948
 21
508.9383882519073268
 31
0.0
 12
414.7724803550902948
 22
510.6050549185741261
 32
0.0
 13
414.7724803550902948
 23
510.6050549185741261
 33
0.0
  0
SOLID
  5
476
  8
DIMENSION__ISO_
 10
272.3724803550903744
 20
512.2717215852405843
 30
0.0
 11
272.3724803550903744
 21
508.9383882519073268
 31
0.0
 12
262.3724803550903744
 22
510.6050549185741261
 32
0.0
 13
262.3724803550903744
 23
510.6050549185741261
 33
0.0
  0
INSERT
  5
477
  8
0
  2
*U46
 10
0.0
 20
0.0
 30
0.0
  0
POINT
  5
478
  8
DEFPOINTS
 62
     0
 10
262.3724803550903744
 20
352.7095448338258166
 30
0.0
  0
POINT
  5
479
  8
DEFPOINTS
 62
     0
 10
414.7724803550902948
 20
352.7095448338258166
 30
0.0
  0
POINT
  5
47A
  8
DEFPOINTS
 62
     0
 10
414.7724803550902948
 20
510.6050549185741261
 30
0.0
  0
ENDBLK
  5
3E5
  8
0
  0
BLOCK
  8
0
  2
*D19
 70
     1
 10
0.0
 20
0.0
 30
0.0
  3
*D19
  1

  0
LINE
  5
47B
  8
DIMENSION__ISO_
 10
436.5224803550908064
 20
159.4095448338258052
 30
0.0
 11
499.5081193254208074
 21
159.4095448338258905
 31
0.0
  0
LINE
  5
47C
  8
DIMENSION__ISO_
 10
407.9264803550905754
 20
236.4095448338260042
 30
0.0
 11
499.5081193254208074
 21
236.4095448338260042
 31
0.0
  0
LINE
  5
47D
  8
DIMENSION__ISO_
 10
486.8081193254208756
 20
169.4095448338258905
 30
0.0
 11
486.8081193254208756
 21
194.4360050896420944
 31
0.0
  0
LINE
  5
47E
  8
DIMENSION__ISO_
 10
486.8081193254208756
 20
226.4095448338260042
 30
0.0
 11
486.8081193254208756
 21
214.1279323581167944
 31
0.0
  0
SOLID
  5
47F
  8
DIMENSION__ISO_
 10
485.14145265875419
 20
169.4095448338258905
 30
0.0
 11
488.4747859920876181
 21
169.4095448338258905
 31
0.0
 12
486.8081193254208756
 22
159.4095448338258905
 32
0.0
 13
486.8081193254208756
 23
159.4095448338258905
 33
0.0
  0
SOLID
  5
480
  8
DIMENSION__ISO_
 10
485.14145265875419
 20
226.4095448338260042
 30
0.0
 11
488.4747859920876181
 21
226.4095448338260042
 31
0.0
 12
486.8081193254208756
 22
236.4095448338260042
 32
0.0
 13
486.8081193254208756
 23
236.4095448338260042
 33
0.0
  0
INSERT
  5
481
  8
0
  2
*U47
 10
0.0
 20
0.0
 30
0.0
  0
POINT
  5
482
  8
DEFPOINTS
 62
     0
 10
430.1724803550907268
 20
159.4095448338258052
 30
0.0
  0
POINT
  5
483
  8
DEFPOINTS
 62
     0
 10
401.5764803550904958
 20
236.4095448338260042
 30
0.0
  0
POINT
  5
484
  8
DEFPOINTS
 62
     0
 10
486.8081193254208756
 20
236.4095448338260042
 30
0.0
  0
ENDBLK
  5
3F2
  8
0
  0
BLOCK
  8
0
  2
*D20
 70
     1
 10
0.0
 20
0.0
 30
0.0
  3
*D20
  1

  0
LINE
  5
485
  8
DIMENSION__ISO_
 10
436.5224803550908064
 20
159.4095448338258052
 30
0.0
 11
597.2439723232191682
 21
159.4095448338258905
 31
0.0
  0
LINE
  5
486
  8
DIMENSION__ISO_
 10
436.622480355090488
 20
261.0095448338258848
 30
0.0
 11
597.2439723232190545
 21
261.0095448338258848
 31
0.0
  0
LINE
  5
487
  8
DIMENSION__ISO_
 10
584.5439723232193501
 20
169.4095448338258905
 30
0.0
 11
584.5439723232193501
 21
200.3635811995887082
 31
0.0
  0
LINE
  5
488
  8
DIMENSION__ISO_
 10
584.5439723232193501
 20
251.0095448338259132
 30
0.0
 11
584.5439723232193501
 21
220.0555084680634081
 31
0.0
  0
SOLID
  5
489
  8
DIMENSION__ISO_
 10
582.8773056565527213
 20
169.4095448338258905
 30
0.0
 11
586.2106389898858652
 21
169.4095448338258905
 31
0.0
 12
584.5439723232193501
 22
159.4095448338258905
 32
0.0
 13
584.5439723232193501
 23
159.4095448338258905
 33
0.0
  0
SOLID
  5
48A
  8
DIMENSION__ISO_
 10
582.8773056565527213
 20
251.0095448338259132
 30
0.0
 11
586.2106389898858652
 21
251.0095448338259132
 31
0.0
 12
584.5439723232192364
 22
261.0095448338258848
 32
0.0
 13
584.5439723232192364
 23
261.0095448338258848
 33
0.0
  0
INSERT
  5
48B
  8
0
  2
*U48
 10
0.0
 20
0.0
 30
0.0
  0
POINT
  5
48C
  8
DEFPOINTS
 62
     0
 10
430.1724803550907268
 20
159.4095448338258052
 30
0.0
  0
POINT
  5
48D
  8
DEFPOINTS
 62
     0
 10
430.272480355090579
 20
261.0095448338258848
 30
0.0
  0
POINT
  5
48E
  8
DEFPOINTS
 62
     0
 10
584.5439723232192364
 20
261.0095448338258848
 30
0.0
  0
ENDBLK
  5
3FF
  8
0
  0
BLOCK
  8
0
  2
*D21
 70
     1
 10
0.0
 20
0.0
 30
0.0
  3
*D21
  1

  0
LINE
  5
48F
  8
DIMENSION__ISO_
 10
407.9264803550905754
 20
361.8095448338257825
 30
0.0
 11
499.5081193254208074
 21
361.8095448338257825
 31
0.0
  0
LINE
  5
490
  8
DIMENSION__ISO_
 10
407.9264803550905754
 20
236.4095448338260042
 30
0.0
 11
499.5081193254208074
 21
236.4095448338260042
 31
0.0
  0
LINE
  5
491
  8
DIMENSION__ISO_
 10
486.8081193254208756
 20
351.8095448338257825
 30
0.0
 11
486.8081193254208756
 21
316.2749365230811236
 31
0.0
  0
LINE
  5
492
  8
DIMENSION__ISO_
 10
486.8081193254208756
 20
246.4095448338260042
 30
0.0
 11
486.8081193254208756
 21
296.5830092546065089
 31
0.0
  0
SOLID
  5
493
  8
DIMENSION__ISO_
 10
485.14145265875419
 20
351.8095448338257825
 30
0.0
 11
488.4747859920876181
 21
351.8095448338257825
 31
0.0
 12
486.8081193254208756
 22
361.8095448338257825
 32
0.0
 13
486.8081193254208756
 23
361.8095448338257825
 33
0.0
  0
SOLID
  5
494
  8
DIMENSION__ISO_
 10
485.14145265875419
 20
246.4095448338260042
 30
0.0
 11
488.4747859920876181
 21
246.4095448338260042
 31
0.0
 12
486.8081193254208756
 22
236.4095448338260042
 32
0.0
 13
486.8081193254208756
 23
236.4095448338260042
 33
0.0
  0
INSERT
  5
495
  8
0
  2
*U49
 10
0.0
 20
0.0
 30
0.0
  0
POINT
  5
496
  8
DEFPOINTS
 62
     0
 10
401.5764803550904958
 20
361.8095448338257825
 30
0.0
  0
POINT
  5
497
  8
DEFPOINTS
 62
     0
 10
401.5764803550904958
 20
236.4095448338260042
 30
0.0
  0
POINT
  5
498
  8
DEFPOINTS
 62
     0
 10
486.8081193254208756
 20
236.4095448338260042
 30
0.0
  0
ENDBLK
  5
40C
  8
0
  0
BLOCK
  8
0
  2
*D22
 70
     1
 10
0.0
 20
0.0
 30
0.0
  3
*D22
  1

  0
LINE
  5
499
  8
DIMENSION__ISO_
 10
436.622480355090488
 20
337.2095448338258734
 30
0.0
 11
598.5361326795825789
 21
337.2095448338258734
 31
0.0
  0
LINE
  5
49A
  8
DIMENSION__ISO_
 10
436.622480355090488
 20
261.0095448338258848
 30
0.0
 11
598.5361326795825789
 21
261.0095448338258848
 31
0.0
  0
LINE
  5
49B
  8
DIMENSION__ISO_
 10
585.8361326795826471
 20
327.2095448338258734
 30
0.0
 11
585.8361326795826471
 21
303.0192184253376126
 31
0.0
  0
LINE
  5
49C
  8
DIMENSION__ISO_
 10
585.8361326795826471
 20
271.0095448338258848
 30
0.0
 11
585.8361326795826471
 21
283.3272911568628842
 31
0.0
  0
SOLID
  5
49D
  8
DIMENSION__ISO_
 10
584.1694660129160184
 20
327.2095448338258734
 30
0.0
 11
587.5027993462491622
 21
327.2095448338258734
 31
0.0
 12
585.8361326795826471
 22
337.2095448338258734
 32
0.0
 13
585.8361326795826471
 23
337.2095448338258734
 33
0.0
  0
SOLID
  5
49E
  8
DIMENSION__ISO_
 10
584.1694660129160184
 20
271.0095448338258848
 30
0.0
 11
587.5027993462491622
 21
271.0095448338258848
 31
0.0
 12
585.8361326795826471
 22
261.0095448338258848
 32
0.0
 13
585.8361326795826471
 23
261.0095448338258848
 33
0.0
  0
INSERT
  5
49F
  8
0
  2
*U50
 10
0.0
 20
0.0
 30
0.0
  0
POINT
  5
4A0
  8
DEFPOINTS
 62
     0
 10
430.272480355090579
 20
337.2095448338258734
 30
0.0
  0
POINT
  5
4A1
  8
DEFPOINTS
 62
     0
 10
430.272480355090579
 20
261.0095448338258848
 30
0.0
  0
POINT
  5
4A2
  8
DEFPOINTS
 62
     0
 10
585.8361326795826471
 20
261.0095448338258848
 30
0.0
  0
ENDBLK
  5
419
  8
0
  0
BLOCK
  8
0
  2
*D23
 70
     1
 10
0.0
 20
0.0
 30
0.0
  3
*D23
  1

  0
LINE
  5
4A3
  8
DIMENSION__ISO_
 10
436.5224803550908064
 20
159.4095448338258052
 30
0.0
 11
707.7834060930011901
 21
159.4095448338258905
 31
0.0
  0
LINE
  5
4A4
  8
DIMENSION__ISO_
 10
427.4224803550903857
 20
438.8095448338260098
 30
0.0
 11
707.7834060930009628
 21
438.8095448338261235
 31
0.0
  0
LINE
  5
4A5
  8
DIMENSION__ISO_
 10
695.0834060930011447
 20
169.4095448338258905
 30
0.0
 11
695.083406093001031
 21
289.2635811995888275
 31
0.0
  0
LINE
  5
4A6
  8
DIMENSION__ISO_
 10
695.083406093001031
 20
428.8095448338260098
 30
0.0
 11
695.083406093001031
 21
308.9555084680633854
 31
0.0
  0
SOLID
  5
4A7
  8
DIMENSION__ISO_
 10
693.4167394263345159
 20
169.4095448338258905
 30
0.0
 11
696.7500727596677734
 21
169.4095448338258905
 31
0.0
 12
695.0834060930011447
 22
159.4095448338258905
 32
0.0
 13
695.0834060930011447
 23
159.4095448338258905
 33
0.0
  0
SOLID
  5
4A8
  8
DIMENSION__ISO_
 10
693.4167394263344022
 20
428.8095448338260098
 30
0.0
 11
696.7500727596675461
 21
428.8095448338260098
 31
0.0
 12
695.083406093001031
 22
438.8095448338261235
 32
0.0
 13
695.083406093001031
 23
438.8095448338261235
 33
0.0
  0
INSERT
  5
4A9
  8
0
  2
*U51
 10
0.0
 20
0.0
 30
0.0
  0
POINT
  5
4AA
  8
DEFPOINTS
 62
     0
 10
430.1724803550907268
 20
159.4095448338258052
 30
0.0
  0
POINT
  5
4AB
  8
DEFPOINTS
 62
     0
 10
421.0724803550903061
 20
438.8095448338260098
 30
0.0
  0
POINT
  5
4AC
  8
DEFPOINTS
 62
     0
 10
695.083406093001031
 20
438.8095448338261235
 30
0.0
  0
ENDBLK
  5
426
  8
0
  0
BLOCK
  8
0
  2
*D24
 70
     1
 10
0.0
 20
0.0
 30
0.0
  3
*D24
  1

  0
LINE
  5
4AD
  8
DIMENSION__ISO_
 10
471.024144070206205
 20
460.4787128176656097
 30
0.0
 11
457.9566055280238857
 21
460.4787128176656097
 31
0.0
  0
LINE
  5
4AE
  8
DIMENSION__ISO_
 10
457.9566055280238857
 20
460.4787128176656097
 30
0.0
 11
436.2465884788770722
 21
441.8382225352503951
 31
0.0
  0
INSERT
  5
4AF
  8
0
  2
*U52
 10
0.0
 20
0.0
 30
0.0
  0
SOLID
  5
4B0
  8
DIMENSION__ISO_
 10
435.1608653370917068
 20
443.1027315455659732
 30
0.0
 11
437.3323116206624945
 21
440.5737135249347034
 31
0.0
 12
428.6595344169833766
 22
435.3238836845378046
 32
0.0
 13
428.6595344169833766
 23
435.3238836845378046
 33
0.0
  0
POINT
  5
4B1
  8
DEFPOINTS
 62
     0
 10
428.6595344169833766
 20
435.3238836845378046
 30
0.0
  0
POINT
  5
4B2
  8
DEFPOINTS
 62
     0
 10
421.0724803550896809
 20
428.8095448338253277
 30
0.0
  0
ENDBLK
  5
433
  8
0
  0
BLOCK
  8
0
  2
*D25
 70
     1
 10
0.0
 20
0.0
 30
0.0
  3
*D25
  1

  0
LINE
  5
4B3
  8
DIMENSION__ISO_
 10
246.0724803550903061
 20
163.0595448338258109
 30
0.0
 11
246.0724803550903061
 21
0.0
 31
0.0
  0
LINE
  5
4B4
  8
DIMENSION__ISO_
 10
431.0724803550904198
 20
163.0595448338258109
 30
0.0
 11
431.0724803550904198
 21
0.0
 31
0.0
  0
LINE
  5
4B5
  8
DIMENSION__ISO_
 10
256.0724803550903061
 20
12.6999999999999904
 30
0.0
 11
307.627064274627628
 21
12.6999999999999904
 31
0.0
  0
LINE
  5
4B6
  8
DIMENSION__ISO_
 10
421.0724803550903061
 20
12.6999999999999904
 30
0.0
 11
384.0485004291898008
 21
12.6999999999999904
 31
0.0
  0
SOLID
  5
4B7
  8
DIMENSION__ISO_
 10
256.0724803550903061
 20
14.3666666666666494
 30
0.0
 11
256.0724803550903061
 21
11.0333333333333208
 31
0.0
 12
246.0724803550903061
 22
12.6999999999999904
 32
0.0
 13
246.0724803550903061
 23
12.6999999999999904
 33
0.0
  0
SOLID
  5
4B8
  8
DIMENSION__ISO_
 10
421.0724803550903061
 20
14.3666666666666494
 30
0.0
 11
421.0724803550903061
 21
11.0333333333333208
 31
0.0
 12
431.0724803550904198
 22
12.6999999999999904
 32
0.0
 13
431.0724803550904198
 23
12.6999999999999904
 33
0.0
  0
INSERT
  5
4B9
  8
0
  2
*U53
 10
0.0
 20
0.0
 30
0.0
  0
POINT
  5
4BA
  8
DEFPOINTS
 62
     0
 10
246.0724803550903061
 20
169.4095448338258052
 30
0.0
  0
POINT
  5
4BB
  8
DEFPOINTS
 62
     0
 10
431.0724803550904198
 20
169.4095448338258052
 30
0.0
  0
POINT
  5
4BC
  8
DEFPOINTS
 62
     0
 10
431.0724803550904198
 20
12.6999999999999904
 30
0.0
  0
ENDBLK
  5
43C
  8
0
  0
BLOCK
  8
0
  2
*D26
 70
     1
 10
0.0
 20
0.0
 30
0.0
  3
*D26
  1

  0
LINE
  5
4BD
  8
DIMENSION__ISO_
 10
576.8328167530119117
 20
77.7111308318696672
 30
0.0
 11
563.3754817209604653
 21
77.7111308318696103
 31
0.0
  0
LINE
  5
4BE
  8
DIMENSION__ISO_
 10
563.3754817209604653
 20
77.7111308318696103
 30
0.0
 11
396.6434350878171813
 21
223.2570973398435115
 31
0.0
  0
INSERT
  5
4BF
  8
0
  2
*U54
 10
0.0
 20
0.0
 30
0.0
  0
SOLID
  5
4C0
  8
DIMENSION__ISO_
 10
397.7394723789823843
 20
224.512676900904097
 30
0.0
 11
395.5473977966519783
 21
222.0015177787828975
 31
0.0
 12
389.1099577214537817
 22
229.8333210868345873
 32
0.0
 13
389.1099577214537817
 23
229.8333210868345873
 33
0.0
  0
LINE
  5
4C1
  8
DIMENSION__ISO_
 10
381.2164803550903116
 20
236.4095448338258052
 30
0.0
 11
381.936480355090282
 21
236.4095448338258052
 31
0.0
  0
LINE
  5
4C2
  8
DIMENSION__ISO_
 10
381.5764803550903252
 20
236.0495448338257063
 30
0.0
 11
381.5764803550903252
 21
236.7695448338257052
 31
0.0
  0
POINT
  5
4C3
  8
DEFPOINTS
 62
     0
 10
389.1099577214537817
 20
229.8333210868345873
 30
0.0
  0
POINT
  5
4C4
  8
DEFPOINTS
 62
     0
 10
374.0430029887269257
 20
242.9857685808169094
 30
0.0
  0
ENDBLK
  5
449
  8
0
  0
BLOCK
  8
0
  2
*U29
 70
     1
 10
0.0
 20
0.0
 30
0.0
  3
*U29
  1

  0
TEXT
  5
61F
  8
DIMENSION__ISO_
 10
333.16504683523209
 20
769.7259707893500718
 30
0.0
 40
10.1599998474121094
  1
16.3 [0.642]
  7
MtXpl_Tahoma
  0
ENDBLK
  5
621
  8
0
  0
BLOCK
  8
0
  2
*U30
 70
     1
 10
0.0
 20
0.0
 30
0.0
  3
*U30
  1

  0
TEXT
  5
623
  8
DIMENSION__ISO_
 10
332.8597505586416219
 20
378.7198396029436935
 30
0.0
 40
10.1599998474121094
  1
49.5 [1.949]
  7
MtXpl_Tahoma
  0
ENDBLK
  5
625
  8
0
  0
BLOCK
  8
0
  2
*U31
 70
     1
 10
0.0
 20
0.0
 30
0.0
  3
*U31
  1

  0
TEXT
  5
627
  8
DIMENSION__ISO_
 10
341.5416659792140877
 20
345.3046798504645949
 30
0.0
 40
10.1599998474121094
  1
86 [3.386]
  7
MtXpl_Tahoma
  0
ENDBLK
  5
629
  8
0
  0
BLOCK
  8
0
  2
*U32
 70
     1
 10
0.0
 20
0.0
 30
0.0
  3
*U32
  1

  0
TEXT
  5
62B
  8
DIMENSION__ISO_
 10
320.8062759197418927
 20
810.6201899352126929
 30
0.0
 40
10.1599998474121094
  1
152.4 [6.000]
  7
MtXpl_Tahoma
  0
ENDBLK
  5
62D
  8
0
  0
BLOCK
  8
0
  2
*U33
 70
     1
 10
0.0
 20
0.0
 30
0.0
  3
*U33
  1

  0
TEXT
  5
62F
  8
DIMENSION__ISO_
 10
668.8493471869684299
 20
504.2971037405179118
 30
0.0
 40
10.1599998474121094
  1
77 [3.031]
  7
MtXpl_Tahoma
  0
ENDBLK
  5
631
  8
0
  0
BLOCK
  8
0
  2
*U34
 70
     1
 10
0.0
 20
0.0
 30
0.0
  3
*U34
  1

  0
TEXT
  5
633
  8
DIMENSION__ISO_
 10
756.4081419692905683
 20
510.2246798504643834
 30
0.0
 40
10.1599998474121094
  1
101.6 [4.000]
  7
MtXpl_Tahoma
  0
ENDBLK
  5
635
  8
0
  0
BLOCK
  8
0
  2
*U35
 70
     1
 10
0.0
 20
0.0
 30
0.0
  3
*U35
  1

  0
TEXT
  5
637
  8
DIMENSION__ISO_
 10
658.6722889714924349
 20
606.4441079054821557
 30
0.0
 40
10.1599998474121094
  1
125.4 [4.937]
  7
MtXpl_Tahoma
  0
ENDBLK
  5
639
  8
0
  0
BLOCK
  8
0
  2
*U36
 70
     1
 10
0.0
 20
0.0
 30
0.0
  3
*U36
  1

  0
TEXT
  5
63B
  8
DIMENSION__ISO_
 10
761.9478509304138925
 20
593.1883898077386448
 30
0.0
 40
10.1599998474121094
  1
76.2 [3.000]
  7
MtXpl_Tahoma
  0
ENDBLK
  5
63D
  8
0
  0
BLOCK
  8
0
  2
*U37
 70
     1
 10
0.0
 20
0.0
 30
0.0
  3
*U37
  1

  0
TEXT
  5
63F
  8
DIMENSION__ISO_
 10
863.5324784367928714
 20
599.1246798504645312
 30
0.0
 40
10.1599998474121094
  1
279.4 [11.000]
  7
MtXpl_Tahoma
  0
ENDBLK
  5
641
  8
0
  0
BLOCK
  8
0
  2
*U38
 70
     1
 10
0.0
 20
0.0
 30
0.0
  3
*U38
  1

  0
TEXT
  5
643
  8
DIMENSION__ISO_
 10
687.5402942975630367
 20
760.4938478343043471
 30
0.0
 40
10.1599998474121094
  1
R10.0 [R0.39]
  7
MtXpl_Tahoma
  0
ENDBLK
  5
645
  8
0
  0
BLOCK
  8
0
  2
*U39
 70
     1
 10
0.0
 20
0.0
 30
0.0
  3
*U39
  1

  0
TEXT
  5
647
  8
DIMENSION__ISO_
 10
523.6314616086963269
 20
312.715135016638726
 30
0.0
 40
10.1599998474121094
  1
185 [7.283]
  7
MtXpl_Tahoma
  0
ENDBLK
  5
649
  8
0
  0
BLOCK
  8
0
  2
*U40
 70
     1
 10
0.0
 20
0.0
 30
0.0
  3
*U40
  1

  0
TEXT
  5
64B
  8
DIMENSION__ISO_
 10
793.8131298446679693
 20
377.7852046781338231
 30
0.0
 40
10.0
  1
Ø
  7
NOTE_TEXT__ANSI_
  0
TEXT
  5
64C
  8
DIMENSION__ISO_
 10
804.6794327096065444
 20
377.7852046781338231
 30
0.0
 40
10.0
  1
20 [
  7
MtXpl_Tahoma
  0
TEXT
  5
64D
  8
DIMENSION__ISO_
 10
829.2596879144419972
 20
377.7852046781338231
 30
0.0
 40
10.0
  1
Ø
  7
MtXpl_Tahoma
  0
TEXT
  5
64E
  8
DIMENSION__ISO_
 10
840.125990779380686
 20
377.7852046781338231
 30
0.0
 40
10.0
  1
0.787] THRU X 4 PLACES
  7
MtXpl_Tahoma
  0
ENDBLK
  5
650
  8
0
  0
BLOCK
  8
0
  2
*U41
 70
     1
 10
0.0
 20
0.0
 30
0.0
  3
*U41
  1

  0
TEXT
  5
653
  8
SYMBOL__ISO_
 10
-0.2729348643183145
 20
421.0926447815081133
 30
0.0
 40
10.1600003242492605
  1
4X  
  7
MtXpl_Tahoma
  0
TEXT
  5
654
  8
SYMBOL__ISO_
 10
24.2024990934265496
 20
421.0926447815081133
 30
0.0
 40
10.1600000000000001
  1
n
  7
MtXpl_AIGDT
  0
TEXT
  5
655
  8
SYMBOL__ISO_
 10
35.9045227465145871
 20
421.0926447815081133
 30
0.0
 40
10.1600000000000001
  1
11 mm THRU
  7
MtXpl_Tahoma
  0
TEXT
  5
656
  8
SYMBOL__ISO_
 10
-0.7276215505913273
 20
403.3126430029054745
 30
0.0
 40
10.1600000000000001
  1
n
  7
MtXpl_AIGDT
  0
TEXT
  5
657
  8
SYMBOL__ISO_
 10
10.9744021024967093
 20
403.3126430029054745
 30
0.0
 40
10.1600000000000001
  1
25 mm C'SINK X 90°
  7
MtXpl_Tahoma
  0
ENDBLK
  5
659
  8
0
  0
BLOCK
  8
0
  2
*U42
 70
     1
 10
0.0
 20
0.0
 30
0.0
  3
*U42
  1

  0
SOLID
  5
65B
  8
SYMBOL__ISO_
 10
246.1893560697309056
 20
352.9584808105454954
 30
0.0
 11
252.8782088950281093
 21
345.3402772388830044
 31
0.0
 12
244.0801469559644943
 22
350.377328349818697
 32
0.0
 13
244.0801469559644943
 23
350.377328349818697
 33
0.0
  0
POLYLINE
  5
65C
  8
SYMBOL__ISO_
 66
     1
 10
0.0
 20
0.0
 30
0.0
  0
VERTEX
  5
65D
  8
SYMBOL__ISO_
 10
245.1347515128477141
 20
351.6679045801820962
 30
0.0
  0
VERTEX
  5
65E
  8
SYMBOL__ISO_
 10
153.9592996954918078
 20
426.1726449436328039
 30
0.0
  0
VERTEX
  5
65F
  8
SYMBOL__ISO_
 10
143.9592996954918078
 20
426.1726449436328039
 30
0.0
  0
SEQEND
  5
660
  8
SYMBOL__ISO_
  0
ENDBLK
  5
662
  8
0
  0
BLOCK
  8
0
  2
*U43
 70
     1
 10
0.0
 20
0.0
 30
0.0
  3
*U43
  1

  0
TEXT
  5
664
  8
DIMENSION__ISO_
 10
118.8185675764724039
 20
465.9682166213980281
 30
0.0
 40
10.1599998474121094
  1
16.3 [0.642]
  7
MtXpl_Tahoma
  0
ENDBLK
  5
666
  8
0
  0
BLOCK
  8
0
  2
*U44
 70
     1
 10
0.0
 20
0.0
 30
0.0
  3
*U44
  1

  0
TEXT
  5
668
  8
DIMENSION__ISO_
 10
118.5132712957818057
 20
74.9620854349915646
 30
0.0
 40
10.1599998474121094
  1
49.5 [1.949]
  7
MtXpl_Tahoma
  0
ENDBLK
  5
66A
  8
0
  0
BLOCK
  8
0
  2
*U45
 70
     1
 10
0.0
 20
0.0
 30
0.0
  3
*U45
  1

  0
TEXT
  5
66C
  8
DIMENSION__ISO_
 10
127.1951867554147952
 20
41.5469256825125228
 30
0.0
 40
10.1599998474121094
  1
86 [3.386]
  7
MtXpl_Tahoma
  0
ENDBLK
  5
66E
  8
0
  0
BLOCK
  8
0
  2
*U46
 70
     1
 10
0.0
 20
0.0
 30
0.0
  3
*U46
  1

  0
TEXT
  5
670
  8
DIMENSION__ISO_
 10
106.4597966363380976
 20
506.8624357672607061
 30
0.0
 40
10.1599998474121094
  1
152.4 [6.000]
  7
MtXpl_Tahoma
  0
ENDBLK
  5
672
  8
0
  0
BLOCK
  8
0
  2
*U47
 70
     1
 10
0.0
 20
0.0
 30
0.0
  3
*U47
  1

  0
TEXT
  5
674
  8
DIMENSION__ISO_
 10
454.5028679637200071
 20
200.5393495725658966
 30
0.0
 40
10.1599998474121094
  1
77 [3.031]
  7
MtXpl_Tahoma
  0
ENDBLK
  5
676
  8
0
  0
BLOCK
  8
0
  2
*U48
 70
     1
 10
0.0
 20
0.0
 30
0.0
  3
*U48
  1

  0
TEXT
  5
678
  8
DIMENSION__ISO_
 10
542.0616626858867448
 20
206.4669256825125103
 30
0.0
 40
10.1599998474121094
  1
101.6 [4.000]
  7
MtXpl_Tahoma
  0
ENDBLK
  5
67A
  8
0
  0
BLOCK
  8
0
  2
*U49
 70
     1
 10
0.0
 20
0.0
 30
0.0
  3
*U49
  1

  0
TEXT
  5
67C
  8
DIMENSION__ISO_
 10
444.3258096880886114
 20
302.6863537375302258
 30
0.0
 40
10.1599998474121094
  1
125.4 [4.937]
  7
MtXpl_Tahoma
  0
ENDBLK
  5
67E
  8
0
  0
BLOCK
  8
0
  2
*U50
 70
     1
 10
0.0
 20
0.0
 30
0.0
  3
*U50
  1

  0
TEXT
  5
680
  8
DIMENSION__ISO_
 10
547.6013716688547674
 20
289.4306356397867148
 30
0.0
 40
10.1599998474121094
  1
76.2 [3.000]
  7
MtXpl_Tahoma
  0
ENDBLK
  5
682
  8
0
  0
BLOCK
  8
0
  2
*U51
 70
     1
 10
0.0
 20
0.0
 30
0.0
  3
*U51
  1

  0
TEXT
  5
684
  8
DIMENSION__ISO_
 10
649.1859991261658251
 20
295.3669256825124876
 30
0.0
 40
10.1599998474121094
  1
279.4 [11.000]
  7
MtXpl_Tahoma
  0
ENDBLK
  5
686
  8
0
  0
BLOCK
  8
0
  2
*U52
 70
     1
 10
0.0
 20
0.0
 30
0.0
  3
*U52
  1

  0
TEXT
  5
688
  8
DIMENSION__ISO_
 10
473.193815005760996
 20
456.7360936663524171
 30
0.0
 40
10.1599998474121094
  1
R10.0 [R0.39]
  7
MtXpl_Tahoma
  0
ENDBLK
  5
68A
  8
0
  0
BLOCK
  8
0
  2
*U53
 70
     1
 10
0.0
 20
0.0
 30
0.0
  3
*U53
  1

  0
TEXT
  5
68C
  8
DIMENSION__ISO_
 10
309.2849823636033761
 20
8.9573808486866646
 30
0.0
 40
10.1599998474121094
  1
185 [7.283]
  7
MtXpl_Tahoma
  0
ENDBLK
  5
68E
  8
0
  0
BLOCK
  8
0
  2
*U54
 70
     1
 10
0.0
 20
0.0
 30
0.0
  3
*U54
  1

  0
TEXT
  5
690
  8
DIMENSION__ISO_
 10
579.4666503137212885
 20
74.0274505095056412
 30
0.0
 40
10.0
  1
Ø
  7
NOTE_TEXT__ANSI_
  0
TEXT
  5
691
  8
DIMENSION__ISO_
 10
590.3329531786598636
 20
74.0274505095056412
 30
0.0
 40
10.0
  1
20 [
  7
MtXpl_Tahoma
  0
TEXT
  5
692
  8
DIMENSION__ISO_
 10
614.9132083834953164
 20
74.0274505095056412
 30
0.0
 40
10.0
  1
Ø
  7
MtXpl_Tahoma
  0
TEXT
  5
693
  8
DIMENSION__ISO_
 10
625.7795112484337778
 20
74.0274505095056412
 30
0.0
 40
10.0
  1
0.787] THRU X 4 PLACES
  7
MtXpl_Tahoma
  0
ENDBLK
  5
695
  8
0
  0
ENDSEC
  0
SECTION
  2
ENTITIES
  0
CIRCLE
  5
4E3
  8
VISIBLE__ISO_
 10
16.2999999999998408
 20
177.8000000000000114
 30
0.0
 40
5.5
  0
CIRCLE
  5
4E4
  8
VISIBLE__ISO_
 10
16.299999999999951
 20
101.5999999999998948
 30
0.0
 40
5.5
  0
CIRCLE
  5
4E5
  8
VISIBLE__ISO_
 10
168.6999999999999034
 20
101.5999999999998948
 30
0.0
 40
5.5
  0
CIRCLE
  5
4E6
  8
VISIBLE__ISO_
 10
168.6999999999999034
 20
177.8000000000000114
 30
0.0
 40
5.5
  0
CIRCLE
  5
4E7
  8
VISIBLE__ISO_
 10
135.5039999999999907
 20
77.0000000000000568
 30
0.0
 40
10.0
  0
CIRCLE
  5
4E8
  8
VISIBLE__ISO_
 10
49.4959999999999809
 20
202.399999999999892
 30
0.0
 40
10.0
  0
CIRCLE
  5
4E9
  8
VISIBLE__ISO_
 10
135.5039999999999907
 20
202.399999999999892
 30
0.0
 40
10.0
  0
CIRCLE
  5
4EA
  8
VISIBLE__ISO_
 10
49.4959999999999809
 20
77.0000000000000568
 30
0.0
 40
10.0
  0
POLYLINE
  5
4EB
  8
VISIBLE__ISO_
 66
     1
 10
0.0
 20
0.0
 30
0.0
 70
     1
  0
VERTEX
  5
6A2
  8
VISIBLE__ISO_
 10
0.0
 20
10.0
 30
0.0
 42
0.4142135623730951
  0
VERTEX
  5
6A3
  8
VISIBLE__ISO_
 10
10.0
 20
0.0
 30
0.0
  0
VERTEX
  5
6A4
  8
VISIBLE__ISO_
 10
174.9999999999998863
 20
0.0
 30
0.0
 42
0.4142135623730951
  0
VERTEX
  5
6A5
  8
VISIBLE__ISO_
 10
185.0
 20
10.0
 30
0.0
  0
VERTEX
  5
6A6
  8
VISIBLE__ISO_
 10
184.9999999999998863
 20
269.3999999999999773
 30
0.0
 42
0.4142135623730951
  0
VERTEX
  5
6A7
  8
VISIBLE__ISO_
 10
174.9999999999998863
 20
279.3999999999999773
 30
0.0
  0
VERTEX
  5
6A8
  8
VISIBLE__ISO_
 10
10.0
 20
279.3999999999998067
 30
0.0
 42
0.4142135623730951
  0
VERTEX
  5
6A9
  8
VISIBLE__ISO_
 10
0.0
 20
269.3999999999998067
 30
0.0
  0
SEQEND
  5
6AA
  8
VISIBLE__ISO_
  0
ENDSEC
  0
EOF
