  0
SECTION
  2
HEADER
  9
$ACADVER
  1
AC1009
  9
$INSBASE
 10
0.0
 20
0.0
 30
0.0
  9
$EXTMIN
 10
-10.6473542959119793
 20
20.7384649789082687
 30
0.0
  9
$EXTMAX
 10
304.2079269849714933
 20
275.6372467410690774
 30
0.0
  9
$LIMMIN
 10
0.0
 20
0.0
  9
$LIMMAX
 10
420.0
 20
297.0
  9
$ORTHOMODE
 70
     0
  9
$REGENMODE
 70
     1
  9
$FILLMODE
 70
     1
  9
$QTEXTMODE
 70
     0
  9
$MIRRTEXT
 70
     0
  9
$DRAGMODE
 70
     2
  9
$LTSCALE
 40
1.0
  9
$OSMODE
 70
   353
  9
$ATTMODE
 70
     1
  9
$TEXTSIZE
 40
2.5
  9
$TRACEWID
 40
1.0
  9
$TEXTSTYLE
  7
STANDARD
  9
$CLAYER
  8
0
  9
$CELTYPE
  6
BYLAYER
  9
$CECOLOR
 62
   256
  9
$DIMSCALE
 40
1.0
  9
$DIMASZ
 40
2.5
  9
$DIMEXO
 40
0.625
  9
$DIMDLI
 40
3.75
  9
$DIMRND
 40
0.0
  9
$DIMDLE
 40
0.0
  9
$DIMEXE
 40
1.25
  9
$DIMTP
 40
0.0
  9
$DIMTM
 40
0.0
  9
$DIMTXT
 40
2.5
  9
$DIMCEN
 40
2.5
  9
$DIMTSZ
 40
0.0
  9
$DIMTOL
 70
     0
  9
$DIMLIM
 70
     0
  9
$DIMTIH
 70
     0
  9
$DIMTOH
 70
     0
  9
$DIMSE1
 70
     0
  9
$DIMSE2
 70
     0
  9
$DIMTAD
 70
     1
  9
$DIMZIN
 70
     8
  9
$DIMBLK
  1

  9
$DIMASO
 70
     1
  9
$DIMSHO
 70
     1
  9
$DIMPOST
  1

  9
$DIMAPOST
  1

  9
$DIMALT
 70
     0
  9
$DIMALTD
 70
     3
  9
$DIMALTF
 40
0.03937007874016
  9
$DIMLFAC
 40
1.0
  9
$DIMTOFL
 70
     1
  9
$DIMTVP
 40
0.0
  9
$DIMTIX
 70
     0
  9
$DIMSOXD
 70
     0
  9
$DIMSAH
 70
     0
  9
$DIMBLK1
  1

  9
$DIMBLK2
  1

  9
$DIMSTYLE
  2
ISO-25
  9
$DIMCLRD
 70
     0
  9
$DIMCLRE
 70
     0
  9
$DIMCLRT
 70
     0
  9
$DIMTFAC
 40
1.0
  9
$DIMGAP
 40
0.625
  9
$LUNITS
 70
     2
  9
$LUPREC
 70
     4
  9
$SKETCHINC
 40
1.0
  9
$FILLETRAD
 40
0.0
  9
$AUNITS
 70
     0
  9
$AUPREC
 70
     0
  9
$MENU
  1
.
  9
$ELEVATION
 40
0.0
  9
$PELEVATION
 40
0.0
  9
$THICKNESS
 40
0.0
  9
$LIMCHECK
 70
     0
  9
$BLIPMODE
 70
     0
  9
$CHAMFERA
 40
0.0
  9
$CHAMFERB
 40
0.0
  9
$SKPOLY
 70
     0
  9
$TDCREATE
 40
2460250.4219328709878027
  9
$TDUPDATE
 40
2460250.4245717590674758
  9
$TDINDWG
 40
0.0026388889
  9
$TDUSRTIMER
 40
0.0026388889
  9
$USRTIMER
 70
     1
  9
$ANGBASE
 50
0.0
  9
$ANGDIR
 70
     0
  9
$PDMODE
 70
     0
  9
$PDSIZE
 40
0.0
  9
$PLINEWID
 40
0.0
  9
$COORDS
 70
     1
  9
$SPLFRAME
 70
     0
  9
$SPLINETYPE
 70
     6
  9
$SPLINESEGS
 70
     8
  9
$ATTDIA
 70
     1
  9
$ATTREQ
 70
     1
  9
$HANDLING
 70
     1
  9
$HANDSEED
  5
53C
  9
$SURFTAB1
 70
     6
  9
$SURFTAB2
 70
     6
  9
$SURFTYPE
 70
     6
  9
$SURFU
 70
     6
  9
$SURFV
 70
     6
  9
$UCSNAME
  2

  9
$UCSORG
 10
0.0
 20
0.0
 30
0.0
  9
$UCSXDIR
 10
1.0
 20
0.0
 30
0.0
  9
$UCSYDIR
 10
0.0
 20
1.0
 30
0.0
  9
$PUCSNAME
  2

  9
$PUCSORG
 10
0.0
 20
0.0
 30
0.0
  9
$PUCSXDIR
 10
1.0
 20
0.0
 30
0.0
  9
$PUCSYDIR
 10
0.0
 20
1.0
 30
0.0
  9
$USERI1
 70
     0
  9
$USERI2
 70
     0
  9
$USERI3
 70
     0
  9
$USERI4
 70
     0
  9
$USERI5
 70
     0
  9
$USERR1
 40
0.0
  9
$USERR2
 40
0.0
  9
$USERR3
 40
0.0
  9
$USERR4
 40
0.0
  9
$USERR5
 40
0.0
  9
$WORLDVIEW
 70
     1
  9
$SHADEDGE
 70
     3
  9
$SHADEDIF
 70
    70
  9
$TILEMODE
 70
     1
  9
$MAXACTVP
 70
    64
  9
$PLIMCHECK
 70
     0
  9
$PEXTMIN
 10
0.0
 20
0.0
 30
0.0
  9
$PEXTMAX
 10
0.0
 20
0.0
 30
0.0
  9
$PLIMMIN
 10
0.0
 20
0.0
  9
$PLIMMAX
 10
12.0
 20
9.0
  9
$UNITMODE
 70
     0
  9
$VISRETAIN
 70
     1
  9
$PLINEGEN
 70
     0
  9
$PSLTSCALE
 70
     1
  0
ENDSEC
  0
SECTION
  2
TABLES
  0
TABLE
  2
VPORT
 70
     1
  0
VPORT
  2
*ACTIVE
 70
     0
 10
0.0
 20
0.0
 11
1.0
 21
1.0
 12
153.4795596071548118
 22
139.9025844488650989
 13
0.0
 23
0.0
 14
10.0
 24
10.0
 15
10.0
 25
10.0
 16
0.0
 26
0.0
 36
1.0
 17
0.0
 27
0.0
 37
0.0
 40
293.3674411551201047
 41
2.2252042007001158
 42
50.0
 43
0.0
 44
0.0
 50
0.0
 51
0.0
 71
     0
 72
  1000
 73
     1
 74
     3
 75
     0
 76
     1
 77
     0
 78
     0
  0
ENDTAB
  0
TABLE
  2
LTYPE
 70
     3
  0
LTYPE
  2
CONTINUOUS
 70
     0
  3
Solid line
 72
    65
 73
     0
 40
0.0
  0
LTYPE
  2
HIDDEN
 70
     0
  3
Hidden __ __ __ __ __ __ __ __ __ __ __ __ __ __
 72
    65
 73
     2
 40
1.905
 49
1.27
 49
-0.635
  0
ENDTAB
  0
TABLE
  2
LAYER
 70
     3
  0
LAYER
  2
0
 70
     0
 62
     7
  6
CONTINUOUS
  0
LAYER
  2
CONTORNO
 70
     0
 62
     7
  6
CONTINUOUS
  0
LAYER
  2
DEFPOINTS
 70
     0
 62
     7
  6
CONTINUOUS
  0
ENDTAB
  0
TABLE
  2
STYLE
 70
     5
  0
STYLE
  2
STANDARD
 70
     0
 40
0.0
 41
1.0
 50
0.0
 71
     0
 42
2.5
  3
txt
  4

  0
STYLE
  2
ANNOTATIVE
 70
     0
 40
0.0
 41
1.0
 50
0.0
 71
     0
 42
2.5
  3
txt
  4

  0
STYLE
  2
SLDTEXTSTYLE1
 70
     0
 40
0.0
 41
0.75
 50
0.0
 71
     0
 42
7.1966666666666663
  3
TXT
  4

  0
STYLE
  2
SLDTEXTSTYLE7
 70
     0
 40
0.0
 41
0.6666666666666666
 50
0.0
 71
     0
 42
7.1966666666666663
  3
TXT
  4

  0
STYLE
  2
MtXpl_GDT
 70
     0
 40
0.0
 41
1.0
 50
0.0
 71
     0
 42
2.5
  3
txt
  4

  0
ENDTAB
  0
TABLE
  2
VIEW
 70
     0
  0
ENDTAB
  0
TABLE
  2
UCS
 70
     0
  0
ENDTAB
  0
TABLE
  2
APPID
 70
     9
  0
APPID
  2
ACAD
 70
     0
  0
APPID
  2
ACAD_PSEXT
 70
     0
  0
APPID
  2
ACADANNOPO
 70
     0
  0
APPID
  2
ACADANNOTATIVE
 70
     0
  0
APPID
  2
ACAD_DSTYLE_DIMJAG
 70
     0
  0
APPID
  2
ACAD_DSTYLE_DIMTALN
 70
     0
  0
APPID
  2
ACAD_MLEADERVER
 70
     0
  0
APPID
  2
ACAD_NAV_VCDISPLAY
 70
     0
  0
APPID
  2
ACAD_EXEMPT_FROM_CAD_STANDARDS
 70
     0
  0
ENDTAB
  0
TABLE
  2
DIMSTYLE
 70
     7
  0
DIMSTYLE
  2
STANDARD
 70
     0
  3

  4

  5

  6

  7

 40
1.0
 41
0.18
 42
0.0625
 43
0.38
 44
0.18
 45
0.0
 46
0.0
 47
0.0
 48
0.0
140
0.18
141
0.09
142
0.0
143
25.3999999999999986
144
1.0
145
0.0
146
1.0
147
0.09
 71
     0
 72
     0
 73
     1
 74
     1
 75
     0
 76
     0
 77
     0
 78
     0
170
     0
171
     2
172
     0
173
     0
174
     0
175
     0
176
     0
177
     0
178
     0
  0
DIMSTYLE
  2
ANNOTATIVE
 70
     0
  3

  4

  5

  6

  7

 40
0.0
 41
2.5
 42
0.625
 43
3.75
 44
1.25
 45
0.0
 46
0.0
 47
0.0
 48
0.0
140
2.5
141
2.5
142
0.0
143
0.03937007874016
144
1.0
145
0.0
146
1.0
147
0.625
 71
     0
 72
     0
 73
     0
 74
     0
 75
     0
 76
     0
 77
     1
 78
     8
170
     0
171
     3
172
     1
173
     0
174
     0
175
     0
176
     0
177
     0
178
     0
  0
DIMSTYLE
  2
ISO-25
 70
     0
  3

  4

  5

  6

  7

 40
1.0
 41
2.5
 42
0.625
 43
3.75
 44
1.25
 45
0.0
 46
0.0
 47
0.0
 48
0.0
140
2.5
141
2.5
142
0.0
143
0.03937007874016
144
1.0
145
0.0
146
1.0
147
0.625
 71
     0
 72
     0
 73
     0
 74
     0
 75
     0
 76
     0
 77
     1
 78
     8
170
     0
171
     3
172
     1
173
     0
174
     0
175
     0
176
     0
177
     0
178
     0
  0
DIMSTYLE
  2
SLDDIMSTYLE0
 70
     0
  3

  4

  5

  6

  7

 40
1.0
 41
5.6133999999999986
 42
0.0625
 43
0.38
 44
0.0
 45
0.000000001
 46
0.0
 47
0.0
 48
0.0
140
5.3974999999999991
141
0.09
142
0.0
143
25.3999999999999986
144
1.0
145
0.0
146
1.0
147
1.3493749999999991
 71
     0
 72
     0
 73
     0
 74
     0
 75
     0
 76
     0
 77
     1
 78
    12
170
     0
171
     2
172
     0
173
     1
174
     0
175
     0
176
     0
177
     0
178
     0
  0
DIMSTYLE
  2
SLDDIMSTYLE1
 70
     0
  3

  4

  5

  6

  7

 40
1.0
 41
5.6133999999999986
 42
0.0625
 43
0.38
 44
0.0
 45
0.000000001
 46
0.0
 47
0.0
 48
0.0
140
5.3974999999999991
141
0.09
142
0.0
143
25.3999999999999986
144
1.0
145
0.0
146
1.0
147
1.3493749999999991
 71
     0
 72
     0
 73
     0
 74
     0
 75
     0
 76
     0
 77
     1
 78
    12
170
     0
171
     2
172
     1
173
     1
174
     0
175
     0
176
     0
177
     0
178
     0
  0
DIMSTYLE
  2
SLDDIMSTYLE3
 70
     0
  3

  4

  5

  6

  7

 40
1.0
 41
5.6133999999999986
 42
0.0625
 43
0.38
 44
0.0
 45
0.000000001
 46
0.0
 47
0.0
 48
0.0
140
5.3974999999999991
141
0.0
142
0.0
143
25.3999999999999986
144
1.0
145
0.0
146
1.0
147
1.3493749999999991
 71
     0
 72
     0
 73
     1
 74
     1
 75
     0
 76
     0
 77
     0
 78
    12
170
     0
171
     2
172
     0
173
     1
174
     0
175
     0
176
     0
177
     0
178
     0
  0
ENDTAB
  0
ENDSEC
  0
SECTION
  2
BLOCKS
  0
BLOCK
  8
0
  2
$MODEL_SPACE
 70
     0
 10
0.0
 20
0.0
 30
0.0
  3
$MODEL_SPACE
  1

  0
ENDBLK
  5
21
  8
0
  0
BLOCK
 67
     1
  8
0
  2
$PAPER_SPACE
 70
     0
 10
0.0
 20
0.0
 30
0.0
  3
$PAPER_SPACE
  1

  0
ENDBLK
  5
D5
 67
     1
  8
0
  0
BLOCK
  8
0
  2
_D_15
 70
     0
 10
0.0
 20
0.0
 30
0.0
  3
_D_15
  1

  0
SOLID
  5
297
  8
CONTORNO
 10
175.0018546747002119
 20
279.1783013420296129
 30
0.0
 11
175.0492031688330883
 21
273.4990564415077188
 31
0.0
 12
176.7540699137699107
 22
273.7759124004618911
 32
0.0
 13
176.7540699137699107
 23
273.7759124004618911
 33
0.0
  0
LINE
  5
298
  8
CONTORNO
 10
175.0018546747002119
 20
279.1783013420296129
 30
0.0
 11
181.9092848264585882
 21
236.6426521069957118
 31
0.0
  0
LINE
  5
299
  8
CONTORNO
 10
181.9092848264585882
 20
236.6426521069957118
 30
0.0
 11
275.5069155614983174
 21
236.6426521069957118
 31
0.0
  0
INSERT
  5
29A
  8
0
  2
*U28
 10
0.0
 20
0.0
 30
0.0
  0
INSERT
  5
29B
  8
0
  2
*U29
 10
0.0
 20
0.0
 30
0.0
  0
INSERT
  5
29C
  8
0
  2
*U30
 10
0.0
 20
0.0
 30
0.0
  0
INSERT
  5
29D
  8
CONTORNO
  2
SW_SYMBOL_HOLE_SPOT
 10
205.8691780451844977
 20
237.3911327606840018
 30
0.0
 41
0.00405556640625
 42
0.00405556640625
 43
0.00405556640625
  0
INSERT
  5
29E
  8
0
  2
*U31
 10
0.0
 20
0.0
 30
0.0
  0
INSERT
  5
29F
  8
0
  2
*U32
 10
0.0
 20
0.0
 30
0.0
  0
INSERT
  5
2A0
  8
CONTORNO
  2
SW_SYMBOL_HOLE_DEPTH
 10
240.5501165796231078
 20
237.3911327606840018
 30
0.0
 41
0.00405556640625
 42
0.00405556640625
 43
0.00405556640625
  0
INSERT
  5
2A1
  8
0
  2
*U33
 10
0.0
 20
0.0
 30
0.0
  0
ENDBLK
  5
2A2
  8
0
  0
BLOCK
  8
0
  2
SW_SYMBOL_HOLE_SPOT
 70
     0
 10
0.0
 20
0.0
 30
0.0
  3
SW_SYMBOL_HOLE_SPOT
  1

  0
LINE
  5
2A5
  8
CONTORNO
 62
     0
 10
0.0
 20
1487.5
 30
0.0
 11
0.0
 21
127.5
 31
0.0
  0
LINE
  5
2A6
  8
CONTORNO
 62
     0
 10
0.0
 20
127.5
 30
0.0
 11
2720.0
 21
127.5
 31
0.0
  0
LINE
  5
2A7
  8
CONTORNO
 62
     0
 10
2720.0
 20
127.5
 30
0.0
 11
2720.0
 21
1487.5
 31
0.0
  0
ENDBLK
  5
2A8
  8
0
  0
BLOCK
  8
0
  2
SW_SYMBOL_HOLE_DEPTH
 70
     0
 10
0.0
 20
0.0
 30
0.0
  3
SW_SYMBOL_HOLE_DEPTH
  1

  0
LINE
  5
2AB
  8
CONTORNO
 62
     0
 10
0.0
 20
1487.5
 30
0.0
 11
1360.0
 21
1487.5
 31
0.0
  0
LINE
  5
2AC
  8
CONTORNO
 62
     0
 10
680.0
 20
1487.5
 30
0.0
 11
680.0
 21
127.5
 31
0.0
  0
LINE
  5
2AD
  8
CONTORNO
 62
     0
 10
170.0
 20
943.5
 30
0.0
 11
680.0
 21
127.5
 31
0.0
  0
LINE
  5
2AE
  8
CONTORNO
 62
     0
 10
1190.0
 20
943.5
 30
0.0
 11
680.0
 21
127.5
 31
0.0
  0
ENDBLK
  5
2AF
  8
0
  0
BLOCK
  8
0
  2
_D_16
 70
     0
 10
0.0
 20
0.0
 30
0.0
  3
_D_16
  1

  0
SOLID
  5
2B2
  8
CONTORNO
 10
304.1978905361651186
 20
303.6071845617797749
 30
0.0
 11
305.0614905361650813
 21
309.2205845617797877
 31
0.0
 12
303.3342905361650992
 22
309.2205845617797877
 32
0.0
 13
303.3342905361650992
 23
309.2205845617797877
 33
0.0
  0
SOLID
  5
2B3
  8
CONTORNO
 10
304.1978905361651186
 20
403.6071845617797749
 30
0.0
 11
303.3342905361650992
 21
397.9937845617798189
 31
0.0
 12
305.0614905361650813
 22
397.9937845617798189
 32
0.0
 13
305.0614905361650813
 23
397.9937845617798189
 33
0.0
  0
LINE
  5
2B4
  8
CONTORNO
 10
175.8202498957238049
 20
303.6071845617797749
 30
0.0
 11
305.897890536165221
 21
303.6071845617797749
 31
0.0
  0
LINE
  5
2B5
  8
CONTORNO
 10
203.3202498957236912
 20
403.6071845617797749
 30
0.0
 11
305.897890536165221
 21
403.6071845617797749
 31
0.0
  0
LINE
  5
2B6
  8
CONTORNO
 10
304.1978905361651186
 20
303.6071845617797749
 30
0.0
 11
304.1978905361651186
 21
403.6071845617797749
 31
0.0
  0
INSERT
  5
2B7
  8
0
  2
*U34
 10
0.0
 20
0.0
 30
0.0
  0
ENDBLK
  5
2B8
  8
0
  0
BLOCK
  8
0
  2
_D_17
 70
     0
 10
0.0
 20
0.0
 30
0.0
  3
_D_17
  1

  0
SOLID
  5
2BB
  8
CONTORNO
 10
174.1202498957237879
 20
425.8269794972907789
 30
0.0
 11
168.5068498957236898
 21
426.6905794972907984
 31
0.0
 12
168.5068498957236898
 22
424.9633794972908163
 32
0.0
 13
168.5068498957236898
 23
424.9633794972908163
 33
0.0
  0
SOLID
  5
2BC
  8
CONTORNO
 10
196.6202498957237879
 20
425.8269794972907789
 30
0.0
 11
202.2336498957238859
 21
424.9633794972908163
 31
0.0
 12
202.2336498957238859
 22
426.6905794972907984
 32
0.0
 13
202.2336498957238859
 23
426.6905794972907984
 33
0.0
  0
LINE
  5
2BD
  8
CONTORNO
 10
174.1202498957237879
 20
305.3071845617798203
 30
0.0
 11
174.1202498957237879
 21
427.5269794972908244
 31
0.0
  0
LINE
  5
2BE
  8
CONTORNO
 10
196.6202498957237879
 20
405.3071845617798203
 30
0.0
 11
196.6202498957237879
 21
427.5269794972908244
 31
0.0
  0
LINE
  5
2BF
  8
CONTORNO
 10
174.1202498957237879
 20
425.8269794972907789
 30
0.0
 11
163.3252498957238004
 21
425.8269794972907789
 31
0.0
  0
LINE
  5
2C0
  8
CONTORNO
 10
174.1202498957237879
 20
425.8269794972907789
 30
0.0
 11
196.6202498957237879
 21
425.8269794972907789
 31
0.0
  0
LINE
  5
2C1
  8
CONTORNO
 10
196.6202498957237879
 20
425.8269794972907789
 30
0.0
 11
207.415249895723889
 21
425.8269794972907789
 31
0.0
  0
INSERT
  5
2C2
  8
0
  2
*U35
 10
0.0
 20
0.0
 30
0.0
  0
ENDBLK
  5
2C3
  8
0
  0
BLOCK
  8
0
  2
_D_19
 70
     0
 10
0.0
 20
0.0
 30
0.0
  3
_D_19
  1

  0
SOLID
  5
2C6
  8
CONTORNO
 10
174.1202498957237879
 20
179.585940068925197
 30
0.0
 11
179.7336498957238007
 21
178.7223400689252912
 31
0.0
 12
179.7336498957238007
 22
180.4495400689253017
 32
0.0
 13
179.7336498957238007
 23
180.4495400689253017
 33
0.0
  0
SOLID
  5
2C7
  8
CONTORNO
 10
274.1202498957238731
 20
179.585940068925197
 30
0.0
 11
268.5068498957239171
 21
180.4495400689253017
 31
0.0
 12
268.5068498957239171
 22
178.7223400689252912
 32
0.0
 13
268.5068498957239171
 23
178.7223400689252912
 33
0.0
  0
LINE
  5
2C8
  8
CONTORNO
 10
174.1202498957237879
 20
301.9071845617797862
 30
0.0
 11
174.1202498957237879
 21
177.8859400689252936
 31
0.0
  0
LINE
  5
2C9
  8
CONTORNO
 10
274.1202498957238731
 20
279.4071845617797862
 30
0.0
 11
274.1202498957238731
 21
177.8859400689252936
 31
0.0
  0
LINE
  5
2CA
  8
CONTORNO
 10
174.1202498957237879
 20
179.585940068925197
 30
0.0
 11
274.1202498957238731
 21
179.585940068925197
 31
0.0
  0
INSERT
  5
2CB
  8
0
  2
*U36
 10
0.0
 20
0.0
 30
0.0
  0
ENDBLK
  5
2CC
  8
0
  0
BLOCK
  8
0
  2
_D_20
 70
     0
 10
0.0
 20
0.0
 30
0.0
  3
_D_20
  1

  0
SOLID
  5
2CF
  8
CONTORNO
 10
56.378495588967759
 20
303.6071845617797749
 30
0.0
 11
55.5148955889677609
 21
297.9937845617797052
 31
0.0
 12
57.2420955889677572
 22
297.9937845617797052
 32
0.0
 13
57.2420955889677572
 23
297.9937845617797052
 33
0.0
  0
SOLID
  5
2D0
  8
CONTORNO
 10
56.378495588967759
 20
203.6071845617798033
 30
0.0
 11
57.2420955889677572
 21
209.2205845617797877
 31
0.0
 12
55.5148955889677609
 22
209.2205845617797877
 32
0.0
 13
55.5148955889677609
 23
209.2205845617797877
 33
0.0
  0
LINE
  5
2D1
  8
CONTORNO
 10
172.4202498957237992
 20
303.6071845617797749
 30
0.0
 11
54.6784955889677704
 21
303.6071845617797749
 31
0.0
  0
LINE
  5
2D2
  8
CONTORNO
 10
149.9202498957239129
 20
203.6071845617798033
 30
0.0
 11
54.6784955889677704
 21
203.6071845617798033
 31
0.0
  0
LINE
  5
2D3
  8
CONTORNO
 10
56.378495588967759
 20
303.6071845617797749
 30
0.0
 11
56.378495588967759
 21
203.6071845617798033
 31
0.0
  0
INSERT
  5
2D4
  8
0
  2
*U37
 10
0.0
 20
0.0
 30
0.0
  0
ENDBLK
  5
2D5
  8
0
  0
BLOCK
  8
0
  2
_D_21
 70
     0
 10
0.0
 20
0.0
 30
0.0
  3
_D_21
  1

  0
SOLID
  5
2D8
  8
CONTORNO
 10
174.1202498957237879
 20
425.8269794972910063
 30
0.0
 11
168.5068498957236898
 21
426.6905794972910826
 31
0.0
 12
168.5068498957236898
 22
424.9633794972909868
 32
0.0
 13
168.5068498957236898
 23
424.9633794972909868
 33
0.0
  0
SOLID
  5
2D9
  8
CONTORNO
 10
74.1202498957238305
 20
425.8269794972910063
 30
0.0
 11
79.7336498957238291
 21
424.9633794972909868
 31
0.0
 12
79.7336498957238291
 22
426.6905794972910826
 32
0.0
 13
79.7336498957238291
 23
426.6905794972910826
 33
0.0
  0
LINE
  5
2DA
  8
CONTORNO
 10
174.1202498957237879
 20
305.3071845617798203
 30
0.0
 11
174.1202498957237879
 21
427.5269794972909949
 31
0.0
  0
LINE
  5
2DB
  8
CONTORNO
 10
74.1202498957238305
 20
327.8071845617802182
 30
0.0
 11
74.1202498957238305
 21
427.5269794972909949
 31
0.0
  0
LINE
  5
2DC
  8
CONTORNO
 10
174.1202498957237879
 20
425.8269794972910063
 30
0.0
 11
74.1202498957238305
 21
425.8269794972910063
 31
0.0
  0
INSERT
  5
2DD
  8
0
  2
*U38
 10
0.0
 20
0.0
 30
0.0
  0
ENDBLK
  5
2DE
  8
0
  0
BLOCK
  8
0
  2
_D_22
 70
     0
 10
0.0
 20
0.0
 30
0.0
  3
_D_22
  1

  0
SOLID
  5
2E1
  8
CONTORNO
 10
56.378495588967759
 20
303.6071845617797749
 30
0.0
 11
57.2420955889677572
 21
309.2205845617797877
 31
0.0
 12
55.5148955889677609
 22
309.2205845617797877
 32
0.0
 13
55.5148955889677609
 23
309.2205845617797877
 33
0.0
  0
SOLID
  5
2E2
  8
CONTORNO
 10
56.378495588967759
 20
326.1071845617801728
 30
0.0
 11
55.5148955889677609
 21
320.4937845617802168
 31
0.0
 12
57.2420955889677572
 22
320.4937845617802168
 32
0.0
 13
57.2420955889677572
 23
320.4937845617802168
 33
0.0
  0
LINE
  5
2E3
  8
CONTORNO
 10
172.4202498957237992
 20
303.6071845617797749
 30
0.0
 11
54.6784955889677704
 21
303.6071845617797749
 31
0.0
  0
LINE
  5
2E4
  8
CONTORNO
 10
72.4202498957238134
 20
326.1071845617801728
 30
0.0
 11
54.6784955889677704
 21
326.1071845617801728
 31
0.0
  0
LINE
  5
2E5
  8
CONTORNO
 10
56.378495588967759
 20
303.6071845617797749
 30
0.0
 11
56.378495588967759
 21
326.1071845617801728
 31
0.0
  0
INSERT
  5
2E6
  8
0
  2
*U39
 10
0.0
 20
0.0
 30
0.0
  0
ENDBLK
  5
2E7
  8
0
  0
BLOCK
  8
0
  2
_D_23
 70
     0
 10
0.0
 20
0.0
 30
0.0
  3
_D_23
  1

  0
SOLID
  5
2EA
  8
CONTORNO
 10
174.1202498957237879
 20
179.585940068925197
 30
0.0
 11
179.7336498957238007
 21
178.7223400689252912
 31
0.0
 12
179.7336498957238007
 22
180.4495400689253017
 32
0.0
 13
179.7336498957238007
 23
180.4495400689253017
 33
0.0
  0
SOLID
  5
2EB
  8
CONTORNO
 10
151.6202498957237879
 20
179.585940068925197
 30
0.0
 11
146.0068498957238035
 21
180.4495400689253017
 31
0.0
 12
146.0068498957238035
 22
178.7223400689252912
 32
0.0
 13
146.0068498957238035
 23
178.7223400689252912
 33
0.0
  0
LINE
  5
2EC
  8
CONTORNO
 10
174.1202498957237879
 20
301.9071845617797862
 30
0.0
 11
174.1202498957237879
 21
177.8859400689252936
 31
0.0
  0
LINE
  5
2ED
  8
CONTORNO
 10
151.6202498957237879
 20
201.907184561779701
 30
0.0
 11
151.6202498957237879
 21
177.8859400689252936
 31
0.0
  0
LINE
  5
2EE
  8
CONTORNO
 10
174.1202498957237879
 20
179.585940068925197
 30
0.0
 11
184.9152498957238038
 21
179.585940068925197
 31
0.0
  0
LINE
  5
2EF
  8
CONTORNO
 10
174.1202498957237879
 20
179.585940068925197
 30
0.0
 11
151.6202498957237879
 21
179.585940068925197
 31
0.0
  0
LINE
  5
2F0
  8
CONTORNO
 10
151.6202498957237879
 20
179.585940068925197
 30
0.0
 11
140.8252498957239141
 21
179.585940068925197
 31
0.0
  0
INSERT
  5
2F1
  8
0
  2
*U40
 10
0.0
 20
0.0
 30
0.0
  0
ENDBLK
  5
2F2
  8
0
  0
BLOCK
  8
0
  2
_D_24
 70
     0
 10
0.0
 20
0.0
 30
0.0
  3
_D_24
  1

  0
SOLID
  5
2F5
  8
CONTORNO
 10
304.1978905361651186
 20
303.6071845617797749
 30
0.0
 11
305.0614905361650813
 21
309.2205845617797877
 31
0.0
 12
303.3342905361649855
 22
309.2205845617797877
 32
0.0
 13
303.3342905361649855
 23
309.2205845617797877
 33
0.0
  0
SOLID
  5
2F6
  8
CONTORNO
 10
304.1978905361651186
 20
281.1071845617797749
 30
0.0
 11
303.3342905361649855
 21
275.4937845617797052
 31
0.0
 12
305.0614905361650813
 22
275.4937845617797052
 32
0.0
 13
305.0614905361650813
 23
275.4937845617797052
 33
0.0
  0
LINE
  5
2F7
  8
CONTORNO
 10
175.8202498957238049
 20
303.6071845617797749
 30
0.0
 11
305.8978905361651073
 21
303.6071845617797749
 31
0.0
  0
LINE
  5
2F8
  8
CONTORNO
 10
275.8202498957238049
 20
281.1071845617797749
 30
0.0
 11
305.8978905361651073
 21
281.1071845617797749
 31
0.0
  0
LINE
  5
2F9
  8
CONTORNO
 10
304.1978905361651186
 20
303.6071845617797749
 30
0.0
 11
304.1978905361651186
 21
314.4021845617797908
 31
0.0
  0
LINE
  5
2FA
  8
CONTORNO
 10
304.1978905361651186
 20
303.6071845617797749
 30
0.0
 11
304.1978905361651186
 21
281.1071845617797749
 31
0.0
  0
LINE
  5
2FB
  8
CONTORNO
 10
304.1978905361651186
 20
281.1071845617797749
 30
0.0
 11
304.1978905361651186
 21
270.3121845617797021
 31
0.0
  0
INSERT
  5
2FC
  8
0
  2
*U41
 10
0.0
 20
0.0
 30
0.0
  0
ENDBLK
  5
2FD
  8
0
  0
BLOCK
  8
0
  2
SW_CENTERMARKSYMBOL_5
 70
     0
 10
0.0
 20
0.0
 30
0.0
  3
SW_CENTERMARKSYMBOL_5
  1

  0
ARC
  5
300
  8
CONTORNO
 62
     0
 10
0.000000000000118
 20
18.9999999999999893
 30
0.0
 40
19.0000000000000107
 50
270.0000000000005116
 51
277.5389183569848797
  0
ARC
  5
301
  8
CONTORNO
 62
     0
 10
0.000000000000118
 20
18.9999999999999893
 30
0.0
 40
18.9999999999999893
 50
262.4610816430159161
 51
270.0000000000005116
  0
ARC
  5
302
  8
CONTORNO
 62
     0
 10
0.000000000000118
 20
18.9999999999999893
 30
0.0
 40
18.9999999999999893
 50
0.0000000000006616
 51
7.5389183569844516
  0
ARC
  5
303
  8
CONTORNO
 62
     0
 10
0.000000000000118
 20
18.9999999999999893
 30
0.0
 40
18.9999999999999893
 50
352.461081643016314
 51
0.0000000000006616
  0
ARC
  5
304
  8
CONTORNO
 62
     0
 10
0.000000000000118
 20
18.9999999999999893
 30
0.0
 40
19.0000000000000284
 50
179.9999999999996021
 51
187.5389183569847944
  0
ARC
  5
305
  8
CONTORNO
 62
     0
 10
0.000000000000118
 20
18.9999999999999893
 30
0.0
 40
19.0000000000000284
 50
172.4610816430150066
 51
179.9999999999996021
  0
ARC
  5
306
  8
CONTORNO
 62
     0
 10
0.000000000000118
 20
18.9999999999999893
 30
0.0
 40
18.9999999999999893
 50
89.9999999999993605
 51
97.5389183569838849
  0
ARC
  5
307
  8
CONTORNO
 62
     0
 10
0.000000000000118
 20
18.9999999999999893
 30
0.0
 40
19.0
 50
82.4610816430148503
 51
89.9999999999993605
  0
ARC
  5
308
  8
CONTORNO
 62
     0
 10
0.000000000000118
 20
18.9999999999999893
 30
0.0
 40
19.0000000000000284
 50
105.0778367139683951
 51
164.9221632860304965
  0
ARC
  5
309
  8
CONTORNO
 62
     0
 10
0.000000000000118
 20
18.9999999999999893
 30
0.0
 40
19.0000000000000284
 50
195.0778367139691909
 51
254.9221632860314912
  0
ARC
  5
30A
  8
CONTORNO
 62
     0
 10
0.000000000000118
 20
18.9999999999999893
 30
0.0
 40
19.0
 50
285.0778367139694751
 51
344.9221632860317186
  0
ARC
  5
30B
  8
CONTORNO
 62
     0
 10
0.000000000000118
 20
18.9999999999999893
 30
0.0
 40
19.0
 50
15.07783671396896
 51
74.9221632860303117
  0
LINE
  5
30C
  8
CONTORNO
 62
     0
 10
0.0
 20
0.0
 30
0.0
 11
-0.0000000000000236
 21
-2.4999999999999911
 31
0.0
  0
LINE
  5
30D
  8
CONTORNO
 62
     0
 10
0.0
 20
0.0
 30
0.0
 11
0.0000000000000236
 21
2.4999999999999911
 31
0.0
  0
LINE
  5
30E
  8
CONTORNO
 62
     0
 10
-0.0000000000000236
 20
-5.0000000000000293
 30
0.0
 11
-0.0000000000000472
 21
-7.9999999999999902
 31
0.0
  0
LINE
  5
30F
  8
CONTORNO
 62
     0
 10
0.0000000000000236
 20
4.9999999999999822
 30
0.0
 11
0.0000000000000472
 21
7.9999999999999902
 31
0.0
  0
LINE
  5
310
  8
CONTORNO
 62
     0
 10
0.000000000000118
 20
18.9999999999999893
 30
0.0
 11
0.000000000000118
 21
21.4999999999999787
 31
0.0
  0
LINE
  5
311
  8
CONTORNO
 62
     0
 10
0.000000000000118
 20
18.9999999999999893
 30
0.0
 11
-2.4999999999998721
 21
18.9999999999999893
 31
0.0
  0
LINE
  5
312
  8
CONTORNO
 62
     0
 10
0.000000000000118
 20
18.9999999999999893
 30
0.0
 11
0.000000000000118
 21
16.4999999999999893
 31
0.0
  0
LINE
  5
313
  8
CONTORNO
 62
     0
 10
0.000000000000118
 20
18.9999999999999893
 30
0.0
 11
2.5000000000001319
 21
18.9999999999999893
 31
0.0
  0
LINE
  5
314
  8
CONTORNO
 62
     0
 10
0.000000000000118
 20
23.9999999999999716
 30
0.0
 11
0.000000000000118
 21
40.4999999999999716
 31
0.0
  0
LINE
  5
315
  8
CONTORNO
 62
     0
 10
-4.9999999999998641
 20
18.9999999999999893
 30
0.0
 11
-21.4999999999998614
 21
18.9999999999999893
 31
0.0
  0
LINE
  5
316
  8
CONTORNO
 62
     0
 10
0.000000000000118
 20
14.0000000000000107
 30
0.0
 11
0.000000000000118
 21
-2.4999999999999911
 31
0.0
  0
LINE
  5
317
  8
CONTORNO
 62
     0
 10
5.0000000000001226
 20
18.9999999999999893
 30
0.0
 11
21.5000000000001208
 21
18.9999999999999893
 31
0.0
  0
LINE
  5
318
  8
CONTORNO
 62
     0
 10
19.0000000000001101
 20
18.9999999999999396
 30
0.0
 11
21.5000000000000995
 21
18.9999999999999396
 31
0.0
  0
LINE
  5
319
  8
CONTORNO
 62
     0
 10
19.0000000000001101
 20
18.9999999999999396
 30
0.0
 11
16.5000000000000888
 21
18.9999999999999396
 31
0.0
  0
LINE
  5
31A
  8
CONTORNO
 62
     0
 10
24.0000000000000888
 20
18.9999999999999396
 30
0.0
 11
27.0000000000000995
 21
18.9999999999999396
 31
0.0
  0
LINE
  5
31B
  8
CONTORNO
 62
     0
 10
14.0000000000000995
 20
18.9999999999999893
 30
0.0
 11
11.0000000000000906
 21
18.9999999999999893
 31
0.0
  0
LINE
  5
31C
  8
CONTORNO
 62
     0
 10
-18.9999999999999183
 20
19.0000000000001315
 30
0.0
 11
-21.4999999999999112
 21
19.0000000000001812
 31
0.0
  0
LINE
  5
31D
  8
CONTORNO
 62
     0
 10
-18.9999999999999183
 20
19.0000000000001315
 30
0.0
 11
-16.4999999999999005
 21
19.0000000000001315
 31
0.0
  0
LINE
  5
31E
  8
CONTORNO
 62
     0
 10
-23.9999999999999005
 20
19.0000000000001812
 30
0.0
 11
-26.9999999999999112
 21
19.0000000000002203
 31
0.0
  0
LINE
  5
31F
  8
CONTORNO
 62
     0
 10
-13.9999999999999094
 20
19.0000000000001315
 30
0.0
 11
-10.9999999999999005
 21
19.0000000000000817
 31
0.0
  0
LINE
  5
320
  8
CONTORNO
 62
     0
 10
0.0000000000003303
 20
37.9999999999999787
 30
0.0
 11
0.0000000000003539
 21
40.4999999999999716
 31
0.0
  0
LINE
  5
321
  8
CONTORNO
 62
     0
 10
0.0000000000003303
 20
37.9999999999999787
 30
0.0
 11
0.0000000000003067
 21
35.4999999999999929
 31
0.0
  0
LINE
  5
322
  8
CONTORNO
 62
     0
 10
0.0000000000003775
 20
43.0
 30
0.0
 11
0.0000000000004011
 21
45.9999999999999574
 31
0.0
  0
LINE
  5
323
  8
CONTORNO
 62
     0
 10
0.0000000000002595
 20
32.9999999999999929
 30
0.0
 11
0.0000000000002359
 21
29.9999999999999893
 31
0.0
  0
ENDBLK
  5
324
  8
0
  0
BLOCK
  8
0
  2
SW_CENTERMARKSYMBOL_6
 70
     0
 10
0.0
 20
0.0
 30
0.0
  3
SW_CENTERMARKSYMBOL_6
  1

  0
LINE
  5
327
  8
CONTORNO
 62
     0
 10
0.0
 20
0.0
 30
0.0
 11
0.0
 21
2.4999999999999911
 31
0.0
  0
LINE
  5
328
  8
CONTORNO
 62
     0
 10
0.0
 20
0.0
 30
0.0
 11
-2.4999999999999911
 21
0.0
 31
0.0
  0
LINE
  5
329
  8
CONTORNO
 62
     0
 10
0.0
 20
0.0
 30
0.0
 11
0.0
 21
-2.5000000000000382
 31
0.0
  0
LINE
  5
32A
  8
CONTORNO
 62
     0
 10
0.0
 20
0.0
 30
0.0
 11
2.5000000000000142
 21
0.0
 31
0.0
  0
LINE
  5
32B
  8
CONTORNO
 62
     0
 10
0.0
 20
2.4999999999999911
 30
0.0
 11
0.0
 21
4.9999999999999822
 31
0.0
  0
LINE
  5
32C
  8
CONTORNO
 62
     0
 10
-2.4999999999999911
 20
0.0
 30
0.0
 11
-5.0000000000000062
 21
0.0
 31
0.0
  0
LINE
  5
32D
  8
CONTORNO
 62
     0
 10
0.0
 20
-2.5000000000000382
 30
0.0
 11
0.0
 21
-5.0000000000000293
 31
0.0
  0
LINE
  5
32E
  8
CONTORNO
 62
     0
 10
2.5000000000000142
 20
0.0
 30
0.0
 11
5.0000000000000062
 21
0.0
 31
0.0
  0
ENDBLK
  5
32F
  8
0
  0
BLOCK
  8
0
  2
SW_CENTERMARKSYMBOL_7
 70
     0
 10
0.0
 20
0.0
 30
0.0
  3
SW_CENTERMARKSYMBOL_7
  1

  0
LINE
  5
332
  8
CONTORNO
 62
     0
 10
0.0
 20
0.0
 30
0.0
 11
0.0
 21
2.4999999999999911
 31
0.0
  0
LINE
  5
333
  8
CONTORNO
 62
     0
 10
0.0
 20
0.0
 30
0.0
 11
-2.5000000000000382
 21
0.0
 31
0.0
  0
LINE
  5
334
  8
CONTORNO
 62
     0
 10
0.0
 20
0.0
 30
0.0
 11
0.0
 21
-2.4999999999999911
 31
0.0
  0
LINE
  5
335
  8
CONTORNO
 62
     0
 10
0.0
 20
0.0
 30
0.0
 11
2.4999999999999911
 21
0.0
 31
0.0
  0
LINE
  5
336
  8
CONTORNO
 62
     0
 10
0.0
 20
2.4999999999999911
 30
0.0
 11
0.0
 21
5.0000000000000293
 31
0.0
  0
LINE
  5
337
  8
CONTORNO
 62
     0
 10
-2.5000000000000382
 20
0.0
 30
0.0
 11
-5.0000000000000293
 21
0.0
 31
0.0
  0
LINE
  5
338
  8
CONTORNO
 62
     0
 10
0.0
 20
-2.4999999999999911
 30
0.0
 11
0.0
 21
-4.9999999999999822
 31
0.0
  0
LINE
  5
339
  8
CONTORNO
 62
     0
 10
2.4999999999999911
 20
0.0
 30
0.0
 11
4.9999999999999822
 21
0.0
 31
0.0
  0
ENDBLK
  5
33A
  8
0
  0
BLOCK
  8
0
  2
SW_CENTERMARKSYMBOL_8
 70
     0
 10
0.0
 20
0.0
 30
0.0
  3
SW_CENTERMARKSYMBOL_8
  1

  0
LINE
  5
33D
  8
CONTORNO
 62
     0
 10
0.0
 20
0.0
 30
0.0
 11
0.0
 21
2.5000000000000142
 31
0.0
  0
LINE
  5
33E
  8
CONTORNO
 62
     0
 10
0.0
 20
0.0
 30
0.0
 11
-2.4999999999999911
 21
0.0
 31
0.0
  0
LINE
  5
33F
  8
CONTORNO
 62
     0
 10
0.0
 20
0.0
 30
0.0
 11
0.0
 21
-2.4999999999999911
 31
0.0
  0
LINE
  5
340
  8
CONTORNO
 62
     0
 10
0.0
 20
0.0
 30
0.0
 11
2.4999999999999911
 21
0.0
 31
0.0
  0
LINE
  5
341
  8
CONTORNO
 62
     0
 10
0.0
 20
2.5000000000000142
 30
0.0
 11
0.0
 21
5.0000000000000293
 31
0.0
  0
LINE
  5
342
  8
CONTORNO
 62
     0
 10
-2.4999999999999911
 20
0.0
 30
0.0
 11
-5.0000000000000062
 21
0.0
 31
0.0
  0
LINE
  5
343
  8
CONTORNO
 62
     0
 10
0.0
 20
-2.4999999999999911
 30
0.0
 11
0.0
 21
-4.9999999999999822
 31
0.0
  0
LINE
  5
344
  8
CONTORNO
 62
     0
 10
2.4999999999999911
 20
0.0
 30
0.0
 11
5.0000000000000062
 21
0.0
 31
0.0
  0
ENDBLK
  5
345
  8
0
  0
BLOCK
  8
0
  2
SW_CENTERMARKSYMBOL_9
 70
     0
 10
0.0
 20
0.0
 30
0.0
  3
SW_CENTERMARKSYMBOL_9
  1

  0
LINE
  5
348
  8
CONTORNO
 62
     0
 10
0.0
 20
0.0
 30
0.0
 11
0.0
 21
2.4999999999999911
 31
0.0
  0
LINE
  5
349
  8
CONTORNO
 62
     0
 10
0.0
 20
0.0
 30
0.0
 11
-2.5000000000000031
 21
0.0
 31
0.0
  0
LINE
  5
34A
  8
CONTORNO
 62
     0
 10
0.0
 20
0.0
 30
0.0
 11
0.0
 21
-2.4999999999999911
 31
0.0
  0
LINE
  5
34B
  8
CONTORNO
 62
     0
 10
0.0
 20
0.0
 30
0.0
 11
2.5000000000000031
 21
0.0
 31
0.0
  0
LINE
  5
34C
  8
CONTORNO
 62
     0
 10
0.0
 20
2.4999999999999911
 30
0.0
 11
0.0
 21
4.9999999999999822
 31
0.0
  0
LINE
  5
34D
  8
CONTORNO
 62
     0
 10
-2.5000000000000031
 20
0.0
 30
0.0
 11
-5.0000000000000062
 21
0.0
 31
0.0
  0
LINE
  5
34E
  8
CONTORNO
 62
     0
 10
0.0
 20
-2.4999999999999911
 30
0.0
 11
0.0
 21
-5.0000000000000293
 31
0.0
  0
LINE
  5
34F
  8
CONTORNO
 62
     0
 10
2.5000000000000031
 20
0.0
 30
0.0
 11
5.0000000000000062
 21
0.0
 31
0.0
  0
ENDBLK
  5
350
  8
0
  0
BLOCK
  8
0
  2
*D18
 70
     1
 10
0.0
 20
0.0
 30
0.0
  3
*D18
  1

  0
LINE
  5
42E
  8
CONTORNO
 62
     0
 10
184.5128241427846945
 20
88.0712044140450558
 30
0.0
 11
178.8266468647373131
 21
88.0712044140450274
 31
0.0
  0
LINE
  5
42F
  8
CONTORNO
 62
     0
 10
178.8266468647373131
 20
88.0712044140450274
 30
0.0
 11
174.2116729901077861
 21
116.4900093309677942
 31
0.0
  0
INSERT
  5
430
  8
0
  2
*U42
 10
0.0
 20
0.0
 30
0.0
  0
SOLID
  5
431
  8
CONTORNO
 62
     0
 10
175.1351424769486016
 20
116.6399729754013066
 30
0.0
 11
173.288203503266999
 21
116.3400456865341965
 31
0.0
 12
173.3118911235065127
 22
122.0308262520125027
 32
0.0
 13
173.3118911235065127
 23
122.0308262520125027
 33
0.0
  0
POINT
  5
432
  8
DEFPOINTS
 62
     0
 10
173.3118911235065127
 20
122.0308262520125027
 30
0.0
  0
POINT
  5
433
  8
DEFPOINTS
 62
     0
 10
171.5486815655534087
 20
132.8885926915129119
 30
0.0
  0
ENDBLK
  5
3C7
  8
0
  0
BLOCK
  8
0
  2
*D19
 70
     1
 10
0.0
 20
0.0
 30
0.0
  3
*D19
  1

  0
LINE
  5
434
  8
CONTORNO
 62
     0
 10
172.4927863445300886
 20
146.4597094717628067
 30
0.0
 11
302.507926984971391
 21
146.4597094717628067
 31
0.0
  0
LINE
  5
435
  8
CONTORNO
 62
     0
 10
199.9927863445300886
 20
246.459709471762892
 30
0.0
 11
302.507926984971391
 21
246.459709471762892
 31
0.0
  0
LINE
  5
436
  8
CONTORNO
 62
     0
 10
302.507926984971391
 20
152.0731094717627911
 30
0.0
 11
302.507926984971391
 21
240.8463094717629076
 31
0.0
  0
SOLID
  5
437
  8
CONTORNO
 62
     0
 10
301.5723603183047885
 20
152.0731094717627911
 30
0.0
 11
303.4434936516381072
 21
152.0731094717627911
 31
0.0
 12
302.507926984971391
 22
146.4597094717628067
 32
0.0
 13
302.507926984971391
 23
146.4597094717628067
 33
0.0
  0
SOLID
  5
438
  8
CONTORNO
 62
     0
 10
301.5723603183047885
 20
240.8463094717629076
 30
0.0
 11
303.4434936516381072
 21
240.8463094717629076
 31
0.0
 12
302.507926984971391
 22
246.459709471762892
 32
0.0
 13
302.507926984971391
 23
246.459709471762892
 33
0.0
  0
INSERT
  5
439
  8
0
  2
*U43
 10
0.0
 20
0.0
 30
0.0
  0
POINT
  5
43A
  8
DEFPOINTS
 62
     0
 10
172.4302863445300886
 20
146.4597094717628067
 30
0.0
  0
POINT
  5
43B
  8
DEFPOINTS
 62
     0
 10
199.9302863445300886
 20
246.459709471762892
 30
0.0
  0
POINT
  5
43C
  8
DEFPOINTS
 62
     0
 10
302.507926984971391
 20
246.459709471762892
 30
0.0
  0
ENDBLK
  5
3D0
  8
0
  0
BLOCK
  8
0
  2
*D20
 70
     1
 10
0.0
 20
0.0
 30
0.0
  3
*D20
  1

  0
LINE
  5
43D
  8
CONTORNO
 62
     0
 10
172.4302863445300034
 20
146.5222094717626931
 30
0.0
 11
172.4302863445300034
 21
268.6795044072737824
 31
0.0
  0
LINE
  5
43E
  8
CONTORNO
 62
     0
 10
194.9302863445300886
 20
246.5222094717628067
 30
0.0
 11
194.9302863445300886
 21
268.6795044072737824
 31
0.0
  0
LINE
  5
43F
  8
CONTORNO
 62
     0
 10
178.0436863445301015
 20
268.6795044072737824
 30
0.0
 11
189.3168863445301042
 21
268.6795044072737824
 31
0.0
  0
SOLID
  5
440
  8
CONTORNO
 62
     0
 10
178.0436863445301015
 20
269.6150710739404985
 30
0.0
 11
178.0436863445301015
 21
267.7439377406071799
 31
0.0
 12
172.4302863445300034
 22
268.6795044072737824
 32
0.0
 13
172.4302863445300034
 23
268.6795044072737824
 33
0.0
  0
SOLID
  5
441
  8
CONTORNO
 62
     0
 10
189.3168863445301042
 20
269.6150710739404985
 30
0.0
 11
189.3168863445301042
 21
267.7439377406071799
 31
0.0
 12
194.9302863445300886
 22
268.6795044072737824
 32
0.0
 13
194.9302863445300886
 23
268.6795044072737824
 33
0.0
  0
INSERT
  5
442
  8
0
  2
*U44
 10
0.0
 20
0.0
 30
0.0
  0
POINT
  5
443
  8
DEFPOINTS
 62
     0
 10
172.4302863445300034
 20
146.4597094717626931
 30
0.0
  0
POINT
  5
444
  8
DEFPOINTS
 62
     0
 10
194.9302863445300886
 20
246.4597094717628067
 30
0.0
  0
POINT
  5
445
  8
DEFPOINTS
 62
     0
 10
194.9302863445300886
 20
268.6795044072737824
 30
0.0
  0
ENDBLK
  5
3DC
  8
0
  0
BLOCK
  8
0
  2
*D21
 70
     1
 10
0.0
 20
0.0
 30
0.0
  3
*D21
  1

  0
LINE
  5
446
  8
CONTORNO
 62
     0
 10
172.4302863445300034
 20
146.3972094717626931
 30
0.0
 11
172.4302863445300034
 21
22.4384649789082289
 31
0.0
  0
LINE
  5
447
  8
CONTORNO
 62
     0
 10
272.4302863445302023
 20
123.8972094717626931
 30
0.0
 11
272.4302863445302023
 21
22.4384649789082289
 31
0.0
  0
LINE
  5
448
  8
CONTORNO
 62
     0
 10
178.0436863445301015
 20
22.4384649789082289
 30
0.0
 11
266.8168863445301895
 21
22.4384649789082289
 31
0.0
  0
SOLID
  5
449
  8
CONTORNO
 62
     0
 10
178.0436863445301015
 20
23.3740316455748918
 30
0.0
 11
178.0436863445301015
 21
21.5028983122415589
 31
0.0
 12
172.4302863445300034
 22
22.4384649789082289
 32
0.0
 13
172.4302863445300034
 23
22.4384649789082289
 33
0.0
  0
SOLID
  5
44A
  8
CONTORNO
 62
     0
 10
266.8168863445301895
 20
23.3740316455748918
 30
0.0
 11
266.8168863445301895
 21
21.5028983122415589
 31
0.0
 12
272.4302863445302023
 22
22.4384649789082289
 32
0.0
 13
272.4302863445302023
 23
22.4384649789082289
 33
0.0
  0
INSERT
  5
44B
  8
0
  2
*U45
 10
0.0
 20
0.0
 30
0.0
  0
POINT
  5
44C
  8
DEFPOINTS
 62
     0
 10
172.4302863445300034
 20
146.4597094717626931
 30
0.0
  0
POINT
  5
44D
  8
DEFPOINTS
 62
     0
 10
272.4302863445302023
 20
123.9597094717626931
 30
0.0
  0
POINT
  5
44E
  8
DEFPOINTS
 62
     0
 10
272.4302863445302023
 20
22.4384649789082289
 30
0.0
  0
ENDBLK
  5
3E8
  8
0
  0
BLOCK
  8
0
  2
*D22
 70
     1
 10
0.0
 20
0.0
 30
0.0
  3
*D22
  1

  0
LINE
  5
44F
  8
CONTORNO
 62
     0
 10
172.3677863445300886
 20
146.4597094717628067
 30
0.0
 11
54.6885320377740314
 21
146.4597094717628067
 31
0.0
  0
LINE
  5
450
  8
CONTORNO
 62
     0
 10
149.8677863445302023
 20
46.459709471762757
 30
0.0
 11
54.6885320377740598
 21
46.4597094717627499
 31
0.0
  0
LINE
  5
451
  8
CONTORNO
 62
     0
 10
54.6885320377740385
 20
140.8463094717627087
 30
0.0
 11
54.6885320377740527
 21
52.0731094717627485
 31
0.0
  0
SOLID
  5
452
  8
CONTORNO
 62
     0
 10
53.7529653711073721
 20
140.8463094717627087
 30
0.0
 11
55.624098704440712
 21
140.8463094717627087
 31
0.0
 12
54.6885320377740314
 22
146.4597094717628067
 32
0.0
 13
54.6885320377740314
 23
146.4597094717628067
 33
0.0
  0
SOLID
  5
453
  8
CONTORNO
 62
     0
 10
53.7529653711073792
 20
52.0731094717627485
 30
0.0
 11
55.6240987044407191
 21
52.0731094717627485
 31
0.0
 12
54.6885320377740598
 22
46.4597094717627499
 32
0.0
 13
54.6885320377740598
 23
46.4597094717627499
 33
0.0
  0
INSERT
  5
454
  8
0
  2
*U46
 10
0.0
 20
0.0
 30
0.0
  0
POINT
  5
455
  8
DEFPOINTS
 62
     0
 10
172.4302863445300886
 20
146.4597094717628067
 30
0.0
  0
POINT
  5
456
  8
DEFPOINTS
 62
     0
 10
149.9302863445302023
 20
46.459709471762757
 30
0.0
  0
POINT
  5
457
  8
DEFPOINTS
 62
     0
 10
54.6885320377740598
 20
46.4597094717627499
 30
0.0
  0
ENDBLK
  5
3F4
  8
0
  0
BLOCK
  8
0
  2
*D23
 70
     1
 10
0.0
 20
0.0
 30
0.0
  3
*D23
  1

  0
LINE
  5
458
  8
CONTORNO
 62
     0
 10
172.4302863445300034
 20
146.5222094717626931
 30
0.0
 11
172.4302863445300034
 21
268.6795044072741234
 31
0.0
  0
LINE
  5
459
  8
CONTORNO
 62
     0
 10
72.4302863445301455
 20
169.022209471763091
 30
0.0
 11
72.4302863445301455
 21
268.6795044072741234
 31
0.0
  0
LINE
  5
45A
  8
CONTORNO
 62
     0
 10
166.8168863445299905
 20
268.6795044072741234
 30
0.0
 11
78.0436863445301441
 21
268.6795044072741234
 31
0.0
  0
SOLID
  5
45B
  8
CONTORNO
 62
     0
 10
166.8168863445299905
 20
269.6150710739407259
 30
0.0
 11
166.8168863445299905
 21
267.7439377406074072
 31
0.0
 12
172.4302863445300034
 22
268.6795044072741234
 32
0.0
 13
172.4302863445300034
 23
268.6795044072741234
 33
0.0
  0
SOLID
  5
45C
  8
CONTORNO
 62
     0
 10
78.0436863445301441
 20
269.6150710739407259
 30
0.0
 11
78.0436863445301441
 21
267.7439377406074072
 31
0.0
 12
72.4302863445301455
 22
268.6795044072741234
 32
0.0
 13
72.4302863445301455
 23
268.6795044072741234
 33
0.0
  0
INSERT
  5
45D
  8
0
  2
*U47
 10
0.0
 20
0.0
 30
0.0
  0
POINT
  5
45E
  8
DEFPOINTS
 62
     0
 10
172.4302863445300034
 20
146.4597094717626931
 30
0.0
  0
POINT
  5
45F
  8
DEFPOINTS
 62
     0
 10
72.4302863445301455
 20
168.959709471763091
 30
0.0
  0
POINT
  5
460
  8
DEFPOINTS
 62
     0
 10
72.4302863445301455
 20
268.6795044072741234
 30
0.0
  0
ENDBLK
  5
400
  8
0
  0
BLOCK
  8
0
  2
*D24
 70
     1
 10
0.0
 20
0.0
 30
0.0
  3
*D24
  1

  0
LINE
  5
461
  8
CONTORNO
 62
     0
 10
172.3677863445300886
 20
146.4597094717628067
 30
0.0
 11
54.6885320377740598
 21
146.4597094717628067
 31
0.0
  0
LINE
  5
462
  8
CONTORNO
 62
     0
 10
72.3677863445301739
 20
168.9597094717632046
 30
0.0
 11
54.6885320377740527
 21
168.959709471763091
 31
0.0
  0
LINE
  5
463
  8
CONTORNO
 62
     0
 10
54.6885320377740527
 20
152.0731094717627911
 30
0.0
 11
54.6885320377740527
 21
163.3463094717631066
 31
0.0
  0
SOLID
  5
464
  8
CONTORNO
 62
     0
 10
53.7529653711073792
 20
152.0731094717627911
 30
0.0
 11
55.6240987044407191
 21
152.0731094717627911
 31
0.0
 12
54.6885320377740527
 22
146.4597094717628067
 32
0.0
 13
54.6885320377740527
 23
146.4597094717628067
 33
0.0
  0
SOLID
  5
465
  8
CONTORNO
 62
     0
 10
53.7529653711073792
 20
163.3463094717631066
 30
0.0
 11
55.6240987044407191
 21
163.3463094717631066
 31
0.0
 12
54.6885320377740527
 22
168.959709471763091
 32
0.0
 13
54.6885320377740527
 23
168.959709471763091
 33
0.0
  0
INSERT
  5
466
  8
0
  2
*U48
 10
0.0
 20
0.0
 30
0.0
  0
POINT
  5
467
  8
DEFPOINTS
 62
     0
 10
172.4302863445300886
 20
146.4597094717628067
 30
0.0
  0
POINT
  5
468
  8
DEFPOINTS
 62
     0
 10
72.4302863445301739
 20
168.9597094717632046
 30
0.0
  0
POINT
  5
469
  8
DEFPOINTS
 62
     0
 10
54.6885320377740527
 20
168.959709471763091
 30
0.0
  0
ENDBLK
  5
40C
  8
0
  0
BLOCK
  8
0
  2
*D25
 70
     1
 10
0.0
 20
0.0
 30
0.0
  3
*D25
  1

  0
LINE
  5
46A
  8
CONTORNO
 62
     0
 10
172.4302863445300034
 20
146.3972094717626931
 30
0.0
 11
172.4302863445300034
 21
22.4384649789082609
 31
0.0
  0
LINE
  5
46B
  8
CONTORNO
 62
     0
 10
149.9302863445302023
 20
46.3972094717627428
 30
0.0
 11
149.9302863445302023
 21
22.4384649789082609
 31
0.0
  0
LINE
  5
46C
  8
CONTORNO
 62
     0
 10
166.8168863445299905
 20
22.4384649789082609
 30
0.0
 11
155.5436863445301867
 21
22.4384649789082609
 31
0.0
  0
SOLID
  5
46D
  8
CONTORNO
 62
     0
 10
166.8168863445299905
 20
23.3740316455749308
 30
0.0
 11
166.8168863445299905
 21
21.5028983122415909
 31
0.0
 12
172.4302863445300034
 22
22.4384649789082609
 32
0.0
 13
172.4302863445300034
 23
22.4384649789082609
 33
0.0
  0
SOLID
  5
46E
  8
CONTORNO
 62
     0
 10
155.5436863445301867
 20
23.3740316455749308
 30
0.0
 11
155.5436863445301867
 21
21.5028983122415909
 31
0.0
 12
149.9302863445302023
 22
22.4384649789082609
 32
0.0
 13
149.9302863445302023
 23
22.4384649789082609
 33
0.0
  0
INSERT
  5
46F
  8
0
  2
*U49
 10
0.0
 20
0.0
 30
0.0
  0
POINT
  5
470
  8
DEFPOINTS
 62
     0
 10
172.4302863445300034
 20
146.4597094717626931
 30
0.0
  0
POINT
  5
471
  8
DEFPOINTS
 62
     0
 10
149.9302863445302023
 20
46.4597094717627499
 30
0.0
  0
POINT
  5
472
  8
DEFPOINTS
 62
     0
 10
149.9302863445302023
 20
22.4384649789082609
 30
0.0
  0
ENDBLK
  5
418
  8
0
  0
BLOCK
  8
0
  2
*D26
 70
     1
 10
0.0
 20
0.0
 30
0.0
  3
*D26
  1

  0
LINE
  5
473
  8
CONTORNO
 62
     0
 10
172.4927863445300886
 20
146.4597094717628067
 30
0.0
 11
302.507926984971391
 21
146.4597094717628067
 31
0.0
  0
LINE
  5
474
  8
CONTORNO
 62
     0
 10
272.492786344530316
 20
123.9597094717628067
 30
0.0
 11
302.5079269849715047
 21
123.9597094717628067
 31
0.0
  0
LINE
  5
475
  8
CONTORNO
 62
     0
 10
302.507926984971391
 20
140.8463094717627939
 30
0.0
 11
302.507926984971391
 21
129.5731094717627911
 31
0.0
  0
SOLID
  5
476
  8
CONTORNO
 62
     0
 10
301.5723603183047885
 20
140.8463094717627939
 30
0.0
 11
303.4434936516381072
 21
140.8463094717627939
 31
0.0
 12
302.507926984971391
 22
146.4597094717628067
 32
0.0
 13
302.507926984971391
 23
146.4597094717628067
 33
0.0
  0
SOLID
  5
477
  8
CONTORNO
 62
     0
 10
301.5723603183047885
 20
129.5731094717627911
 30
0.0
 11
303.4434936516381072
 21
129.5731094717627911
 31
0.0
 12
302.5079269849715047
 22
123.9597094717628067
 32
0.0
 13
302.5079269849715047
 23
123.9597094717628067
 33
0.0
  0
INSERT
  5
478
  8
0
  2
*U50
 10
0.0
 20
0.0
 30
0.0
  0
POINT
  5
479
  8
DEFPOINTS
 62
     0
 10
172.4302863445300886
 20
146.4597094717628067
 30
0.0
  0
POINT
  5
47A
  8
DEFPOINTS
 62
     0
 10
272.430286344530316
 20
123.9597094717628067
 30
0.0
  0
POINT
  5
47B
  8
DEFPOINTS
 62
     0
 10
302.5079269849715047
 20
123.9597094717628067
 30
0.0
  0
ENDBLK
  5
424
  8
0
  0
BLOCK
  8
0
  2
*U28
 70
     1
 10
0.0
 20
0.0
 30
0.0
  3
*U28
  1

  0
TEXT
  5
4D8
  8
CONTORNO
 10
184.6080348264586064
 20
246.7789218378570979
 30
0.0
 40
5.3974999999999991
  1
4 x
 41
0.6666666666666666
  7
SLDTEXTSTYLE7
  0
ENDBLK
  5
4DA
  8
0
  0
BLOCK
  8
0
  2
*U29
 70
     1
 10
0.0
 20
0.0
 30
0.0
  3
*U29
  1

  0
TEXT
  5
4DC
  8
CONTORNO
 10
196.0327432394188065
 20
246.7789218378570979
 30
0.0
 40
5.3974999999999991
  1
\U+2205
 41
0.75
  7
SLDTEXTSTYLE1
  0
ENDBLK
  5
4DE
  8
0
  0
BLOCK
  8
0
  2
*U30
 70
     1
 10
0.0
 20
0.0
 30
0.0
  3
*U30
  1

  0
TEXT
  5
4E0
  8
CONTORNO
 10
206.2040332707177868
 20
246.7789218378570979
 30
0.0
 40
5.3974999999999991
  1
6,5 PASSANTE TOTAL
 41
0.75
  7
SLDTEXTSTYLE1
  0
ENDBLK
  5
4E2
  8
0
  0
BLOCK
  8
0
  2
*U31
 70
     1
 10
0.0
 20
0.0
 30
0.0
  3
*U31
  1

  0
TEXT
  5
4E4
  8
CONTORNO
 10
220.448425728471193
 20
238.2028944407906863
 30
0.0
 40
5.3974999999999991
  1
\U+2205
 41
0.75
  7
SLDTEXTSTYLE1
  0
ENDBLK
  5
4E6
  8
0
  0
BLOCK
  8
0
  2
*U32
 70
     1
 10
0.0
 20
0.0
 30
0.0
  3
*U32
  1

  0
TEXT
  5
4E8
  8
CONTORNO
 10
230.6197149681460132
 20
238.2028944407906863
 30
0.0
 40
5.3974999999999991
  1
11
 41
0.75
  7
SLDTEXTSTYLE1
  0
ENDBLK
  5
4EA
  8
0
  0
BLOCK
  8
0
  2
*U33
 70
     1
 10
0.0
 20
0.0
 30
0.0
  3
*U33
  1

  0
TEXT
  5
4EC
  8
CONTORNO
 10
250.292603578658003
 20
238.2028944407906863
 30
0.0
 40
5.3974999999999991
  1
6
 41
0.75
  7
SLDTEXTSTYLE1
  0
ENDBLK
  5
4EE
  8
0
  0
BLOCK
  8
0
  2
*U34
 70
     1
 10
0.0
 20
0.0
 30
0.0
  3
*U34
  1

  0
TEXT
  5
4F0
  8
CONTORNO
 10
302.6376482023699737
 20
354.2699364090540826
 30
0.0
 40
5.3974999999999991
  1
100
 50
90.0
 41
0.75
  7
SLDTEXTSTYLE1
  0
ENDBLK
  5
4F2
  8
0
  0
BLOCK
  8
0
  2
*U35
 70
     1
 10
0.0
 20
0.0
 30
0.0
  3
*U35
  1

  0
TEXT
  5
4F4
  8
CONTORNO
 10
179.7345968032711028
 20
427.3872218310859239
 30
0.0
 40
5.3974999999999991
  1
22,5
 41
0.75
  7
SLDTEXTSTYLE1
  0
ENDBLK
  5
4F6
  8
0
  0
BLOCK
  8
0
  2
*U36
 70
     1
 10
0.0
 20
0.0
 30
0.0
  3
*U36
  1

  0
TEXT
  5
4F8
  8
CONTORNO
 10
224.5825990528182103
 20
181.1461824027201999
 30
0.0
 40
5.3974999999999991
  1
100
 41
0.75
  7
SLDTEXTSTYLE1
  0
ENDBLK
  5
4FA
  8
0
  0
BLOCK
  8
0
  2
*U37
 70
     1
 10
0.0
 20
0.0
 30
0.0
  3
*U37
  1

  0
TEXT
  5
4FC
  8
CONTORNO
 10
54.8182532551728414
 20
257.0965177973101845
 30
0.0
 40
5.3974999999999991
  1
100
 50
90.0000000000003979
 41
0.75
  7
SLDTEXTSTYLE1
  0
ENDBLK
  5
4FE
  8
0
  0
BLOCK
  8
0
  2
*U38
 70
     1
 10
0.0
 20
0.0
 30
0.0
  3
*U38
  1

  0
TEXT
  5
500
  8
CONTORNO
 10
121.7309148492954023
 20
427.3872218310860944
 30
0.0
 40
5.3974999999999991
  1
100
 50
359.9999999999996021
 41
0.75
  7
SLDTEXTSTYLE1
  0
ENDBLK
  5
502
  8
0
  0
BLOCK
  8
0
  2
*U39
 70
     1
 10
0.0
 20
0.0
 30
0.0
  3
*U39
  1

  0
TEXT
  5
504
  8
CONTORNO
 10
54.8182532551727917
 20
308.232227482022779
 30
0.0
 40
5.3974999999999991
  1
22,5
 50
90.0
 41
0.75
  7
SLDTEXTSTYLE1
  0
ENDBLK
  5
506
  8
0
  0
BLOCK
  8
0
  2
*U40
 70
     1
 10
0.0
 20
0.0
 30
0.0
  3
*U40
  1

  0
TEXT
  5
508
  8
CONTORNO
 10
155.5152737336331938
 20
181.1461824027201999
 30
0.0
 40
5.3974999999999991
  1
22,5
 50
359.9999999999996021
 41
0.75
  7
SLDTEXTSTYLE1
  0
ENDBLK
  5
50A
  8
0
  0
BLOCK
  8
0
  2
*U41
 70
     1
 10
0.0
 20
0.0
 30
0.0
  3
*U41
  1

  0
TEXT
  5
50C
  8
CONTORNO
 10
302.6376482023699737
 20
288.862201710052716
 30
0.0
 40
5.3974999999999991
  1
22,5
 50
90.0000000000003979
 41
0.75
  7
SLDTEXTSTYLE1
  0
ENDBLK
  5
50E
  8
0
  0
BLOCK
  8
0
  2
*U42
 70
     1
 10
0.0
 20
0.0
 30
0.0
  3
*U42
  1

  0
TEXT
  5
511
  8
CONTORNO
 62
     0
 10
185.8621991427845899
 20
89.9271122108036849
 30
0.0
 40
5.3974999999999991
  1
4 x \U+220511 PASSANTE TOTAL
 41
0.75
  7
SLDTEXTSTYLE1
  0
TEXT
  5
512
  8
CONTORNO
 62
     0
 10
185.4818562551367904
 20
80.9312788774703336
 30
0.0
 40
5.3974999999999991
  1
v
 41
0.75
  7
MtXpl_GDT
  0
TEXT
  5
514
  8
CONTORNO
 62
     0
 10
194.5302933444928897
 20
80.9312788774703336
 30
0.0
 40
5.3974999999999991
  1
\U+2205 11 
 41
0.75
  7
SLDTEXTSTYLE1
  0
TEXT
  5
515
  8
CONTORNO
 62
     0
 10
212.0721683444930079
 20
80.9312788774703336
 30
0.0
 40
5.3974999999999991
  1
x
 41
0.75
  7
MtXpl_GDT
  0
TEXT
  5
516
  8
CONTORNO
 62
     0
 10
216.9261947078306036
 20
80.9312788774703336
 30
0.0
 40
5.3974999999999991
  1
 6
 41
0.75
  7
SLDTEXTSTYLE1
  0
ENDBLK
  5
518
  8
0
  0
BLOCK
  8
0
  2
*U43
 70
     1
 10
0.0
 20
0.0
 30
0.0
  3
*U43
  1

  0
TEXT
  5
51A
  8
CONTORNO
 62
     0
 10
301.1585519849713819
 20
199.0565655024649914
 30
0.0
 40
5.3974999999999991
  1
100
 50
90.0
 41
0.75
  7
SLDTEXTSTYLE1
  0
ENDBLK
  5
51C
  8
0
  0
BLOCK
  8
0
  2
*U44
 70
     1
 10
0.0
 20
0.0
 30
0.0
  3
*U44
  1

  0
TEXT
  5
51E
  8
CONTORNO
 62
     0
 10
178.9492141730866024
 20
270.0288794072739051
 30
0.0
 40
5.3974999999999991
  1
22.5
 41
0.75
  7
SLDTEXTSTYLE1
  0
ENDBLK
  5
520
  8
0
  0
BLOCK
  8
0
  2
*U45
 70
     1
 10
0.0
 20
0.0
 30
0.0
  3
*U45
  1

  0
TEXT
  5
522
  8
CONTORNO
 62
     0
 10
224.826739685052587
 20
23.7878399789082309
 30
0.0
 40
5.3974999999999991
  1
100
 41
0.75
  7
SLDTEXTSTYLE1
  0
ENDBLK
  5
524
  8
0
  0
BLOCK
  8
0
  2
*U46
 70
     1
 10
0.0
 20
0.0
 30
0.0
  3
*U46
  1

  0
TEXT
  5
526
  8
CONTORNO
 62
     0
 10
53.339157037774072
 20
101.8831468907210933
 30
0.0
 40
5.3974999999999991
  1
100
 50
90.0
 41
0.75
  7
SLDTEXTSTYLE1
  0
ENDBLK
  5
528
  8
0
  0
BLOCK
  8
0
  2
*U47
 70
     1
 10
0.0
 20
0.0
 30
0.0
  3
*U47
  1

  0
TEXT
  5
52A
  8
CONTORNO
 62
     0
 10
121.9750554815296937
 20
270.0288794072740757
 30
0.0
 40
5.3974999999999991
  1
100
 41
0.75
  7
SLDTEXTSTYLE1
  0
ENDBLK
  5
52C
  8
0
  0
BLOCK
  8
0
  2
*U48
 70
     1
 10
0.0
 20
0.0
 30
0.0
  3
*U48
  1

  0
TEXT
  5
52E
  8
CONTORNO
 62
     0
 10
53.3391570377740791
 20
151.9893333130150097
 30
0.0
 40
5.3974999999999991
  1
22.5
 50
90.0
 41
0.75
  7
SLDTEXTSTYLE1
  0
ENDBLK
  5
530
  8
0
  0
BLOCK
  8
0
  2
*U49
 70
     1
 10
0.0
 20
0.0
 30
0.0
  3
*U49
  1

  0
TEXT
  5
532
  8
CONTORNO
 62
     0
 10
154.7298911034488071
 20
23.7878399789082593
 30
0.0
 40
5.3974999999999991
  1
22.5
 41
0.75
  7
SLDTEXTSTYLE1
  0
ENDBLK
  5
534
  8
0
  0
BLOCK
  8
0
  2
*U50
 70
     1
 10
0.0
 20
0.0
 30
0.0
  3
*U50
  1

  0
TEXT
  5
536
  8
CONTORNO
 62
     0
 10
301.1585519849713819
 20
132.6193075410448046
 30
0.0
 40
5.3974999999999991
  1
22.5
 50
90.0
 41
0.75
  7
SLDTEXTSTYLE1
  0
ENDBLK
  5
538
  8
0
  0
ENDSEC
  0
SECTION
  2
ENTITIES
  0
LINE
  5
390
  8
0
  6
CONTINUOUS
 62
     7
 10
134.5538666172625142
 20
210.3634753117742093
 30
0.0
 11
173.272887565964794
 21
154.368809744927006
 31
0.0
  0
ARC
  5
391
  8
0
  6
CONTINUOUS
 62
     7
 10
126.3287482024530988
 20
204.6759954601735103
 30
0.0
 40
10.0000000000000302
 50
34.6629650204287501
 51
135.643540448039289
  0
ARC
  5
392
  8
0
  6
CONTINUOUS
 62
     7
 10
201.4041854613766134
 20
131.2683751446949998
 30
0.0
 40
115.0000000000000995
 50
135.643540448039289
 51
138.4371120184538029
  0
ARC
  5
393
  8
0
  6
CONTINUOUS
 62
     7
 10
122.8402479313983946
 20
200.929754113142792
 30
0.0
 40
10.0
 50
138.4371120184538029
 51
214.6629650204286861
  0
LINE
  5
394
  8
0
  6
CONTINUOUS
 62
     7
 10
178.3037508611442092
 20
103.1370772492833936
 30
0.0
 11
114.6151295165889934
 21
195.2422742615422067
 31
0.0
  0
LINE
  5
395
  8
0
  6
CONTINUOUS
 62
     7
 10
122.3090852942966933
 20
64.4180563005816964
 30
0.0
 11
178.3037508611442092
 21
103.1370772492833936
 31
0.0
  0
ARC
  5
396
  8
0
  6
CONTINUOUS
 62
     7
 10
127.996565145897307
 20
56.1929378857722668
 30
0.0
 40
10.0
 50
124.6629650204286008
 51
225.6435404480388058
  0
ARC
  5
397
  8
0
  6
CONTINUOUS
 62
     7
 10
201.4041854613766134
 20
131.2683751446949998
 30
0.0
 40
115.0
 50
225.6435404480388058
 51
228.4371120184557924
  0
ARC
  5
398
  8
0
  6
CONTINUOUS
 62
     7
 10
131.7428064929291054
 20
52.7044376147166531
 30
0.0
 40
10.0000000000000302
 50
228.4371120184557924
 51
304.6629650204286008
  0
LINE
  5
399
  8
0
  6
CONTINUOUS
 62
     7
 10
229.5354833567882054
 20
108.1679405444626951
 30
0.0
 11
137.4302863445298044
 21
44.479319199907188
 31
0.0
  0
LINE
  5
39A
  8
0
  6
CONTINUOUS
 62
     7
 10
268.2545043054901726
 20
52.1732749776153497
 30
0.0
 11
229.5354833567882054
 21
108.1679405444626951
 31
0.0
  0
ARC
  5
39B
  8
0
  6
CONTINUOUS
 62
     7
 10
276.4796227202995738
 20
57.860754829215999
 30
0.0
 40
10.0
 50
214.6629650204286861
 51
315.6435404480413922
  0
ARC
  5
39C
  8
0
  6
CONTINUOUS
 62
     7
 10
201.4041854613766134
 20
131.2683751446949998
 30
0.0
 40
115.0
 50
315.6435404480413922
 51
318.4371120184557071
  0
ARC
  5
39D
  8
0
  6
CONTINUOUS
 62
     7
 10
279.9681229913546758
 20
61.6069961762471934
 30
0.0
 40
10.0
 50
318.4371120184557071
 51
34.6629650204287501
  0
LINE
  5
39E
  8
0
  6
CONTINUOUS
 62
     7
 10
224.5046200616089891
 20
159.3996730401065065
 30
0.0
 11
288.193241406164077
 21
67.2944760278477929
 31
0.0
  0
LINE
  5
39F
  8
0
  6
CONTINUOUS
 62
     7
 10
280.499285628456505
 20
198.1186939888083032
 30
0.0
 11
224.5046200616089891
 21
159.3996730401065065
 31
0.0
  0
ARC
  5
3A0
  8
0
  6
CONTINUOUS
 62
     7
 10
274.8118057768559197
 20
206.3438124036177044
 30
0.0
 40
10.0
 50
304.6629650204286008
 51
45.6435404480415272
  0
ARC
  5
3A1
  8
0
  6
CONTINUOUS
 62
     7
 10
201.4041854613766134
 20
131.2683751446949998
 30
0.0
 40
115.0
 50
45.6435404480415272
 51
48.4371120184558421
  0
ARC
  5
3A2
  8
0
  6
CONTINUOUS
 62
     7
 10
271.0655644298236098
 20
209.8323126746738865
 30
0.0
 40
10.0
 50
48.4371120184558421
 51
124.6629650204286008
  0
LINE
  5
3A3
  8
0
  6
CONTINUOUS
 62
     7
 10
173.272887565964794
 20
154.368809744927006
 30
0.0
 11
265.3780845782229107
 21
218.0574310894832024
 31
0.0
  0
CIRCLE
  5
3A4
  8
0
  6
CONTINUOUS
 62
     7
 10
190.5979737433353876
 20
146.8961001328329132
 30
0.0
 40
5.5
  0
CIRCLE
  5
3A5
  8
0
  6
CONTINUOUS
 62
     7
 10
185.7764604732386999
 20
120.4621634266538024
 30
0.0
 40
5.5
  0
CIRCLE
  5
3A6
  8
0
  6
CONTINUOUS
 62
     7
 10
212.2103971794178108
 20
115.6406501565570011
 30
0.0
 40
5.5
  0
CIRCLE
  5
3A7
  8
0
  6
CONTINUOUS
 62
     7
 10
217.0319104495144984
 20
142.0745868627361972
 30
0.0
 40
5.5
  0
CIRCLE
  5
3A8
  8
0
  6
CONTINUOUS
 62
     7
 10
131.9498309793835915
 20
55.8870601953677806
 30
0.0
 40
2.5
  0
CIRCLE
  5
3A9
  8
0
  6
CONTINUOUS
 62
     7
 10
270.8585399433695784
 20
206.6496900940221906
 30
0.0
 40
2.500000000000056
  0
CIRCLE
  5
3AA
  8
0
  6
CONTINUOUS
 62
     7
 10
126.0228705120493942
 20
200.722729626687908
 30
0.0
 40
2.5
  0
CIRCLE
  5
3AB
  8
0
  6
CONTINUOUS
 62
     7
 10
276.7855004107041736
 20
61.8140206627022621
 30
0.0
 40
2.5
  0
CIRCLE
  5
3AC
  8
0
  6
CONTINUOUS
 62
     7
 10
190.5979737433353876
 20
146.8961001328329132
 30
0.0
 40
3.25
  0
CIRCLE
  5
3AD
  8
0
  6
CONTINUOUS
 62
     7
 10
185.7764604732386999
 20
120.4621634266538024
 30
0.0
 40
3.25
  0
CIRCLE
  5
3AE
  8
0
  6
CONTINUOUS
 62
     7
 10
217.0319104495144984
 20
142.0745868627361972
 30
0.0
 40
3.25
  0
CIRCLE
  5
3AF
  8
0
  6
CONTINUOUS
 62
     7
 10
212.2103971794178108
 20
115.6406501565570011
 30
0.0
 40
3.25
  0
CIRCLE
  5
3B0
  8
0
  6
HIDDEN
 62
     7
 10
201.4041854613766134
 20
131.2683751446949998
 30
0.0
 40
25.0
  0
ENDSEC
  0
EOF
