  0
SECTION
  2
HEADER
  9
$ACADVER
  1
AC1009
  9
$INSBASE
 10
0.0
 20
0.0
 30
0.0
  9
$EXTMIN
 10
-195.7212755371737956
 20
0.0
 30
0.0
  9
$EXTMAX
 10
1344.9999999999990905
 20
1344.9999999999990905
 30
0.0
  9
$LIMMIN
 10
0.0
 20
0.0
  9
$LIMMAX
 10
420.0
 20
297.0
  9
$ORTHOMODE
 70
     0
  9
$REGENMODE
 70
     1
  9
$FILLMODE
 70
     1
  9
$QTEXTMODE
 70
     0
  9
$MIRRTEXT
 70
     0
  9
$DRAGMODE
 70
     2
  9
$LTSCALE
 40
1.0
  9
$OSMODE
 70
   353
  9
$ATTMODE
 70
     1
  9
$TEXTSIZE
 40
2.5
  9
$TRACEWID
 40
1.0
  9
$TEXTSTYLE
  7
STANDARD
  9
$CLAYER
  8
0
  9
$CELTYPE
  6
BYLAYER
  9
$CECOLOR
 62
   256
  9
$DIMSCALE
 40
1.0
  9
$DIMASZ
 40
2.5
  9
$DIMEXO
 40
0.625
  9
$DIMDLI
 40
3.75
  9
$DIMRND
 40
0.0
  9
$DIMDLE
 40
0.0
  9
$DIMEXE
 40
1.25
  9
$DIMTP
 40
0.0
  9
$DIMTM
 40
0.0
  9
$DIMTXT
 40
2.5
  9
$DIMCEN
 40
2.5
  9
$DIMTSZ
 40
0.0
  9
$DIMTOL
 70
     0
  9
$DIMLIM
 70
     0
  9
$DIMTIH
 70
     0
  9
$DIMTOH
 70
     0
  9
$DIMSE1
 70
     0
  9
$DIMSE2
 70
     0
  9
$DIMTAD
 70
     1
  9
$DIMZIN
 70
     8
  9
$DIMBLK
  1

  9
$DIMASO
 70
     1
  9
$DIMSHO
 70
     1
  9
$DIMPOST
  1

  9
$DIMAPOST
  1

  9
$DIMALT
 70
     0
  9
$DIMALTD
 70
     3
  9
$DIMALTF
 40
0.03937007874016
  9
$DIMLFAC
 40
1.0
  9
$DIMTOFL
 70
     1
  9
$DIMTVP
 40
0.0
  9
$DIMTIX
 70
     0
  9
$DIMSOXD
 70
     0
  9
$DIMSAH
 70
     0
  9
$DIMBLK1
  1

  9
$DIMBLK2
  1

  9
$DIMSTYLE
  2
ISO-25
  9
$DIMCLRD
 70
     0
  9
$DIMCLRE
 70
     0
  9
$DIMCLRT
 70
     0
  9
$DIMTFAC
 40
1.0
  9
$DIMGAP
 40
0.625
  9
$LUNITS
 70
     2
  9
$LUPREC
 70
     4
  9
$SKETCHINC
 40
1.0
  9
$FILLETRAD
 40
0.0
  9
$AUNITS
 70
     0
  9
$AUPREC
 70
     0
  9
$MENU
  1
.
  9
$ELEVATION
 40
0.0
  9
$PELEVATION
 40
0.0
  9
$THICKNESS
 40
0.0
  9
$LIMCHECK
 70
     0
  9
$BLIPMODE
 70
     0
  9
$CHAMFERA
 40
0.0
  9
$CHAMFERB
 40
0.0
  9
$SKPOLY
 70
     0
  9
$TDCREATE
 40
2460270.5848726858384907
  9
$TDUPDATE
 40
2460270.5898842602036893
  9
$TDINDWG
 40
0.0050115741
  9
$TDUSRTIMER
 40
0.0050115741
  9
$USRTIMER
 70
     1
  9
$ANGBASE
 50
0.0
  9
$ANGDIR
 70
     0
  9
$PDMODE
 70
     0
  9
$PDSIZE
 40
0.0
  9
$PLINEWID
 40
0.0
  9
$COORDS
 70
     1
  9
$SPLFRAME
 70
     0
  9
$SPLINETYPE
 70
     6
  9
$SPLINESEGS
 70
     8
  9
$ATTDIA
 70
     1
  9
$ATTREQ
 70
     1
  9
$HANDLING
 70
     1
  9
$HANDSEED
  5
45C
  9
$SURFTAB1
 70
     6
  9
$SURFTAB2
 70
     6
  9
$SURFTYPE
 70
     6
  9
$SURFU
 70
     6
  9
$SURFV
 70
     6
  9
$UCSNAME
  2

  9
$UCSORG
 10
0.0
 20
0.0
 30
0.0
  9
$UCSXDIR
 10
1.0
 20
0.0
 30
0.0
  9
$UCSYDIR
 10
0.0
 20
1.0
 30
0.0
  9
$PUCSNAME
  2

  9
$PUCSORG
 10
0.0
 20
0.0
 30
0.0
  9
$PUCSXDIR
 10
1.0
 20
0.0
 30
0.0
  9
$PUCSYDIR
 10
0.0
 20
1.0
 30
0.0
  9
$USERI1
 70
     0
  9
$USERI2
 70
     0
  9
$USERI3
 70
     0
  9
$USERI4
 70
     0
  9
$USERI5
 70
     0
  9
$USERR1
 40
0.0
  9
$USERR2
 40
0.0
  9
$USERR3
 40
0.0
  9
$USERR4
 40
0.0
  9
$USERR5
 40
0.0
  9
$WORLDVIEW
 70
     1
  9
$SHADEDGE
 70
     3
  9
$SHADEDIF
 70
    70
  9
$TILEMODE
 70
     1
  9
$MAXACTVP
 70
    64
  9
$PLIMCHECK
 70
     0
  9
$PEXTMIN
 10
0.0
 20
0.0
 30
0.0
  9
$PEXTMAX
 10
0.0
 20
0.0
 30
0.0
  9
$PLIMMIN
 10
0.0
 20
0.0
  9
$PLIMMAX
 10
12.0
 20
9.0
  9
$UNITMODE
 70
     0
  9
$VISRETAIN
 70
     1
  9
$PLINEGEN
 70
     0
  9
$PSLTSCALE
 70
     1
  0
ENDSEC
  0
SECTION
  2
TABLES
  0
TABLE
  2
VPORT
 70
     1
  0
VPORT
  2
*ACTIVE
 70
     0
 10
0.0
 20
0.0
 11
1.0
 21
1.0
 12
-156.5781094444531902
 22
278.995158127209379
 13
0.0
 23
0.0
 14
10.0
 24
10.0
 15
10.0
 25
10.0
 16
0.0
 26
0.0
 36
1.0
 17
0.0
 27
0.0
 37
0.0
 40
1065.1239693066409018
 41
2.2103448275862059
 42
50.0
 43
0.0
 44
0.0
 50
0.0
 51
0.0
 71
     0
 72
  1000
 73
     1
 74
     3
 75
     0
 76
     1
 77
     0
 78
     0
  0
ENDTAB
  0
TABLE
  2
LTYPE
 70
     3
  0
LTYPE
  2
CONTINUOUS
 70
     0
  3
Solid line
 72
    65
 73
     0
 40
0.0
  0
LTYPE
  2
CHAIN
 70
     0
  3
Chain ____ _ ____ _ ____ _ ____ _ ____ _ ____
 72
    65
 73
     4
 40
0.7087
 49
0.4724000000000001
 49
-0.0591
 49
0.1181
 49
-0.0591
  0
ENDTAB
  0
TABLE
  2
LAYER
 70
     8
  0
LAYER
  2
0
 70
     0
 62
     7
  6
CONTINUOUS
  0
LAYER
  2
CENTER_MARK__ISO_
 70
     0
 62
     7
  6
CONTINUOUS
  0
LAYER
  2
CENTERLINE__ISO_
 70
     0
 62
     7
  6
CONTINUOUS
  0
LAYER
  2
DETAIL_BOUNDARY__ISO_
 70
     0
 62
     7
  6
CONTINUOUS
  0
LAYER
  2
DIMENSION__ISO_
 70
     0
 62
     7
  6
CONTINUOUS
  0
LAYER
  2
SYMBOL__ISO_
 70
     0
 62
     7
  6
CONTINUOUS
  0
LAYER
  2
VISIBLE__ISO_
 70
     0
 62
     7
  6
CONTINUOUS
  0
LAYER
  2
DEFPOINTS
 70
     0
 62
     7
  6
CONTINUOUS
  0
ENDTAB
  0
TABLE
  2
STYLE
 70
     6
  0
STYLE
  2
STANDARD
 70
     0
 40
0.0
 41
1.0
 50
0.0
 71
     0
 42
2.5
  3
txt
  4

  0
STYLE
  2
ANNOTATIVE
 70
     0
 40
0.0
 41
1.0
 50
0.0
 71
     0
 42
2.5
  3
txt
  4

  0
STYLE
  2
LABEL_TEXT__ANSI_
 70
     0
 40
0.0
 41
1.0
 50
0.0
 71
     0
 42
0.2
  3
txt
  4

  0
STYLE
  2
NOTE_TEXT__ANSI_
 70
     0
 40
0.0
 41
1.0
 50
0.0
 71
     0
 42
0.2
  3
txt
  4

  0
STYLE
  2
MtXpl_Tahoma
 70
     0
 40
0.0
 41
1.0
 50
0.0
 71
     0
 42
2.5
  3
txt
  4

  0
STYLE
  2
MtXpl_AIGDT
 70
     0
 40
0.0
 41
1.0
 50
0.0
 71
     0
 42
2.5
  3
txt
  4

  0
ENDTAB
  0
TABLE
  2
VIEW
 70
     0
  0
ENDTAB
  0
TABLE
  2
UCS
 70
     0
  0
ENDTAB
  0
TABLE
  2
APPID
 70
     9
  0
APPID
  2
ACAD
 70
     0
  0
APPID
  2
ACAD_PSEXT
 70
     0
  0
APPID
  2
ACADANNOPO
 70
     0
  0
APPID
  2
ACADANNOTATIVE
 70
     0
  0
APPID
  2
ACAD_DSTYLE_DIMJAG
 70
     0
  0
APPID
  2
ACAD_DSTYLE_DIMTALN
 70
     0
  0
APPID
  2
ACAD_MLEADERVER
 70
     0
  0
APPID
  2
ACAD_NAV_VCDISPLAY
 70
     0
  0
APPID
  2
ACAD_EXEMPT_FROM_CAD_STANDARDS
 70
     0
  0
ENDTAB
  0
TABLE
  2
DIMSTYLE
 70
     9
  0
DIMSTYLE
  2
STANDARD
 70
     0
  3

  4

  5

  6

  7

 40
1.0
 41
0.18
 42
0.0625
 43
0.38
 44
0.18
 45
0.0
 46
0.0
 47
0.0
 48
0.0
140
0.18
141
0.09
142
0.0
143
25.3999999999999986
144
1.0
145
0.0
146
1.0
147
0.09
 71
     0
 72
     0
 73
     1
 74
     1
 75
     0
 76
     0
 77
     0
 78
     0
170
     0
171
     2
172
     0
173
     0
174
     0
175
     0
176
     0
177
     0
178
     0
  0
DIMSTYLE
  2
ANNOTATIVE
 70
     0
  3

  4

  5

  6

  7

 40
0.0
 41
2.5
 42
0.625
 43
3.75
 44
1.25
 45
0.0
 46
0.0
 47
0.0
 48
0.0
140
2.5
141
2.5
142
0.0
143
0.03937007874016
144
1.0
145
0.0
146
1.0
147
0.625
 71
     0
 72
     0
 73
     0
 74
     0
 75
     0
 76
     0
 77
     1
 78
     8
170
     0
171
     3
172
     1
173
     0
174
     0
175
     0
176
     0
177
     0
178
     0
  0
DIMSTYLE
  2
ISO-25
 70
     0
  3

  4

  5

  6

  7

 40
1.0
 41
2.5
 42
0.625
 43
3.75
 44
1.25
 45
0.0
 46
0.0
 47
0.0
 48
0.0
140
2.5
141
2.5
142
0.0
143
0.03937007874016
144
1.0
145
0.0
146
1.0
147
0.625
 71
     0
 72
     0
 73
     0
 74
     0
 75
     0
 76
     0
 77
     1
 78
     8
170
     0
171
     3
172
     1
173
     0
174
     0
175
     0
176
     0
177
     0
178
     0
  0
DIMSTYLE
  2
GLOBAL_DESIGN_THREAD_CALLO
 70
     0
  3
 mm
  4
 in
  5

  6

  7

 40
4.0
 41
2.5
 42
1.587499999999999
 43
5.9999999999999991
 44
3.174999999999998
 45
0.00000001
 46
10.0
 47
0.0
 48
0.0
140
2.539999961853026
141
0.09
142
0.0
143
0.03937
144
1.0
145
0.0
146
1.2000000476837149
147
0.8
 71
     0
 72
     0
 73
     1
 74
     1
 75
     0
 76
     0
 77
     0
 78
     8
170
     0
171
     2
172
     1
173
     0
174
     0
175
     0
176
   256
177
   256
178
   256
  0
DIMSTYLE
  2
INTRALOX_ALIGNED_X_X__X_XX
 70
     0
  3

  4

  5

  6

  7

 40
4.0
 41
2.5
 42
1.587499999999999
 43
5.9999999999999991
 44
3.174999999999998
 45
0.00000001
 46
10.0
 47
0.0
 48
0.0
140
2.539999961853026
141
0.09
142
0.0
143
0.03937
144
1.0
145
0.0
146
1.2000000476837149
147
0.8
 71
     0
 72
     0
 73
     1
 74
     1
 75
     0
 76
     0
 77
     0
 78
     0
170
     1
171
     2
172
     1
173
     0
174
     0
175
     0
176
   256
177
   256
178
   256
  0
DIMSTYLE
  2
INTRALOX_HOLE_CALLOUT__MET
 70
     0
  3
 mm
  4
 in
  5

  6

  7

 40
4.0
 41
2.5
 42
1.587499999999999
 43
5.9999999999999991
 44
3.174999999999998
 45
0.00000001
 46
10.0
 47
0.0
 48
0.0
140
2.539999961853026
141
0.09
142
0.0
143
0.03937
144
1.0
145
0.0
146
1.2000000476837149
147
0.8
 71
     0
 72
     0
 73
     1
 74
     1
 75
     0
 76
     0
 77
     0
 78
     8
170
     0
171
     2
172
     1
173
     0
174
     0
175
     0
176
   256
177
   256
178
   256
  0
DIMSTYLE
  2
INTRALOX_X_X__X_XX__MM-INC
 70
     0
  3

  4

  5

  6

  7

 40
4.0
 41
2.5
 42
1.587499999999999
 43
5.9999999999999991
 44
3.174999999999998
 45
0.00000001
 46
10.0
 47
0.0
 48
0.0
140
2.539999961853026
141
0.09
142
0.0
143
0.03937
144
1.0
145
0.0
146
1.2000000476837149
147
0.8
 71
     0
 72
     0
 73
     1
 74
     1
 75
     0
 76
     0
 77
     0
 78
     0
170
     1
171
     2
172
     1
173
     0
174
     0
175
     0
176
   256
177
   256
178
   256
  0
DIMSTYLE
  2
INTRALOX_X_XX__X_XXX__MM-I
 70
     0
  3

  4

  5

  6

  7

 40
4.0
 41
2.5
 42
1.587499999999999
 43
5.9999999999999991
 44
3.174999999999998
 45
0.00000001
 46
17.7800000000000011
 47
0.0
 48
0.0
140
2.539999961853026
141
0.09
142
0.0
143
0.03937
144
1.0
145
0.0
146
1.2000000476837149
147
0.8
 71
     0
 72
     0
 73
     1
 74
     1
 75
     0
 76
     0
 77
     0
 78
     8
170
     1
171
     3
172
     1
173
     0
174
     0
175
     0
176
   256
177
   256
178
   256
  0
ENDTAB
  0
ENDSEC
  0
SECTION
  2
BLOCKS
  0
BLOCK
  8
0
  2
$MODEL_SPACE
 70
     0
 10
0.0
 20
0.0
 30
0.0
  3
$MODEL_SPACE
  1

  0
ENDBLK
  5
21
  8
0
  0
BLOCK
 67
     1
  8
0
  2
$PAPER_SPACE
 70
     0
 10
0.0
 20
0.0
 30
0.0
  3
$PAPER_SPACE
  1

  0
ENDBLK
  5
D5
 67
     1
  8
0
  0
BLOCK
  8
0
  2
_CLOSED
 70
     0
 10
0.0
 20
0.0
 30
0.0
  3
_CLOSED
  1

  0
LINE
  5
297
  8
0
  6
BYBLOCK
 62
     0
 10
-1.0
 20
0.1666666666666666
 30
0.0
 11
0.0
 21
0.0
 31
0.0
  0
LINE
  5
298
  8
0
  6
BYBLOCK
 62
     0
 10
0.0
 20
0.0
 30
0.0
 11
-1.0
 21
-0.1666666666666666
 31
0.0
  0
LINE
  5
299
  8
0
  6
BYBLOCK
 62
     0
 10
-1.0
 20
0.1666666666666666
 30
0.0
 11
-1.0
 21
-0.1666666666666666
 31
0.0
  0
LINE
  5
29A
  8
0
  6
BYBLOCK
 62
     0
 10
0.0
 20
0.0
 30
0.0
 11
-1.0
 21
0.0
 31
0.0
  0
ENDBLK
  5
29B
  8
0
  0
BLOCK
  8
0
  2
*D2
 70
     1
 10
0.0
 20
0.0
 30
0.0
  3
*D2
  1

  0
LINE
  5
29E
  8
DIMENSION__ISO_
 10
121.9003347843163994
 20
335.5269849609128983
 30
0.0
 11
121.9003347843163994
 21
217.4206615725717882
 31
0.0
  0
LINE
  5
29F
  8
DIMENSION__ISO_
 10
745.9503347843165102
 20
356.2259849609133084
 30
0.0
 11
745.9503347843165102
 21
217.4206615725717882
 31
0.0
  0
LINE
  5
2A0
  8
DIMENSION__ISO_
 10
131.9003347843164136
 20
230.1206615725718052
 30
0.0
 11
385.4897951246588832
 21
230.1206615725718052
 31
0.0
  0
LINE
  5
2A1
  8
DIMENSION__ISO_
 10
735.9503347843165102
 20
230.1206615725718052
 30
0.0
 11
482.3608744439737848
 21
230.1206615725718052
 31
0.0
  0
SOLID
  5
2A2
  8
DIMENSION__ISO_
 10
131.9003347843164136
 20
231.7873282392384056
 30
0.0
 11
131.9003347843164136
 21
228.4539949059050912
 31
0.0
 12
121.9003347843163994
 22
230.1206615725718052
 32
0.0
 13
121.9003347843163994
 23
230.1206615725718052
 33
0.0
  0
SOLID
  5
2A3
  8
DIMENSION__ISO_
 10
735.9503347843165102
 20
231.7873282392384056
 30
0.0
 11
735.9503347843165102
 21
228.4539949059050912
 31
0.0
 12
745.9503347843165102
 22
230.1206615725718052
 32
0.0
 13
745.9503347843165102
 23
230.1206615725718052
 33
0.0
  0
INSERT
  5
2A4
  8
0
  2
*U10
 10
0.0
 20
0.0
 30
0.0
  0
POINT
  5
2A5
  8
DEFPOINTS
 62
     0
 10
121.9003347843163994
 20
341.8769849609129778
 30
0.0
  0
POINT
  5
2A6
  8
DEFPOINTS
 62
     0
 10
745.9503347843165102
 20
362.5759849609132743
 30
0.0
  0
POINT
  5
2A7
  8
DEFPOINTS
 62
     0
 10
745.9503347843165102
 20
230.1206615725718052
 30
0.0
  0
ENDBLK
  5
2A8
  8
0
  0
BLOCK
  8
0
  2
*D3
 70
     1
 10
0.0
 20
0.0
 30
0.0
  3
*D3
  1

  0
LINE
  5
2AB
  8
DIMENSION__ISO_
 10
745.9503347843165102
 20
356.2259849609133084
 30
0.0
 11
745.9503347843165102
 21
217.1297094237395129
 31
0.0
  0
LINE
  5
2AC
  8
DIMENSION__ISO_
 10
842.8503347843162601
 20
356.2259849609133084
 30
0.0
 11
842.8503347843162601
 21
217.1297094237395129
 31
0.0
  0
LINE
  5
2AD
  8
DIMENSION__ISO_
 10
755.9503347843165102
 20
229.8297094237395015
 30
0.0
 11
832.8503347843162601
 21
229.8297094237395015
 31
0.0
  0
LINE
  5
2AE
  8
DIMENSION__ISO_
 10
842.8503347843162601
 20
229.8297094237395015
 30
0.0
 11
855.0450972460389494
 21
229.8297094237395015
 31
0.0
  0
SOLID
  5
2AF
  8
DIMENSION__ISO_
 10
755.9503347843165102
 20
231.4963760904061871
 30
0.0
 11
755.9503347843165102
 21
228.1630427570729012
 31
0.0
 12
745.9503347843165102
 22
229.8297094237395015
 32
0.0
 13
745.9503347843165102
 23
229.8297094237395015
 33
0.0
  0
SOLID
  5
2B0
  8
DIMENSION__ISO_
 10
832.8503347843162601
 20
231.4963760904061871
 30
0.0
 11
832.8503347843162601
 21
228.1630427570729012
 31
0.0
 12
842.8503347843162601
 22
229.8297094237395015
 32
0.0
 13
842.8503347843162601
 23
229.8297094237395015
 33
0.0
  0
INSERT
  5
2B1
  8
0
  2
*U11
 10
0.0
 20
0.0
 30
0.0
  0
POINT
  5
2B2
  8
DEFPOINTS
 62
     0
 10
745.9503347843165102
 20
362.5759849609132743
 30
0.0
  0
POINT
  5
2B3
  8
DEFPOINTS
 62
     0
 10
842.8503347843162601
 20
362.5759849609132743
 30
0.0
  0
POINT
  5
2B4
  8
DEFPOINTS
 62
     0
 10
842.8503347843162601
 20
229.8297094237395015
 30
0.0
  0
ENDBLK
  5
2B5
  8
0
  0
BLOCK
  8
0
  2
2DDETAIL0
 70
     0
 10
0.0
 20
0.0
 30
0.0
  3
2DDETAIL0
  1

  0
INSERT
  5
2B8
  8
0
  2
*U12
 10
0.0
 20
0.0
 30
0.0
  0
LINE
  5
2B9
  8
DETAIL_BOUNDARY__ISO_
  6
CONTINUOUS
 10
211.2511773953229124
 20
80.5208831662187663
 30
0.0
 11
206.2511773953229124
 21
80.5208831662187663
 31
0.0
  0
POLYLINE
  5
2BA
  8
DETAIL_BOUNDARY__ISO_
  6
CONTINUOUS
 66
     1
 10
0.0
 20
0.0
 30
0.0
 70
   128
  0
VERTEX
  5
2BB
  8
DETAIL_BOUNDARY__ISO_
  6
CONTINUOUS
 10
211.2511825561524006
 20
81.5208816528320313
 30
0.0
  0
VERTEX
  5
2BC
  8
DETAIL_BOUNDARY__ISO_
  6
CONTINUOUS
 10
206.2511825561522869
 20
80.5208873748779155
 30
0.0
  0
VERTEX
  5
2BD
  8
DETAIL_BOUNDARY__ISO_
  6
CONTINUOUS
 10
211.2511825561524006
 20
79.5208835601806499
 30
0.0
  0
VERTEX
  5
2BE
  8
DETAIL_BOUNDARY__ISO_
  6
CONTINUOUS
 10
211.2511825561524006
 20
81.5208816528320313
 30
0.0
  0
SEQEND
  5
2BF
  8
DETAIL_BOUNDARY__ISO_
  6
CONTINUOUS
  0
SOLID
  5
2C0
  8
DETAIL_BOUNDARY__ISO_
 10
211.2511825561524006
 20
81.5208816528320313
 30
0.0
 11
206.2511825561522869
 21
80.5208873748779155
 31
0.0
 12
211.2511825561524006
 22
79.5208835601806499
 32
0.0
 13
211.2511825561524006
 23
81.5208816528320313
 33
0.0
  0
LINE
  5
2C1
  8
DETAIL_BOUNDARY__ISO_
  6
CONTINUOUS
 10
211.2511773953229124
 20
81.5208831662187663
 30
0.0
 11
206.2511773953229124
 21
80.5208831662187663
 31
0.0
  0
LINE
  5
2C2
  8
DETAIL_BOUNDARY__ISO_
  6
CONTINUOUS
 10
206.2511773953229124
 20
80.5208831662187663
 30
0.0
 11
211.2511773953229124
 21
79.5208831662187663
 31
0.0
  0
LINE
  5
2C3
  8
DETAIL_BOUNDARY__ISO_
  6
CONTINUOUS
 10
211.2511773953229124
 20
79.5208831662187663
 30
0.0
 11
211.2511773953229124
 21
81.5208831662187663
 31
0.0
  0
LINE
  5
2C4
  8
DETAIL_BOUNDARY__ISO_
  6
CONTINUOUS
 10
185.3664185296127016
 20
80.5208831662187663
 30
0.0
 11
190.3664185296127016
 21
80.5208831662187663
 31
0.0
  0
POLYLINE
  5
2C5
  8
DETAIL_BOUNDARY__ISO_
  6
CONTINUOUS
 66
     1
 10
0.0
 20
0.0
 30
0.0
 70
   128
  0
VERTEX
  5
2C6
  8
DETAIL_BOUNDARY__ISO_
  6
CONTINUOUS
 10
185.3664207458496094
 20
79.5208835601806499
 30
0.0
  0
VERTEX
  5
2C7
  8
DETAIL_BOUNDARY__ISO_
  6
CONTINUOUS
 10
190.3664207458496094
 20
80.5208873748779155
 30
0.0
  0
VERTEX
  5
2C8
  8
DETAIL_BOUNDARY__ISO_
  6
CONTINUOUS
 10
185.3664207458496094
 20
81.5208816528320313
 30
0.0
  0
VERTEX
  5
2C9
  8
DETAIL_BOUNDARY__ISO_
  6
CONTINUOUS
 10
185.3664207458496094
 20
79.5208835601806499
 30
0.0
  0
SEQEND
  5
2CA
  8
DETAIL_BOUNDARY__ISO_
  6
CONTINUOUS
  0
SOLID
  5
2CB
  8
DETAIL_BOUNDARY__ISO_
 10
185.3664207458496094
 20
79.5208835601806499
 30
0.0
 11
190.3664207458496094
 21
80.5208873748779155
 31
0.0
 12
185.3664207458496094
 22
81.5208816528320313
 32
0.0
 13
185.3664207458496094
 23
79.5208835601806499
 33
0.0
  0
LINE
  5
2CC
  8
DETAIL_BOUNDARY__ISO_
  6
CONTINUOUS
 10
185.3664185296127016
 20
79.5208831662187663
 30
0.0
 11
190.3664185296127016
 21
80.5208831662187663
 31
0.0
  0
LINE
  5
2CD
  8
DETAIL_BOUNDARY__ISO_
  6
CONTINUOUS
 10
190.3664185296127016
 20
80.5208831662187663
 30
0.0
 11
185.3664185296127016
 21
81.5208831662187663
 31
0.0
  0
LINE
  5
2CE
  8
DETAIL_BOUNDARY__ISO_
  6
CONTINUOUS
 10
185.3664185296127016
 20
81.5208831662187663
 30
0.0
 11
185.3664185296127016
 21
79.5208831662187663
 31
0.0
  0
POLYLINE
  5
2CF
  8
DETAIL_BOUNDARY__ISO_
 66
     1
 10
0.0
 20
0.0
 30
0.0
 70
   128
  0
VERTEX
  5
2D0
  8
DETAIL_BOUNDARY__ISO_
 10
211.2511778943060108
 20
80.5208835617004439
 30
0.0
  0
VERTEX
  5
2D1
  8
DETAIL_BOUNDARY__ISO_
 10
216.141588794422006
 20
80.5208835617004439
 30
0.0
  0
VERTEX
  5
2D2
  8
DETAIL_BOUNDARY__ISO_
 10
216.141588794422006
 20
98.7785450235305831
 30
0.0
  0
VERTEX
  5
2D3
  8
DETAIL_BOUNDARY__ISO_
 10
177.8799928299901865
 20
98.7785450235305831
 30
0.0
  0
VERTEX
  5
2D4
  8
DETAIL_BOUNDARY__ISO_
 10
177.8799928299901865
 20
80.5208835617004439
 30
0.0
  0
VERTEX
  5
2D5
  8
DETAIL_BOUNDARY__ISO_
 10
185.3664184681890958
 20
80.5208835617004439
 30
0.0
  0
SEQEND
  5
2D6
  8
DETAIL_BOUNDARY__ISO_
  0
ENDBLK
  5
2D7
  8
0
  0
BLOCK
  8
0
  2
*D6
 70
     1
 10
0.0
 20
0.0
 30
0.0
  3
*D6
  1

  0
LINE
  5
372
  8
DIMENSION__ISO_
 10
0.0000000000000565
 20
118.3972755371734991
 30
0.0
 11
0.0000000000000492
 21
0.2909521488323321
 31
0.0
  0
LINE
  5
373
  8
DIMENSION__ISO_
 10
624.0500000000000682
 20
139.0962755371737956
 30
0.0
 11
624.0500000000000682
 21
0.2909521488323321
 31
0.0
  0
LINE
  5
374
  8
DIMENSION__ISO_
 10
10.0000000000000497
 20
12.9909521488323207
 30
0.0
 11
263.5894600480735903
 21
12.9909521488323207
 31
0.0
  0
LINE
  5
375
  8
DIMENSION__ISO_
 10
614.0500000000001819
 20
12.9909521488323207
 30
0.0
 11
360.4605399519265916
 21
12.9909521488323207
 31
0.0
  0
SOLID
  5
376
  8
DIMENSION__ISO_
 10
10.0000000000000497
 20
14.6576188154989797
 30
0.0
 11
10.0000000000000497
 21
11.3242854821656493
 31
0.0
 12
0.00000000000005
 22
12.9909521488323207
 32
0.0
 13
0.00000000000005
 23
12.9909521488323207
 33
0.0
  0
SOLID
  5
377
  8
DIMENSION__ISO_
 10
614.0500000000001819
 20
14.6576188154989797
 30
0.0
 11
614.0500000000001819
 21
11.3242854821656493
 31
0.0
 12
624.0500000000000682
 22
12.9909521488323207
 32
0.0
 13
624.0500000000000682
 23
12.9909521488323207
 33
0.0
  0
INSERT
  5
378
  8
0
  2
*U17
 10
0.0
 20
0.0
 30
0.0
  0
POINT
  5
379
  8
DEFPOINTS
 62
     0
 10
0.0000000000000568
 20
124.7472755371734934
 30
0.0
  0
POINT
  5
37A
  8
DEFPOINTS
 62
     0
 10
624.0500000000000682
 20
145.4462755371737899
 30
0.0
  0
POINT
  5
37B
  8
DEFPOINTS
 62
     0
 10
624.0500000000000682
 20
12.9909521488323207
 30
0.0
  0
ENDBLK
  5
35A
  8
0
  0
BLOCK
  8
0
  2
*D7
 70
     1
 10
0.0
 20
0.0
 30
0.0
  3
*D7
  1

  0
LINE
  5
37C
  8
DIMENSION__ISO_
 10
624.0500000000000682
 20
139.0962755371737956
 30
0.0
 11
624.0500000000000682
 21
0.0
 31
0.0
  0
LINE
  5
37D
  8
DIMENSION__ISO_
 10
720.9499999999999318
 20
139.0962755371737956
 30
0.0
 11
720.9499999999999318
 21
0.0
 31
0.0
  0
LINE
  5
37E
  8
DIMENSION__ISO_
 10
634.0500000000001819
 20
12.6999999999999904
 30
0.0
 11
710.9499999999999318
 21
12.6999999999999904
 31
0.0
  0
LINE
  5
37F
  8
DIMENSION__ISO_
 10
720.9499999999999318
 20
12.6999999999999904
 30
0.0
 11
733.1447622183446811
 21
12.6999999999999904
 31
0.0
  0
SOLID
  5
380
  8
DIMENSION__ISO_
 10
634.0500000000001819
 20
14.3666666666666494
 30
0.0
 11
634.0500000000001819
 21
11.0333333333333208
 31
0.0
 12
624.0500000000000682
 22
12.6999999999999904
 32
0.0
 13
624.0500000000000682
 23
12.6999999999999904
 33
0.0
  0
SOLID
  5
381
  8
DIMENSION__ISO_
 10
710.9499999999999318
 20
14.3666666666666494
 30
0.0
 11
710.9499999999999318
 21
11.0333333333333208
 31
0.0
 12
720.9499999999999318
 22
12.6999999999999904
 32
0.0
 13
720.9499999999999318
 23
12.6999999999999904
 33
0.0
  0
INSERT
  5
382
  8
0
  2
*U18
 10
0.0
 20
0.0
 30
0.0
  0
POINT
  5
383
  8
DEFPOINTS
 62
     0
 10
624.0500000000000682
 20
145.4462755371737899
 30
0.0
  0
POINT
  5
384
  8
DEFPOINTS
 62
     0
 10
720.9499999999999318
 20
145.4462755371737899
 30
0.0
  0
POINT
  5
385
  8
DEFPOINTS
 62
     0
 10
720.9499999999999318
 20
12.6999999999999904
 30
0.0
  0
ENDBLK
  5
367
  8
0
  0
BLOCK
  8
0
  2
*U10
 70
     1
 10
0.0
 20
0.0
 30
0.0
  3
*U10
  1

  0
TEXT
  5
422
  8
DIMENSION__ISO_
 10
388.109808565203025
 20
226.3780423783184972
 30
0.0
 40
10.1599998474121094
  1
624.1 [24.569]
  7
MtXpl_Tahoma
  0
ENDBLK
  5
425
  8
0
  0
BLOCK
  8
0
  2
*U11
 70
     1
 10
0.0
 20
0.0
 30
0.0
  3
*U11
  1

  0
TEXT
  5
427
  8
DIMENSION__ISO_
 10
857.7879313697616226
 20
226.0870902294863072
 30
0.0
 40
10.1599998474121094
  1
96.9 [3.815]
  7
MtXpl_Tahoma
  0
ENDBLK
  5
429
  8
0
  0
BLOCK
  8
0
  2
*U12
 70
     1
 10
0.0
 20
0.0
 30
0.0
  3
*U12
  1

  0
TEXT
  5
42B
  8
DETAIL_BOUNDARY__ISO_
 10
196.4498389854736047
 20
78.2348832124719706
 30
0.0
 40
4.5719999074935904
  1
B
  7
MtXpl_Tahoma
  0
ENDBLK
  5
42D
  8
0
  0
BLOCK
  8
0
  2
*U13
 70
     1
 10
0.0
 20
0.0
 30
0.0
  3
*U13
  1

  0
TEXT
  5
430
  8
SYMBOL__ISO_
 10
580.8276873385542558
 20
282.1090107010314227
 30
0.0
 40
10.1600003242492605
  1
8X  
  7
MtXpl_Tahoma
  0
TEXT
  5
431
  8
SYMBOL__ISO_
 10
605.3031212962990821
 20
282.1090107010314227
 30
0.0
 40
10.1600000000000001
  1
n
  7
MtXpl_AIGDT
  0
TEXT
  5
433
  8
SYMBOL__ISO_
 10
617.005144949387045
 20
282.1090107010314227
 30
0.0
 40
10.1600000000000001
  1
6.6 mm THRU
  7
MtXpl_Tahoma
  0
TEXT
  5
434
  8
SYMBOL__ISO_
 10
580.6049952869517483
 20
264.3290089224287271
 30
0.0
 40
10.1600000000000001
  1
n
  7
MtXpl_AIGDT
  0
TEXT
  5
435
  8
SYMBOL__ISO_
 10
592.3070189400398249
 20
264.3290089224287271
 30
0.0
 40
10.1600000000000001
  1
14.5 mm C'SINK X 90°
  7
MtXpl_Tahoma
  0
TEXT
  5
436
  8
SYMBOL__ISO_
 10
580.3022877576237306
 20
246.5490071438260884
 30
0.0
 40
10.1600000000000001
  1
NEAR SIDE
  7
MtXpl_Tahoma
  0
ENDBLK
  5
438
  8
0
  0
BLOCK
  8
0
  2
*U14
 70
     1
 10
0.0
 20
0.0
 30
0.0
  3
*U14
  1

  0
SOLID
  5
43A
  8
SYMBOL__ISO_
 10
488.0904692613207203
 20
188.8982312745903016
 30
0.0
 11
480.3961336302754148
 21
182.2970967528125925
 31
0.0
 12
485.5336507336606928
 22
191.0368733969953894
 32
0.0
 13
485.5336507336606928
 23
191.0368733969953894
 33
0.0
  0
POLYLINE
  5
43B
  8
SYMBOL__ISO_
 66
     1
 10
0.0
 20
0.0
 30
0.0
  0
VERTEX
  5
43C
  8
SYMBOL__ISO_
 10
486.8120599974906781
 20
189.9675523357927887
 30
0.0
  0
VERTEX
  5
43D
  8
SYMBOL__ISO_
 10
568.1326168375430825
 20
287.1890108631559997
 30
0.0
  0
VERTEX
  5
43E
  8
SYMBOL__ISO_
 10
578.1326168375429688
 20
287.1890108631559997
 30
0.0
  0
SEQEND
  5
43F
  8
SYMBOL__ISO_
  0
ENDBLK
  5
441
  8
0
  0
BLOCK
  8
0
  2
*U15
 70
     1
 10
0.0
 20
0.0
 30
0.0
  3
*U15
  1

  0
TEXT
  5
443
  8
SYMBOL__ISO_
 10
1139.8832632271239618
 20
57.9395591654372595
 30
0.0
 40
10.1600003242492605
  1
 
  7
MtXpl_Tahoma
  0
TEXT
  5
444
  8
SYMBOL__ISO_
 10
1144.2502210562170148
 20
57.9395591654372595
 30
0.0
 40
10.1600000000000001
  1
n
  7
MtXpl_AIGDT
  0
TEXT
  5
445
  8
SYMBOL__ISO_
 10
1155.9522447093058872
 20
57.9395591654372595
 30
0.0
 40
10.1600000000000001
  1
20 mm THRU
  7
MtXpl_Tahoma
  0
ENDBLK
  5
447
  8
0
  0
BLOCK
  8
0
  2
*U16
 70
     1
 10
0.0
 20
0.0
 30
0.0
  3
*U16
  1

  0
SOLID
  5
449
  8
SYMBOL__ISO_
 10
1081.1844032660881112
 20
151.6721700070050076
 30
0.0
 11
1078.2631266937569308
 21
161.3801008352365898
 31
0.0
 12
1084.1750145307939874
 22
153.1443640752328861
 32
0.0
 13
1084.1750145307939874
 23
153.1443640752328861
 33
0.0
  0
POLYLINE
  5
44A
  8
SYMBOL__ISO_
 66
     1
 10
0.0
 20
0.0
 30
0.0
  0
VERTEX
  5
44B
  8
SYMBOL__ISO_
 10
1082.6797088984410493
 20
152.4082670411189895
 30
0.0
  0
VERTEX
  5
44C
  8
SYMBOL__ISO_
 10
1126.6832632271239163
 20
63.0195593275619004
 30
0.0
  0
VERTEX
  5
44D
  8
SYMBOL__ISO_
 10
1136.6832632271239163
 20
63.0195593275619004
 30
0.0
  0
SEQEND
  5
44E
  8
SYMBOL__ISO_
  0
ENDBLK
  5
450
  8
0
  0
BLOCK
  8
0
  2
*U17
 70
     1
 10
0.0
 20
0.0
 30
0.0
  3
*U17
  1

  0
TEXT
  5
452
  8
DIMENSION__ISO_
 10
266.2094734886176184
 20
9.2483329975189967
 30
0.0
 40
10.1599998474121094
  1
624.1 [24.569]
  7
MtXpl_Tahoma
  0
ENDBLK
  5
454
  8
0
  0
BLOCK
  8
0
  2
*U18
 70
     1
 10
0.0
 20
0.0
 30
0.0
  3
*U18
  1

  0
TEXT
  5
456
  8
DIMENSION__ISO_
 10
735.887596342067468
 20
8.9573808486866646
 30
0.0
 40
10.1599998474121094
  1
96.9 [3.815]
  7
MtXpl_Tahoma
  0
ENDBLK
  5
458
  8
0
  0
ENDSEC
  0
SECTION
  2
ENTITIES
  0
CIRCLE
  5
3AF
  8
VISIBLE__ISO_
 10
25.3350000000002389
 20
1073.9169999999999163
 30
0.0
 40
10.0
  0
ARC
  5
3B0
  8
VISIBLE__ISO_
 10
4.8259999999999357
 20
4.8259999999996639
 30
0.0
 40
4.825999999999623
 50
179.9999999999967031
 51
270.0
  0
ARC
  5
3B1
  8
VISIBLE__ISO_
 10
70.9740000000007001
 20
4.8259999999996612
 30
0.0
 40
4.8259999999996612
 50
270.0
 51
0.0000000000032429
  0
ARC
  5
3B2
  8
VISIBLE__ISO_
 10
70.9740000000002169
 20
1340.1739999999999782
 30
0.0
 40
4.8260000000000041
 50
0.0
 51
90.0
  0
ARC
  5
3B3
  8
VISIBLE__ISO_
 10
4.8260000000000209
 20
1340.1739999999999782
 30
0.0
 40
4.8260000000000227
 50
90.0
 51
180.0
  0
LINE
  5
3B4
  8
VISIBLE__ISO_
 10
0.0000000000003126
 20
4.8259999999999481
 30
0.0
 11
0.0000000000001137
 21
1340.1739999999999782
 31
0.0
  0
CIRCLE
  5
3B5
  8
VISIBLE__ISO_
 10
15.9999999999999396
 20
1255.0
 30
0.0
 40
7.25
  0
CIRCLE
  5
3B6
  8
VISIBLE__ISO_
 10
16.0000000000002487
 20
866.6666666666668561
 30
0.0
 40
7.25
  0
CIRCLE
  5
3B7
  8
VISIBLE__ISO_
 10
16.0000000000002203
 20
478.3333333333334281
 30
0.0
 40
7.25
  0
CIRCLE
  5
3B8
  8
VISIBLE__ISO_
 10
16.0000000000004796
 20
90.0000000000000711
 30
0.0
 40
7.25
  0
CIRCLE
  5
3B9
  8
VISIBLE__ISO_
 10
15.9999999999999396
 20
1255.0
 30
0.0
 40
3.2999999999999989
  0
CIRCLE
  5
3BA
  8
VISIBLE__ISO_
 10
16.0000000000002487
 20
866.6666666666668561
 30
0.0
 40
3.2999999999999989
  0
CIRCLE
  5
3BB
  8
VISIBLE__ISO_
 10
16.0000000000002203
 20
478.3333333333334281
 30
0.0
 40
3.2999999999999989
  0
CIRCLE
  5
3BC
  8
VISIBLE__ISO_
 10
16.0000000000004796
 20
90.0000000000000711
 30
0.0
 40
3.2999999999999989
  0
ARC
  5
3BD
  8
VISIBLE__ISO_
 10
50.2749999999999773
 20
628.0500000000000682
 30
0.0
 40
3.9999999999999978
 50
180.0
 51
0.0
  0
LINE
  5
3BE
  8
VISIBLE__ISO_
 10
46.2749999999999702
 20
628.0500000000000682
 30
0.0
 11
46.2749999999999986
 21
716.9500000000000455
 31
0.0
  0
ARC
  5
3BF
  8
VISIBLE__ISO_
 10
50.2749999999999986
 20
716.9500000000000455
 30
0.0
 40
4.0
 50
0.0
 51
180.0
  0
LINE
  5
3C0
  8
VISIBLE__ISO_
 10
54.2750000000000128
 20
716.9500000000000455
 30
0.0
 11
54.2749999999999773
 21
628.0500000000000682
 31
0.0
  0
CIRCLE
  5
3C1
  8
VISIBLE__ISO_
 10
59.8000000000002387
 20
1255.0
 30
0.0
 40
7.25
  0
CIRCLE
  5
3C2
  8
VISIBLE__ISO_
 10
59.8000000000002103
 20
866.6666666666668561
 30
0.0
 40
7.25
  0
CIRCLE
  5
3C3
  8
VISIBLE__ISO_
 10
59.8000000000001819
 20
478.3333333333334281
 30
0.0
 40
7.25
  0
CIRCLE
  5
3C4
  8
VISIBLE__ISO_
 10
59.8000000000002387
 20
1255.0
 30
0.0
 40
3.2999999999999989
  0
CIRCLE
  5
3C5
  8
VISIBLE__ISO_
 10
59.8000000000002103
 20
866.6666666666668561
 30
0.0
 40
3.2999999999999989
  0
CIRCLE
  5
3C6
  8
VISIBLE__ISO_
 10
59.8000000000001819
 20
478.3333333333334281
 30
0.0
 40
3.2999999999999989
  0
CIRCLE
  5
3C7
  8
VISIBLE__ISO_
 10
59.8000000000001535
 20
90.0000000000000711
 30
0.0
 40
7.25
  0
CIRCLE
  5
3C8
  8
VISIBLE__ISO_
 10
59.8000000000001535
 20
90.0000000000000711
 30
0.0
 40
3.2999999999999989
  0
LINE
  5
3C9
  8
VISIBLE__ISO_
 10
70.9740000000003022
 20
0.0000000000000512
 30
0.0
 11
4.8260000000005041
 21
0.0000000000000552
 31
0.0
  0
LINE
  5
3CA
  8
VISIBLE__ISO_
 10
75.8000000000002387
 20
1340.1739999999999782
 30
0.0
 11
75.800000000000324
 21
4.8259999999999437
 31
0.0
  0
LINE
  5
3CB
  8
VISIBLE__ISO_
 10
4.8260000000000209
 20
1344.9999999999990905
 30
0.0
 11
70.9740000000002169
 21
1344.9999999999990905
 31
0.0
  0
ENDSEC
  0
EOF
