  0
SECTION
  2
HEADER
  9
$ACADVER
  1
AC1009
  9
$INSBASE
 10
0.0
 20
0.0
 30
0.0
  9
$EXTMIN
 10
-0.4648423205081437
 20
0.0
 30
0.0
  9
$EXTMAX
 10
395.0693926062028254
 20
385.0551650682579066
 30
0.0
  9
$LIMMIN
 10
0.0
 20
0.0
  9
$LIMMAX
 10
420.0
 20
297.0
  9
$ORTHOMODE
 70
     0
  9
$REGENMODE
 70
     1
  9
$FILLMODE
 70
     1
  9
$QTEXTMODE
 70
     0
  9
$MIRRTEXT
 70
     0
  9
$DRAGMODE
 70
     2
  9
$LTSCALE
 40
1.0
  9
$OSMODE
 70
  3447
  9
$ATTMODE
 70
     1
  9
$TEXTSIZE
 40
2.5
  9
$TRACEWID
 40
1.0
  9
$TEXTSTYLE
  7
STANDARD
  9
$CLAYER
  8
0
  9
$CELTYPE
  6
BYLAYER
  9
$CECOLOR
 62
   256
  9
$DIMSCALE
 40
1.0
  9
$DIMASZ
 40
2.5
  9
$DIMEXO
 40
0.625
  9
$DIMDLI
 40
3.75
  9
$DIMRND
 40
0.0
  9
$DIMDLE
 40
0.0
  9
$DIMEXE
 40
1.25
  9
$DIMTP
 40
0.0
  9
$DIMTM
 40
0.0
  9
$DIMTXT
 40
2.5
  9
$DIMCEN
 40
2.5
  9
$DIMTSZ
 40
0.0
  9
$DIMTOL
 70
     0
  9
$DIMLIM
 70
     0
  9
$DIMTIH
 70
     0
  9
$DIMTOH
 70
     0
  9
$DIMSE1
 70
     0
  9
$DIMSE2
 70
     0
  9
$DIMTAD
 70
     1
  9
$DIMZIN
 70
     8
  9
$DIMBLK
  1

  9
$DIMASO
 70
     1
  9
$DIMSHO
 70
     1
  9
$DIMPOST
  1

  9
$DIMAPOST
  1

  9
$DIMALT
 70
     0
  9
$DIMALTD
 70
     3
  9
$DIMALTF
 40
0.03937007874016
  9
$DIMLFAC
 40
1.0
  9
$DIMTOFL
 70
     1
  9
$DIMTVP
 40
0.0
  9
$DIMTIX
 70
     0
  9
$DIMSOXD
 70
     0
  9
$DIMSAH
 70
     0
  9
$DIMBLK1
  1

  9
$DIMBLK2
  1

  9
$DIMSTYLE
  2
ISO-25
  9
$DIMCLRD
 70
     0
  9
$DIMCLRE
 70
     0
  9
$DIMCLRT
 70
     0
  9
$DIMTFAC
 40
1.0
  9
$DIMGAP
 40
0.625
  9
$LUNITS
 70
     2
  9
$LUPREC
 70
     4
  9
$SKETCHINC
 40
1.0
  9
$FILLETRAD
 40
0.0
  9
$AUNITS
 70
     0
  9
$AUPREC
 70
     0
  9
$MENU
  1
.
  9
$ELEVATION
 40
0.0
  9
$PELEVATION
 40
0.0
  9
$THICKNESS
 40
0.0
  9
$LIMCHECK
 70
     0
  9
$BLIPMODE
 70
     0
  9
$CHAMFERA
 40
0.0
  9
$CHAMFERB
 40
0.0
  9
$SKPOLY
 70
     0
  9
$TDCREATE
 40
2460447.6045370372012258
  9
$TDUPDATE
 40
2460447.6357986112125218
  9
$TDINDWG
 40
0.0312731481
  9
$TDUSRTIMER
 40
0.0312731481
  9
$USRTIMER
 70
     1
  9
$ANGBASE
 50
0.0
  9
$ANGDIR
 70
     0
  9
$PDMODE
 70
     0
  9
$PDSIZE
 40
0.0
  9
$PLINEWID
 40
0.0
  9
$COORDS
 70
     1
  9
$SPLFRAME
 70
     0
  9
$SPLINETYPE
 70
     6
  9
$SPLINESEGS
 70
     8
  9
$ATTDIA
 70
     1
  9
$ATTREQ
 70
     1
  9
$HANDLING
 70
     1
  9
$HANDSEED
  5
848
  9
$SURFTAB1
 70
     6
  9
$SURFTAB2
 70
     6
  9
$SURFTYPE
 70
     6
  9
$SURFU
 70
     6
  9
$SURFV
 70
     6
  9
$UCSNAME
  2

  9
$UCSORG
 10
0.0
 20
0.0
 30
0.0
  9
$UCSXDIR
 10
1.0
 20
0.0
 30
0.0
  9
$UCSYDIR
 10
0.0
 20
1.0
 30
0.0
  9
$PUCSNAME
  2

  9
$PUCSORG
 10
0.0
 20
0.0
 30
0.0
  9
$PUCSXDIR
 10
1.0
 20
0.0
 30
0.0
  9
$PUCSYDIR
 10
0.0
 20
1.0
 30
0.0
  9
$USERI1
 70
     0
  9
$USERI2
 70
     0
  9
$USERI3
 70
     0
  9
$USERI4
 70
     0
  9
$USERI5
 70
     0
  9
$USERR1
 40
0.0
  9
$USERR2
 40
0.0
  9
$USERR3
 40
0.0
  9
$USERR4
 40
0.0
  9
$USERR5
 40
0.0
  9
$WORLDVIEW
 70
     1
  9
$SHADEDGE
 70
     3
  9
$SHADEDIF
 70
    70
  9
$TILEMODE
 70
     1
  9
$MAXACTVP
 70
    64
  9
$PLIMCHECK
 70
     0
  9
$PEXTMIN
 10
0.0
 20
0.0
 30
0.0
  9
$PEXTMAX
 10
0.0
 20
0.0
 30
0.0
  9
$PLIMMIN
 10
0.0
 20
0.0
  9
$PLIMMAX
 10
12.0
 20
9.0
  9
$UNITMODE
 70
     0
  9
$VISRETAIN
 70
     1
  9
$PLINEGEN
 70
     0
  9
$PSLTSCALE
 70
     1
  0
ENDSEC
  0
SECTION
  2
TABLES
  0
TABLE
  2
VPORT
 70
     1
  0
VPORT
  2
*ACTIVE
 70
     0
 10
0.0
 20
0.0
 11
1.0
 21
1.0
 12
360.6337396099066268
 22
29.7579632630554514
 13
0.0
 23
0.0
 14
10.0
 24
10.0
 15
10.0
 25
10.0
 16
0.0
 26
0.0
 36
1.0
 17
0.0
 27
0.0
 37
0.0
 40
679.7895198560389645
 41
2.0480256136606192
 42
50.0
 43
0.0
 44
0.0
 50
0.0
 51
0.0
 71
     0
 72
  1000
 73
     1
 74
     3
 75
     0
 76
     1
 77
     0
 78
     0
  0
ENDTAB
  0
TABLE
  2
LTYPE
 70
     4
  0
LTYPE
  2
CONTINUOUS
 70
     0
  3
Solid line
 72
    65
 73
     0
 40
0.0
  0
LTYPE
  2
CHAIN
 70
     0
  3
Chain ____ _ ____ _ ____ _ ____ _ ____ _ ____
 72
    65
 73
     4
 40
0.7087
 49
0.4724000000000001
 49
-0.0591
 49
0.1181
 49
-0.0591
  0
ENDTAB
  0
TABLE
  2
LAYER
 70
     8
  0
LAYER
  2
0
 70
     0
 62
     7
  6
CONTINUOUS
  0
LAYER
  2
CENTER_MARK__ISO_
 70
     0
 62
     7
  6
CONTINUOUS
  0
LAYER
  2
CENTERLINE__ISO_
 70
     0
 62
     7
  6
CONTINUOUS
  0
LAYER
  2
DIMENSION__ISO_
 70
     0
 62
     7
  6
CONTINUOUS
  0
LAYER
  2
SECTION_LINE__ISO_
 70
     0
 62
     7
  6
CHAIN
  0
LAYER
  2
SYMBOL__ISO_
 70
     0
 62
     7
  6
CONTINUOUS
  0
LAYER
  2
VISIBLE__ISO_
 70
     0
 62
     7
  6
CONTINUOUS
  0
LAYER
  2
DEFPOINTS
 70
     0
 62
     7
  6
CONTINUOUS
  0
ENDTAB
  0
TABLE
  2
STYLE
 70
     6
  0
STYLE
  2
STANDARD
 70
     0
 40
0.0
 41
1.0
 50
0.0
 71
     0
 42
2.5
  3
txt
  4

  0
STYLE
  2
ANNOTATIVE
 70
     0
 40
0.0
 41
1.0
 50
0.0
 71
     0
 42
2.5
  3
txt
  4

  0
STYLE
  2
LABEL_TEXT__ANSI_
 70
     0
 40
0.0
 41
1.0
 50
0.0
 71
     0
 42
0.2
  3
txt
  4

  0
STYLE
  2
NOTE_TEXT__ANSI_
 70
     0
 40
0.0
 41
1.0
 50
0.0
 71
     0
 42
0.2
  3
txt
  4

  0
STYLE
  2
MtXpl_Tahoma
 70
     0
 40
0.0
 41
1.0
 50
0.0
 71
     0
 42
2.5
  3
txt
  4

  0
STYLE
  2
MtXpl_AIGDT
 70
     0
 40
0.0
 41
1.0
 50
0.0
 71
     0
 42
2.5
  3
txt
  4

  0
ENDTAB
  0
TABLE
  2
VIEW
 70
     0
  0
ENDTAB
  0
TABLE
  2
UCS
 70
     0
  0
ENDTAB
  0
TABLE
  2
APPID
 70
    11
  0
APPID
  2
ACAD
 70
     0
  0
APPID
  2
ACAD_PSEXT
 70
     0
  0
APPID
  2
ACADANNOPO
 70
     0
  0
APPID
  2
ACADANNOTATIVE
 70
     0
  0
APPID
  2
ACAD_DSTYLE_DIMJAG
 70
     0
  0
APPID
  2
ACAD_DSTYLE_DIMTALN
 70
     0
  0
APPID
  2
ACAD_MLEADERVER
 70
     0
  0
APPID
  2
ACAD_NAV_VCDISPLAY
 70
     0
  0
APPID
  2
ACAD_DSTYLE_DIMRADIAL_EXTENSION
 70
     0
  0
APPID
  2
ACAD_DSTYLE_DIMANGULAR_EXT
 70
     0
  0
APPID
  2
ACAD_EXEMPT_FROM_CAD_STANDARDS
 70
     0
  0
ENDTAB
  0
TABLE
  2
DIMSTYLE
 70
     8
  0
DIMSTYLE
  2
STANDARD
 70
     0
  3

  4

  5

  6

  7

 40
1.0
 41
0.18
 42
0.0625
 43
0.38
 44
0.18
 45
0.0
 46
0.0
 47
0.0
 48
0.0
140
0.18
141
0.09
142
0.0
143
25.3999999999999986
144
1.0
145
0.0
146
1.0
147
0.09
 71
     0
 72
     0
 73
     1
 74
     1
 75
     0
 76
     0
 77
     0
 78
     0
170
     0
171
     2
172
     0
173
     0
174
     0
175
     0
176
     0
177
     0
178
     0
  0
DIMSTYLE
  2
ANNOTATIVE
 70
     0
  3

  4

  5

  6

  7

 40
0.0
 41
2.5
 42
0.625
 43
3.75
 44
1.25
 45
0.0
 46
0.0
 47
0.0
 48
0.0
140
2.5
141
2.5
142
0.0
143
0.03937007874016
144
1.0
145
0.0
146
1.0
147
0.625
 71
     0
 72
     0
 73
     0
 74
     0
 75
     0
 76
     0
 77
     1
 78
     8
170
     0
171
     3
172
     1
173
     0
174
     0
175
     0
176
     0
177
     0
178
     0
  0
DIMSTYLE
  2
ISO-25
 70
     0
  3

  4

  5

  6

  7

 40
1.0
 41
2.5
 42
0.625
 43
3.75
 44
1.25
 45
0.0
 46
0.0
 47
0.0
 48
0.0
140
2.5
141
2.5
142
0.0
143
0.03937007874016
144
1.0
145
0.0
146
1.0
147
0.625
 71
     0
 72
     0
 73
     0
 74
     0
 75
     0
 76
     0
 77
     1
 78
     8
170
     0
171
     3
172
     1
173
     0
174
     0
175
     0
176
     0
177
     0
178
     0
  0
DIMSTYLE
  2
INTRALOX_HOLE_CALLOUT__MET
 70
     0
  3

  4

  5

  6

  7

 40
2.5
 41
2.5
 42
1.587499999999999
 43
5.9999999999999991
 44
3.174999999999998
 45
0.00000001
 46
10.0
 47
0.0
 48
0.0
140
2.539999961853026
141
0.09
142
0.0
143
0.03937
144
1.0
145
0.0
146
1.2000000476837149
147
0.8
 71
     0
 72
     0
 73
     1
 74
     1
 75
     0
 76
     0
 77
     0
 78
     8
170
     1
171
     3
172
     1
173
     0
174
     0
175
     0
176
   256
177
   256
178
   256
  0
DIMSTYLE
  2
INTRALOX_X_X__X_XX__MM-INC
 70
     0
  3

  4

  5

  6

  7

 40
2.5
 41
2.5
 42
1.587499999999999
 43
5.9999999999999991
 44
3.174999999999998
 45
0.00000001
 46
10.0
 47
0.0
 48
0.0
140
2.539999961853026
141
0.09
142
0.0
143
0.03937
144
1.0
145
0.0
146
1.2000000476837149
147
0.8
 71
     0
 72
     0
 73
     1
 74
     1
 75
     0
 76
     0
 77
     0
 78
     0
170
     1
171
     2
172
     1
173
     0
174
     0
175
     0
176
   256
177
   256
178
   256
  0
DIMSTYLE
  2
INTRALOX_X_XX__X_XXX__MM-I
 70
     0
  3

  4

  5

  6

  7

 40
2.5
 41
2.5
 42
1.587499999999999
 43
5.9999999999999991
 44
3.174999999999998
 45
0.00000001
 46
17.7800000000000011
 47
0.0
 48
0.0
140
2.539999961853026
141
0.09
142
0.0
143
0.03937
144
1.0
145
0.0
146
1.2000000476837149
147
0.8
 71
     0
 72
     0
 73
     1
 74
     1
 75
     0
 76
     0
 77
     0
 78
     8
170
     1
171
     3
172
     1
173
     0
174
     0
175
     0
176
   256
177
   256
178
   256
  0
ENDTAB
  0
ENDSEC
  0
SECTION
  2
BLOCKS
  0
BLOCK
  8
0
  2
$MODEL_SPACE
 70
     0
 10
0.0
 20
0.0
 30
0.0
  3
$MODEL_SPACE
  1

  0
ENDBLK
  5
21
  8
0
  0
BLOCK
 67
     1
  8
0
  2
$PAPER_SPACE
 70
     0
 10
0.0
 20
0.0
 30
0.0
  3
$PAPER_SPACE
  1

  0
ENDBLK
  5
D5
 67
     1
  8
0
  0
BLOCK
  8
0
  2
_CLOSED
 70
     0
 10
0.0
 20
0.0
 30
0.0
  3
_CLOSED
  1

  0
LINE
  5
297
  8
0
  6
BYBLOCK
 62
     0
 10
-1.0
 20
0.1666666666666666
 30
0.0
 11
0.0
 21
0.0
 31
0.0
  0
LINE
  5
298
  8
0
  6
BYBLOCK
 62
     0
 10
0.0
 20
0.0
 30
0.0
 11
-1.0
 21
-0.1666666666666666
 31
0.0
  0
LINE
  5
299
  8
0
  6
BYBLOCK
 62
     0
 10
-1.0
 20
0.1666666666666666
 30
0.0
 11
-1.0
 21
-0.1666666666666666
 31
0.0
  0
LINE
  5
29A
  8
0
  6
BYBLOCK
 62
     0
 10
0.0
 20
0.0
 30
0.0
 11
-1.0
 21
0.0
 31
0.0
  0
ENDBLK
  5
29B
  8
0
  0
BLOCK
  8
0
  2
*D2
 70
     1
 10
0.0
 20
0.0
 30
0.0
  3
*D2
  1

  0
LINE
  5
29E
  8
DIMENSION__ISO_
 10
172.6769994608523859
 20
393.3262520007198191
 30
0.0
 11
172.6769994608523859
 21
473.495002000719694
 31
0.0
  0
LINE
  5
29F
  8
DIMENSION__ISO_
 10
285.5269994608524939
 20
393.3262520007198191
 30
0.0
 11
285.5269994608524939
 21
473.495002000719694
 31
0.0
  0
LINE
  5
2A0
  8
DIMENSION__ISO_
 10
178.9269994608523859
 20
465.557502000719694
 30
0.0
 11
201.5143572972330048
 21
465.557502000719694
 31
0.0
  0
LINE
  5
2A1
  8
DIMENSION__ISO_
 10
279.2769994608524939
 20
465.557502000719694
 30
0.0
 11
256.6896416244720172
 21
465.557502000719694
 31
0.0
  0
SOLID
  5
2A2
  8
DIMENSION__ISO_
 10
178.9269994608523859
 20
466.5991686673863228
 30
0.0
 11
178.9269994608523859
 21
464.5158353340528947
 31
0.0
 12
172.6769994608523859
 22
465.557502000719694
 32
0.0
 13
172.6769994608523859
 23
465.557502000719694
 33
0.0
  0
SOLID
  5
2A3
  8
DIMENSION__ISO_
 10
279.2769994608524939
 20
466.5991686673863228
 30
0.0
 11
279.2769994608524939
 21
464.5158353340528947
 31
0.0
 12
285.5269994608524939
 22
465.557502000719694
 32
0.0
 13
285.5269994608524939
 23
465.557502000719694
 33
0.0
  0
INSERT
  5
2A4
  8
0
  2
*U33
 10
0.0
 20
0.0
 30
0.0
  0
POINT
  5
2A5
  8
DEFPOINTS
 62
     0
 10
172.6769994608523859
 20
389.3575020007198191
 30
0.0
  0
POINT
  5
2A6
  8
DEFPOINTS
 62
     0
 10
285.5269994608524939
 20
389.3575020007198191
 30
0.0
  0
POINT
  5
2A7
  8
DEFPOINTS
 62
     0
 10
285.5269994608524939
 20
465.557502000719694
 30
0.0
  0
ENDBLK
  5
2A8
  8
0
  0
BLOCK
  8
0
  2
*D3
 70
     1
 10
0.0
 20
0.0
 30
0.0
  3
*D3
  1

  0
LINE
  5
2AB
  8
DIMENSION__ISO_
 10
147.2769994608524087
 20
391.4592520007196867
 30
0.0
 11
147.2769994608524087
 21
473.4950020007195803
 31
0.0
  0
LINE
  5
2AC
  8
DIMENSION__ISO_
 10
172.6769994608523859
 20
393.3262520007198191
 30
0.0
 11
172.6769994608523859
 21
473.4950020007195803
 31
0.0
  0
LINE
  5
2AD
  8
DIMENSION__ISO_
 10
166.4269994608523859
 20
465.5575020007195235
 30
0.0
 11
153.5269994608524087
 21
465.5575020007195235
 31
0.0
  0
LINE
  5
2AE
  8
DIMENSION__ISO_
 10
147.2769994608524087
 20
465.5575020007195235
 30
0.0
 11
130.6834065350244884
 21
465.5575020007195235
 31
0.0
  0
SOLID
  5
2AF
  8
DIMENSION__ISO_
 10
166.4269994608523859
 20
466.5991686673863228
 30
0.0
 11
166.4269994608523859
 21
464.515835334052781
 31
0.0
 12
172.6769994608523859
 22
465.5575020007195235
 32
0.0
 13
172.6769994608523859
 23
465.5575020007195235
 33
0.0
  0
SOLID
  5
2B0
  8
DIMENSION__ISO_
 10
153.5269994608524087
 20
466.5991686673863228
 30
0.0
 11
153.5269994608524087
 21
464.515835334052781
 31
0.0
 12
147.2769994608524087
 22
465.5575020007195235
 32
0.0
 13
147.2769994608524087
 23
465.5575020007195235
 33
0.0
  0
INSERT
  5
2B1
  8
0
  2
*U34
 10
0.0
 20
0.0
 30
0.0
  0
POINT
  5
2B2
  8
DEFPOINTS
 62
     0
 10
147.2769994608524087
 20
387.4905020007196867
 30
0.0
  0
POINT
  5
2B3
  8
DEFPOINTS
 62
     0
 10
172.6769994608523859
 20
389.3575020007198191
 30
0.0
  0
POINT
  5
2B4
  8
DEFPOINTS
 62
     0
 10
172.6769994608523859
 20
465.5575020007195235
 30
0.0
  0
ENDBLK
  5
2B5
  8
0
  0
BLOCK
  8
0
  2
*D4
 70
     1
 10
0.0
 20
0.0
 30
0.0
  3
*D4
  1

  0
LINE
  5
2B8
  8
DIMENSION__ISO_
 10
149.658249460852403
 20
403.0355020007198732
 30
0.0
 11
93.6296450971337038
 21
403.0355020007198732
 31
0.0
  0
LINE
  5
2B9
  8
DIMENSION__ISO_
 10
155.4582494608524996
 20
376.1075020007198759
 30
0.0
 11
93.6296450971337038
 21
376.1075020007198191
 31
0.0
  0
LINE
  5
2BA
  8
DIMENSION__ISO_
 10
101.5671450971337038
 20
396.7855020007198732
 30
0.0
 11
101.5671450971337038
 21
382.3575020007198191
 31
0.0
  0
LINE
  5
2BB
  8
DIMENSION__ISO_
 10
101.5671450971337038
 20
376.1075020007198191
 30
0.0
 11
101.5671450971337038
 21
341.9112553314496949
 31
0.0
  0
LINE
  5
2BC
  8
DIMENSION__ISO_
 10
101.5671450971337038
 20
341.9112553314496949
 30
0.0
 11
95.317145097133718
 21
341.9112553314496949
 31
0.0
  0
SOLID
  5
2BD
  8
DIMENSION__ISO_
 10
100.5254784304670039
 20
396.7855020007198732
 30
0.0
 11
102.6088117638003041
 21
396.7855020007198732
 31
0.0
 12
101.5671450971337038
 22
403.0355020007198732
 32
0.0
 13
101.5671450971337038
 23
403.0355020007198732
 33
0.0
  0
SOLID
  5
2BE
  8
DIMENSION__ISO_
 10
100.5254784304670039
 20
382.3575020007198191
 30
0.0
 11
102.6088117638003041
 21
382.3575020007198191
 31
0.0
 12
101.5671450971337038
 22
376.1075020007198191
 32
0.0
 13
101.5671450971337038
 23
376.1075020007198191
 33
0.0
  0
INSERT
  5
2BF
  8
0
  2
*U35
 10
0.0
 20
0.0
 30
0.0
  0
POINT
  5
2C0
  8
DEFPOINTS
 62
     0
 10
153.626999460852403
 20
403.0355020007198732
 30
0.0
  0
POINT
  5
2C1
  8
DEFPOINTS
 62
     0
 10
159.4269994608524996
 20
376.1075020007198759
 30
0.0
  0
POINT
  5
2C2
  8
DEFPOINTS
 62
     0
 10
101.5671450971337038
 20
376.1075020007198191
 30
0.0
  0
ENDBLK
  5
2C3
  8
0
  0
BLOCK
  8
0
  2
*D5
 70
     1
 10
0.0
 20
0.0
 30
0.0
  3
*D5
  1

  0
LINE
  5
2C6
  8
DIMENSION__ISO_
 10
147.2769994608524087
 20
400.6542520007196231
 30
0.0
 11
147.2769994608524087
 21
490.778853101465586
 31
0.0
  0
LINE
  5
2C7
  8
DIMENSION__ISO_
 10
343.6167994608525191
 20
400.6542520007196231
 30
0.0
 11
343.6167994608525191
 21
490.778853101465586
 31
0.0
  0
LINE
  5
2C8
  8
DIMENSION__ISO_
 10
153.5269994608524087
 20
482.8413531014654723
 30
0.0
 11
217.8592572972330004
 21
482.8413531014654723
 31
0.0
  0
LINE
  5
2C9
  8
DIMENSION__ISO_
 10
337.3667994608525191
 20
482.8413531014654723
 30
0.0
 11
273.0345416244720127
 21
482.8413531014654723
 31
0.0
  0
SOLID
  5
2CA
  8
DIMENSION__ISO_
 10
153.5269994608524087
 20
483.883019768132101
 30
0.0
 11
153.5269994608524087
 21
481.799686434798673
 31
0.0
 12
147.2769994608524087
 22
482.8413531014654723
 32
0.0
 13
147.2769994608524087
 23
482.8413531014654723
 33
0.0
  0
SOLID
  5
2CB
  8
DIMENSION__ISO_
 10
337.3667994608525191
 20
483.883019768132101
 30
0.0
 11
337.3667994608525191
 21
481.799686434798673
 31
0.0
 12
343.6167994608525191
 22
482.8413531014654723
 32
0.0
 13
343.6167994608525191
 23
482.8413531014654723
 33
0.0
  0
INSERT
  5
2CC
  8
0
  2
*U36
 10
0.0
 20
0.0
 30
0.0
  0
POINT
  5
2CD
  8
DEFPOINTS
 62
     0
 10
147.2769994608524087
 20
396.6855020007199073
 30
0.0
  0
POINT
  5
2CE
  8
DEFPOINTS
 62
     0
 10
343.6167994608525191
 20
396.6855020007199073
 30
0.0
  0
POINT
  5
2CF
  8
DEFPOINTS
 62
     0
 10
343.6167994608525191
 20
482.8413531014654723
 30
0.0
  0
ENDBLK
  5
2D0
  8
0
  0
BLOCK
  8
0
  2
*D6
 70
     1
 10
0.0
 20
0.0
 30
0.0
  3
*D6
  1

  0
LINE
  5
2D3
  8
DIMENSION__ISO_
 10
149.6582494608524883
 20
403.0355020007198732
 30
0.0
 11
53.6865611480680016
 21
403.0355020007198732
 31
0.0
  0
LINE
  5
2D4
  8
DIMENSION__ISO_
 10
146.4832494608525053
 20
390.6655020007199823
 30
0.0
 11
53.6865611480680087
 21
390.6655020007199255
 31
0.0
  0
LINE
  5
2D5
  8
DIMENSION__ISO_
 10
61.6240611480680087
 20
384.4155020007199255
 30
0.0
 11
61.6240611480680087
 21
378.1655020007199255
 31
0.0
  0
LINE
  5
2D6
  8
DIMENSION__ISO_
 10
61.6240611480680016
 20
409.2855020007198732
 30
0.0
 11
61.6240611480680016
 21
422.7756793491811891
 31
0.0
  0
LINE
  5
2D7
  8
DIMENSION__ISO_
 10
61.6240611480680016
 20
422.7756793491811891
 30
0.0
 11
67.8740611480679945
 21
422.7756793491811891
 31
0.0
  0
LINE
  5
2D8
  8
DIMENSION__ISO_
 10
61.6240611480680087
 20
390.6655020007199255
 30
0.0
 11
61.6240611480680016
 21
403.0355020007198732
 31
0.0
  0
SOLID
  5
2D9
  8
DIMENSION__ISO_
 10
60.5823944814013515
 20
384.4155020007199255
 30
0.0
 11
62.665727814734673
 21
384.4155020007199255
 31
0.0
 12
61.6240611480680087
 22
390.6655020007199255
 32
0.0
 13
61.6240611480680087
 23
390.6655020007199255
 33
0.0
  0
SOLID
  5
2DA
  8
DIMENSION__ISO_
 10
60.5823944814013515
 20
409.2855020007198732
 30
0.0
 11
62.665727814734673
 21
409.2855020007198732
 31
0.0
 12
61.6240611480680016
 22
403.0355020007198732
 32
0.0
 13
61.6240611480680016
 23
403.0355020007198732
 33
0.0
  0
INSERT
  5
2DB
  8
0
  2
*U37
 10
0.0
 20
0.0
 30
0.0
  0
POINT
  5
2DC
  8
DEFPOINTS
 62
     0
 10
153.6269994608524883
 20
403.0355020007198732
 30
0.0
  0
POINT
  5
2DD
  8
DEFPOINTS
 62
     0
 10
150.4519994608525053
 20
390.6655020007199823
 30
0.0
  0
POINT
  5
2DE
  8
DEFPOINTS
 62
     0
 10
61.6240611480680087
 20
390.6655020007199255
 30
0.0
  0
ENDBLK
  5
2DF
  8
0
  0
BLOCK
  8
0
  2
*D7
 70
     1
 10
0.0
 20
0.0
 30
0.0
  3
*D7
  1

  0
LINE
  5
2E2
  8
DIMENSION__ISO_
 10
147.2769994608524087
 20
370.3607520007197991
 30
0.0
 11
147.2769994608524087
 21
332.6209818946871906
 31
0.0
  0
LINE
  5
2E3
  8
DIMENSION__ISO_
 10
247.4269994608523859
 20
386.6967520007198118
 30
0.0
 11
247.4269994608523859
 21
332.6209818946871906
 31
0.0
  0
LINE
  5
2E4
  8
DIMENSION__ISO_
 10
153.5269994608524087
 20
340.5584818946870769
 30
0.0
 11
169.7643572972330048
 21
340.5584818946870769
 31
0.0
  0
LINE
  5
2E5
  8
DIMENSION__ISO_
 10
241.1769994608523859
 20
340.5584818946870769
 30
0.0
 11
224.9396416244719035
 21
340.5584818946870769
 31
0.0
  0
SOLID
  5
2E6
  8
DIMENSION__ISO_
 10
153.5269994608524087
 20
341.6001485613538193
 30
0.0
 11
153.5269994608524087
 21
339.5168152280203913
 31
0.0
 12
147.2769994608524087
 22
340.5584818946870769
 32
0.0
 13
147.2769994608524087
 23
340.5584818946870769
 33
0.0
  0
SOLID
  5
2E7
  8
DIMENSION__ISO_
 10
241.1769994608523859
 20
341.6001485613538193
 30
0.0
 11
241.1769994608523859
 21
339.5168152280203913
 31
0.0
 12
247.4269994608523859
 22
340.5584818946870769
 32
0.0
 13
247.4269994608523859
 23
340.5584818946870769
 33
0.0
  0
INSERT
  5
2E8
  8
0
  2
*U38
 10
0.0
 20
0.0
 30
0.0
  0
POINT
  5
2E9
  8
DEFPOINTS
 62
     0
 10
147.2769994608524087
 20
374.3295020007196854
 30
0.0
  0
POINT
  5
2EA
  8
DEFPOINTS
 62
     0
 10
247.4269994608523859
 20
390.6655020007196981
 30
0.0
  0
POINT
  5
2EB
  8
DEFPOINTS
 62
     0
 10
247.4269994608523859
 20
340.5584818946870769
 30
0.0
  0
ENDBLK
  5
2EC
  8
0
  0
BLOCK
  8
0
  2
*D8
 70
     1
 10
0.0
 20
0.0
 30
0.0
  3
*D8
  1

  0
LINE
  5
2EF
  8
DIMENSION__ISO_
 10
285.526999460852096
 20
269.9355020007197936
 30
0.0
 11
323.0768436758763187
 21
259.764757181368509
 31
0.0
  0
LINE
  5
2F0
  8
DIMENSION__ISO_
 10
391.7803382315938165
 20
241.1557395960354881
 30
0.0
 11
368.5153053577315063
 21
247.4573026922467136
 31
0.0
  0
INSERT
  5
2F1
  8
0
  2
*U39
 10
0.0
 20
0.0
 30
0.0
  0
SOLID
  5
2F2
  8
DIMENSION__ISO_
 10
392.0526708488387158
 20
242.16117700832379
 30
0.0
 11
391.5080056143489173
 21
240.1503021837471863
 31
0.0
 12
397.8129627053236845
 22
239.5217438925664908
 32
0.0
 13
397.8129627053236845
 23
239.5217438925664908
 33
0.0
  0
POINT
  5
2F3
  8
DEFPOINTS
 62
     0
 10
397.8129627053236845
 20
239.5217438925664908
 30
0.0
  0
POINT
  5
2F4
  8
DEFPOINTS
 62
     0
 10
285.526999460852096
 20
269.9355020007197936
 30
0.0
  0
ENDBLK
  5
2F5
  8
0
  0
BLOCK
  8
0
  2
*D9
 70
     1
 10
0.0
 20
0.0
 30
0.0
  3
*D9
  1

  0
LINE
  5
2F8
  8
DIMENSION__ISO_
 10
285.5269994608526076
 20
269.9355020007197936
 30
0.0
 11
318.8538314913753879
 21
219.5213085922960943
 31
0.0
  0
LINE
  5
2F9
  8
DIMENSION__ISO_
 10
353.7699638344620894
 20
166.7029474769541935
 30
0.0
 11
326.9898035411380874
 21
207.2138541031742136
 31
0.0
  0
INSERT
  5
2FA
  8
0
  2
*U40
 10
0.0
 20
0.0
 30
0.0
  0
SOLID
  5
2FB
  8
DIMENSION__ISO_
 10
354.6389247311267923
 20
167.2773832040047068
 30
0.0
 11
352.9010029377973865
 21
166.1285117499035096
 31
0.0
 12
357.2165781967655107
 22
161.4891820969660046
 32
0.0
 13
357.2165781967655107
 23
161.4891820969660046
 33
0.0
  0
POINT
  5
2FC
  8
DEFPOINTS
 62
     0
 10
357.2165781967655107
 20
161.4891820969660046
 30
0.0
  0
POINT
  5
2FD
  8
DEFPOINTS
 62
     0
 10
285.5269994608526076
 20
269.9355020007197936
 30
0.0
  0
ENDBLK
  5
2FE
  8
0
  0
BLOCK
  8
0
  2
*D10
 70
     1
 10
0.0
 20
0.0
 30
0.0
  3
*D10
  1

  0
ARC
  5
301
  8
DIMENSION__ISO_
 10
247.4269994608523007
 20
390.6655020007196981
 30
0.0
 40
38.2645433611791432
 50
189.368931626958414
 51
230.7586156235300052
  0
ARC
  5
302
  8
DIMENSION__ISO_
 10
247.4269994608523007
 20
390.6655020007196981
 30
0.0
 40
38.2645433611791432
 50
261.9567330790687834
 51
344.9115844526153865
  0
SOLID
  5
303
  8
DIMENSION__ISO_
 10
208.6346958934539941
 20
384.3513085756516716
 30
0.0
 11
210.7110699884069902
 21
384.5214508560708282
 31
0.0
 12
209.162456099673193
 22
390.6655020007199823
 32
0.0
 13
209.162456099673193
 23
390.6655020007199823
 33
0.0
  0
SOLID
  5
304
  8
DIMENSION__ISO_
 10
283.3478428196158916
 20
380.8929970051304963
 30
0.0
 11
285.3969241201025966
 21
380.5167741964472157
 31
0.0
 12
285.5010518959091996
 22
386.8521295022489994
 32
0.0
 13
285.5010518959091996
 23
386.8521295022489994
 33
0.0
  0
INSERT
  5
305
  8
0
  2
*U41
 10
0.0
 20
0.0
 30
0.0
  0
POINT
  5
306
  8
DEFPOINTS
 62
     0
 10
247.4269994608523859
 20
390.6655020007196981
 30
0.0
  0
POINT
  5
307
  8
DEFPOINTS
 62
     0
 10
243.4582494608524996
 20
390.6655020007196981
 30
0.0
  0
POINT
  5
308
  8
DEFPOINTS
 62
     0
 10
297.1204280117901817
 20
385.6883708136967925
 30
0.0
  0
POINT
  5
309
  8
DEFPOINTS
 62
     0
 10
264.313235346844408
 20
356.3284911197155793
 30
0.0
  0
ENDBLK
  5
30A
  8
0
  0
BLOCK
  8
0
  2
*D11
 70
     1
 10
0.0
 20
0.0
 30
0.0
  3
*D11
  1

  0
LINE
  5
30D
  8
DIMENSION__ISO_
 10
285.5269994608524939
 20
259.7167520007196799
 30
0.0
 11
285.5269994608524939
 21
105.7236880332076936
 31
0.0
  0
LINE
  5
30E
  8
DIMENSION__ISO_
 10
247.4269994608524996
 20
146.4625261340165991
 30
0.0
 11
247.4269994608524996
 21
105.7236880332076936
 31
0.0
  0
LINE
  5
30F
  8
DIMENSION__ISO_
 10
253.6769994608524996
 20
113.6611880332076936
 30
0.0
 11
279.2769994608524939
 21
113.6611880332076936
 31
0.0
  0
LINE
  5
310
  8
DIMENSION__ISO_
 10
285.5269994608524939
 20
113.6611880332076936
 30
0.0
 11
302.0950047445168138
 21
113.6611880332076936
 31
0.0
  0
SOLID
  5
311
  8
DIMENSION__ISO_
 10
253.6769994608524996
 20
114.7028546998743934
 30
0.0
 11
253.6769994608524996
 21
112.6195213665409938
 31
0.0
 12
247.4269994608524996
 22
113.6611880332076936
 32
0.0
 13
247.4269994608524996
 23
113.6611880332076936
 33
0.0
  0
SOLID
  5
312
  8
DIMENSION__ISO_
 10
279.2769994608524939
 20
114.7028546998743934
 30
0.0
 11
279.2769994608524939
 21
112.6195213665409938
 31
0.0
 12
285.5269994608524939
 22
113.6611880332076936
 32
0.0
 13
285.5269994608524939
 23
113.6611880332076936
 33
0.0
  0
INSERT
  5
313
  8
0
  2
*U42
 10
0.0
 20
0.0
 30
0.0
  0
POINT
  5
314
  8
DEFPOINTS
 62
     0
 10
285.5269994608524939
 20
263.6855020007196799
 30
0.0
  0
POINT
  5
315
  8
DEFPOINTS
 62
     0
 10
247.4269994608524996
 20
150.4312761340165991
 30
0.0
  0
POINT
  5
316
  8
DEFPOINTS
 62
     0
 10
247.4269994608524996
 20
113.6611880332076936
 30
0.0
  0
ENDBLK
  5
317
  8
0
  0
BLOCK
  8
0
  2
*D12
 70
     1
 10
0.0
 20
0.0
 30
0.0
  3
*D12
  1

  0
LINE
  5
31A
  8
DIMENSION__ISO_
 10
285.5269994608523234
 20
269.9355020007196799
 30
0.0
 11
315.7363802332961882
 21
328.8055885379931738
 31
0.0
  0
LINE
  5
31B
  8
DIMENSION__ISO_
 10
327.4356492500876925
 20
351.6043669912609175
 30
0.0
 11
322.0519914523487728
 21
341.1130430271149976
 31
0.0
  0
INSERT
  5
31C
  8
0
  2
*U43
 10
0.0
 20
0.0
 30
0.0
  0
SOLID
  5
31D
  8
DIMENSION__ISO_
 10
326.5088813309953935
 20
352.0799410323796224
 30
0.0
 11
328.362417169179821
 21
351.128792950142099
 31
0.0
 12
330.2890934967999783
 22
357.164974505813916
 32
0.0
 13
330.2890934967999783
 23
357.164974505813916
 33
0.0
  0
POINT
  5
31E
  8
DEFPOINTS
 62
     0
 10
330.2890934967999783
 20
357.164974505813916
 30
0.0
  0
POINT
  5
31F
  8
DEFPOINTS
 62
     0
 10
285.5269994608523234
 20
269.9355020007196799
 30
0.0
  0
ENDBLK
  5
320
  8
0
  0
BLOCK
  8
0
  2
*D13
 70
     1
 10
0.0
 20
0.0
 30
0.0
  3
*D13
  1

  0
LINE
  5
323
  8
DIMENSION__ISO_
 10
285.5269994608524939
 20
269.9355020007196799
 30
0.0
 11
325.9068191440198916
 21
289.7268976619778869
 31
0.0
  0
LINE
  5
324
  8
DIMENSION__ISO_
 10
375.2513466074815938
 20
313.9121732379927039
 30
0.0
 11
351.0173672597525751
 21
302.0343521510997107
 31
0.0
  0
INSERT
  5
325
  8
0
  2
*U44
 10
0.0
 20
0.0
 30
0.0
  0
SOLID
  5
326
  8
DIMENSION__ISO_
 10
374.7928986927198025
 20
314.8475314334958739
 30
0.0
 11
375.709794522243385
 21
312.976815042489477
 31
0.0
 12
380.8634957805007843
 22
316.6628607265632809
 32
0.0
 13
380.8634957805007843
 23
316.6628607265632809
 33
0.0
  0
POINT
  5
327
  8
DEFPOINTS
 62
     0
 10
380.8634957805007843
 20
316.6628607265632809
 30
0.0
  0
POINT
  5
328
  8
DEFPOINTS
 62
     0
 10
285.5269994608524939
 20
269.9355020007196799
 30
0.0
  0
ENDBLK
  5
329
  8
0
  0
BLOCK
  8
0
  2
2DTRANSSECTION1
 70
     0
 10
0.0
 20
0.0
 30
0.0
  3
2DTRANSSECTION1
  1

  0
LINE
  5
32C
  8
SECTION_LINE__ISO_
  6
CHAIN
 10
89.8790440571295335
 20
72.4691057446543851
 30
0.0
 11
108.8176303817007948
 21
72.4691057446543851
 31
0.0
  0
LINE
  5
32D
  8
SECTION_LINE__ISO_
  6
CONTINUOUS
 10
89.8790440571295335
 20
72.4691057446543851
 30
0.0
 11
96.5483372194152167
 21
72.4691057446543851
 31
0.0
  0
LINE
  5
32E
  8
SECTION_LINE__ISO_
  6
CONTINUOUS
 10
102.1483372194151968
 20
72.4691057446543851
 30
0.0
 11
108.8176303817007948
 21
72.4691057446543851
 31
0.0
  0
LINE
  5
32F
  8
SECTION_LINE__ISO_
  6
CONTINUOUS
 10
93.213690638272368
 20
77.4691057446543851
 30
0.0
 11
93.213690638272368
 21
72.4691057446543851
 31
0.0
  0
POLYLINE
  5
330
  8
SECTION_LINE__ISO_
  6
CONTINUOUS
 66
     1
 10
0.0
 20
0.0
 30
0.0
 70
   128
  0
VERTEX
  5
331
  8
SECTION_LINE__ISO_
  6
CONTINUOUS
 10
92.2136909433985892
 20
77.4691054328562529
 30
0.0
  0
VERTEX
  5
332
  8
SECTION_LINE__ISO_
  6
CONTINUOUS
 10
93.2136909433985892
 20
72.4691054328562529
 30
0.0
  0
VERTEX
  5
333
  8
SECTION_LINE__ISO_
  6
CONTINUOUS
 10
94.213690943398575
 20
77.4691054328562529
 30
0.0
  0
VERTEX
  5
334
  8
SECTION_LINE__ISO_
  6
CONTINUOUS
 10
92.2136909433985892
 20
77.4691054328562529
 30
0.0
  0
SEQEND
  5
335
  8
SECTION_LINE__ISO_
  6
CONTINUOUS
  0
SOLID
  5
336
  8
SECTION_LINE__ISO_
 10
92.2136909433985892
 20
77.4691054328562529
 30
0.0
 11
93.2136909433985892
 21
72.4691054328562529
 31
0.0
 12
94.213690943398575
 22
77.4691054328562529
 32
0.0
 13
92.2136909433985892
 23
77.4691054328562529
 33
0.0
  0
LINE
  5
337
  8
SECTION_LINE__ISO_
  6
CONTINUOUS
 10
92.213690638272368
 20
77.4691057446543851
 30
0.0
 11
93.213690638272368
 21
72.4691057446543851
 31
0.0
  0
LINE
  5
338
  8
SECTION_LINE__ISO_
  6
CONTINUOUS
 10
93.213690638272368
 20
72.4691057446543851
 30
0.0
 11
94.213690638272368
 21
77.4691057446543851
 31
0.0
  0
LINE
  5
339
  8
SECTION_LINE__ISO_
  6
CONTINUOUS
 10
94.213690638272368
 20
77.4691057446543851
 30
0.0
 11
92.213690638272368
 21
77.4691057446543851
 31
0.0
  0
LINE
  5
33A
  8
SECTION_LINE__ISO_
  6
CONTINUOUS
 10
93.213690638272368
 20
83.0104466375924233
 30
0.0
 11
93.213690638272368
 21
77.4691057446543851
 31
0.0
  0
LINE
  5
33B
  8
SECTION_LINE__ISO_
  6
CONTINUOUS
 10
105.4829838005580029
 20
77.4691057446543851
 30
0.0
 11
105.4829838005580029
 21
72.4691057446543851
 31
0.0
  0
POLYLINE
  5
33C
  8
SECTION_LINE__ISO_
  6
CONTINUOUS
 66
     1
 10
0.0
 20
0.0
 30
0.0
 70
   128
  0
VERTEX
  5
33D
  8
SECTION_LINE__ISO_
  6
CONTINUOUS
 10
104.4829837748195018
 20
77.4691054328562529
 30
0.0
  0
VERTEX
  5
33E
  8
SECTION_LINE__ISO_
  6
CONTINUOUS
 10
105.4829837748195018
 20
72.4691054328562529
 30
0.0
  0
VERTEX
  5
33F
  8
SECTION_LINE__ISO_
  6
CONTINUOUS
 10
106.4829837748195018
 20
77.4691054328562529
 30
0.0
  0
VERTEX
  5
340
  8
SECTION_LINE__ISO_
  6
CONTINUOUS
 10
104.4829837748195018
 20
77.4691054328562529
 30
0.0
  0
SEQEND
  5
341
  8
SECTION_LINE__ISO_
  6
CONTINUOUS
  0
SOLID
  5
342
  8
SECTION_LINE__ISO_
 10
104.4829837748195018
 20
77.4691054328562529
 30
0.0
 11
105.4829837748195018
 21
72.4691054328562529
 31
0.0
 12
106.4829837748195018
 22
77.4691054328562529
 32
0.0
 13
104.4829837748195018
 23
77.4691054328562529
 33
0.0
  0
LINE
  5
343
  8
SECTION_LINE__ISO_
  6
CONTINUOUS
 10
104.4829838005580029
 20
77.4691057446543851
 30
0.0
 11
105.4829838005580029
 21
72.4691057446543851
 31
0.0
  0
LINE
  5
344
  8
SECTION_LINE__ISO_
  6
CONTINUOUS
 10
105.4829838005580029
 20
72.4691057446543851
 30
0.0
 11
106.4829838005580029
 21
77.4691057446543851
 31
0.0
  0
LINE
  5
345
  8
SECTION_LINE__ISO_
  6
CONTINUOUS
 10
106.4829838005580029
 20
77.4691057446543851
 30
0.0
 11
104.4829838005580029
 21
77.4691057446543851
 31
0.0
  0
LINE
  5
346
  8
SECTION_LINE__ISO_
  6
CONTINUOUS
 10
105.4829838005580029
 20
83.0104466375924233
 30
0.0
 11
105.4829838005580029
 21
77.4691057446543851
 31
0.0
  0
INSERT
  5
347
  8
0
  2
*U45
 10
0.0
 20
0.0
 30
0.0
  0
INSERT
  5
348
  8
0
  2
*U46
 10
0.0
 20
0.0
 30
0.0
  0
ENDBLK
  5
349
  8
0
  0
BLOCK
  8
0
  2
*D15
 70
     1
 10
0.0
 20
0.0
 30
0.0
  3
*D15
  1

  0
LINE
  5
34C
  8
DIMENSION__ISO_
 10
374.1090706114694058
 20
426.4633122308612769
 30
0.0
 11
365.8312758502353859
 21
426.4633122308612769
 31
0.0
  0
LINE
  5
34D
  8
DIMENSION__ISO_
 10
365.8312758502353859
 20
426.4633122308612769
 30
0.0
 11
345.989168678821386
 21
405.7783714722023092
 31
0.0
  0
INSERT
  5
34E
  8
0
  2
*U47
 10
0.0
 20
0.0
 30
0.0
  0
SOLID
  5
34F
  8
DIMENSION__ISO_
 10
345.2374433587582985
 20
406.4994668109894178
 30
0.0
 11
346.7408939988844736
 21
405.0572761334152005
 31
0.0
 12
341.6625966460986206
 22
401.2680195518238975
 32
0.0
 13
341.6625966460986206
 23
401.2680195518238975
 33
0.0
  0
POINT
  5
350
  8
DEFPOINTS
 62
     0
 10
341.6625966460986206
 20
401.2680195518238975
 30
0.0
  0
POINT
  5
351
  8
DEFPOINTS
 62
     0
 10
337.2667994608523827
 20
396.6855020007195094
 30
0.0
  0
ENDBLK
  5
352
  8
0
  0
BLOCK
  8
0
  2
*D16
 70
     1
 10
0.0
 20
0.0
 30
0.0
  3
*D16
  1

  0
LINE
  5
355
  8
DIMENSION__ISO_
 10
106.1773493682196943
 20
446.0620016593891819
 30
0.0
 11
114.3459402234298068
 21
446.0620016593891819
 31
0.0
  0
LINE
  5
356
  8
DIMENSION__ISO_
 10
114.3459402234298068
 20
446.0620016593891819
 30
0.0
 11
145.5062168218034913
 21
395.5135848924318225
 31
0.0
  0
INSERT
  5
357
  8
0
  2
*U48
 10
0.0
 20
0.0
 30
0.0
  0
SOLID
  5
358
  8
DIMENSION__ISO_
 10
146.39294127933141
 20
396.0602010108058835
 30
0.0
 11
144.6194923642756862
 21
394.9669687740577046
 31
0.0
 12
148.7859135320481982
 22
390.193238147264708
 32
0.0
 13
148.7859135320481982
 23
390.193238147264708
 33
0.0
  0
POINT
  5
359
  8
DEFPOINTS
 62
     0
 10
148.7859135320481982
 20
390.193238147264708
 30
0.0
  0
POINT
  5
35A
  8
DEFPOINTS
 62
     0
 10
150.4519994608525053
 20
387.4905020007199141
 30
0.0
  0
ENDBLK
  5
35B
  8
0
  0
BLOCK
  8
0
  2
*D18
 70
     1
 10
0.0
 20
0.0
 30
0.0
  3
*D18
  1

  0
LINE
  5
4A8
  8
DIMENSION__ISO_
 10
126.2662670566602969
 20
287.6025639675120829
 30
0.0
 11
126.2662670566602969
 21
367.7713139675120146
 31
0.0
  0
LINE
  5
4A9
  8
DIMENSION__ISO_
 10
239.1162670566604049
 20
287.6025639675120829
 30
0.0
 11
239.1162670566604049
 21
367.7713139675120146
 31
0.0
  0
LINE
  5
4AA
  8
DIMENSION__ISO_
 10
132.5162670566602969
 20
359.8338139675120146
 30
0.0
 11
155.1036247277178859
 21
359.8338139675120146
 31
0.0
  0
LINE
  5
4AB
  8
DIMENSION__ISO_
 10
232.8662670566604049
 20
359.8338139675120146
 30
0.0
 11
210.2789093856029865
 21
359.8338139675120146
 31
0.0
  0
SOLID
  5
4AC
  8
DIMENSION__ISO_
 10
132.5162670566602969
 20
360.8754806341787003
 30
0.0
 11
132.5162670566602969
 21
358.7921473008452722
 31
0.0
 12
126.2662670566602969
 22
359.8338139675120146
 32
0.0
 13
126.2662670566602969
 23
359.8338139675120146
 33
0.0
  0
SOLID
  5
4AD
  8
DIMENSION__ISO_
 10
232.8662670566604049
 20
360.8754806341787003
 30
0.0
 11
232.8662670566604049
 21
358.7921473008452722
 31
0.0
 12
239.1162670566604049
 22
359.8338139675120146
 32
0.0
 13
239.1162670566604049
 23
359.8338139675120146
 33
0.0
  0
INSERT
  5
4AE
  8
0
  2
*U51
 10
0.0
 20
0.0
 30
0.0
  0
POINT
  5
4AF
  8
DEFPOINTS
 62
     0
 10
126.2662670566602969
 20
283.6338139675120829
 30
0.0
  0
POINT
  5
4B0
  8
DEFPOINTS
 62
     0
 10
239.1162670566604049
 20
283.6338139675120829
 30
0.0
  0
POINT
  5
4B1
  8
DEFPOINTS
 62
     0
 10
239.1162670566604049
 20
359.8338139675120146
 30
0.0
  0
ENDBLK
  5
40A
  8
0
  0
BLOCK
  8
0
  2
*D19
 70
     1
 10
0.0
 20
0.0
 30
0.0
  3
*D19
  1

  0
LINE
  5
4B2
  8
DIMENSION__ISO_
 10
100.8662670566603055
 20
285.7355639675120074
 30
0.0
 11
100.8662670566603055
 21
367.771313967511901
 31
0.0
  0
LINE
  5
4B3
  8
DIMENSION__ISO_
 10
126.2662670566602969
 20
287.6025639675120829
 30
0.0
 11
126.2662670566602969
 21
367.771313967511901
 31
0.0
  0
LINE
  5
4B4
  8
DIMENSION__ISO_
 10
120.0162670566602969
 20
359.833813967511901
 30
0.0
 11
107.1162670566603055
 21
359.833813967511901
 31
0.0
  0
LINE
  5
4B5
  8
DIMENSION__ISO_
 10
100.8662670566603055
 20
359.833813967511901
 30
0.0
 11
84.2726742823647896
 21
359.833813967511901
 31
0.0
  0
SOLID
  5
4B6
  8
DIMENSION__ISO_
 10
120.0162670566602969
 20
360.8754806341785866
 30
0.0
 11
120.0162670566602969
 21
358.7921473008452153
 31
0.0
 12
126.2662670566602969
 22
359.833813967511901
 32
0.0
 13
126.2662670566602969
 23
359.833813967511901
 33
0.0
  0
SOLID
  5
4B7
  8
DIMENSION__ISO_
 10
107.1162670566603055
 20
360.8754806341785866
 30
0.0
 11
107.1162670566603055
 21
358.7921473008452153
 31
0.0
 12
100.8662670566603055
 22
359.833813967511901
 32
0.0
 13
100.8662670566603055
 23
359.833813967511901
 33
0.0
  0
INSERT
  5
4B8
  8
0
  2
*U52
 10
0.0
 20
0.0
 30
0.0
  0
POINT
  5
4B9
  8
DEFPOINTS
 62
     0
 10
100.8662670566603055
 20
281.7668139675120074
 30
0.0
  0
POINT
  5
4BA
  8
DEFPOINTS
 62
     0
 10
126.2662670566602969
 20
283.6338139675120829
 30
0.0
  0
POINT
  5
4BB
  8
DEFPOINTS
 62
     0
 10
126.2662670566602969
 20
359.833813967511901
 30
0.0
  0
ENDBLK
  5
417
  8
0
  0
BLOCK
  8
0
  2
*D20
 70
     1
 10
0.0
 20
0.0
 30
0.0
  3
*D20
  1

  0
LINE
  5
4BC
  8
DIMENSION__ISO_
 10
103.2475170566603992
 20
297.3118139675120801
 30
0.0
 11
47.2189128444740192
 21
297.3118139675120801
 31
0.0
  0
LINE
  5
4BD
  8
DIMENSION__ISO_
 10
109.0475170566603964
 20
270.3838139675121965
 30
0.0
 11
47.2189128444740405
 21
270.3838139675121965
 31
0.0
  0
LINE
  5
4BE
  8
DIMENSION__ISO_
 10
55.1564128444740334
 20
291.0618139675120801
 30
0.0
 11
55.1564128444740334
 21
276.6338139675121965
 31
0.0
  0
LINE
  5
4BF
  8
DIMENSION__ISO_
 10
55.1564128444740405
 20
270.3838139675121965
 30
0.0
 11
55.1564128444740405
 21
236.1875672982419871
 31
0.0
  0
LINE
  5
4C0
  8
DIMENSION__ISO_
 10
55.1564128444740405
 20
236.1875672982419871
 30
0.0
 11
48.9064128444740405
 21
236.1875672982419871
 31
0.0
  0
SOLID
  5
4C1
  8
DIMENSION__ISO_
 10
54.114746177807362
 20
291.0618139675120801
 30
0.0
 11
56.1980795111406906
 21
291.0618139675120801
 31
0.0
 12
55.1564128444740334
 22
297.3118139675120801
 32
0.0
 13
55.1564128444740334
 23
297.3118139675120801
 33
0.0
  0
SOLID
  5
4C2
  8
DIMENSION__ISO_
 10
54.114746177807362
 20
276.6338139675121965
 30
0.0
 11
56.1980795111406906
 21
276.6338139675121965
 31
0.0
 12
55.1564128444740405
 22
270.3838139675121965
 32
0.0
 13
55.1564128444740405
 23
270.3838139675121965
 33
0.0
  0
INSERT
  5
4C3
  8
0
  2
*U53
 10
0.0
 20
0.0
 30
0.0
  0
POINT
  5
4C4
  8
DEFPOINTS
 62
     0
 10
107.2162670566603992
 20
297.3118139675120801
 30
0.0
  0
POINT
  5
4C5
  8
DEFPOINTS
 62
     0
 10
113.0162670566603964
 20
270.3838139675121965
 30
0.0
  0
POINT
  5
4C6
  8
DEFPOINTS
 62
     0
 10
55.1564128444740405
 20
270.3838139675121965
 30
0.0
  0
ENDBLK
  5
424
  8
0
  0
BLOCK
  8
0
  2
*D21
 70
     1
 10
0.0
 20
0.0
 30
0.0
  3
*D21
  1

  0
LINE
  5
4C7
  8
DIMENSION__ISO_
 10
100.8662670566603055
 20
294.9305639675122279
 30
0.0
 11
100.8662670566603055
 21
385.0551650682577929
 31
0.0
  0
LINE
  5
4C8
  8
DIMENSION__ISO_
 10
297.2060670566605154
 20
294.9305639675122279
 30
0.0
 11
297.2060670566605154
 21
385.0551650682577929
 31
0.0
  0
LINE
  5
4C9
  8
DIMENSION__ISO_
 10
107.1162670566603055
 20
377.1176650682577929
 30
0.0
 11
171.4485247277179099
 21
377.1176650682577929
 31
0.0
  0
LINE
  5
4CA
  8
DIMENSION__ISO_
 10
290.9560670566605154
 20
377.1176650682577929
 30
0.0
 11
226.6238093856030105
 21
377.1176650682577929
 31
0.0
  0
SOLID
  5
4CB
  8
DIMENSION__ISO_
 10
107.1162670566603055
 20
378.1593317349244785
 30
0.0
 11
107.1162670566603055
 21
376.0759984015911073
 31
0.0
 12
100.8662670566603055
 22
377.1176650682577929
 32
0.0
 13
100.8662670566603055
 23
377.1176650682577929
 33
0.0
  0
SOLID
  5
4CC
  8
DIMENSION__ISO_
 10
290.9560670566605154
 20
378.1593317349244785
 30
0.0
 11
290.9560670566605154
 21
376.0759984015911073
 31
0.0
 12
297.2060670566605154
 22
377.1176650682577929
 32
0.0
 13
297.2060670566605154
 23
377.1176650682577929
 33
0.0
  0
INSERT
  5
4CD
  8
0
  2
*U54
 10
0.0
 20
0.0
 30
0.0
  0
POINT
  5
4CE
  8
DEFPOINTS
 62
     0
 10
100.8662670566603055
 20
290.9618139675122279
 30
0.0
  0
POINT
  5
4CF
  8
DEFPOINTS
 62
     0
 10
297.2060670566605154
 20
290.9618139675122279
 30
0.0
  0
POINT
  5
4D0
  8
DEFPOINTS
 62
     0
 10
297.2060670566605154
 20
377.1176650682577929
 30
0.0
  0
ENDBLK
  5
432
  8
0
  0
BLOCK
  8
0
  2
*D22
 70
     1
 10
0.0
 20
0.0
 30
0.0
  3
*D22
  1

  0
LINE
  5
4D1
  8
DIMENSION__ISO_
 10
103.2475170566603992
 20
297.3118139675120801
 30
0.0
 11
7.275828593955544
 21
297.3118139675120801
 31
0.0
  0
LINE
  5
4D2
  8
DIMENSION__ISO_
 10
100.0725170566604021
 20
284.9418139675120756
 30
0.0
 11
7.2758285939555609
 21
284.9418139675120756
 31
0.0
  0
LINE
  5
4D3
  8
DIMENSION__ISO_
 10
15.2133285939555503
 20
278.6918139675120756
 30
0.0
 11
15.2133285939555591
 21
272.4418139675120756
 31
0.0
  0
LINE
  5
4D4
  8
DIMENSION__ISO_
 10
15.2133285939555503
 20
303.5618139675120801
 30
0.0
 11
15.2133285939555503
 21
317.0519913159735097
 31
0.0
  0
LINE
  5
4D5
  8
DIMENSION__ISO_
 10
15.2133285939555503
 20
317.0519913159735097
 30
0.0
 11
21.4633285939555485
 21
317.0519913159735097
 31
0.0
  0
LINE
  5
4D6
  8
DIMENSION__ISO_
 10
15.2133285939555503
 20
284.9418139675120756
 30
0.0
 11
15.2133285939555503
 21
297.3118139675120801
 31
0.0
  0
SOLID
  5
4D7
  8
DIMENSION__ISO_
 10
14.1716619272888895
 20
278.6918139675120756
 30
0.0
 11
16.2549952606222199
 21
278.6918139675120756
 31
0.0
 12
15.2133285939555503
 22
284.9418139675120756
 32
0.0
 13
15.2133285939555503
 23
284.9418139675120756
 33
0.0
  0
SOLID
  5
4D8
  8
DIMENSION__ISO_
 10
14.1716619272888806
 20
303.5618139675120801
 30
0.0
 11
16.2549952606222199
 21
303.5618139675120801
 31
0.0
 12
15.2133285939555503
 22
297.3118139675120801
 32
0.0
 13
15.2133285939555503
 23
297.3118139675120801
 33
0.0
  0
INSERT
  5
4D9
  8
0
  2
*U55
 10
0.0
 20
0.0
 30
0.0
  0
POINT
  5
4DA
  8
DEFPOINTS
 62
     0
 10
107.2162670566603992
 20
297.3118139675120801
 30
0.0
  0
POINT
  5
4DB
  8
DEFPOINTS
 62
     0
 10
104.0412670566604021
 20
284.9418139675120756
 30
0.0
  0
POINT
  5
4DC
  8
DEFPOINTS
 62
     0
 10
15.2133285939555503
 20
284.9418139675120756
 30
0.0
  0
ENDBLK
  5
43F
  8
0
  0
BLOCK
  8
0
  2
*D23
 70
     1
 10
0.0
 20
0.0
 30
0.0
  3
*D23
  1

  0
LINE
  5
4DD
  8
DIMENSION__ISO_
 10
100.8662670566603055
 20
264.637063967512006
 30
0.0
 11
100.8662670566603055
 21
226.8972938614793975
 31
0.0
  0
LINE
  5
4DE
  8
DIMENSION__ISO_
 10
201.0162670566602969
 20
280.9730639675120187
 30
0.0
 11
201.0162670566602969
 21
226.8972938614793975
 31
0.0
  0
LINE
  5
4DF
  8
DIMENSION__ISO_
 10
107.1162670566603055
 20
234.8347938614793975
 30
0.0
 11
123.3536247277178006
 21
234.8347938614793975
 31
0.0
  0
LINE
  5
4E0
  8
DIMENSION__ISO_
 10
194.7662670566602969
 20
234.8347938614793975
 30
0.0
 11
178.5289093856029012
 21
234.8347938614793975
 31
0.0
  0
SOLID
  5
4E1
  8
DIMENSION__ISO_
 10
107.1162670566603055
 20
235.8764605281461115
 30
0.0
 11
107.1162670566603055
 21
233.7931271948127971
 31
0.0
 12
100.8662670566603055
 22
234.8347938614793975
 32
0.0
 13
100.8662670566603055
 23
234.8347938614793975
 33
0.0
  0
SOLID
  5
4E2
  8
DIMENSION__ISO_
 10
194.7662670566602969
 20
235.8764605281461115
 30
0.0
 11
194.7662670566602969
 21
233.7931271948127971
 31
0.0
 12
201.0162670566602969
 22
234.8347938614793975
 32
0.0
 13
201.0162670566602969
 23
234.8347938614793975
 33
0.0
  0
INSERT
  5
4E3
  8
0
  2
*U56
 10
0.0
 20
0.0
 30
0.0
  0
POINT
  5
4E4
  8
DEFPOINTS
 62
     0
 10
100.8662670566603055
 20
268.6058139675118923
 30
0.0
  0
POINT
  5
4E5
  8
DEFPOINTS
 62
     0
 10
201.0162670566602969
 20
284.941813967511905
 30
0.0
  0
POINT
  5
4E6
  8
DEFPOINTS
 62
     0
 10
201.0162670566602969
 20
234.8347938614793975
 30
0.0
  0
ENDBLK
  5
44E
  8
0
  0
BLOCK
  8
0
  2
*D24
 70
     1
 10
0.0
 20
0.0
 30
0.0
  3
*D24
  1

  0
LINE
  5
4E7
  8
DIMENSION__ISO_
 10
239.1162670566600923
 20
164.2118139675120858
 30
0.0
 11
276.6661111726022
 21
154.041069174998114
 31
0.0
  0
LINE
  5
4E8
  8
DIMENSION__ISO_
 10
345.3696058274018128
 20
135.4320515628278088
 30
0.0
 11
322.104573052622186
 21
141.7336146322014088
 31
0.0
  0
INSERT
  5
4E9
  8
0
  2
*U57
 10
0.0
 20
0.0
 30
0.0
  0
SOLID
  5
4EA
  8
DIMENSION__ISO_
 10
345.641938444646712
 20
136.4374889751161106
 30
0.0
 11
345.0972732101570273
 21
134.4266141505395069
 31
0.0
 12
351.4022303011317945
 22
133.7980558593588114
 32
0.0
 13
351.4022303011317945
 23
133.7980558593588114
 33
0.0
  0
POINT
  5
4EB
  8
DEFPOINTS
 62
     0
 10
351.4022303011317945
 20
133.7980558593588114
 30
0.0
  0
POINT
  5
4EC
  8
DEFPOINTS
 62
     0
 10
239.1162670566600923
 20
164.2118139675120858
 30
0.0
  0
ENDBLK
  5
45B
  8
0
  0
BLOCK
  8
0
  2
*D25
 70
     1
 10
0.0
 20
0.0
 30
0.0
  3
*D25
  1

  0
LINE
  5
4ED
  8
DIMENSION__ISO_
 10
239.1162670566606039
 20
164.2118139675120858
 30
0.0
 11
272.4430990694422121
 21
113.7976205859256993
 31
0.0
  0
LINE
  5
4EE
  8
DIMENSION__ISO_
 10
307.3592314302700856
 20
60.9792594437464572
 30
0.0
 11
280.5790711546871989
 21
101.490166043128994
 31
0.0
  0
INSERT
  5
4EF
  8
0
  2
*U58
 10
0.0
 20
0.0
 30
0.0
  0
SOLID
  5
4F0
  8
DIMENSION__ISO_
 10
308.2281923269347885
 20
61.5536951707970488
 30
0.0
 11
306.4902705336053259
 21
60.4048237166958586
 31
0.0
 12
310.8058457925736207
 22
55.7654940637582826
 32
0.0
 13
310.8058457925736207
 23
55.7654940637582826
 33
0.0
  0
POINT
  5
4F1
  8
DEFPOINTS
 62
     0
 10
310.8058457925736207
 20
55.7654940637582826
 30
0.0
  0
POINT
  5
4F2
  8
DEFPOINTS
 62
     0
 10
239.1162670566606039
 20
164.2118139675120858
 30
0.0
  0
ENDBLK
  5
464
  8
0
  0
BLOCK
  8
0
  2
*D26
 70
     1
 10
0.0
 20
0.0
 30
0.0
  3
*D26
  1

  0
ARC
  5
4F3
  8
DIMENSION__ISO_
 10
201.0162670566602969
 20
284.941813967511905
 30
0.0
 40
38.2645433611791503
 50
189.368931626958414
 51
230.7586156235300052
  0
ARC
  5
4F4
  8
DIMENSION__ISO_
 10
201.0162670566602969
 20
284.941813967511905
 30
0.0
 40
38.2645433611791503
 50
261.9567330790687834
 51
344.9115844526153865
  0
SOLID
  5
4F5
  8
DIMENSION__ISO_
 10
162.2239634892619904
 20
278.6276205424438785
 30
0.0
 11
164.3003375842149012
 21
278.7977628228629783
 31
0.0
 12
162.7517236954811892
 22
284.941813967512303
 32
0.0
 13
162.7517236954811892
 23
284.941813967512303
 33
0.0
  0
SOLID
  5
4F6
  8
DIMENSION__ISO_
 10
236.9371104154240015
 20
275.1693089719228738
 30
0.0
 11
238.9861917159107065
 21
274.7930861632394794
 31
0.0
 12
239.0903194917173096
 22
281.12844146904132
 32
0.0
 13
239.0903194917173096
 23
281.12844146904132
 33
0.0
  0
INSERT
  5
4F7
  8
0
  2
*U59
 10
0.0
 20
0.0
 30
0.0
  0
POINT
  5
4F8
  8
DEFPOINTS
 62
     0
 10
201.0162670566602969
 20
284.941813967511905
 30
0.0
  0
POINT
  5
4F9
  8
DEFPOINTS
 62
     0
 10
197.0475170566604959
 20
284.941813967511905
 30
0.0
  0
POINT
  5
4FA
  8
DEFPOINTS
 62
     0
 10
250.7096956075980927
 20
279.9646827804891132
 30
0.0
  0
POINT
  5
4FB
  8
DEFPOINTS
 62
     0
 10
217.9025029426524043
 20
250.6048030865078999
 30
0.0
  0
ENDBLK
  5
46D
  8
0
  0
BLOCK
  8
0
  2
*D27
 70
     1
 10
0.0
 20
0.0
 30
0.0
  3
*D27
  1

  0
LINE
  5
4FC
  8
DIMENSION__ISO_
 10
239.1162670566604049
 20
153.9930639675120005
 30
0.0
 11
239.1162670566604049
 21
0.0
 31
0.0
  0
LINE
  5
4FD
  8
DIMENSION__ISO_
 10
201.0162670566604959
 20
40.7388381008088771
 30
0.0
 11
201.0162670566604959
 21
0.0
 31
0.0
  0
LINE
  5
4FE
  8
DIMENSION__ISO_
 10
207.2662670566604959
 20
7.9375
 30
0.0
 11
232.8662670566604049
 21
7.9375
 31
0.0
  0
LINE
  5
4FF
  8
DIMENSION__ISO_
 10
239.1162670566604049
 20
7.9375
 30
0.0
 11
255.6842721886270908
 21
7.9375
 31
0.0
  0
SOLID
  5
500
  8
DIMENSION__ISO_
 10
207.2662670566604959
 20
8.9791666666666661
 30
0.0
 11
207.2662670566604959
 21
6.895833333333333
 31
0.0
 12
201.0162670566604959
 22
7.9375
 32
0.0
 13
201.0162670566604959
 23
7.9375
 33
0.0
  0
SOLID
  5
501
  8
DIMENSION__ISO_
 10
232.8662670566604049
 20
8.9791666666666661
 30
0.0
 11
232.8662670566604049
 21
6.895833333333333
 31
0.0
 12
239.1162670566604049
 22
7.9375
 32
0.0
 13
239.1162670566604049
 23
7.9375
 33
0.0
  0
INSERT
  5
502
  8
0
  2
*U60
 10
0.0
 20
0.0
 30
0.0
  0
POINT
  5
503
  8
DEFPOINTS
 62
     0
 10
239.1162670566604049
 20
157.9618139675118869
 30
0.0
  0
POINT
  5
504
  8
DEFPOINTS
 62
     0
 10
201.0162670566604959
 20
44.7075881008088913
 30
0.0
  0
POINT
  5
505
  8
DEFPOINTS
 62
     0
 10
201.0162670566604959
 20
7.9375
 30
0.0
  0
ENDBLK
  5
479
  8
0
  0
BLOCK
  8
0
  2
*D28
 70
     1
 10
0.0
 20
0.0
 30
0.0
  3
*D28
  1

  0
LINE
  5
506
  8
DIMENSION__ISO_
 10
239.1162670566602912
 20
164.2118139675118869
 30
0.0
 11
269.3256478153323883
 21
223.081900477948011
 31
0.0
  0
LINE
  5
507
  8
DIMENSION__ISO_
 10
281.0249168458955751
 20
245.8806789580532097
 30
0.0
 11
275.641259061928622
 21
235.3893550207446879
 31
0.0
  0
INSERT
  5
508
  8
0
  2
*U61
 10
0.0
 20
0.0
 30
0.0
  0
SOLID
  5
509
  8
DIMENSION__ISO_
 10
280.098148926803276
 20
246.3562529991718861
 30
0.0
 11
281.9516847649877036
 21
245.4051049169345049
 31
0.0
 12
283.8783610926079746
 22
251.4412864726062082
 32
0.0
 13
283.8783610926079746
 23
251.4412864726062082
 33
0.0
  0
POINT
  5
50A
  8
DEFPOINTS
 62
     0
 10
283.8783610926079746
 20
251.4412864726062082
 30
0.0
  0
POINT
  5
50B
  8
DEFPOINTS
 62
     0
 10
239.1162670566602912
 20
164.2118139675118869
 30
0.0
  0
ENDBLK
  5
486
  8
0
  0
BLOCK
  8
0
  2
*D29
 70
     1
 10
0.0
 20
0.0
 30
0.0
  3
*D29
  1

  0
LINE
  5
50C
  8
DIMENSION__ISO_
 10
239.1162670566604049
 20
164.2118139675118869
 30
0.0
 11
279.4960866850722141
 21
184.0032096019326957
 31
0.0
  0
LINE
  5
50D
  8
DIMENSION__ISO_
 10
328.8406142032894763
 20
208.1884852047849108
 30
0.0
 11
304.6066349103161883
 21
196.3106641447292873
 31
0.0
  0
INSERT
  5
50E
  8
0
  2
*U62
 10
0.0
 20
0.0
 30
0.0
  0
SOLID
  5
50F
  8
DIMENSION__ISO_
 10
328.3821662885276851
 20
209.1238434002881093
 30
0.0
 11
329.2990621180513244
 21
207.2531270092817124
 31
0.0
 12
334.4527633763087806
 22
210.9391726933556015
 32
0.0
 13
334.4527633763087806
 23
210.9391726933556015
 33
0.0
  0
POINT
  5
510
  8
DEFPOINTS
 62
     0
 10
334.4527633763087806
 20
210.9391726933556015
 30
0.0
  0
POINT
  5
511
  8
DEFPOINTS
 62
     0
 10
239.1162670566604049
 20
164.2118139675118869
 30
0.0
  0
ENDBLK
  5
48F
  8
0
  0
BLOCK
  8
0
  2
*D30
 70
     1
 10
0.0
 20
0.0
 30
0.0
  3
*D30
  1

  0
LINE
  5
512
  8
DIMENSION__ISO_
 10
327.6983379966097232
 20
320.7396241976535975
 30
0.0
 11
319.4205434460429274
 21
320.7396241976534839
 31
0.0
  0
LINE
  5
513
  8
DIMENSION__ISO_
 10
319.4205434460429274
 20
320.7396241976534839
 30
0.0
 11
299.5784362746293255
 21
300.0546834389946866
 31
0.0
  0
INSERT
  5
514
  8
0
  2
*U63
 10
0.0
 20
0.0
 30
0.0
  0
SOLID
  5
515
  8
DIMENSION__ISO_
 10
298.826710954566181
 20
300.7757787777817953
 30
0.0
 11
300.330161594692413
 21
299.333588100207578
 31
0.0
 12
295.2518642419066168
 22
295.5443315186162749
 32
0.0
 13
295.2518642419066168
 23
295.5443315186162749
 33
0.0
  0
POINT
  5
516
  8
DEFPOINTS
 62
     0
 10
295.2518642419066168
 20
295.5443315186162749
 30
0.0
  0
POINT
  5
517
  8
DEFPOINTS
 62
     0
 10
290.856067056660379
 20
290.9618139675117732
 30
0.0
  0
ENDBLK
  5
498
  8
0
  0
BLOCK
  8
0
  2
*D31
 70
     1
 10
0.0
 20
0.0
 30
0.0
  3
*D31
  1

  0
LINE
  5
518
  8
DIMENSION__ISO_
 10
59.7666171191970932
 20
340.3383136261813888
 30
0.0
 11
67.9352078192375757
 21
340.3383136261813888
 31
0.0
  0
LINE
  5
519
  8
DIMENSION__ISO_
 10
67.9352078192375757
 20
340.3383136261813888
 30
0.0
 11
99.0954844176114733
 21
289.7898968592240863
 31
0.0
  0
INSERT
  5
51A
  8
0
  2
*U64
 10
0.0
 20
0.0
 30
0.0
  0
SOLID
  5
51B
  8
DIMENSION__ISO_
 10
99.9822088751393068
 20
290.3365129775982041
 30
0.0
 11
98.2087599600836114
 21
289.2432807408500253
 31
0.0
 12
102.375181127856095
 22
284.4695501140569718
 32
0.0
 13
102.375181127856095
 23
284.4695501140569718
 33
0.0
  0
POINT
  5
51C
  8
DEFPOINTS
 62
     0
 10
102.375181127856095
 20
284.4695501140569718
 30
0.0
  0
POINT
  5
51D
  8
DEFPOINTS
 62
     0
 10
104.0412670566604021
 20
281.7668139675121211
 30
0.0
  0
ENDBLK
  5
4A1
  8
0
  0
BLOCK
  8
0
  2
*U33
 70
     1
 10
0.0
 20
0.0
 30
0.0
  3
*U33
  1

  0
TEXT
  5
790
  8
DIMENSION__ISO_
 10
202.5505561028427906
 20
463.2183650043112948
 30
0.0
 40
6.3499999046325666
  1
112.9 [4.443]
  7
MtXpl_Tahoma
  0
ENDBLK
  5
792
  8
0
  0
BLOCK
  8
0
  2
*U34
 70
     1
 10
0.0
 20
0.0
 30
0.0
  3
*U34
  1

  0
TEXT
  5
794
  8
DIMENSION__ISO_
 10
81.3121516731069534
 20
463.2183650043112948
 30
0.0
 40
6.3499999046325666
  1
25.4 [1.000]
  7
MtXpl_Tahoma
  0
ENDBLK
  5
796
  8
0
  0
BLOCK
  8
0
  2
*U35
 70
     1
 10
0.0
 20
0.0
 30
0.0
  3
*U35
  1

  0
TEXT
  5
798
  8
DIMENSION__ISO_
 10
45.9458902352162326
 20
339.5721183350414094
 30
0.0
 40
6.3499999046325666
  1
26.9 [1.060]
  7
MtXpl_Tahoma
  0
ENDBLK
  5
79A
  8
0
  0
BLOCK
  8
0
  2
*U36
 70
     1
 10
0.0
 20
0.0
 30
0.0
  3
*U36
  1

  0
TEXT
  5
79C
  8
DIMENSION__ISO_
 10
218.8954561028427861
 20
480.5022161050571867
 30
0.0
 40
6.3499999046325666
  1
196.3 [7.730]
  7
MtXpl_Tahoma
  0
ENDBLK
  5
79E
  8
0
  0
BLOCK
  8
0
  2
*U37
 70
     1
 10
0.0
 20
0.0
 30
0.0
  3
*U37
  1

  0
TEXT
  5
7A0
  8
DIMENSION__ISO_
 10
68.9102599536779366
 20
420.4365423527726762
 30
0.0
 40
6.3499999046325666
  1
12.4 [0.487]
  7
MtXpl_Tahoma
  0
ENDBLK
  5
7A2
  8
0
  0
BLOCK
  8
0
  2
*U38
 70
     1
 10
0.0
 20
0.0
 30
0.0
  3
*U38
  1

  0
TEXT
  5
7A4
  8
DIMENSION__ISO_
 10
170.8005561028427906
 20
338.2193448982787913
 30
0.0
 40
6.3499999046325666
  1
100.2 [3.943]
  7
MtXpl_Tahoma
  0
ENDBLK
  5
7A6
  8
0
  0
BLOCK
  8
0
  2
*U39
 70
     1
 10
0.0
 20
0.0
 30
0.0
  3
*U39
  1

  0
TEXT
  5
7A8
  8
DIMENSION__ISO_
 10
316.3681537209673138
 20
251.2718929403993116
 30
0.0
 40
6.3499999046325666
  1
R116.3 [R4.58]
  7
MtXpl_Tahoma
  0
ENDBLK
  5
7AA
  8
0
  0
BLOCK
  8
0
  2
*U40
 70
     1
 10
0.0
 20
0.0
 30
0.0
  3
*U40
  1

  0
TEXT
  5
7AC
  8
DIMENSION__ISO_
 10
293.4938967204196842
 20
211.0284443513268968
 30
0.0
 40
6.3499999046325666
  1
R130.0 [R5.12]
  7
MtXpl_Tahoma
  0
ENDBLK
  5
7AE
  8
0
  0
BLOCK
  8
0
  2
*U41
 70
     1
 10
0.0
 20
0.0
 30
0.0
  3
*U41
  1

  0
TEXT
  5
7B0
  8
DIMENSION__ISO_
 10
222.0891436055813131
 20
352.6694194964179019
 30
0.0
 40
6.3499999046325666
  1
174
  7
MtXpl_Tahoma
  0
ENDBLK
  5
7B2
  8
0
  0
BLOCK
  8
0
  2
*U42
 70
     1
 10
0.0
 20
0.0
 30
0.0
  3
*U42
  1

  0
TEXT
  5
7B4
  8
DIMENSION__ISO_
 10
303.6813378601988802
 20
111.3220510367993938
 30
0.0
 40
6.3499999046325666
  1
38.1 [1.500]
  7
MtXpl_Tahoma
  0
ENDBLK
  5
7B6
  8
0
  0
BLOCK
  8
0
  2
*U43
 70
     1
 10
0.0
 20
0.0
 30
0.0
  3
*U43
  1

  0
TEXT
  5
7B8
  8
DIMENSION__ISO_
 10
291.8501803752299111
 20
332.6201787861459138
 30
0.0
 40
6.3499999046325666
  1
R98.0 [R3.86]
  7
MtXpl_Tahoma
  0
ENDBLK
  5
7BA
  8
0
  0
BLOCK
  8
0
  2
*U44
 70
     1
 10
0.0
 20
0.0
 30
0.0
  3
*U44
  1

  0
TEXT
  5
7BC
  8
DIMENSION__ISO_
 10
309.0341724060497199
 20
293.5414879101305132
 30
0.0
 40
6.3499999046325666
  1
R106.2 [R4.18]
  7
MtXpl_Tahoma
  0
ENDBLK
  5
7BE
  8
0
  0
BLOCK
  8
0
  2
*U45
 70
     1
 10
0.0
 20
0.0
 30
0.0
  3
*U45
  1

  0
TEXT
  5
7C0
  8
SECTION_LINE__ISO_
 10
91.3547316612781373
 20
85.9691057446543851
 30
0.0
 40
4.5719999074935904
  1
B
  7
MtXpl_Tahoma
  0
ENDBLK
  5
7C2
  8
0
  0
BLOCK
  8
0
  2
*U46
 70
     1
 10
0.0
 20
0.0
 30
0.0
  3
*U46
  1

  0
TEXT
  5
7C4
  8
SECTION_LINE__ISO_
 10
103.6240248235637011
 20
85.9691057446543851
 30
0.0
 40
4.5719999074935904
  1
B
  7
MtXpl_Tahoma
  0
ENDBLK
  5
7C6
  8
0
  0
BLOCK
  8
0
  2
*U47
 70
     1
 10
0.0
 20
0.0
 30
0.0
  3
*U47
  1

  0
TEXT
  5
7C8
  8
DIMENSION__ISO_
 10
375.4752559707708883
 20
424.1610120029689028
 30
0.0
 40
6.25
  1
R6.4 [R0.25] TYP
  7
MtXpl_Tahoma
  0
ENDBLK
  5
7CA
  8
0
  0
BLOCK
  8
0
  2
*U48
 70
     1
 10
0.0
 20
0.0
 30
0.0
  3
*U48
  1

  0
TEXT
  5
7CC
  8
DIMENSION__ISO_
 10
55.5011247548003013
 20
443.7228646629808964
 30
0.0
 40
6.3499999046325666
  1
R3.2 [R0.12]
  7
MtXpl_Tahoma
  0
ENDBLK
  5
7CE
  8
0
  0
BLOCK
  8
0
  2
*U49
 70
     1
 10
0.0
 20
0.0
 30
0.0
  3
*U49
  1

  0
TEXT
  5
7D1
  8
SYMBOL__ISO_
 10
110.5692983424112015
 20
161.8608384270322063
 30
0.0
 40
6.3500002026557931
  1
4X  
  7
MtXpl_Tahoma
  0
TEXT
  5
7D2
  8
SYMBOL__ISO_
 10
125.8664445660018032
 20
161.8608384270322063
 30
0.0
 40
6.3499999999999988
  1
n
  7
MtXpl_AIGDT
  0
TEXT
  5
7D3
  8
SYMBOL__ISO_
 10
133.1802093491818084
 20
161.8608384270322063
 30
0.0
 40
6.3499999999999988
  1
6.4 THRU
  7
MtXpl_Tahoma
  0
TEXT
  5
7D4
  8
SYMBOL__ISO_
 10
110.2851191634906058
 20
150.7483373154055073
 30
0.0
 40
6.3499999999999988
  1
n
  7
MtXpl_AIGDT
  0
TEXT
  5
7D5
  8
SYMBOL__ISO_
 10
117.5988839466705969
 20
150.7483373154055073
 30
0.0
 40
6.3499999999999988
  1
14 C'SINK X 90
  7
MtXpl_Tahoma
  0
ENDBLK
  5
7D7
  8
0
  0
BLOCK
  8
0
  2
*U50
 70
     1
 10
0.0
 20
0.0
 30
0.0
  3
*U50
  1

  0
SOLID
  5
7D9
  8
SYMBOL__ISO_
 10
234.5632449839154106
 20
70.5350121634162122
 30
0.0
 11
236.2578943092875079
 21
64.4296265811240971
 31
0.0
 12
232.6747225964354016
 22
69.6553753237121782
 32
0.0
 13
232.6747225964354016
 23
69.6553753237121782
 33
0.0
  0
POLYLINE
  5
7DA
  8
SYMBOL__ISO_
 66
     1
 10
0.0
 20
0.0
 30
0.0
  0
VERTEX
  5
7DB
  8
SYMBOL__ISO_
 10
233.6189837901754061
 20
70.0951937435641952
 30
0.0
  0
VERTEX
  5
7DC
  8
SYMBOL__ISO_
 10
189.3974859188168978
 20
165.0358385283601024
 30
0.0
  0
VERTEX
  5
7DD
  8
SYMBOL__ISO_
 10
183.1474859188168978
 20
165.0358385283601024
 30
0.0
  0
SEQEND
  5
7DE
  8
SYMBOL__ISO_
  0
ENDBLK
  5
7E0
  8
0
  0
BLOCK
  8
0
  2
*U51
 70
     1
 10
0.0
 20
0.0
 30
0.0
  3
*U51
  1

  0
TEXT
  5
7E2
  8
DIMENSION__ISO_
 10
156.1398235333278137
 20
357.4946769979410988
 30
0.0
 40
6.3499999046325666
  1
112.9 [4.443]
  7
MtXpl_Tahoma
  0
ENDBLK
  5
7E4
  8
0
  0
BLOCK
  8
0
  2
*U52
 70
     1
 10
0.0
 20
0.0
 30
0.0
  3
*U52
  1

  0
TEXT
  5
7E6
  8
DIMENSION__ISO_
 10
34.9014191173825523
 20
357.4946769979410988
 30
0.0
 40
6.3499999046325666
  1
25.4 [1.000]
  7
MtXpl_Tahoma
  0
ENDBLK
  5
7E8
  8
0
  0
BLOCK
  8
0
  2
*U53
 70
     1
 10
0.0
 20
0.0
 30
0.0
  3
*U53
  1

  0
TEXT
  5
7EA
  8
DIMENSION__ISO_
 10
-0.4648423205081437
 20
233.8484303286710997
 30
0.0
 40
6.3499999046325666
  1
26.9 [1.060]
  7
MtXpl_Tahoma
  0
ENDBLK
  5
7EC
  8
0
  0
BLOCK
  8
0
  2
*U54
 70
     1
 10
0.0
 20
0.0
 30
0.0
  3
*U54
  1

  0
TEXT
  5
7EE
  8
DIMENSION__ISO_
 10
172.4847235333278093
 20
374.778528098686877
 30
0.0
 40
6.3499999046325666
  1
196.3 [7.730]
  7
MtXpl_Tahoma
  0
ENDBLK
  5
7F0
  8
0
  0
BLOCK
  8
0
  2
*U55
 70
     1
 10
0.0
 20
0.0
 30
0.0
  3
*U55
  1

  0
TEXT
  5
7F2
  8
DIMENSION__ISO_
 10
22.4995273995654692
 20
314.7128543464024801
 30
0.0
 40
6.3499999046325666
  1
12.4 [0.487]
  7
MtXpl_Tahoma
  0
ENDBLK
  5
7F4
  8
0
  0
BLOCK
  8
0
  2
*U56
 70
     1
 10
0.0
 20
0.0
 30
0.0
  3
*U56
  1

  0
TEXT
  5
7F6
  8
DIMENSION__ISO_
 10
124.3898235333277
 20
232.4956568919085953
 30
0.0
 40
6.3499999046325666
  1
100.2 [3.943]
  7
MtXpl_Tahoma
  0
ENDBLK
  5
7F8
  8
0
  0
BLOCK
  8
0
  2
*U57
 70
     1
 10
0.0
 20
0.0
 30
0.0
  3
*U57
  1

  0
TEXT
  5
7FA
  8
DIMENSION__ISO_
 10
269.957421130800526
 20
145.5482049340290018
 30
0.0
 40
6.3499999046325666
  1
R116.3 [R4.58]
  7
MtXpl_Tahoma
  0
ENDBLK
  5
7FC
  8
0
  0
BLOCK
  8
0
  2
*U58
 70
     1
 10
0.0
 20
0.0
 30
0.0
  3
*U58
  1

  0
TEXT
  5
7FE
  8
DIMENSION__ISO_
 10
247.0831641302530954
 20
105.3047563449565018
 30
0.0
 40
6.3499999046325666
  1
R130.0 [R5.12]
  7
MtXpl_Tahoma
  0
ENDBLK
  5
800
  8
0
  0
BLOCK
  8
0
  2
*U59
 70
     1
 10
0.0
 20
0.0
 30
0.0
  3
*U59
  1

  0
TEXT
  5
802
  8
DIMENSION__ISO_
 10
175.6784112013893093
 20
246.9457314632101941
 30
0.0
 40
6.3499999046325666
  1
174
  7
MtXpl_Tahoma
  0
ENDBLK
  5
804
  8
0
  0
BLOCK
  8
0
  2
*U60
 70
     1
 10
0.0
 20
0.0
 30
0.0
  3
*U60
  1

  0
TEXT
  5
806
  8
DIMENSION__ISO_
 10
257.2706053043091856
 20
5.5983630304291712
 30
0.0
 40
6.3499999046325666
  1
38.1 [1.500]
  7
MtXpl_Tahoma
  0
ENDBLK
  5
808
  8
0
  0
BLOCK
  8
0
  2
*U61
 70
     1
 10
0.0
 20
0.0
 30
0.0
  3
*U61
  1

  0
TEXT
  5
80A
  8
DIMENSION__ISO_
 10
245.4394478004658993
 20
226.8964907797756041
 30
0.0
 40
6.3499999046325666
  1
R98.0 [R3.86]
  7
MtXpl_Tahoma
  0
ENDBLK
  5
80C
  8
0
  0
BLOCK
  8
0
  2
*U62
 70
     1
 10
0.0
 20
0.0
 30
0.0
  3
*U62
  1

  0
TEXT
  5
80E
  8
DIMENSION__ISO_
 10
262.623439815882989
 20
187.8177999037602035
 30
0.0
 40
6.3499999046325666
  1
R106.2 [R4.18]
  7
MtXpl_Tahoma
  0
ENDBLK
  5
810
  8
0
  0
BLOCK
  8
0
  2
*U63
 70
     1
 10
0.0
 20
0.0
 30
0.0
  3
*U63
  1

  0
TEXT
  5
812
  8
DIMENSION__ISO_
 10
329.0645233559112057
 20
318.437323996176076
 30
0.0
 40
6.25
  1
R6.4 [R0.25] TYP
  7
MtXpl_Tahoma
  0
ENDBLK
  5
814
  8
0
  0
BLOCK
  8
0
  2
*U64
 70
     1
 10
0.0
 20
0.0
 30
0.0
  3
*U64
  1

  0
TEXT
  5
816
  8
DIMENSION__ISO_
 10
9.0903921954387847
 20
337.9991766566104729
 30
0.0
 40
6.3499999046325666
  1
R3.2 [R0.12]
  7
MtXpl_Tahoma
  0
ENDBLK
  5
818
  8
0
  0
ENDSEC
  0
SECTION
  2
ENTITIES
  0
ARC
  5
3C3
  8
VISIBLE__ISO_
 10
107.2162670566602998
 20
290.9618139675122279
 30
0.0
 40
6.3500000000000139
 50
90.0
 51
180.0
  0
CIRCLE
  5
3D5
  8
VISIBLE__ISO_
 10
345.2882670566605157
 20
164.2118139675118869
 30
0.0
 40
3.174999999999998
  0
CIRCLE
  5
3D6
  8
VISIBLE__ISO_
 10
239.1162670566604049
 20
270.3838139675120829
 30
0.0
 40
3.174999999999998
  0
CIRCLE
  5
3D7
  8
VISIBLE__ISO_
 10
239.1162670566604049
 20
58.039813967511968
 30
0.0
 40
3.174999999999998
  0
CIRCLE
  5
3D8
  8
VISIBLE__ISO_
 10
126.2662670566602969
 20
270.3838139675120829
 30
0.0
 40
3.174999999999998
  0
POLYLINE
  5
629
  8
0
 66
     1
 10
0.0
 20
0.0
 30
0.0
 70
     1
  0
VERTEX
  5
81C
  8
0
 10
191.3600325037731977
 20
42.2210443055155267
 30
0.0
  0
VERTEX
  5
81D
  8
0
 10
191.3600325037731977
 20
58.3587628982240787
 30
0.0
  0
VERTEX
  5
81E
  8
0
 10
201.0162670566604959
 20
54.2454398823295776
 30
0.0
  0
VERTEX
  5
81F
  8
0
 10
204.1912670566607062
 20
53.2461499132649081
 30
0.0
 42
0.0141881286525119
  0
VERTEX
  5
820
  8
0
 10
210.5412670566605868
 20
51.443894775039368
 30
0.0
 42
1.077068088013047
  0
VERTEX
  5
821
  8
0
 10
250.7096956075982064
 20
279.9646827804892268
 30
0.0
  0
VERTEX
  5
822
  8
0
 10
201.0162670566602969
 20
284.941813967511905
 30
0.0
  0
VERTEX
  5
823
  8
0
 10
104.0412670566603026
 20
284.9418139675120187
 30
0.0
 42
0.4142135623730931
  0
VERTEX
  5
824
  8
0
 10
100.8662670566603055
 20
281.7668139675120074
 30
0.0
  0
VERTEX
  5
825
  8
0
 10
90.8294528775713843
 20
275.6678880331837718
 30
0.0
  0
VERTEX
  5
826
  8
0
 10
90.8294528775713701
 20
297.3118139675119096
 30
0.0
  0
VERTEX
  5
827
  8
0
 10
107.2162670566602998
 20
297.3118139675120233
 30
0.0
  0
VERTEX
  5
828
  8
0
 10
290.8560670566604927
 20
297.3118139675120233
 30
0.0
 42
-0.4142135623730951
  0
VERTEX
  5
829
  8
0
 10
297.2060670566604017
 20
290.9618139675122279
 30
0.0
  0
VERTEX
  5
82A
  8
0
 10
297.2060670566605154
 20
284.3735161690038922
 30
0.0
 42
0.2763681881238862
  0
VERTEX
  5
82B
  8
0
 10
300.5550202653146243
 20
278.7774266275334867
 30
0.0
 42
-0.8899903815968581
  0
VERTEX
  5
82C
  8
0
 10
205.7357575540324888
 20
38.5704927975045209
 30
0.0
  0
SEQEND
  5
82D
  8
0
  0
POLYLINE
  5
632
  8
0
 66
     1
 10
0.0
 20
0.0
 30
0.0
 70
     1
  0
VERTEX
  5
82E
  8
0
 10
209.2975322634727888
 20
70.8123011672112028
 30
0.0
 42
0.0033221350202668
  0
VERTEX
  5
82F
  8
0
 10
210.5412670566603026
 20
70.424313142508737
 30
0.0
 42
0.2352156698736041
  0
VERTEX
  5
830
  8
0
 10
296.7453774046298918
 20
84.892764701263502
 30
0.0
 42
-0.3895342695752455
  0
VERTEX
  5
831
  8
0
 10
301.012537468403309
 20
84.4016769051288804
 30
0.0
 42
1.0748156801379549
  0
VERTEX
  5
832
  8
0
 10
318.9264041190456282
 20
102.3155435557717965
 30
0.0
 42
-0.3895342695752424
  0
VERTEX
  5
833
  8
0
 10
318.4353163229105803
 20
106.5827036195447022
 30
0.0
 42
0.3249217386957443
  0
VERTEX
  5
834
  8
0
 10
318.4353163229085908
 20
221.8409243154821979
 30
0.0
 42
-0.3895342695752713
  0
VERTEX
  5
835
  8
0
 10
318.926404119043184
 20
226.1080843792555868
 30
0.0
 42
1.0748156801380691
  0
VERTEX
  5
836
  8
0
 10
301.01253746840041
 20
244.021951029897707
 30
0.0
 42
-0.3895342695752729
  0
VERTEX
  5
837
  8
0
 10
296.7453774046268791
 20
243.5308632337628012
 30
0.0
 42
0.1583853872085063
  0
VERTEX
  5
838
  8
0
 10
239.1162670566604049
 20
262.255813967512097
 30
0.0
  0
VERTEX
  5
839
  8
0
 10
107.2162670566602998
 20
262.255813967512097
 30
0.0
 42
-0.414213562373093
  0
VERTEX
  5
83A
  8
0
 10
100.8662670566603055
 20
268.6058139675118923
 30
0.0
  0
VERTEX
  5
83B
  8
0
 10
100.8662670566603055
 20
281.7668139675120074
 30
0.0
  0
VERTEX
  5
83C
  8
0
 10
100.8662670566604049
 20
290.9618139675122279
 30
0.0
 42
-0.414213562373118
  0
VERTEX
  5
83D
  8
0
 10
107.2162670566602998
 20
297.3118139675121938
 30
0.0
  0
VERTEX
  5
83E
  8
0
 10
290.8560670566604927
 20
297.3118139675119096
 30
0.0
 42
-0.4142135623730951
  0
VERTEX
  5
83F
  8
0
 10
297.2060670566604017
 20
290.9618139675122848
 30
0.0
  0
VERTEX
  5
840
  8
0
 10
297.2060670566605154
 20
284.3735161690038922
 30
0.0
 42
0.2763681881238847
  0
VERTEX
  5
841
  8
0
 10
300.5550202653146243
 20
278.7774266275334867
 30
0.0
 42
-0.8899903815968578
  0
VERTEX
  5
842
  8
0
 10
205.7357575540326025
 20
38.5704927975045493
 30
0.0
 42
-0.066075122275542
  0
VERTEX
  5
843
  8
0
 10
204.1912670566603936
 20
39.2083267867776328
 30
0.0
 42
-0.2679491924311219
  0
VERTEX
  5
844
  8
0
 10
201.0162670566604959
 20
44.7075881008088913
 30
0.0
  0
VERTEX
  5
845
  8
0
 10
201.0162670566604959
 20
54.2454398823295776
 30
0.0
  0
VERTEX
  5
846
  8
0
 10
201.0162670566604959
 20
64.7631099236683667
 30
0.0
 42
-0.5079117798187353
  0
SEQEND
  5
847
  8
0
  0
ENDSEC
  0
EOF
